  0
SECTION
  2
HEADER
  9
$ACADVER
  1
AC1014
  9
$HANDSEED
  5
FFFF
  9
$MEASUREMENT
 70
     1
  0
ENDSEC
  0
SECTION
  2
TABLES
  0
TABLE
  2
VPORT
  5
8
330
0
100
AcDbSymbolTable
 70
     4
  0
VPORT
  5
2E
330
8
100
AcDbSymbolTableRecord
100
AcDbViewportTableRecord
  2
*ACTIVE
 70
     0
 10
0.0
 20
0.0
 11
1.0
 21
1.0
 12
210.0
 22
148.5
 13
0.0
 23
0.0
 14
10.0
 24
10.0
 15
10.0
 25
10.0
 16
0.0
 26
0.0
 36
1.0
 17
0.0
 27
0.0
 37
0.0
 40
341.0
 41
1.24
 42
50.0
 43
0.0
 44
0.0
 50
0.0
 51
0.0
 71
     0
 72
   100
 73
     1
 74
     3
 75
     0
 76
     0
 77
     0
 78
     0
  0
ENDTAB
  0
TABLE
  2
LTYPE
  5
5
330
0
100
AcDbSymbolTable
 70
     1
  0
LTYPE
  5
14
330
5
100
AcDbSymbolTableRecord
100
AcDbLinetypeTableRecord
  2
BYBLOCK
 70
     0
  3

 72
    65
 73
     0
 40
0.0
  0
LTYPE
  5
15
330
5
100
AcDbSymbolTableRecord
100
AcDbLinetypeTableRecord
  2
BYLAYER
 70
     0
  3

 72
    65
 73
     0
 40
0.0
  0
LTYPE
  5
16
330
5
100
AcDbSymbolTableRecord
100
AcDbLinetypeTableRecord
  2
CONTINUOUS
 70
     0
  3
Solid line
 72
    65
 73
     0
 40
0.0
  0
ENDTAB
  0
TABLE
  2
LAYER
  5
2
100
AcDbSymbolTable
 70
2
  0
LAYER
  5
50
100
AcDbSymbolTableRecord
100
AcDbLayerTableRecord
  2
0
 70
0
  6
CONTINUOUS
  0
LAYER
  5
51
100
AcDbSymbolTableRecord
100
AcDbLayerTableRecord
  2
Layer_1
 70
0
  6
CONTINUOUS
  0
ENDTAB
  0
TABLE
  2
STYLE
  5
3
330
0
100
AcDbSymbolTable
 70
     1
  0
STYLE
  5
11
330
3
100
AcDbSymbolTableRecord
100
AcDbTextStyleTableRecord
  2
STANDARD
 70
     0
 40
0.0
 41
1.0
 50
0.0
 71
     0
 42
2.5
  3
txt
  4

  0
ENDTAB
  0
TABLE
  2
VIEW
  5
6
330
0
100
AcDbSymbolTable
 70
     0
  0
ENDTAB
  0
TABLE
  2
UCS
  5
7
330
0
100
AcDbSymbolTable
 70
     0
  0
ENDTAB
  0
TABLE
  2
APPID
  5
9
330
0
100
AcDbSymbolTable
 70
     2
  0
APPID
  5
12
330
9
100
AcDbSymbolTableRecord
100
AcDbRegAppTableRecord
  2
ACAD
 70
     0
  0
ENDTAB
  0
TABLE
  2
DIMSTYLE
  5
A
330
0
100
AcDbSymbolTable
 70
     1
  0
DIMSTYLE
105
27
330
A
100
AcDbSymbolTableRecord
100
AcDbDimStyleTableRecord
  2
ISO-25
 70
     0
  3

  4

  5

  6

  7

 40
1.0
 41
2.5
 42
0.625
 43
3.75
 44
1.25
 45
0.0
 46
0.0
 47
0.0
 48
0.0
140
2.5
141
2.5
142
0.0
143
0.03937007874016
144
1.0
145
0.0
146
1.0
147
0.625
 71
     0
 72
     0
 73
     0
 74
     0
 75
     0
 76
     0
 77
     1
 78
     8
170
     0
171
     3
172
     1
173
     0
174
     0
175
     0
176
     0
177
     0
178
     0
270
     2
271
     2
272
     2
273
     2
274
     3
340
11
275
     0
280
     0
281
     0
282
     0
283
     0
284
     8
285
     0
286
     0
287
     3
288
     0
  0
ENDTAB
  0
TABLE
  2
BLOCK_RECORD
  5
1
330
0
100
AcDbSymbolTable
 70
     1
  0
BLOCK_RECORD
  5
1F
330
1
100
AcDbSymbolTableRecord
100
AcDbBlockTableRecord
  2
*MODEL_SPACE
  0
BLOCK_RECORD
  5
1B
330
1
100
AcDbSymbolTableRecord
100
AcDbBlockTableRecord
  2
*PAPER_SPACE
  0
ENDTAB
  0
ENDSEC
  0
SECTION
  2
BLOCKS
  0
BLOCK
  5
20
330
1F
100
AcDbEntity
  8
0
100
AcDbBlockBegin
  2
*MODEL_SPACE
 70
     0
 10
0.0
 20
0.0
 30
0.0
  3
*MODEL_SPACE
  1

  0
ENDBLK
  5
21
330
1F
100
AcDbEntity
  8
0
100
AcDbBlockEnd
  0
BLOCK
  5
1C
330
1B
100
AcDbEntity
 67
     1
  8
0
100
AcDbBlockBegin
  2
*PAPER_SPACE
  1

  0
ENDBLK
  5
1D
330
1B
100
AcDbEntity
 67
     1
  8
0
100
AcDbBlockEnd
  0
ENDSEC
  0
SECTION
  2
ENTITIES
  0
LWPOLYLINE
  5
100
100
AcDbEntity
  8
Layer_1
 62
5
100
AcDbPolyline
 90
7
 70
0
 10
102.794245
 20
161.844893
 30
0.0
 10
96.669245
 20
151.219893
 30
0.0
 10
102.794245
 20
140.619893
 30
0.0
 10
115.044245
 20
140.619893
 30
0.0
 10
121.169245
 20
151.219893
 30
0.0
 10
115.044245
 20
161.844893
 30
0.0
 10
102.794245
 20
161.844893
 30
0.0
  0
LWPOLYLINE
  5
101
100
AcDbEntity
  8
Layer_1
 62
5
100
AcDbPolyline
 90
7
 70
0
 10
86.469245
 20
147.369893
 30
0.0
 10
75.994245
 20
129.219893
 30
0.0
 10
77.769245
 20
126.144893
 30
0.0
 10
90.019245
 20
126.144893
 30
0.0
 10
96.144245
 20
136.744893
 30
0.0
 10
90.019245
 20
147.369893
 30
0.0
 10
86.469245
 20
147.369893
 30
0.0
  0
LWPOLYLINE
  5
102
100
AcDbEntity
  8
Layer_1
 62
5
100
AcDbPolyline
 90
7
 70
0
 10
127.844245
 20
147.369893
 30
0.0
 10
121.719245
 20
136.744893
 30
0.0
 10
127.844245
 20
126.144893
 30
0.0
 10
140.094245
 20
126.144893
 30
0.0
 10
141.844245
 20
129.169893
 30
0.0
 10
131.319245
 20
147.369893
 30
0.0
 10
127.844245
 20
147.369893
 30
0.0
  0
LWPOLYLINE
  5
103
100
AcDbEntity
  8
Layer_1
 62
5
100
AcDbPolyline
 90
7
 70
0
 10
102.794245
 20
132.894893
 30
0.0
 10
96.669245
 20
122.294893
 30
0.0
 10
102.794245
 20
111.669893
 30
0.0
 10
115.044245
 20
111.669893
 30
0.0
 10
121.169245
 20
122.294893
 30
0.0
 10
115.044245
 20
132.894893
 30
0.0
 10
102.794245
 20
132.894893
 30
0.0
  0
LWPOLYLINE
  5
104
100
AcDbEntity
  8
Layer_1
 62
5
100
AcDbPolyline
 90
7
 70
0
 10
77.769245
 20
118.419893
 30
0.0
 10
71.644245
 20
107.819893
 30
0.0
 10
77.769245
 20
97.194893
 30
0.0
 10
90.019245
 20
97.194893
 30
0.0
 10
96.144245
 20
107.819893
 30
0.0
 10
90.019245
 20
118.419893
 30
0.0
 10
77.769245
 20
118.419893
 30
0.0
  0
LWPOLYLINE
  5
105
100
AcDbEntity
  8
Layer_1
 62
5
100
AcDbPolyline
 90
7
 70
0
 10
127.844245
 20
118.419893
 30
0.0
 10
121.719245
 20
107.819893
 30
0.0
 10
127.844245
 20
97.194893
 30
0.0
 10
140.094245
 20
97.194893
 30
0.0
 10
146.219245
 20
107.819893
 30
0.0
 10
140.094245
 20
118.419893
 30
0.0
 10
127.844245
 20
118.419893
 30
0.0
  0
LWPOLYLINE
  5
106
100
AcDbEntity
  8
Layer_1
 62
5
100
AcDbPolyline
 90
7
 70
0
 10
61.394245
 20
103.944893
 30
0.0
 10
50.919245
 20
85.819893
 30
0.0
 10
52.719245
 20
82.719893
 30
0.0
 10
64.969245
 20
82.719893
 30
0.0
 10
71.094245
 20
93.344893
 30
0.0
 10
64.969245
 20
103.944893
 30
0.0
 10
61.394245
 20
103.944893
 30
0.0
  0
LWPOLYLINE
  5
107
100
AcDbEntity
  8
Layer_1
 62
5
100
AcDbPolyline
 90
7
 70
0
 10
102.794245
 20
103.944893
 30
0.0
 10
96.669245
 20
93.344893
 30
0.0
 10
102.794245
 20
82.719893
 30
0.0
 10
115.044245
 20
82.719893
 30
0.0
 10
121.169245
 20
93.344893
 30
0.0
 10
115.044245
 20
103.944893
 30
0.0
 10
102.794245
 20
103.944893
 30
0.0
  0
LWPOLYLINE
  5
108
100
AcDbEntity
  8
Layer_1
 62
5
100
AcDbPolyline
 90
7
 70
0
 10
152.894245
 20
103.944893
 30
0.0
 10
146.769245
 20
93.344893
 30
0.0
 10
152.894245
 20
82.719893
 30
0.0
 10
165.144245
 20
82.719893
 30
0.0
 10
166.894245
 20
85.769893
 30
0.0
 10
156.394245
 20
103.944893
 30
0.0
 10
152.894245
 20
103.944893
 30
0.0
  0
LWPOLYLINE
  5
109
100
AcDbEntity
  8
Layer_1
 62
5
100
AcDbPolyline
 90
7
 70
0
 10
77.769245
 20
89.494893
 30
0.0
 10
71.644245
 20
78.869893
 30
0.0
 10
77.769245
 20
68.244893
 30
0.0
 10
90.019245
 20
68.244893
 30
0.0
 10
96.144245
 20
78.869893
 30
0.0
 10
90.019245
 20
89.494893
 30
0.0
 10
77.769245
 20
89.494893
 30
0.0
  0
LWPOLYLINE
  5
10a
100
AcDbEntity
  8
Layer_1
 62
5
100
AcDbPolyline
 90
7
 70
0
 10
127.844245
 20
89.494893
 30
0.0
 10
121.719245
 20
78.869893
 30
0.0
 10
127.844245
 20
68.244893
 30
0.0
 10
140.094245
 20
68.244893
 30
0.0
 10
146.219245
 20
78.869893
 30
0.0
 10
140.094245
 20
89.494893
 30
0.0
 10
127.844245
 20
89.494893
 30
0.0
  0
LWPOLYLINE
  5
10b
100
AcDbEntity
  8
Layer_1
 62
5
100
AcDbPolyline
 90
7
 70
0
 10
52.719245
 20
75.019893
 30
0.0
 10
46.594245
 20
64.394893
 30
0.0
 10
52.719245
 20
53.794893
 30
0.0
 10
64.969245
 20
53.794893
 30
0.0
 10
71.094245
 20
64.394893
 30
0.0
 10
64.969245
 20
75.019893
 30
0.0
 10
52.719245
 20
75.019893
 30
0.0
  0
LWPOLYLINE
  5
10c
100
AcDbEntity
  8
Layer_1
 62
5
100
AcDbPolyline
 90
7
 70
0
 10
102.794245
 20
75.019893
 30
0.0
 10
96.669245
 20
64.394893
 30
0.0
 10
102.794245
 20
53.794893
 30
0.0
 10
115.044245
 20
53.794893
 30
0.0
 10
121.169245
 20
64.394893
 30
0.0
 10
115.044245
 20
75.019893
 30
0.0
 10
102.794245
 20
75.019893
 30
0.0
  0
LWPOLYLINE
  5
10d
100
AcDbEntity
  8
Layer_1
 62
5
100
AcDbPolyline
 90
7
 70
0
 10
152.894245
 20
75.019893
 30
0.0
 10
146.769245
 20
64.394893
 30
0.0
 10
152.894245
 20
53.794893
 30
0.0
 10
165.144245
 20
53.794893
 30
0.0
 10
171.269245
 20
64.394893
 30
0.0
 10
165.144245
 20
75.019893
 30
0.0
 10
152.894245
 20
75.019893
 30
0.0
  0
LWPOLYLINE
  5
10e
100
AcDbEntity
  8
Layer_1
 62
5
100
AcDbPolyline
 90
7
 70
0
 10
36.344245
 20
60.544893
 30
0.0
 10
25.869245
 20
42.419917
 30
0.0
 10
27.669245
 20
39.319917
 30
0.0
 10
39.919245
 20
39.319917
 30
0.0
 10
46.044245
 20
49.919893
 30
0.0
 10
39.919245
 20
60.544893
 30
0.0
 10
36.344245
 20
60.544893
 30
0.0
  0
LWPOLYLINE
  5
10f
100
AcDbEntity
  8
Layer_1
 62
5
100
AcDbPolyline
 90
7
 70
0
 10
77.769245
 20
60.544893
 30
0.0
 10
71.644245
 20
49.919893
 30
0.0
 10
77.769245
 20
39.319917
 30
0.0
 10
90.019245
 20
39.319917
 30
0.0
 10
96.144245
 20
49.919893
 30
0.0
 10
90.019245
 20
60.544893
 30
0.0
 10
77.769245
 20
60.544893
 30
0.0
  0
LWPOLYLINE
  5
110
100
AcDbEntity
  8
Layer_1
 62
5
100
AcDbPolyline
 90
7
 70
0
 10
127.844245
 20
60.544893
 30
0.0
 10
121.719245
 20
49.919893
 30
0.0
 10
127.844245
 20
39.319917
 30
0.0
 10
140.094245
 20
39.319917
 30
0.0
 10
146.219245
 20
49.919893
 30
0.0
 10
140.094245
 20
60.544893
 30
0.0
 10
127.844245
 20
60.544893
 30
0.0
  0
LWPOLYLINE
  5
111
100
AcDbEntity
  8
Layer_1
 62
5
100
AcDbPolyline
 90
7
 70
0
 10
177.944245
 20
60.544893
 30
0.0
 10
171.819245
 20
49.919893
 30
0.0
 10
177.944245
 20
39.319917
 30
0.0
 10
190.194245
 20
39.319917
 30
0.0
 10
191.944245
 20
42.369837
 30
0.0
 10
181.444245
 20
60.544893
 30
0.0
 10
177.944245
 20
60.544893
 30
0.0
  0
LWPOLYLINE
  5
112
100
AcDbEntity
  8
Layer_1
 62
5
100
AcDbPolyline
 90
7
 70
0
 10
52.719245
 20
46.069893
 30
0.0
 10
46.594245
 20
35.444877
 30
0.0
 10
52.719245
 20
24.844877
 30
0.0
 10
64.969245
 20
24.844877
 30
0.0
 10
71.094245
 20
35.444877
 30
0.0
 10
64.969245
 20
46.069893
 30
0.0
 10
52.719245
 20
46.069893
 30
0.0
  0
LWPOLYLINE
  5
113
100
AcDbEntity
  8
Layer_1
 62
5
100
AcDbPolyline
 90
7
 70
0
 10
102.794245
 20
46.069893
 30
0.0
 10
96.669245
 20
35.444877
 30
0.0
 10
102.794245
 20
24.844877
 30
0.0
 10
115.044245
 20
24.844877
 30
0.0
 10
121.169245
 20
35.444877
 30
0.0
 10
115.044245
 20
46.069893
 30
0.0
 10
102.794245
 20
46.069893
 30
0.0
  0
LWPOLYLINE
  5
114
100
AcDbEntity
  8
Layer_1
 62
5
100
AcDbPolyline
 90
7
 70
0
 10
152.894245
 20
46.069893
 30
0.0
 10
146.769245
 20
35.444877
 30
0.0
 10
152.894245
 20
24.844877
 30
0.0
 10
165.144245
 20
24.844877
 30
0.0
 10
171.269245
 20
35.444877
 30
0.0
 10
165.144245
 20
46.069893
 30
0.0
 10
152.894245
 20
46.069893
 30
0.0
  0
LWPOLYLINE
  5
115
100
AcDbEntity
  8
Layer_1
 62
5
100
AcDbPolyline
 90
7
 70
0
 10
27.669245
 20
31.594877
 30
0.0
 10
21.544245
 20
20.994877
 30
0.0
 10
27.669245
 20
10.369837
 30
0.0
 10
39.919245
 20
10.369837
 30
0.0
 10
46.044245
 20
20.994877
 30
0.0
 10
39.919245
 20
31.594877
 30
0.0
 10
27.669245
 20
31.594877
 30
0.0
  0
LWPOLYLINE
  5
116
100
AcDbEntity
  8
Layer_1
 62
5
100
AcDbPolyline
 90
7
 70
0
 10
77.769245
 20
31.594877
 30
0.0
 10
71.644245
 20
20.994877
 30
0.0
 10
77.769245
 20
10.369837
 30
0.0
 10
90.019245
 20
10.369837
 30
0.0
 10
96.144245
 20
20.994877
 30
0.0
 10
90.019245
 20
31.594877
 30
0.0
 10
77.769245
 20
31.594877
 30
0.0
  0
LWPOLYLINE
  5
117
100
AcDbEntity
  8
Layer_1
 62
5
100
AcDbPolyline
 90
7
 70
0
 10
127.844245
 20
31.594877
 30
0.0
 10
121.719245
 20
20.994877
 30
0.0
 10
127.844245
 20
10.369837
 30
0.0
 10
140.094245
 20
10.369837
 30
0.0
 10
146.219245
 20
20.994877
 30
0.0
 10
140.094245
 20
31.594877
 30
0.0
 10
127.844245
 20
31.594877
 30
0.0
  0
SPLINE
  5
118
100
AcDbEntity
  8
Layer_1
 62
5
100
AcDbSpline
 70
8
 71
3
 72
8
 73
4
 74
0
 40
0
 40
0
 40
0
 40
0
 40
1
 40
1
 40
1
 40
1
 10
3.269245
 20
3.269837
 30
0.0
 10
3.235912
 20
3.236237
 30
0.0
 10
3.252578
 20
3.253037
 30
0.0
 10
3.269245
 20
3.269837
 30
0.0
  0
LWPOLYLINE
  5
119
100
AcDbEntity
  8
Layer_1
 62
5
100
AcDbPolyline
 90
7
 70
0
 10
177.944245
 20
31.594877
 30
0.0
 10
171.819245
 20
20.994877
 30
0.0
 10
177.944245
 20
10.369837
 30
0.0
 10
190.194245
 20
10.369837
 30
0.0
 10
196.319245
 20
20.994877
 30
0.0
 10
190.194245
 20
31.594877
 30
0.0
 10
177.944245
 20
31.594877
 30
0.0
  0
LWPOLYLINE
  5
11a
100
AcDbEntity
  8
Layer_1
 62
5
100
AcDbPolyline
 90
2
 70
0
 10
3.269245
 20
3.269837
 30
0.0
 10
3.269245
 20
3.269837
 30
0.0
  0
LWPOLYLINE
  5
11b
100
AcDbEntity
  8
Layer_1
 62
5
100
AcDbPolyline
 90
7
 70
0
 10
52.719245
 20
17.194637
 30
0.0
 10
45.444245
 20
4.619677
 30
0.0
 10
44.669245
 20
3.269597
 30
0.0
 10
73.019245
 20
3.269597
 30
0.0
 10
72.219245
 20
4.619677
 30
0.0
 10
64.969245
 20
17.194637
 30
0.0
 10
52.719245
 20
17.194637
 30
0.0
  0
LWPOLYLINE
  5
11c
100
AcDbEntity
  8
Layer_1
 62
5
100
AcDbPolyline
 90
7
 70
0
 10
102.794245
 20
17.194637
 30
0.0
 10
95.544245
 20
4.619677
 30
0.0
 10
94.769245
 20
3.269597
 30
0.0
 10
123.094245
 20
3.269597
 30
0.0
 10
122.319245
 20
4.619677
 30
0.0
 10
115.044245
 20
17.194637
 30
0.0
 10
102.794245
 20
17.194637
 30
0.0
  0
LWPOLYLINE
  5
11d
100
AcDbEntity
  8
Layer_1
 62
5
100
AcDbPolyline
 90
7
 70
0
 10
152.894245
 20
17.194637
 30
0.0
 10
145.619245
 20
4.619677
 30
0.0
 10
144.844245
 20
3.269597
 30
0.0
 10
173.194245
 20
3.269597
 30
0.0
 10
172.419245
 20
4.619677
 30
0.0
 10
165.144245
 20
17.194637
 30
0.0
 10
152.894245
 20
17.194637
 30
0.0
  0
LWPOLYLINE
  5
11e
100
AcDbEntity
  8
Layer_1
 62
1
100
AcDbPolyline
 90
4
 70
0
 10
108.896258
 20
186.220971
 30
0.0
 10
214.523262
 20
3.269618
 30
0.0
 10
3.269245
 20
3.269618
 30
0.0
 10
108.896258
 20
186.220971
 30
0.0
  0
LWPOLYLINE
  5
11f
100
AcDbEntity
  8
Layer_1
 62
5
100
AcDbPolyline
 90
7
 70
0
 10
320.568383
 20
161.844893
 30
0.0
 10
314.443366
 20
151.219893
 30
0.0
 10
320.568383
 20
140.619893
 30
0.0
 10
332.818417
 20
140.619893
 30
0.0
 10
338.943434
 20
151.219893
 30
0.0
 10
332.818417
 20
161.844893
 30
0.0
 10
320.568383
 20
161.844893
 30
0.0
  0
LWPOLYLINE
  5
120
100
AcDbEntity
  8
Layer_1
 62
5
100
AcDbPolyline
 90
7
 70
0
 10
304.243337
 20
147.369893
 30
0.0
 10
293.768308
 20
129.219893
 30
0.0
 10
295.543313
 20
126.144893
 30
0.0
 10
307.793347
 20
126.144893
 30
0.0
 10
313.918364
 20
136.744893
 30
0.0
 10
307.793347
 20
147.369893
 30
0.0
 10
304.243337
 20
147.369893
 30
0.0
  0
LWPOLYLINE
  5
121
100
AcDbEntity
  8
Layer_1
 62
5
100
AcDbPolyline
 90
7
 70
0
 10
345.618453
 20
147.369893
 30
0.0
 10
339.493436
 20
136.744893
 30
0.0
 10
345.618453
 20
126.144893
 30
0.0
 10
357.868487
 20
126.144893
 30
0.0
 10
359.618492
 20
129.169893
 30
0.0
 10
349.093463
 20
147.369893
 30
0.0
 10
345.618453
 20
147.369893
 30
0.0
  0
LWPOLYLINE
  5
122
100
AcDbEntity
  8
Layer_1
 62
5
100
AcDbPolyline
 90
7
 70
0
 10
320.568383
 20
132.894893
 30
0.0
 10
314.443366
 20
122.294893
 30
0.0
 10
320.568383
 20
111.669893
 30
0.0
 10
332.818417
 20
111.669893
 30
0.0
 10
338.943434
 20
122.294893
 30
0.0
 10
332.818417
 20
132.894893
 30
0.0
 10
320.568383
 20
132.894893
 30
0.0
  0
LWPOLYLINE
  5
123
100
AcDbEntity
  8
Layer_1
 62
5
100
AcDbPolyline
 90
7
 70
0
 10
295.543313
 20
118.419893
 30
0.0
 10
289.418296
 20
107.819893
 30
0.0
 10
295.543313
 20
97.194893
 30
0.0
 10
307.793347
 20
97.194893
 30
0.0
 10
313.918364
 20
107.819893
 30
0.0
 10
307.793347
 20
118.419893
 30
0.0
 10
295.543313
 20
118.419893
 30
0.0
  0
LWPOLYLINE
  5
124
100
AcDbEntity
  8
Layer_1
 62
5
100
AcDbPolyline
 90
7
 70
0
 10
345.618453
 20
118.419893
 30
0.0
 10
339.493436
 20
107.819893
 30
0.0
 10
345.618453
 20
97.194893
 30
0.0
 10
357.868487
 20
97.194893
 30
0.0
 10
363.993504
 20
107.819893
 30
0.0
 10
357.868487
 20
118.419893
 30
0.0
 10
345.618453
 20
118.419893
 30
0.0
  0
LWPOLYLINE
  5
125
100
AcDbEntity
  8
Layer_1
 62
5
100
AcDbPolyline
 90
7
 70
0
 10
279.168267
 20
103.944893
 30
0.0
 10
268.693238
 20
85.819893
 30
0.0
 10
270.493243
 20
82.719893
 30
0.0
 10
282.743277
 20
82.719893
 30
0.0
 10
288.868294
 20
93.344893
 30
0.0
 10
282.743277
 20
103.944893
 30
0.0
 10
279.168267
 20
103.944893
 30
0.0
  0
LWPOLYLINE
  5
126
100
AcDbEntity
  8
Layer_1
 62
5
100
AcDbPolyline
 90
7
 70
0
 10
320.568383
 20
103.944893
 30
0.0
 10
314.443366
 20
93.344893
 30
0.0
 10
320.568383
 20
82.719893
 30
0.0
 10
332.818417
 20
82.719893
 30
0.0
 10
338.943434
 20
93.344893
 30
0.0
 10
332.818417
 20
103.944893
 30
0.0
 10
320.568383
 20
103.944893
 30
0.0
  0
LWPOLYLINE
  5
127
100
AcDbEntity
  8
Layer_1
 62
5
100
AcDbPolyline
 90
7
 70
0
 10
370.668523
 20
103.944893
 30
0.0
 10
364.543506
 20
93.344893
 30
0.0
 10
370.668523
 20
82.719893
 30
0.0
 10
382.918557
 20
82.719893
 30
0.0
 10
384.668562
 20
85.769893
 30
0.0
 10
374.168533
 20
103.944893
 30
0.0
 10
370.668523
 20
103.944893
 30
0.0
  0
LWPOLYLINE
  5
128
100
AcDbEntity
  8
Layer_1
 62
5
100
AcDbPolyline
 90
7
 70
0
 10
295.543313
 20
89.494893
 30
0.0
 10
289.418296
 20
78.869893
 30
0.0
 10
295.543313
 20
68.244893
 30
0.0
 10
307.793347
 20
68.244893
 30
0.0
 10
313.918364
 20
78.869893
 30
0.0
 10
307.793347
 20
89.494893
 30
0.0
 10
295.543313
 20
89.494893
 30
0.0
  0
LWPOLYLINE
  5
129
100
AcDbEntity
  8
Layer_1
 62
5
100
AcDbPolyline
 90
7
 70
0
 10
345.618453
 20
89.494893
 30
0.0
 10
339.493436
 20
78.869893
 30
0.0
 10
345.618453
 20
68.244893
 30
0.0
 10
357.868487
 20
68.244893
 30
0.0
 10
363.993504
 20
78.869893
 30
0.0
 10
357.868487
 20
89.494893
 30
0.0
 10
345.618453
 20
89.494893
 30
0.0
  0
LWPOLYLINE
  5
12a
100
AcDbEntity
  8
Layer_1
 62
5
100
AcDbPolyline
 90
7
 70
0
 10
270.493243
 20
75.019893
 30
0.0
 10
264.368225
 20
64.394893
 30
0.0
 10
270.493243
 20
53.794893
 30
0.0
 10
282.743277
 20
53.794893
 30
0.0
 10
288.868294
 20
64.394893
 30
0.0
 10
282.743277
 20
75.019893
 30
0.0
 10
270.493243
 20
75.019893
 30
0.0
  0
LWPOLYLINE
  5
12b
100
AcDbEntity
  8
Layer_1
 62
5
100
AcDbPolyline
 90
7
 70
0
 10
320.568383
 20
75.019893
 30
0.0
 10
314.443366
 20
64.394893
 30
0.0
 10
320.568383
 20
53.794893
 30
0.0
 10
332.818417
 20
53.794893
 30
0.0
 10
338.943434
 20
64.394893
 30
0.0
 10
332.818417
 20
75.019893
 30
0.0
 10
320.568383
 20
75.019893
 30
0.0
  0
LWPOLYLINE
  5
12c
100
AcDbEntity
  8
Layer_1
 62
5
100
AcDbPolyline
 90
7
 70
0
 10
370.668523
 20
75.019893
 30
0.0
 10
364.543506
 20
64.394893
 30
0.0
 10
370.668523
 20
53.794893
 30
0.0
 10
382.918557
 20
53.794893
 30
0.0
 10
389.043575
 20
64.394893
 30
0.0
 10
382.918557
 20
75.019893
 30
0.0
 10
370.668523
 20
75.019893
 30
0.0
  0
LWPOLYLINE
  5
12d
100
AcDbEntity
  8
Layer_1
 62
5
100
AcDbPolyline
 90
7
 70
0
 10
254.118197
 20
60.544893
 30
0.0
 10
243.643167
 20
42.419917
 30
0.0
 10
245.443172
 20
39.319917
 30
0.0
 10
257.693207
 20
39.319917
 30
0.0
 10
263.818224
 20
49.919893
 30
0.0
 10
257.693207
 20
60.544893
 30
0.0
 10
254.118197
 20
60.544893
 30
0.0
  0
LWPOLYLINE
  5
12e
100
AcDbEntity
  8
Layer_1
 62
5
100
AcDbPolyline
 90
7
 70
0
 10
295.543313
 20
60.544893
 30
0.0
 10
289.418296
 20
49.919893
 30
0.0
 10
295.543313
 20
39.319917
 30
0.0
 10
307.793347
 20
39.319917
 30
0.0
 10
313.918364
 20
49.919893
 30
0.0
 10
307.793347
 20
60.544893
 30
0.0
 10
295.543313
 20
60.544893
 30
0.0
  0
LWPOLYLINE
  5
12f
100
AcDbEntity
  8
Layer_1
 62
5
100
AcDbPolyline
 90
7
 70
0
 10
345.618453
 20
60.544893
 30
0.0
 10
339.493436
 20
49.919893
 30
0.0
 10
345.618453
 20
39.319917
 30
0.0
 10
357.868487
 20
39.319917
 30
0.0
 10
363.993504
 20
49.919893
 30
0.0
 10
357.868487
 20
60.544893
 30
0.0
 10
345.618453
 20
60.544893
 30
0.0
  0
LWPOLYLINE
  5
130
100
AcDbEntity
  8
Layer_1
 62
5
100
AcDbPolyline
 90
7
 70
0
 10
395.718593
 20
60.544893
 30
0.0
 10
389.593576
 20
49.919893
 30
0.0
 10
395.718593
 20
39.319917
 30
0.0
 10
407.968628
 20
39.319917
 30
0.0
 10
409.718632
 20
42.369837
 30
0.0
 10
399.218603
 20
60.544893
 30
0.0
 10
395.718593
 20
60.544893
 30
0.0
  0
LWPOLYLINE
  5
131
100
AcDbEntity
  8
Layer_1
 62
5
100
AcDbPolyline
 90
7
 70
0
 10
270.493243
 20
46.069893
 30
0.0
 10
264.368225
 20
35.444877
 30
0.0
 10
270.493243
 20
24.844877
 30
0.0
 10
282.743277
 20
24.844877
 30
0.0
 10
288.868294
 20
35.444877
 30
0.0
 10
282.743277
 20
46.069893
 30
0.0
 10
270.493243
 20
46.069893
 30
0.0
  0
LWPOLYLINE
  5
132
100
AcDbEntity
  8
Layer_1
 62
5
100
AcDbPolyline
 90
7
 70
0
 10
320.568383
 20
46.069893
 30
0.0
 10
314.443366
 20
35.444877
 30
0.0
 10
320.568383
 20
24.844877
 30
0.0
 10
332.818417
 20
24.844877
 30
0.0
 10
338.943434
 20
35.444877
 30
0.0
 10
332.818417
 20
46.069893
 30
0.0
 10
320.568383
 20
46.069893
 30
0.0
  0
LWPOLYLINE
  5
133
100
AcDbEntity
  8
Layer_1
 62
5
100
AcDbPolyline
 90
7
 70
0
 10
370.668523
 20
46.069893
 30
0.0
 10
364.543506
 20
35.444877
 30
0.0
 10
370.668523
 20
24.844877
 30
0.0
 10
382.918557
 20
24.844877
 30
0.0
 10
389.043575
 20
35.444877
 30
0.0
 10
382.918557
 20
46.069893
 30
0.0
 10
370.668523
 20
46.069893
 30
0.0
  0
LWPOLYLINE
  5
134
100
AcDbEntity
  8
Layer_1
 62
5
100
AcDbPolyline
 90
7
 70
0
 10
245.443172
 20
31.594877
 30
0.0
 10
239.318155
 20
20.994877
 30
0.0
 10
245.443172
 20
10.369837
 30
0.0
 10
257.693207
 20
10.369837
 30
0.0
 10
263.818224
 20
20.994877
 30
0.0
 10
257.693207
 20
31.594877
 30
0.0
 10
245.443172
 20
31.594877
 30
0.0
  0
LWPOLYLINE
  5
135
100
AcDbEntity
  8
Layer_1
 62
5
100
AcDbPolyline
 90
7
 70
0
 10
295.543313
 20
31.594877
 30
0.0
 10
289.418296
 20
20.994877
 30
0.0
 10
295.543313
 20
10.369837
 30
0.0
 10
307.793347
 20
10.369837
 30
0.0
 10
313.918364
 20
20.994877
 30
0.0
 10
307.793347
 20
31.594877
 30
0.0
 10
295.543313
 20
31.594877
 30
0.0
  0
LWPOLYLINE
  5
136
100
AcDbEntity
  8
Layer_1
 62
5
100
AcDbPolyline
 90
7
 70
0
 10
345.618453
 20
31.594877
 30
0.0
 10
339.493436
 20
20.994877
 30
0.0
 10
345.618453
 20
10.369837
 30
0.0
 10
357.868487
 20
10.369837
 30
0.0
 10
363.993504
 20
20.994877
 30
0.0
 10
357.868487
 20
31.594877
 30
0.0
 10
345.618453
 20
31.594877
 30
0.0
  0
SPLINE
  5
137
100
AcDbEntity
  8
Layer_1
 62
5
100
AcDbSpline
 70
8
 71
3
 72
8
 73
4
 74
0
 40
0
 40
0
 40
0
 40
0
 40
1
 40
1
 40
1
 40
1
 10
221.043104
 20
3.269837
 30
0.0
 10
221.009771
 20
3.236237
 30
0.0
 10
221.026437
 20
3.253037
 30
0.0
 10
221.043104
 20
3.269837
 30
0.0
  0
LWPOLYLINE
  5
138
100
AcDbEntity
  8
Layer_1
 62
5
100
AcDbPolyline
 90
7
 70
0
 10
395.718593
 20
31.594877
 30
0.0
 10
389.593576
 20
20.994877
 30
0.0
 10
395.718593
 20
10.369837
 30
0.0
 10
407.968628
 20
10.369837
 30
0.0
 10
414.093645
 20
20.994877
 30
0.0
 10
407.968628
 20
31.594877
 30
0.0
 10
395.718593
 20
31.594877
 30
0.0
  0
LWPOLYLINE
  5
139
100
AcDbEntity
  8
Layer_1
 62
5
100
AcDbPolyline
 90
2
 70
0
 10
221.043104
 20
3.269837
 30
0.0
 10
221.043104
 20
3.269837
 30
0.0
  0
LWPOLYLINE
  5
13a
100
AcDbEntity
  8
Layer_1
 62
5
100
AcDbPolyline
 90
7
 70
0
 10
270.493243
 20
17.194637
 30
0.0
 10
263.218222
 20
4.619677
 30
0.0
 10
262.443220
 20
3.269597
 30
0.0
 10
290.793299
 20
3.269597
 30
0.0
 10
289.993297
 20
4.619677
 30
0.0
 10
282.743277
 20
17.194637
 30
0.0
 10
270.493243
 20
17.194637
 30
0.0
  0
LWPOLYLINE
  5
13b
100
AcDbEntity
  8
Layer_1
 62
5
100
AcDbPolyline
 90
7
 70
0
 10
320.568383
 20
17.194637
 30
0.0
 10
313.318363
 20
4.619677
 30
0.0
 10
312.543360
 20
3.269597
 30
0.0
 10
340.868440
 20
3.269597
 30
0.0
 10
340.093437
 20
4.619677
 30
0.0
 10
332.818417
 20
17.194637
 30
0.0
 10
320.568383
 20
17.194637
 30
0.0
  0
LWPOLYLINE
  5
13c
100
AcDbEntity
  8
Layer_1
 62
5
100
AcDbPolyline
 90
7
 70
0
 10
370.668523
 20
17.194637
 30
0.0
 10
363.393503
 20
4.619677
 30
0.0
 10
362.618501
 20
3.269597
 30
0.0
 10
390.968580
 20
3.269597
 30
0.0
 10
390.193578
 20
4.619677
 30
0.0
 10
382.918557
 20
17.194637
 30
0.0
 10
370.668523
 20
17.194637
 30
0.0
  0
LWPOLYLINE
  5
13d
100
AcDbEntity
  8
Layer_1
 62
1
100
AcDbPolyline
 90
4
 70
0
 10
326.670413
 20
186.220971
 30
0.0
 10
432.297713
 20
3.269618
 30
0.0
 10
221.043104
 20
3.269618
 30
0.0
 10
326.670413
 20
186.220971
 30
0.0
  0
LWPOLYLINE
  5
13e
100
AcDbEntity
  8
Layer_1
 62
5
100
AcDbPolyline
 90
7
 70
0
 10
538.355973
 20
161.844453
 30
0.0
 10
532.230808
 20
151.219453
 30
0.0
 10
538.355973
 20
140.619453
 30
0.0
 10
550.606301
 20
140.619453
 30
0.0
 10
556.731465
 20
151.219453
 30
0.0
 10
550.606301
 20
161.844453
 30
0.0
 10
538.355973
 20
161.844453
 30
0.0
  0
LWPOLYLINE
  5
13f
100
AcDbEntity
  8
Layer_1
 62
5
100
AcDbPolyline
 90
7
 70
0
 10
522.030535
 20
147.369453
 30
0.0
 10
511.555254
 20
129.219453
 30
0.0
 10
513.330302
 20
126.144453
 30
0.0
 10
525.580630
 20
126.144453
 30
0.0
 10
531.705794
 20
136.744453
 30
0.0
 10
525.580630
 20
147.369453
 30
0.0
 10
522.030535
 20
147.369453
 30
0.0
  0
LWPOLYLINE
  5
140
100
AcDbEntity
  8
Layer_1
 62
5
100
AcDbPolyline
 90
7
 70
0
 10
563.406644
 20
147.369453
 30
0.0
 10
557.281480
 20
136.744453
 30
0.0
 10
563.406644
 20
126.144453
 30
0.0
 10
575.656972
 20
126.144453
 30
0.0
 10
577.407019
 20
129.169453
 30
0.0
 10
566.881737
 20
147.369453
 30
0.0
 10
563.406644
 20
147.369453
 30
0.0
  0
LWPOLYLINE
  5
141
100
AcDbEntity
  8
Layer_1
 62
5
100
AcDbPolyline
 90
7
 70
0
 10
538.355973
 20
132.894453
 30
0.0
 10
532.230808
 20
122.294453
 30
0.0
 10
538.355973
 20
111.669453
 30
0.0
 10
550.606301
 20
111.669453
 30
0.0
 10
556.731465
 20
122.294453
 30
0.0
 10
550.606301
 20
132.894453
 30
0.0
 10
538.355973
 20
132.894453
 30
0.0
  0
LWPOLYLINE
  5
142
100
AcDbEntity
  8
Layer_1
 62
5
100
AcDbPolyline
 90
7
 70
0
 10
513.330302
 20
118.419453
 30
0.0
 10
507.205138
 20
107.819453
 30
0.0
 10
513.330302
 20
97.194453
 30
0.0
 10
525.580630
 20
97.194453
 30
0.0
 10
531.705794
 20
107.819453
 30
0.0
 10
525.580630
 20
118.419453
 30
0.0
 10
513.330302
 20
118.419453
 30
0.0
  0
LWPOLYLINE
  5
143
100
AcDbEntity
  8
Layer_1
 62
5
100
AcDbPolyline
 90
7
 70
0
 10
563.406644
 20
118.419453
 30
0.0
 10
557.281480
 20
107.819453
 30
0.0
 10
563.406644
 20
97.194453
 30
0.0
 10
575.656972
 20
97.194453
 30
0.0
 10
581.782136
 20
107.819453
 30
0.0
 10
575.656972
 20
118.419453
 30
0.0
 10
563.406644
 20
118.419453
 30
0.0
  0
LWPOLYLINE
  5
144
100
AcDbEntity
  8
Layer_1
 62
5
100
AcDbPolyline
 90
7
 70
0
 10
496.954863
 20
103.944453
 30
0.0
 10
486.479582
 20
85.819453
 30
0.0
 10
488.279631
 20
82.719453
 30
0.0
 10
500.529959
 20
82.719453
 30
0.0
 10
506.655123
 20
93.344453
 30
0.0
 10
500.529959
 20
103.944453
 30
0.0
 10
496.954863
 20
103.944453
 30
0.0
  0
LWPOLYLINE
  5
145
100
AcDbEntity
  8
Layer_1
 62
5
100
AcDbPolyline
 90
7
 70
0
 10
538.355973
 20
103.944453
 30
0.0
 10
532.230808
 20
93.344453
 30
0.0
 10
538.355973
 20
82.719453
 30
0.0
 10
550.606301
 20
82.719453
 30
0.0
 10
556.731465
 20
93.344453
 30
0.0
 10
550.606301
 20
103.944453
 30
0.0
 10
538.355973
 20
103.944453
 30
0.0
  0
LWPOLYLINE
  5
146
100
AcDbEntity
  8
Layer_1
 62
5
100
AcDbPolyline
 90
7
 70
0
 10
588.457315
 20
103.944453
 30
0.0
 10
582.332151
 20
93.344453
 30
0.0
 10
588.457315
 20
82.719453
 30
0.0
 10
600.707644
 20
82.719453
 30
0.0
 10
602.457690
 20
85.769453
 30
0.0
 10
591.957409
 20
103.944453
 30
0.0
 10
588.457315
 20
103.944453
 30
0.0
  0
LWPOLYLINE
  5
147
100
AcDbEntity
  8
Layer_1
 62
5
100
AcDbPolyline
 90
7
 70
0
 10
513.330302
 20
89.494453
 30
0.0
 10
507.205138
 20
78.869453
 30
0.0
 10
513.330302
 20
68.244453
 30
0.0
 10
525.580630
 20
68.244453
 30
0.0
 10
531.705794
 20
78.869453
 30
0.0
 10
525.580630
 20
89.494453
 30
0.0
 10
513.330302
 20
89.494453
 30
0.0
  0
LWPOLYLINE
  5
148
100
AcDbEntity
  8
Layer_1
 62
5
100
AcDbPolyline
 90
7
 70
0
 10
563.406644
 20
89.494453
 30
0.0
 10
557.281480
 20
78.869453
 30
0.0
 10
563.406644
 20
68.244453
 30
0.0
 10
575.656972
 20
68.244453
 30
0.0
 10
581.782136
 20
78.869453
 30
0.0
 10
575.656972
 20
89.494453
 30
0.0
 10
563.406644
 20
89.494453
 30
0.0
  0
LWPOLYLINE
  5
149
100
AcDbEntity
  8
Layer_1
 62
5
100
AcDbPolyline
 90
7
 70
0
 10
488.279631
 20
75.019453
 30
0.0
 10
482.154466
 20
64.394453
 30
0.0
 10
488.279631
 20
53.794453
 30
0.0
 10
500.529959
 20
53.794453
 30
0.0
 10
506.655123
 20
64.394453
 30
0.0
 10
500.529959
 20
75.019453
 30
0.0
 10
488.279631
 20
75.019453
 30
0.0
  0
LWPOLYLINE
  5
14a
100
AcDbEntity
  8
Layer_1
 62
5
100
AcDbPolyline
 90
7
 70
0
 10
538.355973
 20
75.019453
 30
0.0
 10
532.230808
 20
64.394453
 30
0.0
 10
538.355973
 20
53.794453
 30
0.0
 10
550.606301
 20
53.794453
 30
0.0
 10
556.731465
 20
64.394453
 30
0.0
 10
550.606301
 20
75.019453
 30
0.0
 10
538.355973
 20
75.019453
 30
0.0
  0
LWPOLYLINE
  5
14b
100
AcDbEntity
  8
Layer_1
 62
5
100
AcDbPolyline
 90
7
 70
0
 10
588.457315
 20
75.019453
 30
0.0
 10
582.332151
 20
64.394453
 30
0.0
 10
588.457315
 20
53.794453
 30
0.0
 10
600.707644
 20
53.794453
 30
0.0
 10
606.832808
 20
64.394453
 30
0.0
 10
600.707644
 20
75.019453
 30
0.0
 10
588.457315
 20
75.019453
 30
0.0
  0
LWPOLYLINE
  5
14c
100
AcDbEntity
  8
Layer_1
 62
5
100
AcDbPolyline
 90
7
 70
0
 10
471.904192
 20
60.544453
 30
0.0
 10
461.428911
 20
42.419477
 30
0.0
 10
463.228959
 20
39.319477
 30
0.0
 10
475.479288
 20
39.319477
 30
0.0
 10
481.604452
 20
49.919453
 30
0.0
 10
475.479288
 20
60.544453
 30
0.0
 10
471.904192
 20
60.544453
 30
0.0
  0
LWPOLYLINE
  5
14d
100
AcDbEntity
  8
Layer_1
 62
5
100
AcDbPolyline
 90
7
 70
0
 10
513.330302
 20
60.544453
 30
0.0
 10
507.205138
 20
49.919453
 30
0.0
 10
513.330302
 20
39.319477
 30
0.0
 10
525.580630
 20
39.319477
 30
0.0
 10
531.705794
 20
49.919453
 30
0.0
 10
525.580630
 20
60.544453
 30
0.0
 10
513.330302
 20
60.544453
 30
0.0
  0
LWPOLYLINE
  5
14e
100
AcDbEntity
  8
Layer_1
 62
5
100
AcDbPolyline
 90
7
 70
0
 10
563.406644
 20
60.544453
 30
0.0
 10
557.281480
 20
49.919453
 30
0.0
 10
563.406644
 20
39.319477
 30
0.0
 10
575.656972
 20
39.319477
 30
0.0
 10
581.782136
 20
49.919453
 30
0.0
 10
575.656972
 20
60.544453
 30
0.0
 10
563.406644
 20
60.544453
 30
0.0
  0
LWPOLYLINE
  5
14f
100
AcDbEntity
  8
Layer_1
 62
5
100
AcDbPolyline
 90
7
 70
0
 10
613.507987
 20
60.544453
 30
0.0
 10
607.382822
 20
49.919453
 30
0.0
 10
613.507987
 20
39.319477
 30
0.0
 10
625.758315
 20
39.319477
 30
0.0
 10
627.508362
 20
42.369397
 30
0.0
 10
617.008080
 20
60.544453
 30
0.0
 10
613.507987
 20
60.544453
 30
0.0
  0
LWPOLYLINE
  5
150
100
AcDbEntity
  8
Layer_1
 62
5
100
AcDbPolyline
 90
7
 70
0
 10
488.279631
 20
46.069453
 30
0.0
 10
482.154466
 20
35.444437
 30
0.0
 10
488.279631
 20
24.844437
 30
0.0
 10
500.529959
 20
24.844437
 30
0.0
 10
506.655123
 20
35.444437
 30
0.0
 10
500.529959
 20
46.069453
 30
0.0
 10
488.279631
 20
46.069453
 30
0.0
  0
LWPOLYLINE
  5
151
100
AcDbEntity
  8
Layer_1
 62
5
100
AcDbPolyline
 90
7
 70
0
 10
538.355973
 20
46.069453
 30
0.0
 10
532.230808
 20
35.444437
 30
0.0
 10
538.355973
 20
24.844437
 30
0.0
 10
550.606301
 20
24.844437
 30
0.0
 10
556.731465
 20
35.444437
 30
0.0
 10
550.606301
 20
46.069453
 30
0.0
 10
538.355973
 20
46.069453
 30
0.0
  0
LWPOLYLINE
  5
152
100
AcDbEntity
  8
Layer_1
 62
5
100
AcDbPolyline
 90
7
 70
0
 10
588.457315
 20
46.069453
 30
0.0
 10
582.332151
 20
35.444437
 30
0.0
 10
588.457315
 20
24.844437
 30
0.0
 10
600.707644
 20
24.844437
 30
0.0
 10
606.832808
 20
35.444437
 30
0.0
 10
600.707644
 20
46.069453
 30
0.0
 10
588.457315
 20
46.069453
 30
0.0
  0
LWPOLYLINE
  5
153
100
AcDbEntity
  8
Layer_1
 62
5
100
AcDbPolyline
 90
7
 70
0
 10
463.228959
 20
31.594437
 30
0.0
 10
457.103795
 20
20.994437
 30
0.0
 10
463.228959
 20
10.369397
 30
0.0
 10
475.479288
 20
10.369397
 30
0.0
 10
481.604452
 20
20.994437
 30
0.0
 10
475.479288
 20
31.594437
 30
0.0
 10
463.228959
 20
31.594437
 30
0.0
  0
LWPOLYLINE
  5
154
100
AcDbEntity
  8
Layer_1
 62
5
100
AcDbPolyline
 90
7
 70
0
 10
513.330302
 20
31.594437
 30
0.0
 10
507.205138
 20
20.994437
 30
0.0
 10
513.330302
 20
10.369397
 30
0.0
 10
525.580630
 20
10.369397
 30
0.0
 10
531.705794
 20
20.994437
 30
0.0
 10
525.580630
 20
31.594437
 30
0.0
 10
513.330302
 20
31.594437
 30
0.0
  0
LWPOLYLINE
  5
155
100
AcDbEntity
  8
Layer_1
 62
5
100
AcDbPolyline
 90
7
 70
0
 10
563.406644
 20
31.594437
 30
0.0
 10
557.281480
 20
20.994437
 30
0.0
 10
563.406644
 20
10.369397
 30
0.0
 10
575.656972
 20
10.369397
 30
0.0
 10
581.782136
 20
20.994437
 30
0.0
 10
575.656972
 20
31.594437
 30
0.0
 10
563.406644
 20
31.594437
 30
0.0
  0
SPLINE
  5
156
100
AcDbEntity
  8
Layer_1
 62
5
100
AcDbSpline
 70
8
 71
3
 72
8
 73
4
 74
0
 40
0
 40
0
 40
0
 40
0
 40
1
 40
1
 40
1
 40
1
 10
438.828305
 20
3.269397
 30
0.0
 10
438.794971
 20
3.235797
 30
0.0
 10
438.811638
 20
3.252597
 30
0.0
 10
438.828305
 20
3.269397
 30
0.0
  0
LWPOLYLINE
  5
157
100
AcDbEntity
  8
Layer_1
 62
5
100
AcDbPolyline
 90
7
 70
0
 10
613.507987
 20
31.594437
 30
0.0
 10
607.382822
 20
20.994437
 30
0.0
 10
613.507987
 20
10.369397
 30
0.0
 10
625.758315
 20
10.369397
 30
0.0
 10
631.883479
 20
20.994437
 30
0.0
 10
625.758315
 20
31.594437
 30
0.0
 10
613.507987
 20
31.594437
 30
0.0
  0
LWPOLYLINE
  5
158
100
AcDbEntity
  8
Layer_1
 62
5
100
AcDbPolyline
 90
2
 70
0
 10
438.828305
 20
3.269397
 30
0.0
 10
438.828305
 20
3.269397
 30
0.0
  0
LWPOLYLINE
  5
159
100
AcDbEntity
  8
Layer_1
 62
5
100
AcDbPolyline
 90
7
 70
0
 10
488.279631
 20
17.194197
 30
0.0
 10
481.004436
 20
4.619237
 30
0.0
 10
480.229415
 20
3.269157
 30
0.0
 10
508.580175
 20
3.269157
 30
0.0
 10
507.780153
 20
4.619237
 30
0.0
 10
500.529959
 20
17.194197
 30
0.0
 10
488.279631
 20
17.194197
 30
0.0
  0
LWPOLYLINE
  5
15a
100
AcDbEntity
  8
Layer_1
 62
5
100
AcDbPolyline
 90
7
 70
0
 10
538.355973
 20
17.194197
 30
0.0
 10
531.105778
 20
4.619237
 30
0.0
 10
530.330758
 20
3.269157
 30
0.0
 10
558.656517
 20
3.269157
 30
0.0
 10
557.881496
 20
4.619237
 30
0.0
 10
550.606301
 20
17.194197
 30
0.0
 10
538.355973
 20
17.194197
 30
0.0
  0
LWPOLYLINE
  5
15b
100
AcDbEntity
  8
Layer_1
 62
5
100
AcDbPolyline
 90
7
 70
0
 10
588.457315
 20
17.194197
 30
0.0
 10
581.182120
 20
4.619237
 30
0.0
 10
580.407100
 20
3.269157
 30
0.0
 10
608.757859
 20
3.269157
 30
0.0
 10
607.982839
 20
4.619237
 30
0.0
 10
600.707644
 20
17.194197
 30
0.0
 10
588.457315
 20
17.194197
 30
0.0
  0
LWPOLYLINE
  5
15c
100
AcDbEntity
  8
Layer_1
 62
1
100
AcDbPolyline
 90
4
 70
0
 10
544.458149
 20
186.220531
 30
0.0
 10
650.087984
 20
3.269179
 30
0.0
 10
438.828305
 20
3.269179
 30
0.0
 10
544.458149
 20
186.220531
 30
0.0
  0
LWPOLYLINE
  5
15d
100
AcDbEntity
  8
Layer_1
 62
5
100
AcDbPolyline
 90
7
 70
0
 10
211.874472
 20
28.842529
 30
0.0
 10
205.749472
 20
39.466975
 30
0.0
 10
211.874472
 20
50.066422
 30
0.0
 10
224.124472
 20
50.066422
 30
0.0
 10
230.249472
 20
39.466975
 30
0.0
 10
224.124472
 20
28.842529
 30
0.0
 10
211.874472
 20
28.842529
 30
0.0
  0
LWPOLYLINE
  5
15e
100
AcDbEntity
  8
Layer_1
 62
5
100
AcDbPolyline
 90
7
 70
0
 10
195.549472
 20
43.316774
 30
0.0
 10
185.074472
 20
61.465827
 30
0.0
 10
186.849472
 20
64.540667
 30
0.0
 10
199.099472
 20
64.540667
 30
0.0
 10
205.224472
 20
53.941220
 30
0.0
 10
199.099472
 20
43.316774
 30
0.0
 10
195.549472
 20
43.316774
 30
0.0
  0
LWPOLYLINE
  5
15f
100
AcDbEntity
  8
Layer_1
 62
5
100
AcDbPolyline
 90
7
 70
0
 10
236.924472
 20
43.316774
 30
0.0
 10
230.799472
 20
53.941220
 30
0.0
 10
236.924472
 20
64.540667
 30
0.0
 10
249.174472
 20
64.540667
 30
0.0
 10
250.924472
 20
61.515825
 30
0.0
 10
240.399472
 20
43.316774
 30
0.0
 10
236.924472
 20
43.316774
 30
0.0
  0
LWPOLYLINE
  5
160
100
AcDbEntity
  8
Layer_1
 62
5
100
AcDbPolyline
 90
7
 70
0
 10
211.874472
 20
57.791019
 30
0.0
 10
205.749472
 20
68.390466
 30
0.0
 10
211.874472
 20
79.014912
 30
0.0
 10
224.124472
 20
79.014912
 30
0.0
 10
230.249472
 20
68.390466
 30
0.0
 10
224.124472
 20
57.791019
 30
0.0
 10
211.874472
 20
57.791019
 30
0.0
  0
LWPOLYLINE
  5
161
100
AcDbEntity
  8
Layer_1
 62
5
100
AcDbPolyline
 90
7
 70
0
 10
186.849472
 20
72.265264
 30
0.0
 10
180.724472
 20
82.864711
 30
0.0
 10
186.849472
 20
93.489157
 30
0.0
 10
199.099472
 20
93.489157
 30
0.0
 10
205.224472
 20
82.864711
 30
0.0
 10
199.099472
 20
72.265264
 30
0.0
 10
186.849472
 20
72.265264
 30
0.0
  0
LWPOLYLINE
  5
162
100
AcDbEntity
  8
Layer_1
 62
5
100
AcDbPolyline
 90
7
 70
0
 10
236.924472
 20
72.265264
 30
0.0
 10
230.799472
 20
82.864711
 30
0.0
 10
236.924472
 20
93.489157
 30
0.0
 10
249.174472
 20
93.489157
 30
0.0
 10
255.299472
 20
82.864711
 30
0.0
 10
249.174472
 20
72.265264
 30
0.0
 10
236.924472
 20
72.265264
 30
0.0
  0
LWPOLYLINE
  5
163
100
AcDbEntity
  8
Layer_1
 62
5
100
AcDbPolyline
 90
7
 70
0
 10
170.474472
 20
86.739509
 30
0.0
 10
159.999472
 20
104.863563
 30
0.0
 10
161.799472
 20
107.963402
 30
0.0
 10
174.049472
 20
107.963402
 30
0.0
 10
180.174472
 20
97.338956
 30
0.0
 10
174.049472
 20
86.739509
 30
0.0
 10
170.474472
 20
86.739509
 30
0.0
  0
LWPOLYLINE
  5
164
100
AcDbEntity
  8
Layer_1
 62
5
100
AcDbPolyline
 90
7
 70
0
 10
211.874472
 20
86.739509
 30
0.0
 10
205.749472
 20
97.338956
 30
0.0
 10
211.874472
 20
107.963402
 30
0.0
 10
224.124472
 20
107.963402
 30
0.0
 10
230.249472
 20
97.338956
 30
0.0
 10
224.124472
 20
86.739509
 30
0.0
 10
211.874472
 20
86.739509
 30
0.0
  0
LWPOLYLINE
  5
165
100
AcDbEntity
  8
Layer_1
 62
5
100
AcDbPolyline
 90
7
 70
0
 10
261.974472
 20
86.739509
 30
0.0
 10
255.849472
 20
97.338956
 30
0.0
 10
261.974472
 20
107.963402
 30
0.0
 10
274.224472
 20
107.963402
 30
0.0
 10
275.974472
 20
104.913561
 30
0.0
 10
265.474472
 20
86.739509
 30
0.0
 10
261.974472
 20
86.739509
 30
0.0
  0
LWPOLYLINE
  5
166
100
AcDbEntity
  8
Layer_1
 62
5
100
AcDbPolyline
 90
7
 70
0
 10
186.849472
 20
101.188755
 30
0.0
 10
180.724472
 20
111.813201
 30
0.0
 10
186.849472
 20
122.437647
 30
0.0
 10
199.099472
 20
122.437647
 30
0.0
 10
205.224472
 20
111.813201
 30
0.0
 10
199.099472
 20
101.188755
 30
0.0
 10
186.849472
 20
101.188755
 30
0.0
  0
LWPOLYLINE
  5
167
100
AcDbEntity
  8
Layer_1
 62
5
100
AcDbPolyline
 90
7
 70
0
 10
236.924472
 20
101.188755
 30
0.0
 10
230.799472
 20
111.813201
 30
0.0
 10
236.924472
 20
122.437647
 30
0.0
 10
249.174472
 20
122.437647
 30
0.0
 10
255.299472
 20
111.813201
 30
0.0
 10
249.174472
 20
101.188755
 30
0.0
 10
236.924472
 20
101.188755
 30
0.0
  0
LWPOLYLINE
  5
168
100
AcDbEntity
  8
Layer_1
 62
5
100
AcDbPolyline
 90
7
 70
0
 10
161.799472
 20
115.663000
 30
0.0
 10
155.674472
 20
126.287446
 30
0.0
 10
161.799472
 20
136.886893
 30
0.0
 10
174.049472
 20
136.886893
 30
0.0
 10
180.174472
 20
126.287446
 30
0.0
 10
174.049472
 20
115.663000
 30
0.0
 10
161.799472
 20
115.663000
 30
0.0
  0
LWPOLYLINE
  5
169
100
AcDbEntity
  8
Layer_1
 62
5
100
AcDbPolyline
 90
7
 70
0
 10
211.874472
 20
115.663000
 30
0.0
 10
205.749472
 20
126.287446
 30
0.0
 10
211.874472
 20
136.886893
 30
0.0
 10
224.124472
 20
136.886893
 30
0.0
 10
230.249472
 20
126.287446
 30
0.0
 10
224.124472
 20
115.663000
 30
0.0
 10
211.874472
 20
115.663000
 30
0.0
  0
LWPOLYLINE
  5
16a
100
AcDbEntity
  8
Layer_1
 62
5
100
AcDbPolyline
 90
7
 70
0
 10
261.974472
 20
115.663000
 30
0.0
 10
255.849472
 20
126.287446
 30
0.0
 10
261.974472
 20
136.886893
 30
0.0
 10
274.224472
 20
136.886893
 30
0.0
 10
280.349472
 20
126.287446
 30
0.0
 10
274.224472
 20
115.663000
 30
0.0
 10
261.974472
 20
115.663000
 30
0.0
  0
LWPOLYLINE
  5
16b
100
AcDbEntity
  8
Layer_1
 62
5
100
AcDbPolyline
 90
7
 70
0
 10
145.424472
 20
130.137245
 30
0.0
 10
134.949472
 20
148.261276
 30
0.0
 10
136.749472
 20
151.361114
 30
0.0
 10
148.999472
 20
151.361114
 30
0.0
 10
155.124472
 20
140.761691
 30
0.0
 10
148.999472
 20
130.137245
 30
0.0
 10
145.424472
 20
130.137245
 30
0.0
  0
LWPOLYLINE
  5
16c
100
AcDbEntity
  8
Layer_1
 62
5
100
AcDbPolyline
 90
7
 70
0
 10
186.849472
 20
130.137245
 30
0.0
 10
180.724472
 20
140.761691
 30
0.0
 10
186.849472
 20
151.361114
 30
0.0
 10
199.099472
 20
151.361114
 30
0.0
 10
205.224472
 20
140.761691
 30
0.0
 10
199.099472
 20
130.137245
 30
0.0
 10
186.849472
 20
130.137245
 30
0.0
  0
LWPOLYLINE
  5
16d
100
AcDbEntity
  8
Layer_1
 62
5
100
AcDbPolyline
 90
7
 70
0
 10
236.924472
 20
130.137245
 30
0.0
 10
230.799472
 20
140.761691
 30
0.0
 10
236.924472
 20
151.361114
 30
0.0
 10
249.174472
 20
151.361114
 30
0.0
 10
255.299472
 20
140.761691
 30
0.0
 10
249.174472
 20
130.137245
 30
0.0
 10
236.924472
 20
130.137245
 30
0.0
  0
LWPOLYLINE
  5
16e
100
AcDbEntity
  8
Layer_1
 62
5
100
AcDbPolyline
 90
7
 70
0
 10
287.024472
 20
130.137245
 30
0.0
 10
280.899472
 20
140.761691
 30
0.0
 10
287.024472
 20
151.361114
 30
0.0
 10
299.274472
 20
151.361114
 30
0.0
 10
301.024472
 20
148.311353
 30
0.0
 10
290.524472
 20
130.137245
 30
0.0
 10
287.024472
 20
130.137245
 30
0.0
  0
LWPOLYLINE
  5
16f
100
AcDbEntity
  8
Layer_1
 62
5
100
AcDbPolyline
 90
7
 70
0
 10
161.799472
 20
144.611490
 30
0.0
 10
155.674472
 20
155.235952
 30
0.0
 10
161.799472
 20
165.835399
 30
0.0
 10
174.049472
 20
165.835399
 30
0.0
 10
180.174472
 20
155.235952
 30
0.0
 10
174.049472
 20
144.611490
 30
0.0
 10
161.799472
 20
144.611490
 30
0.0
  0
LWPOLYLINE
  5
170
100
AcDbEntity
  8
Layer_1
 62
5
100
AcDbPolyline
 90
7
 70
0
 10
211.874472
 20
144.611490
 30
0.0
 10
205.749472
 20
155.235952
 30
0.0
 10
211.874472
 20
165.835399
 30
0.0
 10
224.124472
 20
165.835399
 30
0.0
 10
230.249472
 20
155.235952
 30
0.0
 10
224.124472
 20
144.611490
 30
0.0
 10
211.874472
 20
144.611490
 30
0.0
  0
LWPOLYLINE
  5
171
100
AcDbEntity
  8
Layer_1
 62
5
100
AcDbPolyline
 90
7
 70
0
 10
261.974472
 20
144.611490
 30
0.0
 10
255.849472
 20
155.235952
 30
0.0
 10
261.974472
 20
165.835399
 30
0.0
 10
274.224472
 20
165.835399
 30
0.0
 10
280.349472
 20
155.235952
 30
0.0
 10
274.224472
 20
144.611490
 30
0.0
 10
261.974472
 20
144.611490
 30
0.0
  0
LWPOLYLINE
  5
172
100
AcDbEntity
  8
Layer_1
 62
5
100
AcDbPolyline
 90
7
 70
0
 10
136.749472
 20
159.085751
 30
0.0
 10
130.624472
 20
169.685198
 30
0.0
 10
136.749472
 20
180.309684
 30
0.0
 10
148.999472
 20
180.309684
 30
0.0
 10
155.124472
 20
169.685198
 30
0.0
 10
148.999472
 20
159.085751
 30
0.0
 10
136.749472
 20
159.085751
 30
0.0
  0
LWPOLYLINE
  5
173
100
AcDbEntity
  8
Layer_1
 62
5
100
AcDbPolyline
 90
7
 70
0
 10
186.849472
 20
159.085751
 30
0.0
 10
180.724472
 20
169.685198
 30
0.0
 10
186.849472
 20
180.309684
 30
0.0
 10
199.099472
 20
180.309684
 30
0.0
 10
205.224472
 20
169.685198
 30
0.0
 10
199.099472
 20
159.085751
 30
0.0
 10
186.849472
 20
159.085751
 30
0.0
  0
LWPOLYLINE
  5
174
100
AcDbEntity
  8
Layer_1
 62
5
100
AcDbPolyline
 90
7
 70
0
 10
236.924472
 20
159.085751
 30
0.0
 10
230.799472
 20
169.685198
 30
0.0
 10
236.924472
 20
180.309684
 30
0.0
 10
249.174472
 20
180.309684
 30
0.0
 10
255.299472
 20
169.685198
 30
0.0
 10
249.174472
 20
159.085751
 30
0.0
 10
236.924472
 20
159.085751
 30
0.0
  0
SPLINE
  5
175
100
AcDbEntity
  8
Layer_1
 62
5
100
AcDbSpline
 70
8
 71
3
 72
8
 73
4
 74
0
 40
0
 40
0
 40
0
 40
0
 40
1
 40
1
 40
1
 40
1
 10
112.349472
 20
187.409314
 30
0.0
 10
112.316139
 20
187.442912
 30
0.0
 10
112.332805
 20
187.426113
 30
0.0
 10
112.349472
 20
187.409314
 30
0.0
  0
LWPOLYLINE
  5
176
100
AcDbEntity
  8
Layer_1
 62
5
100
AcDbPolyline
 90
7
 70
0
 10
287.024472
 20
159.085751
 30
0.0
 10
280.899472
 20
169.685198
 30
0.0
 10
287.024472
 20
180.309684
 30
0.0
 10
299.274472
 20
180.309684
 30
0.0
 10
305.399472
 20
169.685198
 30
0.0
 10
299.274472
 20
159.085751
 30
0.0
 10
287.024472
 20
159.085751
 30
0.0
  0
LWPOLYLINE
  5
177
100
AcDbEntity
  8
Layer_1
 62
5
100
AcDbPolyline
 90
2
 70
0
 10
112.349472
 20
187.409314
 30
0.0
 10
112.349472
 20
187.409314
 30
0.0
  0
LWPOLYLINE
  5
178
100
AcDbEntity
  8
Layer_1
 62
5
100
AcDbPolyline
 90
7
 70
0
 10
161.799472
 20
173.485240
 30
0.0
 10
154.524472
 20
186.059544
 30
0.0
 10
153.749472
 20
187.409554
 30
0.0
 10
182.099472
 20
187.409554
 30
0.0
 10
181.299472
 20
186.059544
 30
0.0
 10
174.049472
 20
173.485240
 30
0.0
 10
161.799472
 20
173.485240
 30
0.0
  0
LWPOLYLINE
  5
179
100
AcDbEntity
  8
Layer_1
 62
5
100
AcDbPolyline
 90
7
 70
0
 10
211.874472
 20
173.485240
 30
0.0
 10
204.624472
 20
186.059544
 30
0.0
 10
203.849472
 20
187.409554
 30
0.0
 10
232.174472
 20
187.409554
 30
0.0
 10
231.399472
 20
186.059544
 30
0.0
 10
224.124472
 20
173.485240
 30
0.0
 10
211.874472
 20
173.485240
 30
0.0
  0
LWPOLYLINE
  5
17a
100
AcDbEntity
  8
Layer_1
 62
5
100
AcDbPolyline
 90
7
 70
0
 10
261.974472
 20
173.485240
 30
0.0
 10
254.699472
 20
186.059544
 30
0.0
 10
253.924472
 20
187.409554
 30
0.0
 10
282.274472
 20
187.409554
 30
0.0
 10
281.499472
 20
186.059544
 30
0.0
 10
274.224472
 20
173.485240
 30
0.0
 10
261.974472
 20
173.485240
 30
0.0
  0
LWPOLYLINE
  5
17b
100
AcDbEntity
  8
Layer_1
 62
1
100
AcDbPolyline
 90
4
 70
0
 10
217.976485
 20
4.467722
 30
0.0
 10
323.603489
 20
187.409532
 30
0.0
 10
112.349472
 20
187.409532
 30
0.0
 10
217.976485
 20
4.467722
 30
0.0
  0
LWPOLYLINE
  5
17c
100
AcDbEntity
  8
Layer_1
 62
5
100
AcDbPolyline
 90
7
 70
0
 10
429.648615
 20
28.842529
 30
0.0
 10
423.523598
 20
39.466975
 30
0.0
 10
429.648615
 20
50.066422
 30
0.0
 10
441.898649
 20
50.066422
 30
0.0
 10
448.023666
 20
39.466975
 30
0.0
 10
441.898649
 20
28.842529
 30
0.0
 10
429.648615
 20
28.842529
 30
0.0
  0
LWPOLYLINE
  5
17d
100
AcDbEntity
  8
Layer_1
 62
5
100
AcDbPolyline
 90
7
 70
0
 10
413.323569
 20
43.316774
 30
0.0
 10
402.848540
 20
61.465827
 30
0.0
 10
404.623545
 20
64.540667
 30
0.0
 10
416.873579
 20
64.540667
 30
0.0
 10
422.998596
 20
53.941220
 30
0.0
 10
416.873579
 20
43.316774
 30
0.0
 10
413.323569
 20
43.316774
 30
0.0
  0
LWPOLYLINE
  5
17e
100
AcDbEntity
  8
Layer_1
 62
5
100
AcDbPolyline
 90
7
 70
0
 10
454.698685
 20
43.316774
 30
0.0
 10
448.573668
 20
53.941220
 30
0.0
 10
454.698685
 20
64.540667
 30
0.0
 10
466.948719
 20
64.540667
 30
0.0
 10
468.698724
 20
61.515825
 30
0.0
 10
458.173695
 20
43.316774
 30
0.0
 10
454.698685
 20
43.316774
 30
0.0
  0
LWPOLYLINE
  5
17f
100
AcDbEntity
  8
Layer_1
 62
5
100
AcDbPolyline
 90
7
 70
0
 10
429.648615
 20
57.791019
 30
0.0
 10
423.523598
 20
68.390466
 30
0.0
 10
429.648615
 20
79.014912
 30
0.0
 10
441.898649
 20
79.014912
 30
0.0
 10
448.023666
 20
68.390466
 30
0.0
 10
441.898649
 20
57.791019
 30
0.0
 10
429.648615
 20
57.791019
 30
0.0
  0
LWPOLYLINE
  5
180
100
AcDbEntity
  8
Layer_1
 62
5
100
AcDbPolyline
 90
7
 70
0
 10
404.623545
 20
72.265264
 30
0.0
 10
398.498528
 20
82.864711
 30
0.0
 10
404.623545
 20
93.489157
 30
0.0
 10
416.873579
 20
93.489157
 30
0.0
 10
422.998596
 20
82.864711
 30
0.0
 10
416.873579
 20
72.265264
 30
0.0
 10
404.623545
 20
72.265264
 30
0.0
  0
LWPOLYLINE
  5
181
100
AcDbEntity
  8
Layer_1
 62
5
100
AcDbPolyline
 90
7
 70
0
 10
454.698685
 20
72.265264
 30
0.0
 10
448.573668
 20
82.864711
 30
0.0
 10
454.698685
 20
93.489157
 30
0.0
 10
466.948719
 20
93.489157
 30
0.0
 10
473.073736
 20
82.864711
 30
0.0
 10
466.948719
 20
72.265264
 30
0.0
 10
454.698685
 20
72.265264
 30
0.0
  0
LWPOLYLINE
  5
182
100
AcDbEntity
  8
Layer_1
 62
5
100
AcDbPolyline
 90
7
 70
0
 10
388.248499
 20
86.739509
 30
0.0
 10
377.773470
 20
104.863563
 30
0.0
 10
379.573475
 20
107.963402
 30
0.0
 10
391.823509
 20
107.963402
 30
0.0
 10
397.948526
 20
97.338956
 30
0.0
 10
391.823509
 20
86.739509
 30
0.0
 10
388.248499
 20
86.739509
 30
0.0
  0
LWPOLYLINE
  5
183
100
AcDbEntity
  8
Layer_1
 62
5
100
AcDbPolyline
 90
7
 70
0
 10
429.648615
 20
86.739509
 30
0.0
 10
423.523598
 20
97.338956
 30
0.0
 10
429.648615
 20
107.963402
 30
0.0
 10
441.898649
 20
107.963402
 30
0.0
 10
448.023666
 20
97.338956
 30
0.0
 10
441.898649
 20
86.739509
 30
0.0
 10
429.648615
 20
86.739509
 30
0.0
  0
LWPOLYLINE
  5
184
100
AcDbEntity
  8
Layer_1
 62
5
100
AcDbPolyline
 90
7
 70
0
 10
479.748755
 20
86.739509
 30
0.0
 10
473.623738
 20
97.338956
 30
0.0
 10
479.748755
 20
107.963402
 30
0.0
 10
491.998789
 20
107.963402
 30
0.0
 10
493.748794
 20
104.913561
 30
0.0
 10
483.248765
 20
86.739509
 30
0.0
 10
479.748755
 20
86.739509
 30
0.0
  0
LWPOLYLINE
  5
185
100
AcDbEntity
  8
Layer_1
 62
5
100
AcDbPolyline
 90
7
 70
0
 10
404.623545
 20
101.188755
 30
0.0
 10
398.498528
 20
111.813201
 30
0.0
 10
404.623545
 20
122.437647
 30
0.0
 10
416.873579
 20
122.437647
 30
0.0
 10
422.998596
 20
111.813201
 30
0.0
 10
416.873579
 20
101.188755
 30
0.0
 10
404.623545
 20
101.188755
 30
0.0
  0
LWPOLYLINE
  5
186
100
AcDbEntity
  8
Layer_1
 62
5
100
AcDbPolyline
 90
7
 70
0
 10
454.698685
 20
101.188755
 30
0.0
 10
448.573668
 20
111.813201
 30
0.0
 10
454.698685
 20
122.437647
 30
0.0
 10
466.948719
 20
122.437647
 30
0.0
 10
473.073736
 20
111.813201
 30
0.0
 10
466.948719
 20
101.188755
 30
0.0
 10
454.698685
 20
101.188755
 30
0.0
  0
LWPOLYLINE
  5
187
100
AcDbEntity
  8
Layer_1
 62
5
100
AcDbPolyline
 90
7
 70
0
 10
379.573475
 20
115.663000
 30
0.0
 10
373.448457
 20
126.287446
 30
0.0
 10
379.573475
 20
136.886893
 30
0.0
 10
391.823509
 20
136.886893
 30
0.0
 10
397.948526
 20
126.287446
 30
0.0
 10
391.823509
 20
115.663000
 30
0.0
 10
379.573475
 20
115.663000
 30
0.0
  0
LWPOLYLINE
  5
188
100
AcDbEntity
  8
Layer_1
 62
5
100
AcDbPolyline
 90
7
 70
0
 10
429.648615
 20
115.663000
 30
0.0
 10
423.523598
 20
126.287446
 30
0.0
 10
429.648615
 20
136.886893
 30
0.0
 10
441.898649
 20
136.886893
 30
0.0
 10
448.023666
 20
126.287446
 30
0.0
 10
441.898649
 20
115.663000
 30
0.0
 10
429.648615
 20
115.663000
 30
0.0
  0
LWPOLYLINE
  5
189
100
AcDbEntity
  8
Layer_1
 62
5
100
AcDbPolyline
 90
7
 70
0
 10
479.748755
 20
115.663000
 30
0.0
 10
473.623738
 20
126.287446
 30
0.0
 10
479.748755
 20
136.886893
 30
0.0
 10
491.998789
 20
136.886893
 30
0.0
 10
498.123807
 20
126.287446
 30
0.0
 10
491.998789
 20
115.663000
 30
0.0
 10
479.748755
 20
115.663000
 30
0.0
  0
LWPOLYLINE
  5
18a
100
AcDbEntity
  8
Layer_1
 62
5
100
AcDbPolyline
 90
7
 70
0
 10
363.198429
 20
130.137245
 30
0.0
 10
352.723399
 20
148.261276
 30
0.0
 10
354.523404
 20
151.361114
 30
0.0
 10
366.773439
 20
151.361114
 30
0.0
 10
372.898456
 20
140.761691
 30
0.0
 10
366.773439
 20
130.137245
 30
0.0
 10
363.198429
 20
130.137245
 30
0.0
  0
LWPOLYLINE
  5
18b
100
AcDbEntity
  8
Layer_1
 62
5
100
AcDbPolyline
 90
7
 70
0
 10
404.623545
 20
130.137245
 30
0.0
 10
398.498528
 20
140.761691
 30
0.0
 10
404.623545
 20
151.361114
 30
0.0
 10
416.873579
 20
151.361114
 30
0.0
 10
422.998596
 20
140.761691
 30
0.0
 10
416.873579
 20
130.137245
 30
0.0
 10
404.623545
 20
130.137245
 30
0.0
  0
LWPOLYLINE
  5
18c
100
AcDbEntity
  8
Layer_1
 62
5
100
AcDbPolyline
 90
7
 70
0
 10
454.698685
 20
130.137245
 30
0.0
 10
448.573668
 20
140.761691
 30
0.0
 10
454.698685
 20
151.361114
 30
0.0
 10
466.948719
 20
151.361114
 30
0.0
 10
473.073736
 20
140.761691
 30
0.0
 10
466.948719
 20
130.137245
 30
0.0
 10
454.698685
 20
130.137245
 30
0.0
  0
LWPOLYLINE
  5
18d
100
AcDbEntity
  8
Layer_1
 62
5
100
AcDbPolyline
 90
7
 70
0
 10
504.798825
 20
130.137245
 30
0.0
 10
498.673808
 20
140.761691
 30
0.0
 10
504.798825
 20
151.361114
 30
0.0
 10
517.048860
 20
151.361114
 30
0.0
 10
518.798864
 20
148.311353
 30
0.0
 10
508.298835
 20
130.137245
 30
0.0
 10
504.798825
 20
130.137245
 30
0.0
  0
LWPOLYLINE
  5
18e
100
AcDbEntity
  8
Layer_1
 62
5
100
AcDbPolyline
 90
7
 70
0
 10
379.573475
 20
144.611490
 30
0.0
 10
373.448457
 20
155.235952
 30
0.0
 10
379.573475
 20
165.835399
 30
0.0
 10
391.823509
 20
165.835399
 30
0.0
 10
397.948526
 20
155.235952
 30
0.0
 10
391.823509
 20
144.611490
 30
0.0
 10
379.573475
 20
144.611490
 30
0.0
  0
LWPOLYLINE
  5
18f
100
AcDbEntity
  8
Layer_1
 62
5
100
AcDbPolyline
 90
7
 70
0
 10
429.648615
 20
144.611490
 30
0.0
 10
423.523598
 20
155.235952
 30
0.0
 10
429.648615
 20
165.835399
 30
0.0
 10
441.898649
 20
165.835399
 30
0.0
 10
448.023666
 20
155.235952
 30
0.0
 10
441.898649
 20
144.611490
 30
0.0
 10
429.648615
 20
144.611490
 30
0.0
  0
LWPOLYLINE
  5
190
100
AcDbEntity
  8
Layer_1
 62
5
100
AcDbPolyline
 90
7
 70
0
 10
479.748755
 20
144.611490
 30
0.0
 10
473.623738
 20
155.235952
 30
0.0
 10
479.748755
 20
165.835399
 30
0.0
 10
491.998789
 20
165.835399
 30
0.0
 10
498.123807
 20
155.235952
 30
0.0
 10
491.998789
 20
144.611490
 30
0.0
 10
479.748755
 20
144.611490
 30
0.0
  0
LWPOLYLINE
  5
191
100
AcDbEntity
  8
Layer_1
 62
5
100
AcDbPolyline
 90
7
 70
0
 10
354.523404
 20
159.085751
 30
0.0
 10
348.398387
 20
169.685198
 30
0.0
 10
354.523404
 20
180.309684
 30
0.0
 10
366.773439
 20
180.309684
 30
0.0
 10
372.898456
 20
169.685198
 30
0.0
 10
366.773439
 20
159.085751
 30
0.0
 10
354.523404
 20
159.085751
 30
0.0
  0
LWPOLYLINE
  5
192
100
AcDbEntity
  8
Layer_1
 62
5
100
AcDbPolyline
 90
7
 70
0
 10
404.623545
 20
159.085751
 30
0.0
 10
398.498528
 20
169.685198
 30
0.0
 10
404.623545
 20
180.309684
 30
0.0
 10
416.873579
 20
180.309684
 30
0.0
 10
422.998596
 20
169.685198
 30
0.0
 10
416.873579
 20
159.085751
 30
0.0
 10
404.623545
 20
159.085751
 30
0.0
  0
LWPOLYLINE
  5
193
100
AcDbEntity
  8
Layer_1
 62
5
100
AcDbPolyline
 90
7
 70
0
 10
454.698685
 20
159.085751
 30
0.0
 10
448.573668
 20
169.685198
 30
0.0
 10
454.698685
 20
180.309684
 30
0.0
 10
466.948719
 20
180.309684
 30
0.0
 10
473.073736
 20
169.685198
 30
0.0
 10
466.948719
 20
159.085751
 30
0.0
 10
454.698685
 20
159.085751
 30
0.0
  0
SPLINE
  5
194
100
AcDbEntity
  8
Layer_1
 62
5
100
AcDbSpline
 70
8
 71
3
 72
8
 73
4
 74
0
 40
0
 40
0
 40
0
 40
0
 40
1
 40
1
 40
1
 40
1
 10
330.123336
 20
187.409314
 30
0.0
 10
330.090003
 20
187.442912
 30
0.0
 10
330.106669
 20
187.426113
 30
0.0
 10
330.123336
 20
187.409314
 30
0.0
  0
LWPOLYLINE
  5
195
100
AcDbEntity
  8
Layer_1
 62
5
100
AcDbPolyline
 90
7
 70
0
 10
504.798825
 20
159.085751
 30
0.0
 10
498.673808
 20
169.685198
 30
0.0
 10
504.798825
 20
180.309684
 30
0.0
 10
517.048860
 20
180.309684
 30
0.0
 10
523.173877
 20
169.685198
 30
0.0
 10
517.048860
 20
159.085751
 30
0.0
 10
504.798825
 20
159.085751
 30
0.0
  0
LWPOLYLINE
  5
196
100
AcDbEntity
  8
Layer_1
 62
5
100
AcDbPolyline
 90
2
 70
0
 10
330.123336
 20
187.409314
 30
0.0
 10
330.123336
 20
187.409314
 30
0.0
  0
LWPOLYLINE
  5
197
100
AcDbEntity
  8
Layer_1
 62
5
100
AcDbPolyline
 90
7
 70
0
 10
379.573475
 20
173.485240
 30
0.0
 10
372.298454
 20
186.059544
 30
0.0
 10
371.523452
 20
187.409554
 30
0.0
 10
399.873531
 20
187.409554
 30
0.0
 10
399.073529
 20
186.059544
 30
0.0
 10
391.823509
 20
173.485240
 30
0.0
 10
379.573475
 20
173.485240
 30
0.0
  0
LWPOLYLINE
  5
198
100
AcDbEntity
  8
Layer_1
 62
5
100
AcDbPolyline
 90
7
 70
0
 10
429.648615
 20
173.485240
 30
0.0
 10
422.398595
 20
186.059544
 30
0.0
 10
421.623592
 20
187.409554
 30
0.0
 10
449.948672
 20
187.409554
 30
0.0
 10
449.173669
 20
186.059544
 30
0.0
 10
441.898649
 20
173.485240
 30
0.0
 10
429.648615
 20
173.485240
 30
0.0
  0
LWPOLYLINE
  5
199
100
AcDbEntity
  8
Layer_1
 62
5
100
AcDbPolyline
 90
7
 70
0
 10
479.748755
 20
173.485240
 30
0.0
 10
472.473735
 20
186.059544
 30
0.0
 10
471.698733
 20
187.409554
 30
0.0
 10
500.048812
 20
187.409554
 30
0.0
 10
499.273810
 20
186.059544
 30
0.0
 10
491.998789
 20
173.485240
 30
0.0
 10
479.748755
 20
173.485240
 30
0.0
  0
LWPOLYLINE
  5
19a
100
AcDbEntity
  8
Layer_1
 62
1
100
AcDbPolyline
 90
4
 70
0
 10
435.750645
 20
4.467722
 30
0.0
 10
541.377945
 20
187.409532
 30
0.0
 10
330.123336
 20
187.409532
 30
0.0
 10
435.750645
 20
4.467722
 30
0.0
  0
LWPOLYLINE
  5
19b
100
AcDbEntity
  8
Layer_1
 62
5
100
AcDbPolyline
 90
7
 70
0
 10
647.436229
 20
28.842929
 30
0.0
 10
641.311064
 20
39.467375
 30
0.0
 10
647.436229
 20
50.066822
 30
0.0
 10
659.686557
 20
50.066822
 30
0.0
 10
665.811721
 20
39.467375
 30
0.0
 10
659.686557
 20
28.842929
 30
0.0
 10
647.436229
 20
28.842929
 30
0.0
  0
LWPOLYLINE
  5
19c
100
AcDbEntity
  8
Layer_1
 62
5
100
AcDbPolyline
 90
7
 70
0
 10
631.110791
 20
43.317174
 30
0.0
 10
620.635510
 20
61.466227
 30
0.0
 10
622.410558
 20
64.541067
 30
0.0
 10
634.660886
 20
64.541067
 30
0.0
 10
640.786050
 20
53.941620
 30
0.0
 10
634.660886
 20
43.317174
 30
0.0
 10
631.110791
 20
43.317174
 30
0.0
  0
LWPOLYLINE
  5
19d
100
AcDbEntity
  8
Layer_1
 62
5
100
AcDbPolyline
 90
7
 70
0
 10
672.486900
 20
43.317174
 30
0.0
 10
666.361736
 20
53.941620
 30
0.0
 10
672.486900
 20
64.541067
 30
0.0
 10
684.737228
 20
64.541067
 30
0.0
 10
686.487275
 20
61.516225
 30
0.0
 10
675.961993
 20
43.317174
 30
0.0
 10
672.486900
 20
43.317174
 30
0.0
  0
LWPOLYLINE
  5
19e
100
AcDbEntity
  8
Layer_1
 62
5
100
AcDbPolyline
 90
7
 70
0
 10
647.436229
 20
57.791419
 30
0.0
 10
641.311064
 20
68.390866
 30
0.0
 10
647.436229
 20
79.015312
 30
0.0
 10
659.686557
 20
79.015312
 30
0.0
 10
665.811721
 20
68.390866
 30
0.0
 10
659.686557
 20
57.791419
 30
0.0
 10
647.436229
 20
57.791419
 30
0.0
  0
LWPOLYLINE
  5
19f
100
AcDbEntity
  8
Layer_1
 62
5
100
AcDbPolyline
 90
7
 70
0
 10
622.410558
 20
72.265664
 30
0.0
 10
616.285394
 20
82.865111
 30
0.0
 10
622.410558
 20
93.489557
 30
0.0
 10
634.660886
 20
93.489557
 30
0.0
 10
640.786050
 20
82.865111
 30
0.0
 10
634.660886
 20
72.265664
 30
0.0
 10
622.410558
 20
72.265664
 30
0.0
  0
LWPOLYLINE
  5
1a0
100
AcDbEntity
  8
Layer_1
 62
5
100
AcDbPolyline
 90
7
 70
0
 10
672.486900
 20
72.265664
 30
0.0
 10
666.361736
 20
82.865111
 30
0.0
 10
672.486900
 20
93.489557
 30
0.0
 10
684.737228
 20
93.489557
 30
0.0
 10
690.862392
 20
82.865111
 30
0.0
 10
684.737228
 20
72.265664
 30
0.0
 10
672.486900
 20
72.265664
 30
0.0
  0
LWPOLYLINE
  5
1a1
100
AcDbEntity
  8
Layer_1
 62
5
100
AcDbPolyline
 90
7
 70
0
 10
606.035119
 20
86.739909
 30
0.0
 10
595.559838
 20
104.863963
 30
0.0
 10
597.359887
 20
107.963802
 30
0.0
 10
609.610215
 20
107.963802
 30
0.0
 10
615.735379
 20
97.339356
 30
0.0
 10
609.610215
 20
86.739909
 30
0.0
 10
606.035119
 20
86.739909
 30
0.0
  0
LWPOLYLINE
  5
1a2
100
AcDbEntity
  8
Layer_1
 62
5
100
AcDbPolyline
 90
7
 70
0
 10
647.436229
 20
86.739909
 30
0.0
 10
641.311064
 20
97.339356
 30
0.0
 10
647.436229
 20
107.963802
 30
0.0
 10
659.686557
 20
107.963802
 30
0.0
 10
665.811721
 20
97.339356
 30
0.0
 10
659.686557
 20
86.739909
 30
0.0
 10
647.436229
 20
86.739909
 30
0.0
  0
LWPOLYLINE
  5
1a3
100
AcDbEntity
  8
Layer_1
 62
5
100
AcDbPolyline
 90
7
 70
0
 10
697.537571
 20
86.739909
 30
0.0
 10
691.412407
 20
97.339356
 30
0.0
 10
697.537571
 20
107.963802
 30
0.0
 10
709.787900
 20
107.963802
 30
0.0
 10
711.537946
 20
104.913961
 30
0.0
 10
701.037665
 20
86.739909
 30
0.0
 10
697.537571
 20
86.739909
 30
0.0
  0
LWPOLYLINE
  5
1a4
100
AcDbEntity
  8
Layer_1
 62
5
100
AcDbPolyline
 90
7
 70
0
 10
622.410558
 20
101.189155
 30
0.0
 10
616.285394
 20
111.813601
 30
0.0
 10
622.410558
 20
122.438047
 30
0.0
 10
634.660886
 20
122.438047
 30
0.0
 10
640.786050
 20
111.813601
 30
0.0
 10
634.660886
 20
101.189155
 30
0.0
 10
622.410558
 20
101.189155
 30
0.0
  0
LWPOLYLINE
  5
1a5
100
AcDbEntity
  8
Layer_1
 62
5
100
AcDbPolyline
 90
7
 70
0
 10
672.486900
 20
101.189155
 30
0.0
 10
666.361736
 20
111.813601
 30
0.0
 10
672.486900
 20
122.438047
 30
0.0
 10
684.737228
 20
122.438047
 30
0.0
 10
690.862392
 20
111.813601
 30
0.0
 10
684.737228
 20
101.189155
 30
0.0
 10
672.486900
 20
101.189155
 30
0.0
  0
LWPOLYLINE
  5
1a6
100
AcDbEntity
  8
Layer_1
 62
5
100
AcDbPolyline
 90
7
 70
0
 10
597.359887
 20
115.663400
 30
0.0
 10
591.234722
 20
126.287846
 30
0.0
 10
597.359887
 20
136.887293
 30
0.0
 10
609.610215
 20
136.887293
 30
0.0
 10
615.735379
 20
126.287846
 30
0.0
 10
609.610215
 20
115.663400
 30
0.0
 10
597.359887
 20
115.663400
 30
0.0
  0
LWPOLYLINE
  5
1a7
100
AcDbEntity
  8
Layer_1
 62
5
100
AcDbPolyline
 90
7
 70
0
 10
647.436229
 20
115.663400
 30
0.0
 10
641.311064
 20
126.287846
 30
0.0
 10
647.436229
 20
136.887293
 30
0.0
 10
659.686557
 20
136.887293
 30
0.0
 10
665.811721
 20
126.287846
 30
0.0
 10
659.686557
 20
115.663400
 30
0.0
 10
647.436229
 20
115.663400
 30
0.0
  0
LWPOLYLINE
  5
1a8
100
AcDbEntity
  8
Layer_1
 62
5
100
AcDbPolyline
 90
7
 70
0
 10
697.537571
 20
115.663400
 30
0.0
 10
691.412407
 20
126.287846
 30
0.0
 10
697.537571
 20
136.887293
 30
0.0
 10
709.787900
 20
136.887293
 30
0.0
 10
715.913064
 20
126.287846
 30
0.0
 10
709.787900
 20
115.663400
 30
0.0
 10
697.537571
 20
115.663400
 30
0.0
  0
LWPOLYLINE
  5
1a9
100
AcDbEntity
  8
Layer_1
 62
5
100
AcDbPolyline
 90
7
 70
0
 10
580.984448
 20
130.137645
 30
0.0
 10
570.509167
 20
148.261676
 30
0.0
 10
572.309215
 20
151.361514
 30
0.0
 10
584.559544
 20
151.361514
 30
0.0
 10
590.684708
 20
140.762091
 30
0.0
 10
584.559544
 20
130.137645
 30
0.0
 10
580.984448
 20
130.137645
 30
0.0
  0
LWPOLYLINE
  5
1aa
100
AcDbEntity
  8
Layer_1
 62
5
100
AcDbPolyline
 90
7
 70
0
 10
622.410558
 20
130.137645
 30
0.0
 10
616.285394
 20
140.762091
 30
0.0
 10
622.410558
 20
151.361514
 30
0.0
 10
634.660886
 20
151.361514
 30
0.0
 10
640.786050
 20
140.762091
 30
0.0
 10
634.660886
 20
130.137645
 30
0.0
 10
622.410558
 20
130.137645
 30
0.0
  0
LWPOLYLINE
  5
1ab
100
AcDbEntity
  8
Layer_1
 62
5
100
AcDbPolyline
 90
7
 70
0
 10
672.486900
 20
130.137645
 30
0.0
 10
666.361736
 20
140.762091
 30
0.0
 10
672.486900
 20
151.361514
 30
0.0
 10
684.737228
 20
151.361514
 30
0.0
 10
690.862392
 20
140.762091
 30
0.0
 10
684.737228
 20
130.137645
 30
0.0
 10
672.486900
 20
130.137645
 30
0.0
  0
LWPOLYLINE
  5
1ac
100
AcDbEntity
  8
Layer_1
 62
5
100
AcDbPolyline
 90
7
 70
0
 10
722.588243
 20
130.137645
 30
0.0
 10
716.463078
 20
140.762091
 30
0.0
 10
722.588243
 20
151.361514
 30
0.0
 10
734.838571
 20
151.361514
 30
0.0
 10
736.588618
 20
148.311753
 30
0.0
 10
726.088336
 20
130.137645
 30
0.0
 10
722.588243
 20
130.137645
 30
0.0
  0
LWPOLYLINE
  5
1ad
100
AcDbEntity
  8
Layer_1
 62
5
100
AcDbPolyline
 90
7
 70
0
 10
597.359887
 20
144.611890
 30
0.0
 10
591.234722
 20
155.236352
 30
0.0
 10
597.359887
 20
165.835799
 30
0.0
 10
609.610215
 20
165.835799
 30
0.0
 10
615.735379
 20
155.236352
 30
0.0
 10
609.610215
 20
144.611890
 30
0.0
 10
597.359887
 20
144.611890
 30
0.0
  0
LWPOLYLINE
  5
1ae
100
AcDbEntity
  8
Layer_1
 62
5
100
AcDbPolyline
 90
7
 70
0
 10
647.436229
 20
144.611890
 30
0.0
 10
641.311064
 20
155.236352
 30
0.0
 10
647.436229
 20
165.835799
 30
0.0
 10
659.686557
 20
165.835799
 30
0.0
 10
665.811721
 20
155.236352
 30
0.0
 10
659.686557
 20
144.611890
 30
0.0
 10
647.436229
 20
144.611890
 30
0.0
  0
LWPOLYLINE
  5
1af
100
AcDbEntity
  8
Layer_1
 62
5
100
AcDbPolyline
 90
7
 70
0
 10
697.537571
 20
144.611890
 30
0.0
 10
691.412407
 20
155.236352
 30
0.0
 10
697.537571
 20
165.835799
 30
0.0
 10
709.787900
 20
165.835799
 30
0.0
 10
715.913064
 20
155.236352
 30
0.0
 10
709.787900
 20
144.611890
 30
0.0
 10
697.537571
 20
144.611890
 30
0.0
  0
LWPOLYLINE
  5
1b0
100
AcDbEntity
  8
Layer_1
 62
5
100
AcDbPolyline
 90
7
 70
0
 10
572.309215
 20
159.086151
 30
0.0
 10
566.184051
 20
169.685598
 30
0.0
 10
572.309215
 20
180.310084
 30
0.0
 10
584.559544
 20
180.310084
 30
0.0
 10
590.684708
 20
169.685598
 30
0.0
 10
584.559544
 20
159.086151
 30
0.0
 10
572.309215
 20
159.086151
 30
0.0
  0
LWPOLYLINE
  5
1b1
100
AcDbEntity
  8
Layer_1
 62
5
100
AcDbPolyline
 90
7
 70
0
 10
622.410558
 20
159.086151
 30
0.0
 10
616.285394
 20
169.685598
 30
0.0
 10
622.410558
 20
180.310084
 30
0.0
 10
634.660886
 20
180.310084
 30
0.0
 10
640.786050
 20
169.685598
 30
0.0
 10
634.660886
 20
159.086151
 30
0.0
 10
622.410558
 20
159.086151
 30
0.0
  0
LWPOLYLINE
  5
1b2
100
AcDbEntity
  8
Layer_1
 62
5
100
AcDbPolyline
 90
7
 70
0
 10
672.486900
 20
159.086151
 30
0.0
 10
666.361736
 20
169.685598
 30
0.0
 10
672.486900
 20
180.310084
 30
0.0
 10
684.737228
 20
180.310084
 30
0.0
 10
690.862392
 20
169.685598
 30
0.0
 10
684.737228
 20
159.086151
 30
0.0
 10
672.486900
 20
159.086151
 30
0.0
  0
SPLINE
  5
1b3
100
AcDbEntity
  8
Layer_1
 62
5
100
AcDbSpline
 70
8
 71
3
 72
8
 73
4
 74
0
 40
0
 40
0
 40
0
 40
0
 40
1
 40
1
 40
1
 40
1
 10
547.908561
 20
187.409714
 30
0.0
 10
547.875227
 20
187.443312
 30
0.0
 10
547.891894
 20
187.426513
 30
0.0
 10
547.908561
 20
187.409714
 30
0.0
  0
LWPOLYLINE
  5
1b4
100
AcDbEntity
  8
Layer_1
 62
5
100
AcDbPolyline
 90
7
 70
0
 10
722.588243
 20
159.086151
 30
0.0
 10
716.463078
 20
169.685598
 30
0.0
 10
722.588243
 20
180.310084
 30
0.0
 10
734.838571
 20
180.310084
 30
0.0
 10
740.963735
 20
169.685598
 30
0.0
 10
734.838571
 20
159.086151
 30
0.0
 10
722.588243
 20
159.086151
 30
0.0
  0
LWPOLYLINE
  5
1b5
100
AcDbEntity
  8
Layer_1
 62
5
100
AcDbPolyline
 90
2
 70
0
 10
547.908561
 20
187.409714
 30
0.0
 10
547.908561
 20
187.409714
 30
0.0
  0
LWPOLYLINE
  5
1b6
100
AcDbEntity
  8
Layer_1
 62
5
100
AcDbPolyline
 90
7
 70
0
 10
597.359887
 20
173.485640
 30
0.0
 10
590.084692
 20
186.059944
 30
0.0
 10
589.309671
 20
187.409954
 30
0.0
 10
617.660431
 20
187.409954
 30
0.0
 10
616.860409
 20
186.059944
 30
0.0
 10
609.610215
 20
173.485640
 30
0.0
 10
597.359887
 20
173.485640
 30
0.0
  0
LWPOLYLINE
  5
1b7
100
AcDbEntity
  8
Layer_1
 62
5
100
AcDbPolyline
 90
7
 70
0
 10
647.436229
 20
173.485640
 30
0.0
 10
640.186034
 20
186.059944
 30
0.0
 10
639.411014
 20
187.409954
 30
0.0
 10
667.736773
 20
187.409954
 30
0.0
 10
666.961752
 20
186.059944
 30
0.0
 10
659.686557
 20
173.485640
 30
0.0
 10
647.436229
 20
173.485640
 30
0.0
  0
LWPOLYLINE
  5
1b8
100
AcDbEntity
  8
Layer_1
 62
5
100
AcDbPolyline
 90
7
 70
0
 10
697.537571
 20
173.485640
 30
0.0
 10
690.262376
 20
186.059944
 30
0.0
 10
689.487356
 20
187.409954
 30
0.0
 10
717.838115
 20
187.409954
 30
0.0
 10
717.063095
 20
186.059944
 30
0.0
 10
709.787900
 20
173.485640
 30
0.0
 10
697.537571
 20
173.485640
 30
0.0
  0
LWPOLYLINE
  5
1b9
100
AcDbEntity
  8
Layer_1
 62
1
100
AcDbPolyline
 90
4
 70
0
 10
653.538405
 20
4.468122
 30
0.0
 10
759.168240
 20
187.409932
 30
0.0
 10
547.908561
 20
187.409932
 30
0.0
 10
653.538405
 20
4.468122
 30
0.0
  0
LWPOLYLINE
  5
1ba
100
AcDbEntity
  8
Layer_1
 62
5
100
AcDbPolyline
 90
7
 70
0
 10
102.794245
 20
349.364352
 30
0.0
 10
96.669245
 20
338.739352
 30
0.0
 10
102.794245
 20
328.139352
 30
0.0
 10
115.044245
 20
328.139352
 30
0.0
 10
121.169245
 20
338.739352
 30
0.0
 10
115.044245
 20
349.364352
 30
0.0
 10
102.794245
 20
349.364352
 30
0.0
  0
LWPOLYLINE
  5
1bb
100
AcDbEntity
  8
Layer_1
 62
5
100
AcDbPolyline
 90
7
 70
0
 10
86.469245
 20
334.889352
 30
0.0
 10
75.994245
 20
316.739352
 30
0.0
 10
77.769245
 20
313.664352
 30
0.0
 10
90.019245
 20
313.664352
 30
0.0
 10
96.144245
 20
324.264352
 30
0.0
 10
90.019245
 20
334.889352
 30
0.0
 10
86.469245
 20
334.889352
 30
0.0
  0
LWPOLYLINE
  5
1bc
100
AcDbEntity
  8
Layer_1
 62
5
100
AcDbPolyline
 90
7
 70
0
 10
127.844245
 20
334.889352
 30
0.0
 10
121.719245
 20
324.264352
 30
0.0
 10
127.844245
 20
313.664352
 30
0.0
 10
140.094245
 20
313.664352
 30
0.0
 10
141.844245
 20
316.689352
 30
0.0
 10
131.319245
 20
334.889352
 30
0.0
 10
127.844245
 20
334.889352
 30
0.0
  0
LWPOLYLINE
  5
1bd
100
AcDbEntity
  8
Layer_1
 62
5
100
AcDbPolyline
 90
7
 70
0
 10
102.794245
 20
320.414352
 30
0.0
 10
96.669245
 20
309.814352
 30
0.0
 10
102.794245
 20
299.189352
 30
0.0
 10
115.044245
 20
299.189352
 30
0.0
 10
121.169245
 20
309.814352
 30
0.0
 10
115.044245
 20
320.414352
 30
0.0
 10
102.794245
 20
320.414352
 30
0.0
  0
LWPOLYLINE
  5
1be
100
AcDbEntity
  8
Layer_1
 62
5
100
AcDbPolyline
 90
7
 70
0
 10
77.769245
 20
305.939352
 30
0.0
 10
71.644245
 20
295.339352
 30
0.0
 10
77.769245
 20
284.714352
 30
0.0
 10
90.019245
 20
284.714352
 30
0.0
 10
96.144245
 20
295.339352
 30
0.0
 10
90.019245
 20
305.939352
 30
0.0
 10
77.769245
 20
305.939352
 30
0.0
  0
LWPOLYLINE
  5
1bf
100
AcDbEntity
  8
Layer_1
 62
5
100
AcDbPolyline
 90
7
 70
0
 10
127.844245
 20
305.939352
 30
0.0
 10
121.719245
 20
295.339352
 30
0.0
 10
127.844245
 20
284.714352
 30
0.0
 10
140.094245
 20
284.714352
 30
0.0
 10
146.219245
 20
295.339352
 30
0.0
 10
140.094245
 20
305.939352
 30
0.0
 10
127.844245
 20
305.939352
 30
0.0
  0
LWPOLYLINE
  5
1c0
100
AcDbEntity
  8
Layer_1
 62
5
100
AcDbPolyline
 90
7
 70
0
 10
61.394245
 20
291.464352
 30
0.0
 10
50.919245
 20
273.339352
 30
0.0
 10
52.719245
 20
270.239352
 30
0.0
 10
64.969245
 20
270.239352
 30
0.0
 10
71.094245
 20
280.864352
 30
0.0
 10
64.969245
 20
291.464352
 30
0.0
 10
61.394245
 20
291.464352
 30
0.0
  0
LWPOLYLINE
  5
1c1
100
AcDbEntity
  8
Layer_1
 62
5
100
AcDbPolyline
 90
7
 70
0
 10
102.794245
 20
291.464352
 30
0.0
 10
96.669245
 20
280.864352
 30
0.0
 10
102.794245
 20
270.239352
 30
0.0
 10
115.044245
 20
270.239352
 30
0.0
 10
121.169245
 20
280.864352
 30
0.0
 10
115.044245
 20
291.464352
 30
0.0
 10
102.794245
 20
291.464352
 30
0.0
  0
LWPOLYLINE
  5
1c2
100
AcDbEntity
  8
Layer_1
 62
5
100
AcDbPolyline
 90
7
 70
0
 10
152.894245
 20
291.464352
 30
0.0
 10
146.769245
 20
280.864352
 30
0.0
 10
152.894245
 20
270.239352
 30
0.0
 10
165.144245
 20
270.239352
 30
0.0
 10
166.894245
 20
273.289352
 30
0.0
 10
156.394245
 20
291.464352
 30
0.0
 10
152.894245
 20
291.464352
 30
0.0
  0
LWPOLYLINE
  5
1c3
100
AcDbEntity
  8
Layer_1
 62
5
100
AcDbPolyline
 90
7
 70
0
 10
77.769245
 20
277.014352
 30
0.0
 10
71.644245
 20
266.389352
 30
0.0
 10
77.769245
 20
255.764352
 30
0.0
 10
90.019245
 20
255.764352
 30
0.0
 10
96.144245
 20
266.389352
 30
0.0
 10
90.019245
 20
277.014352
 30
0.0
 10
77.769245
 20
277.014352
 30
0.0
  0
LWPOLYLINE
  5
1c4
100
AcDbEntity
  8
Layer_1
 62
5
100
AcDbPolyline
 90
7
 70
0
 10
127.844245
 20
277.014352
 30
0.0
 10
121.719245
 20
266.389352
 30
0.0
 10
127.844245
 20
255.764352
 30
0.0
 10
140.094245
 20
255.764352
 30
0.0
 10
146.219245
 20
266.389352
 30
0.0
 10
140.094245
 20
277.014352
 30
0.0
 10
127.844245
 20
277.014352
 30
0.0
  0
LWPOLYLINE
  5
1c5
100
AcDbEntity
  8
Layer_1
 62
5
100
AcDbPolyline
 90
7
 70
0
 10
52.719245
 20
262.539352
 30
0.0
 10
46.594245
 20
251.914352
 30
0.0
 10
52.719245
 20
241.314352
 30
0.0
 10
64.969245
 20
241.314352
 30
0.0
 10
71.094245
 20
251.914352
 30
0.0
 10
64.969245
 20
262.539352
 30
0.0
 10
52.719245
 20
262.539352
 30
0.0
  0
LWPOLYLINE
  5
1c6
100
AcDbEntity
  8
Layer_1
 62
5
100
AcDbPolyline
 90
7
 70
0
 10
102.794245
 20
262.539352
 30
0.0
 10
96.669245
 20
251.914352
 30
0.0
 10
102.794245
 20
241.314352
 30
0.0
 10
115.044245
 20
241.314352
 30
0.0
 10
121.169245
 20
251.914352
 30
0.0
 10
115.044245
 20
262.539352
 30
0.0
 10
102.794245
 20
262.539352
 30
0.0
  0
LWPOLYLINE
  5
1c7
100
AcDbEntity
  8
Layer_1
 62
5
100
AcDbPolyline
 90
7
 70
0
 10
152.894245
 20
262.539352
 30
0.0
 10
146.769245
 20
251.914352
 30
0.0
 10
152.894245
 20
241.314352
 30
0.0
 10
165.144245
 20
241.314352
 30
0.0
 10
171.269245
 20
251.914352
 30
0.0
 10
165.144245
 20
262.539352
 30
0.0
 10
152.894245
 20
262.539352
 30
0.0
  0
LWPOLYLINE
  5
1c8
100
AcDbEntity
  8
Layer_1
 62
5
100
AcDbPolyline
 90
7
 70
0
 10
36.344245
 20
248.064352
 30
0.0
 10
25.869245
 20
229.939376
 30
0.0
 10
27.669245
 20
226.839376
 30
0.0
 10
39.919245
 20
226.839376
 30
0.0
 10
46.044245
 20
237.439352
 30
0.0
 10
39.919245
 20
248.064352
 30
0.0
 10
36.344245
 20
248.064352
 30
0.0
  0
LWPOLYLINE
  5
1c9
100
AcDbEntity
  8
Layer_1
 62
5
100
AcDbPolyline
 90
7
 70
0
 10
77.769245
 20
248.064352
 30
0.0
 10
71.644245
 20
237.439352
 30
0.0
 10
77.769245
 20
226.839376
 30
0.0
 10
90.019245
 20
226.839376
 30
0.0
 10
96.144245
 20
237.439352
 30
0.0
 10
90.019245
 20
248.064352
 30
0.0
 10
77.769245
 20
248.064352
 30
0.0
  0
LWPOLYLINE
  5
1ca
100
AcDbEntity
  8
Layer_1
 62
5
100
AcDbPolyline
 90
7
 70
0
 10
127.844245
 20
248.064352
 30
0.0
 10
121.719245
 20
237.439352
 30
0.0
 10
127.844245
 20
226.839376
 30
0.0
 10
140.094245
 20
226.839376
 30
0.0
 10
146.219245
 20
237.439352
 30
0.0
 10
140.094245
 20
248.064352
 30
0.0
 10
127.844245
 20
248.064352
 30
0.0
  0
LWPOLYLINE
  5
1cb
100
AcDbEntity
  8
Layer_1
 62
5
100
AcDbPolyline
 90
7
 70
0
 10
177.944245
 20
248.064352
 30
0.0
 10
171.819245
 20
237.439352
 30
0.0
 10
177.944245
 20
226.839376
 30
0.0
 10
190.194245
 20
226.839376
 30
0.0
 10
191.944245
 20
229.889296
 30
0.0
 10
181.444245
 20
248.064352
 30
0.0
 10
177.944245
 20
248.064352
 30
0.0
  0
LWPOLYLINE
  5
1cc
100
AcDbEntity
  8
Layer_1
 62
5
100
AcDbPolyline
 90
7
 70
0
 10
52.719245
 20
233.589352
 30
0.0
 10
46.594245
 20
222.964336
 30
0.0
 10
52.719245
 20
212.364336
 30
0.0
 10
64.969245
 20
212.364336
 30
0.0
 10
71.094245
 20
222.964336
 30
0.0
 10
64.969245
 20
233.589352
 30
0.0
 10
52.719245
 20
233.589352
 30
0.0
  0
LWPOLYLINE
  5
1cd
100
AcDbEntity
  8
Layer_1
 62
5
100
AcDbPolyline
 90
7
 70
0
 10
102.794245
 20
233.589352
 30
0.0
 10
96.669245
 20
222.964336
 30
0.0
 10
102.794245
 20
212.364336
 30
0.0
 10
115.044245
 20
212.364336
 30
0.0
 10
121.169245
 20
222.964336
 30
0.0
 10
115.044245
 20
233.589352
 30
0.0
 10
102.794245
 20
233.589352
 30
0.0
  0
LWPOLYLINE
  5
1ce
100
AcDbEntity
  8
Layer_1
 62
5
100
AcDbPolyline
 90
7
 70
0
 10
152.894245
 20
233.589352
 30
0.0
 10
146.769245
 20
222.964336
 30
0.0
 10
152.894245
 20
212.364336
 30
0.0
 10
165.144245
 20
212.364336
 30
0.0
 10
171.269245
 20
222.964336
 30
0.0
 10
165.144245
 20
233.589352
 30
0.0
 10
152.894245
 20
233.589352
 30
0.0
  0
LWPOLYLINE
  5
1cf
100
AcDbEntity
  8
Layer_1
 62
5
100
AcDbPolyline
 90
7
 70
0
 10
27.669245
 20
219.114336
 30
0.0
 10
21.544245
 20
208.514336
 30
0.0
 10
27.669245
 20
197.889296
 30
0.0
 10
39.919245
 20
197.889296
 30
0.0
 10
46.044245
 20
208.514336
 30
0.0
 10
39.919245
 20
219.114336
 30
0.0
 10
27.669245
 20
219.114336
 30
0.0
  0
LWPOLYLINE
  5
1d0
100
AcDbEntity
  8
Layer_1
 62
5
100
AcDbPolyline
 90
7
 70
0
 10
77.769245
 20
219.114336
 30
0.0
 10
71.644245
 20
208.514336
 30
0.0
 10
77.769245
 20
197.889296
 30
0.0
 10
90.019245
 20
197.889296
 30
0.0
 10
96.144245
 20
208.514336
 30
0.0
 10
90.019245
 20
219.114336
 30
0.0
 10
77.769245
 20
219.114336
 30
0.0
  0
LWPOLYLINE
  5
1d1
100
AcDbEntity
  8
Layer_1
 62
5
100
AcDbPolyline
 90
7
 70
0
 10
127.844245
 20
219.114336
 30
0.0
 10
121.719245
 20
208.514336
 30
0.0
 10
127.844245
 20
197.889296
 30
0.0
 10
140.094245
 20
197.889296
 30
0.0
 10
146.219245
 20
208.514336
 30
0.0
 10
140.094245
 20
219.114336
 30
0.0
 10
127.844245
 20
219.114336
 30
0.0
  0
SPLINE
  5
1d2
100
AcDbEntity
  8
Layer_1
 62
5
100
AcDbSpline
 70
8
 71
3
 72
8
 73
4
 74
0
 40
0
 40
0
 40
0
 40
0
 40
1
 40
1
 40
1
 40
1
 10
3.269245
 20
190.789296
 30
0.0
 10
3.235912
 20
190.755696
 30
0.0
 10
3.252578
 20
190.772496
 30
0.0
 10
3.269245
 20
190.789296
 30
0.0
  0
LWPOLYLINE
  5
1d3
100
AcDbEntity
  8
Layer_1
 62
5
100
AcDbPolyline
 90
7
 70
0
 10
177.944245
 20
219.114336
 30
0.0
 10
171.819245
 20
208.514336
 30
0.0
 10
177.944245
 20
197.889296
 30
0.0
 10
190.194245
 20
197.889296
 30
0.0
 10
196.319245
 20
208.514336
 30
0.0
 10
190.194245
 20
219.114336
 30
0.0
 10
177.944245
 20
219.114336
 30
0.0
  0
LWPOLYLINE
  5
1d4
100
AcDbEntity
  8
Layer_1
 62
5
100
AcDbPolyline
 90
2
 70
0
 10
3.269245
 20
190.789296
 30
0.0
 10
3.269245
 20
190.789296
 30
0.0
  0
LWPOLYLINE
  5
1d5
100
AcDbEntity
  8
Layer_1
 62
5
100
AcDbPolyline
 90
7
 70
0
 10
52.719245
 20
204.714096
 30
0.0
 10
45.444245
 20
192.139136
 30
0.0
 10
44.669245
 20
190.789056
 30
0.0
 10
73.019245
 20
190.789056
 30
0.0
 10
72.219245
 20
192.139136
 30
0.0
 10
64.969245
 20
204.714096
 30
0.0
 10
52.719245
 20
204.714096
 30
0.0
  0
LWPOLYLINE
  5
1d6
100
AcDbEntity
  8
Layer_1
 62
5
100
AcDbPolyline
 90
7
 70
0
 10
102.794245
 20
204.714096
 30
0.0
 10
95.544245
 20
192.139136
 30
0.0
 10
94.769245
 20
190.789056
 30
0.0
 10
123.094245
 20
190.789056
 30
0.0
 10
122.319245
 20
192.139136
 30
0.0
 10
115.044245
 20
204.714096
 30
0.0
 10
102.794245
 20
204.714096
 30
0.0
  0
LWPOLYLINE
  5
1d7
100
AcDbEntity
  8
Layer_1
 62
5
100
AcDbPolyline
 90
7
 70
0
 10
152.894245
 20
204.714096
 30
0.0
 10
145.619245
 20
192.139136
 30
0.0
 10
144.844245
 20
190.789056
 30
0.0
 10
173.194245
 20
190.789056
 30
0.0
 10
172.419245
 20
192.139136
 30
0.0
 10
165.144245
 20
204.714096
 30
0.0
 10
152.894245
 20
204.714096
 30
0.0
  0
LWPOLYLINE
  5
1d8
100
AcDbEntity
  8
Layer_1
 62
1
100
AcDbPolyline
 90
4
 70
0
 10
108.896258
 20
373.740430
 30
0.0
 10
214.523262
 20
190.789078
 30
0.0
 10
3.269245
 20
190.789078
 30
0.0
 10
108.896258
 20
373.740430
 30
0.0
  0
LWPOLYLINE
  5
1d9
100
AcDbEntity
  8
Layer_1
 62
5
100
AcDbPolyline
 90
7
 70
0
 10
320.568383
 20
349.364352
 30
0.0
 10
314.443366
 20
338.739352
 30
0.0
 10
320.568383
 20
328.139352
 30
0.0
 10
332.818417
 20
328.139352
 30
0.0
 10
338.943434
 20
338.739352
 30
0.0
 10
332.818417
 20
349.364352
 30
0.0
 10
320.568383
 20
349.364352
 30
0.0
  0
LWPOLYLINE
  5
1da
100
AcDbEntity
  8
Layer_1
 62
5
100
AcDbPolyline
 90
7
 70
0
 10
304.243337
 20
334.889352
 30
0.0
 10
293.768308
 20
316.739352
 30
0.0
 10
295.543313
 20
313.664352
 30
0.0
 10
307.793347
 20
313.664352
 30
0.0
 10
313.918364
 20
324.264352
 30
0.0
 10
307.793347
 20
334.889352
 30
0.0
 10
304.243337
 20
334.889352
 30
0.0
  0
LWPOLYLINE
  5
1db
100
AcDbEntity
  8
Layer_1
 62
5
100
AcDbPolyline
 90
7
 70
0
 10
345.618453
 20
334.889352
 30
0.0
 10
339.493436
 20
324.264352
 30
0.0
 10
345.618453
 20
313.664352
 30
0.0
 10
357.868487
 20
313.664352
 30
0.0
 10
359.618492
 20
316.689352
 30
0.0
 10
349.093463
 20
334.889352
 30
0.0
 10
345.618453
 20
334.889352
 30
0.0
  0
LWPOLYLINE
  5
1dc
100
AcDbEntity
  8
Layer_1
 62
5
100
AcDbPolyline
 90
7
 70
0
 10
320.568383
 20
320.414352
 30
0.0
 10
314.443366
 20
309.814352
 30
0.0
 10
320.568383
 20
299.189352
 30
0.0
 10
332.818417
 20
299.189352
 30
0.0
 10
338.943434
 20
309.814352
 30
0.0
 10
332.818417
 20
320.414352
 30
0.0
 10
320.568383
 20
320.414352
 30
0.0
  0
LWPOLYLINE
  5
1dd
100
AcDbEntity
  8
Layer_1
 62
5
100
AcDbPolyline
 90
7
 70
0
 10
295.543313
 20
305.939352
 30
0.0
 10
289.418296
 20
295.339352
 30
0.0
 10
295.543313
 20
284.714352
 30
0.0
 10
307.793347
 20
284.714352
 30
0.0
 10
313.918364
 20
295.339352
 30
0.0
 10
307.793347
 20
305.939352
 30
0.0
 10
295.543313
 20
305.939352
 30
0.0
  0
LWPOLYLINE
  5
1de
100
AcDbEntity
  8
Layer_1
 62
5
100
AcDbPolyline
 90
7
 70
0
 10
345.618453
 20
305.939352
 30
0.0
 10
339.493436
 20
295.339352
 30
0.0
 10
345.618453
 20
284.714352
 30
0.0
 10
357.868487
 20
284.714352
 30
0.0
 10
363.993504
 20
295.339352
 30
0.0
 10
357.868487
 20
305.939352
 30
0.0
 10
345.618453
 20
305.939352
 30
0.0
  0
LWPOLYLINE
  5
1df
100
AcDbEntity
  8
Layer_1
 62
5
100
AcDbPolyline
 90
7
 70
0
 10
279.168267
 20
291.464352
 30
0.0
 10
268.693238
 20
273.339352
 30
0.0
 10
270.493243
 20
270.239352
 30
0.0
 10
282.743277
 20
270.239352
 30
0.0
 10
288.868294
 20
280.864352
 30
0.0
 10
282.743277
 20
291.464352
 30
0.0
 10
279.168267
 20
291.464352
 30
0.0
  0
LWPOLYLINE
  5
1e0
100
AcDbEntity
  8
Layer_1
 62
5
100
AcDbPolyline
 90
7
 70
0
 10
320.568383
 20
291.464352
 30
0.0
 10
314.443366
 20
280.864352
 30
0.0
 10
320.568383
 20
270.239352
 30
0.0
 10
332.818417
 20
270.239352
 30
0.0
 10
338.943434
 20
280.864352
 30
0.0
 10
332.818417
 20
291.464352
 30
0.0
 10
320.568383
 20
291.464352
 30
0.0
  0
LWPOLYLINE
  5
1e1
100
AcDbEntity
  8
Layer_1
 62
5
100
AcDbPolyline
 90
7
 70
0
 10
370.668523
 20
291.464352
 30
0.0
 10
364.543506
 20
280.864352
 30
0.0
 10
370.668523
 20
270.239352
 30
0.0
 10
382.918557
 20
270.239352
 30
0.0
 10
384.668562
 20
273.289352
 30
0.0
 10
374.168533
 20
291.464352
 30
0.0
 10
370.668523
 20
291.464352
 30
0.0
  0
LWPOLYLINE
  5
1e2
100
AcDbEntity
  8
Layer_1
 62
5
100
AcDbPolyline
 90
7
 70
0
 10
295.543313
 20
277.014352
 30
0.0
 10
289.418296
 20
266.389352
 30
0.0
 10
295.543313
 20
255.764352
 30
0.0
 10
307.793347
 20
255.764352
 30
0.0
 10
313.918364
 20
266.389352
 30
0.0
 10
307.793347
 20
277.014352
 30
0.0
 10
295.543313
 20
277.014352
 30
0.0
  0
LWPOLYLINE
  5
1e3
100
AcDbEntity
  8
Layer_1
 62
5
100
AcDbPolyline
 90
7
 70
0
 10
345.618453
 20
277.014352
 30
0.0
 10
339.493436
 20
266.389352
 30
0.0
 10
345.618453
 20
255.764352
 30
0.0
 10
357.868487
 20
255.764352
 30
0.0
 10
363.993504
 20
266.389352
 30
0.0
 10
357.868487
 20
277.014352
 30
0.0
 10
345.618453
 20
277.014352
 30
0.0
  0
LWPOLYLINE
  5
1e4
100
AcDbEntity
  8
Layer_1
 62
5
100
AcDbPolyline
 90
7
 70
0
 10
270.493243
 20
262.539352
 30
0.0
 10
264.368225
 20
251.914352
 30
0.0
 10
270.493243
 20
241.314352
 30
0.0
 10
282.743277
 20
241.314352
 30
0.0
 10
288.868294
 20
251.914352
 30
0.0
 10
282.743277
 20
262.539352
 30
0.0
 10
270.493243
 20
262.539352
 30
0.0
  0
LWPOLYLINE
  5
1e5
100
AcDbEntity
  8
Layer_1
 62
5
100
AcDbPolyline
 90
7
 70
0
 10
320.568383
 20
262.539352
 30
0.0
 10
314.443366
 20
251.914352
 30
0.0
 10
320.568383
 20
241.314352
 30
0.0
 10
332.818417
 20
241.314352
 30
0.0
 10
338.943434
 20
251.914352
 30
0.0
 10
332.818417
 20
262.539352
 30
0.0
 10
320.568383
 20
262.539352
 30
0.0
  0
LWPOLYLINE
  5
1e6
100
AcDbEntity
  8
Layer_1
 62
5
100
AcDbPolyline
 90
7
 70
0
 10
370.668523
 20
262.539352
 30
0.0
 10
364.543506
 20
251.914352
 30
0.0
 10
370.668523
 20
241.314352
 30
0.0
 10
382.918557
 20
241.314352
 30
0.0
 10
389.043575
 20
251.914352
 30
0.0
 10
382.918557
 20
262.539352
 30
0.0
 10
370.668523
 20
262.539352
 30
0.0
  0
LWPOLYLINE
  5
1e7
100
AcDbEntity
  8
Layer_1
 62
5
100
AcDbPolyline
 90
7
 70
0
 10
254.118197
 20
248.064352
 30
0.0
 10
243.643167
 20
229.939376
 30
0.0
 10
245.443172
 20
226.839376
 30
0.0
 10
257.693207
 20
226.839376
 30
0.0
 10
263.818224
 20
237.439352
 30
0.0
 10
257.693207
 20
248.064352
 30
0.0
 10
254.118197
 20
248.064352
 30
0.0
  0
LWPOLYLINE
  5
1e8
100
AcDbEntity
  8
Layer_1
 62
5
100
AcDbPolyline
 90
7
 70
0
 10
295.543313
 20
248.064352
 30
0.0
 10
289.418296
 20
237.439352
 30
0.0
 10
295.543313
 20
226.839376
 30
0.0
 10
307.793347
 20
226.839376
 30
0.0
 10
313.918364
 20
237.439352
 30
0.0
 10
307.793347
 20
248.064352
 30
0.0
 10
295.543313
 20
248.064352
 30
0.0
  0
LWPOLYLINE
  5
1e9
100
AcDbEntity
  8
Layer_1
 62
5
100
AcDbPolyline
 90
7
 70
0
 10
345.618453
 20
248.064352
 30
0.0
 10
339.493436
 20
237.439352
 30
0.0
 10
345.618453
 20
226.839376
 30
0.0
 10
357.868487
 20
226.839376
 30
0.0
 10
363.993504
 20
237.439352
 30
0.0
 10
357.868487
 20
248.064352
 30
0.0
 10
345.618453
 20
248.064352
 30
0.0
  0
LWPOLYLINE
  5
1ea
100
AcDbEntity
  8
Layer_1
 62
5
100
AcDbPolyline
 90
7
 70
0
 10
395.718593
 20
248.064352
 30
0.0
 10
389.593576
 20
237.439352
 30
0.0
 10
395.718593
 20
226.839376
 30
0.0
 10
407.968628
 20
226.839376
 30
0.0
 10
409.718632
 20
229.889296
 30
0.0
 10
399.218603
 20
248.064352
 30
0.0
 10
395.718593
 20
248.064352
 30
0.0
  0
LWPOLYLINE
  5
1eb
100
AcDbEntity
  8
Layer_1
 62
5
100
AcDbPolyline
 90
7
 70
0
 10
270.493243
 20
233.589352
 30
0.0
 10
264.368225
 20
222.964336
 30
0.0
 10
270.493243
 20
212.364336
 30
0.0
 10
282.743277
 20
212.364336
 30
0.0
 10
288.868294
 20
222.964336
 30
0.0
 10
282.743277
 20
233.589352
 30
0.0
 10
270.493243
 20
233.589352
 30
0.0
  0
LWPOLYLINE
  5
1ec
100
AcDbEntity
  8
Layer_1
 62
5
100
AcDbPolyline
 90
7
 70
0
 10
320.568383
 20
233.589352
 30
0.0
 10
314.443366
 20
222.964336
 30
0.0
 10
320.568383
 20
212.364336
 30
0.0
 10
332.818417
 20
212.364336
 30
0.0
 10
338.943434
 20
222.964336
 30
0.0
 10
332.818417
 20
233.589352
 30
0.0
 10
320.568383
 20
233.589352
 30
0.0
  0
LWPOLYLINE
  5
1ed
100
AcDbEntity
  8
Layer_1
 62
5
100
AcDbPolyline
 90
7
 70
0
 10
370.668523
 20
233.589352
 30
0.0
 10
364.543506
 20
222.964336
 30
0.0
 10
370.668523
 20
212.364336
 30
0.0
 10
382.918557
 20
212.364336
 30
0.0
 10
389.043575
 20
222.964336
 30
0.0
 10
382.918557
 20
233.589352
 30
0.0
 10
370.668523
 20
233.589352
 30
0.0
  0
LWPOLYLINE
  5
1ee
100
AcDbEntity
  8
Layer_1
 62
5
100
AcDbPolyline
 90
7
 70
0
 10
245.443172
 20
219.114336
 30
0.0
 10
239.318155
 20
208.514336
 30
0.0
 10
245.443172
 20
197.889296
 30
0.0
 10
257.693207
 20
197.889296
 30
0.0
 10
263.818224
 20
208.514336
 30
0.0
 10
257.693207
 20
219.114336
 30
0.0
 10
245.443172
 20
219.114336
 30
0.0
  0
LWPOLYLINE
  5
1ef
100
AcDbEntity
  8
Layer_1
 62
5
100
AcDbPolyline
 90
7
 70
0
 10
295.543313
 20
219.114336
 30
0.0
 10
289.418296
 20
208.514336
 30
0.0
 10
295.543313
 20
197.889296
 30
0.0
 10
307.793347
 20
197.889296
 30
0.0
 10
313.918364
 20
208.514336
 30
0.0
 10
307.793347
 20
219.114336
 30
0.0
 10
295.543313
 20
219.114336
 30
0.0
  0
LWPOLYLINE
  5
1f0
100
AcDbEntity
  8
Layer_1
 62
5
100
AcDbPolyline
 90
7
 70
0
 10
345.618453
 20
219.114336
 30
0.0
 10
339.493436
 20
208.514336
 30
0.0
 10
345.618453
 20
197.889296
 30
0.0
 10
357.868487
 20
197.889296
 30
0.0
 10
363.993504
 20
208.514336
 30
0.0
 10
357.868487
 20
219.114336
 30
0.0
 10
345.618453
 20
219.114336
 30
0.0
  0
SPLINE
  5
1f1
100
AcDbEntity
  8
Layer_1
 62
5
100
AcDbSpline
 70
8
 71
3
 72
8
 73
4
 74
0
 40
0
 40
0
 40
0
 40
0
 40
1
 40
1
 40
1
 40
1
 10
221.043104
 20
190.789296
 30
0.0
 10
221.009771
 20
190.755696
 30
0.0
 10
221.026437
 20
190.772496
 30
0.0
 10
221.043104
 20
190.789296
 30
0.0
  0
LWPOLYLINE
  5
1f2
100
AcDbEntity
  8
Layer_1
 62
5
100
AcDbPolyline
 90
7
 70
0
 10
395.718593
 20
219.114336
 30
0.0
 10
389.593576
 20
208.514336
 30
0.0
 10
395.718593
 20
197.889296
 30
0.0
 10
407.968628
 20
197.889296
 30
0.0
 10
414.093645
 20
208.514336
 30
0.0
 10
407.968628
 20
219.114336
 30
0.0
 10
395.718593
 20
219.114336
 30
0.0
  0
LWPOLYLINE
  5
1f3
100
AcDbEntity
  8
Layer_1
 62
5
100
AcDbPolyline
 90
2
 70
0
 10
221.043104
 20
190.789296
 30
0.0
 10
221.043104
 20
190.789296
 30
0.0
  0
LWPOLYLINE
  5
1f4
100
AcDbEntity
  8
Layer_1
 62
5
100
AcDbPolyline
 90
7
 70
0
 10
270.493243
 20
204.714096
 30
0.0
 10
263.218222
 20
192.139136
 30
0.0
 10
262.443220
 20
190.789056
 30
0.0
 10
290.793299
 20
190.789056
 30
0.0
 10
289.993297
 20
192.139136
 30
0.0
 10
282.743277
 20
204.714096
 30
0.0
 10
270.493243
 20
204.714096
 30
0.0
  0
LWPOLYLINE
  5
1f5
100
AcDbEntity
  8
Layer_1
 62
5
100
AcDbPolyline
 90
7
 70
0
 10
320.568383
 20
204.714096
 30
0.0
 10
313.318363
 20
192.139136
 30
0.0
 10
312.543360
 20
190.789056
 30
0.0
 10
340.868440
 20
190.789056
 30
0.0
 10
340.093437
 20
192.139136
 30
0.0
 10
332.818417
 20
204.714096
 30
0.0
 10
320.568383
 20
204.714096
 30
0.0
  0
LWPOLYLINE
  5
1f6
100
AcDbEntity
  8
Layer_1
 62
5
100
AcDbPolyline
 90
7
 70
0
 10
370.668523
 20
204.714096
 30
0.0
 10
363.393503
 20
192.139136
 30
0.0
 10
362.618501
 20
190.789056
 30
0.0
 10
390.968580
 20
190.789056
 30
0.0
 10
390.193578
 20
192.139136
 30
0.0
 10
382.918557
 20
204.714096
 30
0.0
 10
370.668523
 20
204.714096
 30
0.0
  0
LWPOLYLINE
  5
1f7
100
AcDbEntity
  8
Layer_1
 62
1
100
AcDbPolyline
 90
4
 70
0
 10
326.670413
 20
373.740430
 30
0.0
 10
432.297713
 20
190.789078
 30
0.0
 10
221.043104
 20
190.789078
 30
0.0
 10
326.670413
 20
373.740430
 30
0.0
  0
LWPOLYLINE
  5
1f8
100
AcDbEntity
  8
Layer_1
 62
5
100
AcDbPolyline
 90
7
 70
0
 10
538.355973
 20
349.363912
 30
0.0
 10
532.230808
 20
338.738912
 30
0.0
 10
538.355973
 20
328.138912
 30
0.0
 10
550.606301
 20
328.138912
 30
0.0
 10
556.731465
 20
338.738912
 30
0.0
 10
550.606301
 20
349.363912
 30
0.0
 10
538.355973
 20
349.363912
 30
0.0
  0
LWPOLYLINE
  5
1f9
100
AcDbEntity
  8
Layer_1
 62
5
100
AcDbPolyline
 90
7
 70
0
 10
522.030535
 20
334.888912
 30
0.0
 10
511.555254
 20
316.738912
 30
0.0
 10
513.330302
 20
313.663912
 30
0.0
 10
525.580630
 20
313.663912
 30
0.0
 10
531.705794
 20
324.263912
 30
0.0
 10
525.580630
 20
334.888912
 30
0.0
 10
522.030535
 20
334.888912
 30
0.0
  0
LWPOLYLINE
  5
1fa
100
AcDbEntity
  8
Layer_1
 62
5
100
AcDbPolyline
 90
7
 70
0
 10
563.406644
 20
334.888912
 30
0.0
 10
557.281480
 20
324.263912
 30
0.0
 10
563.406644
 20
313.663912
 30
0.0
 10
575.656972
 20
313.663912
 30
0.0
 10
577.407019
 20
316.688912
 30
0.0
 10
566.881737
 20
334.888912
 30
0.0
 10
563.406644
 20
334.888912
 30
0.0
  0
LWPOLYLINE
  5
1fb
100
AcDbEntity
  8
Layer_1
 62
5
100
AcDbPolyline
 90
7
 70
0
 10
538.355973
 20
320.413912
 30
0.0
 10
532.230808
 20
309.813912
 30
0.0
 10
538.355973
 20
299.188912
 30
0.0
 10
550.606301
 20
299.188912
 30
0.0
 10
556.731465
 20
309.813912
 30
0.0
 10
550.606301
 20
320.413912
 30
0.0
 10
538.355973
 20
320.413912
 30
0.0
  0
LWPOLYLINE
  5
1fc
100
AcDbEntity
  8
Layer_1
 62
5
100
AcDbPolyline
 90
7
 70
0
 10
513.330302
 20
305.938912
 30
0.0
 10
507.205138
 20
295.338912
 30
0.0
 10
513.330302
 20
284.713912
 30
0.0
 10
525.580630
 20
284.713912
 30
0.0
 10
531.705794
 20
295.338912
 30
0.0
 10
525.580630
 20
305.938912
 30
0.0
 10
513.330302
 20
305.938912
 30
0.0
  0
LWPOLYLINE
  5
1fd
100
AcDbEntity
  8
Layer_1
 62
5
100
AcDbPolyline
 90
7
 70
0
 10
563.406644
 20
305.938912
 30
0.0
 10
557.281480
 20
295.338912
 30
0.0
 10
563.406644
 20
284.713912
 30
0.0
 10
575.656972
 20
284.713912
 30
0.0
 10
581.782136
 20
295.338912
 30
0.0
 10
575.656972
 20
305.938912
 30
0.0
 10
563.406644
 20
305.938912
 30
0.0
  0
LWPOLYLINE
  5
1fe
100
AcDbEntity
  8
Layer_1
 62
5
100
AcDbPolyline
 90
7
 70
0
 10
496.954863
 20
291.463912
 30
0.0
 10
486.479582
 20
273.338912
 30
0.0
 10
488.279631
 20
270.238912
 30
0.0
 10
500.529959
 20
270.238912
 30
0.0
 10
506.655123
 20
280.863912
 30
0.0
 10
500.529959
 20
291.463912
 30
0.0
 10
496.954863
 20
291.463912
 30
0.0
  0
LWPOLYLINE
  5
1ff
100
AcDbEntity
  8
Layer_1
 62
5
100
AcDbPolyline
 90
7
 70
0
 10
538.355973
 20
291.463912
 30
0.0
 10
532.230808
 20
280.863912
 30
0.0
 10
538.355973
 20
270.238912
 30
0.0
 10
550.606301
 20
270.238912
 30
0.0
 10
556.731465
 20
280.863912
 30
0.0
 10
550.606301
 20
291.463912
 30
0.0
 10
538.355973
 20
291.463912
 30
0.0
  0
LWPOLYLINE
  5
200
100
AcDbEntity
  8
Layer_1
 62
5
100
AcDbPolyline
 90
7
 70
0
 10
588.457315
 20
291.463912
 30
0.0
 10
582.332151
 20
280.863912
 30
0.0
 10
588.457315
 20
270.238912
 30
0.0
 10
600.707644
 20
270.238912
 30
0.0
 10
602.457690
 20
273.288912
 30
0.0
 10
591.957409
 20
291.463912
 30
0.0
 10
588.457315
 20
291.463912
 30
0.0
  0
LWPOLYLINE
  5
201
100
AcDbEntity
  8
Layer_1
 62
5
100
AcDbPolyline
 90
7
 70
0
 10
513.330302
 20
277.013912
 30
0.0
 10
507.205138
 20
266.388912
 30
0.0
 10
513.330302
 20
255.763912
 30
0.0
 10
525.580630
 20
255.763912
 30
0.0
 10
531.705794
 20
266.388912
 30
0.0
 10
525.580630
 20
277.013912
 30
0.0
 10
513.330302
 20
277.013912
 30
0.0
  0
LWPOLYLINE
  5
202
100
AcDbEntity
  8
Layer_1
 62
5
100
AcDbPolyline
 90
7
 70
0
 10
563.406644
 20
277.013912
 30
0.0
 10
557.281480
 20
266.388912
 30
0.0
 10
563.406644
 20
255.763912
 30
0.0
 10
575.656972
 20
255.763912
 30
0.0
 10
581.782136
 20
266.388912
 30
0.0
 10
575.656972
 20
277.013912
 30
0.0
 10
563.406644
 20
277.013912
 30
0.0
  0
LWPOLYLINE
  5
203
100
AcDbEntity
  8
Layer_1
 62
5
100
AcDbPolyline
 90
7
 70
0
 10
488.279631
 20
262.538912
 30
0.0
 10
482.154466
 20
251.913912
 30
0.0
 10
488.279631
 20
241.313912
 30
0.0
 10
500.529959
 20
241.313912
 30
0.0
 10
506.655123
 20
251.913912
 30
0.0
 10
500.529959
 20
262.538912
 30
0.0
 10
488.279631
 20
262.538912
 30
0.0
  0
LWPOLYLINE
  5
204
100
AcDbEntity
  8
Layer_1
 62
5
100
AcDbPolyline
 90
7
 70
0
 10
538.355973
 20
262.538912
 30
0.0
 10
532.230808
 20
251.913912
 30
0.0
 10
538.355973
 20
241.313912
 30
0.0
 10
550.606301
 20
241.313912
 30
0.0
 10
556.731465
 20
251.913912
 30
0.0
 10
550.606301
 20
262.538912
 30
0.0
 10
538.355973
 20
262.538912
 30
0.0
  0
LWPOLYLINE
  5
205
100
AcDbEntity
  8
Layer_1
 62
5
100
AcDbPolyline
 90
7
 70
0
 10
588.457315
 20
262.538912
 30
0.0
 10
582.332151
 20
251.913912
 30
0.0
 10
588.457315
 20
241.313912
 30
0.0
 10
600.707644
 20
241.313912
 30
0.0
 10
606.832808
 20
251.913912
 30
0.0
 10
600.707644
 20
262.538912
 30
0.0
 10
588.457315
 20
262.538912
 30
0.0
  0
LWPOLYLINE
  5
206
100
AcDbEntity
  8
Layer_1
 62
5
100
AcDbPolyline
 90
7
 70
0
 10
471.904192
 20
248.063912
 30
0.0
 10
461.428911
 20
229.938936
 30
0.0
 10
463.228959
 20
226.838936
 30
0.0
 10
475.479288
 20
226.838936
 30
0.0
 10
481.604452
 20
237.438912
 30
0.0
 10
475.479288
 20
248.063912
 30
0.0
 10
471.904192
 20
248.063912
 30
0.0
  0
LWPOLYLINE
  5
207
100
AcDbEntity
  8
Layer_1
 62
5
100
AcDbPolyline
 90
7
 70
0
 10
513.330302
 20
248.063912
 30
0.0
 10
507.205138
 20
237.438912
 30
0.0
 10
513.330302
 20
226.838936
 30
0.0
 10
525.580630
 20
226.838936
 30
0.0
 10
531.705794
 20
237.438912
 30
0.0
 10
525.580630
 20
248.063912
 30
0.0
 10
513.330302
 20
248.063912
 30
0.0
  0
LWPOLYLINE
  5
208
100
AcDbEntity
  8
Layer_1
 62
5
100
AcDbPolyline
 90
7
 70
0
 10
563.406644
 20
248.063912
 30
0.0
 10
557.281480
 20
237.438912
 30
0.0
 10
563.406644
 20
226.838936
 30
0.0
 10
575.656972
 20
226.838936
 30
0.0
 10
581.782136
 20
237.438912
 30
0.0
 10
575.656972
 20
248.063912
 30
0.0
 10
563.406644
 20
248.063912
 30
0.0
  0
LWPOLYLINE
  5
209
100
AcDbEntity
  8
Layer_1
 62
5
100
AcDbPolyline
 90
7
 70
0
 10
613.507987
 20
248.063912
 30
0.0
 10
607.382822
 20
237.438912
 30
0.0
 10
613.507987
 20
226.838936
 30
0.0
 10
625.758315
 20
226.838936
 30
0.0
 10
627.508362
 20
229.888856
 30
0.0
 10
617.008080
 20
248.063912
 30
0.0
 10
613.507987
 20
248.063912
 30
0.0
  0
LWPOLYLINE
  5
20a
100
AcDbEntity
  8
Layer_1
 62
5
100
AcDbPolyline
 90
7
 70
0
 10
488.279631
 20
233.588912
 30
0.0
 10
482.154466
 20
222.963896
 30
0.0
 10
488.279631
 20
212.363896
 30
0.0
 10
500.529959
 20
212.363896
 30
0.0
 10
506.655123
 20
222.963896
 30
0.0
 10
500.529959
 20
233.588912
 30
0.0
 10
488.279631
 20
233.588912
 30
0.0
  0
LWPOLYLINE
  5
20b
100
AcDbEntity
  8
Layer_1
 62
5
100
AcDbPolyline
 90
7
 70
0
 10
538.355973
 20
233.588912
 30
0.0
 10
532.230808
 20
222.963896
 30
0.0
 10
538.355973
 20
212.363896
 30
0.0
 10
550.606301
 20
212.363896
 30
0.0
 10
556.731465
 20
222.963896
 30
0.0
 10
550.606301
 20
233.588912
 30
0.0
 10
538.355973
 20
233.588912
 30
0.0
  0
LWPOLYLINE
  5
20c
100
AcDbEntity
  8
Layer_1
 62
5
100
AcDbPolyline
 90
7
 70
0
 10
588.457315
 20
233.588912
 30
0.0
 10
582.332151
 20
222.963896
 30
0.0
 10
588.457315
 20
212.363896
 30
0.0
 10
600.707644
 20
212.363896
 30
0.0
 10
606.832808
 20
222.963896
 30
0.0
 10
600.707644
 20
233.588912
 30
0.0
 10
588.457315
 20
233.588912
 30
0.0
  0
LWPOLYLINE
  5
20d
100
AcDbEntity
  8
Layer_1
 62
5
100
AcDbPolyline
 90
7
 70
0
 10
463.228959
 20
219.113896
 30
0.0
 10
457.103795
 20
208.513896
 30
0.0
 10
463.228959
 20
197.888856
 30
0.0
 10
475.479288
 20
197.888856
 30
0.0
 10
481.604452
 20
208.513896
 30
0.0
 10
475.479288
 20
219.113896
 30
0.0
 10
463.228959
 20
219.113896
 30
0.0
  0
LWPOLYLINE
  5
20e
100
AcDbEntity
  8
Layer_1
 62
5
100
AcDbPolyline
 90
7
 70
0
 10
513.330302
 20
219.113896
 30
0.0
 10
507.205138
 20
208.513896
 30
0.0
 10
513.330302
 20
197.888856
 30
0.0
 10
525.580630
 20
197.888856
 30
0.0
 10
531.705794
 20
208.513896
 30
0.0
 10
525.580630
 20
219.113896
 30
0.0
 10
513.330302
 20
219.113896
 30
0.0
  0
LWPOLYLINE
  5
20f
100
AcDbEntity
  8
Layer_1
 62
5
100
AcDbPolyline
 90
7
 70
0
 10
563.406644
 20
219.113896
 30
0.0
 10
557.281480
 20
208.513896
 30
0.0
 10
563.406644
 20
197.888856
 30
0.0
 10
575.656972
 20
197.888856
 30
0.0
 10
581.782136
 20
208.513896
 30
0.0
 10
575.656972
 20
219.113896
 30
0.0
 10
563.406644
 20
219.113896
 30
0.0
  0
SPLINE
  5
210
100
AcDbEntity
  8
Layer_1
 62
5
100
AcDbSpline
 70
8
 71
3
 72
8
 73
4
 74
0
 40
0
 40
0
 40
0
 40
0
 40
1
 40
1
 40
1
 40
1
 10
438.828305
 20
190.788856
 30
0.0
 10
438.794971
 20
190.755256
 30
0.0
 10
438.811638
 20
190.772056
 30
0.0
 10
438.828305
 20
190.788856
 30
0.0
  0
LWPOLYLINE
  5
211
100
AcDbEntity
  8
Layer_1
 62
5
100
AcDbPolyline
 90
7
 70
0
 10
613.507987
 20
219.113896
 30
0.0
 10
607.382822
 20
208.513896
 30
0.0
 10
613.507987
 20
197.888856
 30
0.0
 10
625.758315
 20
197.888856
 30
0.0
 10
631.883479
 20
208.513896
 30
0.0
 10
625.758315
 20
219.113896
 30
0.0
 10
613.507987
 20
219.113896
 30
0.0
  0
LWPOLYLINE
  5
212
100
AcDbEntity
  8
Layer_1
 62
5
100
AcDbPolyline
 90
2
 70
0
 10
438.828305
 20
190.788856
 30
0.0
 10
438.828305
 20
190.788856
 30
0.0
  0
LWPOLYLINE
  5
213
100
AcDbEntity
  8
Layer_1
 62
5
100
AcDbPolyline
 90
7
 70
0
 10
488.279631
 20
204.713656
 30
0.0
 10
481.004436
 20
192.138696
 30
0.0
 10
480.229415
 20
190.788616
 30
0.0
 10
508.580175
 20
190.788616
 30
0.0
 10
507.780153
 20
192.138696
 30
0.0
 10
500.529959
 20
204.713656
 30
0.0
 10
488.279631
 20
204.713656
 30
0.0
  0
LWPOLYLINE
  5
214
100
AcDbEntity
  8
Layer_1
 62
5
100
AcDbPolyline
 90
7
 70
0
 10
538.355973
 20
204.713656
 30
0.0
 10
531.105778
 20
192.138696
 30
0.0
 10
530.330758
 20
190.788616
 30
0.0
 10
558.656517
 20
190.788616
 30
0.0
 10
557.881496
 20
192.138696
 30
0.0
 10
550.606301
 20
204.713656
 30
0.0
 10
538.355973
 20
204.713656
 30
0.0
  0
LWPOLYLINE
  5
215
100
AcDbEntity
  8
Layer_1
 62
5
100
AcDbPolyline
 90
7
 70
0
 10
588.457315
 20
204.713656
 30
0.0
 10
581.182120
 20
192.138696
 30
0.0
 10
580.407100
 20
190.788616
 30
0.0
 10
608.757859
 20
190.788616
 30
0.0
 10
607.982839
 20
192.138696
 30
0.0
 10
600.707644
 20
204.713656
 30
0.0
 10
588.457315
 20
204.713656
 30
0.0
  0
LWPOLYLINE
  5
216
100
AcDbEntity
  8
Layer_1
 62
1
100
AcDbPolyline
 90
4
 70
0
 10
544.458149
 20
373.739990
 30
0.0
 10
650.087984
 20
190.788638
 30
0.0
 10
438.828305
 20
190.788638
 30
0.0
 10
544.458149
 20
373.739990
 30
0.0
  0
LWPOLYLINE
  5
217
100
AcDbEntity
  8
Layer_1
 62
5
100
AcDbPolyline
 90
7
 70
0
 10
211.874472
 20
216.361889
 30
0.0
 10
205.749472
 20
226.986335
 30
0.0
 10
211.874472
 20
237.585782
 30
0.0
 10
224.124472
 20
237.585782
 30
0.0
 10
230.249472
 20
226.986335
 30
0.0
 10
224.124472
 20
216.361889
 30
0.0
 10
211.874472
 20
216.361889
 30
0.0
  0
LWPOLYLINE
  5
218
100
AcDbEntity
  8
Layer_1
 62
5
100
AcDbPolyline
 90
7
 70
0
 10
195.549472
 20
230.836134
 30
0.0
 10
185.074472
 20
248.985187
 30
0.0
 10
186.849472
 20
252.060027
 30
0.0
 10
199.099472
 20
252.060027
 30
0.0
 10
205.224472
 20
241.460580
 30
0.0
 10
199.099472
 20
230.836134
 30
0.0
 10
195.549472
 20
230.836134
 30
0.0
  0
LWPOLYLINE
  5
219
100
AcDbEntity
  8
Layer_1
 62
5
100
AcDbPolyline
 90
7
 70
0
 10
236.924472
 20
230.836134
 30
0.0
 10
230.799472
 20
241.460580
 30
0.0
 10
236.924472
 20
252.060027
 30
0.0
 10
249.174472
 20
252.060027
 30
0.0
 10
250.924472
 20
249.035185
 30
0.0
 10
240.399472
 20
230.836134
 30
0.0
 10
236.924472
 20
230.836134
 30
0.0
  0
LWPOLYLINE
  5
21a
100
AcDbEntity
  8
Layer_1
 62
5
100
AcDbPolyline
 90
7
 70
0
 10
211.874472
 20
245.310379
 30
0.0
 10
205.749472
 20
255.909826
 30
0.0
 10
211.874472
 20
266.534272
 30
0.0
 10
224.124472
 20
266.534272
 30
0.0
 10
230.249472
 20
255.909826
 30
0.0
 10
224.124472
 20
245.310379
 30
0.0
 10
211.874472
 20
245.310379
 30
0.0
  0
LWPOLYLINE
  5
21b
100
AcDbEntity
  8
Layer_1
 62
5
100
AcDbPolyline
 90
7
 70
0
 10
186.849472
 20
259.784624
 30
0.0
 10
180.724472
 20
270.384071
 30
0.0
 10
186.849472
 20
281.008517
 30
0.0
 10
199.099472
 20
281.008517
 30
0.0
 10
205.224472
 20
270.384071
 30
0.0
 10
199.099472
 20
259.784624
 30
0.0
 10
186.849472
 20
259.784624
 30
0.0
  0
LWPOLYLINE
  5
21c
100
AcDbEntity
  8
Layer_1
 62
5
100
AcDbPolyline
 90
7
 70
0
 10
236.924472
 20
259.784624
 30
0.0
 10
230.799472
 20
270.384071
 30
0.0
 10
236.924472
 20
281.008517
 30
0.0
 10
249.174472
 20
281.008517
 30
0.0
 10
255.299472
 20
270.384071
 30
0.0
 10
249.174472
 20
259.784624
 30
0.0
 10
236.924472
 20
259.784624
 30
0.0
  0
LWPOLYLINE
  5
21d
100
AcDbEntity
  8
Layer_1
 62
5
100
AcDbPolyline
 90
7
 70
0
 10
170.474472
 20
274.258869
 30
0.0
 10
159.999472
 20
292.382923
 30
0.0
 10
161.799472
 20
295.482762
 30
0.0
 10
174.049472
 20
295.482762
 30
0.0
 10
180.174472
 20
284.858316
 30
0.0
 10
174.049472
 20
274.258869
 30
0.0
 10
170.474472
 20
274.258869
 30
0.0
  0
LWPOLYLINE
  5
21e
100
AcDbEntity
  8
Layer_1
 62
5
100
AcDbPolyline
 90
7
 70
0
 10
211.874472
 20
274.258869
 30
0.0
 10
205.749472
 20
284.858316
 30
0.0
 10
211.874472
 20
295.482762
 30
0.0
 10
224.124472
 20
295.482762
 30
0.0
 10
230.249472
 20
284.858316
 30
0.0
 10
224.124472
 20
274.258869
 30
0.0
 10
211.874472
 20
274.258869
 30
0.0
  0
LWPOLYLINE
  5
21f
100
AcDbEntity
  8
Layer_1
 62
5
100
AcDbPolyline
 90
7
 70
0
 10
261.974472
 20
274.258869
 30
0.0
 10
255.849472
 20
284.858316
 30
0.0
 10
261.974472
 20
295.482762
 30
0.0
 10
274.224472
 20
295.482762
 30
0.0
 10
275.974472
 20
292.432921
 30
0.0
 10
265.474472
 20
274.258869
 30
0.0
 10
261.974472
 20
274.258869
 30
0.0
  0
LWPOLYLINE
  5
220
100
AcDbEntity
  8
Layer_1
 62
5
100
AcDbPolyline
 90
7
 70
0
 10
186.849472
 20
288.708115
 30
0.0
 10
180.724472
 20
299.332561
 30
0.0
 10
186.849472
 20
309.957007
 30
0.0
 10
199.099472
 20
309.957007
 30
0.0
 10
205.224472
 20
299.332561
 30
0.0
 10
199.099472
 20
288.708115
 30
0.0
 10
186.849472
 20
288.708115
 30
0.0
  0
LWPOLYLINE
  5
221
100
AcDbEntity
  8
Layer_1
 62
5
100
AcDbPolyline
 90
7
 70
0
 10
236.924472
 20
288.708115
 30
0.0
 10
230.799472
 20
299.332561
 30
0.0
 10
236.924472
 20
309.957007
 30
0.0
 10
249.174472
 20
309.957007
 30
0.0
 10
255.299472
 20
299.332561
 30
0.0
 10
249.174472
 20
288.708115
 30
0.0
 10
236.924472
 20
288.708115
 30
0.0
  0
LWPOLYLINE
  5
222
100
AcDbEntity
  8
Layer_1
 62
5
100
AcDbPolyline
 90
7
 70
0
 10
161.799472
 20
303.182360
 30
0.0
 10
155.674472
 20
313.806806
 30
0.0
 10
161.799472
 20
324.406253
 30
0.0
 10
174.049472
 20
324.406253
 30
0.0
 10
180.174472
 20
313.806806
 30
0.0
 10
174.049472
 20
303.182360
 30
0.0
 10
161.799472
 20
303.182360
 30
0.0
  0
LWPOLYLINE
  5
223
100
AcDbEntity
  8
Layer_1
 62
5
100
AcDbPolyline
 90
7
 70
0
 10
211.874472
 20
303.182360
 30
0.0
 10
205.749472
 20
313.806806
 30
0.0
 10
211.874472
 20
324.406253
 30
0.0
 10
224.124472
 20
324.406253
 30
0.0
 10
230.249472
 20
313.806806
 30
0.0
 10
224.124472
 20
303.182360
 30
0.0
 10
211.874472
 20
303.182360
 30
0.0
  0
LWPOLYLINE
  5
224
100
AcDbEntity
  8
Layer_1
 62
5
100
AcDbPolyline
 90
7
 70
0
 10
261.974472
 20
303.182360
 30
0.0
 10
255.849472
 20
313.806806
 30
0.0
 10
261.974472
 20
324.406253
 30
0.0
 10
274.224472
 20
324.406253
 30
0.0
 10
280.349472
 20
313.806806
 30
0.0
 10
274.224472
 20
303.182360
 30
0.0
 10
261.974472
 20
303.182360
 30
0.0
  0
LWPOLYLINE
  5
225
100
AcDbEntity
  8
Layer_1
 62
5
100
AcDbPolyline
 90
7
 70
0
 10
145.424472
 20
317.656605
 30
0.0
 10
134.949472
 20
335.780636
 30
0.0
 10
136.749472
 20
338.880474
 30
0.0
 10
148.999472
 20
338.880474
 30
0.0
 10
155.124472
 20
328.281051
 30
0.0
 10
148.999472
 20
317.656605
 30
0.0
 10
145.424472
 20
317.656605
 30
0.0
  0
LWPOLYLINE
  5
226
100
AcDbEntity
  8
Layer_1
 62
5
100
AcDbPolyline
 90
7
 70
0
 10
186.849472
 20
317.656605
 30
0.0
 10
180.724472
 20
328.281051
 30
0.0
 10
186.849472
 20
338.880474
 30
0.0
 10
199.099472
 20
338.880474
 30
0.0
 10
205.224472
 20
328.281051
 30
0.0
 10
199.099472
 20
317.656605
 30
0.0
 10
186.849472
 20
317.656605
 30
0.0
  0
LWPOLYLINE
  5
227
100
AcDbEntity
  8
Layer_1
 62
5
100
AcDbPolyline
 90
7
 70
0
 10
236.924472
 20
317.656605
 30
0.0
 10
230.799472
 20
328.281051
 30
0.0
 10
236.924472
 20
338.880474
 30
0.0
 10
249.174472
 20
338.880474
 30
0.0
 10
255.299472
 20
328.281051
 30
0.0
 10
249.174472
 20
317.656605
 30
0.0
 10
236.924472
 20
317.656605
 30
0.0
  0
LWPOLYLINE
  5
228
100
AcDbEntity
  8
Layer_1
 62
5
100
AcDbPolyline
 90
7
 70
0
 10
287.024472
 20
317.656605
 30
0.0
 10
280.899472
 20
328.281051
 30
0.0
 10
287.024472
 20
338.880474
 30
0.0
 10
299.274472
 20
338.880474
 30
0.0
 10
301.024472
 20
335.830713
 30
0.0
 10
290.524472
 20
317.656605
 30
0.0
 10
287.024472
 20
317.656605
 30
0.0
  0
LWPOLYLINE
  5
229
100
AcDbEntity
  8
Layer_1
 62
5
100
AcDbPolyline
 90
7
 70
0
 10
161.799472
 20
332.130850
 30
0.0
 10
155.674472
 20
342.755312
 30
0.0
 10
161.799472
 20
353.354759
 30
0.0
 10
174.049472
 20
353.354759
 30
0.0
 10
180.174472
 20
342.755312
 30
0.0
 10
174.049472
 20
332.130850
 30
0.0
 10
161.799472
 20
332.130850
 30
0.0
  0
LWPOLYLINE
  5
22a
100
AcDbEntity
  8
Layer_1
 62
5
100
AcDbPolyline
 90
7
 70
0
 10
211.874472
 20
332.130850
 30
0.0
 10
205.749472
 20
342.755312
 30
0.0
 10
211.874472
 20
353.354759
 30
0.0
 10
224.124472
 20
353.354759
 30
0.0
 10
230.249472
 20
342.755312
 30
0.0
 10
224.124472
 20
332.130850
 30
0.0
 10
211.874472
 20
332.130850
 30
0.0
  0
LWPOLYLINE
  5
22b
100
AcDbEntity
  8
Layer_1
 62
5
100
AcDbPolyline
 90
7
 70
0
 10
261.974472
 20
332.130850
 30
0.0
 10
255.849472
 20
342.755312
 30
0.0
 10
261.974472
 20
353.354759
 30
0.0
 10
274.224472
 20
353.354759
 30
0.0
 10
280.349472
 20
342.755312
 30
0.0
 10
274.224472
 20
332.130850
 30
0.0
 10
261.974472
 20
332.130850
 30
0.0
  0
LWPOLYLINE
  5
22c
100
AcDbEntity
  8
Layer_1
 62
5
100
AcDbPolyline
 90
7
 70
0
 10
136.749472
 20
346.605111
 30
0.0
 10
130.624472
 20
357.204558
 30
0.0
 10
136.749472
 20
367.829044
 30
0.0
 10
148.999472
 20
367.829044
 30
0.0
 10
155.124472
 20
357.204558
 30
0.0
 10
148.999472
 20
346.605111
 30
0.0
 10
136.749472
 20
346.605111
 30
0.0
  0
LWPOLYLINE
  5
22d
100
AcDbEntity
  8
Layer_1
 62
5
100
AcDbPolyline
 90
7
 70
0
 10
186.849472
 20
346.605111
 30
0.0
 10
180.724472
 20
357.204558
 30
0.0
 10
186.849472
 20
367.829044
 30
0.0
 10
199.099472
 20
367.829044
 30
0.0
 10
205.224472
 20
357.204558
 30
0.0
 10
199.099472
 20
346.605111
 30
0.0
 10
186.849472
 20
346.605111
 30
0.0
  0
LWPOLYLINE
  5
22e
100
AcDbEntity
  8
Layer_1
 62
5
100
AcDbPolyline
 90
7
 70
0
 10
236.924472
 20
346.605111
 30
0.0
 10
230.799472
 20
357.204558
 30
0.0
 10
236.924472
 20
367.829044
 30
0.0
 10
249.174472
 20
367.829044
 30
0.0
 10
255.299472
 20
357.204558
 30
0.0
 10
249.174472
 20
346.605111
 30
0.0
 10
236.924472
 20
346.605111
 30
0.0
  0
SPLINE
  5
22f
100
AcDbEntity
  8
Layer_1
 62
5
100
AcDbSpline
 70
8
 71
3
 72
8
 73
4
 74
0
 40
0
 40
0
 40
0
 40
0
 40
1
 40
1
 40
1
 40
1
 10
112.349472
 20
374.928674
 30
0.0
 10
112.316139
 20
374.962272
 30
0.0
 10
112.332805
 20
374.945473
 30
0.0
 10
112.349472
 20
374.928674
 30
0.0
  0
LWPOLYLINE
  5
230
100
AcDbEntity
  8
Layer_1
 62
5
100
AcDbPolyline
 90
7
 70
0
 10
287.024472
 20
346.605111
 30
0.0
 10
280.899472
 20
357.204558
 30
0.0
 10
287.024472
 20
367.829044
 30
0.0
 10
299.274472
 20
367.829044
 30
0.0
 10
305.399472
 20
357.204558
 30
0.0
 10
299.274472
 20
346.605111
 30
0.0
 10
287.024472
 20
346.605111
 30
0.0
  0
LWPOLYLINE
  5
231
100
AcDbEntity
  8
Layer_1
 62
5
100
AcDbPolyline
 90
2
 70
0
 10
112.349472
 20
374.928674
 30
0.0
 10
112.349472
 20
374.928674
 30
0.0
  0
LWPOLYLINE
  5
232
100
AcDbEntity
  8
Layer_1
 62
5
100
AcDbPolyline
 90
7
 70
0
 10
161.799472
 20
361.004600
 30
0.0
 10
154.524472
 20
373.578904
 30
0.0
 10
153.749472
 20
374.928914
 30
0.0
 10
182.099472
 20
374.928914
 30
0.0
 10
181.299472
 20
373.578904
 30
0.0
 10
174.049472
 20
361.004600
 30
0.0
 10
161.799472
 20
361.004600
 30
0.0
  0
LWPOLYLINE
  5
233
100
AcDbEntity
  8
Layer_1
 62
5
100
AcDbPolyline
 90
7
 70
0
 10
211.874472
 20
361.004600
 30
0.0
 10
204.624472
 20
373.578904
 30
0.0
 10
203.849472
 20
374.928914
 30
0.0
 10
232.174472
 20
374.928914
 30
0.0
 10
231.399472
 20
373.578904
 30
0.0
 10
224.124472
 20
361.004600
 30
0.0
 10
211.874472
 20
361.004600
 30
0.0
  0
LWPOLYLINE
  5
234
100
AcDbEntity
  8
Layer_1
 62
5
100
AcDbPolyline
 90
7
 70
0
 10
261.974472
 20
361.004600
 30
0.0
 10
254.699472
 20
373.578904
 30
0.0
 10
253.924472
 20
374.928914
 30
0.0
 10
282.274472
 20
374.928914
 30
0.0
 10
281.499472
 20
373.578904
 30
0.0
 10
274.224472
 20
361.004600
 30
0.0
 10
261.974472
 20
361.004600
 30
0.0
  0
LWPOLYLINE
  5
235
100
AcDbEntity
  8
Layer_1
 62
1
100
AcDbPolyline
 90
4
 70
0
 10
217.976485
 20
191.987082
 30
0.0
 10
323.603489
 20
374.928892
 30
0.0
 10
112.349472
 20
374.928892
 30
0.0
 10
217.976485
 20
191.987082
 30
0.0
  0
LWPOLYLINE
  5
236
100
AcDbEntity
  8
Layer_1
 62
5
100
AcDbPolyline
 90
7
 70
0
 10
429.648615
 20
216.361889
 30
0.0
 10
423.523598
 20
226.986335
 30
0.0
 10
429.648615
 20
237.585782
 30
0.0
 10
441.898649
 20
237.585782
 30
0.0
 10
448.023666
 20
226.986335
 30
0.0
 10
441.898649
 20
216.361889
 30
0.0
 10
429.648615
 20
216.361889
 30
0.0
  0
LWPOLYLINE
  5
237
100
AcDbEntity
  8
Layer_1
 62
5
100
AcDbPolyline
 90
7
 70
0
 10
413.323569
 20
230.836134
 30
0.0
 10
402.848540
 20
248.985187
 30
0.0
 10
404.623545
 20
252.060027
 30
0.0
 10
416.873579
 20
252.060027
 30
0.0
 10
422.998596
 20
241.460580
 30
0.0
 10
416.873579
 20
230.836134
 30
0.0
 10
413.323569
 20
230.836134
 30
0.0
  0
LWPOLYLINE
  5
238
100
AcDbEntity
  8
Layer_1
 62
5
100
AcDbPolyline
 90
7
 70
0
 10
454.698685
 20
230.836134
 30
0.0
 10
448.573668
 20
241.460580
 30
0.0
 10
454.698685
 20
252.060027
 30
0.0
 10
466.948719
 20
252.060027
 30
0.0
 10
468.698724
 20
249.035185
 30
0.0
 10
458.173695
 20
230.836134
 30
0.0
 10
454.698685
 20
230.836134
 30
0.0
  0
LWPOLYLINE
  5
239
100
AcDbEntity
  8
Layer_1
 62
5
100
AcDbPolyline
 90
7
 70
0
 10
429.648615
 20
245.310379
 30
0.0
 10
423.523598
 20
255.909826
 30
0.0
 10
429.648615
 20
266.534272
 30
0.0
 10
441.898649
 20
266.534272
 30
0.0
 10
448.023666
 20
255.909826
 30
0.0
 10
441.898649
 20
245.310379
 30
0.0
 10
429.648615
 20
245.310379
 30
0.0
  0
LWPOLYLINE
  5
23a
100
AcDbEntity
  8
Layer_1
 62
5
100
AcDbPolyline
 90
7
 70
0
 10
404.623545
 20
259.784624
 30
0.0
 10
398.498528
 20
270.384071
 30
0.0
 10
404.623545
 20
281.008517
 30
0.0
 10
416.873579
 20
281.008517
 30
0.0
 10
422.998596
 20
270.384071
 30
0.0
 10
416.873579
 20
259.784624
 30
0.0
 10
404.623545
 20
259.784624
 30
0.0
  0
LWPOLYLINE
  5
23b
100
AcDbEntity
  8
Layer_1
 62
5
100
AcDbPolyline
 90
7
 70
0
 10
454.698685
 20
259.784624
 30
0.0
 10
448.573668
 20
270.384071
 30
0.0
 10
454.698685
 20
281.008517
 30
0.0
 10
466.948719
 20
281.008517
 30
0.0
 10
473.073736
 20
270.384071
 30
0.0
 10
466.948719
 20
259.784624
 30
0.0
 10
454.698685
 20
259.784624
 30
0.0
  0
LWPOLYLINE
  5
23c
100
AcDbEntity
  8
Layer_1
 62
5
100
AcDbPolyline
 90
7
 70
0
 10
388.248499
 20
274.258869
 30
0.0
 10
377.773470
 20
292.382923
 30
0.0
 10
379.573475
 20
295.482762
 30
0.0
 10
391.823509
 20
295.482762
 30
0.0
 10
397.948526
 20
284.858316
 30
0.0
 10
391.823509
 20
274.258869
 30
0.0
 10
388.248499
 20
274.258869
 30
0.0
  0
LWPOLYLINE
  5
23d
100
AcDbEntity
  8
Layer_1
 62
5
100
AcDbPolyline
 90
7
 70
0
 10
429.648615
 20
274.258869
 30
0.0
 10
423.523598
 20
284.858316
 30
0.0
 10
429.648615
 20
295.482762
 30
0.0
 10
441.898649
 20
295.482762
 30
0.0
 10
448.023666
 20
284.858316
 30
0.0
 10
441.898649
 20
274.258869
 30
0.0
 10
429.648615
 20
274.258869
 30
0.0
  0
LWPOLYLINE
  5
23e
100
AcDbEntity
  8
Layer_1
 62
5
100
AcDbPolyline
 90
7
 70
0
 10
479.748755
 20
274.258869
 30
0.0
 10
473.623738
 20
284.858316
 30
0.0
 10
479.748755
 20
295.482762
 30
0.0
 10
491.998789
 20
295.482762
 30
0.0
 10
493.748794
 20
292.432921
 30
0.0
 10
483.248765
 20
274.258869
 30
0.0
 10
479.748755
 20
274.258869
 30
0.0
  0
LWPOLYLINE
  5
23f
100
AcDbEntity
  8
Layer_1
 62
5
100
AcDbPolyline
 90
7
 70
0
 10
404.623545
 20
288.708115
 30
0.0
 10
398.498528
 20
299.332561
 30
0.0
 10
404.623545
 20
309.957007
 30
0.0
 10
416.873579
 20
309.957007
 30
0.0
 10
422.998596
 20
299.332561
 30
0.0
 10
416.873579
 20
288.708115
 30
0.0
 10
404.623545
 20
288.708115
 30
0.0
  0
LWPOLYLINE
  5
240
100
AcDbEntity
  8
Layer_1
 62
5
100
AcDbPolyline
 90
7
 70
0
 10
454.698685
 20
288.708115
 30
0.0
 10
448.573668
 20
299.332561
 30
0.0
 10
454.698685
 20
309.957007
 30
0.0
 10
466.948719
 20
309.957007
 30
0.0
 10
473.073736
 20
299.332561
 30
0.0
 10
466.948719
 20
288.708115
 30
0.0
 10
454.698685
 20
288.708115
 30
0.0
  0
LWPOLYLINE
  5
241
100
AcDbEntity
  8
Layer_1
 62
5
100
AcDbPolyline
 90
7
 70
0
 10
379.573475
 20
303.182360
 30
0.0
 10
373.448457
 20
313.806806
 30
0.0
 10
379.573475
 20
324.406253
 30
0.0
 10
391.823509
 20
324.406253
 30
0.0
 10
397.948526
 20
313.806806
 30
0.0
 10
391.823509
 20
303.182360
 30
0.0
 10
379.573475
 20
303.182360
 30
0.0
  0
LWPOLYLINE
  5
242
100
AcDbEntity
  8
Layer_1
 62
5
100
AcDbPolyline
 90
7
 70
0
 10
429.648615
 20
303.182360
 30
0.0
 10
423.523598
 20
313.806806
 30
0.0
 10
429.648615
 20
324.406253
 30
0.0
 10
441.898649
 20
324.406253
 30
0.0
 10
448.023666
 20
313.806806
 30
0.0
 10
441.898649
 20
303.182360
 30
0.0
 10
429.648615
 20
303.182360
 30
0.0
  0
LWPOLYLINE
  5
243
100
AcDbEntity
  8
Layer_1
 62
5
100
AcDbPolyline
 90
7
 70
0
 10
479.748755
 20
303.182360
 30
0.0
 10
473.623738
 20
313.806806
 30
0.0
 10
479.748755
 20
324.406253
 30
0.0
 10
491.998789
 20
324.406253
 30
0.0
 10
498.123807
 20
313.806806
 30
0.0
 10
491.998789
 20
303.182360
 30
0.0
 10
479.748755
 20
303.182360
 30
0.0
  0
LWPOLYLINE
  5
244
100
AcDbEntity
  8
Layer_1
 62
5
100
AcDbPolyline
 90
7
 70
0
 10
363.198429
 20
317.656605
 30
0.0
 10
352.723399
 20
335.780636
 30
0.0
 10
354.523404
 20
338.880474
 30
0.0
 10
366.773439
 20
338.880474
 30
0.0
 10
372.898456
 20
328.281051
 30
0.0
 10
366.773439
 20
317.656605
 30
0.0
 10
363.198429
 20
317.656605
 30
0.0
  0
LWPOLYLINE
  5
245
100
AcDbEntity
  8
Layer_1
 62
5
100
AcDbPolyline
 90
7
 70
0
 10
404.623545
 20
317.656605
 30
0.0
 10
398.498528
 20
328.281051
 30
0.0
 10
404.623545
 20
338.880474
 30
0.0
 10
416.873579
 20
338.880474
 30
0.0
 10
422.998596
 20
328.281051
 30
0.0
 10
416.873579
 20
317.656605
 30
0.0
 10
404.623545
 20
317.656605
 30
0.0
  0
LWPOLYLINE
  5
246
100
AcDbEntity
  8
Layer_1
 62
5
100
AcDbPolyline
 90
7
 70
0
 10
454.698685
 20
317.656605
 30
0.0
 10
448.573668
 20
328.281051
 30
0.0
 10
454.698685
 20
338.880474
 30
0.0
 10
466.948719
 20
338.880474
 30
0.0
 10
473.073736
 20
328.281051
 30
0.0
 10
466.948719
 20
317.656605
 30
0.0
 10
454.698685
 20
317.656605
 30
0.0
  0
LWPOLYLINE
  5
247
100
AcDbEntity
  8
Layer_1
 62
5
100
AcDbPolyline
 90
7
 70
0
 10
504.798825
 20
317.656605
 30
0.0
 10
498.673808
 20
328.281051
 30
0.0
 10
504.798825
 20
338.880474
 30
0.0
 10
517.048860
 20
338.880474
 30
0.0
 10
518.798864
 20
335.830713
 30
0.0
 10
508.298835
 20
317.656605
 30
0.0
 10
504.798825
 20
317.656605
 30
0.0
  0
LWPOLYLINE
  5
248
100
AcDbEntity
  8
Layer_1
 62
5
100
AcDbPolyline
 90
7
 70
0
 10
379.573475
 20
332.130850
 30
0.0
 10
373.448457
 20
342.755312
 30
0.0
 10
379.573475
 20
353.354759
 30
0.0
 10
391.823509
 20
353.354759
 30
0.0
 10
397.948526
 20
342.755312
 30
0.0
 10
391.823509
 20
332.130850
 30
0.0
 10
379.573475
 20
332.130850
 30
0.0
  0
LWPOLYLINE
  5
249
100
AcDbEntity
  8
Layer_1
 62
5
100
AcDbPolyline
 90
7
 70
0
 10
429.648615
 20
332.130850
 30
0.0
 10
423.523598
 20
342.755312
 30
0.0
 10
429.648615
 20
353.354759
 30
0.0
 10
441.898649
 20
353.354759
 30
0.0
 10
448.023666
 20
342.755312
 30
0.0
 10
441.898649
 20
332.130850
 30
0.0
 10
429.648615
 20
332.130850
 30
0.0
  0
LWPOLYLINE
  5
24a
100
AcDbEntity
  8
Layer_1
 62
5
100
AcDbPolyline
 90
7
 70
0
 10
479.748755
 20
332.130850
 30
0.0
 10
473.623738
 20
342.755312
 30
0.0
 10
479.748755
 20
353.354759
 30
0.0
 10
491.998789
 20
353.354759
 30
0.0
 10
498.123807
 20
342.755312
 30
0.0
 10
491.998789
 20
332.130850
 30
0.0
 10
479.748755
 20
332.130850
 30
0.0
  0
LWPOLYLINE
  5
24b
100
AcDbEntity
  8
Layer_1
 62
5
100
AcDbPolyline
 90
7
 70
0
 10
354.523404
 20
346.605111
 30
0.0
 10
348.398387
 20
357.204558
 30
0.0
 10
354.523404
 20
367.829044
 30
0.0
 10
366.773439
 20
367.829044
 30
0.0
 10
372.898456
 20
357.204558
 30
0.0
 10
366.773439
 20
346.605111
 30
0.0
 10
354.523404
 20
346.605111
 30
0.0
  0
LWPOLYLINE
  5
24c
100
AcDbEntity
  8
Layer_1
 62
5
100
AcDbPolyline
 90
7
 70
0
 10
404.623545
 20
346.605111
 30
0.0
 10
398.498528
 20
357.204558
 30
0.0
 10
404.623545
 20
367.829044
 30
0.0
 10
416.873579
 20
367.829044
 30
0.0
 10
422.998596
 20
357.204558
 30
0.0
 10
416.873579
 20
346.605111
 30
0.0
 10
404.623545
 20
346.605111
 30
0.0
  0
LWPOLYLINE
  5
24d
100
AcDbEntity
  8
Layer_1
 62
5
100
AcDbPolyline
 90
7
 70
0
 10
454.698685
 20
346.605111
 30
0.0
 10
448.573668
 20
357.204558
 30
0.0
 10
454.698685
 20
367.829044
 30
0.0
 10
466.948719
 20
367.829044
 30
0.0
 10
473.073736
 20
357.204558
 30
0.0
 10
466.948719
 20
346.605111
 30
0.0
 10
454.698685
 20
346.605111
 30
0.0
  0
SPLINE
  5
24e
100
AcDbEntity
  8
Layer_1
 62
5
100
AcDbSpline
 70
8
 71
3
 72
8
 73
4
 74
0
 40
0
 40
0
 40
0
 40
0
 40
1
 40
1
 40
1
 40
1
 10
330.123336
 20
374.928674
 30
0.0
 10
330.090003
 20
374.962272
 30
0.0
 10
330.106669
 20
374.945473
 30
0.0
 10
330.123336
 20
374.928674
 30
0.0
  0
LWPOLYLINE
  5
24f
100
AcDbEntity
  8
Layer_1
 62
5
100
AcDbPolyline
 90
7
 70
0
 10
504.798825
 20
346.605111
 30
0.0
 10
498.673808
 20
357.204558
 30
0.0
 10
504.798825
 20
367.829044
 30
0.0
 10
517.048860
 20
367.829044
 30
0.0
 10
523.173877
 20
357.204558
 30
0.0
 10
517.048860
 20
346.605111
 30
0.0
 10
504.798825
 20
346.605111
 30
0.0
  0
LWPOLYLINE
  5
250
100
AcDbEntity
  8
Layer_1
 62
5
100
AcDbPolyline
 90
2
 70
0
 10
330.123336
 20
374.928674
 30
0.0
 10
330.123336
 20
374.928674
 30
0.0
  0
LWPOLYLINE
  5
251
100
AcDbEntity
  8
Layer_1
 62
5
100
AcDbPolyline
 90
7
 70
0
 10
379.573475
 20
361.004600
 30
0.0
 10
372.298454
 20
373.578904
 30
0.0
 10
371.523452
 20
374.928914
 30
0.0
 10
399.873531
 20
374.928914
 30
0.0
 10
399.073529
 20
373.578904
 30
0.0
 10
391.823509
 20
361.004600
 30
0.0
 10
379.573475
 20
361.004600
 30
0.0
  0
LWPOLYLINE
  5
252
100
AcDbEntity
  8
Layer_1
 62
5
100
AcDbPolyline
 90
7
 70
0
 10
429.648615
 20
361.004600
 30
0.0
 10
422.398595
 20
373.578904
 30
0.0
 10
421.623592
 20
374.928914
 30
0.0
 10
449.948672
 20
374.928914
 30
0.0
 10
449.173669
 20
373.578904
 30
0.0
 10
441.898649
 20
361.004600
 30
0.0
 10
429.648615
 20
361.004600
 30
0.0
  0
LWPOLYLINE
  5
253
100
AcDbEntity
  8
Layer_1
 62
5
100
AcDbPolyline
 90
7
 70
0
 10
479.748755
 20
361.004600
 30
0.0
 10
472.473735
 20
373.578904
 30
0.0
 10
471.698733
 20
374.928914
 30
0.0
 10
500.048812
 20
374.928914
 30
0.0
 10
499.273810
 20
373.578904
 30
0.0
 10
491.998789
 20
361.004600
 30
0.0
 10
479.748755
 20
361.004600
 30
0.0
  0
LWPOLYLINE
  5
254
100
AcDbEntity
  8
Layer_1
 62
1
100
AcDbPolyline
 90
4
 70
0
 10
435.750645
 20
191.987082
 30
0.0
 10
541.377945
 20
374.928892
 30
0.0
 10
330.123336
 20
374.928892
 30
0.0
 10
435.750645
 20
191.987082
 30
0.0
  0
LWPOLYLINE
  5
255
100
AcDbEntity
  8
Layer_1
 62
5
100
AcDbPolyline
 90
7
 70
0
 10
647.436229
 20
216.362289
 30
0.0
 10
641.311064
 20
226.986735
 30
0.0
 10
647.436229
 20
237.586182
 30
0.0
 10
659.686557
 20
237.586182
 30
0.0
 10
665.811721
 20
226.986735
 30
0.0
 10
659.686557
 20
216.362289
 30
0.0
 10
647.436229
 20
216.362289
 30
0.0
  0
LWPOLYLINE
  5
256
100
AcDbEntity
  8
Layer_1
 62
5
100
AcDbPolyline
 90
7
 70
0
 10
631.110791
 20
230.836534
 30
0.0
 10
620.635510
 20
248.985587
 30
0.0
 10
622.410558
 20
252.060427
 30
0.0
 10
634.660886
 20
252.060427
 30
0.0
 10
640.786050
 20
241.460980
 30
0.0
 10
634.660886
 20
230.836534
 30
0.0
 10
631.110791
 20
230.836534
 30
0.0
  0
LWPOLYLINE
  5
257
100
AcDbEntity
  8
Layer_1
 62
5
100
AcDbPolyline
 90
7
 70
0
 10
672.486900
 20
230.836534
 30
0.0
 10
666.361736
 20
241.460980
 30
0.0
 10
672.486900
 20
252.060427
 30
0.0
 10
684.737228
 20
252.060427
 30
0.0
 10
686.487275
 20
249.035585
 30
0.0
 10
675.961993
 20
230.836534
 30
0.0
 10
672.486900
 20
230.836534
 30
0.0
  0
LWPOLYLINE
  5
258
100
AcDbEntity
  8
Layer_1
 62
5
100
AcDbPolyline
 90
7
 70
0
 10
647.436229
 20
245.310779
 30
0.0
 10
641.311064
 20
255.910226
 30
0.0
 10
647.436229
 20
266.534672
 30
0.0
 10
659.686557
 20
266.534672
 30
0.0
 10
665.811721
 20
255.910226
 30
0.0
 10
659.686557
 20
245.310779
 30
0.0
 10
647.436229
 20
245.310779
 30
0.0
  0
LWPOLYLINE
  5
259
100
AcDbEntity
  8
Layer_1
 62
5
100
AcDbPolyline
 90
7
 70
0
 10
622.410558
 20
259.785024
 30
0.0
 10
616.285394
 20
270.384471
 30
0.0
 10
622.410558
 20
281.008917
 30
0.0
 10
634.660886
 20
281.008917
 30
0.0
 10
640.786050
 20
270.384471
 30
0.0
 10
634.660886
 20
259.785024
 30
0.0
 10
622.410558
 20
259.785024
 30
0.0
  0
LWPOLYLINE
  5
25a
100
AcDbEntity
  8
Layer_1
 62
5
100
AcDbPolyline
 90
7
 70
0
 10
672.486900
 20
259.785024
 30
0.0
 10
666.361736
 20
270.384471
 30
0.0
 10
672.486900
 20
281.008917
 30
0.0
 10
684.737228
 20
281.008917
 30
0.0
 10
690.862392
 20
270.384471
 30
0.0
 10
684.737228
 20
259.785024
 30
0.0
 10
672.486900
 20
259.785024
 30
0.0
  0
LWPOLYLINE
  5
25b
100
AcDbEntity
  8
Layer_1
 62
5
100
AcDbPolyline
 90
7
 70
0
 10
606.035119
 20
274.259269
 30
0.0
 10
595.559838
 20
292.383323
 30
0.0
 10
597.359887
 20
295.483162
 30
0.0
 10
609.610215
 20
295.483162
 30
0.0
 10
615.735379
 20
284.858716
 30
0.0
 10
609.610215
 20
274.259269
 30
0.0
 10
606.035119
 20
274.259269
 30
0.0
  0
LWPOLYLINE
  5
25c
100
AcDbEntity
  8
Layer_1
 62
5
100
AcDbPolyline
 90
7
 70
0
 10
647.436229
 20
274.259269
 30
0.0
 10
641.311064
 20
284.858716
 30
0.0
 10
647.436229
 20
295.483162
 30
0.0
 10
659.686557
 20
295.483162
 30
0.0
 10
665.811721
 20
284.858716
 30
0.0
 10
659.686557
 20
274.259269
 30
0.0
 10
647.436229
 20
274.259269
 30
0.0
  0
LWPOLYLINE
  5
25d
100
AcDbEntity
  8
Layer_1
 62
5
100
AcDbPolyline
 90
7
 70
0
 10
697.537571
 20
274.259269
 30
0.0
 10
691.412407
 20
284.858716
 30
0.0
 10
697.537571
 20
295.483162
 30
0.0
 10
709.787900
 20
295.483162
 30
0.0
 10
711.537946
 20
292.433321
 30
0.0
 10
701.037665
 20
274.259269
 30
0.0
 10
697.537571
 20
274.259269
 30
0.0
  0
LWPOLYLINE
  5
25e
100
AcDbEntity
  8
Layer_1
 62
5
100
AcDbPolyline
 90
7
 70
0
 10
622.410558
 20
288.708515
 30
0.0
 10
616.285394
 20
299.332961
 30
0.0
 10
622.410558
 20
309.957407
 30
0.0
 10
634.660886
 20
309.957407
 30
0.0
 10
640.786050
 20
299.332961
 30
0.0
 10
634.660886
 20
288.708515
 30
0.0
 10
622.410558
 20
288.708515
 30
0.0
  0
LWPOLYLINE
  5
25f
100
AcDbEntity
  8
Layer_1
 62
5
100
AcDbPolyline
 90
7
 70
0
 10
672.486900
 20
288.708515
 30
0.0
 10
666.361736
 20
299.332961
 30
0.0
 10
672.486900
 20
309.957407
 30
0.0
 10
684.737228
 20
309.957407
 30
0.0
 10
690.862392
 20
299.332961
 30
0.0
 10
684.737228
 20
288.708515
 30
0.0
 10
672.486900
 20
288.708515
 30
0.0
  0
LWPOLYLINE
  5
260
100
AcDbEntity
  8
Layer_1
 62
5
100
AcDbPolyline
 90
7
 70
0
 10
597.359887
 20
303.182760
 30
0.0
 10
591.234722
 20
313.807206
 30
0.0
 10
597.359887
 20
324.406653
 30
0.0
 10
609.610215
 20
324.406653
 30
0.0
 10
615.735379
 20
313.807206
 30
0.0
 10
609.610215
 20
303.182760
 30
0.0
 10
597.359887
 20
303.182760
 30
0.0
  0
LWPOLYLINE
  5
261
100
AcDbEntity
  8
Layer_1
 62
5
100
AcDbPolyline
 90
7
 70
0
 10
647.436229
 20
303.182760
 30
0.0
 10
641.311064
 20
313.807206
 30
0.0
 10
647.436229
 20
324.406653
 30
0.0
 10
659.686557
 20
324.406653
 30
0.0
 10
665.811721
 20
313.807206
 30
0.0
 10
659.686557
 20
303.182760
 30
0.0
 10
647.436229
 20
303.182760
 30
0.0
  0
LWPOLYLINE
  5
262
100
AcDbEntity
  8
Layer_1
 62
5
100
AcDbPolyline
 90
7
 70
0
 10
697.537571
 20
303.182760
 30
0.0
 10
691.412407
 20
313.807206
 30
0.0
 10
697.537571
 20
324.406653
 30
0.0
 10
709.787900
 20
324.406653
 30
0.0
 10
715.913064
 20
313.807206
 30
0.0
 10
709.787900
 20
303.182760
 30
0.0
 10
697.537571
 20
303.182760
 30
0.0
  0
LWPOLYLINE
  5
263
100
AcDbEntity
  8
Layer_1
 62
5
100
AcDbPolyline
 90
7
 70
0
 10
580.984448
 20
317.657005
 30
0.0
 10
570.509167
 20
335.781036
 30
0.0
 10
572.309215
 20
338.880874
 30
0.0
 10
584.559544
 20
338.880874
 30
0.0
 10
590.684708
 20
328.281451
 30
0.0
 10
584.559544
 20
317.657005
 30
0.0
 10
580.984448
 20
317.657005
 30
0.0
  0
LWPOLYLINE
  5
264
100
AcDbEntity
  8
Layer_1
 62
5
100
AcDbPolyline
 90
7
 70
0
 10
622.410558
 20
317.657005
 30
0.0
 10
616.285394
 20
328.281451
 30
0.0
 10
622.410558
 20
338.880874
 30
0.0
 10
634.660886
 20
338.880874
 30
0.0
 10
640.786050
 20
328.281451
 30
0.0
 10
634.660886
 20
317.657005
 30
0.0
 10
622.410558
 20
317.657005
 30
0.0
  0
LWPOLYLINE
  5
265
100
AcDbEntity
  8
Layer_1
 62
5
100
AcDbPolyline
 90
7
 70
0
 10
672.486900
 20
317.657005
 30
0.0
 10
666.361736
 20
328.281451
 30
0.0
 10
672.486900
 20
338.880874
 30
0.0
 10
684.737228
 20
338.880874
 30
0.0
 10
690.862392
 20
328.281451
 30
0.0
 10
684.737228
 20
317.657005
 30
0.0
 10
672.486900
 20
317.657005
 30
0.0
  0
LWPOLYLINE
  5
266
100
AcDbEntity
  8
Layer_1
 62
5
100
AcDbPolyline
 90
7
 70
0
 10
722.588243
 20
317.657005
 30
0.0
 10
716.463078
 20
328.281451
 30
0.0
 10
722.588243
 20
338.880874
 30
0.0
 10
734.838571
 20
338.880874
 30
0.0
 10
736.588618
 20
335.831113
 30
0.0
 10
726.088336
 20
317.657005
 30
0.0
 10
722.588243
 20
317.657005
 30
0.0
  0
LWPOLYLINE
  5
267
100
AcDbEntity
  8
Layer_1
 62
5
100
AcDbPolyline
 90
7
 70
0
 10
597.359887
 20
332.131250
 30
0.0
 10
591.234722
 20
342.755712
 30
0.0
 10
597.359887
 20
353.355159
 30
0.0
 10
609.610215
 20
353.355159
 30
0.0
 10
615.735379
 20
342.755712
 30
0.0
 10
609.610215
 20
332.131250
 30
0.0
 10
597.359887
 20
332.131250
 30
0.0
  0
LWPOLYLINE
  5
268
100
AcDbEntity
  8
Layer_1
 62
5
100
AcDbPolyline
 90
7
 70
0
 10
647.436229
 20
332.131250
 30
0.0
 10
641.311064
 20
342.755712
 30
0.0
 10
647.436229
 20
353.355159
 30
0.0
 10
659.686557
 20
353.355159
 30
0.0
 10
665.811721
 20
342.755712
 30
0.0
 10
659.686557
 20
332.131250
 30
0.0
 10
647.436229
 20
332.131250
 30
0.0
  0
LWPOLYLINE
  5
269
100
AcDbEntity
  8
Layer_1
 62
5
100
AcDbPolyline
 90
7
 70
0
 10
697.537571
 20
332.131250
 30
0.0
 10
691.412407
 20
342.755712
 30
0.0
 10
697.537571
 20
353.355159
 30
0.0
 10
709.787900
 20
353.355159
 30
0.0
 10
715.913064
 20
342.755712
 30
0.0
 10
709.787900
 20
332.131250
 30
0.0
 10
697.537571
 20
332.131250
 30
0.0
  0
LWPOLYLINE
  5
26a
100
AcDbEntity
  8
Layer_1
 62
5
100
AcDbPolyline
 90
7
 70
0
 10
572.309215
 20
346.605511
 30
0.0
 10
566.184051
 20
357.204958
 30
0.0
 10
572.309215
 20
367.829444
 30
0.0
 10
584.559544
 20
367.829444
 30
0.0
 10
590.684708
 20
357.204958
 30
0.0
 10
584.559544
 20
346.605511
 30
0.0
 10
572.309215
 20
346.605511
 30
0.0
  0
LWPOLYLINE
  5
26b
100
AcDbEntity
  8
Layer_1
 62
5
100
AcDbPolyline
 90
7
 70
0
 10
622.410558
 20
346.605511
 30
0.0
 10
616.285394
 20
357.204958
 30
0.0
 10
622.410558
 20
367.829444
 30
0.0
 10
634.660886
 20
367.829444
 30
0.0
 10
640.786050
 20
357.204958
 30
0.0
 10
634.660886
 20
346.605511
 30
0.0
 10
622.410558
 20
346.605511
 30
0.0
  0
LWPOLYLINE
  5
26c
100
AcDbEntity
  8
Layer_1
 62
5
100
AcDbPolyline
 90
7
 70
0
 10
672.486900
 20
346.605511
 30
0.0
 10
666.361736
 20
357.204958
 30
0.0
 10
672.486900
 20
367.829444
 30
0.0
 10
684.737228
 20
367.829444
 30
0.0
 10
690.862392
 20
357.204958
 30
0.0
 10
684.737228
 20
346.605511
 30
0.0
 10
672.486900
 20
346.605511
 30
0.0
  0
SPLINE
  5
26d
100
AcDbEntity
  8
Layer_1
 62
5
100
AcDbSpline
 70
8
 71
3
 72
8
 73
4
 74
0
 40
0
 40
0
 40
0
 40
0
 40
1
 40
1
 40
1
 40
1
 10
547.908561
 20
374.929074
 30
0.0
 10
547.875227
 20
374.962672
 30
0.0
 10
547.891894
 20
374.945873
 30
0.0
 10
547.908561
 20
374.929074
 30
0.0
  0
LWPOLYLINE
  5
26e
100
AcDbEntity
  8
Layer_1
 62
5
100
AcDbPolyline
 90
7
 70
0
 10
722.588243
 20
346.605511
 30
0.0
 10
716.463078
 20
357.204958
 30
0.0
 10
722.588243
 20
367.829444
 30
0.0
 10
734.838571
 20
367.829444
 30
0.0
 10
740.963735
 20
357.204958
 30
0.0
 10
734.838571
 20
346.605511
 30
0.0
 10
722.588243
 20
346.605511
 30
0.0
  0
LWPOLYLINE
  5
26f
100
AcDbEntity
  8
Layer_1
 62
5
100
AcDbPolyline
 90
2
 70
0
 10
547.908561
 20
374.929074
 30
0.0
 10
547.908561
 20
374.929074
 30
0.0
  0
LWPOLYLINE
  5
270
100
AcDbEntity
  8
Layer_1
 62
5
100
AcDbPolyline
 90
7
 70
0
 10
597.359887
 20
361.005000
 30
0.0
 10
590.084692
 20
373.579304
 30
0.0
 10
589.309671
 20
374.929314
 30
0.0
 10
617.660431
 20
374.929314
 30
0.0
 10
616.860409
 20
373.579304
 30
0.0
 10
609.610215
 20
361.005000
 30
0.0
 10
597.359887
 20
361.005000
 30
0.0
  0
LWPOLYLINE
  5
271
100
AcDbEntity
  8
Layer_1
 62
5
100
AcDbPolyline
 90
7
 70
0
 10
647.436229
 20
361.005000
 30
0.0
 10
640.186034
 20
373.579304
 30
0.0
 10
639.411014
 20
374.929314
 30
0.0
 10
667.736773
 20
374.929314
 30
0.0
 10
666.961752
 20
373.579304
 30
0.0
 10
659.686557
 20
361.005000
 30
0.0
 10
647.436229
 20
361.005000
 30
0.0
  0
LWPOLYLINE
  5
272
100
AcDbEntity
  8
Layer_1
 62
5
100
AcDbPolyline
 90
7
 70
0
 10
697.537571
 20
361.005000
 30
0.0
 10
690.262376
 20
373.579304
 30
0.0
 10
689.487356
 20
374.929314
 30
0.0
 10
717.838115
 20
374.929314
 30
0.0
 10
717.063095
 20
373.579304
 30
0.0
 10
709.787900
 20
361.005000
 30
0.0
 10
697.537571
 20
361.005000
 30
0.0
  0
LWPOLYLINE
  5
273
100
AcDbEntity
  8
Layer_1
 62
1
100
AcDbPolyline
 90
4
 70
0
 10
653.538405
 20
191.987482
 30
0.0
 10
759.168240
 20
374.929292
 30
0.0
 10
547.908561
 20
374.929292
 30
0.0
 10
653.538405
 20
191.987482
 30
0.0
  0
ENDSEC
  0
SECTION
  2
OBJECTS
  0
DICTIONARY
  5
C
330
0
100
AcDbDictionary
  3
ACAD_GROUP
350
D
  3
ACAD_MLINESTYLE
350
17
  0
DICTIONARY
  5
D
330
C
100
AcDbDictionary
  0
DICTIONARY
  5
1A
330
C
100
AcDbDictionary
  0
DICTIONARY
  5
17
330
C
100
AcDbDictionary
  3
STANDARD
350
18
  0
DICTIONARY
  5
19
330
C
100
AcDbDictionary
  0
ENDSEC
  0
EOF
