999
DXF created by Inkscape
  0
SECTION
  2
HEADER
  9
$ACADVER
  1
AC1014
  9
$HANDSEED
  5
FFFF
  9
$MEASUREMENT
 70
     1
  0
ENDSEC
  0
SECTION
  2
TABLES
  0
TABLE
  2
VPORT
  5
8
330
0
100
AcDbSymbolTable
 70
     4
  0
VPORT
  5
2E
330
8
100
AcDbSymbolTableRecord
100
AcDbViewportTableRecord
  2
*ACTIVE
 70
     0
 10
0.0
 20
0.0
 11
1.0
 21
1.0
 12
210.0
 22
148.5
 13
0.0
 23
0.0
 14
10.0
 24
10.0
 15
10.0
 25
10.0
 16
0.0
 26
0.0
 36
1.0
 17
0.0
 27
0.0
 37
0.0
 40
341.0
 41
1.24
 42
50.0
 43
0.0
 44
0.0
 50
0.0
 51
0.0
 71
     0
 72
   100
 73
     1
 74
     3
 75
     0
 76
     0
 77
     0
 78
     0
  0
ENDTAB
  0
TABLE
  2
LTYPE
  5
5
330
0
100
AcDbSymbolTable
 70
     1
  0
LTYPE
  5
14
330
5
100
AcDbSymbolTableRecord
100
AcDbLinetypeTableRecord
  2
BYBLOCK
 70
     0
  3

 72
    65
 73
     0
 40
0.0
  0
LTYPE
  5
15
330
5
100
AcDbSymbolTableRecord
100
AcDbLinetypeTableRecord
  2
BYLAYER
 70
     0
  3

 72
    65
 73
     0
 40
0.0
  0
LTYPE
  5
16
330
5
100
AcDbSymbolTableRecord
100
AcDbLinetypeTableRecord
  2
CONTINUOUS
 70
     0
  3
Solid line
 72
    65
 73
     0
 40
0.0
  0
ENDTAB
  0
TABLE
  2
LAYER
  5
2
100
AcDbSymbolTable
 70
2
  0
LAYER
  5
50
100
AcDbSymbolTableRecord
100
AcDbLayerTableRecord
  2
0
 70
0
  6
CONTINUOUS
  0
LAYER
  5
51
100
AcDbSymbolTableRecord
100
AcDbLayerTableRecord
  2
Layer_1
 70
0
  6
CONTINUOUS
  0
ENDTAB
  0
TABLE
  2
STYLE
  5
3
330
0
100
AcDbSymbolTable
 70
     1
  0
STYLE
  5
11
330
3
100
AcDbSymbolTableRecord
100
AcDbTextStyleTableRecord
  2
STANDARD
 70
     0
 40
0.0
 41
1.0
 50
0.0
 71
     0
 42
2.5
  3
txt
  4

  0
ENDTAB
  0
TABLE
  2
VIEW
  5
6
330
0
100
AcDbSymbolTable
 70
     0
  0
ENDTAB
  0
TABLE
  2
UCS
  5
7
330
0
100
AcDbSymbolTable
 70
     0
  0
ENDTAB
  0
TABLE
  2
APPID
  5
9
330
0
100
AcDbSymbolTable
 70
     2
  0
APPID
  5
12
330
9
100
AcDbSymbolTableRecord
100
AcDbRegAppTableRecord
  2
ACAD
 70
     0
  0
ENDTAB
  0
TABLE
  2
DIMSTYLE
  5
A
330
0
100
AcDbSymbolTable
 70
     1
  0
DIMSTYLE
105
27
330
A
100
AcDbSymbolTableRecord
100
AcDbDimStyleTableRecord
  2
ISO-25
 70
     0
  3

  4

  5

  6

  7

 40
1.0
 41
2.5
 42
0.625
 43
3.75
 44
1.25
 45
0.0
 46
0.0
 47
0.0
 48
0.0
140
2.5
141
2.5
142
0.0
143
0.03937007874016
144
1.0
145
0.0
146
1.0
147
0.625
 71
     0
 72
     0
 73
     0
 74
     0
 75
     0
 76
     0
 77
     1
 78
     8
170
     0
171
     3
172
     1
173
     0
174
     0
175
     0
176
     0
177
     0
178
     0
270
     2
271
     2
272
     2
273
     2
274
     3
340
11
275
     0
280
     0
281
     0
282
     0
283
     0
284
     8
285
     0
286
     0
287
     3
288
     0
  0
ENDTAB
  0
TABLE
  2
BLOCK_RECORD
  5
1
330
0
100
AcDbSymbolTable
 70
     1
  0
BLOCK_RECORD
  5
1F
330
1
100
AcDbSymbolTableRecord
100
AcDbBlockTableRecord
  2
*MODEL_SPACE
  0
BLOCK_RECORD
  5
1B
330
1
100
AcDbSymbolTableRecord
100
AcDbBlockTableRecord
  2
*PAPER_SPACE
  0
ENDTAB
  0
ENDSEC
  0
SECTION
  2
BLOCKS
  0
BLOCK
  5
20
330
1F
100
AcDbEntity
  8
0
100
AcDbBlockBegin
  2
*MODEL_SPACE
 70
     0
 10
0.0
 20
0.0
 30
0.0
  3
*MODEL_SPACE
  1

  0
ENDBLK
  5
21
330
1F
100
AcDbEntity
  8
0
100
AcDbBlockEnd
  0
BLOCK
  5
1C
330
1B
100
AcDbEntity
 67
     1
  8
0
100
AcDbBlockBegin
  2
*PAPER_SPACE
  1

  0
ENDBLK
  5
1D
330
1B
100
AcDbEntity
 67
     1
  8
0
100
AcDbBlockEnd
  0
ENDSEC
  0
SECTION
  2
ENTITIES
  0
LWPOLYLINE
  5
100
100
AcDbEntity
  8
Layer_1
 62
7
100
AcDbPolyline
 90
8
 70
0
 10
15.197371
 20
0.000028
 30
0.0
 10
525.732502
 20
0.108006
 30
0.0
 10
500.405739
 20
252.842147
 30
0.0
 10
441.704899
 20
240.970435
 30
0.0
 10
441.664400
 20
241.170787
 30
0.0
 10
440.078509
 20
249.011705
 30
0.0
 10
459.681693
 20
252.975903
 30
0.0
 10
458.287205
 20
259.870434
 30
0.0
  0
SPLINE
  5
101
100
AcDbEntity
  8
Layer_1
 62
7
100
AcDbSpline
 70
0
 71
3
 72
10
 73
6
 74
4
 40
0.000000
 40
0.000000
 40
0.000000
 40
0.000000
 40
2.599669
 40
5.116394
 40
7.716224
 40
7.716224
 40
7.716224
 40
7.716224
 10
458.287205
 20
259.870434
 30
0.0
 10
457.981629
 20
260.697836
 30
0.0
 10
457.380228
 20
262.326243
 30
0.0
 10
455.050488
 20
263.871801
 30
0.0
 10
453.316342
 20
263.793129
 30
0.0
 10
452.435186
 20
263.753154
 30
0.0
 11
458.287205
 21
259.870434
 31
0.0
 11
457.126925
 21
262.196811
 31
0.0
 11
455.029775
 21
263.588165
 31
0.0
 11
452.435186
 21
263.753154
 31
0.0
  0
LWPOLYLINE
  5
102
100
AcDbEntity
  8
Layer_1
 62
7
100
AcDbPolyline
 90
2
 70
0
 10
452.435186
 20
263.753154
 30
0.0
 10
422.964666
 20
257.794167
 30
0.0
  0
SPLINE
  5
103
100
AcDbEntity
  8
Layer_1
 62
7
100
AcDbSpline
 70
0
 71
3
 72
10
 73
6
 74
4
 40
0.000000
 40
0.000000
 40
0.000000
 40
0.000000
 40
2.599927
 40
5.117003
 40
7.716867
 40
7.716867
 40
7.716867
 40
7.716867
 10
422.964666
 20
257.794167
 30
0.0
 10
422.137195
 20
257.488578
 30
0.0
 10
420.508620
 20
256.887137
 30
0.0
 10
418.962468
 20
254.557527
 30
0.0
 10
419.040976
 20
252.823223
 30
0.0
 10
419.080865
 20
251.942041
 30
0.0
 11
422.964666
 21
257.794167
 31
0.0
 11
420.638009
 21
256.633873
 31
0.0
 11
419.246134
 21
254.536647
 31
0.0
 11
419.080865
 21
251.942041
 31
0.0
  0
LWPOLYLINE
  5
104
100
AcDbEntity
  8
Layer_1
 62
7
100
AcDbPolyline
 90
9
 70
0
 10
419.080865
 20
251.942041
 30
0.0
 10
419.087356
 20
251.908925
 30
0.0
 10
421.076064
 20
242.074762
 30
0.0
 10
422.101151
 20
237.005650
 30
0.0
 10
57.077291
 20
163.183528
 30
0.0
 10
57.035152
 20
163.394249
 30
0.0
 10
55.449851
 20
171.235223
 30
0.0
 10
75.052513
 20
175.198814
 30
0.0
 10
73.658583
 20
182.093399
 30
0.0
  0
SPLINE
  5
105
100
AcDbEntity
  8
Layer_1
 62
7
100
AcDbSpline
 70
0
 71
3
 72
10
 73
6
 74
4
 40
0.000000
 40
0.000000
 40
0.000000
 40
0.000000
 40
2.599789
 40
5.116671
 40
7.716565
 40
7.716565
 40
7.716565
 40
7.716565
 10
73.658583
 20
182.093399
 30
0.0
 10
73.353011
 20
182.920837
 30
0.0
 10
72.751612
 20
184.549325
 30
0.0
 10
70.421942
 20
186.095206
 30
0.0
 10
68.687705
 20
186.016605
 30
0.0
 10
67.806519
 20
185.976666
 30
0.0
 11
73.658583
 21
182.093399
 31
0.0
 11
72.498325
 21
184.419921
 31
0.0
 11
70.401164
 21
185.811541
 31
0.0
 11
67.806519
 21
185.976666
 31
0.0
  0
LWPOLYLINE
  5
106
100
AcDbEntity
  8
Layer_1
 62
7
100
AcDbPolyline
 90
2
 70
0
 10
67.806519
 20
185.976666
 30
0.0
 10
38.336070
 20
180.017129
 30
0.0
  0
LWPOLYLINE
  5
107
100
AcDbEntity
  8
Layer_1
 62
7
100
AcDbPolyline
 90
6
 70
0
 10
34.452190
 20
174.165556
 30
0.0
 10
34.455605
 20
174.131554
 30
0.0
 10
36.444284
 20
164.297385
 30
0.0
 10
37.470896
 20
159.219008
 30
0.0
 10
-0.000042
 20
151.640419
 30
0.0
 10
15.197371
 20
0.000028
 30
0.0
  0
LWPOLYLINE
  5
108
100
AcDbEntity
  8
Layer_1
 62
7
100
AcDbPolyline
 90
5
 70
0
 10
26.871205
 20
10.285363
 30
0.0
 10
26.978498
 20
16.591277
 30
0.0
 10
71.974456
 20
15.987739
 30
0.0
 10
71.867164
 20
9.681859
 30
0.0
 10
26.871205
 20
10.285363
 30
0.0
  0
SPLINE
  5
109
100
AcDbEntity
  8
Layer_1
 62
7
100
AcDbSpline
 70
0
 71
3
 72
10
 73
6
 74
4
 40
0.000000
 40
0.000000
 40
0.000000
 40
0.000000
 40
2.599936
 40
5.116784
 40
7.716496
 40
7.716496
 40
7.716496
 40
7.716496
 10
38.336070
 20
180.017129
 30
0.0
 10
37.508580
 20
179.711588
 30
0.0
 10
35.880043
 20
179.110270
 30
0.0
 10
34.333776
 20
176.780885
 30
0.0
 10
34.412295
 20
175.046695
 30
0.0
 10
34.452190
 20
174.165556
 30
0.0
 11
38.336070
 21
180.017129
 31
0.0
 11
36.009339
 21
178.856962
 31
0.0
 11
34.617465
 21
176.760010
 31
0.0
 11
34.452190
 21
174.165556
 31
0.0
  0
SPLINE
  5
10a
100
AcDbEntity
  8
Layer_1
 62
7
100
AcDbSpline
 70
0
 71
3
 72
16
 73
12
 74
10
 40
0.000000
 40
0.000000
 40
0.000000
 40
0.000000
 40
6.698988
 40
12.521839
 40
17.404589
 40
21.725342
 40
24.720975
 40
26.316882
 40
26.669511
 40
26.893712
 40
27.031595
 40
27.031595
 40
27.031595
 40
27.031595
 10
25.321719
 20
71.681464
 30
0.0
 10
27.253188
 20
72.802629
 30
0.0
 10
30.863515
 20
74.898325
 30
0.0
 10
36.047923
 20
77.512678
 30
0.0
 10
40.646224
 20
79.499913
 30
0.0
 10
44.560139
 20
80.694264
 30
0.0
 10
47.489230
 20
81.107815
 30
0.0
 10
49.178727
 20
81.120598
 30
0.0
 10
49.858947
 20
80.864954
 30
0.0
 10
50.080444
 20
80.777247
 30
0.0
 10
50.189191
 20
80.724796
 30
0.0
 10
50.230603
 20
80.704823
 30
0.0
 11
25.321719
 21
71.681464
 31
0.0
 11
31.150363
 21
74.983485
 31
0.0
 11
36.353736
 21
77.597008
 31
0.0
 11
40.856594
 21
79.485267
 31
0.0
 11
45.005243
 21
80.692583
 31
0.0
 11
47.974780
 21
81.087129
 31
0.0
 11
49.566133
 21
80.966640
 31
0.0
 11
49.898472
 21
80.848753
 31
0.0
 11
50.105866
 21
80.763580
 31
0.0
 11
50.230603
 21
80.704823
 31
0.0
  0
LWPOLYLINE
  5
10b
100
AcDbEntity
  8
Layer_1
 62
7
100
AcDbPolyline
 90
2
 70
0
 10
28.961780
 20
35.416230
 30
0.0
 10
25.321719
 20
71.681464
 30
0.0
  0
LWPOLYLINE
  5
10c
100
AcDbEntity
  8
Layer_1
 62
7
100
AcDbPolyline
 90
2
 70
0
 10
39.040218
 20
35.677737
 30
0.0
 10
28.961780
 20
35.416230
 30
0.0
  0
SPLINE
  5
10d
100
AcDbEntity
  8
Layer_1
 62
7
100
AcDbSpline
 70
0
 71
3
 72
13
 73
9
 74
7
 40
0.000000
 40
0.000000
 40
0.000000
 40
0.000000
 40
0.173129
 40
0.448580
 40
0.859236
 40
6.118768
 40
19.447732
 40
46.546146
 40
46.546146
 40
46.546146
 40
46.546146
 10
50.230603
 20
80.704823
 30
0.0
 10
50.244601
 20
80.648822
 30
0.0
 10
50.280869
 20
80.503723
 30
0.0
 10
50.329827
 20
80.221325
 30
0.0
 10
50.581791
 20
78.253531
 30
0.0
 10
49.392792
 20
71.906487
 30
0.0
 10
45.459414
 20
57.297572
 30
0.0
 10
41.616271
 20
44.353877
 30
0.0
 10
39.040218
 20
35.677737
 30
0.0
 11
50.230603
 21
80.704823
 31
0.0
 11
50.271001
 21
80.536473
 31
0.0
 11
50.320509
 21
80.265508
 31
0.0
 11
50.373184
 21
79.858243
 31
0.0
 11
49.862800
 21
74.623534
 31
0.0
 11
46.605470
 21
61.698710
 31
0.0
 11
39.040218
 21
35.677737
 31
0.0
  0
SPLINE
  5
10e
100
AcDbEntity
  8
Layer_1
 62
7
100
AcDbSpline
 70
0
 71
3
 72
19
 73
15
 74
13
 40
0.000000
 40
0.000000
 40
0.000000
 40
0.000000
 40
3.380148
 40
6.090216
 40
7.804174
 40
10.337386
 40
13.280481
 40
16.238698
 40
17.605322
 40
18.828453
 40
19.844463
 40
20.225284
 40
20.541066
 40
20.770766
 40
20.770766
 40
20.770766
 40
20.770766
 10
21.614054
 20
108.620202
 30
0.0
 10
22.686402
 20
108.273936
 30
0.0
 10
24.618516
 20
107.650049
 30
0.0
 10
27.076370
 20
106.801280
 30
0.0
 10
29.242341
 20
105.959189
 30
0.0
 10
31.298301
 20
104.709630
 30
0.0
 10
33.635563
 20
103.149957
 30
0.0
 10
35.565686
 20
101.681582
 30
0.0
 10
36.981183
 20
100.490735
 30
0.0
 10
37.867880
 20
99.679503
 30
0.0
 10
38.501802
 20
99.077502
 30
0.0
 10
38.872705
 20
98.641947
 30
0.0
 10
39.040202
 20
98.381775
 30
0.0
 10
39.128667
 20
98.222933
 30
0.0
 10
39.165919
 20
98.156045
 30
0.0
 11
21.614054
 21
108.620202
 31
0.0
 11
24.826769
 21
107.569553
 31
0.0
 11
27.384085
 21
106.672558
 31
0.0
 11
28.969724
 21
106.021866
 31
0.0
 11
31.170754
 21
104.767818
 31
0.0
 11
33.614435
 21
103.127627
 31
0.0
 11
35.967258
 21
101.334508
 31
0.0
 11
37.011139
 21
100.452481
 31
0.0
 11
37.916172
 21
99.629702
 31
0.0
 11
38.636730
 21
98.913411
 31
0.0
 11
38.879349
 21
98.619879
 31
0.0
 11
39.052359
 21
98.355710
 31
0.0
 11
39.165919
 21
98.156045
 31
0.0
  0
LWPOLYLINE
  5
10f
100
AcDbEntity
  8
Layer_1
 62
7
100
AcDbPolyline
 90
2
 70
0
 10
24.021199
 20
84.638267
 30
0.0
 10
21.614054
 20
108.620202
 30
0.0
  0
LWPOLYLINE
  5
110
100
AcDbEntity
  8
Layer_1
 62
7
100
AcDbPolyline
 90
2
 70
0
 10
24.021199
 20
84.638267
 30
0.0
 10
24.021199
 20
84.638267
 30
0.0
  0
SPLINE
  5
111
100
AcDbEntity
  8
Layer_1
 62
7
100
AcDbSpline
 70
0
 71
3
 72
13
 73
9
 74
7
 40
0.000000
 40
0.000000
 40
0.000000
 40
0.000000
 40
0.665258
 40
1.822737
 40
3.827851
 40
7.832115
 40
13.394633
 40
20.554108
 40
20.554108
 40
20.554108
 40
20.554108
 10
39.165919
 20
98.156045
 30
0.0
 10
39.130996
 20
97.934671
 30
0.0
 10
39.035308
 20
97.328130
 30
0.0
 10
38.246606
 20
96.278340
 30
0.0
 10
36.734531
 20
94.454356
 30
0.0
 10
33.868136
 20
91.834555
 30
0.0
 10
29.473691
 20
88.410963
 30
0.0
 10
25.984685
 20
85.996845
 30
0.0
 10
24.021199
 20
84.638267
 30
0.0
 11
39.165919
 21
98.156045
 31
0.0
 11
39.023866
 21
97.506131
 31
0.0
 11
38.419163
 21
96.519170
 31
0.0
 11
37.131746
 21
94.981951
 31
0.0
 11
34.228940
 21
92.223720
 31
0.0
 11
29.865231
 21
88.774132
 31
0.0
 11
24.021199
 21
84.638267
 31
0.0
  0
SPLINE
  5
112
100
AcDbEntity
  8
Layer_1
 62
7
100
AcDbSpline
 70
0
 71
3
 72
13
 73
9
 74
7
 40
0.000000
 40
0.000000
 40
0.000000
 40
0.000000
 40
11.839575
 40
20.855485
 40
27.010873
 40
28.455431
 40
29.607237
 40
30.523677
 40
30.523677
 40
30.523677
 40
30.523677
 10
52.169740
 20
139.775328
 30
0.0
 10
51.256065
 20
135.935810
 30
0.0
 10
49.646621
 20
129.172476
 30
0.0
 10
47.440454
 20
120.444684
 30
0.0
 10
45.973251
 20
115.099826
 30
0.0
 10
45.028223
 20
112.339399
 30
0.0
 10
44.607772
 20
111.245999
 30
0.0
 10
44.327503
 20
110.616035
 30
0.0
 10
44.203315
 20
110.336897
 30
0.0
 11
52.169740
 21
139.775328
 31
0.0
 11
49.398431
 21
128.264664
 31
0.0
 11
47.171322
 21
119.528153
 31
0.0
 11
45.459165
 21
113.615682
 31
0.0
 11
44.987200
 21
112.250399
 31
0.0
 11
44.569454
 21
111.177019
 31
0.0
 11
44.203315
 21
110.336897
 31
0.0
  0
LWPOLYLINE
  5
113
100
AcDbEntity
  8
Layer_1
 62
7
100
AcDbPolyline
 90
2
 70
0
 10
32.885312
 20
136.383257
 30
0.0
 10
52.169740
 20
139.775328
 30
0.0
  0
SPLINE
  5
114
100
AcDbEntity
  8
Layer_1
 62
7
100
AcDbSpline
 70
0
 71
3
 72
16
 73
12
 74
10
 40
0.000000
 40
0.000000
 40
0.000000
 40
0.000000
 40
0.446053
 40
0.885620
 40
1.345971
 40
5.623246
 40
8.419063
 40
10.513648
 40
14.039006
 40
20.374367
 40
30.056187
 40
30.056187
 40
30.056187
 40
30.056187
 10
44.203315
 20
110.336897
 30
0.0
 10
44.071759
 20
110.406154
 30
0.0
 10
43.810560
 20
110.543660
 30
0.0
 10
43.411761
 20
110.749635
 30
0.0
 10
41.940021
 20
111.652477
 30
0.0
 10
39.885734
 20
113.095872
 30
0.0
 10
37.581740
 20
115.145822
 30
0.0
 10
36.119190
 20
117.584058
 30
0.0
 10
35.175503
 20
121.490231
 30
0.0
 10
33.985892
 20
127.880547
 30
0.0
 10
33.299944
 20
133.179953
 30
0.0
 10
32.885312
 20
136.383257
 30
0.0
 11
44.203315
 21
110.336897
 31
0.0
 11
43.808342
 21
110.544165
 31
0.0
 11
43.420500
 21
110.751040
 31
0.0
 11
43.025591
 21
110.987620
 31
0.0
 11
39.537036
 21
113.462508
 31
0.0
 11
37.529429
 21
115.408299
 31
0.0
 11
36.441888
 21
117.198422
 31
0.0
 11
35.420074
 21
120.572448
 31
0.0
 11
34.234824
 21
126.795949
 31
0.0
 11
32.885312
 21
136.383257
 31
0.0
  0
SPLINE
  5
115
100
AcDbEntity
  8
Layer_1
 62
7
100
AcDbSpline
 70
0
 71
3
 72
16
 73
12
 74
10
 40
0.000000
 40
0.000000
 40
0.000000
 40
0.000000
 40
2.854623
 40
5.654788
 40
8.152851
 40
11.860109
 40
14.610258
 40
15.923522
 40
16.460010
 40
16.890423
 40
17.237934
 40
17.237934
 40
17.237934
 40
17.237934
 10
50.733139
 20
35.981643
 30
0.0
 10
51.025779
 20
36.887059
 30
0.0
 10
51.605478
 20
38.680617
 30
0.0
 10
52.437723
 20
41.267775
 30
0.0
 10
53.392088
 20
44.113608
 30
0.0
 10
54.409828
 20
46.922258
 30
0.0
 10
55.380055
 20
49.320267
 30
0.0
 10
55.937253
 20
50.754593
 30
0.0
 10
56.329969
 20
51.406881
 30
0.0
 10
56.577271
 20
51.768866
 30
0.0
 10
56.738519
 20
51.972034
 30
0.0
 10
56.810552
 20
52.062792
 30
0.0
 11
50.733139
 21
35.981643
 31
0.0
 11
51.610435
 21
38.698116
 31
0.0
 11
52.474327
 21
41.361687
 31
0.0
 11
53.271654
 21
43.729089
 31
0.0
 11
54.542464
 21
47.211732
 31
0.0
 11
55.552528
 21
49.769678
 31
0.0
 11
56.078989
 21
50.972799
 31
0.0
 11
56.352976
 21
51.434048
 31
0.0
 11
56.597425
 21
51.788308
 31
0.0
 11
56.810552
 21
52.062792
 31
0.0
  0
LWPOLYLINE
  5
116
100
AcDbEntity
  8
Layer_1
 62
7
100
AcDbPolyline
 90
2
 70
0
 10
32.885312
 20
136.383257
 30
0.0
 10
32.885312
 20
136.383257
 30
0.0
  0
SPLINE
  5
117
100
AcDbEntity
  8
Layer_1
 62
7
100
AcDbSpline
 70
0
 71
3
 72
13
 73
9
 74
7
 40
0.000000
 40
0.000000
 40
0.000000
 40
0.000000
 40
1.792805
 40
4.960593
 40
9.453120
 40
12.023113
 40
15.555787
 40
19.749623
 40
19.749623
 40
19.749623
 40
19.749623
 10
56.810552
 20
52.062792
 30
0.0
 10
57.267523
 20
51.677040
 30
0.0
 10
58.531937
 20
50.609684
 30
0.0
 10
60.649268
 20
48.263321
 30
0.0
 10
62.738189
 20
45.565223
 30
0.0
 10
64.714795
 20
42.637443
 30
0.0
 10
66.612484
 20
39.777858
 30
0.0
 10
68.020501
 20
37.621254
 30
0.0
 10
68.784752
 20
36.450682
 30
0.0
 11
56.810552
 21
52.062792
 31
0.0
 11
58.161437
 21
50.884125
 31
0.0
 11
60.326622
 21
48.571797
 31
0.0
 11
63.080361
 21
45.022189
 31
0.0
 11
64.532762
 21
42.901954
 31
0.0
 11
66.487282
 21
39.959228
 31
0.0
 11
68.784752
 21
36.450682
 31
0.0
  0
LWPOLYLINE
  5
118
100
AcDbEntity
  8
Layer_1
 62
7
100
AcDbPolyline
 90
2
 70
0
 10
68.784752
 20
36.450682
 30
0.0
 10
50.733139
 20
35.981643
 30
0.0
  0
LWPOLYLINE
  5
119
100
AcDbEntity
  8
Layer_1
 62
7
100
AcDbPolyline
 90
2
 70
0
 10
45.577085
 20
109.642701
 30
0.0
 10
45.577085
 20
109.642701
 30
0.0
  0
SPLINE
  5
11a
100
AcDbEntity
  8
Layer_1
 62
7
100
AcDbSpline
 70
0
 71
3
 72
13
 73
9
 74
7
 40
0.000000
 40
0.000000
 40
0.000000
 40
0.000000
 40
0.117362
 40
0.166612
 40
0.176195
 40
0.215337
 40
0.281192
 40
0.336449
 40
0.336449
 40
0.336449
 40
0.336449
 10
45.577085
 20
109.642701
 30
0.0
 10
45.606108
 20
109.635130
 30
0.0
 10
45.647309
 20
109.624382
 30
0.0
 10
45.747495
 20
109.598847
 30
0.0
 10
45.716645
 20
109.575307
 30
0.0
 10
45.681248
 20
109.608758
 30
0.0
 10
45.631919
 20
109.619584
 30
0.0
 10
45.594265
 20
109.635459
 30
0.0
 10
45.577085
 20
109.642701
 30
0.0
 11
45.577085
 21
109.642701
 31
0.0
 11
45.690715
 21
109.613340
 31
0.0
 11
45.733625
 21
109.589168
 31
0.0
 11
45.725963
 21
109.583412
 31
0.0
 11
45.689517
 21
109.597685
 31
0.0
 11
45.628547
 21
109.622575
 31
0.0
 11
45.577085
 21
109.642701
 31
0.0
  0
SPLINE
  5
11b
100
AcDbEntity
  8
Layer_1
 62
7
100
AcDbSpline
 70
0
 71
3
 72
10
 73
6
 74
4
 40
0.000000
 40
0.000000
 40
0.000000
 40
0.000000
 40
8.200176
 40
21.757189
 40
41.247037
 40
41.247037
 40
41.247037
 40
41.247037
 10
56.388274
 20
100.881897
 30
0.0
 10
56.455131
 20
103.617872
 30
0.0
 10
56.632519
 20
110.877122
 30
0.0
 10
59.258094
 20
124.422967
 30
0.0
 10
61.667006
 20
135.163083
 30
0.0
 10
63.087696
 20
141.497217
 30
0.0
 11
56.388274
 21
100.881897
 31
0.0
 11
56.760378
 21
109.073625
 31
0.0
 11
58.931823
 21
122.455607
 31
0.0
 11
63.087696
 21
141.497217
 31
0.0
  0
LWPOLYLINE
  5
11c
100
AcDbEntity
  8
Layer_1
 62
7
100
AcDbPolyline
 90
2
 70
0
 10
56.388330
 20
100.881332
 30
0.0
 10
56.388274
 20
100.881897
 30
0.0
  0
SPLINE
  5
11d
100
AcDbEntity
  8
Layer_1
 62
7
100
AcDbSpline
 70
0
 71
3
 72
10
 73
6
 74
4
 40
0.000000
 40
0.000000
 40
0.000000
 40
0.000000
 40
0.071825
 40
0.141578
 40
0.213022
 40
0.213022
 40
0.213022
 40
0.213022
 10
63.087696
 20
141.497217
 30
0.0
 10
63.093263
 20
141.520502
 30
0.0
 10
63.104236
 20
141.566401
 30
0.0
 10
63.120845
 20
141.635439
 30
0.0
 10
63.131735
 20
141.681227
 30
0.0
 10
63.137246
 20
141.704396
 30
0.0
 11
63.087696
 21
141.497217
 31
0.0
 11
63.104414
 21
141.567068
 31
0.0
 11
63.120684
 21
141.634898
 31
0.0
 11
63.137246
 21
141.704396
 31
0.0
  0
LWPOLYLINE
  5
11e
100
AcDbEntity
  8
Layer_1
 62
7
100
AcDbPolyline
 90
2
 70
0
 10
63.137246
 20
141.704396
 30
0.0
 10
88.796382
 20
146.217172
 30
0.0
  0
SPLINE
  5
11f
100
AcDbEntity
  8
Layer_1
 62
7
100
AcDbSpline
 70
0
 71
3
 72
10
 73
6
 74
4
 40
0.000000
 40
0.000000
 40
0.000000
 40
0.000000
 40
6.704317
 40
12.015804
 40
19.267574
 40
19.267574
 40
19.267574
 40
19.267574
 10
88.796382
 20
146.217172
 30
0.0
 10
90.265987
 20
144.507356
 30
0.0
 10
92.899884
 20
141.442941
 30
0.0
 10
95.060369
 20
135.268676
 30
0.0
 10
95.387773
 20
131.084921
 30
0.0
 10
95.576757
 20
128.669971
 30
0.0
 11
88.796382
 21
146.217172
 31
0.0
 11
92.804669
 21
140.843019
 31
0.0
 11
94.649526
 21
135.862217
 31
0.0
 11
95.576757
 21
128.669971
 31
0.0
  0
SPLINE
  5
120
100
AcDbEntity
  8
Layer_1
 62
7
100
AcDbSpline
 70
0
 71
3
 72
13
 73
9
 74
7
 40
0.000000
 40
0.000000
 40
0.000000
 40
0.000000
 40
10.320672
 40
21.217378
 40
28.565127
 40
31.176859
 40
33.033652
 40
34.016518
 40
34.016518
 40
34.016518
 40
34.016518
 10
95.576757
 20
128.669971
 30
0.0
 10
95.845626
 20
125.238890
 30
0.0
 10
96.398372
 20
118.185227
 30
0.0
 10
96.637960
 20
108.675009
 30
0.0
 10
96.942576
 20
101.705673
 30
0.0
 10
96.433245
 20
97.788999
 30
0.0
 10
95.913090
 20
96.034595
 30
0.0
 10
95.485991
 20
95.188870
 30
0.0
 10
95.338163
 20
94.896147
 30
0.0
 11
95.576757
 21
128.669971
 31
0.0
 11
96.294687
 21
118.374300
 31
0.0
 11
96.708196
 21
107.485443
 31
0.0
 11
96.698909
 21
100.137699
 31
0.0
 11
96.320849
 21
97.553475
 31
0.0
 11
95.762940
 21
95.782481
 31
0.0
 11
95.338163
 21
94.896147
 31
0.0
  0
LWPOLYLINE
  5
121
100
AcDbEntity
  8
Layer_1
 62
7
100
AcDbPolyline
 90
2
 70
0
 10
95.576757
 20
128.669971
 30
0.0
 10
95.576757
 20
128.669971
 30
0.0
  0
SPLINE
  5
122
100
AcDbEntity
  8
Layer_1
 62
7
100
AcDbSpline
 70
0
 71
3
 72
25
 73
21
 74
19
 40
0.000000
 40
0.000000
 40
0.000000
 40
0.000000
 40
0.498055
 40
1.247606
 40
2.118314
 40
3.609429
 40
5.031309
 40
6.115969
 40
8.786997
 40
14.116233
 40
20.993920
 40
27.205555
 40
31.800936
 40
34.964360
 40
36.838640
 40
37.889302
 40
38.846430
 40
39.393769
 40
40.536651
 40
42.391347
 40
42.391347
 40
42.391347
 40
42.391347
 10
95.338163
 20
94.896147
 30
0.0
 10
95.187170
 20
94.827184
 30
0.0
 10
94.808937
 20
94.654434
 30
0.0
 10
94.165246
 20
94.362751
 30
0.0
 10
93.172514
 20
94.051824
 30
0.0
 10
91.926282
 20
93.843890
 30
0.0
 10
90.603147
 20
93.675744
 30
0.0
 10
88.875045
 20
93.646634
 30
0.0
 10
85.854259
 20
93.890995
 30
0.0
 10
80.899885
 20
94.100795
 30
0.0
 10
74.768535
 20
94.428242
 30
0.0
 10
68.884501
 20
94.770547
 30
0.0
 10
64.241191
 20
95.170598
 30
0.0
 10
61.070650
 20
95.682891
 30
0.0
 10
59.086649
 20
96.135137
 30
0.0
 10
57.904686
 20
96.707496
 30
0.0
 10
57.314598
 20
97.348214
 30
0.0
 10
56.887949
 20
98.124192
 30
0.0
 10
56.568613
 20
99.273884
 30
0.0
 10
56.456909
 20
100.266889
 30
0.0
 10
56.387794
 20
100.881293
 30
0.0
 11
95.338163
 21
94.896147
 31
0.0
 11
94.885042
 21
94.689411
 31
0.0
 11
94.196793
 21
94.392528
 31
0.0
 11
93.367157
 21
94.128260
 31
0.0
 11
91.902250
 21
93.849927
 31
0.0
 11
90.489285
 21
93.690951
 31
0.0
 11
89.404918
 21
93.665740
 31
0.0
 11
86.737686
 21
93.808085
 31
0.0
 11
81.415780
 21
94.087514
 31
0.0
 11
74.547431
 21
94.445785
 31
0.0
 11
68.348000
 21
94.834962
 31
0.0
 11
63.774065
 21
95.278408
 31
0.0
 11
60.652835
 21
95.793362
 31
0.0
 11
58.843961
 21
96.284178
 31
0.0
 11
57.916632
 21
96.778092
 31
0.0
 11
57.262451
 21
97.476764
 31
0.0
 11
56.996525
 21
97.955160
 31
0.0
 11
56.655750
 21
99.046055
 31
0.0
 11
56.387794
 21
100.881293
 31
0.0
  0
SPLINE
  5
123
100
AcDbEntity
  8
Layer_1
 62
7
100
AcDbSpline
 70
0
 71
3
 72
13
 73
9
 74
7
 40
0.000000
 40
0.000000
 40
0.000000
 40
0.000000
 40
1.510257
 40
3.177285
 40
5.228937
 40
7.769366
 40
9.324071
 40
9.967964
 40
9.967964
 40
9.967964
 40
9.967964
 10
61.569865
 20
71.203145
 30
0.0
 10
61.533375
 20
71.706150
 30
0.0
 10
61.456607
 20
72.764372
 30
0.0
 10
61.643342
 20
74.504310
 30
0.0
 10
62.008032
 20
76.557628
 30
0.0
 10
62.458342
 20
78.558363
 30
0.0
 10
62.913946
 20
80.072675
 30
0.0
 10
63.171478
 20
80.758881
 30
0.0
 10
63.246900
 20
80.959847
 30
0.0
 11
61.569865
 21
71.203145
 31
0.0
 11
61.503376
 21
72.711938
 31
0.0
 11
61.646461
 21
74.372814
 31
0.0
 11
61.993297
 21
76.394937
 31
0.0
 11
62.566612
 21
78.869829
 31
0.0
 11
63.024593
 21
80.355548
 31
0.0
 11
63.246900
 21
80.959847
 31
0.0
  0
LWPOLYLINE
  5
124
100
AcDbEntity
  8
Layer_1
 62
7
100
AcDbPolyline
 90
2
 70
0
 10
56.387794
 20
100.881293
 30
0.0
 10
56.388330
 20
100.881332
 30
0.0
  0
SPLINE
  5
125
100
AcDbEntity
  8
Layer_1
 62
7
100
AcDbSpline
 70
0
 71
3
 72
25
 73
21
 74
19
 40
0.000000
 40
0.000000
 40
0.000000
 40
0.000000
 40
0.263895
 40
0.992018
 40
2.387809
 40
8.813666
 40
19.086714
 40
26.655855
 40
29.400028
 40
31.535933
 40
33.372556
 40
35.325010
 40
37.766055
 40
40.930546
 40
44.085642
 40
49.438843
 40
56.186873
 40
62.187232
 40
68.459077
 40
74.783186
 40
74.783186
 40
74.783186
 40
74.783186
 10
63.246900
 20
80.959847
 30
0.0
 10
63.332041
 20
80.982082
 30
0.0
 10
63.652094
 20
81.065666
 30
0.0
 10
64.440471
 20
81.183936
 30
0.0
 10
67.270582
 20
81.532141
 30
0.0
 10
73.325827
 20
81.152409
 30
0.0
 10
81.384513
 20
80.832950
 30
0.0
 10
88.261481
 20
80.495996
 30
0.0
 10
92.335035
 20
79.644473
 30
0.0
 10
94.428211
 20
78.801002
 30
0.0
 10
96.040174
 20
77.625546
 30
0.0
 10
97.379881
 20
76.013460
 30
0.0
 10
98.540616
 20
73.765750
 30
0.0
 10
99.570675
 20
71.019830
 30
0.0
 10
100.264979
 20
67.181082
 30
0.0
 10
100.966693
 20
62.147172
 30
0.0
 10
101.599678
 20
56.143932
 30
0.0
 10
102.081127
 20
49.822102
 30
0.0
 10
102.449443
 20
43.633844
 30
0.0
 10
102.622770
 20
39.438716
 30
0.0
 10
102.709794
 20
37.332449
 30
0.0
 11
63.246900
 21
80.959847
 31
0.0
 11
63.502851
 21
81.024114
 31
0.0
 11
64.220240
 21
81.148668
 31
0.0
 11
65.606453
 21
81.311911
 31
0.0
 11
72.032036
 21
81.252487
 31
0.0
 11
82.294139
 21
80.778404
 31
0.0
 11
89.835282
 21
80.127977
 31
0.0
 11
92.510033
 21
79.514635
 31
0.0
 11
94.476029
 21
78.679801
 31
0.0
 11
95.957895
 21
77.594785
 31
0.0
 11
97.221490
 21
76.106361
 31
0.0
 11
98.391244
 21
73.963846
 31
0.0
 11
99.479718
 21
70.992444
 31
0.0
 11
100.118456
 21
67.902679
 31
0.0
 11
100.876427
 21
62.603411
 31
0.0
 11
101.591333
 21
55.893358
 31
0.0
 11
102.058100
 21
49.911181
 31
0.0
 11
102.429529
 21
43.650344
 31
0.0
 11
102.709794
 21
37.332449
 31
0.0
  0
LWPOLYLINE
  5
126
100
AcDbEntity
  8
Layer_1
 62
7
100
AcDbPolyline
 90
2
 70
0
 10
102.709794
 20
37.332449
 30
0.0
 10
80.818550
 20
36.763867
 30
0.0
  0
LWPOLYLINE
  5
127
100
AcDbEntity
  8
Layer_1
 62
7
100
AcDbPolyline
 90
2
 70
0
 10
61.569865
 20
71.203145
 30
0.0
 10
61.569865
 20
71.203145
 30
0.0
  0
SPLINE
  5
128
100
AcDbEntity
  8
Layer_1
 62
7
100
AcDbSpline
 70
0
 71
3
 72
13
 73
9
 74
7
 40
0.000000
 40
0.000000
 40
0.000000
 40
0.000000
 40
2.341424
 40
4.746904
 40
7.285779
 40
24.346401
 40
34.302181
 40
39.587349
 40
39.587349
 40
39.587349
 40
39.587349
 10
80.818550
 20
36.763867
 30
0.0
 10
80.396115
 20
37.420148
 30
0.0
 10
79.539690
 20
38.750666
 30
0.0
 10
78.228946
 20
40.794992
 30
0.0
 10
74.282421
 20
46.979975
 30
0.0
 10
69.203275
 20
55.375254
 30
0.0
 10
63.465492
 20
64.606178
 30
0.0
 10
62.057961
 20
69.504525
 30
0.0
 10
61.569865
 20
71.203145
 30
0.0
 11
80.818550
 21
36.763867
 31
0.0
 11
79.551840
 21
38.733058
 31
0.0
 11
78.253596
 21
40.758126
 31
0.0
 11
76.889316
 21
42.899299
 31
0.0
 11
67.920027
 21
57.411937
 31
0.0
 11
63.190449
 21
66.172568
 31
0.0
 11
61.569865
 21
71.203145
 31
0.0
  0
LWPOLYLINE
  5
129
100
AcDbEntity
  8
Layer_1
 62
7
100
AcDbPolyline
 90
2
 70
0
 10
113.728672
 20
37.618551
 30
0.0
 10
113.728616
 20
37.619116
 30
0.0
  0
LWPOLYLINE
  5
12a
100
AcDbEntity
  8
Layer_1
 62
7
100
AcDbPolyline
 90
2
 70
0
 10
145.887310
 20
38.453774
 30
0.0
 10
113.728672
 20
37.618551
 30
0.0
  0
SPLINE
  5
12b
100
AcDbEntity
  8
Layer_1
 62
7
100
AcDbSpline
 70
0
 71
3
 72
40
 73
36
 74
34
 40
0.000000
 40
0.000000
 40
0.000000
 40
0.000000
 40
3.691448
 40
7.551030
 40
11.793322
 40
22.146948
 40
29.821914
 40
35.149315
 40
38.395483
 40
40.290014
 40
42.002379
 40
42.044551
 40
42.598581
 40
43.511279
 40
44.645633
 40
45.985543
 40
47.494826
 40
50.898710
 40
54.654888
 40
58.570683
 40
61.134567
 40
62.858790
 40
63.842013
 40
64.271103
 40
64.583895
 40
65.275636
 40
66.539051
 40
67.358801
 40
69.223930
 40
73.020297
 40
79.021661
 40
87.517347
 40
95.191224
 40
103.188448
 40
111.170585
 40
111.170585
 40
111.170585
 40
111.170585
 10
113.728616
 20
37.619116
 30
0.0
 10
113.677456
 20
38.848566
 30
0.0
 10
113.572805
 20
41.363464
 30
0.0
 10
113.416522
 20
45.290953
 30
0.0
 10
113.194164
 20
51.442026
 30
0.0
 10
112.982459
 20
58.835094
 30
0.0
 10
113.056500
 20
66.706597
 30
0.0
 10
113.356546
 20
71.934980
 30
0.0
 10
114.181508
 20
75.718914
 30
0.0
 10
114.634235
 20
77.211376
 30
0.0
 10
116.639471
 20
79.279242
 30
0.0
 10
116.355847
 20
78.487440
 30
0.0
 10
117.193344
 20
79.133857
 30
0.0
 10
117.772951
 20
79.194017
 30
0.0
 10
118.937852
 20
79.636708
 30
0.0
 10
120.180432
 20
79.980695
 30
0.0
 10
122.205099
 20
80.538750
 30
0.0
 10
125.009173
 20
81.203478
 30
0.0
 10
128.626748
 20
81.957125
 30
0.0
 10
131.987039
 20
82.552512
 30
0.0
 10
134.689328
 20
82.959923
 30
0.0
 10
136.432130
 20
83.213525
 30
0.0
 10
137.471528
 20
83.278015
 30
0.0
 10
138.051686
 20
83.317859
 30
0.0
 10
138.515438
 20
83.180767
 30
0.0
 10
139.187040
 20
82.842427
 30
0.0
 10
140.159462
 20
82.696783
 30
0.0
 10
141.014181
 20
81.612055
 30
0.0
 10
141.464544
 20
79.472401
 30
0.0
 10
142.416199
 20
75.716678
 30
0.0
 10
143.137433
 20
69.640816
 30
0.0
 10
143.966021
 20
62.305147
 30
0.0
 10
144.696467
 20
54.280055
 30
0.0
 10
145.332724
 20
46.421848
 30
0.0
 10
145.702564
 20
41.108126
 30
0.0
 10
145.887310
 20
38.453774
 30
0.0
 11
113.728616
 21
37.619116
 31
0.0
 11
113.576231
 21
41.307418
 31
0.0
 11
113.423806
 21
45.163989
 31
0.0
 11
113.270930
 21
49.403525
 31
0.0
 11
113.032367
 21
59.754402
 31
0.0
 11
113.133238
 21
67.428705
 31
0.0
 11
113.594727
 21
72.736081
 31
0.0
 11
114.261901
 21
75.912948
 31
0.0
 11
115.127362
 21
77.598244
 31
0.0
 11
116.433594
 21
78.705470
 31
0.0
 11
116.420755
 21
78.665300
 31
0.0
 11
116.924748
 21
78.895389
 31
0.0
 11
117.772840
 21
79.232667
 31
0.0
 11
118.850507
 21
79.586775
 31
0.0
 11
120.135073
 21
79.967892
 31
0.0
 11
121.591493
 21
80.363839
 31
0.0
 11
124.900356
 21
81.162498
 31
0.0
 11
128.577682
 21
81.928100
 31
0.0
 11
132.433466
 21
82.611019
 31
0.0
 11
134.967788
 21
82.999243
 31
0.0
 11
136.677958
 21
83.218924
 31
0.0
 11
137.658526
 21
83.291144
 31
0.0
 11
138.087616
 21
83.291080
 31
0.0
 11
138.390190
 21
83.211788
 31
0.0
 11
139.031043
 21
82.951376
 31
0.0
 11
140.212294
 21
82.503201
 31
0.0
 11
140.751090
 21
81.885390
 31
0.0
 11
141.337789
 21
80.114942
 31
0.0
 11
142.174245
 21
76.411869
 31
0.0
 11
143.033991
 21
70.472407
 31
0.0
 11
143.964829
 21
62.027870
 31
0.0
 11
144.674196
 21
54.386850
 31
0.0
 11
145.318103
 21
46.415590
 31
0.0
 11
145.887310
 21
38.453774
 31
0.0
  0
LWPOLYLINE
  5
12c
100
AcDbEntity
  8
Layer_1
 62
7
100
AcDbPolyline
 90
2
 70
0
 10
108.838114
 20
106.570244
 30
0.0
 10
108.838057
 20
106.570808
 30
0.0
  0
SPLINE
  5
12d
100
AcDbEntity
  8
Layer_1
 62
7
100
AcDbSpline
 70
0
 71
3
 72
19
 73
15
 74
13
 40
0.000000
 40
0.000000
 40
0.000000
 40
0.000000
 40
9.247572
 40
18.085931
 40
24.075633
 40
27.626356
 40
30.278935
 40
33.371982
 40
38.133225
 40
45.266721
 40
55.220709
 40
62.626921
 40
68.275892
 40
72.352111
 40
72.352111
 40
72.352111
 40
72.352111
 10
108.838057
 20
106.570808
 30
0.0
 10
108.593177
 20
109.643829
 30
0.0
 10
108.114252
 20
115.653887
 30
0.0
 10
107.817304
 20
123.676605
 30
0.0
 10
107.860228
 20
129.805389
 30
0.0
 10
108.314991
 20
133.860137
 30
0.0
 10
109.477226
 20
136.802816
 30
0.0
 10
112.024440
 20
139.300289
 30
0.0
 10
116.141456
 20
142.125669
 30
0.0
 10
122.566519
 20
145.585009
 30
0.0
 10
129.903043
 20
149.161767
 30
0.0
 10
136.855884
 20
152.398899
 30
0.0
 10
142.064673
 20
154.746959
 30
0.0
 10
145.105317
 20
155.873188
 30
0.0
 10
146.379774
 20
156.345235
 30
0.0
 11
108.838057
 21
106.570808
 31
0.0
 11
108.170306
 21
115.794240
 31
0.0
 11
107.859450
 21
124.627131
 31
0.0
 11
107.997396
 21
130.615244
 31
0.0
 11
108.526779
 21
134.126282
 31
0.0
 11
109.565944
 21
136.566838
 31
0.0
 11
111.659306
 21
138.843848
 31
0.0
 11
115.526751
 21
141.620951
 31
0.0
 11
121.753346
 21
145.101796
 31
0.0
 11
130.681295
 21
149.503342
 31
0.0
 11
137.394748
 21
152.630884
 31
0.0
 11
142.571110
 21
154.892776
 31
0.0
 11
146.379774
 21
156.345235
 31
0.0
  0
LWPOLYLINE
  5
12e
100
AcDbEntity
  8
Layer_1
 62
7
100
AcDbPolyline
 90
2
 70
0
 10
146.379774
 20
156.345235
 30
0.0
 10
150.808837
 20
157.123844
 30
0.0
  0
SPLINE
  5
12f
100
AcDbEntity
  8
Layer_1
 62
7
100
AcDbSpline
 70
0
 71
3
 72
46
 73
42
 74
40
 40
0.000000
 40
0.000000
 40
0.000000
 40
0.000000
 40
0.147866
 40
0.365891
 40
0.694019
 40
1.558587
 40
2.934285
 40
5.293263
 40
8.944573
 40
14.024369
 40
20.732536
 40
29.990947
 40
36.735399
 40
41.350738
 40
44.125019
 40
45.673943
 40
46.929391
 40
47.520379
 40
49.745161
 40
52.771359
 40
56.073617
 40
59.471336
 40
62.675703
 40
67.634155
 40
73.233582
 40
81.677268
 40
86.426119
 40
90.651176
 40
94.275313
 40
97.251993
 40
99.365597
 40
100.270097
 40
101.536039
 40
103.176728
 40
105.221716
 40
106.586513
 40
109.435765
 40
113.164382
 40
113.715495
 40
114.277051
 40
114.848353
 40
114.848353
 40
114.848353
 40
114.848353
 10
150.808837
 20
157.123844
 30
0.0
 10
150.851489
 20
157.098988
 30
0.0
 10
150.957029
 20
157.037482
 30
0.0
 10
151.133980
 20
156.887244
 30
0.0
 10
151.498373
 20
156.591057
 30
0.0
 10
152.100424
 20
155.970888
 30
0.0
 10
152.821660
 20
154.601842
 30
0.0
 10
153.719204
 20
152.311513
 30
0.0
 10
154.813172
 20
148.775653
 30
0.0
 10
156.133003
 20
143.802003
 30
0.0
 10
157.787097
 20
136.983034
 30
0.0
 10
159.501017
 20
129.612099
 30
0.0
 10
160.979934
 20
122.892646
 30
0.0
 10
161.756049
 20
118.256410
 30
0.0
 10
162.125060
 20
115.275415
 30
0.0
 10
161.984780
 20
113.433834
 30
0.0
 10
161.646450
 20
112.287557
 30
0.0
 10
160.591049
 20
111.404455
 30
0.0
 10
159.433393
 20
109.831777
 30
0.0
 10
157.363993
 20
107.855552
 30
0.0
 10
154.907086
 20
105.743081
 30
0.0
 10
152.315041
 20
103.694426
 30
0.0
 10
149.182075
 20
101.452746
 30
0.0
 10
145.211400
 20
99.102254
 30
0.0
 10
139.147892
 20
97.155935
 30
0.0
 10
133.028282
 20
95.832314
 30
0.0
 10
127.335015
 20
94.690388
 30
0.0
 10
123.190059
 20
94.006665
 30
0.0
 10
119.614079
 20
93.535923
 30
0.0
 10
116.706491
 20
93.325903
 30
0.0
 10
114.719912
 20
93.385171
 30
0.0
 10
113.270529
 20
93.391667
 30
0.0
 10
112.128049
 20
94.061617
 30
0.0
 10
111.008341
 20
95.281842
 30
0.0
 10
110.215457
 20
96.812044
 30
0.0
 10
109.863953
 20
98.875742
 30
0.0
 10
109.411422
 20
101.481049
 30
0.0
 10
109.116230
 20
103.841334
 30
0.0
 10
108.948807
 20
105.446315
 30
0.0
 10
108.892495
 20
106.004817
 30
0.0
 10
108.856699
 20
106.380735
 30
0.0
 10
108.838647
 20
106.570312
 30
0.0
 11
150.808837
 21
157.123844
 31
0.0
 11
150.934791
 21
157.046385
 31
0.0
 11
151.106198
 21
156.911646
 31
0.0
 11
151.357652
 21
156.700841
 31
0.0
 11
151.954722
 21
156.075553
 31
0.0
 11
152.649579
 21
154.888237
 31
0.0
 11
153.540979
 21
152.704162
 31
0.0
 11
154.652168
 21
149.226041
 31
0.0
 11
155.978713
 21
144.322512
 31
0.0
 11
157.577855
 21
137.807740
 31
0.0
 11
159.670716
 21
128.788976
 31
0.0
 11
161.065310
 21
122.190284
 31
0.0
 11
161.817860
 21
117.636711
 31
0.0
 11
162.057383
 21
114.872790
 31
0.0
 11
161.913666
 21
113.330547
 31
0.0
 11
161.444011
 21
112.166256
 31
0.0
 11
161.022161
 21
111.752361
 31
0.0
 11
159.550934
 21
110.083485
 31
0.0
 11
157.415351
 21
107.939386
 31
0.0
 11
154.916389
 21
105.780661
 31
0.0
 11
152.248182
 21
103.677053
 31
0.0
 11
149.635410
 21
101.821954
 31
0.0
 11
145.325107
 21
99.370927
 31
0.0
 11
140.040899
 21
97.518703
 31
0.0
 11
131.818473
 21
95.598406
 31
0.0
 11
127.158407
 21
94.684418
 31
0.0
 11
122.989385
 21
93.998589
 31
0.0
 11
119.393578
 21
93.546337
 31
0.0
 11
116.422471
 21
93.364263
 31
0.0
 11
114.308966
 21
93.384735
 31
0.0
 11
113.407342
 21
93.456808
 31
0.0
 11
112.280993
 21
94.034690
 31
0.0
 11
111.150260
 21
95.223514
 31
0.0
 11
110.232340
 21
97.050916
 31
0.0
 11
109.946959
 21
98.385543
 31
0.0
 11
109.480736
 21
101.196392
 31
0.0
 11
109.006829
 21
104.894769
 31
0.0
 11
108.949480
 21
105.442891
 31
0.0
 11
108.893334
 21
106.001633
 31
0.0
 11
108.838647
 21
106.570312
 31
0.0
  0
SPLINE
  5
130
100
AcDbEntity
  8
Layer_1
 62
7
100
AcDbSpline
 70
0
 71
3
 72
13
 73
9
 74
7
 40
0.000000
 40
0.000000
 40
0.000000
 40
0.000000
 40
5.496093
 40
10.872436
 40
15.907523
 40
22.807214
 40
28.580272
 40
33.208102
 40
33.208102
 40
33.208102
 40
33.208102
 10
156.533105
 20
38.731221
 30
0.0
 10
156.388797
 20
40.557561
 30
0.0
 10
156.103326
 20
44.170449
 30
0.0
 10
155.710444
 20
49.458407
 30
0.0
 10
155.340500
 20
55.217133
 30
0.0
 10
155.054950
 20
61.112733
 30
0.0
 10
154.851559
 20
66.877359
 30
0.0
 10
154.881070
 20
70.344547
 30
0.0
 10
154.894201
 20
71.887258
 30
0.0
 11
156.533105
 21
38.731221
 31
0.0
 11
156.104512
 21
44.210578
 31
0.0
 11
155.711254
 21
49.572519
 31
0.0
 11
155.391488
 21
54.597441
 31
0.0
 11
155.053196
 21
61.488834
 31
0.0
 11
154.884859
 21
67.259437
 31
0.0
 11
154.894201
 21
71.887258
 31
0.0
  0
LWPOLYLINE
  5
131
100
AcDbEntity
  8
Layer_1
 62
7
100
AcDbPolyline
 90
2
 70
0
 10
108.838647
 20
106.570312
 30
0.0
 10
108.838114
 20
106.570244
 30
0.0
  0
SPLINE
  5
132
100
AcDbEntity
  8
Layer_1
 62
7
100
AcDbSpline
 70
0
 71
3
 72
16
 73
12
 74
10
 40
0.000000
 40
0.000000
 40
0.000000
 40
0.000000
 40
1.159598
 40
2.399432
 40
3.746969
 40
11.252032
 40
20.733143
 40
32.198081
 40
33.905105
 40
35.410690
 40
36.949224
 40
36.949224
 40
36.949224
 40
36.949224
 10
154.894201
 20
71.887258
 30
0.0
 10
155.099268
 20
71.559603
 30
0.0
 10
155.523591
 20
70.881623
 30
0.0
 10
156.171053
 20
69.813489
 30
0.0
 10
157.870007
 20
66.909740
 30
0.0
 10
160.782850
 20
61.535364
 30
0.0
 10
165.114018
 20
53.098569
 30
0.0
 10
168.491733
 20
46.344773
 30
0.0
 10
170.633406
 20
41.945801
 30
0.0
 10
171.303977
 20
40.511021
 30
0.0
 10
171.741267
 20
39.595374
 30
0.0
 10
171.962278
 20
39.132595
 30
0.0
 11
154.894201
 21
71.887258
 31
0.0
 11
155.507134
 21
70.902889
 31
0.0
 11
156.149795
 21
69.842618
 31
0.0
 11
156.831513
 21
68.680243
 31
0.0
 11
160.446856
 21
62.103369
 31
0.0
 11
164.798602
 21
53.679964
 31
0.0
 11
169.914852
 21
43.419906
 31
0.0
 11
170.658467
 21
41.883362
 31
0.0
 11
171.301197
 21
40.521860
 31
0.0
 11
171.962278
 21
39.132595
 31
0.0
  0
SPLINE
  5
133
100
AcDbEntity
  8
Layer_1
 62
7
100
AcDbSpline
 70
0
 71
3
 72
10
 73
6
 74
4
 40
0.000000
 40
0.000000
 40
0.000000
 40
0.000000
 40
0.675237
 40
1.126800
 40
1.390475
 40
1.390475
 40
1.390475
 40
1.390475
 10
159.311978
 20
90.467598
 30
0.0
 10
159.290807
 20
90.691690
 30
0.0
 10
159.255478
 20
91.065643
 30
0.0
 10
159.226290
 20
91.528305
 30
0.0
 10
159.217551
 20
91.766561
 30
0.0
 10
159.214329
 20
91.854395
 30
0.0
 11
159.311978
 21
90.467598
 31
0.0
 11
159.252658
 21
91.140224
 31
0.0
 11
159.224847
 21
91.590929
 31
0.0
 11
159.214329
 21
91.854395
 31
0.0
  0
LWPOLYLINE
  5
134
100
AcDbEntity
  8
Layer_1
 62
7
100
AcDbPolyline
 90
2
 70
0
 10
171.962278
 20
39.132595
 30
0.0
 10
156.533105
 20
38.731221
 30
0.0
  0
LWPOLYLINE
  5
135
100
AcDbEntity
  8
Layer_1
 62
7
100
AcDbPolyline
 90
2
 70
0
 10
170.876443
 20
101.936361
 30
0.0
 10
170.876443
 20
101.936361
 30
0.0
  0
LWPOLYLINE
  5
136
100
AcDbEntity
  8
Layer_1
 62
7
100
AcDbPolyline
 90
2
 70
0
 10
173.704772
 20
102.414146
 30
0.0
 10
173.704772
 20
102.414146
 30
0.0
  0
SPLINE
  5
137
100
AcDbEntity
  8
Layer_1
 62
7
100
AcDbSpline
 70
0
 71
3
 72
34
 73
30
 74
28
 40
0.000000
 40
0.000000
 40
0.000000
 40
0.000000
 40
0.266145
 40
0.726012
 40
1.417532
 40
3.187140
 40
5.832784
 40
8.825409
 40
11.784213
 40
14.233163
 40
15.495606
 40
16.073228
 40
17.279683
 40
18.367099
 40
20.223583
 40
24.245602
 40
29.232836
 40
34.331756
 40
38.970921
 40
42.381328
 40
45.185384
 40
46.853719
 40
48.147479
 40
50.111807
 40
53.476035
 40
58.487236
 40
70.773303
 40
87.755446
 40
102.027019
 40
102.027019
 40
102.027019
 40
102.027019
 10
159.214329
 20
91.854395
 30
0.0
 10
159.265070
 20
91.927173
 30
0.0
 10
159.403486
 20
92.125700
 30
0.0
 10
159.685207
 20
92.505046
 30
0.0
 10
160.276946
 20
93.279017
 30
0.0
 10
161.466233
 20
94.502238
 30
0.0
 10
163.260805
 20
96.198250
 30
0.0
 10
165.426189
 20
98.072603
 30
0.0
 10
167.636635
 20
99.812181
 30
0.0
 10
169.491415
 20
100.996671
 30
0.0
 10
170.636391
 20
101.927979
 30
0.0
 10
171.650990
 20
102.095947
 30
0.0
 10
172.578805
 20
102.301143
 30
0.0
 10
173.963184
 20
102.502349
 30
0.0
 10
176.254029
 20
101.956998
 30
0.0
 10
179.817517
 20
101.409018
 30
0.0
 10
184.413212
 20
100.364767
 30
0.0
 10
189.163312
 20
99.134604
 30
0.0
 10
193.378052
 20
97.934093
 30
0.0
 10
196.817890
 20
96.793126
 30
0.0
 10
199.238891
 20
95.793669
 30
0.0
 10
200.941365
 20
94.831140
 30
0.0
 10
201.928859
 20
93.469002
 30
0.0
 10
202.526786
 20
91.319274
 30
0.0
 10
203.056208
 20
87.917956
 30
0.0
 10
203.644286
 20
81.046039
 30
0.0
 10
203.642716
 20
69.613269
 30
0.0
 10
203.563797
 20
55.100742
 30
0.0
 10
203.136054
 20
44.690547
 30
0.0
 10
202.940731
 20
39.936877
 30
0.0
 11
159.214329
 21
91.854395
 31
0.0
 11
159.367342
 21
92.072157
 31
0.0
 11
159.639874
 21
92.442568
 31
0.0
 11
160.064433
 21
92.988415
 31
0.0
 11
161.268862
 21
94.284897
 31
0.0
 11
163.188693
 21
96.105247
 31
0.0
 11
165.451655
 21
98.063516
 31
0.0
 11
167.794972
 21
99.870000
 31
0.0
 11
169.803387
 21
101.271294
 31
0.0
 11
170.876443
 21
101.936361
 31
0.0
 11
171.439711
 21
102.064330
 31
0.0
 11
172.623895
 21
102.295067
 31
0.0
 11
173.704772
 21
102.414146
 31
0.0
 11
175.541328
 21
102.142867
 31
0.0
 11
179.497002
 21
101.415347
 31
0.0
 11
184.369021
 21
100.349550
 31
0.0
 11
189.306198
 21
99.075469
 31
0.0
 11
193.762252
 21
97.784955
 31
0.0
 11
196.991709
 21
96.688834
 31
0.0
 11
199.566829
 21
95.579106
 31
0.0
 11
200.962876
 21
94.665656
 31
0.0
 11
201.737852
 21
93.629689
 31
0.0
 11
202.372085
 21
91.770568
 31
0.0
 11
202.941150
 21
88.454818
 31
0.0
 11
203.395837
 21
83.464287
 31
0.0
 11
203.633819
 21
71.180526
 31
0.0
 11
203.449321
 21
54.199385
 31
0.0
 11
202.940731
 21
39.936877
 31
0.0
  0
LWPOLYLINE
  5
138
100
AcDbEntity
  8
Layer_1
 62
7
100
AcDbPolyline
 90
2
 70
0
 10
202.940731
 20
39.936877
 30
0.0
 10
183.340335
 20
39.427607
 30
0.0
  0
LWPOLYLINE
  5
139
100
AcDbEntity
  8
Layer_1
 62
7
100
AcDbPolyline
 90
2
 70
0
 10
159.310883
 20
90.467485
 30
0.0
 10
159.311978
 20
90.467598
 30
0.0
  0
SPLINE
  5
13a
100
AcDbEntity
  8
Layer_1
 62
7
100
AcDbSpline
 70
0
 71
3
 72
13
 73
9
 74
7
 40
0.000000
 40
0.000000
 40
0.000000
 40
0.000000
 40
6.807457
 40
15.293490
 40
25.865773
 40
42.436645
 40
51.877176
 40
56.512788
 40
56.512788
 40
56.512788
 40
56.512788
 10
183.340335
 20
39.427607
 30
0.0
 10
182.269866
 20
41.428488
 30
0.0
 10
179.864973
 20
45.923624
 30
0.0
 10
175.931307
 20
53.595134
 30
0.0
 10
170.535349
 20
64.181288
 30
0.0
 10
165.257904
 20
75.145524
 30
0.0
 10
160.790698
 20
84.397127
 30
0.0
 10
159.677489
 20
88.963627
 30
0.0
 10
159.310883
 20
90.467485
 30
0.0
 11
183.340335
 21
39.427607
 31
0.0
 11
180.144593
 21
45.438322
 31
0.0
 11
176.250973
 21
52.978381
 31
0.0
 11
171.473433
 21
62.409620
 31
0.0
 11
164.213402
 21
77.305450
 31
0.0
 11
160.512495
 21
85.990317
 31
0.0
 11
159.310883
 21
90.467485
 31
0.0
  0
LWPOLYLINE
  5
13b
100
AcDbEntity
  8
Layer_1
 62
7
100
AcDbPolyline
 90
2
 70
0
 10
165.238009
 20
159.661823
 30
0.0
 10
199.324079
 20
165.656415
 30
0.0
  0
SPLINE
  5
13c
100
AcDbEntity
  8
Layer_1
 62
7
100
AcDbSpline
 70
0
 71
3
 72
46
 73
42
 74
40
 40
0.000000
 40
0.000000
 40
0.000000
 40
0.000000
 40
11.379821
 40
19.708682
 40
25.601354
 40
29.989599
 40
33.758157
 40
38.111858
 40
42.695511
 40
47.054066
 40
51.027400
 40
54.489137
 40
57.165957
 40
58.673896
 40
59.465528
 40
59.908837
 40
60.085274
 40
60.176921
 40
60.425748
 40
61.022589
 40
63.595923
 40
68.088350
 40
74.621332
 40
81.536298
 40
86.598799
 40
90.223520
 40
92.984088
 40
95.675400
 40
99.058251
 40
106.782291
 40
115.231451
 40
120.963585
 40
123.741777
 40
125.825969
 40
128.975685
 40
134.529341
 40
143.175228
 40
155.529430
 40
160.967560
 40
165.507611
 40
169.432267
 40
169.432267
 40
169.432267
 40
169.432267
 10
199.324079
 20
165.656415
 30
0.0
 10
202.599553
 20
163.743403
 30
0.0
 10
208.272338
 20
160.430263
 30
0.0
 10
215.530904
 20
155.936952
 30
0.0
 10
220.616360
 20
152.379310
 30
0.0
 10
224.163904
 20
149.290890
 30
0.0
 10
226.741031
 20
145.985672
 30
0.0
 10
228.861197
 20
142.314736
 30
0.0
 10
231.022928
 20
138.446506
 30
0.0
 10
233.003254
 20
134.622605
 30
0.0
 10
234.718247
 20
131.085183
 30
0.0
 10
236.058385
 20
127.988901
 30
0.0
 10
236.942640
 20
125.601575
 30
0.0
 10
237.469022
 20
124.020755
 30
0.0
 10
237.593245
 20
123.113400
 30
0.0
 10
237.623509
 20
122.641966
 30
0.0
 10
237.599666
 20
122.405816
 30
0.0
 10
237.557979
 20
122.236735
 30
0.0
 10
237.343542
 20
121.995959
 30
0.0
 10
236.540664
 20
121.201772
 30
0.0
 10
234.350796
 20
119.821537
 30
0.0
 10
230.396005
 20
117.642974
 30
0.0
 10
225.012038
 20
115.016911
 30
0.0
 10
219.422858
 20
112.409366
 30
0.0
 10
214.632886
 20
110.375465
 30
0.0
 10
211.002702
 20
109.177587
 30
0.0
 10
208.002687
 20
108.661972
 30
0.0
 10
205.044301
 20
108.795277
 30
0.0
 10
200.512894
 20
109.605990
 30
0.0
 10
194.179987
 20
111.152147
 30
0.0
 10
187.124551
 20
113.073983
 30
0.0
 10
181.774388
 20
114.846691
 30
0.0
 10
178.433986
 20
116.089365
 30
0.0
 10
176.384960
 20
117.907870
 30
0.0
 10
174.926229
 20
121.262051
 30
0.0
 10
172.981389
 20
126.680110
 30
0.0
 10
170.740106
 20
135.266962
 30
0.0
 10
168.618876
 20
143.812453
 30
0.0
 10
166.919894
 20
151.061153
 30
0.0
 10
165.946972
 20
155.592988
 30
0.0
 10
165.462592
 20
158.372913
 30
0.0
 10
165.238009
 20
159.661823
 30
0.0
 11
199.324079
 21
165.656415
 31
0.0
 11
209.122187
 21
159.868723
 31
0.0
 11
216.171598
 21
155.432988
 31
0.0
 11
220.957340
 21
151.994929
 31
0.0
 11
224.210584
 21
149.049916
 31
0.0
 11
226.552068
 21
146.097040
 31
0.0
 11
228.813752
 21
142.376892
 31
0.0
 11
231.037776
 21
138.368950
 31
0.0
 11
233.044280
 21
134.499720
 31
0.0
 11
234.765280
 21
130.918444
 31
0.0
 11
236.129440
 21
127.736826
 31
0.0
 11
237.060918
 21
125.227301
 31
0.0
 11
237.484979
 21
123.780217
 31
0.0
 11
237.596919
 21
122.996540
 31
0.0
 11
237.611804
 21
122.553481
 31
0.0
 11
237.591352
 21
122.378233
 31
0.0
 11
237.567001
 21
122.289880
 31
0.0
 11
237.422717
 21
122.087156
 31
0.0
 11
236.999074
 21
121.666745
 31
0.0
 11
234.894529
 21
120.185888
 31
0.0
 11
230.972448
 21
117.995186
 31
0.0
 11
225.120821
 21
115.090307
 31
0.0
 11
218.843314
 21
112.190365
 31
0.0
 11
214.161677
 21
110.263920
 31
0.0
 11
210.701072
 21
109.185583
 31
0.0
 11
207.973735
 21
108.758535
 31
0.0
 11
205.283564
 21
108.836912
 31
0.0
 11
201.943276
 21
109.371847
 31
0.0
 11
194.421246
 21
111.126802
 31
0.0
 11
186.282758
 21
113.396890
 31
0.0
 11
180.843180
 21
115.204751
 31
0.0
 11
178.309705
 21
116.344862
 31
0.0
 11
176.757482
 21
117.735711
 31
0.0
 11
175.277656
 21
120.516148
 31
0.0
 11
173.388180
 21
125.738500
 31
0.0
 11
171.067959
 21
134.067242
 31
0.0
 11
168.099630
 21
146.059545
 31
0.0
 11
166.869641
 21
151.356750
 31
0.0
 11
165.934969
 21
155.799549
 31
0.0
 11
165.238009
 21
159.661823
 31
0.0
  0
LWPOLYLINE
  5
13d
100
AcDbEntity
  8
Layer_1
 62
7
100
AcDbPolyline
 90
2
 70
0
 10
165.238009
 20
159.661823
 30
0.0
 10
165.238009
 20
159.661823
 30
0.0
  0
SPLINE
  5
13e
100
AcDbEntity
  8
Layer_1
 62
7
100
AcDbSpline
 70
0
 71
3
 72
37
 73
33
 74
31
 40
0.000000
 40
0.000000
 40
0.000000
 40
0.000000
 40
5.055642
 40
11.129707
 40
18.556397
 40
33.245070
 40
43.563887
 40
50.259161
 40
54.188205
 40
56.919584
 40
60.451456
 40
63.529964
 40
67.429694
 40
71.607508
 40
75.648019
 40
78.921421
 40
80.555450
 40
81.941519
 40
82.510578
 40
83.500575
 40
85.790165
 40
89.697661
 40
95.267289
 40
99.858533
 40
108.197695
 40
118.685876
 40
129.881337
 40
140.504067
 40
149.197525
 40
149.677208
 40
150.179875
 40
150.672359
 40
150.672359
 40
150.672359
 40
150.672359
 10
214.722064
 20
40.243001
 30
0.0
 10
214.710316
 20
41.928198
 30
0.0
 10
214.684453
 20
45.638064
 30
0.0
 10
214.720477
 20
51.823355
 30
0.0
 10
214.832319
 20
61.220515
 30
0.0
 10
215.054495
 20
72.020779
 30
0.0
 10
215.456738
 20
82.606740
 30
0.0
 10
216.333518
 20
89.503853
 30
0.0
 10
217.312349
 20
93.927880
 30
0.0
 10
219.448092
 20
96.689181
 30
0.0
 10
222.152482
 20
98.293045
 30
0.0
 10
225.151297
 20
100.090783
 30
0.0
 10
228.470278
 20
101.777955
 30
0.0
 10
232.105758
 20
103.539223
 30
0.0
 10
235.636026
 20
105.025581
 30
0.0
 10
238.416363
 20
106.118150
 30
0.0
 10
240.413639
 20
106.745575
 30
0.0
 10
241.560908
 20
107.118938
 30
0.0
 10
242.592670
 20
106.971059
 30
0.0
 10
243.278582
 20
105.755287
 30
0.0
 10
244.571638
 20
103.826419
 30
0.0
 10
245.971557
 20
100.087257
 30
0.0
 10
247.501518
 20
95.679573
 30
0.0
 10
249.009192
 20
89.688447
 30
0.0
 10
250.899986
 20
82.119955
 30
0.0
 10
253.236477
 20
72.386818
 30
0.0
 10
255.717292
 20
61.908000
 30
0.0
 10
257.964829
 20
51.989376
 30
0.0
 10
259.486642
 20
45.566945
 30
0.0
 10
260.102909
 20
42.400706
 30
0.0
 10
260.177227
 20
41.914659
 30
0.0
 10
260.236624
 20
41.588293
 30
0.0
 10
260.266019
 20
41.426779
 30
0.0
 11
214.722064
 21
40.243001
 31
0.0
 11
214.696614
 21
45.298579
 31
0.0
 11
214.723388
 21
51.372585
 31
0.0
 11
214.810696
 21
58.798762
 31
0.0
 11
215.134796
 21
73.483859
 31
0.0
 11
215.685309
 21
83.787980
 31
0.0
 11
216.581914
 21
90.422947
 31
0.0
 11
217.715935
 21
94.184780
 31
0.0
 11
219.375584
 21
96.354111
 31
0.0
 11
222.275863
 21
98.369676
 31
0.0
 11
224.933520
 21
99.923404
 31
0.0
 11
228.392254
 21
101.724808
 31
0.0
 11
232.162231
 21
103.525196
 31
0.0
 11
235.879546
 21
105.108642
 31
0.0
 11
238.940235
 21
106.269393
 31
0.0
 11
240.494357
 21
106.774124
 31
0.0
 11
241.852211
 21
107.052368
 31
0.0
 11
242.409456
 21
106.937010
 31
0.0
 11
243.047472
 21
106.180024
 31
0.0
 11
244.229003
 21
104.218849
 31
0.0
 11
245.757342
 21
100.622641
 31
0.0
 11
247.524707
 21
95.340864
 31
0.0
 11
248.702519
 21
90.903265
 31
0.0
 11
250.715709
 21
82.810757
 31
0.0
 11
253.176191
 21
72.615270
 31
0.0
 11
255.743299
 21
61.718100
 31
0.0
 11
258.125716
 21
51.365976
 31
0.0
 11
260.009459
 21
42.879061
 31
0.0
 11
260.098330
 21
42.407682
 31
0.0
 11
260.180101
 21
41.911711
 31
0.0
 11
260.266019
 21
41.426779
 31
0.0
  0
LWPOLYLINE
  5
13f
100
AcDbEntity
  8
Layer_1
 62
7
100
AcDbPolyline
 90
2
 70
0
 10
260.266019
 20
41.426779
 30
0.0
 10
214.722064
 20
40.243001
 30
0.0
  0
SPLINE
  5
140
100
AcDbEntity
  8
Layer_1
 62
7
100
AcDbSpline
 70
0
 71
3
 72
13
 73
9
 74
7
 40
0.000000
 40
0.000000
 40
0.000000
 40
0.000000
 40
0.603311
 40
1.212948
 40
1.832684
 40
4.572374
 40
8.804882
 40
13.978678
 40
13.978678
 40
13.978678
 40
13.978678
 10
236.380892
 20
158.325035
 30
0.0
 10
236.365112
 20
158.525530
 30
0.0
 10
236.333386
 20
158.928622
 30
0.0
 10
236.304107
 20
159.538884
 30
0.0
 10
236.267347
 20
160.861596
 30
0.0
 10
236.379110
 20
163.392099
 30
0.0
 10
236.613777
 20
167.432979
 30
0.0
 10
236.849751
 20
170.559777
 30
0.0
 10
236.979545
 20
172.279626
 30
0.0
 11
236.380892
 21
158.325035
 31
0.0
 11
236.336606
 21
158.926719
 31
0.0
 11
236.306298
 21
159.535602
 31
0.0
 11
236.289723
 21
160.155117
 31
0.0
 11
236.362085
 21
162.893851
 31
0.0
 11
236.606573
 21
167.119292
 31
0.0
 11
236.979545
 21
172.279626
 31
0.0
  0
LWPOLYLINE
  5
141
100
AcDbEntity
  8
Layer_1
 62
7
100
AcDbPolyline
 90
2
 70
0
 10
236.979545
 20
172.279626
 30
0.0
 10
257.182425
 20
175.832575
 30
0.0
  0
SPLINE
  5
142
100
AcDbEntity
  8
Layer_1
 62
7
100
AcDbSpline
 70
0
 71
3
 72
34
 73
30
 74
28
 40
0.000000
 40
0.000000
 40
0.000000
 40
0.000000
 40
7.432881
 40
14.825061
 40
21.853973
 40
29.138995
 40
34.831890
 40
38.120853
 40
40.278614
 40
41.931489
 40
43.067931
 40
43.703268
 40
44.057354
 40
44.468401
 40
46.586551
 40
50.966453
 40
57.764171
 40
62.653419
 40
65.403217
 40
66.890509
 40
67.272172
 40
68.147254
 40
70.077586
 40
73.363800
 40
78.019180
 40
84.157889
 40
91.918527
 40
97.493094
 40
101.914677
 40
101.914677
 40
101.914677
 40
101.914677
 10
257.182425
 20
175.832575
 30
0.0
 10
258.175650
 20
173.562742
 30
0.0
 10
260.156660
 20
169.035503
 30
0.0
 10
263.028691
 20
162.340744
 30
0.0
 10
265.837432
 20
155.673037
 30
0.0
 10
268.361620
 20
149.498927
 30
0.0
 10
270.325787
 20
144.447270
 30
0.0
 10
271.628660
 20
140.964975
 30
0.0
 10
272.222185
 20
138.672985
 30
0.0
 10
272.570692
 20
137.057749
 30
0.0
 10
272.668733
 20
135.919792
 30
0.0
 10
272.682376
 20
135.208217
 30
0.0
 10
272.553701
 20
134.748037
 30
0.0
 10
271.900397
 20
134.018121
 30
0.0
 10
269.882835
 20
132.856786
 30
0.0
 10
265.844628
 20
131.048779
 30
0.0
 10
260.780910
 20
129.277881
 30
0.0
 10
256.182814
 20
127.847161
 30
0.0
 10
253.219804
 20
127.161680
 30
0.0
 10
251.660394
 20
127.070257
 30
0.0
 10
250.762741
 20
127.312152
 30
0.0
 10
250.005428
 20
128.115939
 30
0.0
 10
248.755802
 20
129.683299
 30
0.0
 10
246.999106
 20
132.491877
 30
0.0
 10
244.750358
 20
136.602873
 30
0.0
 10
241.955162
 20
142.127039
 30
0.0
 10
239.198136
 20
147.994146
 30
0.0
 10
237.067304
 20
153.555790
 30
0.0
 10
236.591399
 20
156.862419
 30
0.0
 10
236.380892
 20
158.325035
 30
0.0
 11
257.182425
 21
175.832575
 31
0.0
 11
260.153875
 21
169.019485
 31
0.0
 11
263.068775
 21
162.226275
 31
0.0
 11
265.793135
 21
155.746811
 31
0.0
 11
268.540329
 21
148.999629
 31
0.0
 11
270.602386
 21
143.693314
 31
0.0
 11
271.694712
 21
140.591040
 31
0.0
 11
272.248323
 21
138.505507
 31
0.0
 11
272.566114
 21
136.883470
 31
0.0
 11
272.666889
 21
135.751505
 31
0.0
 11
272.644079
 21
135.116578
 31
0.0
 11
272.536862
 21
134.779115
 31
0.0
 11
272.282827
 21
134.455964
 31
0.0
 11
270.535218
 21
133.259125
 31
0.0
 11
266.559329
 21
131.421778
 31
0.0
 11
260.166245
 21
129.111488
 31
0.0
 11
255.482103
 21
127.710215
 31
0.0
 11
252.786783
 21
127.165569
 31
0.0
 11
251.299528
 21
127.176135
 31
0.0
 11
250.934527
 21
127.287670
 31
0.0
 11
250.265042
 21
127.851194
 31
0.0
 11
249.053367
 21
129.353866
 31
0.0
 11
247.267550
 21
132.112500
 31
0.0
 11
245.005455
 21
136.181344
 31
0.0
 11
242.224092
 21
141.653799
 31
0.0
 11
238.986081
 21
148.706656
 31
0.0
 11
237.153996
 21
153.971565
 31
0.0
 11
236.380892
 21
158.325035
 31
0.0
  0
SPLINE
  5
143
100
AcDbEntity
  8
Layer_1
 62
7
100
AcDbSpline
 70
0
 71
3
 72
22
 73
18
 74
16
 40
0.000000
 40
0.000000
 40
0.000000
 40
0.000000
 40
2.514294
 40
4.200838
 40
5.386355
 40
6.552364
 40
7.257961
 40
8.752225
 40
11.844328
 40
16.806457
 40
23.901964
 40
30.541854
 40
35.168147
 40
39.371932
 40
41.151669
 40
42.227671
 40
42.892798
 40
42.892798
 40
42.892798
 40
42.892798
 10
257.444556
 20
107.083860
 30
0.0
 10
257.378786
 20
107.918031
 30
0.0
 10
257.268899
 20
109.311750
 30
0.0
 10
257.302359
 20
111.125224
 30
0.0
 10
257.659638
 20
112.419268
 30
0.0
 10
257.819277
 20
113.453119
 30
0.0
 10
258.553700
 20
114.347293
 30
0.0
 10
260.195354
 20
115.077877
 30
0.0
 10
263.027048
 20
116.489099
 30
0.0
 10
267.806283
 20
118.181638
 30
0.0
 10
273.682872
 20
120.233267
 30
0.0
 10
279.493483
 20
122.162655
 30
0.0
 10
284.480372
 20
123.505933
 30
0.0
 10
287.986761
 20
124.010573
 30
0.0
 10
290.325754
 20
124.265281
 30
0.0
 10
291.495205
 20
124.367138
 30
0.0
 10
292.074773
 20
124.398194
 30
0.0
 10
292.296173
 20
124.410058
 30
0.0
 11
257.444556
 21
107.083860
 31
0.0
 11
257.295959
 21
109.593759
 31
0.0
 11
257.386946
 21
111.277847
 31
0.0
 11
257.639693
 21
112.436108
 31
0.0
 11
257.963890
 21
113.556141
 31
0.0
 11
258.402441
 21
114.108898
 31
0.0
 11
259.693029
 21
114.862029
 31
0.0
 11
262.494919
 21
116.169895
 31
0.0
 11
267.130887
 21
117.939225
 31
0.0
 11
273.833971
 21
120.266214
 31
0.0
 11
280.153806
 21
122.302837
 31
0.0
 11
284.636268
 21
123.447442
 31
0.0
 11
288.790352
 21
124.091954
 31
0.0
 11
290.559833
 21
124.282741
 31
0.0
 11
291.632156
 21
124.371648
 31
0.0
 11
292.296173
 21
124.410058
 31
0.0
  0
SPLINE
  5
144
100
AcDbEntity
  8
Layer_1
 62
7
100
AcDbSpline
 70
0
 71
3
 72
22
 73
18
 74
16
 40
0.000000
 40
0.000000
 40
0.000000
 40
0.000000
 40
0.603005
 40
1.471127
 40
2.667938
 40
6.204595
 40
11.211168
 40
17.875075
 40
29.677560
 40
37.011937
 40
40.966739
 40
46.849792
 40
55.798340
 40
70.318673
 40
76.190003
 40
80.470629
 40
83.232859
 40
83.232859
 40
83.232859
 40
83.232859
 10
292.296173
 20
124.410058
 30
0.0
 10
292.353864
 20
124.217458
 30
0.0
 10
292.494610
 20
123.747580
 30
0.0
 10
292.683106
 20
122.877618
 30
0.0
 10
292.995812
 20
121.036509
 30
0.0
 10
293.342360
 20
117.806069
 30
0.0
 10
293.736307
 20
112.752603
 30
0.0
 10
294.205877
 20
104.942687
 30
0.0
 10
294.632596
 20
96.348003
 30
0.0
 10
294.773157
 20
88.660574
 30
0.0
 10
294.470746
 20
82.912883
 30
0.0
 10
292.248000
 20
76.957431
 30
0.0
 10
287.053538
 20
68.652892
 30
0.0
 10
281.331613
 20
60.714867
 30
0.0
 10
276.365569
 20
54.161854
 30
0.0
 10
273.681854
 20
50.790459
 30
0.0
 10
272.064717
 20
49.087528
 30
0.0
 10
271.430471
 20
48.419633
 30
0.0
 11
292.296173
 21
124.410058
 31
0.0
 11
292.463061
 21
123.830607
 31
0.0
 11
292.654472
 21
122.983849
 31
0.0
 11
292.859065
 21
121.804656
 31
0.0
 11
293.275897
 21
118.292648
 31
0.0
 11
293.680699
 21
113.302468
 31
0.0
 11
294.094747
 21
106.651436
 31
0.0
 11
294.630414
 21
94.861113
 31
0.0
 11
294.680809
 21
87.526910
 31
0.0
 11
294.344598
 21
83.586424
 31
0.0
 11
292.473825
 21
78.008744
 31
0.0
 11
287.978005
 21
70.271554
 31
0.0
 11
279.580157
 21
58.426040
 31
0.0
 11
276.023214
 21
53.754779
 31
0.0
 11
273.309589
 21
50.444190
 31
0.0
 11
271.430471
 21
48.419633
 31
0.0
  0
LWPOLYLINE
  5
145
100
AcDbEntity
  8
Layer_1
 62
7
100
AcDbPolyline
 90
2
 70
0
 10
236.380892
 20
158.325035
 30
0.0
 10
236.380892
 20
158.325035
 30
0.0
  0
SPLINE
  5
146
100
AcDbEntity
  8
Layer_1
 62
7
100
AcDbSpline
 70
0
 71
3
 72
16
 73
12
 74
10
 40
0.000000
 40
0.000000
 40
0.000000
 40
0.000000
 40
1.122988
 40
2.782042
 40
5.182146
 40
10.687860
 40
18.333558
 40
28.439198
 40
43.402270
 40
53.767476
 40
60.398854
 40
60.398854
 40
60.398854
 40
60.398854
 10
271.430471
 20
48.419633
 30
0.0
 10
271.261319
 20
48.753750
 30
0.0
 10
270.842269
 20
49.581477
 30
0.0
 10
270.218988
 20
51.195254
 30
0.0
 10
269.222023
 20
54.223792
 30
0.0
 10
267.849807
 20
59.225203
 30
0.0
 10
265.963823
 20
66.744061
 30
0.0
 10
263.446363
 20
77.355429
 30
0.0
 10
260.829147
 20
88.870102
 30
0.0
 10
258.536930
 20
99.281747
 30
0.0
 10
257.751140
 20
104.894134
 30
0.0
 10
257.444556
 20
107.083860
 30
0.0
 11
271.430471
 21
48.419633
 31
0.0
 11
270.936773
 21
49.428279
 31
0.0
 11
270.318996
 21
50.968023
 31
0.0
 11
269.557381
 21
53.244081
 31
0.0
 11
268.055098
 21
58.540875
 31
0.0
 11
266.176942
 21
65.952301
 31
0.0
 11
263.832746
 21
75.782291
 31
0.0
 11
260.508454
 21
90.371417
 31
0.0
 11
258.430257
 21
100.526150
 31
0.0
 11
257.444556
 21
107.083860
 31
0.0
  0
SPLINE
  5
147
100
AcDbEntity
  8
Layer_1
 62
7
100
AcDbSpline
 70
0
 71
3
 72
16
 73
12
 74
10
 40
0.000000
 40
0.000000
 40
0.000000
 40
0.000000
 40
3.624396
 40
7.803455
 40
12.592863
 40
19.275174
 40
24.174021
 40
27.529343
 40
29.156247
 40
30.084308
 40
30.619769
 40
30.619769
 40
30.619769
 40
30.619769
 10
281.138912
 20
41.969041
 30
0.0
 10
281.832555
 20
42.958226
 30
0.0
 10
283.325992
 20
45.087977
 30
0.0
 10
285.796644
 20
48.481746
 30
0.0
 10
288.890502
 20
52.681924
 30
0.0
 10
292.151621
 20
57.058678
 30
0.0
 10
295.192260
 20
60.997847
 30
0.0
 10
297.294471
 20
63.542860
 30
0.0
 10
298.652606
 20
64.961057
 30
0.0
 10
299.395030
 20
65.691738
 30
0.0
 10
299.830773
 20
65.915477
 30
0.0
 10
299.990200
 20
65.997336
 30
0.0
 11
281.138912
 21
41.969041
 31
0.0
 11
283.227942
 21
44.930832
 31
0.0
 11
285.679790
 21
48.315055
 31
0.0
 11
288.519362
 21
52.171902
 31
0.0
 11
292.523728
 21
57.521512
 31
0.0
 11
295.533167
 21
61.386997
 31
0.0
 11
297.700700
 21
63.948245
 31
0.0
 11
298.824011
 21
65.125100
 31
0.0
 11
299.523187
 21
65.735388
 31
0.0
 11
299.990200
 21
65.997336
 31
0.0
  0
LWPOLYLINE
  5
148
100
AcDbEntity
  8
Layer_1
 62
7
100
AcDbPolyline
 90
2
 70
0
 10
257.444556
 20
107.083860
 30
0.0
 10
257.444556
 20
107.083860
 30
0.0
  0
LWPOLYLINE
  5
149
100
AcDbEntity
  8
Layer_1
 62
7
100
AcDbPolyline
 90
2
 70
0
 10
313.850613
 20
42.819317
 30
0.0
 10
281.138912
 20
41.969041
 30
0.0
  0
SPLINE
  5
14a
100
AcDbEntity
  8
Layer_1
 62
7
100
AcDbSpline
 70
0
 71
3
 72
13
 73
9
 74
7
 40
0.000000
 40
0.000000
 40
0.000000
 40
0.000000
 40
0.560760
 40
1.561771
 40
3.067057
 40
8.334076
 40
16.255012
 40
27.088161
 40
27.088161
 40
27.088161
 40
27.088161
 10
299.990200
 20
65.997336
 30
0.0
 10
300.132709
 20
65.876191
 30
0.0
 10
300.529610
 20
65.538788
 30
0.0
 10
301.216464
 20
64.777597
 30
0.0
 10
302.807791
 20
62.731649
 30
0.0
 10
305.369209
 20
58.543694
 30
0.0
 10
309.279614
 20
51.560550
 30
0.0
 10
312.176975
 20
46.019855
 30
0.0
 10
313.850613
 20
42.819317
 30
0.0
 11
299.990200
 21
65.997336
 31
0.0
 11
300.411648
 21
65.627427
 31
0.0
 11
301.095846
 21
64.896745
 31
0.0
 11
302.027534
 21
63.714441
 31
0.0
 11
304.882295
 21
59.288175
 31
0.0
 11
308.777773
 21
52.391329
 31
0.0
 11
313.850613
 21
42.819317
 31
0.0
  0
LWPOLYLINE
  5
14b
100
AcDbEntity
  8
Layer_1
 62
7
100
AcDbPolyline
 90
3
 70
0
 10
267.582721
 20
177.661483
 30
0.0
 10
267.582721
 20
177.661483
 30
0.0
 10
298.434054
 20
183.087642
 30
0.0
  0
SPLINE
  5
14c
100
AcDbEntity
  8
Layer_1
 62
7
100
AcDbSpline
 70
0
 71
3
 72
19
 73
15
 74
13
 40
0.000000
 40
0.000000
 40
0.000000
 40
0.000000
 40
6.347253
 40
12.863167
 40
19.384786
 40
26.842296
 40
33.013318
 40
37.919272
 40
41.536392
 40
44.008080
 40
45.611777
 40
47.742806
 40
50.576622
 40
52.200377
 40
52.200377
 40
52.200377
 40
52.200377
 10
298.434054
 20
183.087642
 30
0.0
 10
298.527542
 20
180.973904
 30
0.0
 10
298.717002
 20
176.690260
 30
0.0
 10
298.850790
 20
170.229394
 30
0.0
 10
298.844016
 20
163.397144
 30
0.0
 10
298.585931
 20
156.682274
 30
0.0
 10
297.958797
 20
150.530382
 30
0.0
 10
297.047792
 20
145.710205
 30
0.0
 10
295.883628
 20
142.213944
 30
0.0
 10
294.632441
 20
139.964942
 30
0.0
 10
293.130835
 20
138.448235
 30
0.0
 10
290.921541
 20
137.976948
 30
0.0
 10
288.811676
 20
137.446370
 30
0.0
 10
287.338316
 20
137.233014
 30
0.0
 10
286.801616
 20
137.155295
 30
0.0
 11
298.434054
 21
183.087642
 31
0.0
 11
298.690003
 21
176.745552
 31
0.0
 11
298.827198
 21
170.231083
 31
0.0
 11
298.806362
 21
163.709497
 31
0.0
 11
298.483644
 21
156.258973
 31
0.0
 11
297.819174
 21
150.123828
 31
0.0
 11
296.843958
 21
145.315779
 31
0.0
 11
295.640366
 21
141.904779
 31
0.0
 11
294.372396
 21
139.783107
 31
0.0
 11
293.193414
 21
138.695980
 31
0.0
 11
291.172660
 21
138.019341
 31
0.0
 11
288.405622
 21
137.407773
 31
0.0
 11
286.801616
 21
137.155295
 31
0.0
  0
LWPOLYLINE
  5
14d
100
AcDbEntity
  8
Layer_1
 62
7
100
AcDbPolyline
 90
2
 70
0
 10
293.193414
 20
138.695980
 30
0.0
 10
293.193414
 20
138.695980
 30
0.0
  0
SPLINE
  5
14e
100
AcDbEntity
  8
Layer_1
 62
7
100
AcDbSpline
 70
0
 71
3
 72
19
 73
15
 74
13
 40
0.000000
 40
0.000000
 40
0.000000
 40
0.000000
 40
0.044862
 40
0.137872
 40
0.335127
 40
1.330418
 40
2.918357
 40
5.118212
 40
11.459469
 40
20.734121
 40
33.380862
 40
37.296318
 40
41.129236
 40
44.930968
 40
44.930968
 40
44.930968
 40
44.930968
 10
286.801616
 20
137.155295
 30
0.0
 10
286.791839
 20
137.166612
 30
0.0
 10
286.761789
 20
137.201392
 30
0.0
 10
286.684005
 20
137.281634
 30
0.0
 10
286.382846
 20
137.586501
 30
0.0
 10
285.801420
 20
138.311690
 30
0.0
 10
284.910476
 20
139.634693
 30
0.0
 10
283.202252
 20
142.549429
 30
0.0
 10
280.578380
 20
147.882082
 30
0.0
 10
276.673395
 20
156.454461
 30
0.0
 10
273.225829
 20
164.347433
 30
0.0
 10
270.547830
 20
170.596104
 30
0.0
 10
269.056211
 20
174.145476
 30
0.0
 10
268.072901
 20
176.492712
 30
0.0
 10
267.583254
 20
177.661536
 30
0.0
 11
286.801616
 21
137.155295
 31
0.0
 11
286.772076
 21
137.189059
 31
0.0
 11
286.708136
 21
137.256606
 31
0.0
 11
286.570618
 21
137.398021
 31
0.0
 11
285.934107
 21
138.163173
 31
0.0
 11
285.036190
 21
139.472866
 31
0.0
 11
283.912790
 21
141.364250
 31
0.0
 11
281.033865
 21
147.014324
 31
0.0
 11
277.157876
 21
155.440229
 31
0.0
 11
272.081331
 21
167.023353
 31
0.0
 11
270.541271
 21
170.623215
 31
0.0
 11
269.052852
 21
174.155334
 31
0.0
 11
267.583254
 21
177.661536
 31
0.0
  0
LWPOLYLINE
  5
14f
100
AcDbEntity
  8
Layer_1
 62
7
100
AcDbPolyline
 90
2
 70
0
 10
267.583254
 20
177.661536
 30
0.0
 10
267.582721
 20
177.661483
 30
0.0
  0
SPLINE
  5
150
100
AcDbEntity
  8
Layer_1
 62
7
100
AcDbSpline
 70
0
 71
3
 72
43
 73
39
 74
37
 40
0.000000
 40
0.000000
 40
0.000000
 40
0.000000
 40
4.329961
 40
8.969621
 40
13.571313
 40
17.830171
 40
21.308646
 40
23.459188
 40
27.765963
 40
30.796332
 40
33.064819
 40
35.460926
 40
38.813866
 40
43.529455
 40
51.774702
 40
62.861955
 40
72.576212
 40
74.978064
 40
76.784667
 40
78.041006
 40
78.849086
 40
79.470292
 40
80.221001
 40
80.624371
 40
81.752590
 40
83.329227
 40
85.179993
 40
87.267299
 40
89.523403
 40
94.293812
 40
98.996665
 40
103.127545
 40
111.615473
 40
124.510663
 40
140.271183
 40
145.424980
 40
149.974201
 40
153.936452
 40
153.936452
 40
153.936452
 40
153.936452
 10
306.571876
 20
91.272069
 30
0.0
 10
306.444458
 20
92.709811
 30
0.0
 10
306.180510
 20
95.688128
 30
0.0
 10
305.900731
 20
100.203653
 30
0.0
 10
305.685592
 20
104.698785
 30
0.0
 10
305.592316
 20
108.811294
 30
0.0
 10
305.595584
 20
112.107348
 30
0.0
 10
305.735704
 20
115.418985
 30
0.0
 10
306.323593
 20
118.543348
 30
0.0
 10
307.457616
 20
121.572246
 30
0.0
 10
309.154871
 20
123.584519
 30
0.0
 10
311.632308
 20
124.741180
 30
0.0
 10
315.106537
 20
125.263117
 30
0.0
 10
320.561252
 20
125.130079
 30
0.0
 10
328.487728
 20
123.848473
 30
0.0
 10
337.997604
 20
122.071101
 30
0.0
 10
345.576368
 20
120.464528
 30
0.0
 10
350.013601
 20
119.099571
 30
0.0
 10
351.702578
 20
118.399833
 30
0.0
 10
352.811878
 20
117.738892
 30
0.0
 10
353.522713
 20
117.179211
 30
0.0
 10
353.929869
 20
116.566247
 30
0.0
 10
354.117025
 20
115.994986
 30
0.0
 10
354.188650
 20
115.236919
 30
0.0
 10
354.312629
 20
114.208448
 30
0.0
 10
354.403839
 20
112.691564
 30
0.0
 10
354.446254
 20
110.853815
 30
0.0
 10
354.457460
 20
108.788975
 30
0.0
 10
354.420451
 20
105.751154
 30
0.0
 10
354.281091
 20
101.843169
 30
0.0
 10
353.994270
 20
97.317189
 30
0.0
 10
353.422286
 20
91.568527
 30
0.0
 10
351.824805
 20
83.206080
 30
0.0
 10
349.288060
 20
71.091403
 30
0.0
 10
346.803437
 20
60.096119
 30
0.0
 10
344.750050
 20
51.860310
 30
0.0
 10
343.493695
 20
47.479448
 30
0.0
 10
342.557021
 20
44.800895
 30
0.0
 10
342.120982
 20
43.553978
 30
0.0
 11
306.571876
 21
91.272069
 31
0.0
 11
306.208041
 21
95.586717
 31
0.0
 11
305.910849
 21
100.216849
 31
0.0
 11
305.700148
 21
104.813715
 31
0.0
 11
305.604912
 21
109.071508
 31
0.0
 11
305.625626
 21
112.549921
 31
0.0
 11
305.739574
 21
114.697442
 31
0.0
 11
306.544491
 21
118.928331
 31
0.0
 11
307.725215
 21
121.719214
 31
0.0
 11
309.224285
 21
123.421806
 31
0.0
 11
311.359609
 21
124.508878
 31
0.0
 11
314.657437
 21
125.114296
 31
0.0
 11
319.372911
 21
125.081419
 31
0.0
 11
327.543203
 21
123.972164
 31
0.0
 11
338.442539
 21
121.939523
 31
0.0
 11
347.903094
 21
119.733921
 31
0.0
 11
350.190096
 21
119.000081
 31
0.0
 11
351.848670
 21
118.283879
 31
0.0
 11
352.923602
 21
117.633564
 31
0.0
 11
353.536579
 21
117.107017
 31
0.0
 11
353.882800
 21
116.591238
 31
0.0
 11
354.117487
 21
115.878156
 31
0.0
 11
354.166806
 21
115.477812
 31
0.0
 11
354.285394
 21
114.355843
 31
0.0
 11
354.389408
 21
112.782641
 31
0.0
 11
354.439318
 21
110.932548
 31
0.0
 11
354.451267
 21
108.845276
 31
0.0
 11
354.424996
 21
106.589325
 31
0.0
 11
354.258183
 21
101.821834
 31
0.0
 11
353.952322
 21
97.128937
 31
0.0
 11
353.526146
 21
93.020100
 31
0.0
 11
352.081602
 21
84.655997
 31
0.0
 11
349.453613
 21
72.031434
 31
0.0
 11
345.939025
 21
56.667787
 31
0.0
 11
344.670371
 21
51.672575
 31
0.0
 11
343.395695
 21
47.305583
 31
0.0
 11
342.120982
 21
43.553978
 31
0.0
  0
LWPOLYLINE
  5
151
100
AcDbEntity
  8
Layer_1
 62
7
100
AcDbPolyline
 90
2
 70
0
 10
342.120982
 20
43.553978
 30
0.0
 10
326.965790
 20
43.160165
 30
0.0
  0
SPLINE
  5
152
100
AcDbEntity
  8
Layer_1
 62
7
100
AcDbSpline
 70
0
 71
3
 72
16
 73
12
 74
10
 40
0.000000
 40
0.000000
 40
0.000000
 40
0.000000
 40
4.321350
 40
9.384391
 40
15.357908
 40
29.937493
 40
38.946066
 40
46.491926
 40
48.023142
 40
50.148872
 40
52.699102
 40
52.699102
 40
52.699102
 40
52.699102
 10
326.965790
 20
43.160165
 30
0.0
 10
326.205173
 20
44.383557
 30
0.0
 10
324.553391
 20
47.040315
 30
0.0
 10
322.029794
 20
51.495984
 30
0.0
 10
318.028018
 20
59.039387
 30
0.0
 10
313.489541
 20
67.783354
 30
0.0
 10
309.266881
 20
77.288318
 30
0.0
 10
307.718046
 20
83.143276
 30
0.0
 10
307.080658
 20
86.822967
 30
0.0
 10
306.818774
 20
88.876076
 30
0.0
 10
306.659010
 20
90.426488
 30
0.0
 10
306.571876
 20
91.272069
 30
0.0
 11
326.965790
 21
43.160165
 31
0.0
 11
324.707210
 21
46.844305
 31
0.0
 11
322.198212
 21
51.241953
 31
0.0
 11
319.377145
 21
56.507357
 31
0.0
 11
312.795528
 21
69.516839
 31
0.0
 11
309.313558
 21
77.825286
 31
0.0
 11
307.383265
 21
85.120076
 31
0.0
 11
307.123911
 21
86.629168
 31
0.0
 11
306.844438
 21
88.736447
 31
0.0
 11
306.571876
 21
91.272069
 31
0.0
  0
LWPOLYLINE
  5
153
100
AcDbEntity
  8
Layer_1
 62
7
100
AcDbPolyline
 90
2
 70
0
 10
306.571876
 20
91.272069
 30
0.0
 10
306.571876
 20
91.272069
 30
0.0
  0
SPLINE
  5
154
100
AcDbEntity
  8
Layer_1
 62
7
100
AcDbSpline
 70
0
 71
3
 72
13
 73
9
 74
7
 40
0.000000
 40
0.000000
 40
0.000000
 40
0.000000
 40
2.979829
 40
6.318581
 40
10.025436
 40
17.726308
 40
24.489892
 40
30.487493
 40
30.487493
 40
30.487493
 40
30.487493
 10
311.339399
 20
154.677762
 30
0.0
 10
311.249095
 20
155.666962
 30
0.0
 10
311.057609
 20
157.764512
 30
0.0
 10
310.845112
 20
161.099951
 30
0.0
 10
310.614279
 20
166.010068
 30
0.0
 10
310.394538
 20
172.063280
 30
0.0
 10
310.181509
 20
178.880732
 30
0.0
 10
310.097929
 20
183.133673
 30
0.0
 10
310.058647
 20
185.132503
 30
0.0
 11
311.339399
 21
154.677762
 31
0.0
 11
311.081287
 21
157.646391
 31
0.0
 11
310.861683
 21
160.977913
 31
0.0
 11
310.681088
 21
164.680367
 31
0.0
 11
310.390099
 21
172.375738
 31
0.0
 11
310.187377
 21
179.136284
 31
0.0
 11
310.058647
 21
185.132503
 31
0.0
  0
LWPOLYLINE
  5
155
100
AcDbEntity
  8
Layer_1
 62
7
100
AcDbPolyline
 90
2
 70
0
 10
310.058647
 20
185.132503
 30
0.0
 10
339.424998
 20
190.297147
 30
0.0
  0
SPLINE
  5
156
100
AcDbEntity
  8
Layer_1
 62
7
100
AcDbSpline
 70
0
 71
3
 72
34
 73
30
 74
28
 40
0.000000
 40
0.000000
 40
0.000000
 40
0.000000
 40
16.968774
 40
33.556392
 40
45.710892
 40
49.767068
 40
53.351742
 40
56.380162
 40
58.751233
 40
60.293598
 40
60.762091
 40
61.978883
 40
64.434503
 40
67.388066
 40
69.557657
 40
72.670843
 40
77.898850
 40
84.601903
 40
91.049578
 40
96.957894
 40
102.094991
 40
106.055266
 40
108.293882
 40
111.420095
 40
114.206470
 40
116.106755
 40
118.402745
 40
121.648530
 40
125.845528
 40
125.845528
 40
125.845528
 40
125.845528
 10
339.424998
 20
190.297147
 30
0.0
 10
342.335983
 20
185.446191
 30
0.0
 10
348.092568
 20
175.853242
 30
0.0
 10
355.408126
 20
162.492596
 30
0.0
 10
360.454082
 20
152.772400
 30
0.0
 10
362.865717
 20
146.627061
 30
0.0
 10
363.960258
 20
143.237048
 30
0.0
 10
364.677448
 20
140.337044
 30
0.0
 10
365.003088
 20
138.012227
 30
0.0
 10
364.880542
 20
136.583974
 30
0.0
 10
364.938477
 20
135.454263
 30
0.0
 10
363.516070
 20
134.691127
 30
0.0
 10
361.850002
 20
133.447132
 30
0.0
 10
359.345405
 20
132.642054
 30
0.0
 10
356.604377
 20
132.478088
 30
0.0
 10
353.108066
 20
132.868514
 30
0.0
 10
348.168642
 20
133.706418
 30
0.0
 10
342.139336
 20
134.803217
 30
0.0
 10
335.906048
 20
136.030369
 30
0.0
 10
330.201554
 20
137.236721
 30
0.0
 10
325.325912
 20
138.364915
 30
0.0
 10
321.679330
 20
139.339977
 30
0.0
 10
318.671361
 20
140.162057
 30
0.0
 10
316.291587
 20
141.548130
 30
0.0
 10
314.325883
 20
143.267387
 30
0.0
 10
312.924333
 20
145.180606
 30
0.0
 10
312.403582
 20
147.646089
 30
0.0
 10
311.757231
 20
150.813390
 30
0.0
 10
311.490058
 20
153.284372
 30
0.0
 10
311.339399
 20
154.677762
 30
0.0
 11
339.424998
 21
190.297147
 31
0.0
 11
348.059192
 21
175.689273
 31
0.0
 11
356.058329
 21
161.157829
 31
0.0
 11
361.408190
 21
150.244037
 31
0.0
 11
362.881731
 21
146.464983
 31
0.0
 11
363.973099
 21
143.050485
 31
0.0
 11
364.674009
 21
140.104292
 31
0.0
 11
364.934397
 21
137.747562
 31
0.0
 11
364.904829
 21
136.205481
 31
0.0
 11
364.877971
 21
135.737758
 31
0.0
 11
363.978723
 21
134.918041
 31
0.0
 11
361.887105
 21
133.631492
 31
0.0
 11
359.082368
 21
132.705757
 31
0.0
 11
356.918542
 21
132.547708
 31
0.0
 11
353.816553
 21
132.811513
 31
0.0
 11
348.653552
 21
133.633385
 31
0.0
 11
342.058999
 21
134.834547
 31
0.0
 11
335.732852
 21
136.080489
 31
0.0
 11
329.953789
 21
137.309572
 31
0.0
 11
324.952932
 21
138.484810
 31
0.0
 11
321.123265
 21
139.493487
 31
0.0
 11
318.986267
 21
140.160302
 31
0.0
 11
316.259076
 21
141.688580
 31
0.0
 11
314.187231
 21
143.551735
 31
0.0
 11
313.116270
 21
145.121489
 31
0.0
 11
312.473473
 21
147.325662
 31
0.0
 11
311.863494
 21
150.513616
 31
0.0
 11
311.339399
 21
154.677762
 31
0.0
  0
SPLINE
  5
157
100
AcDbEntity
  8
Layer_1
 62
7
100
AcDbSpline
 70
0
 71
3
 72
10
 73
6
 74
4
 40
0.000000
 40
0.000000
 40
0.000000
 40
0.000000
 40
2.828177
 40
5.758815
 40
9.110501
 40
9.110501
 40
9.110501
 40
9.110501
 10
354.620689
 20
43.877924
 30
0.0
 10
354.810985
 20
44.801241
 30
0.0
 10
355.198472
 20
46.681323
 30
0.0
 10
355.812560
 20
49.655476
 30
0.0
 10
356.265426
 20
51.700061
 30
0.0
 10
356.507034
 20
52.790869
 30
0.0
 11
354.620689
 21
43.877924
 31
0.0
 11
355.191743
 21
46.647849
 31
0.0
 11
355.790579
 21
49.516652
 31
0.0
 11
356.507034
 21
52.790869
 31
0.0
  0
SPLINE
  5
158
100
AcDbEntity
  8
Layer_1
 62
7
100
AcDbSpline
 70
0
 71
3
 72
13
 73
9
 74
7
 40
0.000000
 40
0.000000
 40
0.000000
 40
0.000000
 40
14.585241
 40
22.490273
 40
26.301996
 40
26.858482
 40
27.285599
 40
27.628168
 40
27.628168
 40
27.628168
 40
27.628168
 10
356.507034
 20
52.790869
 30
0.0
 10
357.585302
 20
57.534460
 30
0.0
 10
359.247980
 20
64.849022
 30
0.0
 10
361.429673
 20
73.324181
 30
0.0
 10
362.805647
 20
77.213809
 30
0.0
 10
363.633672
 20
78.583120
 30
0.0
 10
363.888307
 20
78.944835
 30
0.0
 10
364.047277
 20
79.146246
 30
0.0
 10
364.118031
 20
79.235890
 30
0.0
 11
356.507034
 21
52.790869
 31
0.0
 11
359.827148
 21
66.993196
 31
0.0
 11
361.924745
 21
74.614851
 31
0.0
 11
363.372033
 21
78.141122
 31
0.0
 11
363.662098
 21
78.616031
 31
0.0
 11
363.907986
 21
78.965272
 31
0.0
 11
364.118031
 21
79.235890
 31
0.0
  0
LWPOLYLINE
  5
159
100
AcDbEntity
  8
Layer_1
 62
7
100
AcDbPolyline
 90
2
 70
0
 10
311.339399
 20
154.677762
 30
0.0
 10
311.339399
 20
154.677762
 30
0.0
  0
LWPOLYLINE
  5
15a
100
AcDbEntity
  8
Layer_1
 62
7
100
AcDbPolyline
 90
2
 70
0
 10
394.988373
 20
44.927167
 30
0.0
 10
354.620689
 20
43.877924
 30
0.0
  0
SPLINE
  5
15b
100
AcDbEntity
  8
Layer_1
 62
7
100
AcDbSpline
 70
0
 71
3
 72
16
 73
12
 74
10
 40
0.000000
 40
0.000000
 40
0.000000
 40
0.000000
 40
3.394634
 40
9.799319
 40
19.277488
 40
30.000030
 40
36.757589
 40
41.281210
 40
43.119885
 40
44.668633
 40
47.029504
 40
47.029504
 40
47.029504
 40
47.029504
 10
364.118031
 20
79.235890
 30
0.0
 10
365.058041
 20
78.604160
 30
0.0
 10
367.771577
 20
76.780540
 30
0.0
 10
372.530386
 20
72.435520
 30
0.0
 10
378.993460
 20
66.371203
 30
0.0
 10
385.364476
 20
60.039058
 30
0.0
 10
390.426625
 20
54.705720
 30
0.0
 10
392.988662
 20
51.164068
 30
0.0
 10
394.368231
 20
48.891665
 30
0.0
 10
394.828509
 20
47.011486
 30
0.0
 10
394.928183
 20
45.711924
 30
0.0
 10
394.988373
 20
44.927167
 30
0.0
 11
364.118031
 21
79.235890
 31
0.0
 11
366.902722
 21
77.294489
 31
0.0
 11
371.761508
 21
73.121698
 31
0.0
 11
378.661845
 21
66.623926
 31
0.0
 11
386.260275
 21
59.058428
 31
0.0
 11
390.799780
 21
54.052681
 31
0.0
 11
393.445774
 21
50.383640
 31
0.0
 11
394.324663
 21
48.768623
 31
0.0
 11
394.729996
 21
47.273857
 31
0.0
 11
394.988373
 21
44.927167
 31
0.0
  0
SPLINE
  5
15c
100
AcDbEntity
  8
Layer_1
 62
7
100
AcDbSpline
 70
0
 71
3
 72
13
 73
9
 74
7
 40
0.000000
 40
0.000000
 40
0.000000
 40
0.000000
 40
11.085415
 40
22.796754
 40
33.446257
 40
35.198678
 40
36.707794
 40
38.004660
 40
38.004660
 40
38.004660
 40
38.004660
 10
376.364020
 20
196.794160
 30
0.0
 10
375.961691
 20
193.120674
 30
0.0
 10
375.134316
 20
185.566285
 30
0.0
 10
373.556569
 20
174.529563
 30
0.0
 10
372.313825
 20
166.584842
 30
0.0
 10
371.355010
 20
162.046692
 30
0.0
 10
370.950965
 20
160.580868
 30
0.0
 10
370.658011
 20
159.692537
 30
0.0
 10
370.522613
 20
159.281969
 30
0.0
 11
376.364020
 21
196.794160
 31
0.0
 11
375.098389
 21
185.781230
 31
0.0
 11
373.479705
 21
174.182294
 31
0.0
 11
371.696290
 21
163.683182
 31
0.0
 11
371.319680
 21
161.971709
 31
0.0
 11
370.919356
 21
160.516658
 31
0.0
 11
370.522613
 21
159.281969
 31
0.0
  0
LWPOLYLINE
  5
15d
100
AcDbEntity
  8
Layer_1
 62
7
100
AcDbPolyline
 90
2
 70
0
 10
350.307543
 20
192.211579
 30
0.0
 10
376.364020
 20
196.794160
 30
0.0
  0
SPLINE
  5
15e
100
AcDbEntity
  8
Layer_1
 62
7
100
AcDbSpline
 70
0
 71
3
 72
16
 73
12
 74
10
 40
0.000000
 40
0.000000
 40
0.000000
 40
0.000000
 40
2.243385
 40
5.498563
 40
9.774256
 40
16.498180
 40
24.367370
 40
33.231730
 40
35.240149
 40
36.942811
 40
38.659285
 40
38.659285
 40
38.659285
 40
38.659285
 10
370.522613
 20
159.281969
 30
0.0
 10
370.077321
 20
159.882785
 30
0.0
 10
368.985904
 20
161.355391
 30
0.0
 10
367.146873
 20
164.045811
 30
0.0
 10
364.566185
 20
168.035829
 30
0.0
 10
361.274045
 20
173.395597
 30
0.0
 10
357.262624
 20
180.107398
 30
0.0
 10
354.113625
 20
185.503240
 30
0.0
 10
352.031513
 20
189.141431
 30
0.0
 10
351.148324
 20
190.720411
 30
0.0
 10
350.588557
 20
191.713186
 30
0.0
 10
350.307543
 20
192.211579
 30
0.0
 11
370.522613
 21
159.281969
 31
0.0
 11
369.196201
 21
161.091225
 31
0.0
 11
367.348888
 21
163.771453
 31
0.0
 11
365.020324
 21
167.357445
 31
0.0
 11
361.484607
 21
173.076698
 31
0.0
 11
357.443870
 21
179.829224
 31
0.0
 11
352.979397
 21
187.487250
 31
0.0
 11
351.983983
 21
189.231639
 31
0.0
 11
351.149730
 21
190.715917
 31
0.0
 11
350.307543
 21
192.211579
 31
0.0
  0
SPLINE
  5
15f
100
AcDbEntity
  8
Layer_1
 62
7
100
AcDbSpline
 70
0
 71
3
 72
40
 73
36
 74
34
 40
0.000000
 40
0.000000
 40
0.000000
 40
0.000000
 40
0.714364
 40
1.577515
 40
2.613897
 40
6.056647
 40
9.972287
 40
13.939276
 40
17.677633
 40
20.543308
 40
21.550779
 40
22.638736
 40
24.806562
 40
28.662743
 40
30.832375
 40
32.032507
 40
34.551751
 40
38.385689
 40
45.545891
 40
54.280656
 40
63.127064
 40
70.785949
 40
75.751687
 40
79.947896
 40
83.278037
 40
85.830479
 40
87.725736
 40
89.242051
 40
90.731566
 40
91.774416
 40
94.215126
 40
97.154251
 40
101.967977
 40
106.158251
 40
111.865677
 40
111.865677
 40
111.865677
 40
111.865677
 10
367.058504
 20
98.471228
 30
0.0
 10
367.033953
 20
98.708082
 30
0.0
 10
366.979736
 20
99.231123
 30
0.0
 10
366.899857
 20
100.098759
 30
0.0
 10
366.725813
 20
101.871040
 30
0.0
 10
366.559482
 20
104.665513
 30
0.0
 10
366.503468
 20
108.442398
 30
0.0
 10
366.571159
 20
112.310969
 30
0.0
 10
366.765512
 20
115.847344
 30
0.0
 10
367.232168
 20
118.319653
 30
0.0
 10
367.231293
 20
120.025901
 30
0.0
 10
368.161042
 20
121.189963
 30
0.0
 10
370.089144
 20
122.567146
 30
0.0
 10
372.587340
 20
123.677531
 30
0.0
 10
374.687523
 20
124.926039
 30
0.0
 10
376.657486
 20
125.210200
 30
0.0
 10
379.167410
 20
124.880555
 30
0.0
 10
383.640563
 20
124.413967
 30
0.0
 10
390.151013
 20
123.446710
 30
0.0
 10
398.305410
 20
122.227476
 30
0.0
 10
406.608240
 20
120.860812
 30
0.0
 10
413.657583
 20
119.629822
 30
0.0
 10
419.170866
 20
118.595655
 30
0.0
 10
423.202971
 20
117.547203
 30
0.0
 10
426.403823
 20
116.510490
 30
0.0
 10
428.773800
 20
115.452332
 30
0.0
 10
430.484233
 20
114.411142
 30
0.0
 10
431.654398
 20
113.262517
 30
0.0
 10
432.442992
 20
112.135750
 30
0.0
 10
432.874359
 20
110.524574
 30
0.0
 10
433.506912
 20
108.482753
 30
0.0
 10
434.197875
 20
105.153375
 30
0.0
 10
434.783075
 20
101.190779
 30
0.0
 10
434.234527
 20
96.268592
 30
0.0
 10
433.187816
 20
93.133038
 30
0.0
 10
432.584239
 20
91.324946
 30
0.0
 11
367.058504
 21
98.471228
 31
0.0
 11
366.986082
 21
99.181912
 31
0.0
 11
366.904359
 21
100.041185
 31
0.0
 11
366.807270
 21
101.073009
 31
0.0
 11
366.592800
 21
104.509073
 31
0.0
 11
366.524672
 21
108.424120
 31
0.0
 11
366.598144
 21
112.390428
 31
0.0
 11
366.872391
 21
116.118712
 31
0.0
 11
367.215727
 21
118.963745
 31
0.0
 11
367.337030
 21
119.963887
 31
0.0
 11
367.944816
 21
120.866243
 31
0.0
 11
369.657778
 21
122.194863
 31
0.0
 11
373.066395
 21
123.998045
 31
0.0
 11
375.030587
 21
124.919593
 31
0.0
 11
376.215363
 21
125.110963
 31
0.0
 11
378.729268
 21
124.947037
 31
0.0
 11
382.538150
 21
124.509430
 31
0.0
 11
389.630091
 21
123.523095
 31
0.0
 11
398.265876
 21
122.211854
 31
0.0
 11
406.995867
 21
120.781405
 31
0.0
 11
414.539221
 21
119.456141
 31
0.0
 11
419.409654
 21
118.487927
 31
0.0
 11
423.470372
 21
117.430223
 31
0.0
 11
426.626536
 21
116.367931
 31
0.0
 11
428.947806
 21
115.306483
 31
0.0
 11
430.542334
 21
114.282042
 31
0.0
 11
431.627157
 21
113.222623
 31
0.0
 11
432.435339
 21
111.971424
 31
0.0
 11
432.756775
 21
110.979348
 31
0.0
 11
433.423827
 21
108.631561
 31
0.0
 11
434.049876
 21
105.759885
 31
0.0
 11
434.591565
 21
100.976735
 31
0.0
 11
434.169640
 21
96.807757
 31
0.0
 11
432.584239
 21
91.324946
 31
0.0
  0
SPLINE
  5
160
100
AcDbEntity
  8
Layer_1
 62
7
100
AcDbSpline
 70
0
 71
3
 72
13
 73
9
 74
7
 40
0.000000
 40
0.000000
 40
0.000000
 40
0.000000
 40
1.918469
 40
3.563989
 40
5.816809
 40
9.409598
 40
14.798309
 40
22.431739
 40
22.431739
 40
22.431739
 40
22.431739
 10
432.584239
 20
91.324946
 30
0.0
 10
432.389844
 20
90.714812
 30
0.0
 10
432.028712
 20
89.581349
 30
0.0
 10
431.134819
 20
87.848921
 30
0.0
 10
429.607928
 20
85.864168
 30
0.0
 10
427.165178
 20
83.027485
 30
0.0
 10
423.384982
 20
78.977325
 30
0.0
 10
420.389617
 20
75.836162
 30
0.0
 10
418.633769
 20
73.994848
 30
0.0
 11
432.584239
 21
91.324946
 31
0.0
 11
431.946997
 21
89.515403
 31
0.0
 11
431.193310
 21
88.052634
 31
0.0
 11
429.869233
 21
86.229994
 31
0.0
 11
427.541187
 21
83.493512
 31
0.0
 11
423.890115
 21
79.530196
 31
0.0
 11
418.633769
 21
73.994848
 31
0.0
  0
SPLINE
  5
161
100
AcDbEntity
  8
Layer_1
 62
7
100
AcDbSpline
 70
0
 71
3
 72
13
 73
9
 74
7
 40
0.000000
 40
0.000000
 40
0.000000
 40
0.000000
 40
10.070679
 40
16.067157
 40
18.599769
 40
19.111211
 40
19.435747
 40
19.619572
 40
19.619572
 40
19.619572
 40
19.619572
 10
418.633769
 20
73.994848
 30
0.0
 10
416.295131
 20
71.577017
 30
0.0
 10
412.563976
 20
67.719513
 30
0.0
 10
407.954422
 20
63.624749
 30
0.0
 10
405.594548
 20
61.673140
 30
0.0
 10
404.554651
 20
61.249076
 30
0.0
 10
404.251195
 20
61.089040
 30
0.0
 10
404.125708
 20
60.974496
 30
0.0
 10
404.080331
 20
60.933076
 30
0.0
 11
418.633769
 21
73.994848
 31
0.0
 11
411.519347
 21
66.867186
 31
0.0
 11
407.040310
 21
62.880210
 31
0.0
 11
404.966509
 21
61.426431
 31
0.0
 11
404.500439
 21
61.215834
 31
0.0
 11
404.219832
 21
61.052788
 31
0.0
 11
404.080331
 21
60.933076
 31
0.0
  0
LWPOLYLINE
  5
162
100
AcDbEntity
  8
Layer_1
 62
7
100
AcDbPolyline
 90
2
 70
0
 10
350.307543
 20
192.211579
 30
0.0
 10
350.307543
 20
192.211579
 30
0.0
  0
LWPOLYLINE
  5
163
100
AcDbEntity
  8
Layer_1
 62
7
100
AcDbPolyline
 90
2
 70
0
 10
367.058448
 20
98.471220
 30
0.0
 10
367.058504
 20
98.471228
 30
0.0
  0
SPLINE
  5
164
100
AcDbEntity
  8
Layer_1
 62
7
100
AcDbSpline
 70
0
 71
3
 72
19
 73
15
 74
13
 40
0.000000
 40
0.000000
 40
0.000000
 40
0.000000
 40
0.182922
 40
0.505289
 40
1.012523
 40
3.947341
 40
10.555475
 40
21.796745
 40
35.840718
 40
44.846333
 40
49.554457
 40
50.894933
 40
51.958480
 40
53.454428
 40
53.454428
 40
53.454428
 40
53.454428
 10
404.080331
 20
60.933076
 30
0.0
 10
404.030571
 20
60.968595
 30
0.0
 10
403.893117
 20
61.066708
 30
0.0
 10
403.575049
 20
61.188517
 30
0.0
 10
402.365300
 20
61.522526
 30
0.0
 10
399.541986
 20
63.453040
 30
0.0
 10
394.210334
 20
67.808262
 30
0.0
 10
386.477939
 20
75.151904
 30
0.0
 10
378.387942
 20
83.215590
 30
0.0
 10
372.030090
 20
89.937303
 30
0.0
 10
368.854894
 20
93.844060
 30
0.0
 10
367.643755
 20
95.889416
 30
0.0
 10
367.194939
 20
97.120764
 30
0.0
 10
367.108796
 20
97.973071
 30
0.0
 10
367.058448
 20
98.471220
 30
0.0
 11
404.080331
 21
60.933076
 31
0.0
 11
403.928262
 21
61.034740
 31
0.0
 11
403.632216
 21
61.162322
 31
0.0
 11
403.148461
 21
61.314858
 31
0.0
 11
400.595920
 21
62.763199
 31
0.0
 11
395.433288
 21
66.888082
 31
0.0
 11
387.190036
 21
74.531051
 31
0.0
 11
377.258104
 21
84.460295
 31
0.0
 11
371.152980
 21
91.080609
 31
0.0
 11
368.293481
 21
94.820890
 31
0.0
 11
367.637863
 21
95.990095
 31
0.0
 11
367.280685
 21
96.991871
 31
0.0
 11
367.058448
 21
98.471220
 31
0.0
  0
SPLINE
  5
165
100
AcDbEntity
  8
Layer_1
 62
7
100
AcDbSpline
 70
0
 71
3
 72
10
 73
6
 74
4
 40
0.000000
 40
0.000000
 40
0.000000
 40
0.000000
 40
0.621554
 40
1.294560
 40
2.021316
 40
2.021316
 40
2.021316
 40
2.021316
 10
383.011680
 20
148.237640
 30
0.0
 10
382.990242
 20
148.443713
 30
0.0
 10
382.945592
 20
148.872917
 30
0.0
 10
382.879033
 20
149.543397
 30
0.0
 10
382.835342
 20
150.007935
 30
0.0
 10
382.812657
 20
150.249122
 30
0.0
 11
383.011680
 21
148.237640
 31
0.0
 11
382.947833
 21
148.855906
 31
0.0
 11
382.881358
 21
149.525621
 31
0.0
 11
382.812657
 21
150.249122
 31
0.0
  0
LWPOLYLINE
  5
166
100
AcDbEntity
  8
Layer_1
 62
7
100
AcDbPolyline
 90
3
 70
0
 10
383.011765
 20
148.237075
 30
0.0
 10
383.011680
 20
148.237640
 30
0.0
 10
383.011680
 20
148.237640
 30
0.0
  0
SPLINE
  5
167
100
AcDbEntity
  8
Layer_1
 62
7
100
AcDbSpline
 70
0
 71
3
 72
13
 73
9
 74
7
 40
0.000000
 40
0.000000
 40
0.000000
 40
0.000000
 40
7.385593
 40
17.993473
 40
35.766611
 40
40.759312
 40
45.100322
 40
48.932889
 40
48.932889
 40
48.932889
 40
48.932889
 10
382.812657
 20
150.249122
 30
0.0
 10
382.680831
 20
152.710991
 30
0.0
 10
382.359664
 20
158.708825
 30
0.0
 10
383.737135
 20
170.590593
 30
0.0
 10
385.231737
 20
181.600215
 30
0.0
 10
386.545270
 20
190.541106
 30
0.0
 10
387.222893
 20
194.877236
 30
0.0
 10
387.682008
 20
197.562844
 30
0.0
 10
387.897285
 20
198.822118
 30
0.0
 11
382.812657
 21
150.249122
 31
0.0
 11
382.588039
 21
157.631299
 31
0.0
 11
383.486045
 21
168.201101
 31
0.0
 11
385.855069
 21
185.815645
 31
0.0
 11
386.584885
 21
190.754716
 31
0.0
 11
387.259906
 21
195.042923
 31
0.0
 11
387.897285
 21
198.822118
 31
0.0
  0
SPLINE
  5
168
100
AcDbEntity
  8
Layer_1
 62
7
100
AcDbSpline
 70
0
 71
3
 72
10
 73
6
 74
4
 40
0.000000
 40
0.000000
 40
0.000000
 40
0.000000
 40
14.516043
 40
32.437334
 40
51.696906
 40
51.696906
 40
51.696906
 40
51.696906
 10
420.307206
 20
204.522157
 30
0.0
 10
420.831486
 20
199.711701
 30
0.0
 10
422.003035
 20
188.962327
 30
0.0
 10
423.248345
 20
171.770740
 30
0.0
 10
423.811515
 20
159.389798
 30
0.0
 10
424.103236
 20
152.976509
 30
0.0
 11
420.307206
 21
204.522157
 31
0.0
 11
421.801908
 21
190.083274
 31
0.0
 11
423.138867
 21
172.211922
 31
0.0
 11
424.103236
 21
152.976509
 31
0.0
  0
LWPOLYLINE
  5
169
100
AcDbEntity
  8
Layer_1
 62
7
100
AcDbPolyline
 90
2
 70
0
 10
387.897285
 20
198.822118
 30
0.0
 10
420.307206
 20
204.522157
 30
0.0
  0
SPLINE
  5
16a
100
AcDbEntity
  8
Layer_1
 62
7
100
AcDbSpline
 70
0
 71
3
 72
25
 73
21
 74
19
 40
0.000000
 40
0.000000
 40
0.000000
 40
0.000000
 40
9.192492
 40
15.406785
 40
18.816347
 40
19.661664
 40
20.312720
 40
21.183222
 40
22.572655
 40
24.553077
 40
27.128755
 40
35.193663
 40
43.563615
 40
49.524222
 40
53.700330
 40
57.213466
 40
60.151629
 40
61.616317
 40
63.031751
 40
65.956318
 40
65.956318
 40
65.956318
 40
65.956318
 10
424.103236
 20
152.976509
 30
0.0
 10
424.171281
 20
149.909222
 30
0.0
 10
424.285327
 20
144.768391
 30
0.0
 10
423.815872
 20
138.522165
 30
0.0
 10
423.087943
 20
135.057799
 30
0.0
 10
422.248959
 20
133.626661
 30
0.0
 10
421.611060
 20
133.132282
 30
0.0
 10
420.671564
 20
132.847894
 30
0.0
 10
419.279592
 20
132.601387
 30
0.0
 10
417.290871
 20
132.549828
 30
0.0
 10
413.090676
 20
132.791865
 30
0.0
 10
406.804790
 20
133.684996
 30
0.0
 10
399.472074
 20
135.029784
 30
0.0
 10
393.412391
 20
136.304601
 30
0.0
 10
389.211004
 20
138.106797
 30
0.0
 10
386.254909
 20
140.146019
 30
0.0
 10
384.617836
 20
142.236027
 30
0.0
 10
383.596163
 20
143.908915
 30
0.0
 10
383.219309
 20
145.829357
 30
0.0
 10
383.095031
 20
147.267759
 30
0.0
 10
383.011285
 20
148.237044
 30
0.0
 11
424.103236
 21
152.976509
 31
0.0
 11
424.129933
 21
143.784056
 31
0.0
 11
423.567005
 21
137.595312
 31
0.0
 11
422.632378
 21
134.316351
 31
0.0
 11
422.168703
 21
133.609551
 31
0.0
 11
421.655375
 21
133.209091
 31
0.0
 11
420.837191
 21
132.911856
 31
0.0
 11
419.470030
 21
132.664079
 31
0.0
 11
417.491438
 21
132.578964
 31
0.0
 11
414.918793
 21
132.703931
 31
0.0
 11
406.918448
 21
133.722377
 31
0.0
 11
398.683144
 21
135.217658
 31
0.0
 11
392.896908
 21
136.648850
 31
0.0
 11
389.074169
 21
138.330081
 31
0.0
 11
386.231480
 21
140.394360
 31
0.0
 11
384.374305
 21
142.671134
 31
0.0
 11
383.669952
 21
143.955346
 31
0.0
 11
383.334036
 21
145.330341
 31
0.0
 11
383.011285
 21
148.237044
 31
0.0
  0
SPLINE
  5
16b
100
AcDbEntity
  8
Layer_1
 62
7
100
AcDbSpline
 70
0
 71
3
 72
19
 73
15
 74
13
 40
0.000000
 40
0.000000
 40
0.000000
 40
0.000000
 40
2.049382
 40
3.924714
 40
5.714202
 40
9.717063
 40
15.453727
 40
21.873909
 40
25.032114
 40
28.018064
 40
30.716002
 40
32.966289
 40
34.652826
 40
35.481532
 40
35.481532
 40
35.481532
 40
35.481532
 10
409.584426
 20
45.306406
 30
0.0
 10
409.869953
 20
45.927295
 30
0.0
 10
410.416758
 20
47.116343
 30
0.0
 10
411.363979
 20
48.771897
 30
0.0
 10
412.806357
 20
50.884979
 30
0.0
 10
415.305288
 20
53.812085
 30
0.0
 10
418.880813
 20
57.838143
 30
0.0
 10
422.371612
 20
61.564983
 30
0.0
 10
425.285769
 20
64.572956
 30
0.0
 10
427.362967
 20
66.663971
 30
0.0
 10
429.247522
 20
68.519903
 30
0.0
 10
430.868828
 20
70.024289
 30
0.0
 10
432.058507
 20
71.077629
 30
0.0
 10
432.708582
 20
71.607176
 30
0.0
 10
432.922765
 20
71.781647
 30
0.0
 11
409.584426
 21
45.306406
 31
0.0
 11
410.469305
 21
47.154907
 31
0.0
 11
411.399652
 21
48.783196
 31
0.0
 11
412.405830
 21
50.263019
 31
0.0
 11
414.936903
 21
53.364077
 31
0.0
 11
418.747635
 21
57.652157
 31
0.0
 11
423.132363
 21
62.341816
 31
0.0
 11
425.330564
 21
64.609452
 31
0.0
 11
427.434709
 21
66.728053
 31
0.0
 11
429.363914
 21
68.614064
 31
0.0
 11
431.013377
 21
70.144770
 31
0.0
 11
432.282623
 21
71.255366
 31
0.0
 11
432.922765
 21
71.781647
 31
0.0
  0
LWPOLYLINE
  5
16c
100
AcDbEntity
  8
Layer_1
 62
7
100
AcDbPolyline
 90
2
 70
0
 10
383.011285
 20
148.237044
 30
0.0
 10
383.011765
 20
148.237075
 30
0.0
  0
LWPOLYLINE
  5
16d
100
AcDbEntity
  8
Layer_1
 62
7
100
AcDbPolyline
 90
2
 70
0
 10
437.464144
 20
46.030662
 30
0.0
 10
409.584426
 20
45.306406
 30
0.0
  0
LWPOLYLINE
  5
16e
100
AcDbEntity
  8
Layer_1
 62
7
100
AcDbPolyline
 90
5
 70
0
 10
419.312654
 20
10.444480
 30
0.0
 10
419.419899
 20
16.750360
 30
0.0
 10
464.415886
 20
16.146822
 30
0.0
 10
464.308585
 20
9.840920
 30
0.0
 10
419.312654
 20
10.444480
 30
0.0
  0
SPLINE
  5
16f
100
AcDbEntity
  8
Layer_1
 62
7
100
AcDbSpline
 70
0
 71
3
 72
13
 73
9
 74
7
 40
0.000000
 40
0.000000
 40
0.000000
 40
0.000000
 40
1.472404
 40
3.589896
 40
6.416309
 40
11.208406
 40
18.140949
 40
26.178504
 40
26.178504
 40
26.178504
 40
26.178504
 10
432.922765
 20
71.781647
 30
0.0
 10
433.079641
 20
71.316410
 30
0.0
 10
433.462123
 20
70.182106
 30
0.0
 10
433.971005
 20
68.102755
 30
0.0
 10
434.662832
 20
64.931968
 30
0.0
 10
435.441981
 20
60.142522
 30
0.0
 10
436.414940
 20
53.628019
 30
0.0
 10
437.097612
 20
48.684743
 30
0.0
 10
437.464144
 20
46.030662
 30
0.0
 11
432.922765
 21
71.781647
 31
0.0
 11
433.376946
 21
70.381043
 31
0.0
 11
433.907296
 21
68.331043
 31
0.0
 11
434.504790
 21
65.568505
 31
0.0
 11
435.318922
 21
60.846071
 31
0.0
 11
436.348880
 21
53.990465
 31
0.0
 11
437.464144
 21
46.030662
 31
0.0
  0
LWPOLYLINE
  5
170
100
AcDbEntity
  8
Layer_1
 62
7
100
AcDbPolyline
 90
2
 70
0
 10
435.624224
 20
161.163511
 30
0.0
 10
435.624196
 20
161.164075
 30
0.0
  0
SPLINE
  5
171
100
AcDbEntity
  8
Layer_1
 62
7
100
AcDbSpline
 70
0
 71
3
 72
10
 73
6
 74
4
 40
0.000000
 40
0.000000
 40
0.000000
 40
0.000000
 40
18.358071
 40
33.927132
 40
45.693807
 40
45.693807
 40
45.693807
 40
45.693807
 10
435.624196
 20
161.164075
 30
0.0
 10
435.064880
 20
167.257561
 30
0.0
 10
434.031220
 20
178.518792
 30
0.0
 10
433.088345
 20
193.729238
 30
0.0
 10
433.072147
 20
202.842661
 30
0.0
 10
433.065174
 20
206.765536
 30
0.0
 11
435.624196
 21
161.164075
 31
0.0
 11
434.043919
 21
179.454004
 31
0.0
 11
433.187604
 21
194.999498
 31
0.0
 11
433.065174
 21
206.765536
 31
0.0
  0
SPLINE
  5
172
100
AcDbEntity
  8
Layer_1
 62
7
100
AcDbSpline
 70
0
 71
3
 72
22
 73
18
 74
16
 40
0.000000
 40
0.000000
 40
0.000000
 40
0.000000
 40
9.751138
 40
23.794103
 40
42.509211
 40
52.857732
 40
60.135262
 40
64.944884
 40
68.335005
 40
71.824081
 40
76.743700
 40
84.036402
 40
89.331813
 40
92.455553
 40
93.070993
 40
93.455349
 40
93.650043
 40
93.650043
 40
93.650043
 40
93.650043
 10
467.418420
 20
212.808007
 30
0.0
 10
467.640503
 20
209.564591
 30
0.0
 10
468.182417
 20
201.650214
 30
0.0
 10
468.253531
 20
187.473498
 30
0.0
 10
468.140285
 20
173.107245
 30
0.0
 10
467.837830
 20
160.995049
 30
0.0
 10
467.297583
 20
153.532176
 30
0.0
 10
466.363436
 20
148.435732
 30
0.0
 10
464.677462
 20
144.841042
 30
0.0
 10
461.745442
 20
142.128739
 30
0.0
 10
457.361375
 20
139.282941
 30
0.0
 10
452.353780
 20
136.253385
 30
0.0
 10
447.622887
 20
134.032829
 30
0.0
 10
444.738673
 20
133.031348
 30
0.0
 10
443.365733
 20
132.931582
 30
0.0
 10
442.968042
 20
132.911117
 30
0.0
 10
442.774998
 20
132.911678
 30
0.0
 10
442.710090
 20
132.911867
 30
0.0
 11
467.418420
 21
212.808007
 31
0.0
 11
468.000342
 21
203.074249
 31
0.0
 11
468.219829
 21
189.032999
 31
0.0
 11
468.049666
 21
170.318664
 31
0.0
 11
467.716534
 21
159.975507
 31
0.0
 11
467.079205
 21
152.725938
 31
0.0
 11
466.041119
 21
148.029679
 31
0.0
 11
464.517546
 21
145.001207
 31
0.0
 11
462.056467
 21
142.528001
 31
0.0
 11
458.010486
 21
139.729309
 31
0.0
 11
451.718793
 21
136.041748
 31
0.0
 11
446.908579
 21
133.827427
 31
0.0
 11
443.902140
 21
132.979439
 31
0.0
 11
443.288798
 21
132.928666
 31
0.0
 11
442.904784
 21
132.912486
 31
0.0
 11
442.710090
 21
132.911867
 31
0.0
  0
LWPOLYLINE
  5
173
100
AcDbEntity
  8
Layer_1
 62
7
100
AcDbPolyline
 90
2
 70
0
 10
433.065174
 20
206.765536
 30
0.0
 10
467.418420
 20
212.808007
 30
0.0
  0
LWPOLYLINE
  5
174
100
AcDbEntity
  8
Layer_1
 62
7
100
AcDbPolyline
 90
2
 70
0
 10
435.624196
 20
161.163525
 30
0.0
 10
435.624224
 20
161.163511
 30
0.0
  0
SPLINE
  5
175
100
AcDbEntity
  8
Layer_1
 62
7
100
AcDbSpline
 70
0
 71
3
 72
16
 73
12
 74
10
 40
0.000000
 40
0.000000
 40
0.000000
 40
0.000000
 40
0.132456
 40
0.360432
 40
0.709394
 40
2.413843
 40
4.641362
 40
8.111183
 40
13.302988
 40
20.427807
 40
29.751033
 40
29.751033
 40
29.751033
 40
29.751033
 10
442.710090
 20
132.911867
 30
0.0
 10
442.673451
 20
132.936507
 30
0.0
 10
442.573752
 20
133.003557
 30
0.0
 10
442.382573
 20
133.142856
 30
0.0
 10
441.774223
 20
133.598283
 30
0.0
 10
440.722988
 20
134.594188
 30
0.0
 10
439.598944
 20
136.829437
 30
0.0
 10
438.552213
 20
140.307107
 30
0.0
 10
437.515258
 20
145.473758
 30
0.0
 10
436.519871
 20
152.619343
 30
0.0
 10
435.948222
 20
158.072512
 30
0.0
 10
435.624196
 20
161.163525
 30
0.0
 11
442.710090
 21
132.911867
 31
0.0
 11
442.600520
 21
132.986291
 31
0.0
 11
442.415433
 21
133.119393
 31
0.0
 11
442.136925
 21
133.329649
 31
0.0
 11
440.920665
 21
134.523742
 31
0.0
 11
439.836141
 21
136.469416
 31
0.0
 11
438.760052
 21
139.768157
 31
0.0
 11
437.685319
 21
144.847506
 31
0.0
 11
436.655692
 21
151.897535
 31
0.0
 11
435.624196
 21
161.163525
 31
0.0
  0
SPLINE
  5
176
100
AcDbEntity
  8
Layer_1
 62
7
100
AcDbSpline
 70
0
 71
3
 72
13
 73
9
 74
7
 40
0.000000
 40
0.000000
 40
0.000000
 40
0.000000
 40
6.367332
 40
9.819657
 40
13.079050
 40
13.586080
 40
14.077158
 40
14.580259
 40
14.580259
 40
14.580259
 40
14.580259
 10
445.293524
 20
75.515185
 30
0.0
 10
445.067147
 20
77.623881
 30
0.0
 10
444.718030
 20
80.875898
 30
0.0
 10
444.526028
 20
85.250342
 30
0.0
 10
444.951308
 20
87.632161
 30
0.0
 10
445.243976
 20
89.020793
 30
0.0
 10
445.376827
 20
89.503438
 30
0.0
 10
445.459473
 20
89.824341
 30
0.0
 10
445.501296
 20
89.986733
 30
0.0
 11
445.293524
 21
75.515185
 31
0.0
 11
444.700571
 21
81.854847
 31
0.0
 11
444.653881
 21
85.306857
 31
0.0
 11
445.141181
 21
88.529617
 31
0.0
 11
445.250160
 21
89.024797
 31
0.0
 11
445.374461
 21
89.499883
 31
0.0
 11
445.501296
 21
89.986733
 31
0.0
  0
LWPOLYLINE
  5
177
100
AcDbEntity
  8
Layer_1
 62
7
100
AcDbPolyline
 90
2
 70
0
 10
445.293581
 20
75.514621
 30
0.0
 10
445.293524
 20
75.515185
 30
0.0
  0
SPLINE
  5
178
100
AcDbEntity
  8
Layer_1
 62
7
100
AcDbSpline
 70
0
 71
3
 72
19
 73
15
 74
13
 40
0.000000
 40
0.000000
 40
0.000000
 40
0.000000
 40
4.789752
 40
13.249636
 40
26.634287
 40
36.149108
 40
43.534999
 40
49.130899
 40
53.272800
 40
56.463025
 40
59.316315
 40
59.937119
 40
60.543145
 40
61.148334
 40
61.148334
 40
61.148334
 40
61.148334
 10
445.501296
 20
89.986733
 30
0.0
 10
446.799195
 20
89.056233
 30
0.0
 10
450.389502
 20
86.482241
 30
0.0
 10
457.192684
 20
80.767924
 30
0.0
 10
465.152272
 20
73.995898
 30
0.0
 10
472.744757
 20
67.341284
 30
0.0
 10
478.253114
 20
62.250076
 30
0.0
 10
482.242967
 20
58.164227
 30
0.0
 10
485.003863
 20
54.843922
 30
0.0
 10
486.791286
 20
51.940870
 30
0.0
 10
487.615322
 20
49.864726
 30
0.0
 10
487.980108
 20
48.553768
 30
0.0
 10
488.085750
 20
47.950989
 30
0.0
 10
488.116896
 20
47.548312
 30
0.0
 10
488.132459
 20
47.347113
 30
0.0
 11
445.501296
 21
89.986733
 31
0.0
 11
449.368076
 21
87.160122
 31
0.0
 11
455.929476
 21
81.819927
 31
0.0
 11
466.110094
 21
73.130630
 31
0.0
 11
473.247164
 21
66.838248
 31
0.0
 11
478.641599
 21
61.793306
 31
0.0
 11
482.519228
 21
57.758694
 31
0.0
 11
485.118026
 21
54.533544
 31
0.0
 11
486.763114
 21
51.800191
 31
0.0
 11
487.811120
 21
49.146336
 31
0.0
 11
487.971458
 21
48.546595
 31
0.0
 11
488.076110
 21
47.949672
 31
0.0
 11
488.132459
 21
47.347113
 31
0.0
  0
LWPOLYLINE
  5
179
100
AcDbEntity
  8
Layer_1
 62
7
100
AcDbPolyline
 90
2
 70
0
 10
488.132459
 20
47.347113
 30
0.0
 10
448.951519
 20
46.329465
 30
0.0
  0
SPLINE
  5
17a
100
AcDbEntity
  8
Layer_1
 62
7
100
AcDbSpline
 70
0
 71
3
 72
10
 73
6
 74
4
 40
0.000000
 40
0.000000
 40
0.000000
 40
0.000000
 40
11.591125
 40
21.884674
 40
29.414280
 40
29.414280
 40
29.414280
 40
29.414280
 10
448.951519
 20
46.329465
 30
0.0
 10
448.441930
 20
50.159395
 30
0.0
 10
447.479799
 20
57.390512
 30
0.0
 10
446.228348
 20
67.115451
 30
0.0
 10
445.571201
 20
73.020133
 30
0.0
 10
445.293581
 20
75.514637
 30
0.0
 11
448.951519
 21
46.329465
 31
0.0
 11
447.431458
 21
57.820487
 31
0.0
 11
446.144493
 21
68.033266
 31
0.0
 11
445.293581
 21
75.514637
 31
0.0
  0
LWPOLYLINE
  5
17b
100
AcDbEntity
  8
Layer_1
 62
7
100
AcDbPolyline
 90
2
 70
0
 10
445.293581
 20
75.514637
 30
0.0
 10
445.293581
 20
75.514621
 30
0.0
  0
SPLINE
  5
17c
100
AcDbEntity
  8
Layer_1
 62
7
100
AcDbSpline
 70
0
 71
3
 72
16
 73
12
 74
10
 40
0.000000
 40
0.000000
 40
0.000000
 40
0.000000
 40
0.087805
 40
0.165398
 40
0.235612
 40
0.503507
 40
0.899215
 40
1.563291
 40
4.090361
 40
8.440375
 40
14.758126
 40
14.758126
 40
14.758126
 40
14.758126
 10
444.992478
 20
115.879877
 30
0.0
 10
444.990749
 20
115.909106
 30
0.0
 10
444.987492
 20
115.964165
 30
0.0
 10
444.989047
 20
116.042741
 30
0.0
 10
445.004332
 20
116.180996
 30
0.0
 10
445.127216
 20
116.404588
 30
0.0
 10
445.463233
 20
116.694084
 30
0.0
 10
446.310073
 20
117.538741
 30
0.0
 10
448.353252
 20
119.023552
 30
0.0
 10
452.070766
 20
121.366775
 30
0.0
 10
455.133741
 20
123.175194
 30
0.0
 10
456.947722
 20
124.246191
 30
0.0
 11
444.992478
 21
115.879877
 31
0.0
 11
444.988516
 21
115.967592
 31
0.0
 11
444.990325
 21
116.045165
 31
0.0
 11
444.998969
 21
116.114844
 31
0.0
 11
445.115073
 21
116.356272
 31
0.0
 11
445.392803
 21
116.638144
 31
0.0
 11
445.875043
 21
117.094697
 31
0.0
 11
447.869381
 21
118.646696
 31
0.0
 11
451.525926
 21
121.003027
 31
0.0
 11
456.947722
 21
124.246191
 31
0.0
  0
LWPOLYLINE
  5
17d
100
AcDbEntity
  8
Layer_1
 62
7
100
AcDbPolyline
 90
2
 70
0
 10
444.998969
 20
116.114844
 30
0.0
 10
444.998969
 20
116.114844
 30
0.0
  0
SPLINE
  5
17e
100
AcDbEntity
  8
Layer_1
 62
7
100
AcDbSpline
 70
0
 71
3
 72
25
 73
21
 74
19
 40
0.000000
 40
0.000000
 40
0.000000
 40
0.000000
 40
11.143893
 40
17.802039
 40
21.219728
 40
22.571616
 40
25.133224
 40
28.167026
 40
31.196175
 40
33.684410
 40
34.801344
 40
35.319421
 40
35.948694
 40
37.138524
 40
39.169212
 40
42.081857
 40
45.931200
 40
51.600532
 40
60.728652
 40
71.386127
 40
71.386127
 40
71.386127
 40
71.386127
 10
456.947722
 20
124.246191
 30
0.0
 10
460.169023
 20
126.115398
 30
0.0
 10
465.314956
 20
129.101400
 30
0.0
 10
471.638394
 20
132.148915
 30
0.0
 10
475.283100
 20
133.558867
 30
0.0
 10
477.740645
 20
133.422360
 30
0.0
 10
480.045909
 20
133.277335
 30
0.0
 10
482.907027
 20
132.958744
 30
0.0
 10
485.716206
 20
132.465226
 30
0.0
 10
487.866188
 20
131.944295
 30
0.0
 10
489.212605
 20
131.668636
 30
0.0
 10
489.913973
 20
131.354505
 30
0.0
 10
490.425869
 20
130.743409
 30
0.0
 10
491.029825
 20
129.612811
 30
0.0
 10
491.833126
 20
127.727528
 30
0.0
 10
492.723027
 20
124.933213
 30
0.0
 10
493.825935
 20
120.937459
 30
0.0
 10
495.117547
 20
114.855235
 30
0.0
 10
496.830161
 20
106.545801
 30
0.0
 10
498.090999
 20
100.072019
 30
0.0
 10
498.770148
 20
96.584928
 30
0.0
 11
456.947722
 21
124.246191
 31
0.0
 11
466.673947
 21
129.685574
 31
0.0
 11
472.696163
 21
132.525262
 31
0.0
 11
475.981832
 21
133.465991
 31
0.0
 11
477.333539
 21
133.443832
 31
0.0
 11
479.889130
 21
133.268352
 31
0.0
 11
482.903671
 21
132.927036
 31
0.0
 11
485.886513
 21
132.399404
 31
0.0
 11
488.314833
 21
131.856654
 31
0.0
 11
489.395347
 21
131.573755
 31
0.0
 11
489.858305
 21
131.341220
 31
0.0
 11
490.289567
 21
130.882965
 31
0.0
 11
490.886524
 21
129.853724
 31
0.0
 11
491.692779
 21
127.989951
 31
0.0
 11
492.612556
 21
125.226346
 31
0.0
 11
493.634183
 21
121.515051
 31
0.0
 11
494.873650
 21
115.982867
 31
0.0
 11
496.712293
 21
107.041840
 31
0.0
 11
498.770148
 21
96.584928
 31
0.0
  0
SPLINE
  5
17f
100
AcDbEntity
  8
Layer_1
 62
7
100
AcDbSpline
 70
0
 71
3
 72
13
 73
9
 74
7
 40
0.000000
 40
0.000000
 40
0.000000
 40
0.000000
 40
1.019900
 40
2.261488
 40
3.837017
 40
4.210208
 40
4.422877
 40
4.565813
 40
4.565813
 40
4.565813
 40
4.565813
 10
502.022816
 20
64.179204
 30
0.0
 10
501.824550
 20
63.902725
 30
0.0
 10
501.384924
 20
63.289670
 30
0.0
 10
500.514794
 20
62.348231
 30
0.0
 10
499.736965
 20
61.622519
 30
0.0
 10
499.194272
 20
61.148548
 30
0.0
 10
499.006148
 20
60.994759
 30
0.0
 10
498.911993
 20
60.922743
 30
0.0
 10
498.874147
 20
60.893796
 30
0.0
 11
502.022816
 21
64.179204
 31
0.0
 11
501.413128
 21
63.361600
 31
0.0
 11
500.581199
 21
62.439951
 31
0.0
 11
499.434556
 21
61.359443
 31
0.0
 11
499.152293
 21
61.115314
 31
0.0
 11
498.987302
 21
60.981125
 31
0.0
 11
498.874147
 21
60.893796
 31
0.0
  0
LWPOLYLINE
  5
180
100
AcDbEntity
  8
Layer_1
 62
7
100
AcDbPolyline
 90
2
 70
0
 10
498.770148
 20
96.584928
 30
0.0
 10
502.022816
 20
64.179204
 30
0.0
  0
SPLINE
  5
181
100
AcDbEntity
  8
Layer_1
 62
7
100
AcDbSpline
 70
0
 71
3
 72
31
 73
27
 74
25
 40
0.000000
 40
0.000000
 40
0.000000
 40
0.000000
 40
0.351410
 40
0.868091
 40
1.581166
 40
2.207700
 40
3.715966
 40
5.869096
 40
8.533872
 40
11.715130
 40
15.385746
 40
24.101229
 40
34.523440
 40
46.502478
 40
55.664441
 40
62.040326
 40
66.209538
 40
68.980270
 40
71.553436
 40
75.112099
 40
76.061128
 40
76.898927
 40
77.624420
 40
78.362923
 40
78.878966
 40
79.226303
 40
79.226303
 40
79.226303
 40
79.226303
 10
498.874147
 20
60.893796
 30
0.0
 10
498.763269
 20
60.931690
 30
0.0
 10
498.489367
 20
61.025300
 30
0.0
 10
498.002484
 20
61.226635
 30
0.0
 10
497.429952
 20
61.467019
 30
0.0
 10
496.636290
 20
61.992076
 30
0.0
 10
495.443537
 20
62.777377
 30
0.0
 10
493.735834
 20
64.016865
 30
0.0
 10
491.622119
 20
65.641891
 30
0.0
 10
489.132251
 20
67.607771
 30
0.0
 10
485.097275
 20
70.870647
 30
0.0
 10
479.249696
 20
75.729984
 30
0.0
 10
471.348517
 20
82.449740
 30
0.0
 10
463.391380
 20
89.333647
 30
0.0
 10
456.498328
 20
95.383258
 30
0.0
 10
451.665493
 20
99.838544
 30
0.0
 10
448.626693
 20
103.077111
 30
0.0
 10
446.826373
 20
105.728797
 30
0.0
 10
445.971377
 20
108.602401
 30
0.0
 10
445.653901
 20
110.940266
 30
0.0
 10
445.390689
 20
112.702611
 30
0.0
 10
445.276248
 20
113.532269
 30
0.0
 10
445.190844
 20
114.294766
 30
0.0
 10
445.121290
 20
114.951248
 30
0.0
 10
445.038392
 20
115.478883
 30
0.0
 10
445.005368
 20
115.764796
 30
0.0
 10
444.992083
 20
115.879818
 30
0.0
 11
498.874147
 21
60.893796
 31
0.0
 11
498.542594
 21
61.010252
 31
0.0
 11
498.062850
 21
61.202097
 31
0.0
 11
497.414550
 21
61.499053
 31
0.0
 11
496.882112
 21
61.829287
 31
0.0
 11
495.628025
 21
62.667220
 31
0.0
 11
493.879434
 21
63.923565
 31
0.0
 11
491.761764
 21
65.541126
 31
0.0
 11
489.263884
 21
67.511150
 31
0.0
 11
486.407940
 21
69.817014
 31
0.0
 11
479.697025
 21
75.377882
 31
0.0
 11
471.752648
 21
82.123944
 31
0.0
 11
462.692044
 21
89.959939
 31
0.0
 11
455.828874
 21
96.029408
 31
0.0
 11
451.189971
 21
100.403480
 31
0.0
 11
448.405137
 21
103.506225
 31
0.0
 11
446.922884
 21
105.847139
 31
0.0
 11
446.121313
 21
108.292271
 31
0.0
 11
445.524523
 21
111.800536
 31
0.0
 11
445.387071
 21
112.739558
 31
0.0
 11
445.274926
 21
113.569818
 31
0.0
 11
445.192037
 21
114.290560
 31
0.0
 11
445.106249
 21
115.024063
 31
0.0
 11
445.033825
 21
115.534998
 31
0.0
 11
444.992083
 21
115.879818
 31
0.0
  0
LWPOLYLINE
  5
182
100
AcDbEntity
  8
Layer_1
 62
7
100
AcDbPolyline
 90
2
 70
0
 10
444.992083
 20
115.879818
 30
0.0
 10
444.992478
 20
115.879877
 30
0.0
  0
SPLINE
  5
183
100
AcDbEntity
  8
Layer_1
 62
7
100
AcDbSpline
 70
0
 71
3
 72
19
 73
15
 74
13
 40
0.000000
 40
0.000000
 40
0.000000
 40
0.000000
 40
0.502971
 40
1.117573
 40
1.863211
 40
3.064289
 40
4.500415
 40
6.192206
 40
20.957547
 40
41.845923
 40
58.284866
 40
60.521190
 40
62.524287
 40
64.346553
 40
64.346553
 40
64.346553
 40
64.346553
 10
480.148590
 20
150.748097
 30
0.0
 10
480.131779
 20
150.914911
 30
0.0
 10
480.094428
 20
151.285562
 30
0.0
 10
480.040732
 20
151.904319
 30
0.0
 10
479.965853
 20
152.754798
 30
0.0
 10
479.876030
 20
153.878859
 30
0.0
 10
479.777390
 20
155.318481
 30
0.0
 10
479.382802
 20
161.270084
 30
0.0
 10
479.291149
 20
173.727611
 30
0.0
 10
479.268024
 20
191.084759
 30
0.0
 10
479.344889
 20
204.280382
 30
0.0
 10
479.744599
 20
211.162117
 30
0.0
 10
479.918211
 20
213.175589
 30
0.0
 10
480.067182
 20
214.442031
 30
0.0
 10
480.138147
 20
215.045318
 30
0.0
 11
480.148590
 21
150.748097
 31
0.0
 11
480.099201
 21
151.248637
 31
0.0
 11
480.044393
 21
151.860791
 31
0.0
 11
479.979934
 21
152.603637
 31
0.0
 11
479.884331
 21
153.800905
 31
0.0
 11
479.783699
 21
155.233500
 31
0.0
 11
479.674513
 21
156.921764
 31
0.0
 11
479.318468
 21
171.682811
 31
0.0
 11
479.293947
 21
192.571174
 31
0.0
 11
479.624080
 21
209.006801
 31
0.0
 11
479.760091
 21
211.238985
 31
0.0
 11
479.934196
 21
213.234502
 31
0.0
 11
480.138147
 21
215.045318
 31
0.0
  0
LWPOLYLINE
  5
184
100
AcDbEntity
  8
Layer_1
 62
7
100
AcDbPolyline
 90
3
 70
0
 10
480.138147
 20
215.045318
 30
0.0
 10
486.763173
 20
216.210546
 30
0.0
 10
493.931448
 20
144.794554
 30
0.0
  0
LWPOLYLINE
  5
185
100
AcDbEntity
  8
Layer_1
 62
7
100
AcDbPolyline
 90
2
 70
0
 10
480.148448
 20
150.748083
 30
0.0
 10
480.148590
 20
150.748097
 30
0.0
  0
SPLINE
  5
186
100
AcDbEntity
  8
Layer_1
 62
7
100
AcDbSpline
 70
0
 71
3
 72
19
 73
15
 74
13
 40
0.000000
 40
0.000000
 40
0.000000
 40
0.000000
 40
1.135663
 40
2.441004
 40
4.080004
 40
7.823554
 40
10.395857
 40
11.887362
 40
12.515595
 40
12.872070
 40
13.710454
 40
14.728969
 40
15.479538
 40
16.514113
 40
16.514113
 40
16.514113
 40
16.514113
 10
493.931448
 20
144.794554
 30
0.0
 10
493.553928
 20
144.823495
 30
0.0
 10
492.742482
 20
144.885700
 30
0.0
 10
491.393964
 20
145.064472
 30
0.0
 10
489.186562
 20
145.382254
 30
0.0
 10
486.579037
 20
145.822132
 30
0.0
 10
483.997719
 20
146.286721
 30
0.0
 10
482.539681
 20
146.796744
 30
0.0
 10
481.714305
 20
147.020867
 30
0.0
 10
481.308073
 20
147.495652
 30
0.0
 10
481.047081
 20
148.191106
 30
0.0
 10
480.580221
 20
148.927391
 30
0.0
 10
480.245594
 20
149.809084
 30
0.0
 10
480.184092
 20
150.403558
 30
0.0
 10
480.148448
 20
150.748083
 30
0.0
 11
493.931448
 21
144.794554
 31
0.0
 11
492.799893
 21
144.891063
 31
0.0
 11
491.504510
 21
145.051993
 31
0.0
 11
489.882321
 21
145.286137
 31
0.0
 11
486.188821
 21
145.896239
 31
0.0
 11
483.672747
 21
146.431132
 31
0.0
 11
482.247730
 21
146.871492
 31
0.0
 11
481.668010
 21
147.113568
 31
0.0
 11
481.426612
 21
147.375869
 31
0.0
 11
481.045181
 21
148.122459
 31
0.0
 11
480.567249
 21
149.021878
 31
0.0
 11
480.306284
 21
149.725619
 31
0.0
 11
480.148448
 21
150.748083
 31
0.0
  0
LWPOLYLINE
  5
187
100
AcDbEntity
  8
Layer_1
 62
1
100
AcDbPolyline
 90
5
 70
0
 10
252.891970
 20
808.676987
 30
0.0
 10
352.225300
 20
808.676987
 30
0.0
 10
352.225300
 20
709.343655
 30
0.0
 10
252.891970
 20
709.343655
 30
0.0
 10
252.891970
 20
808.676987
 30
0.0
  0
ENDSEC
  0
SECTION
  2
OBJECTS
  0
DICTIONARY
  5
C
330
0
100
AcDbDictionary
  3
ACAD_GROUP
350
D
  3
ACAD_MLINESTYLE
350
17
  0
DICTIONARY
  5
D
330
C
100
AcDbDictionary
  0
DICTIONARY
  5
1A
330
C
100
AcDbDictionary
  0
DICTIONARY
  5
17
330
C
100
AcDbDictionary
  3
STANDARD
350
18
  0
DICTIONARY
  5
19
330
C
100
AcDbDictionary
  0
ENDSEC
  0
EOF
