<?xml version="1.0" encoding="UTF-8" standalone="no"?>
<!-- Created with Inkscape (http://www.inkscape.org/) -->

<svg
   xmlns:dc="http://purl.org/dc/elements/1.1/"
   xmlns:cc="http://creativecommons.org/ns#"
   xmlns:rdf="http://www.w3.org/1999/02/22-rdf-syntax-ns#"
   xmlns:svg="http://www.w3.org/2000/svg"
   xmlns="http://www.w3.org/2000/svg"
   xmlns:sodipodi="http://sodipodi.sourceforge.net/DTD/sodipodi-0.dtd"
   xmlns:inkscape="http://www.inkscape.org/namespaces/inkscape"
   width="96in"
   height="48in"
   viewBox="0 0 8639.9995 4319.9999"
   id="svg2"
   version="1.1"
   inkscape:version="0.91pre4 r13712"
   sodipodi:docname="pylon.svg">
  <defs
     id="defs4" />
  <sodipodi:namedview
     id="base"
     pagecolor="#ffffff"
     bordercolor="#666666"
     borderopacity="1.0"
     inkscape:pageopacity="0.0"
     inkscape:pageshadow="2"
     inkscape:zoom="0.3375194"
     inkscape:cx="199.20751"
     inkscape:cy="119.15339"
     inkscape:document-units="in"
     inkscape:current-layer="layer1"
     showgrid="false"
     units="ft"
     showguides="true"
     inkscape:guide-bbox="true"
     inkscape:window-width="1920"
     inkscape:window-height="1017"
     inkscape:window-x="-8"
     inkscape:window-y="-8"
     inkscape:window-maximized="1" />
  <metadata
     id="metadata7">
    <rdf:RDF>
      <cc:Work
         rdf:about="">
        <dc:format>image/svg+xml</dc:format>
        <dc:type
           rdf:resource="http://purl.org/dc/dcmitype/StillImage" />
        <dc:title></dc:title>
      </cc:Work>
    </rdf:RDF>
  </metadata>
  <g
     inkscape:label="Layer 1"
     inkscape:groupmode="layer"
     id="layer1"
     transform="translate(0,3267.6378)">
    <path
       style="color:#000000;clip-rule:nonzero;display:inline;overflow:visible;visibility:visible;opacity:0.75;isolation:auto;mix-blend-mode:normal;color-interpolation:sRGB;color-interpolation-filters:linearRGB;solid-color:#000000;solid-opacity:1;fill:#ff0000;fill-opacity:1;fill-rule:nonzero;stroke:none;stroke-width:1;stroke-linecap:butt;stroke-linejoin:miter;stroke-miterlimit:4;stroke-dasharray:none;stroke-dashoffset:0;stroke-opacity:1;color-rendering:auto;image-rendering:auto;shape-rendering:auto;text-rendering:auto;enable-background:accumulate"
       d="M 0.14375812,96.829458 -4.8828125e-4,996.82893 211.15673,975.74667 l 0.0718,0.72116 2.8153,28.20547 -70.51486,7.0384 2.47544,24.8004 c 0.96825,9.7007 9.55744,16.7292 19.25825,15.761 l 106.01033,-10.5811 c 9.7008,-0.9682 16.73131,-9.5558 15.76306,-19.2566 l -0.0116,-0.1206 -3.53089,-35.37486 -1.81994,-18.23346 1313.04828,-131.09328 0.075,0.75613 2.8154,28.2055 -70.5149,7.03819 2.4755,24.80081 c 0.9682,9.70069 9.5571,16.72917 19.2582,15.76094 l 106.0101,-10.58137 c 9.701,-0.96823 16.7314,-9.55574 15.7633,-19.25643 l 6e-4,-0.12106 -3.531,-35.37491 -1.8235,-18.26858 134.7887,-13.45776 0.082,-540.00069 L 0.14375812,96.829458 Z"
       id="rect3526"
       inkscape:connector-curvature="0" />
    <path
       style="color:#000000;clip-rule:nonzero;display:inline;overflow:visible;visibility:visible;opacity:0.75;isolation:auto;mix-blend-mode:normal;color-interpolation:sRGB;color-interpolation-filters:linearRGB;solid-color:#000000;solid-opacity:1;fill:#00ff00;fill-opacity:1;fill-rule:nonzero;stroke:none;stroke-width:1;stroke-linecap:butt;stroke-linejoin:miter;stroke-miterlimit:4;stroke-dasharray:none;stroke-dashoffset:0;stroke-opacity:1;color-rendering:auto;image-rendering:auto;shape-rendering:auto;text-rendering:auto;enable-background:accumulate"
       d="m 859.31811,2253.6976 c 0,9.749 7.8486,17.5958 17.5976,17.5958 l 106.53709,0 c 9.749,0 17.5977,-7.8468 17.5977,-17.5958 l 0,-0.1211 0,-35.5508 0,-35.1953 0,-7.7676 0,-27.9042 c 0,-9.7491 -7.8487,-17.5958 -17.5977,-17.5958 l -106.53709,0 c -9.749,0 -17.5976,7.8467 -17.5976,17.5958 l 0,24.9238 70.8652,0 0,28.3458 0,28.3456 -70.8652,0 0,24.924 z"
       id="rect3531-4-5"
       inkscape:connector-curvature="0" />
  </g>
</svg>
