999
DXF created by Inkscape
  0
SECTION
  2
HEADER
  9
$ACADVER
  1
AC1014
  9
$HANDSEED
  5
FFFF
  9
$MEASUREMENT
 70
     1
  0
ENDSEC
  0
SECTION
  2
TABLES
  0
TABLE
  2
VPORT
  5
8
330
0
100
AcDbSymbolTable
 70
     4
  0
VPORT
  5
2E
330
8
100
AcDbSymbolTableRecord
100
AcDbViewportTableRecord
  2
*ACTIVE
 70
     0
 10
0.0
 20
0.0
 11
1.0
 21
1.0
 12
210.0
 22
148.5
 13
0.0
 23
0.0
 14
10.0
 24
10.0
 15
10.0
 25
10.0
 16
0.0
 26
0.0
 36
1.0
 17
0.0
 27
0.0
 37
0.0
 40
341.0
 41
1.24
 42
50.0
 43
0.0
 44
0.0
 50
0.0
 51
0.0
 71
     0
 72
   100
 73
     1
 74
     3
 75
     0
 76
     0
 77
     0
 78
     0
  0
ENDTAB
  0
TABLE
  2
LTYPE
  5
5
330
0
100
AcDbSymbolTable
 70
     1
  0
LTYPE
  5
14
330
5
100
AcDbSymbolTableRecord
100
AcDbLinetypeTableRecord
  2
BYBLOCK
 70
     0
  3

 72
    65
 73
     0
 40
0.0
  0
LTYPE
  5
15
330
5
100
AcDbSymbolTableRecord
100
AcDbLinetypeTableRecord
  2
BYLAYER
 70
     0
  3

 72
    65
 73
     0
 40
0.0
  0
LTYPE
  5
16
330
5
100
AcDbSymbolTableRecord
100
AcDbLinetypeTableRecord
  2
CONTINUOUS
 70
     0
  3
Solid line
 72
    65
 73
     0
 40
0.0
  0
ENDTAB
  0
TABLE
  2
LAYER
  5
2
100
AcDbSymbolTable
 70
2
  0
LAYER
  5
50
100
AcDbSymbolTableRecord
100
AcDbLayerTableRecord
  2
0
 70
0
  6
CONTINUOUS
  0
LAYER
  5
51
100
AcDbSymbolTableRecord
100
AcDbLayerTableRecord
  2
Layer_1
 70
0
  6
CONTINUOUS
  0
ENDTAB
  0
TABLE
  2
STYLE
  5
3
330
0
100
AcDbSymbolTable
 70
     1
  0
STYLE
  5
11
330
3
100
AcDbSymbolTableRecord
100
AcDbTextStyleTableRecord
  2
STANDARD
 70
     0
 40
0.0
 41
1.0
 50
0.0
 71
     0
 42
2.5
  3
txt
  4

  0
ENDTAB
  0
TABLE
  2
VIEW
  5
6
330
0
100
AcDbSymbolTable
 70
     0
  0
ENDTAB
  0
TABLE
  2
UCS
  5
7
330
0
100
AcDbSymbolTable
 70
     0
  0
ENDTAB
  0
TABLE
  2
APPID
  5
9
330
0
100
AcDbSymbolTable
 70
     2
  0
APPID
  5
12
330
9
100
AcDbSymbolTableRecord
100
AcDbRegAppTableRecord
  2
ACAD
 70
     0
  0
ENDTAB
  0
TABLE
  2
DIMSTYLE
  5
A
330
0
100
AcDbSymbolTable
 70
     1
  0
DIMSTYLE
105
27
330
A
100
AcDbSymbolTableRecord
100
AcDbDimStyleTableRecord
  2
ISO-25
 70
     0
  3

  4

  5

  6

  7

 40
1.0
 41
2.5
 42
0.625
 43
3.75
 44
1.25
 45
0.0
 46
0.0
 47
0.0
 48
0.0
140
2.5
141
2.5
142
0.0
143
0.03937007874016
144
1.0
145
0.0
146
1.0
147
0.625
 71
     0
 72
     0
 73
     0
 74
     0
 75
     0
 76
     0
 77
     1
 78
     8
170
     0
171
     3
172
     1
173
     0
174
     0
175
     0
176
     0
177
     0
178
     0
270
     2
271
     2
272
     2
273
     2
274
     3
340
11
275
     0
280
     0
281
     0
282
     0
283
     0
284
     8
285
     0
286
     0
287
     3
288
     0
  0
ENDTAB
  0
TABLE
  2
BLOCK_RECORD
  5
1
330
0
100
AcDbSymbolTable
 70
     1
  0
BLOCK_RECORD
  5
1F
330
1
100
AcDbSymbolTableRecord
100
AcDbBlockTableRecord
  2
*MODEL_SPACE
  0
BLOCK_RECORD
  5
1B
330
1
100
AcDbSymbolTableRecord
100
AcDbBlockTableRecord
  2
*PAPER_SPACE
  0
ENDTAB
  0
ENDSEC
  0
SECTION
  2
BLOCKS
  0
BLOCK
  5
20
330
1F
100
AcDbEntity
  8
0
100
AcDbBlockBegin
  2
*MODEL_SPACE
 70
     0
 10
0.0
 20
0.0
 30
0.0
  3
*MODEL_SPACE
  1

  0
ENDBLK
  5
21
330
1F
100
AcDbEntity
  8
0
100
AcDbBlockEnd
  0
BLOCK
  5
1C
330
1B
100
AcDbEntity
 67
     1
  8
0
100
AcDbBlockBegin
  2
*PAPER_SPACE
  1

  0
ENDBLK
  5
1D
330
1B
100
AcDbEntity
 67
     1
  8
0
100
AcDbBlockEnd
  0
ENDSEC
  0
SECTION
  2
ENTITIES
  0
LWPOLYLINE
  5
100
100
AcDbEntity
  8
Layer_1
 62
7
100
AcDbPolyline
 90
8
 70
0
 10
50.880341
 20
508.034177
 30
0.0
 10
-0.000138
 20
0.040781
 30
0.0
 10
253.999862
 20
0.000000
 30
0.0
 10
248.050045
 20
59.592972
 30
0.0
 10
248.253442
 20
59.613292
 30
0.0
 10
256.213543
 20
60.408143
 30
0.0
 10
258.200122
 20
40.507073
 30
0.0
 10
265.199453
 20
41.206025
 30
0.0
  0
SPLINE
  5
101
100
AcDbEntity
  8
Layer_1
 62
7
100
AcDbSpline
 70
0
 71
3
 72
10
 73
6
 74
4
 40
0.000000
 40
0.000000
 40
0.000000
 40
0.000000
 40
2.599663
 40
5.116397
 40
7.716220
 40
7.716220
 40
7.716220
 40
7.716220
 10
265.199453
 20
41.206025
 30
0.0
 10
266.053237
 20
41.427434
 30
0.0
 10
267.733569
 20
41.863189
 30
0.0
 10
269.504067
 20
44.026932
 30
0.0
 10
269.598982
 20
45.760264
 30
0.0
 10
269.647210
 20
46.641004
 30
0.0
 11
265.199453
 21
41.206025
 31
0.0
 11
267.630076
 21
42.128154
 31
0.0
 11
269.223921
 21
44.075872
 31
0.0
 11
269.647210
 21
46.641004
 31
0.0
  0
LWPOLYLINE
  5
102
100
AcDbEntity
  8
Layer_1
 62
7
100
AcDbPolyline
 90
2
 70
0
 10
269.647210
 20
46.641004
 30
0.0
 10
266.661277
 20
76.559297
 30
0.0
  0
SPLINE
  5
103
100
AcDbEntity
  8
Layer_1
 62
7
100
AcDbSpline
 70
0
 71
3
 72
10
 73
6
 74
4
 40
0.000000
 40
0.000000
 40
0.000000
 40
0.000000
 40
2.599942
 40
5.117020
 40
7.716884
 40
7.716884
 40
7.716884
 40
7.716884
 10
266.661277
 20
76.559297
 30
0.0
 10
266.439858
 20
77.413157
 30
0.0
 10
266.004078
 20
79.093665
 30
0.0
 10
263.840529
 20
80.864755
 30
0.0
 10
262.107054
 20
80.959848
 30
0.0
 10
261.226295
 20
81.008164
 30
0.0
 11
266.661277
 21
76.559297
 31
0.0
 11
265.739154
 21
78.990220
 31
0.0
 11
263.791422
 21
80.584593
 31
0.0
 11
261.226295
 21
81.008164
 31
0.0
  0
LWPOLYLINE
  5
104
100
AcDbEntity
  8
Layer_1
 62
7
100
AcDbPolyline
 90
9
 70
0
 10
261.226295
 20
81.008164
 30
0.0
 10
261.192671
 20
81.004777
 30
0.0
 10
251.209060
 20
80.008166
 30
0.0
 10
246.062913
 20
79.494436
 30
0.0
 10
209.065343
 20
450.066015
 30
0.0
 10
209.279217
 20
450.086899
 30
0.0
 10
217.239314
 20
450.881186
 30
0.0
 10
219.225343
 20
430.980681
 30
0.0
 10
226.224674
 20
431.679068
 30
0.0
  0
SPLINE
  5
105
100
AcDbEntity
  8
Layer_1
 62
7
100
AcDbSpline
 70
0
 71
3
 72
10
 73
6
 74
4
 40
0.000000
 40
0.000000
 40
0.000000
 40
0.000000
 40
2.599788
 40
5.116670
 40
7.716565
 40
7.716565
 40
7.716565
 40
7.716565
 10
226.224674
 20
431.679068
 30
0.0
 10
227.078493
 20
431.900475
 30
0.0
 10
228.758902
 20
432.336227
 30
0.0
 10
230.529722
 20
434.499861
 30
0.0
 10
230.624715
 20
436.233277
 30
0.0
 10
230.672982
 20
437.114047
 30
0.0
 11
226.224674
 21
431.679068
 31
0.0
 11
228.655440
 21
432.601171
 31
0.0
 11
230.249550
 21
434.548864
 31
0.0
 11
230.672982
 21
437.114047
 31
0.0
  0
LWPOLYLINE
  5
106
100
AcDbEntity
  8
Layer_1
 62
7
100
AcDbPolyline
 90
2
 70
0
 10
230.672982
 20
437.114047
 30
0.0
 10
227.686498
 20
467.032340
 30
0.0
  0
LWPOLYLINE
  5
107
100
AcDbEntity
  8
Layer_1
 62
7
100
AcDbPolyline
 90
6
 70
0
 10
222.252066
 20
471.481206
 30
0.0
 10
222.217892
 20
471.481206
 30
0.0
 10
212.234281
 20
470.484623
 30
0.0
 10
207.078764
 20
469.970330
 30
0.0
 10
203.280341
 20
508.010809
 30
0.0
 10
50.880341
 20
508.034177
 30
0.0
  0
LWPOLYLINE
  5
108
100
AcDbEntity
  8
Layer_1
 62
7
100
AcDbPolyline
 90
5
 70
0
 10
59.948383
 20
495.391496
 30
0.0
 10
67.896907
 20
494.485845
 30
0.0
 10
62.802576
 20
449.775128
 30
0.0
 10
54.854049
 20
450.680780
 30
0.0
 10
59.948383
 20
495.391496
 30
0.0
  0
SPLINE
  5
109
100
AcDbEntity
  8
Layer_1
 62
7
100
AcDbSpline
 70
0
 71
3
 72
10
 73
6
 74
4
 40
0.000000
 40
0.000000
 40
0.000000
 40
0.000000
 40
2.599937
 40
5.116786
 40
7.716500
 40
7.716500
 40
7.716500
 40
7.716500
 10
227.686498
 20
467.032340
 30
0.0
 10
227.465127
 20
467.886209
 30
0.0
 10
227.029459
 20
469.566658
 30
0.0
 10
224.866147
 20
471.337835
 30
0.0
 10
223.132784
 20
471.432903
 30
0.0
 10
222.252066
 20
471.481206
 30
0.0
 11
227.686498
 21
467.032340
 31
0.0
 11
226.764505
 21
469.463307
 31
0.0
 11
224.817044
 21
471.057648
 31
0.0
 11
222.252066
 21
471.481206
 31
0.0
  0
SPLINE
  5
10a
100
AcDbEntity
  8
Layer_1
 62
7
100
AcDbSpline
 70
0
 71
3
 72
16
 73
12
 74
10
 40
0.000000
 40
0.000000
 40
0.000000
 40
0.000000
 40
6.698987
 40
12.521838
 40
17.404589
 40
21.725342
 40
24.720976
 40
26.316882
 40
26.669511
 40
26.893713
 40
27.031596
 40
27.031596
 40
27.031596
 40
27.031596
 10
121.192259
 20
490.801519
 30
0.0
 10
122.114921
 20
488.767735
 30
0.0
 10
123.839572
 20
484.966159
 30
0.0
 10
125.923080
 20
479.546571
 30
0.0
 10
127.441139
 20
474.772791
 30
0.0
 10
128.238630
 20
470.759163
 30
0.0
 10
128.357580
 20
467.803414
 30
0.0
 10
128.201566
 20
466.121087
 30
0.0
 10
127.879265
 20
465.469800
 30
0.0
 10
127.769876
 20
465.258170
 30
0.0
 10
127.706827
 20
465.155204
 30
0.0
 10
127.682817
 20
465.115995
 30
0.0
 11
121.192259
 21
490.801519
 31
0.0
 11
123.895658
 21
484.672240
 31
0.0
 11
125.976446
 21
479.233866
 31
0.0
 11
127.405557
 21
474.564936
 31
0.0
 11
128.192504
 21
470.316451
 31
0.0
 11
128.288505
 21
467.322357
 31
0.0
 11
128.009687
 21
465.750995
 31
0.0
 11
127.859198
 21
465.432090
 31
0.0
 11
127.753739
 21
465.234240
 31
0.0
 11
127.682817
 21
465.115995
 31
0.0
  0
LWPOLYLINE
  5
10b
100
AcDbEntity
  8
Layer_1
 62
7
100
AcDbPolyline
 90
2
 70
0
 10
84.744800
 20
490.801519
 30
0.0
 10
121.192259
 20
490.801519
 30
0.0
  0
LWPOLYLINE
  5
10c
100
AcDbEntity
  8
Layer_1
 62
7
100
AcDbPolyline
 90
2
 70
0
 10
83.998455
 20
480.747352
 30
0.0
 10
84.744800
 20
490.801519
 30
0.0
  0
SPLINE
  5
10d
100
AcDbEntity
  8
Layer_1
 62
7
100
AcDbSpline
 70
0
 71
3
 72
13
 73
9
 74
7
 40
0.000000
 40
0.000000
 40
0.000000
 40
0.000000
 40
0.173128
 40
0.448580
 40
0.859237
 40
6.118768
 40
19.447730
 40
46.546143
 40
46.546143
 40
46.546143
 40
46.546143
 10
127.682817
 20
465.115995
 30
0.0
 10
127.625699
 20
465.107659
 30
0.0
 10
127.477704
 20
465.086063
 30
0.0
 10
127.191828
 20
465.065554
 30
0.0
 10
125.208708
 20
465.011379
 30
0.0
 10
119.012144
 20
466.828315
 30
0.0
 10
104.869102
 20
472.201048
 30
0.0
 10
92.373943
 20
477.317681
 30
0.0
 10
83.998455
 20
480.747352
 30
0.0
 11
127.682817
 21
465.115995
 31
0.0
 11
127.511276
 21
465.092611
 31
0.0
 11
127.236720
 21
465.070413
 31
0.0
 11
126.826231
 21
465.058675
 31
0.0
 11
121.668666
 21
466.089305
 31
0.0
 11
109.133778
 21
470.621171
 31
0.0
 11
83.998455
 21
480.747352
 31
0.0
  0
SPLINE
  5
10e
100
AcDbEntity
  8
Layer_1
 62
7
100
AcDbSpline
 70
0
 71
3
 72
19
 73
15
 74
13
 40
0.000000
 40
0.000000
 40
0.000000
 40
0.000000
 40
3.380147
 40
6.090215
 40
7.804173
 40
10.337384
 40
13.280477
 40
16.238694
 40
17.605319
 40
18.828450
 40
19.844461
 40
20.225281
 40
20.541062
 40
20.770762
 40
20.770762
 40
20.770762
 40
20.770762
 10
158.316606
 20
490.801519
 30
0.0
 10
157.864974
 20
489.769115
 30
0.0
 10
157.051241
 20
487.908969
 30
0.0
 10
155.961247
 20
485.548171
 30
0.0
 10
154.907046
 20
483.477132
 30
0.0
 10
153.458405
 20
481.556246
 30
0.0
 10
151.673107
 20
479.386437
 30
0.0
 10
150.019309
 20
477.612612
 30
0.0
 10
148.693046
 20
476.323126
 30
0.0
 10
147.797316
 20
475.521877
 30
0.0
 10
147.135009
 20
474.951253
 30
0.0
 10
146.664593
 20
474.625700
 30
0.0
 10
146.388995
 20
474.485022
 30
0.0
 10
146.222112
 20
474.412865
 30
0.0
 10
146.151838
 20
474.382479
 30
0.0
 11
158.316606
 21
490.801519
 31
0.0
 11
156.950350
 21
487.709797
 31
0.0
 11
155.802437
 21
485.254851
 31
0.0
 11
154.996637
 21
483.742125
 31
0.0
 11
153.529041
 21
481.677344
 31
0.0
 11
151.652998
 21
479.409690
 31
0.0
 11
149.633864
 21
477.247712
 31
0.0
 11
148.651991
 21
476.297138
 31
0.0
 11
147.742940
 21
475.478802
 31
0.0
 11
146.958265
 21
474.833386
 31
0.0
 11
146.641972
 21
474.621293
 31
0.0
 11
146.361846
 21
474.475530
 31
0.0
 11
146.151838
 21
474.382479
 31
0.0
  0
LWPOLYLINE
  5
10f
100
AcDbEntity
  8
Layer_1
 62
7
100
AcDbPolyline
 90
2
 70
0
 10
134.214168
 20
490.801519
 30
0.0
 10
158.316606
 20
490.801519
 30
0.0
  0
LWPOLYLINE
  5
110
100
AcDbEntity
  8
Layer_1
 62
7
100
AcDbPolyline
 90
2
 70
0
 10
134.214168
 20
490.801519
 30
0.0
 10
134.214168
 20
490.801519
 30
0.0
  0
SPLINE
  5
111
100
AcDbEntity
  8
Layer_1
 62
7
100
AcDbSpline
 70
0
 71
3
 72
13
 73
9
 74
7
 40
0.000000
 40
0.000000
 40
0.000000
 40
0.000000
 40
0.665256
 40
1.822738
 40
3.827854
 40
7.832119
 40
13.394637
 40
20.554110
 40
20.554110
 40
20.554110
 40
20.554110
 10
146.151838
 20
474.382479
 30
0.0
 10
145.935057
 20
474.439333
 30
0.0
 10
145.341101
 20
474.595108
 30
0.0
 10
144.375335
 20
475.484726
 30
0.0
 10
142.711486
 20
477.171405
 30
0.0
 10
140.391048
 20
480.285111
 30
0.0
 10
137.423455
 20
484.999504
 30
0.0
 10
135.369857
 20
488.712167
 30
0.0
 10
134.214168
 20
490.801519
 30
0.0
 11
146.151838
 21
474.382479
 31
0.0
 11
145.519358
 21
474.588720
 31
0.0
 11
144.597725
 21
475.288975
 31
0.0
 11
143.196771
 21
476.723484
 31
0.0
 11
140.742235
 21
479.887246
 31
0.0
 11
137.745703
 21
484.573652
 31
0.0
 11
134.214168
 21
490.801519
 31
0.0
  0
SPLINE
  5
112
100
AcDbEntity
  8
Layer_1
 62
7
100
AcDbSpline
 70
0
 71
3
 72
13
 73
9
 74
7
 40
0.000000
 40
0.000000
 40
0.000000
 40
0.000000
 40
11.839574
 40
20.855484
 40
27.010871
 40
28.455430
 40
29.607235
 40
30.523673
 40
30.523673
 40
30.523673
 40
30.523673
 10
186.264325
 20
457.287094
 30
0.0
 10
182.535253
 20
458.579659
 30
0.0
 10
175.966471
 20
460.856521
 30
0.0
 10
167.502649
 20
463.923315
 30
0.0
 10
162.331046
 20
465.916981
 30
0.0
 10
159.678802
 20
467.132971
 30
0.0
 10
158.632860
 20
467.660519
 30
0.0
 10
158.034038
 20
468.002305
 30
0.0
 10
157.768700
 20
468.153750
 30
0.0
 11
186.264325
 21
457.287094
 31
0.0
 11
175.087986
 21
461.194134
 31
0.0
 11
166.617579
 21
464.282636
 31
0.0
 11
160.905665
 21
466.576720
 31
0.0
 11
159.594343
 21
467.182678
 31
0.0
 11
158.568051
 21
467.705536
 31
0.0
 11
157.768700
 21
468.153750
 31
0.0
  0
LWPOLYLINE
  5
113
100
AcDbEntity
  8
Layer_1
 62
7
100
AcDbPolyline
 90
2
 70
0
 10
184.815179
 20
476.813880
 30
0.0
 10
186.264325
 20
457.287094
 30
0.0
  0
SPLINE
  5
114
100
AcDbEntity
  8
Layer_1
 62
7
100
AcDbSpline
 70
0
 71
3
 72
16
 73
12
 74
10
 40
0.000000
 40
0.000000
 40
0.000000
 40
0.000000
 40
0.446052
 40
0.885618
 40
1.345970
 40
5.623244
 40
8.419061
 40
10.513646
 40
14.039003
 40
20.374364
 40
30.056185
 40
30.056185
 40
30.056185
 40
30.056185
 10
157.768700
 20
468.153750
 30
0.0
 10
157.850748
 20
468.277732
 30
0.0
 10
158.013651
 20
468.523892
 30
0.0
 10
158.258424
 20
468.900126
 30
0.0
 10
159.303741
 20
470.274336
 30
0.0
 10
160.945079
 20
472.174203
 30
0.0
 10
163.214885
 20
474.261944
 30
0.0
 10
165.786997
 20
475.473673
 30
0.0
 10
169.767887
 20
476.022528
 30
0.0
 10
176.245062
 20
476.567980
 30
0.0
 10
181.586480
 20
476.721240
 30
0.0
 10
184.815179
 20
476.813880
 30
0.0
 11
157.768700
 21
468.153750
 31
0.0
 11
158.014375
 21
468.526048
 31
0.0
 11
158.258949
 21
468.891291
 31
0.0
 11
158.533787
 21
469.260597
 31
0.0
 11
161.344708
 21
472.484539
 31
0.0
 11
163.481274
 21
474.287780
 31
0.0
 11
165.371061
 21
475.191102
 31
0.0
 11
168.830267
 21
475.870840
 31
0.0
 11
175.141026
 21
476.428613
 31
0.0
 11
184.815179
 21
476.813880
 31
0.0
  0
SPLINE
  5
115
100
AcDbEntity
  8
Layer_1
 62
7
100
AcDbSpline
 70
0
 71
3
 72
16
 73
12
 74
10
 40
0.000000
 40
0.000000
 40
0.000000
 40
0.000000
 40
2.854625
 40
5.654789
 40
8.152850
 40
11.860110
 40
14.610259
 40
15.923523
 40
16.460012
 40
16.890425
 40
17.237934
 40
17.237934
 40
17.237934
 40
17.237934
 10
83.133049
 20
469.082543
 30
0.0
 10
84.004712
 20
468.700941
 30
0.0
 10
85.731409
 20
467.945015
 30
0.0
 10
88.222514
 20
466.858547
 30
0.0
 10
90.958804
 20
465.624736
 30
0.0
 10
93.651768
 20
464.331579
 30
0.0
 10
95.940892
 20
463.126712
 30
0.0
 10
97.312395
 20
462.429046
 30
0.0
 10
97.922203
 20
461.973151
 30
0.0
 10
98.257680
 20
461.690934
 30
0.0
 10
98.443727
 20
461.510202
 30
0.0
 10
98.526838
 20
461.429467
 30
0.0
 11
83.133049
 21
469.082543
 31
0.0
 11
85.748326
 21
467.938335
 31
0.0
 11
88.312301
 21
466.812747
 31
0.0
 11
90.588234
 21
465.782970
 31
0.0
 11
93.926549
 21
464.170697
 31
0.0
 11
96.370829
 21
462.910216
 31
0.0
 11
97.515356
 21
462.266228
 31
0.0
 11
97.946938
 21
461.947545
 31
0.0
 11
98.275012
 21
461.668939
 31
0.0
 11
98.526838
 21
461.429467
 31
0.0
  0
LWPOLYLINE
  5
116
100
AcDbEntity
  8
Layer_1
 62
7
100
AcDbPolyline
 90
2
 70
0
 10
184.815179
 20
476.813880
 30
0.0
 10
184.815179
 20
476.813880
 30
0.0
  0
SPLINE
  5
117
100
AcDbEntity
  8
Layer_1
 62
7
100
AcDbSpline
 70
0
 71
3
 72
13
 73
9
 74
7
 40
0.000000
 40
0.000000
 40
0.000000
 40
0.000000
 40
1.792806
 40
4.960595
 40
9.453120
 40
12.023114
 40
15.555789
 40
19.749623
 40
19.749623
 40
19.749623
 40
19.749623
 10
98.526838
 20
461.429467
 30
0.0
 10
98.097375
 20
461.013306
 30
0.0
 10
96.909077
 20
459.861811
 30
0.0
 10
94.362985
 20
457.989399
 30
0.0
 10
91.469753
 20
456.180385
 30
0.0
 10
88.359205
 20
454.506062
 30
0.0
 10
85.324391
 20
452.903454
 30
0.0
 10
83.037949
 20
451.717861
 30
0.0
 10
81.796902
 20
451.074338
 30
0.0
 11
98.526838
 21
461.429467
 31
0.0
 11
97.219148
 21
460.203049
 31
0.0
 11
94.702141
 21
458.279624
 31
0.0
 11
90.895261
 21
455.894158
 31
0.0
 11
88.640573
 21
454.660768
 31
0.0
 11
85.517357
 21
453.009916
 31
0.0
 11
81.796902
 21
451.074338
 31
0.0
  0
LWPOLYLINE
  5
118
100
AcDbEntity
  8
Layer_1
 62
7
100
AcDbPolyline
 90
2
 70
0
 10
81.796902
 20
451.074338
 30
0.0
 10
83.133049
 20
469.082543
 30
0.0
  0
LWPOLYLINE
  5
119
100
AcDbEntity
  8
Layer_1
 62
7
100
AcDbPolyline
 90
2
 70
0
 10
156.940773
 20
466.856177
 30
0.0
 10
156.940773
 20
466.856177
 30
0.0
  0
SPLINE
  5
11a
100
AcDbEntity
  8
Layer_1
 62
7
100
AcDbSpline
 70
0
 71
3
 72
13
 73
9
 74
7
 40
0.000000
 40
0.000000
 40
0.000000
 40
0.000000
 40
0.117360
 40
0.166612
 40
0.176195
 40
0.215343
 40
0.281196
 40
0.336449
 40
0.336449
 40
0.336449
 40
0.336449
 10
156.940773
 20
466.856177
 30
0.0
 10
156.930341
 20
466.828055
 30
0.0
 10
156.915532
 20
466.788132
 30
0.0
 10
156.880121
 20
466.691002
 30
0.0
 10
156.859773
 20
466.724047
 30
0.0
 10
156.896576
 20
466.755940
 30
0.0
 10
156.912291
 20
466.803931
 30
0.0
 10
156.931849
 20
466.839808
 30
0.0
 10
156.940773
 20
466.856177
 30
0.0
 11
156.940773
 21
466.856177
 31
0.0
 11
156.900212
 21
466.746049
 31
0.0
 11
156.871873
 21
466.705767
 31
0.0
 11
156.866909
 21
466.713965
 31
0.0
 11
156.884742
 21
466.748815
 31
0.0
 11
156.915602
 21
466.806990
 31
0.0
 11
156.940773
 21
466.856177
 31
0.0
  0
SPLINE
  5
11b
100
AcDbEntity
  8
Layer_1
 62
7
100
AcDbSpline
 70
0
 71
3
 72
10
 73
6
 74
4
 40
0.000000
 40
0.000000
 40
0.000000
 40
0.000000
 40
8.200175
 40
21.757188
 40
41.247036
 40
41.247036
 40
41.247036
 40
41.247036
 10
147.144038
 20
456.973996
 30
0.0
 10
149.859657
 20
456.634228
 30
0.0
 10
157.064897
 20
455.732734
 30
0.0
 10
170.280797
 20
451.767441
 30
0.0
 10
180.726634
 20
448.297940
 30
0.0
 10
186.887212
 20
446.251753
 30
0.0
 11
147.144038
 21
456.973996
 31
0.0
 11
155.257647
 21
455.785632
 31
0.0
 11
168.355858
 21
452.288564
 31
0.0
 11
186.887212
 21
446.251753
 31
0.0
  0
LWPOLYLINE
  5
11c
100
AcDbEntity
  8
Layer_1
 62
7
100
AcDbPolyline
 90
2
 70
0
 10
147.143473
 20
456.973996
 30
0.0
 10
147.144038
 20
456.973996
 30
0.0
  0
SPLINE
  5
11d
100
AcDbEntity
  8
Layer_1
 62
7
100
AcDbSpline
 70
0
 71
3
 72
10
 73
6
 74
4
 40
0.000000
 40
0.000000
 40
0.000000
 40
0.000000
 40
0.071821
 40
0.141575
 40
0.213020
 40
0.213020
 40
0.213020
 40
0.213020
 10
186.887212
 20
446.251753
 30
0.0
 10
186.909826
 20
446.243895
 30
0.0
 10
186.954402
 20
446.228405
 30
0.0
 10
187.021432
 20
446.204974
 30
0.0
 10
187.065903
 20
446.189561
 30
0.0
 10
187.088405
 20
446.181762
 30
0.0
 11
186.887212
 21
446.251753
 31
0.0
 11
186.955046
 21
446.228157
 31
0.0
 11
187.020910
 21
446.205189
 31
0.0
 11
187.088405
 21
446.181762
 31
0.0
  0
LWPOLYLINE
  5
11e
100
AcDbEntity
  8
Layer_1
 62
7
100
AcDbPolyline
 90
2
 70
0
 10
187.088405
 20
446.181762
 30
0.0
 10
189.016005
 20
420.200215
 30
0.0
  0
SPLINE
  5
11f
100
AcDbEntity
  8
Layer_1
 62
7
100
AcDbSpline
 70
0
 71
3
 72
10
 73
6
 74
4
 40
0.000000
 40
0.000000
 40
0.000000
 40
0.000000
 40
6.704319
 40
12.015805
 40
19.267572
 40
19.267572
 40
19.267572
 40
19.267572
 10
189.016005
 20
420.200215
 30
0.0
 10
187.167966
 20
418.908719
 30
0.0
 10
183.855821
 20
416.594038
 30
0.0
 10
177.496654
 20
415.060989
 30
0.0
 10
173.301119
 20
415.153062
 30
0.0
 10
170.879370
 20
415.206208
 30
0.0
 11
189.016005
 21
420.200215
 31
0.0
 11
183.268407
 21
416.748693
 31
0.0
 11
178.128259
 21
415.410501
 31
0.0
 11
170.879370
 21
415.206208
 31
0.0
  0
SPLINE
  5
120
100
AcDbEntity
  8
Layer_1
 62
7
100
AcDbSpline
 70
0
 71
3
 72
13
 73
9
 74
7
 40
0.000000
 40
0.000000
 40
0.000000
 40
0.000000
 40
10.320671
 40
21.217377
 40
28.565125
 40
31.176859
 40
33.033653
 40
34.016520
 40
34.016520
 40
34.016520
 40
34.016520
 10
170.879370
 20
415.206208
 30
0.0
 10
167.438591
 20
415.281350
 30
0.0
 10
160.364990
 20
415.435827
 30
0.0
 10
150.878392
 20
416.147235
 30
0.0
 10
143.913478
 20
416.540176
 30
0.0
 10
140.067253
 20
417.438127
 30
0.0
 10
138.373568
 20
418.130896
 30
0.0
 10
137.574726
 20
418.640325
 30
0.0
 10
137.298230
 20
418.816649
 30
0.0
 11
170.879370
 21
415.206208
 31
0.0
 11
160.563474
 21
415.520110
 31
0.0
 11
149.687759
 21
416.196154
 31
0.0
 11
142.377680
 21
416.939222
 31
0.0
 11
139.844132
 21
417.573483
 31
0.0
 11
138.137711
 21
418.305474
 31
0.0
 11
137.298230
 21
418.816649
 31
0.0
  0
LWPOLYLINE
  5
121
100
AcDbEntity
  8
Layer_1
 62
7
100
AcDbPolyline
 90
2
 70
0
 10
170.879370
 20
415.206208
 30
0.0
 10
170.879370
 20
415.206208
 30
0.0
  0
SPLINE
  5
122
100
AcDbEntity
  8
Layer_1
 62
7
100
AcDbSpline
 70
0
 71
3
 72
25
 73
21
 74
19
 40
0.000000
 40
0.000000
 40
0.000000
 40
0.000000
 40
0.498054
 40
1.247604
 40
2.118314
 40
3.609426
 40
5.031306
 40
6.115965
 40
8.786995
 40
14.116232
 40
20.993917
 40
27.205554
 40
31.800935
 40
34.964357
 40
36.838638
 40
37.889301
 40
38.846430
 40
39.393768
 40
40.536649
 40
42.391348
 40
42.391348
 40
42.391348
 40
42.391348
 10
137.298230
 20
418.816649
 30
0.0
 10
137.244692
 20
418.973775
 30
0.0
 10
137.110582
 20
419.367370
 30
0.0
 10
136.884643
 20
420.036973
 30
0.0
 10
136.674416
 20
421.055793
 30
0.0
 10
136.591987
 20
422.316561
 30
0.0
 10
136.556824
 20
423.649873
 30
0.0
 10
136.700446
 20
425.372242
 30
0.0
 10
137.245279
 20
428.353521
 30
0.0
 10
137.948827
 20
433.262172
 30
0.0
 10
138.886985
 20
439.330165
 30
0.0
 10
139.815227
 20
445.150595
 30
0.0
 10
140.677011
 20
449.730736
 30
0.0
 10
141.503389
 20
452.834262
 30
0.0
 10
142.151519
 20
454.763178
 30
0.0
 10
142.839062
 20
455.882069
 30
0.0
 10
143.535511
 20
456.405217
 30
0.0
 10
144.350218
 20
456.752237
 30
0.0
 10
145.526056
 20
456.955152
 30
0.0
 10
146.525252
 20
456.967125
 30
0.0
 10
147.143487
 20
456.974533
 30
0.0
 11
137.298230
 21
418.816649
 31
0.0
 11
137.137782
 21
419.288151
 31
0.0
 11
136.911122
 21
420.002609
 31
0.0
 11
136.731031
 21
420.854491
 31
0.0
 11
136.600393
 21
422.339869
 31
0.0
 11
136.583327
 21
423.761647
 31
0.0
 11
136.666538
 21
424.843109
 31
0.0
 11
137.074553
 21
427.482792
 31
0.0
 11
137.884090
 21
432.750184
 31
0.0
 11
138.926523
 21
439.548411
 31
0.0
 11
139.932901
 21
445.677981
 31
0.0
 11
140.830935
 21
450.184760
 31
0.0
 11
141.655036
 21
453.238955
 31
0.0
 11
142.324053
 21
454.989767
 31
0.0
 11
142.908113
 21
455.863132
 31
0.0
 11
143.668626
 21
456.444265
 31
0.0
 11
144.171188
 21
456.661084
 31
0.0
 11
145.290662
 21
456.891205
 31
0.0
 11
147.143487
 21
456.974533
 31
0.0
  0
SPLINE
  5
123
100
AcDbEntity
  8
Layer_1
 62
7
100
AcDbSpline
 70
0
 71
3
 72
13
 73
9
 74
7
 40
0.000000
 40
0.000000
 40
0.000000
 40
0.000000
 40
1.510257
 40
3.177285
 40
5.228938
 40
7.769367
 40
9.324072
 40
9.967965
 40
9.967965
 40
9.967965
 40
9.967965
 10
117.096176
 20
454.782372
 30
0.0
 10
117.600310
 20
454.768443
 30
0.0
 10
118.660909
 20
454.739140
 30
0.0
 10
120.373498
 20
454.379568
 30
0.0
 10
122.380129
 20
453.811635
 30
0.0
 10
124.325888
 20
453.163759
 30
0.0
 10
125.787127
 20
452.559197
 30
0.0
 10
126.444183
 20
452.234420
 30
0.0
 10
126.636611
 20
452.139304
 30
0.0
 11
117.096176
 21
454.782372
 31
0.0
 11
118.604066
 21
454.697842
 31
0.0
 11
120.242348
 21
454.389598
 31
0.0
 11
122.219723
 21
453.842543
 31
0.0
 11
124.624983
 21
453.024924
 31
0.0
 11
126.057536
 21
452.420852
 31
0.0
 11
126.636611
 21
452.139304
 31
0.0
  0
LWPOLYLINE
  5
124
100
AcDbEntity
  8
Layer_1
 62
7
100
AcDbPolyline
 90
2
 70
0
 10
147.143487
 20
456.974533
 30
0.0
 10
147.143473
 20
456.973996
 30
0.0
  0
SPLINE
  5
125
100
AcDbEntity
  8
Layer_1
 62
7
100
AcDbSpline
 70
0
 71
3
 72
25
 73
21
 74
19
 40
0.000000
 40
0.000000
 40
0.000000
 40
0.000000
 40
0.263897
 40
0.992017
 40
2.387808
 40
8.813666
 40
19.086715
 40
26.655856
 40
29.400027
 40
31.535932
 40
33.372557
 40
35.325011
 40
37.766056
 40
40.930545
 40
44.085644
 40
49.438846
 40
56.186875
 40
62.187234
 40
68.459080
 40
74.783186
 40
74.783186
 40
74.783186
 40
74.783186
 10
126.636611
 20
452.139304
 30
0.0
 10
126.650235
 20
452.052369
 30
0.0
 10
126.701449
 20
451.725569
 30
0.0
 10
126.740373
 20
450.929320
 30
0.0
 10
126.804201
 20
448.078586
 30
0.0
 10
125.821609
 20
442.091537
 30
0.0
 10
124.698919
 20
434.105048
 30
0.0
 10
123.676838
 20
427.296113
 30
0.0
 10
122.422739
 20
423.327969
 30
0.0
 10
121.374436
 20
421.329497
 30
0.0
 10
120.043868
 20
419.842988
 30
0.0
 10
118.306043
 20
418.670979
 30
0.0
 10
115.953647
 20
417.740530
 30
0.0
 10
113.118581
 20
416.989863
 30
0.0
 10
109.229685
 20
416.682408
 30
0.0
 10
104.150860
 20
416.486948
 30
0.0
 10
98.114417
 20
416.456680
 30
0.0
 10
91.776111
 20
416.609008
 30
0.0
 10
85.582009
 20
416.860563
 30
0.0
 10
81.390545
 20
417.107075
 30
0.0
 10
79.286117
 20
417.230842
 30
0.0
 11
126.636611
 21
452.139304
 31
0.0
 11
126.675003
 21
451.878215
 31
0.0
 11
126.727284
 21
451.151974
 31
0.0
 11
126.751264
 21
449.756389
 31
0.0
 11
126.050404
 21
443.368866
 31
0.0
 11
124.553800
 21
433.205416
 31
0.0
 11
123.153481
 21
425.766936
 31
0.0
 11
122.276073
 21
423.166814
 31
0.0
 11
121.249066
 21
421.294023
 31
0.0
 11
120.021477
 21
419.927927
 31
0.0
 11
118.414298
 21
418.819301
 31
0.0
 11
116.165670
 21
417.869371
 31
0.0
 11
113.100418
 21
417.083099
 31
0.0
 11
109.962306
 21
416.756132
 31
0.0
 11
104.613832
 21
416.531198
 31
0.0
 11
97.865930
 21
416.490009
 31
0.0
 11
91.867045
 21
416.623023
 31
0.0
 11
85.600414
 21
416.878729
 31
0.0
 11
79.286117
 21
417.230842
 31
0.0
  0
LWPOLYLINE
  5
126
100
AcDbEntity
  8
Layer_1
 62
7
100
AcDbPolyline
 90
2
 70
0
 10
79.286117
 20
417.230842
 30
0.0
 10
80.906688
 20
439.069424
 30
0.0
  0
LWPOLYLINE
  5
127
100
AcDbEntity
  8
Layer_1
 62
7
100
AcDbPolyline
 90
2
 70
0
 10
117.096176
 20
454.782372
 30
0.0
 10
117.096176
 20
454.782372
 30
0.0
  0
SPLINE
  5
128
100
AcDbEntity
  8
Layer_1
 62
7
100
AcDbSpline
 70
0
 71
3
 72
13
 73
9
 74
7
 40
0.000000
 40
0.000000
 40
0.000000
 40
0.000000
 40
2.341425
 40
4.746905
 40
7.285780
 40
24.346402
 40
34.302181
 40
39.587349
 40
39.587349
 40
39.587349
 40
39.587349
 10
80.906688
 20
439.069424
 30
0.0
 10
81.601878
 20
439.424202
 30
0.0
 10
83.011276
 20
440.143465
 30
0.0
 10
85.176287
 20
441.243487
 30
0.0
 10
91.724492
 20
444.552578
 30
0.0
 10
100.585060
 20
448.767880
 30
0.0
 10
110.342873
 20
453.555070
 30
0.0
 10
115.357302
 20
454.466360
 30
0.0
 10
117.096176
 20
454.782372
 30
0.0
 11
80.906688
 21
439.069424
 31
0.0
 11
82.992543
 21
440.133135
 31
0.0
 11
85.137143
 21
441.222641
 31
0.0
 11
87.403864
 21
442.366259
 31
0.0
 11
102.739720
 21
449.841306
 31
0.0
 11
111.928900
 21
453.672301
 31
0.0
 11
117.096176
 21
454.782372
 31
0.0
  0
LWPOLYLINE
  5
129
100
AcDbEntity
  8
Layer_1
 62
7
100
AcDbPolyline
 90
2
 70
0
 10
78.470317
 20
406.238484
 30
0.0
 10
78.470882
 20
406.238484
 30
0.0
  0
LWPOLYLINE
  5
12a
100
AcDbEntity
  8
Layer_1
 62
7
100
AcDbPolyline
 90
2
 70
0
 10
76.089632
 20
374.157212
 30
0.0
 10
78.470317
 20
406.238484
 30
0.0
  0
SPLINE
  5
12b
100
AcDbEntity
  8
Layer_1
 62
7
100
AcDbSpline
 70
0
 71
3
 72
40
 73
36
 74
34
 40
0.000000
 40
0.000000
 40
0.000000
 40
0.000000
 40
3.691449
 40
7.551031
 40
11.793322
 40
22.146949
 40
29.821915
 40
35.149315
 40
38.395484
 40
40.290013
 40
42.002377
 40
42.044548
 40
42.598578
 40
43.511277
 40
44.645630
 40
45.985541
 40
47.494822
 40
50.898707
 40
54.654886
 40
58.570682
 40
61.134566
 40
62.858788
 40
63.842010
 40
64.271101
 40
64.583889
 40
65.275625
 40
66.539039
 40
67.358789
 40
69.223918
 40
73.020285
 40
79.021648
 40
87.517333
 40
95.191210
 40
103.188434
 40
111.170572
 40
111.170572
 40
111.170572
 40
111.170572
 10
78.470882
 20
406.238484
 30
0.0
 10
79.699295
 20
406.166601
 30
0.0
 10
82.212071
 20
406.019561
 30
0.0
 10
86.135532
 20
405.782820
 30
0.0
 10
92.278059
 20
405.389749
 30
0.0
 10
99.655308
 20
404.862039
 30
0.0
 10
107.480062
 20
404.002230
 30
0.0
 10
112.652338
 20
403.181514
 30
0.0
 10
116.334962
 20
401.982770
 30
0.0
 10
117.774750
 20
401.383256
 30
0.0
 10
119.632007
 20
399.181522
 30
0.0
 10
118.872492
 20
399.542808
 30
0.0
 10
119.432036
 20
398.644938
 30
0.0
 10
119.434008
 20
398.062221
 30
0.0
 10
119.758147
 20
396.858932
 30
0.0
 10
119.976315
 20
395.588210
 30
0.0
 10
120.329371
 20
393.517932
 30
0.0
 10
120.710733
 20
390.661491
 30
0.0
 10
121.099319
 20
386.986733
 30
0.0
 10
121.356125
 20
383.583780
 30
0.0
 10
121.491634
 20
380.854311
 30
0.0
 10
121.569882
 20
379.094900
 30
0.0
 10
121.530297
 20
378.054251
 30
0.0
 10
121.511925
 20
377.473025
 30
0.0
 10
121.329243
 20
377.025275
 30
0.0
 10
120.925519
 20
376.390820
 30
0.0
 10
120.683489
 20
375.437809
 30
0.0
 10
119.518822
 20
374.695697
 30
0.0
 10
117.344888
 20
374.461276
 30
0.0
 10
113.512898
 20
373.889468
 30
0.0
 10
107.395384
 20
373.778647
 30
0.0
 10
100.013639
 20
373.686826
 30
0.0
 10
91.955720
 20
373.761509
 30
0.0
 10
84.073256
 20
373.913242
 30
0.0
 10
78.749164
 20
374.075940
 30
0.0
 10
76.089632
 20
374.157212
 30
0.0
 11
78.470882
 21
406.238484
 31
0.0
 11
82.155963
 21
406.021750
 31
0.0
 11
86.008475
 21
405.788252
 31
0.0
 11
90.242083
 21
405.516955
 31
0.0
 11
100.565035
 21
404.720568
 31
0.0
 11
108.190896
 21
403.853757
 31
0.0
 11
113.425645
 21
402.864518
 31
0.0
 11
116.519998
 21
401.883401
 31
0.0
 11
118.110434
 21
400.853956
 31
0.0
 11
119.081666
 21
399.443674
 31
0.0
 11
119.042981
 21
399.460461
 31
0.0
 11
119.221585
 21
398.936008
 31
0.0
 11
119.472476
 21
398.058471
 31
0.0
 11
119.717186
 21
396.950827
 31
0.0
 11
119.968107
 21
395.634621
 31
0.0
 11
120.216617
 21
394.145939
 31
0.0
 11
120.680824
 21
390.773856
 31
0.0
 11
121.075338
 21
387.038453
 31
0.0
 11
121.369760
 21
383.133741
 31
0.0
 11
121.502938
 21
380.573318
 31
0.0
 11
121.550723
 21
378.849758
 31
0.0
 11
121.524652
 21
377.866882
 31
0.0
 11
121.481704
 21
377.439945
 31
0.0
 11
121.372604
 21
377.146801
 31
0.0
 11
121.049506
 21
376.535160
 31
0.0
 11
120.485598
 21
375.404574
 31
0.0
 11
119.817066
 21
374.930175
 31
0.0
 11
117.996875
 21
374.523226
 31
0.0
 11
114.228778
 21
374.060784
 31
0.0
 11
108.233148
 21
373.798519
 31
0.0
 11
99.737867
 21
373.715703
 31
0.0
 11
92.064204
 21
373.773003
 31
0.0
 11
84.068490
 21
373.928415
 31
0.0
 11
76.089632
 21
374.157212
 31
0.0
  0
LWPOLYLINE
  5
12c
100
AcDbEntity
  8
Layer_1
 62
7
100
AcDbPolyline
 90
2
 70
0
 10
147.565703
 20
404.218281
 30
0.0
 10
147.566268
 20
404.218281
 30
0.0
  0
SPLINE
  5
12d
100
AcDbEntity
  8
Layer_1
 62
7
100
AcDbSpline
 70
0
 71
3
 72
19
 73
15
 74
13
 40
0.000000
 40
0.000000
 40
0.000000
 40
0.000000
 40
9.247573
 40
18.085933
 40
24.075634
 40
27.626357
 40
30.278937
 40
33.371985
 40
38.133225
 40
45.266722
 40
55.220712
 40
62.626923
 40
68.275893
 40
72.352111
 40
72.352111
 40
72.352111
 40
72.352111
 10
147.566268
 20
404.218281
 30
0.0
 10
150.648381
 20
404.155031
 30
0.0
 10
156.676222
 20
404.031329
 30
0.0
 10
164.688487
 20
403.525552
 30
0.0
 10
170.782342
 20
402.870751
 30
0.0
 10
174.771400
 20
402.013308
 30
0.0
 10
177.583293
 20
400.562995
 30
0.0
 10
179.813884
 20
397.779089
 30
0.0
 10
182.213967
 20
393.400483
 30
0.0
 10
185.014332
 20
386.662053
 30
0.0
 10
187.840496
 20
379.004992
 30
0.0
 10
190.367054
 20
371.763616
 30
0.0
 10
192.183165
 20
366.346366
 30
0.0
 10
193.000087
 20
363.208446
 30
0.0
 10
193.342492
 20
361.893217
 30
0.0
 11
147.566268
 21
404.218281
 31
0.0
 11
156.810276
 21
403.961537
 31
0.0
 11
165.630051
 21
403.388686
 31
0.0
 11
171.574449
 21
402.653387
 31
0.0
 11
175.015063
 21
401.775999
 31
0.0
 11
177.339635
 21
400.498288
 31
0.0
 11
179.396193
 21
398.187982
 31
0.0
 11
181.773163
 21
394.062522
 31
0.0
 11
184.614747
 21
387.519420
 31
0.0
 11
188.102638
 21
378.196517
 31
0.0
 11
190.544062
 21
371.204278
 31
0.0
 11
192.277673
 21
365.827898
 31
0.0
 11
193.342492
 21
361.893217
 31
0.0
  0
LWPOLYLINE
  5
12e
100
AcDbEntity
  8
Layer_1
 62
7
100
AcDbPolyline
 90
2
 70
0
 10
193.342492
 20
361.893217
 30
0.0
 10
193.674873
 20
357.408536
 30
0.0
  0
SPLINE
  5
12f
100
AcDbEntity
  8
Layer_1
 62
7
100
AcDbSpline
 70
0
 71
3
 72
46
 73
42
 74
40
 40
0.000000
 40
0.000000
 40
0.000000
 40
0.000000
 40
0.147866
 40
0.365892
 40
0.694018
 40
1.558586
 40
2.934284
 40
5.293262
 40
8.944573
 40
14.024368
 40
20.732536
 40
29.990945
 40
36.735396
 40
41.350736
 40
44.125016
 40
45.673941
 40
46.929388
 40
47.520377
 40
49.745158
 40
52.771356
 40
56.073614
 40
59.471333
 40
62.675701
 40
67.634152
 40
73.233579
 40
81.677264
 40
86.426116
 40
90.651174
 40
94.275312
 40
97.251989
 40
99.365593
 40
100.270095
 40
101.536038
 40
103.176727
 40
105.221717
 40
106.586513
 40
109.435764
 40
113.164379
 40
113.715492
 40
114.277048
 40
114.848350
 40
114.848350
 40
114.848350
 40
114.848350
 10
193.674873
 20
357.408536
 30
0.0
 10
193.645882
 20
357.368580
 30
0.0
 10
193.574143
 20
357.269710
 30
0.0
 10
193.406983
 20
357.108649
 30
0.0
 10
193.075884
 20
356.775660
 30
0.0
 10
192.398689
 20
356.238555
 30
0.0
 10
190.964457
 20
355.657654
 30
0.0
 10
188.595940
 20
354.993336
 30
0.0
 10
184.968502
 20
354.257970
 30
0.0
 10
179.887905
 20
353.441463
 30
0.0
 10
172.937831
 20
352.476658
 30
0.0
 10
165.432577
 20
351.507453
 30
0.0
 10
158.599018
 20
350.707012
 30
0.0
 10
153.908451
 20
350.397803
 30
0.0
 10
150.905506
 20
350.328356
 30
0.0
 10
149.087141
 20
350.651854
 30
0.0
 10
147.980387
 20
351.102976
 30
0.0
 10
147.207101
 20
352.241294
 30
0.0
 10
145.757905
 20
353.550230
 30
0.0
 10
143.998237
 20
355.806654
 30
0.0
 10
142.141701
 20
358.462251
 30
0.0
 10
140.362159
 20
361.245939
 30
0.0
 10
138.444580
 20
364.587120
 30
0.0
 10
136.502398
 20
368.772691
 30
0.0
 10
135.171381
 20
375.000264
 30
0.0
 10
134.465548
 20
381.221470
 30
0.0
 10
133.897929
 20
387.000319
 30
0.0
 10
133.631590
 20
391.192837
 30
0.0
 10
133.520336
 20
394.797952
 30
0.0
 10
133.601752
 20
397.711978
 30
0.0
 10
133.859130
 20
399.682704
 30
0.0
 10
134.010337
 20
401.124194
 30
0.0
 10
134.791046
 20
402.194052
 30
0.0
 10
136.116996
 20
403.186297
 30
0.0
 10
137.718734
 20
403.822395
 30
0.0
 10
139.807219
 20
403.966034
 30
0.0
 10
142.444695
 20
404.156108
 30
0.0
 10
144.822659
 20
404.214099
 30
0.0
 10
146.436336
 20
404.220393
 30
0.0
 10
146.997669
 20
404.220645
 30
0.0
 10
147.375283
 20
404.218717
 30
0.0
 10
147.565714
 20
404.217745
 30
0.0
 11
193.674873
 21
357.408536
 31
0.0
 11
193.585222
 21
357.290948
 31
0.0
 11
193.434038
 21
357.133855
 31
0.0
 11
193.199174
 21
356.904713
 31
0.0
 11
192.517382
 21
356.373076
 31
0.0
 11
191.266606
 21
355.800271
 31
0.0
 11
189.004426
 21
355.131455
 31
0.0
 11
185.432717
 21
354.373187
 31
0.0
 11
180.421220
 21
353.542997
 31
0.0
 11
173.779310
 21
352.602490
 31
0.0
 11
164.596622
 21
351.420809
 31
0.0
 11
157.891642
 21
350.692209
 31
0.0
 11
153.285676
 21
350.398193
 31
0.0
 11
150.511652
 21
350.435905
 31
0.0
 11
148.991473
 21
350.732929
 31
0.0
 11
147.879910
 21
351.316516
 31
0.0
 11
147.510213
 21
351.777594
 31
0.0
 11
145.996616
 21
353.408138
 31
0.0
 11
144.076522
 21
355.747179
 31
0.0
 11
142.178164
 21
358.449242
 31
0.0
 11
140.351550
 21
361.314198
 31
0.0
 11
138.766666
 21
364.099179
 31
0.0
 11
136.758370
 21
368.632719
 31
0.0
 11
135.443148
 21
374.075492
 31
0.0
 11
134.353636
 21
382.448590
 31
0.0
 11
133.909627
 21
387.176639
 31
0.0
 11
133.643594
 21
391.393314
 31
0.0
 11
133.552721
 21
395.016313
 31
0.0
 11
133.668287
 21
397.990746
 31
0.0
 11
133.899735
 21
400.091638
 31
0.0
 11
134.061491
 21
400.981559
 31
0.0
 11
134.748977
 21
402.044562
 31
0.0
 11
136.044786
 21
403.050913
 31
0.0
 11
137.954727
 21
403.781740
 31
0.0
 11
139.311181
 21
403.932401
 31
0.0
 11
142.154539
 21
404.115569
 31
0.0
 11
145.881754
 21
404.217745
 31
0.0
 11
146.432862
 21
404.220065
 31
0.0
 11
146.994418
 21
404.220128
 31
0.0
 11
147.565714
 21
404.217745
 31
0.0
  0
SPLINE
  5
130
100
AcDbEntity
  8
Layer_1
 62
7
100
AcDbSpline
 70
0
 71
3
 72
13
 73
9
 74
7
 40
0.000000
 40
0.000000
 40
0.000000
 40
0.000000
 40
5.496094
 40
10.872436
 40
15.907521
 40
22.807214
 40
28.580272
 40
33.208099
 40
33.208099
 40
33.208099
 40
33.208099
 10
75.302483
 20
363.536936
 30
0.0
 10
77.134105
 20
363.498122
 30
0.0
 10
80.757440
 20
363.421340
 30
0.0
 10
86.058197
 20
363.284142
 30
0.0
 10
91.825078
 20
363.077101
 30
0.0
 10
97.719721
 20
362.772425
 30
0.0
 10
103.475838
 20
362.399077
 30
0.0
 10
106.922743
 20
362.023440
 30
0.0
 10
108.456429
 20
361.856302
 30
0.0
 11
75.302483
 21
363.536936
 31
0.0
 11
80.797249
 21
363.416153
 31
0.0
 11
86.171657
 21
363.271939
 31
0.0
 11
91.203391
 21
363.088259
 31
0.0
 11
98.094117
 21
362.736608
 31
0.0
 11
103.852681
 21
362.327785
 31
0.0
 11
108.456429
 21
361.856302
 31
0.0
  0
LWPOLYLINE
  5
131
100
AcDbEntity
  8
Layer_1
 62
7
100
AcDbPolyline
 90
2
 70
0
 10
147.565714
 20
404.217745
 30
0.0
 10
147.565703
 20
404.218281
 30
0.0
  0
SPLINE
  5
132
100
AcDbEntity
  8
Layer_1
 62
7
100
AcDbSpline
 70
0
 71
3
 72
16
 73
12
 74
10
 40
0.000000
 40
0.000000
 40
0.000000
 40
0.000000
 40
1.159596
 40
2.399430
 40
3.746970
 40
11.252032
 40
20.733143
 40
32.198079
 40
33.905104
 40
35.410690
 40
36.949221
 40
36.949221
 40
36.949221
 40
36.949221
 10
108.456429
 20
361.856302
 30
0.0
 10
108.109933
 20
361.684984
 30
0.0
 10
107.392965
 20
361.330494
 30
0.0
 10
106.265509
 20
360.792944
 30
0.0
 10
103.206603
 20
359.392477
 30
0.0
 10
97.568182
 20
357.030954
 30
0.0
 10
88.741011
 20
353.564031
 30
0.0
 10
81.683645
 20
350.877712
 30
0.0
 10
77.092772
 20
349.186084
 30
0.0
 10
75.598195
 20
348.662160
 30
0.0
 10
74.643454
 20
348.318505
 30
0.0
 10
74.160917
 20
348.144818
 30
0.0
 11
108.456429
 21
361.856302
 31
0.0
 11
107.415769
 21
361.344745
 31
0.0
 11
106.296615
 21
360.811187
 31
0.0
 11
105.071966
 21
360.248962
 31
0.0
 11
98.166905
 21
357.308538
 31
0.0
 11
89.350999
 21
353.819806
 31
0.0
 11
78.631272
 21
349.753823
 31
0.0
 11
77.028142
 21
349.167384
 31
0.0
 11
75.609257
 21
348.663843
 31
0.0
 11
74.160917
 21
348.144818
 31
0.0
  0
SPLINE
  5
133
100
AcDbEntity
  8
Layer_1
 62
7
100
AcDbSpline
 70
0
 71
3
 72
10
 73
6
 74
4
 40
0.000000
 40
0.000000
 40
0.000000
 40
0.000000
 40
0.675236
 40
1.126798
 40
1.390473
 40
1.390473
 40
1.390473
 40
1.390473
 10
126.502666
 20
355.604967
 30
0.0
 10
126.727751
 20
355.603651
 30
0.0
 10
127.103363
 20
355.601455
 30
0.0
 10
127.566626
 20
355.584290
 30
0.0
 10
127.804563
 20
355.569189
 30
0.0
 10
127.892280
 20
355.563622
 30
0.0
 11
126.502666
 21
355.604967
 31
0.0
 11
127.177852
 21
355.596813
 31
0.0
 11
127.629081
 21
355.579471
 31
0.0
 11
127.892280
 21
355.563622
 31
0.0
  0
LWPOLYLINE
  5
134
100
AcDbEntity
  8
Layer_1
 62
7
100
AcDbPolyline
 90
2
 70
0
 10
74.160917
 20
348.144818
 30
0.0
 10
75.302483
 20
363.536936
 30
0.0
  0
LWPOLYLINE
  5
135
100
AcDbEntity
  8
Layer_1
 62
7
100
AcDbPolyline
 90
2
 70
0
 10
136.759129
 20
342.952917
 30
0.0
 10
136.759129
 20
342.952917
 30
0.0
  0
LWPOLYLINE
  5
136
100
AcDbEntity
  8
Layer_1
 62
7
100
AcDbPolyline
 90
2
 70
0
 10
136.952054
 20
340.091014
 30
0.0
 10
136.952054
 20
340.091014
 30
0.0
  0
SPLINE
  5
137
100
AcDbEntity
  8
Layer_1
 62
7
100
AcDbSpline
 70
0
 71
3
 72
34
 73
30
 74
28
 40
0.000000
 40
0.000000
 40
0.000000
 40
0.000000
 40
0.266144
 40
0.726011
 40
1.417530
 40
3.187139
 40
5.832783
 40
8.825407
 40
11.784211
 40
14.233162
 40
15.495607
 40
16.073228
 40
17.279681
 40
18.367097
 40
20.223587
 40
24.245604
 40
29.232836
 40
34.331754
 40
38.970919
 40
42.381326
 40
45.185382
 40
46.853716
 40
48.147477
 40
50.111805
 40
53.476034
 40
58.487235
 40
70.773301
 40
87.755444
 40
102.027018
 40
102.027018
 40
102.027018
 40
102.027018
 10
127.892280
 20
355.563622
 30
0.0
 10
127.959626
 20
355.505867
 30
0.0
 10
128.143339
 20
355.348318
 30
0.0
 10
128.492652
 20
355.030120
 30
0.0
 10
129.203659
 20
354.364046
 30
0.0
 10
130.301984
 20
353.058536
 30
0.0
 10
131.810291
 20
351.103554
 30
0.0
 10
133.459012
 20
348.761802
 30
0.0
 10
134.969133
 20
346.388673
 30
0.0
 10
135.962466
 20
344.424870
 30
0.0
 10
136.774760
 20
343.192606
 30
0.0
 10
136.840568
 20
342.166305
 30
0.0
 10
136.952069
 20
341.222637
 30
0.0
 10
137.014012
 20
339.825081
 30
0.0
 10
136.242528
 20
337.600172
 30
0.0
 10
135.341463
 20
334.109208
 30
0.0
 10
133.843456
 20
329.640782
 30
0.0
 10
132.145042
 20
325.037290
 30
0.0
 10
130.529602
 20
320.963520
 30
0.0
 10
129.050797
 20
317.654830
 30
0.0
 10
127.814549
 20
315.345751
 30
0.0
 10
126.686803
 20
313.747918
 30
0.0
 10
125.232852
 20
312.901401
 30
0.0
 10
123.034156
 20
312.521159
 30
0.0
 10
119.596969
 20
312.334077
 30
0.0
 10
112.700677
 20
312.435248
 30
0.0
 10
101.325224
 20
313.578620
 30
0.0
 10
86.893135
 20
315.106531
 30
0.0
 10
76.577707
 20
316.571817
 30
0.0
 10
71.867311
 20
317.240920
 30
0.0
 11
127.892280
 21
355.563622
 31
0.0
 11
128.093673
 21
355.389628
 31
0.0
 11
128.435014
 21
355.081467
 31
0.0
 11
128.935732
 21
354.604518
 31
0.0
 11
130.105443
 21
353.276628
 31
0.0
 11
131.724955
 21
351.184593
 31
0.0
 11
133.447426
 21
348.737372
 31
0.0
 11
135.010850
 21
346.225354
 31
0.0
 11
136.204556
 21
344.087031
 31
0.0
 11
136.759129
 21
342.952917
 31
0.0
 11
136.830207
 21
342.379686
 31
0.0
 11
136.941522
 21
341.178379
 31
0.0
 11
136.952054
 21
340.091014
 31
0.0
 11
136.498676
 21
338.290735
 31
0.0
 11
135.379754
 21
334.427493
 31
0.0
 11
133.832727
 21
329.686271
 31
0.0
 11
132.071933
 21
324.901026
 31
0.0
 11
130.342839
 21
320.596136
 31
0.0
 11
128.929667
 21
317.492295
 31
0.0
 11
127.568307
 21
315.040882
 31
0.0
 11
126.519999
 21
313.743042
 31
0.0
 11
125.411812
 21
313.075405
 31
0.0
 11
123.498644
 21
312.630015
 31
0.0
 11
120.142637
 21
312.394944
 31
0.0
 11
115.131647
 21
312.440941
 31
0.0
 11
102.885534
 21
313.430947
 31
0.0
 11
86.007719
 21
315.310455
 31
0.0
 11
71.867311
 21
317.240920
 31
0.0
  0
LWPOLYLINE
  5
138
100
AcDbEntity
  8
Layer_1
 62
7
100
AcDbPolyline
 90
2
 70
0
 10
71.867311
 20
317.240920
 30
0.0
 10
73.318108
 20
336.794179
 30
0.0
  0
LWPOLYLINE
  5
139
100
AcDbEntity
  8
Layer_1
 62
7
100
AcDbPolyline
 90
2
 70
0
 10
126.502666
 20
355.606068
 30
0.0
 10
126.502666
 20
355.604967
 30
0.0
  0
SPLINE
  5
13a
100
AcDbEntity
  8
Layer_1
 62
7
100
AcDbSpline
 70
0
 71
3
 72
13
 73
9
 74
7
 40
0.000000
 40
0.000000
 40
0.000000
 40
0.000000
 40
6.807458
 40
15.293492
 40
25.865777
 40
42.436648
 40
51.877180
 40
56.512794
 40
56.512794
 40
56.512794
 40
56.512794
 10
73.318108
 20
336.794179
 30
0.0
 10
75.415894
 20
337.659466
 30
0.0
 10
80.128737
 20
339.603401
 30
0.0
 10
88.154755
 20
342.751233
 30
0.0
 10
99.226883
 20
347.062963
 30
0.0
 10
110.663369
 20
351.219007
 30
0.0
 10
120.314864
 20
354.739905
 30
0.0
 10
124.969712
 20
355.391486
 30
0.0
 10
126.502666
 20
355.606068
 30
0.0
 11
73.318108
 21
336.794179
 31
0.0
 11
79.617936
 21
339.373647
 31
0.0
 11
87.509159
 21
342.494762
 31
0.0
 11
97.370387
 21
346.306507
 31
0.0
 11
112.916812
 21
352.042571
 31
0.0
 11
121.927874
 21
354.857604
 31
0.0
 11
126.502666
 21
355.606068
 31
0.0
  0
LWPOLYLINE
  5
13b
100
AcDbEntity
  8
Layer_1
 62
7
100
AcDbPolyline
 90
2
 70
0
 10
194.759104
 20
342.798033
 30
0.0
 10
197.319497
 20
308.283695
 30
0.0
  0
SPLINE
  5
13c
100
AcDbEntity
  8
Layer_1
 62
7
100
AcDbSpline
 70
0
 71
3
 72
46
 73
42
 74
40
 40
0.000000
 40
0.000000
 40
0.000000
 40
0.000000
 40
11.379821
 40
19.708683
 40
25.601358
 40
29.989600
 40
33.758156
 40
38.111857
 40
42.695512
 40
47.054067
 40
51.027400
 40
54.489137
 40
57.165957
 40
58.673896
 40
59.465529
 40
59.908837
 40
60.085273
 40
60.176920
 40
60.425746
 40
61.022589
 40
63.595922
 40
68.088348
 40
74.621329
 40
81.536297
 40
86.598798
 40
90.223521
 40
92.984088
 40
95.675400
 40
99.058252
 40
106.782293
 40
115.231452
 40
120.963587
 40
123.741777
 40
125.825968
 40
128.975686
 40
134.529340
 40
143.175226
 40
155.529428
 40
160.967558
 40
165.507612
 40
169.432268
 40
169.432268
 40
169.432268
 40
169.432268
 10
197.319497
 20
308.283695
 30
0.0
 10
195.088922
 20
305.215653
 30
0.0
 10
191.225796
 20
299.902118
 30
0.0
 10
186.030026
 20
293.128594
 30
0.0
 10
181.982279
 20
288.423870
 30
0.0
 10
178.555003
 20
285.202507
 30
0.0
 10
175.008930
 20
282.968363
 30
0.0
 10
171.144602
 20
281.225421
 30
0.0
 10
167.079817
 20
279.460822
 30
0.0
 10
163.077255
 20
277.872297
 30
0.0
 10
159.386242
 20
276.519163
 30
0.0
 10
156.171599
 20
275.494957
 30
0.0
 10
153.707897
 20
274.853549
 30
0.0
 10
152.082408
 20
274.487679
 30
0.0
 10
151.167185
 20
274.454697
 30
0.0
 10
150.695084
 20
274.471660
 30
0.0
 10
150.462498
 20
274.518976
 30
0.0
 10
150.298424
 20
274.577334
 30
0.0
 10
150.080266
 20
274.814748
 30
0.0
 10
149.370240
 20
275.692929
 30
0.0
 10
148.215607
 20
278.009694
 30
0.0
 10
146.442909
 20
282.162288
 30
0.0
 10
144.367675
 20
287.781604
 30
0.0
 10
142.331370
 20
293.603261
 30
0.0
 10
140.786019
 20
298.572415
 30
0.0
 10
139.956681
 20
302.304083
 30
0.0
 10
139.743261
 20
305.340595
 30
0.0
 10
140.171357
 20
308.270877
 30
0.0
 10
141.430576
 20
312.698661
 30
0.0
 10
143.601479
 20
318.845490
 30
0.0
 10
146.218344
 20
325.673714
 30
0.0
 10
148.516521
 20
330.820083
 30
0.0
 10
150.086590
 20
334.019677
 30
0.0
 10
152.100641
 20
335.876844
 30
0.0
 10
155.583738
 20
336.993296
 30
0.0
 10
161.168942
 20
338.387302
 30
0.0
 10
169.936702
 20
339.759799
 30
0.0
 10
178.651319
 20
341.016967
 30
0.0
 10
186.033458
 20
341.983520
 30
0.0
 10
190.639804
 20
342.498977
 30
0.0
 10
193.454207
 20
342.703299
 30
0.0
 10
194.759104
 20
342.798033
 30
0.0
 11
197.319497
 21
308.283695
 31
0.0
 11
190.582188
 21
299.112599
 31
0.0
 11
185.464596
 21
292.541435
 31
0.0
 11
181.565765
 21
288.122981
 31
0.0
 11
178.310573
 21
285.180127
 31
0.0
 11
175.138614
 21
283.145258
 31
0.0
 11
171.211187
 21
281.266420
 31
0.0
 11
167.001165
 21
279.453795
 31
0.0
 11
162.950887
 21
277.843748
 31
0.0
 11
159.215639
 21
276.489019
 31
0.0
 11
155.913687
 21
275.449432
 31
0.0
 11
153.323681
 21
274.773242
 31
0.0
 11
151.841480
 21
274.495824
 31
0.0
 11
151.050540
 21
274.462709
 31
0.0
 11
150.608211
 21
274.492147
 31
0.0
 11
150.435883
 21
274.530002
 31
0.0
 11
150.350403
 21
274.563052
 31
0.0
 11
150.163102
 21
274.726859
 31
0.0
 11
149.787102
 21
275.190373
 31
0.0
 11
148.523835
 21
277.432291
 31
0.0
 11
146.735789
 21
281.553552
 31
0.0
 11
144.429842
 21
287.666035
 31
0.0
 11
142.171343
 21
294.201780
 31
0.0
 11
140.722092
 21
299.052408
 31
0.0
 11
139.994762
 21
302.603408
 31
0.0
 11
139.842232
 21
305.359759
 31
0.0
 11
140.188889
 21
308.028651
 31
0.0
 11
141.054749
 21
311.298816
 31
0.0
 11
143.552166
 21
318.607968
 31
0.0
 11
146.623708
 21
326.479049
 31
0.0
 11
148.965791
 21
331.710877
 31
0.0
 11
150.353222
 21
334.117820
 31
0.0
 11
151.892138
 21
335.523377
 31
0.0
 11
154.806467
 21
336.718120
 31
0.0
 11
160.191413
 21
338.076585
 31
0.0
 11
168.710237
 21
339.553402
 31
0.0
 11
180.939034
 21
341.309198
 31
0.0
 11
186.332596
 21
342.004000
 31
0.0
 11
190.846531
 21
342.490290
 31
0.0
 11
194.759104
 21
342.798033
 31
0.0
  0
LWPOLYLINE
  5
13d
100
AcDbEntity
  8
Layer_1
 62
7
100
AcDbPolyline
 90
2
 70
0
 10
194.759104
 20
342.798033
 30
0.0
 10
194.759104
 20
342.798033
 30
0.0
  0
SPLINE
  5
13e
100
AcDbEntity
  8
Layer_1
 62
7
100
AcDbSpline
 70
0
 71
3
 72
37
 73
33
 74
31
 40
0.000000
 40
0.000000
 40
0.000000
 40
0.000000
 40
5.055642
 40
11.129707
 40
18.556399
 40
33.245072
 40
43.563889
 40
50.259162
 40
54.188207
 40
56.919586
 40
60.451456
 40
63.529965
 40
67.429695
 40
71.607507
 40
75.648019
 40
78.921422
 40
80.555451
 40
81.941520
 40
82.510580
 40
83.500577
 40
85.790166
 40
89.697663
 40
95.267290
 40
99.858535
 40
108.197696
 40
118.685877
 40
129.881338
 40
140.504068
 40
149.197527
 40
149.677210
 40
150.179876
 40
150.672360
 40
150.672360
 40
150.672360
 40
150.672360
 10
70.995286
 20
305.487917
 30
0.0
 10
72.673232
 20
305.331304
 30
0.0
 10
76.367132
 20
304.986530
 30
0.0
 10
82.517903
 20
304.332960
 30
0.0
 10
91.856910
 20
303.283154
 30
0.0
 10
102.580988
 20
301.983457
 30
0.0
 10
113.073850
 20
300.525987
 30
0.0
 10
119.848916
 20
298.964771
 30
0.0
 10
124.153066
 20
297.548997
 30
0.0
 10
126.687261
 20
295.148156
 30
0.0
 10
128.013012
 20
292.297106
 30
0.0
 10
129.502269
 20
289.133742
 30
0.0
 10
130.849533
 20
285.662855
 30
0.0
 10
132.238918
 20
281.869653
 30
0.0
 10
133.365267
 20
278.208588
 30
0.0
 10
134.174698
 20
275.333035
 30
0.0
 10
134.599518
 20
273.283083
 30
0.0
 10
134.856434
 20
272.104261
 30
0.0
 10
134.606248
 20
271.092426
 30
0.0
 10
133.328052
 20
270.531366
 30
0.0
 10
131.279688
 20
269.437413
 30
0.0
 10
127.419409
 20
268.417926
 30
0.0
 10
122.880962
 20
267.335817
 30
0.0
 10
116.769217
 20
266.434024
 30
0.0
 10
109.049728
 20
265.308559
 30
0.0
 10
99.131905
 20
263.955811
 30
0.0
 10
88.457715
 20
262.533936
 30
0.0
 10
78.364215
 20
261.288225
 30
0.0
 10
71.821908
 20
260.415436
 30
0.0
 10
68.609952
 20
260.118468
 30
0.0
 10
68.118913
 20
260.093065
 30
0.0
 10
67.788246
 20
260.066558
 30
0.0
 10
67.624605
 20
260.053441
 30
0.0
 11
70.995286
 21
305.487917
 31
0.0
 11
76.028130
 21
305.008334
 31
0.0
 11
82.069095
 21
304.375079
 31
0.0
 11
89.449425
 21
303.546538
 31
0.0
 11
104.028733
 21
301.757435
 31
0.0
 11
114.226358
 21
300.180589
 31
0.0
 11
120.738607
 21
298.625824
 31
0.0
 11
124.368375
 21
297.121771
 31
0.0
 11
126.361107
 21
295.253764
 31
0.0
 11
128.076938
 21
292.166689
 31
0.0
 11
129.357475
 21
289.367146
 31
0.0
 11
130.804444
 21
285.745797
 31
0.0
 11
132.219319
 21
281.814863
 31
0.0
 11
133.423593
 21
277.957991
 31
0.0
 11
134.272867
 21
274.796678
 31
0.0
 11
134.619862
 21
273.199916
 31
0.0
 11
134.761103
 21
271.821062
 31
0.0
 11
134.590668
 21
271.278125
 31
0.0
 11
133.773746
 21
270.718901
 31
0.0
 11
131.704375
 21
269.739142
 31
0.0
 11
127.973511
 21
268.577601
 31
0.0
 11
122.541632
 21
267.346571
 31
0.0
 11
118.008588
 21
266.617838
 31
0.0
 11
109.755481
 21
265.422924
 31
0.0
 11
99.365235
 21
263.992981
 31
0.0
 11
88.266167
 21
262.527025
 31
0.0
 11
77.727864
 21
261.190401
 31
0.0
 11
69.095248
 21
260.163677
 31
0.0
 11
68.617350
 21
260.122328
 31
0.0
 11
68.115692
 21
260.090500
 31
0.0
 11
67.624605
 21
260.053441
 31
0.0
  0
LWPOLYLINE
  5
13f
100
AcDbEntity
  8
Layer_1
 62
7
100
AcDbPolyline
 90
2
 70
0
 10
67.624605
 20
260.053441
 30
0.0
 10
70.995286
 20
305.487917
 30
0.0
  0
SPLINE
  5
140
100
AcDbEntity
  8
Layer_1
 62
7
100
AcDbSpline
 70
0
 71
3
 72
13
 73
9
 74
7
 40
0.000000
 40
0.000000
 40
0.000000
 40
0.000000
 40
0.603310
 40
1.212947
 40
1.832684
 40
4.572372
 40
8.804879
 40
13.978675
 40
13.978675
 40
13.978675
 40
13.978675
 10
186.323854
 20
272.144349
 30
0.0
 10
186.524922
 20
272.140026
 30
0.0
 10
186.929166
 20
272.131335
 30
0.0
 10
187.539301
 20
272.099520
 30
0.0
 10
188.859071
 20
272.003996
 30
0.0
 10
191.365761
 20
271.640073
 30
0.0
 10
195.362999
 20
271.003003
 30
0.0
 10
198.450598
 20
270.455930
 30
0.0
 10
200.148885
 20
270.155021
 30
0.0
 11
186.323854
 21
272.144349
 31
0.0
 11
186.926951
 21
272.128321
 31
0.0
 11
187.535816
 21
272.097667
 31
0.0
 11
188.153890
 21
272.052288
 31
0.0
 11
190.871703
 21
271.706771
 31
0.0
 11
195.051600
 21
271.041502
 31
0.0
 11
200.148885
 21
270.155021
 31
0.0
  0
LWPOLYLINE
  5
141
100
AcDbEntity
  8
Layer_1
 62
7
100
AcDbPolyline
 90
2
 70
0
 10
200.148885
 20
270.155021
 30
0.0
 10
201.666382
 20
249.698312
 30
0.0
  0
SPLINE
  5
142
100
AcDbEntity
  8
Layer_1
 62
7
100
AcDbSpline
 70
0
 71
3
 72
34
 73
30
 74
28
 40
0.000000
 40
0.000000
 40
0.000000
 40
0.000000
 40
7.432881
 40
14.825062
 40
21.853976
 40
29.138996
 40
34.831892
 40
38.120858
 40
40.278617
 40
41.931492
 40
43.067934
 40
43.703271
 40
44.057352
 40
44.468392
 40
46.586542
 40
50.966444
 40
57.764161
 40
62.653410
 40
65.403208
 40
66.890501
 40
67.272163
 40
68.147245
 40
70.077576
 40
73.363791
 40
78.019172
 40
84.157882
 40
91.918519
 40
97.493087
 40
101.914671
 40
101.914671
 40
101.914671
 40
101.914671
 10
201.666382
 20
249.698312
 30
0.0
 10
199.308702
 20
248.936746
 30
0.0
 10
194.606251
 20
247.417782
 30
0.0
 10
187.658129
 20
245.228726
 30
0.0
 10
180.743245
 20
243.099938
 30
0.0
 10
174.347909
 20
241.204989
 30
0.0
 10
169.125343
 20
239.755157
 30
0.0
 10
165.530339
 20
238.806582
 30
0.0
 10
163.190530
 20
238.444925
 30
0.0
 10
161.548567
 20
238.259489
 30
0.0
 10
160.406502
 20
238.275556
 30
0.0
 10
159.697134
 20
238.333107
 30
0.0
 10
159.252101
 20
238.507069
 30
0.0
 10
158.591062
 20
239.229988
 30
0.0
 10
157.637061
 20
241.353463
 30
0.0
 10
156.241375
 20
245.552035
 30
0.0
 10
154.985058
 20
250.767304
 30
0.0
 10
154.020709
 20
255.485298
 30
0.0
 10
153.634576
 20
258.501955
 30
0.0
 10
153.699351
 20
260.062699
 30
0.0
 10
154.029685
 20
260.931706
 30
0.0
 10
154.905088
 20
261.604957
 30
0.0
 10
156.589414
 20
262.691799
 30
0.0
 10
159.559394
 20
264.159217
 30
0.0
 10
163.874423
 20
265.986151
 30
0.0
 10
169.650130
 20
268.215665
 30
0.0
 10
175.763253
 20
270.372949
 30
0.0
 10
181.509899
 20
271.937679
 30
0.0
 10
184.847526
 20
272.080968
 30
0.0
 10
186.323854
 20
272.144349
 30
0.0
 11
201.666382
 21
249.698312
 31
0.0
 11
194.590591
 21
247.422153
 31
0.0
 11
187.540230
 21
245.200273
 31
0.0
 11
180.821074
 21
243.136646
 31
0.0
 11
173.833259
 21
241.077039
 31
0.0
 11
168.347533
 21
239.555242
 31
0.0
 11
165.151675
 21
238.778203
 31
0.0
 11
163.021281
 21
238.435647
 31
0.0
 11
161.375615
 21
238.281440
 31
0.0
 11
160.239245
 21
238.294220
 31
0.0
 11
159.609773
 21
238.380354
 31
0.0
 11
159.284704
 21
238.520724
 31
0.0
 11
158.988538
 21
238.805748
 31
0.0
 11
157.972220
 21
240.664150
 31
0.0
 11
156.541138
 21
244.803660
 31
0.0
 11
154.880883
 21
251.395512
 31
0.0
 11
153.954429
 21
256.196182
 31
0.0
 11
153.681692
 21
258.932422
 31
0.0
 11
153.840739
 21
260.411186
 31
0.0
 11
153.988170
 21
260.763224
 31
0.0
 11
154.615738
 21
261.373081
 31
0.0
 11
156.231909
 21
262.428623
 31
0.0
 11
159.155104
 21
263.930004
 31
0.0
 11
163.429524
 21
265.774428
 31
0.0
 11
169.152398
 21
267.995344
 31
0.0
 11
176.493378
 21
270.512785
 31
0.0
 11
181.914937
 21
271.809897
 31
0.0
 11
186.323854
 21
272.144349
 31
0.0
  0
SPLINE
  5
143
100
AcDbEntity
  8
Layer_1
 62
7
100
AcDbSpline
 70
0
 71
3
 72
22
 73
18
 74
16
 40
0.000000
 40
0.000000
 40
0.000000
 40
0.000000
 40
2.514291
 40
4.200834
 40
5.386353
 40
6.552361
 40
7.257958
 40
8.752221
 40
11.844325
 40
16.806454
 40
23.901962
 40
30.541851
 40
35.168143
 40
39.371923
 40
41.151663
 40
42.227667
 40
42.892799
 40
42.892799
 40
42.892799
 40
42.892799
 10
133.235209
 20
256.303526
 30
0.0
 10
134.071778
 20
256.285658
 30
0.0
 10
135.469502
 20
256.255804
 30
0.0
 10
137.270566
 20
256.041395
 30
0.0
 10
138.522459
 20
255.556665
 30
0.0
 10
139.535198
 20
255.294572
 30
0.0
 10
140.351553
 20
254.474518
 30
0.0
 10
140.914526
 20
252.768106
 30
0.0
 10
142.035893
 20
249.809631
 30
0.0
 10
143.242659
 20
244.885253
 30
0.0
 10
144.697126
 20
238.833146
 30
0.0
 10
146.036553
 20
232.858894
 30
0.0
 10
146.875067
 20
227.762786
 30
0.0
 10
147.027001
 20
224.223530
 30
0.0
 10
147.046832
 20
221.870792
 30
0.0
 10
147.031385
 20
220.697012
 30
0.0
 10
147.004401
 20
220.117238
 30
0.0
 10
146.994093
 20
219.895759
 30
0.0
 11
133.235209
 21
256.303526
 31
0.0
 11
135.747398
 21
256.200713
 31
0.0
 11
137.413978
 21
255.941989
 31
0.0
 11
138.541207
 21
255.574828
 31
0.0
 11
139.623262
 21
255.140393
 31
0.0
 11
140.129456
 21
254.648830
 31
0.0
 11
140.749926
 21
253.289477
 31
0.0
 11
141.771427
 21
250.370978
 31
0.0
 11
143.068911
 21
245.581483
 31
0.0
 11
144.714818
 21
238.679510
 31
0.0
 11
146.110087
 21
232.187873
 31
0.0
 11
146.801300
 21
227.613510
 31
0.0
 11
147.027717
 21
223.415832
 31
0.0
 11
147.040827
 21
221.636139
 31
0.0
 11
147.022195
 21
220.560297
 31
0.0
 11
146.994093
 21
219.895759
 31
0.0
  0
SPLINE
  5
144
100
AcDbEntity
  8
Layer_1
 62
7
100
AcDbSpline
 70
0
 71
3
 72
22
 73
18
 74
16
 40
0.000000
 40
0.000000
 40
0.000000
 40
0.000000
 40
0.602999
 40
1.471121
 40
2.667931
 40
6.204586
 40
11.211159
 40
17.875064
 40
29.677551
 40
37.011929
 40
40.966732
 40
46.849787
 40
55.798334
 40
70.318656
 40
76.189989
 40
80.470615
 40
83.232845
 40
83.232845
 40
83.232845
 40
83.232845
 10
146.994093
 20
219.895759
 30
0.0
 10
146.796695
 20
219.857596
 30
0.0
 10
146.315110
 20
219.764493
 30
0.0
 10
145.430676
 20
219.663813
 30
0.0
 10
143.567541
 20
219.536554
 30
0.0
 10
140.318644
 20
219.514380
 30
0.0
 10
135.251101
 20
219.627098
 30
0.0
 10
127.433335
 20
219.939869
 30
0.0
 10
118.839003
 20
220.373632
 30
0.0
 10
111.175970
 20
221.001522
 30
0.0
 10
105.487214
 20
221.876450
 30
0.0
 10
99.783533
 20
224.682879
 30
0.0
 10
92.039295
 20
230.680750
 30
0.0
 10
84.712402
 20
237.166834
 30
0.0
 10
78.688124
 20
242.762510
 30
0.0
 10
75.601611
 20
245.769514
 30
0.0
 10
74.068700
 20
247.548641
 30
0.0
 10
73.467488
 20
248.246420
 30
0.0
 11
146.994093
 21
219.895759
 31
0.0
 11
146.400875
 21
219.787587
 31
0.0
 11
145.539235
 21
219.681698
 31
0.0
 11
144.345505
 21
219.595898
 31
0.0
 11
140.809429
 21
219.531912
 31
0.0
 11
135.803770
 21
219.627513
 31
0.0
 11
129.144641
 21
219.879785
 31
0.0
 11
117.359765
 21
220.524301
 31
0.0
 11
110.057195
 21
221.206629
 31
0.0
 11
106.169988
 21
221.934701
 31
0.0
 11
100.807033
 21
224.353183
 31
0.0
 11
93.557531
 21
229.599249
 31
0.0
 11
82.609944
 21
239.138121
 31
0.0
 11
78.317274
 21
243.143809
 31
0.0
 11
75.294251
 21
246.174500
 31
0.0
 11
73.467488
 21
248.246420
 31
0.0
  0
LWPOLYLINE
  5
145
100
AcDbEntity
  8
Layer_1
 62
7
100
AcDbPolyline
 90
2
 70
0
 10
186.323854
 20
272.144349
 30
0.0
 10
186.323854
 20
272.144349
 30
0.0
  0
SPLINE
  5
146
100
AcDbEntity
  8
Layer_1
 62
7
100
AcDbSpline
 70
0
 71
3
 72
16
 73
12
 74
10
 40
0.000000
 40
0.000000
 40
0.000000
 40
0.000000
 40
1.122987
 40
2.782040
 40
5.182146
 40
10.687858
 40
18.333555
 40
28.439196
 40
43.402269
 40
53.767477
 40
60.398855
 40
60.398855
 40
60.398855
 40
60.398855
 10
73.467488
 20
248.246420
 30
0.0
 10
73.816828
 20
248.381358
 30
0.0
 10
74.682266
 20
248.715647
 30
0.0
 10
76.350223
 20
249.174640
 30
0.0
 10
79.463187
 20
249.864160
 30
0.0
 10
84.576639
 20
250.730010
 30
0.0
 10
92.246260
 20
251.855646
 30
0.0
 10
103.055998
 20
253.300748
 30
0.0
 10
114.774487
 20
254.754892
 30
0.0
 10
125.363006
 20
255.995822
 30
0.0
 10
131.025812
 20
256.217166
 30
0.0
 10
133.235209
 20
256.303526
 30
0.0
 11
73.467488
 21
248.246420
 31
0.0
 11
74.520395
 21
248.636914
 31
0.0
 11
76.114139
 21
249.097826
 31
0.0
 11
78.454883
 21
249.628321
 31
0.0
 11
83.875229
 21
250.594092
 31
0.0
 11
91.437174
 21
251.722667
 31
0.0
 11
101.452136
 21
253.073408
 31
0.0
 11
116.300325
 21
254.924043
 31
0.0
 11
126.611841
 21
255.977682
 31
0.0
 11
133.235209
 21
256.303526
 31
0.0
  0
SPLINE
  5
147
100
AcDbEntity
  8
Layer_1
 62
7
100
AcDbSpline
 70
0
 71
3
 72
16
 73
12
 74
10
 40
0.000000
 40
0.000000
 40
0.000000
 40
0.000000
 40
3.624391
 40
7.803443
 40
12.592849
 40
19.275165
 40
24.174018
 40
27.529347
 40
29.156239
 40
30.084294
 40
30.619759
 40
30.619759
 40
30.619759
 40
30.619759
 10
66.079548
 20
239.230747
 30
0.0
 10
66.994514
 20
238.441785
 30
0.0
 10
68.964468
 20
236.743122
 30
0.0
 10
72.094522
 20
233.945890
 30
0.0
 10
75.964717
 20
230.448028
 30
0.0
 10
79.993888
 20
226.766088
 30
0.0
 10
83.609694
 20
223.347237
 30
0.0
 10
85.932022
 20
221.001352
 30
0.0
 10
87.207496
 20
219.508381
 30
0.0
 10
87.860381
 20
218.696703
 30
0.0
 10
88.039481
 20
218.240792
 30
0.0
 10
88.105009
 20
218.073986
 30
0.0
 11
66.079548
 21
239.230747
 31
0.0
 11
68.817899
 21
236.856375
 31
0.0
 11
71.940334
 21
234.078807
 31
0.0
 11
75.494307
 21
230.868248
 31
0.0
 11
80.417246
 21
226.349619
 31
0.0
 11
83.962849
 21
222.969166
 31
0.0
 11
86.294818
 21
220.556667
 31
0.0
 11
87.353601
 21
219.321452
 31
0.0
 11
87.891011
 21
218.564830
 31
0.0
 11
88.105009
 21
218.073986
 31
0.0
  0
LWPOLYLINE
  5
148
100
AcDbEntity
  8
Layer_1
 62
7
100
AcDbPolyline
 90
2
 70
0
 10
133.235209
 20
256.303526
 30
0.0
 10
133.235209
 20
256.303526
 30
0.0
  0
LWPOLYLINE
  5
149
100
AcDbEntity
  8
Layer_1
 62
7
100
AcDbPolyline
 90
2
 70
0
 10
63.658612
 20
206.597702
 30
0.0
 10
66.079548
 20
239.230747
 30
0.0
  0
SPLINE
  5
14a
100
AcDbEntity
  8
Layer_1
 62
7
100
AcDbSpline
 70
0
 71
3
 72
13
 73
9
 74
7
 40
0.000000
 40
0.000000
 40
0.000000
 40
0.000000
 40
0.560765
 40
1.561779
 40
3.067068
 40
8.334077
 40
16.255012
 40
27.088159
 40
27.088159
 40
27.088159
 40
27.088159
 10
88.105009
 20
218.073986
 30
0.0
 10
87.970236
 20
217.944286
 30
0.0
 10
87.594882
 20
217.583061
 30
0.0
 10
86.768897
 20
216.975660
 30
0.0
 10
84.574256
 20
215.596613
 30
0.0
 10
80.151414
 20
213.466287
 30
0.0
 10
72.812656
 20
210.272839
 30
0.0
 10
67.010298
 20
207.943326
 30
0.0
 10
63.658612
 20
206.597702
 30
0.0
 11
88.105009
 21
218.073986
 31
0.0
 11
87.694857
 21
217.691581
 31
0.0
 11
86.899495
 21
217.083775
 31
0.0
 11
85.630052
 21
216.274819
 31
0.0
 11
80.940810
 21
213.876405
 31
0.0
 11
73.689400
 21
210.689205
 31
0.0
 11
63.658612
 21
206.597702
 31
0.0
  0
LWPOLYLINE
  5
14b
100
AcDbEntity
  8
Layer_1
 62
7
100
AcDbPolyline
 90
3
 70
0
 10
202.447452
 20
239.167360
 30
0.0
 10
202.447452
 20
239.167360
 30
0.0
 10
204.765315
 20
207.928351
 30
0.0
  0
SPLINE
  5
14c
100
AcDbEntity
  8
Layer_1
 62
7
100
AcDbSpline
 70
0
 71
3
 72
19
 73
15
 74
13
 40
0.000000
 40
0.000000
 40
0.000000
 40
0.000000
 40
6.347255
 40
12.863168
 40
19.384787
 40
26.842296
 40
33.013319
 40
37.919273
 40
41.536392
 40
44.008077
 40
45.611781
 40
47.742822
 40
50.576643
 40
52.200387
 40
52.200387
 40
52.200387
 40
52.200387
 10
204.765315
 20
207.928351
 30
0.0
 10
202.652807
 20
208.046434
 30
0.0
 10
198.371659
 20
208.285738
 30
0.0
 10
191.929731
 20
208.797866
 30
0.0
 10
185.132320
 20
209.486983
 30
0.0
 10
178.476797
 20
210.414386
 30
0.0
 10
172.418291
 20
211.652768
 30
0.0
 10
167.713203
 20
213.040638
 30
0.0
 10
164.350688
 20
214.548149
 30
0.0
 10
162.237878
 20
216.017682
 30
0.0
 10
160.878729
 20
217.663270
 30
0.0
 10
160.630445
 20
219.908593
 30
0.0
 10
160.313238
 20
222.060902
 30
0.0
 10
160.248093
 20
223.548202
 30
0.0
 10
160.224363
 20
224.089976
 30
0.0
 11
204.765315
 21
207.928351
 31
0.0
 11
198.429369
 21
208.307078
 31
0.0
 11
191.933768
 21
208.821177
 31
0.0
 11
185.446871
 21
209.493245
 31
0.0
 11
178.065827
 21
210.558436
 31
0.0
 11
172.027716
 21
211.832303
 31
0.0
 11
167.341105
 21
213.282840
 31
0.0
 11
164.067361
 21
214.821070
 31
0.0
 11
162.082928
 21
216.294588
 31
0.0
 11
161.118985
 21
217.576259
 31
0.0
 11
160.647546
 21
219.654498
 31
0.0
 11
160.315386
 21
222.468786
 31
0.0
 11
160.224363
 21
224.089976
 31
0.0
  0
LWPOLYLINE
  5
14d
100
AcDbEntity
  8
Layer_1
 62
7
100
AcDbPolyline
 90
2
 70
0
 10
161.118985
 20
217.576259
 30
0.0
 10
161.118985
 20
217.576259
 30
0.0
  0
SPLINE
  5
14e
100
AcDbEntity
  8
Layer_1
 62
7
100
AcDbSpline
 70
0
 71
3
 72
19
 73
15
 74
13
 40
0.000000
 40
0.000000
 40
0.000000
 40
0.000000
 40
0.044876
 40
0.137880
 40
0.335125
 40
1.330411
 40
2.918350
 40
5.118198
 40
11.459457
 40
20.734111
 40
33.380853
 40
37.296307
 40
41.129225
 40
44.930960
 40
44.930960
 40
44.930960
 40
44.930960
 10
160.224363
 20
224.089976
 30
0.0
 10
160.236600
 20
224.098582
 30
0.0
 10
160.274199
 20
224.125025
 30
0.0
 10
160.361824
 20
224.194384
 30
0.0
 10
160.695241
 20
224.463584
 30
0.0
 10
161.474869
 20
224.969671
 30
0.0
 10
162.880231
 20
225.724033
 30
0.0
 10
165.951008
 20
227.132591
 30
0.0
 10
171.519036
 20
229.210790
 30
0.0
 10
180.438560
 20
232.240106
 30
0.0
 10
188.636381
 20
234.882157
 30
0.0
 10
195.121267
 20
236.922702
 30
0.0
 10
198.801864
 20
238.052383
 30
0.0
 10
201.235570
 20
238.796356
 30
0.0
 10
202.447452
 20
239.166823
 30
0.0
 11
160.224363
 21
224.089976
 31
0.0
 11
160.260911
 21
224.116017
 31
0.0
 11
160.334505
 21
224.172882
 31
0.0
 11
160.488947
 21
224.295575
 31
0.0
 11
161.313840
 21
224.852481
 31
0.0
 11
162.706661
 21
225.615108
 31
0.0
 11
164.700783
 21
226.543983
 31
0.0
 11
170.610131
 21
228.844238
 31
0.0
 11
179.381011
 21
231.859344
 31
0.0
 11
191.413226
 21
235.753684
 31
0.0
 11
195.148897
 21
236.926520
 31
0.0
 11
198.812008
 21
238.054740
 31
0.0
 11
202.447452
 21
239.166823
 31
0.0
  0
LWPOLYLINE
  5
14f
100
AcDbEntity
  8
Layer_1
 62
7
100
AcDbPolyline
 90
2
 70
0
 10
202.447452
 20
239.166823
 30
0.0
 10
202.447452
 20
239.167360
 30
0.0
  0
SPLINE
  5
150
100
AcDbEntity
  8
Layer_1
 62
7
100
AcDbSpline
 70
0
 71
3
 72
43
 73
39
 74
37
 40
0.000000
 40
0.000000
 40
0.000000
 40
0.000000
 40
4.329959
 40
8.969617
 40
13.571309
 40
17.830168
 40
21.308643
 40
23.459188
 40
27.765961
 40
30.796332
 40
33.064822
 40
35.460915
 40
38.813856
 40
43.529456
 40
51.774699
 40
62.861945
 40
72.576204
 40
74.978052
 40
76.784657
 40
78.041000
 40
78.849068
 40
79.470273
 40
80.220984
 40
80.624351
 40
81.752571
 40
83.329212
 40
85.179974
 40
87.267279
 40
89.523383
 40
94.293793
 40
98.996646
 40
103.127525
 40
111.615454
 40
124.510645
 40
140.271164
 40
145.424961
 40
149.974183
 40
153.936439
 40
153.936439
 40
153.936439
 40
153.936439
 10
112.596056
 20
209.000993
 30
0.0
 10
114.039334
 20
208.984184
 30
0.0
 10
117.029120
 20
208.949362
 30
0.0
 10
121.550009
 20
208.776762
 30
0.0
 10
126.044151
 20
208.541859
 30
0.0
 10
130.145417
 20
208.223981
 30
0.0
 10
133.424670
 20
207.891557
 30
0.0
 10
136.705742
 20
207.421312
 30
0.0
 10
139.755782
 20
206.524380
 30
0.0
 10
142.656278
 20
205.093510
 30
0.0
 10
144.488973
 20
203.203770
 30
0.0
 10
145.392437
 20
200.623210
 30
0.0
 10
145.564782
 20
197.114223
 30
0.0
 10
144.887642
 20
191.700065
 30
0.0
 10
142.820813
 20
183.941214
 30
0.0
 10
140.102560
 20
174.656396
 30
0.0
 10
137.747124
 20
167.275975
 30
0.0
 10
135.945832
 20
162.997249
 30
0.0
 10
135.080909
 20
161.386602
 30
0.0
 10
134.312495
 20
160.348852
 30
0.0
 10
133.684613
 20
159.697477
 30
0.0
 10
133.034055
 20
159.353581
 30
0.0
 10
132.446959
 20
159.224399
 30
0.0
 10
131.685527
 20
159.228893
 30
0.0
 10
130.649816
 20
159.208209
 30
0.0
 10
129.131405
 20
159.268931
 30
0.0
 10
127.298610
 20
159.410280
 30
0.0
 10
125.242976
 20
159.605350
 30
0.0
 10
122.224048
 20
159.945648
 30
0.0
 10
118.349511
 20
160.474546
 30
0.0
 10
113.874808
 20
161.211970
 30
0.0
 10
108.212007
 20
162.355195
 30
0.0
 10
100.050917
 20
164.779879
 30
0.0
 10
88.250158
 20
168.513852
 30
0.0
 10
77.557985
 20
172.084159
 30
0.0
 10
69.568431
 20
174.949811
 30
0.0
 10
65.334943
 20
176.637404
 30
0.0
 10
62.763333
 20
177.836921
 30
0.0
 10
61.566200
 20
178.395320
 30
0.0
 11
112.596056
 21
209.000993
 31
0.0
 11
116.925466
 21
208.932095
 31
0.0
 11
121.562128
 21
208.765373
 31
0.0
 11
126.157054
 21
208.515910
 31
0.0
 11
130.403072
 21
208.185458
 31
0.0
 11
133.862025
 21
207.817445
 31
0.0
 11
135.987426
 21
207.489552
 31
0.0
 11
140.116776
 21
206.266127
 31
0.0
 11
142.775784
 21
204.812572
 31
0.0
 11
144.320148
 21
203.150950
 31
0.0
 11
145.188526
 21
200.917750
 31
0.0
 11
145.461559
 21
197.575945
 31
0.0
 11
144.957905
 21
192.887318
 31
0.0
 11
143.038217
 21
184.868663
 31
0.0
 11
139.927206
 21
174.226828
 31
0.0
 11
136.787792
 21
165.033847
 31
0.0
 11
135.829214
 21
162.831575
 31
0.0
 11
134.950947
 21
161.252820
 31
0.0
 11
134.196529
 21
160.248205
 31
0.0
 11
133.611400
 21
159.690892
 31
0.0
 11
133.063622
 21
159.397915
 31
0.0
 11
132.330665
 21
159.235620
 31
0.0
 11
131.927399
 21
159.226550
 31
0.0
 11
130.799195
 21
159.220597
 31
0.0
 11
129.223466
 21
159.274200
 31
0.0
 11
127.377642
 21
159.409315
 31
0.0
 11
125.299615
 21
159.605898
 31
0.0
 11
123.057571
 21
159.857384
 31
0.0
 11
118.330572
 21
160.499486
 31
0.0
 11
113.691685
 21
161.272502
 31
0.0
 11
109.645953
 21
162.106892
 31
0.0
 11
101.467936
 21
164.379554
 31
0.0
 11
89.168954
 21
168.255243
 31
0.0
 11
74.233126
 21
173.286646
 31
0.0
 11
69.389592
 21
175.047840
 31
0.0
 11
65.171738
 21
176.752282
 31
0.0
 11
61.566200
 21
178.395320
 31
0.0
  0
LWPOLYLINE
  5
151
100
AcDbEntity
  8
Layer_1
 62
7
100
AcDbPolyline
 90
2
 70
0
 10
61.566200
 20
178.395320
 30
0.0
 10
62.687923
 20
193.514049
 30
0.0
  0
SPLINE
  5
152
100
AcDbEntity
  8
Layer_1
 62
7
100
AcDbSpline
 70
0
 71
3
 72
16
 73
12
 74
10
 40
0.000000
 40
0.000000
 40
0.000000
 40
0.000000
 40
4.321354
 40
9.384394
 40
15.357904
 40
29.937490
 40
38.946066
 40
46.491923
 40
48.023140
 40
50.148872
 40
52.699102
 40
52.699102
 40
52.699102
 40
52.699102
 10
62.687923
 20
193.514049
 30
0.0
 10
63.981162
 20
194.148683
 30
0.0
 10
66.789602
 20
195.526877
 30
0.0
 10
71.475029
 20
197.592863
 30
0.0
 10
79.380387
 20
200.821239
 30
0.0
 10
88.533897
 20
204.463759
 30
0.0
 10
98.413060
 20
207.716044
 30
0.0
 10
104.393432
 20
208.672386
 30
0.0
 10
108.118382
 20
208.939089
 30
0.0
 10
110.187382
 20
208.994610
 30
0.0
 10
111.745999
 20
208.998741
 30
0.0
 10
112.596056
 20
209.000993
 30
0.0
 11
62.687923
 21
193.514049
 31
0.0
 11
66.579212
 21
195.393402
 31
0.0
 11
71.205450
 21
197.450656
 31
0.0
 11
76.726272
 21
199.731743
 31
0.0
 11
90.328027
 21
204.981179
 31
0.0
 11
98.942684
 21
207.615970
 31
0.0
 11
106.393782
 21
208.808066
 31
0.0
 11
107.921233
 21
208.915407
 31
0.0
 11
110.045888
 21
208.983023
 31
0.0
 11
112.596056
 21
209.000993
 31
0.0
  0
LWPOLYLINE
  5
153
100
AcDbEntity
  8
Layer_1
 62
7
100
AcDbPolyline
 90
2
 70
0
 10
112.596056
 20
209.000993
 30
0.0
 10
112.596056
 20
209.000993
 30
0.0
  0
SPLINE
  5
154
100
AcDbEntity
  8
Layer_1
 62
7
100
AcDbSpline
 70
0
 71
3
 72
13
 73
9
 74
7
 40
0.000000
 40
0.000000
 40
0.000000
 40
0.000000
 40
2.979828
 40
6.318580
 40
10.025434
 40
17.726305
 40
24.489890
 40
30.487494
 40
30.487494
 40
30.487494
 40
30.487494
 10
175.208599
 20
197.924872
 30
0.0
 10
176.201872
 20
197.915930
 30
0.0
 10
178.308059
 20
197.896970
 30
0.0
 10
181.648044
 20
197.775290
 30
0.0
 10
186.556663
 20
197.514562
 30
0.0
 10
192.601559
 20
197.128710
 30
0.0
 10
199.406203
 20
196.659806
 30
0.0
 10
203.646230
 20
196.318221
 30
0.0
 10
205.638990
 20
196.157681
 30
0.0
 11
175.208599
 21
197.924872
 31
0.0
 11
178.188163
 21
197.885208
 31
0.0
 11
181.524961
 21
197.770987
 31
0.0
 11
185.226938
 21
197.580899
 31
0.0
 11
192.912898
 21
197.101913
 31
0.0
 11
199.659891
 21
196.628445
 31
0.0
 11
205.638990
 21
196.157681
 31
0.0
  0
LWPOLYLINE
  5
155
100
AcDbEntity
  8
Layer_1
 62
7
100
AcDbPolyline
 90
2
 70
0
 10
205.638990
 20
196.157681
 30
0.0
 10
207.844952
 20
166.422352
 30
0.0
  0
SPLINE
  5
156
100
AcDbEntity
  8
Layer_1
 62
7
100
AcDbSpline
 70
0
 71
3
 72
34
 73
30
 74
28
 40
0.000000
 40
0.000000
 40
0.000000
 40
0.000000
 40
16.968776
 40
33.556391
 40
45.710898
 40
49.767070
 40
53.351746
 40
56.380170
 40
58.751243
 40
60.293609
 40
60.762101
 40
61.978891
 40
64.434505
 40
67.388057
 40
69.557648
 40
72.670846
 40
77.898845
 40
84.601902
 40
91.049582
 40
96.957913
 40
102.094999
 40
106.055270
 40
108.293899
 40
111.420097
 40
114.206467
 40
116.106754
 40
118.402744
 40
121.648530
 40
125.845528
 40
125.845528
 40
125.845528
 40
125.845528
 10
207.844952
 20
166.422352
 30
0.0
 10
202.727525
 20
164.010389
 30
0.0
 10
192.607622
 20
159.240642
 30
0.0
 10
178.583147
 20
153.296031
 30
0.0
 10
168.407616
 20
149.246032
 30
0.0
 10
162.052138
 20
147.460226
 30
0.0
 10
158.569762
 20
146.709720
 30
0.0
 10
155.612631
 20
146.285707
 30
0.0
 10
153.266913
 20
146.193892
 30
0.0
 10
151.858037
 20
146.458460
 30
0.0
 10
150.728195
 20
146.513673
 30
0.0
 10
150.110926
 20
148.005161
 30
0.0
 10
149.039547
 20
149.787143
 30
0.0
 10
148.488629
 20
152.359613
 30
0.0
 10
148.599236
 20
155.103313
 30
0.0
 10
149.336888
 20
158.543153
 30
0.0
 10
150.663917
 20
163.374200
 30
0.0
 10
152.357384
 20
169.263824
 30
0.0
 10
154.200932
 20
175.343398
 30
0.0
 10
155.970966
 20
180.898895
 30
0.0
 10
157.580458
 20
185.637486
 30
0.0
 10
158.914839
 20
189.168452
 30
0.0
 10
160.033209
 20
192.079283
 30
0.0
 10
161.650032
 20
194.308723
 30
0.0
 10
163.557011
 20
196.092884
 30
0.0
 10
165.600634
 20
197.296355
 30
0.0
 10
168.105799
 20
197.568277
 30
0.0
 10
171.321818
 20
197.895081
 30
0.0
 10
173.807129
 20
197.914130
 30
0.0
 10
175.208599
 20
197.924872
 30
0.0
 11
207.844952
 21
166.422352
 31
0.0
 11
192.447802
 21
159.290233
 31
0.0
 11
177.190125
 21
152.782370
 31
0.0
 11
165.796598
 21
148.549219
 31
0.0
 11
161.889274
 21
147.460477
 31
0.0
 11
158.382850
 21
146.715569
 31
0.0
 11
155.381385
 21
146.312382
 31
0.0
 11
153.010430
 21
146.288669
 31
0.0
 11
151.479012
 21
146.472107
 31
0.0
 11
151.016313
 21
146.545554
 31
0.0
 11
150.290503
 21
147.522168
 31
0.0
 11
149.219279
 21
149.731812
 31
0.0
 11
148.578285
 21
152.614969
 31
0.0
 11
148.637132
 21
154.783762
 31
0.0
 11
149.209418
 21
157.843907
 31
0.0
 11
150.542817
 21
162.899005
 31
0.0
 11
152.396582
 21
169.340630
 31
0.0
 11
154.268096
 21
175.510720
 31
0.0
 11
156.068201
 21
181.138153
 31
0.0
 11
157.737005
 21
185.996625
 31
0.0
 11
159.123112
 21
189.706403
 31
0.0
 11
160.000019
 21
191.766134
 31
0.0
 11
161.793024
 21
194.327042
 31
0.0
 11
163.853780
 21
196.202445
 31
0.0
 11
165.522645
 21
197.111281
 31
0.0
 11
167.779994
 21
197.530737
 31
0.0
 11
171.012929
 21
197.819285
 31
0.0
 11
175.208599
 21
197.924872
 31
0.0
  0
SPLINE
  5
157
100
AcDbEntity
  8
Layer_1
 62
7
100
AcDbSpline
 70
0
 71
3
 72
16
 73
12
 74
10
 40
0.000000
 40
0.000000
 40
0.000000
 40
0.000000
 40
2.828179
 40
5.758819
 40
9.110510
 40
23.695745
 40
31.600774
 40
35.412488
 40
35.968978
 40
36.396101
 40
36.738677
 40
36.738677
 40
36.738677
 40
36.738677
 10
60.640158
 20
165.925726
 30
0.0
 10
61.539861
 20
165.644200
 30
0.0
 10
63.371860
 20
165.070951
 30
0.0
 10
66.269686
 20
164.162314
 30
0.0
 10
72.878044
 20
161.992708
 30
0.0
 10
81.043080
 20
159.221714
 30
0.0
 10
89.259261
 20
156.210415
 30
0.0
 10
92.991945
 20
154.452407
 30
0.0
 10
94.271701
 20
153.491755
 30
0.0
 10
94.606177
 20
153.202260
 30
0.0
 10
94.790702
 20
153.023961
 30
0.0
 10
94.872830
 20
152.944604
 30
0.0
 11
60.640158
 21
165.925726
 31
0.0
 11
63.339202
 21
165.080883
 31
0.0
 11
66.133854
 21
164.198517
 31
0.0
 11
69.320145
 21
163.158622
 31
0.0
 11
83.119883
 21
158.436726
 31
0.0
 11
90.493943
 21
155.588441
 31
0.0
 11
93.858044
 21
153.796238
 31
0.0
 11
94.301608
 21
153.460185
 31
0.0
 11
94.624545
 21
153.180638
 31
0.0
 11
94.872830
 21
152.944604
 31
0.0
  0
LWPOLYLINE
  5
158
100
AcDbEntity
  8
Layer_1
 62
7
100
AcDbPolyline
 90
2
 70
0
 10
175.208599
 20
197.924872
 30
0.0
 10
175.208599
 20
197.924872
 30
0.0
  0
LWPOLYLINE
  5
159
100
AcDbEntity
  8
Layer_1
 62
7
100
AcDbPolyline
 90
2
 70
0
 10
57.652571
 20
125.655042
 30
0.0
 10
60.640158
 20
165.925726
 30
0.0
  0
SPLINE
  5
15a
100
AcDbEntity
  8
Layer_1
 62
7
100
AcDbSpline
 70
0
 71
3
 72
16
 73
12
 74
10
 40
0.000000
 40
0.000000
 40
0.000000
 40
0.000000
 40
3.394632
 40
9.799315
 40
19.277489
 40
30.000032
 40
36.757589
 40
41.281201
 40
43.119880
 40
44.668630
 40
47.029504
 40
47.029504
 40
47.029504
 40
47.029504
 10
94.872830
 20
152.944604
 30
0.0
 10
94.150379
 20
152.072386
 30
0.0
 10
92.064872
 20
149.554546
 30
0.0
 10
87.266304
 20
145.253475
 30
0.0
 10
80.586834
 20
139.428358
 30
0.0
 10
73.650062
 20
133.721599
 30
0.0
 10
67.837832
 20
129.217400
 30
0.0
 10
64.058000
 20
127.021911
 30
0.0
 10
61.659186
 20
125.876173
 30
0.0
 10
59.742437
 20
125.605970
 30
0.0
 10
58.439415
 20
125.636566
 30
0.0
 10
57.652571
 20
125.655042
 30
0.0
 11
94.872830
 21
152.944604
 31
0.0
 11
92.663025
 21
150.367728
 31
0.0
 11
88.025843
 21
145.949979
 31
0.0
 11
80.871410
 21
139.733076
 31
0.0
 11
72.584871
 21
132.928212
 31
0.0
 11
67.150784
 21
128.911339
 31
0.0
 11
63.235829
 21
126.645021
 31
0.0
 11
61.541110
 21
125.931812
 31
0.0
 11
60.013334
 21
125.677785
 31
0.0
 11
57.652571
 21
125.655042
 31
0.0
  0
SPLINE
  5
15b
100
AcDbEntity
  8
Layer_1
 62
7
100
AcDbSpline
 70
0
 71
3
 72
13
 73
9
 74
7
 40
0.000000
 40
0.000000
 40
0.000000
 40
0.000000
 40
11.085419
 40
22.796759
 40
33.446264
 40
35.198682
 40
36.707798
 40
38.004662
 40
38.004662
 40
38.004662
 40
38.004662
 10
210.620323
 20
129.019102
 30
0.0
 10
207.005386
 20
129.786306
 30
0.0
 10
199.571400
 20
131.364033
 30
0.0
 10
188.747424
 20
134.036135
 30
0.0
 10
180.966552
 20
136.066161
 30
0.0
 10
176.546837
 20
137.473374
 30
0.0
 10
175.128695
 20
138.021792
 30
0.0
 10
174.274061
 20
138.401994
 30
0.0
 10
173.879067
 20
138.577715
 30
0.0
 11
210.620323
 21
129.019102
 31
0.0
 11
199.788856
 21
131.378307
 31
0.0
 11
188.409572
 21
134.147310
 31
0.0
 11
178.141063
 21
136.970375
 31
0.0
 11
176.475759
 21
137.516018
 31
0.0
 11
175.067962
 21
138.059654
 31
0.0
 11
173.879067
 21
138.577715
 31
0.0
  0
LWPOLYLINE
  5
15c
100
AcDbEntity
  8
Layer_1
 62
7
100
AcDbPolyline
 90
2
 70
0
 10
208.662956
 20
155.403014
 30
0.0
 10
210.620323
 20
129.019102
 30
0.0
  0
SPLINE
  5
15d
100
AcDbEntity
  8
Layer_1
 62
7
100
AcDbSpline
 70
0
 71
3
 72
16
 73
12
 74
10
 40
0.000000
 40
0.000000
 40
0.000000
 40
0.000000
 40
2.243396
 40
5.498573
 40
9.774259
 40
16.498180
 40
24.367375
 40
33.231753
 40
35.240164
 40
36.942827
 40
38.659302
 40
38.659302
 40
38.659302
 40
38.659302
 10
173.879067
 20
138.577715
 30
0.0
 10
174.521352
 20
138.960783
 30
0.0
 10
176.095594
 20
139.899682
 30
0.0
 10
178.956235
 20
141.460814
 30
0.0
 10
183.184047
 20
143.630093
 30
0.0
 10
188.845804
 20
146.370492
 30
0.0
 10
195.924686
 20
149.691531
 30
0.0
 10
201.608020
 20
152.285966
 30
0.0
 10
205.435986
 20
153.994279
 30
0.0
 10
207.095273
 20
154.715358
 30
0.0
 10
208.138990
 20
155.173179
 30
0.0
 10
208.662956
 20
155.403014
 30
0.0
 11
173.879067
 21
138.577715
 31
0.0
 11
175.811752
 21
139.716817
 31
0.0
 11
178.663075
 21
141.287212
 31
0.0
 11
182.463694
 21
143.245981
 31
0.0
 11
188.507470
 21
146.192827
 31
0.0
 11
195.629790
 21
149.538987
 31
0.0
 11
203.695405
 21
153.216356
 31
0.0
 11
205.530486
 21
154.032564
 31
0.0
 11
207.090662
 21
154.714408
 31
0.0
 11
208.662956
 21
155.403014
 31
0.0
  0
SPLINE
  5
15e
100
AcDbEntity
  8
Layer_1
 62
7
100
AcDbSpline
 70
0
 71
3
 72
40
 73
36
 74
34
 40
0.000000
 40
0.000000
 40
0.000000
 40
0.000000
 40
0.714364
 40
1.577516
 40
2.613896
 40
6.056646
 40
9.972286
 40
13.939275
 40
17.677634
 40
20.543310
 40
21.550779
 40
22.638734
 40
24.806562
 40
28.662748
 40
30.832381
 40
32.032510
 40
34.551754
 40
38.385684
 40
45.545875
 40
54.280633
 40
63.127066
 40
70.785945
 40
75.751685
 40
79.947898
 40
83.278048
 40
85.830505
 40
87.725739
 40
89.242045
 40
90.731562
 40
91.774429
 40
94.215131
 40
97.154252
 40
101.967977
 40
106.158252
 40
111.865679
 40
111.865679
 40
111.865679
 40
111.865679
 10
113.718329
 20
148.097776
 30
0.0
 10
113.956451
 20
148.098547
 30
0.0
 10
114.482292
 20
148.100250
 30
0.0
 10
115.353567
 20
148.093078
 30
0.0
 10
117.134369
 20
148.089243
 30
0.0
 10
119.931483
 20
147.975672
 30
0.0
 10
123.695078
 20
147.654193
 30
0.0
 10
127.537550
 20
147.200501
 30
0.0
 10
131.036833
 20
146.653922
 30
0.0
 10
133.450177
 20
145.942687
 30
0.0
 10
135.147979
 20
145.773150
 30
0.0
 10
136.213371
 20
144.731800
 30
0.0
 10
137.391102
 20
142.675790
 30
0.0
 10
138.246440
 20
140.079189
 30
0.0
 10
139.278953
 20
137.864812
 30
0.0
 10
139.364950
 20
135.876320
 30
0.0
 10
138.786282
 20
133.411870
 30
0.0
 10
137.875290
 20
129.007686
 30
0.0
 10
136.262661
 20
122.626397
 30
0.0
 10
134.235129
 20
114.634534
 30
0.0
 10
132.046086
 20
106.509700
 30
0.0
 10
130.117218
 20
99.618537
 30
0.0
 10
128.537603
 20
94.236102
 30
0.0
 10
127.091700
 20
90.328860
 30
0.0
 10
125.740490
 20
87.247543
 30
0.0
 10
124.450946
 20
84.995084
 30
0.0
 10
123.244123
 20
83.397208
 30
0.0
 10
121.984378
 20
82.347614
 30
0.0
 10
120.784481
 20
81.675518
 30
0.0
 10
119.138299
 20
81.407103
 30
0.0
 10
117.043492
 20
80.981725
 30
0.0
 10
113.661761
 20
80.626725
 30
0.0
 10
109.660530
 20
80.440187
 30
0.0
 10
104.817740
 20
81.477596
 30
0.0
 10
101.802397
 20
82.832223
 30
0.0
 10
100.063625
 20
83.613357
 30
0.0
 11
113.718329
 21
148.097776
 31
0.0
 11
114.432693
 21
148.098853
 31
0.0
 11
115.295832
 21
148.094348
 31
0.0
 11
116.332192
 21
148.087898
 31
0.0
 11
119.772497
 21
147.958139
 31
0.0
 11
123.674774
 21
147.634926
 31
0.0
 11
127.613916
 21
147.165709
 31
0.0
 11
131.296171
 21
146.520477
 31
0.0
 11
134.092691
 21
145.894718
 31
0.0
 11
135.075716
 21
145.674136
 31
0.0
 11
135.912861
 21
144.979274
 31
0.0
 11
137.063762
 21
143.142183
 31
0.0
 11
138.517506
 21
139.570516
 31
0.0
 11
139.238278
 21
137.524106
 31
0.0
 11
139.310365
 21
136.326144
 31
0.0
 11
138.896189
 21
133.841180
 31
0.0
 11
138.080374
 21
130.095053
 31
0.0
 11
136.390689
 21
123.137086
 31
0.0
 11
134.223538
 21
114.675440
 31
0.0
 11
131.928360
 21
106.131932
 31
0.0
 11
129.856356
 21
98.758655
 31
0.0
 11
128.406565
 21
94.009266
 31
0.0
 11
126.948600
 21
90.074481
 31
0.0
 11
125.576406
 21
87.040180
 31
0.0
 11
124.288435
 21
84.836508
 31
0.0
 11
123.109871
 21
83.352292
 31
0.0
 11
121.947408
 21
82.378710
 31
0.0
 11
120.621750
 21
81.699523
 31
0.0
 11
119.602525
 21
81.478722
 31
0.0
 11
117.199860
 21
81.049509
 31
0.0
 11
114.280019
 21
80.713411
 31
0.0
 11
109.466684
 21
80.652122
 31
0.0
 11
105.360689
 21
81.488307
 31
0.0
 11
100.063625
 21
83.613357
 31
0.0
  0
SPLINE
  5
15f
100
AcDbEntity
  8
Layer_1
 62
7
100
AcDbSpline
 70
0
 71
3
 72
19
 73
15
 74
13
 40
0.000000
 40
0.000000
 40
0.000000
 40
0.000000
 40
1.918468
 40
3.563991
 40
5.816812
 40
9.409599
 40
14.798312
 40
22.431744
 40
32.502411
 40
38.498892
 40
41.031508
 40
41.542936
 40
41.867466
 40
42.051289
 40
42.051289
 40
42.051289
 40
42.051289
 10
100.063625
 20
83.613357
 30
0.0
 10
99.475956
 20
83.867715
 30
0.0
 10
98.384226
 20
84.340243
 30
0.0
 10
96.749733
 20
85.402688
 30
0.0
 10
94.927425
 20
87.120211
 30
0.0
 10
92.348640
 20
89.833675
 30
0.0
 10
88.697953
 20
94.002074
 30
0.0
 10
83.675410
 20
99.827428
 30
0.0
 10
78.577830
 20
105.894376
 30
0.0
 10
74.961539
 20
110.886204
 30
0.0
 10
73.255589
 20
113.429488
 30
0.0
 10
72.937477
 20
114.506518
 30
0.0
 10
72.808550
 20
114.824433
 30
0.0
 10
72.707111
 20
114.960729
 30
0.0
 10
72.670431
 20
115.010015
 30
0.0
 11
100.063625
 21
83.613357
 31
0.0
 11
98.326773
 21
84.428135
 31
0.0
 11
96.946589
 21
85.324148
 31
0.0
 11
95.265297
 21
86.823635
 31
0.0
 11
92.775002
 21
89.413335
 31
0.0
 11
89.196141
 21
93.441980
 31
0.0
 11
84.213430
 21
99.224874
 31
0.0
 11
77.831927
 21
107.015558
 31
0.0
 11
74.312213
 21
111.870391
 31
0.0
 11
73.072817
 21
114.079020
 31
0.0
 11
72.909818
 21
114.563777
 31
0.0
 11
72.775612
 21
114.859258
 31
0.0
 11
72.670431
 21
115.010015
 31
0.0
  0
LWPOLYLINE
  5
160
100
AcDbEntity
  8
Layer_1
 62
7
100
AcDbPolyline
 90
2
 70
0
 10
208.662956
 20
155.403014
 30
0.0
 10
208.662956
 20
155.403014
 30
0.0
  0
LWPOLYLINE
  5
161
100
AcDbEntity
  8
Layer_1
 62
7
100
AcDbPolyline
 90
2
 70
0
 10
113.718329
 20
148.097833
 30
0.0
 10
113.718329
 20
148.097776
 30
0.0
  0
SPLINE
  5
162
100
AcDbEntity
  8
Layer_1
 62
7
100
AcDbSpline
 70
0
 71
3
 72
19
 73
15
 74
13
 40
0.000000
 40
0.000000
 40
0.000000
 40
0.000000
 40
0.182935
 40
0.505314
 40
1.012549
 40
3.947366
 40
10.555499
 40
21.796770
 40
35.840747
 40
44.846355
 40
49.554468
 40
50.894948
 40
51.958497
 40
53.454446
 40
53.454446
 40
53.454446
 40
53.454446
 10
72.670431
 20
115.010015
 30
0.0
 10
72.710741
 20
115.055984
 30
0.0
 10
72.822089
 20
115.182965
 30
0.0
 10
72.975056
 20
115.487286
 30
0.0
 10
73.428223
 20
116.657631
 30
0.0
 10
75.631044
 20
119.274028
 30
0.0
 10
80.496978
 20
124.144059
 30
0.0
 10
88.576148
 20
131.104375
 30
0.0
 10
97.407475
 20
138.348597
 30
0.0
 10
104.730547
 20
144.003351
 30
0.0
 10
108.934889
 20
146.772482
 30
0.0
 10
111.090976
 20
147.773288
 30
0.0
 10
112.360992
 20
148.096895
 30
0.0
 10
113.217643
 20
148.097487
 30
0.0
 10
113.718329
 20
148.097833
 30
0.0
 11
72.670431
 21
115.010015
 31
0.0
 11
72.786774
 21
115.151186
 31
0.0
 11
72.943285
 21
115.433024
 31
0.0
 11
73.143373
 21
115.899128
 31
0.0
 11
74.839398
 21
118.294258
 31
0.0
 11
79.459258
 21
123.019120
 31
0.0
 11
87.887280
 21
130.457843
 31
0.0
 11
98.758799
 21
139.348477
 31
0.0
 11
105.955740
 21
144.761888
 31
0.0
 11
109.962900
 21
147.233527
 31
0.0
 11
111.191740
 21
147.769098
 31
0.0
 11
112.224181
 21
148.024448
 31
0.0
 11
113.718329
 21
148.097833
 31
0.0
  0
SPLINE
  5
163
100
AcDbEntity
  8
Layer_1
 62
7
100
AcDbSpline
 70
0
 71
3
 72
10
 73
6
 74
4
 40
0.000000
 40
0.000000
 40
0.000000
 40
0.000000
 40
0.621556
 40
1.294563
 40
2.021320
 40
2.021320
 40
2.021320
 40
2.021320
 10
161.642654
 20
127.254113
 30
0.0
 10
161.849838
 20
127.254861
 30
0.0
 10
162.281357
 20
127.256418
 30
0.0
 10
162.955133
 20
127.255693
 30
0.0
 10
163.421713
 20
127.252795
 30
0.0
 10
163.663961
 20
127.251291
 30
0.0
 11
161.642654
 21
127.254113
 31
0.0
 11
162.264207
 21
127.255890
 31
0.0
 11
162.937214
 21
127.255158
 31
0.0
 11
163.663961
 21
127.251291
 31
0.0
  0
LWPOLYLINE
  5
164
100
AcDbEntity
  8
Layer_1
 62
7
100
AcDbPolyline
 90
3
 70
0
 10
161.642090
 20
127.254113
 30
0.0
 10
161.642654
 20
127.254113
 30
0.0
 10
161.642654
 20
127.254113
 30
0.0
  0
SPLINE
  5
165
100
AcDbEntity
  8
Layer_1
 62
7
100
AcDbSpline
 70
0
 71
3
 72
13
 73
9
 74
7
 40
0.000000
 40
0.000000
 40
0.000000
 40
0.000000
 40
7.385594
 40
17.993476
 40
35.766614
 40
40.759314
 40
45.100327
 40
48.932896
 40
48.932896
 40
48.932896
 40
48.932896
 10
163.663961
 20
127.251291
 30
0.0
 10
166.126686
 20
127.136579
 30
0.0
 10
172.126609
 20
126.857107
 30
0.0
 10
183.811400
 20
124.299867
 30
0.0
 10
194.616715
 20
121.713208
 30
0.0
 10
203.381718
 20
119.513291
 30
0.0
 10
207.628490
 20
118.405985
 30
0.0
 10
210.254818
 20
117.680943
 30
0.0
 10
211.486296
 20
117.340973
 30
0.0
 11
163.663961
 21
127.251291
 31
0.0
 11
171.031661
 21
126.737495
 31
0.0
 11
181.458933
 21
124.788348
 31
0.0
 11
198.748814
 21
120.671985
 31
0.0
 11
203.590302
 21
119.452538
 31
0.0
 11
207.789653
 21
118.352610
 31
0.0
 11
211.486296
 21
117.340973
 31
0.0
  0
LWPOLYLINE
  5
166
100
AcDbEntity
  8
Layer_1
 62
7
100
AcDbPolyline
 90
2
 70
0
 10
211.486296
 20
117.340973
 30
0.0
 10
213.921013
 20
84.523834
 30
0.0
  0
SPLINE
  5
167
100
AcDbEntity
  8
Layer_1
 62
7
100
AcDbSpline
 70
0
 71
3
 72
28
 73
24
 74
22
 40
0.000000
 40
0.000000
 40
0.000000
 40
0.000000
 40
14.516045
 40
32.437338
 40
51.696912
 40
60.889402
 40
67.103697
 40
70.513254
 40
71.358573
 40
72.009631
 40
72.880123
 40
74.269563
 40
76.249991
 40
78.825675
 40
86.890570
 40
95.260519
 40
101.221124
 40
105.397235
 40
108.910372
 40
111.848533
 40
113.313223
 40
114.728657
 40
117.653224
 40
117.653224
 40
117.653224
 40
117.653224
 10
213.921013
 20
84.523834
 30
0.0
 10
209.082214
 20
84.480017
 30
0.0
 10
198.269506
 20
84.382103
 30
0.0
 10
181.040145
 20
84.912450
 30
0.0
 10
165.602976
 20
85.573265
 30
0.0
 10
154.068775
 20
86.540518
 30
0.0
 10
147.900578
 20
87.623389
 30
0.0
 10
144.526230
 20
88.694542
 30
0.0
 10
143.186042
 20
89.672230
 30
0.0
 10
142.757847
 20
90.356317
 30
0.0
 10
142.568700
 20
91.319515
 30
0.0
 10
142.462451
 20
92.729149
 30
0.0
 10
142.609766
 20
94.713082
 30
0.0
 10
143.270072
 20
98.868105
 30
0.0
 10
144.786519
 20
105.033361
 30
0.0
 10
146.856910
 20
112.195105
 30
0.0
 10
148.730546
 20
118.097172
 30
0.0
 10
150.943329
 20
122.097566
 30
0.0
 10
153.267587
 20
124.835221
 30
0.0
 10
155.510640
 20
126.255382
 30
0.0
 10
157.277202
 20
127.104870
 30
0.0
 10
159.225678
 20
127.288052
 30
0.0
 10
160.669300
 20
127.268063
 30
0.0
 10
161.642104
 20
127.254593
 30
0.0
 11
213.921013
 21
84.523834
 31
0.0
 11
199.405038
 21
84.478632
 31
0.0
 11
181.489511
 21
84.933196
 31
0.0
 11
162.253953
 21
85.894700
 31
0.0
 11
153.104797
 21
86.786225
 31
0.0
 11
147.003216
 21
87.964430
 31
0.0
 11
143.833992
 21
89.221846
 31
0.0
 11
143.177034
 21
89.753796
 31
0.0
 11
142.829843
 21
90.304555
 31
0.0
 11
142.615805
 21
91.148323
 31
0.0
 11
142.505808
 21
92.533402
 31
0.0
 11
142.618725
 21
94.510608
 31
0.0
 11
143.000002
 21
97.057916
 31
0.0
 11
144.812360
 21
104.916534
 31
0.0
 11
147.122638
 21
112.961326
 31
0.0
 11
149.124555
 21
118.575695
 31
0.0
 11
151.179163
 21
122.211418
 31
0.0
 11
153.517026
 21
124.833732
 31
0.0
 11
155.967893
 21
126.454239
 31
0.0
 11
157.316030
 21
127.026814
 31
0.0
 11
158.717699
 21
127.223733
 31
0.0
 11
161.642104
 21
127.254593
 31
0.0
  0
SPLINE
  5
168
100
AcDbEntity
  8
Layer_1
 62
7
100
AcDbSpline
 70
0
 71
3
 72
19
 73
15
 74
13
 40
0.000000
 40
0.000000
 40
0.000000
 40
0.000000
 40
2.049383
 40
3.924715
 40
5.714196
 40
9.717068
 40
15.453728
 40
21.873910
 40
25.032106
 40
28.018058
 40
30.716005
 40
32.966297
 40
34.652831
 40
35.481537
 40
35.481537
 40
35.481537
 40
35.481537
 10
56.572187
 20
111.094125
 30
0.0
 10
57.161457
 20
110.748016
 30
0.0
 10
58.289950
 20
110.085193
 30
0.0
 10
59.842620
 20
108.977362
 30
0.0
 10
61.801103
 20
107.331178
 30
0.0
 10
64.463977
 20
104.552380
 30
0.0
 10
68.112834
 20
100.592659
 30
0.0
 10
71.472396
 20
96.747101
 30
0.0
 10
74.174303
 20
93.547118
 30
0.0
 10
76.047408
 20
91.271470
 30
0.0
 10
77.705848
 20
89.210975
 30
0.0
 10
79.040781
 20
87.447518
 30
0.0
 10
79.970044
 20
86.158591
 30
0.0
 10
80.432020
 20
85.458881
 30
0.0
 10
80.584230
 20
85.228345
 30
0.0
 11
56.572187
 21
111.094125
 31
0.0
 11
58.323073
 21
110.029057
 31
0.0
 11
59.850305
 21
108.940740
 31
0.0
 11
61.222241
 21
107.791814
 31
0.0
 11
64.055013
 21
104.963672
 31
0.0
 11
67.941072
 21
100.743741
 31
0.0
 11
72.169376
 21
95.912573
 31
0.0
 11
74.206138
 21
93.498903
 31
0.0
 11
76.104003
 21
91.193688
 31
0.0
 11
77.787913
 21
89.085759
 31
0.0
 11
79.146228
 21
87.291659
 31
0.0
 11
80.124510
 21
85.917846
 31
0.0
 11
80.584230
 21
85.228345
 31
0.0
  0
LWPOLYLINE
  5
169
100
AcDbEntity
  8
Layer_1
 62
7
100
AcDbPolyline
 90
2
 70
0
 10
161.642104
 20
127.254593
 30
0.0
 10
161.642090
 20
127.254113
 30
0.0
  0
LWPOLYLINE
  5
16a
100
AcDbEntity
  8
Layer_1
 62
7
100
AcDbPolyline
 90
2
 70
0
 10
54.508437
 20
83.281464
 30
0.0
 10
56.572187
 20
111.094125
 30
0.0
  0
LWPOLYLINE
  5
16b
100
AcDbEntity
  8
Layer_1
 62
7
100
AcDbPolyline
 90
5
 70
0
 10
20.912970
 20
104.896271
 30
0.0
 10
28.861493
 20
103.990620
 30
0.0
 10
23.767163
 20
59.279903
 30
0.0
 10
15.818638
 20
60.185554
 30
0.0
 10
20.912970
 20
104.896271
 30
0.0
  0
SPLINE
  5
16c
100
AcDbEntity
  8
Layer_1
 62
7
100
AcDbSpline
 70
0
 71
3
 72
13
 73
9
 74
7
 40
0.000000
 40
0.000000
 40
0.000000
 40
0.000000
 40
1.472405
 40
3.589896
 40
6.416311
 40
11.208407
 40
18.140947
 40
26.178502
 40
26.178502
 40
26.178502
 40
26.178502
 10
80.584230
 20
85.228345
 30
0.0
 10
80.105651
 20
85.118718
 30
0.0
 10
78.938818
 20
84.851435
 30
0.0
 10
76.819039
 20
84.552769
 30
0.0
 10
73.595013
 20
84.181060
 30
0.0
 10
68.751696
 20
83.884149
 30
0.0
 10
62.172594
 20
83.566664
 30
0.0
 10
57.185854
 20
83.381096
 30
0.0
 10
54.508437
 20
83.281464
 30
0.0
 11
80.584230
 21
85.228345
 31
0.0
 11
79.145267
 21
84.916317
 31
0.0
 11
77.052549
 21
84.593358
 31
0.0
 11
74.244150
 21
84.274745
 31
0.0
 11
69.464018
 21
83.936324
 31
0.0
 11
62.539827
 21
83.596197
 31
0.0
 11
54.508437
 21
83.281464
 31
0.0
  0
LWPOLYLINE
  5
16d
100
AcDbEntity
  8
Layer_1
 62
7
100
AcDbPolyline
 90
2
 70
0
 10
169.249409
 20
73.613687
 30
0.0
 10
169.249974
 20
73.613687
 30
0.0
  0
SPLINE
  5
16e
100
AcDbEntity
  8
Layer_1
 62
7
100
AcDbSpline
 70
0
 71
3
 72
10
 73
6
 74
4
 40
0.000000
 40
0.000000
 40
0.000000
 40
0.000000
 40
18.358073
 40
33.927135
 40
45.693812
 40
45.693812
 40
45.693812
 40
45.693812
 10
169.249974
 20
73.613687
 30
0.0
 10
175.368854
 20
73.561636
 30
0.0
 10
186.677017
 20
73.465440
 30
0.0
 10
201.905584
 20
72.884515
 30
0.0
 10
210.975062
 20
71.990464
 30
0.0
 10
214.879022
 20
71.605620
 30
0.0
 11
169.249974
 21
73.613687
 31
0.0
 11
187.606285
 21
73.359407
 31
0.0
 11
203.159580
 21
72.658890
 31
0.0
 11
214.879022
 21
71.605620
 31
0.0
  0
SPLINE
  5
16f
100
AcDbEntity
  8
Layer_1
 62
7
100
AcDbSpline
 70
0
 71
3
 72
22
 73
18
 74
16
 40
0.000000
 40
0.000000
 40
0.000000
 40
0.000000
 40
9.751133
 40
23.794096
 40
42.509207
 40
52.857728
 40
60.135258
 40
64.944878
 40
68.334997
 40
71.824074
 40
76.743688
 40
84.036402
 40
89.331815
 40
92.455547
 40
93.071006
 40
93.455362
 40
93.650038
 40
93.650038
 40
93.650038
 40
93.650038
 10
217.460365
 20
36.820630
 30
0.0
 10
214.210987
 20
36.923588
 30
0.0
 10
206.282060
 20
37.174818
 30
0.0
 10
192.169124
 20
38.519927
 30
0.0
 10
177.886005
 20
40.067372
 30
0.0
 10
165.864571
 20
41.577976
 30
0.0
 10
158.492966
 20
42.860849
 30
0.0
 10
153.515297
 20
44.299308
 30
0.0
 10
150.106957
 20
46.335854
 30
0.0
 10
147.701042
 20
49.524097
 30
0.0
 10
145.307309
 20
54.170458
 30
0.0
 10
142.793023
 20
59.455591
 30
0.0
 10
141.056053
 20
64.384603
 30
0.0
 10
140.347621
 20
67.354419
 30
0.0
 10
140.385476
 20
68.730463
 30
0.0
 10
140.404829
 20
69.128210
 30
0.0
 10
140.424667
 20
69.320227
 30
0.0
 10
140.431337
 20
69.384785
 30
0.0
 11
217.460365
 21
36.820630
 31
0.0
 11
207.717160
 21
37.213758
 31
0.0
 11
193.724194
 21
38.397705
 31
0.0
 11
175.120416
 21
40.436038
 31
0.0
 11
164.862240
 21
41.800488
 31
0.0
 11
157.712567
 21
43.158655
 31
0.0
 11
153.143464
 21
44.660566
 31
0.0
 11
150.282294
 21
46.478976
 31
0.0
 11
148.067244
 21
49.174752
 31
0.0
 11
145.686622
 21
53.480010
 31
0.0
 11
142.645860
 21
60.108542
 31
0.0
 11
140.923012
 21
65.115857
 31
0.0
 11
140.379521
 21
68.191944
 31
0.0
 11
140.390258
 21
68.807310
 31
0.0
 11
140.412510
 21
69.191022
 31
0.0
 11
140.431337
 21
69.384785
 31
0.0
  0
LWPOLYLINE
  5
170
100
AcDbEntity
  8
Layer_1
 62
7
100
AcDbPolyline
 90
2
 70
0
 10
214.879022
 20
71.605620
 30
0.0
 10
217.460365
 20
36.820630
 30
0.0
  0
LWPOLYLINE
  5
171
100
AcDbEntity
  8
Layer_1
 62
7
100
AcDbPolyline
 90
2
 70
0
 10
169.249421
 20
73.613687
 30
0.0
 10
169.249409
 20
73.613687
 30
0.0
  0
SPLINE
  5
172
100
AcDbEntity
  8
Layer_1
 62
7
100
AcDbSpline
 70
0
 71
3
 72
16
 73
12
 74
10
 40
0.000000
 40
0.000000
 40
0.000000
 40
0.000000
 40
0.132464
 40
0.360451
 40
0.709419
 40
2.413856
 40
4.641378
 40
8.111197
 40
13.303001
 40
20.427818
 40
29.751038
 40
29.751038
 40
29.751038
 40
29.751038
 10
140.431337
 20
69.384785
 30
0.0
 10
140.459514
 20
69.418782
 30
0.0
 10
140.536188
 20
69.511294
 30
0.0
 10
140.693883
 20
69.687617
 30
0.0
 10
141.207789
 20
70.247444
 30
0.0
 10
142.303714
 20
71.193945
 30
0.0
 10
144.640034
 20
72.089149
 30
0.0
 10
148.204863
 20
72.783309
 30
0.0
 10
153.449240
 20
73.299085
 30
0.0
 10
160.658509
 20
73.575834
 30
0.0
 10
166.141502
 20
73.599993
 30
0.0
 10
169.249421
 20
73.613687
 30
0.0
 11
140.431337
 21
69.384785
 31
0.0
 11
140.516335
 21
69.486383
 31
0.0
 11
140.667258
 21
69.657263
 31
0.0
 11
140.904279
 21
69.913387
 31
0.0
 11
142.213869
 21
71.004295
 31
0.0
 11
144.258129
 21
71.889087
 31
0.0
 11
147.647847
 21
72.630340
 31
0.0
 11
152.809136
 21
73.192415
 31
0.0
 11
159.926746
 21
73.512782
 31
0.0
 11
169.249421
 21
73.613687
 31
0.0
  0
SPLINE
  5
173
100
AcDbEntity
  8
Layer_1
 62
7
100
AcDbSpline
 70
0
 71
3
 72
13
 73
9
 74
7
 40
0.000000
 40
0.000000
 40
0.000000
 40
0.000000
 40
6.367334
 40
9.819660
 40
13.079057
 40
13.586081
 40
14.077154
 40
14.580253
 40
14.580253
 40
14.580253
 40
14.580253
 10
83.063608
 20
72.546549
 30
0.0
 10
85.184370
 20
72.561199
 30
0.0
 10
88.454996
 20
72.583793
 30
0.0
 10
92.826751
 20
72.337957
 30
0.0
 10
95.154177
 20
71.676891
 30
0.0
 10
96.506643
 20
71.247031
 30
0.0
 10
96.973611
 20
71.066663
 30
0.0
 10
97.284656
 20
70.952389
 30
0.0
 10
97.442060
 20
70.894561
 30
0.0
 11
83.063608
 21
72.546549
 31
0.0
 11
89.430796
 21
72.503396
 31
0.0
 11
92.870210
 21
72.205089
 31
0.0
 11
96.028192
 21
71.398356
 31
0.0
 11
96.510010
 21
71.240480
 31
0.0
 11
96.970308
 21
71.069370
 31
0.0
 11
97.442060
 21
70.894561
 31
0.0
  0
LWPOLYLINE
  5
174
100
AcDbEntity
  8
Layer_1
 62
7
100
AcDbPolyline
 90
2
 70
0
 10
83.063044
 20
72.546549
 30
0.0
 10
83.063608
 20
72.546549
 30
0.0
  0
SPLINE
  5
175
100
AcDbEntity
  8
Layer_1
 62
7
100
AcDbSpline
 70
0
 71
3
 72
19
 73
15
 74
13
 40
0.000000
 40
0.000000
 40
0.000000
 40
0.000000
 40
4.789767
 40
13.249663
 40
26.634320
 40
36.149128
 40
43.535016
 40
49.130921
 40
53.272824
 40
56.463047
 40
59.316342
 40
59.937143
 40
60.543171
 40
61.148357
 40
61.148357
 40
61.148357
 40
61.148357
 10
97.442060
 20
70.894561
 30
0.0
 10
96.386589
 20
69.696076
 30
0.0
 10
93.466897
 20
66.380774
 30
0.0
 10
87.101701
 20
60.182292
 30
0.0
 10
79.568607
 20
52.938819
 30
0.0
 10
72.188979
 20
46.048917
 30
0.0
 10
66.573098
 20
41.076571
 30
0.0
 10
62.109205
 20
37.514725
 30
0.0
 10
58.529769
 20
35.099223
 30
0.0
 10
55.462712
 20
33.610688
 30
0.0
 10
53.314659
 20
32.998076
 30
0.0
 10
51.973818
 20
32.766074
 30
0.0
 10
51.363504
 20
32.721148
 30
0.0
 10
50.959730
 20
32.730393
 30
0.0
 10
50.757983
 20
32.735012
 30
0.0
 11
97.442060
 21
70.894561
 31
0.0
 11
94.243396
 21
67.329394
 31
0.0
 11
88.274602
 21
61.334118
 31
0.0
 11
78.611996
 21
52.072201
 31
0.0
 11
71.638285
 21
45.599262
 31
0.0
 11
66.079816
 21
40.735648
 31
0.0
 11
61.678109
 21
37.280342
 31
0.0
 11
58.209538
 21
35.016633
 31
0.0
 11
55.325555
 21
33.652756
 31
0.0
 11
52.580301
 21
32.875022
 31
0.0
 11
51.967546
 21
32.775393
 31
0.0
 11
51.363156
 21
32.730878
 31
0.0
 11
50.757983
 21
32.735012
 31
0.0
  0
LWPOLYLINE
  5
176
100
AcDbEntity
  8
Layer_1
 62
7
100
AcDbPolyline
 90
2
 70
0
 10
50.757983
 20
32.735012
 30
0.0
 10
53.658480
 20
71.821689
 30
0.0
  0
SPLINE
  5
177
100
AcDbEntity
  8
Layer_1
 62
7
100
AcDbSpline
 70
0
 71
3
 72
10
 73
6
 74
4
 40
0.000000
 40
0.000000
 40
0.000000
 40
0.000000
 40
11.591126
 40
21.884673
 40
29.414276
 40
29.414276
 40
29.414276
 40
29.414276
 10
53.658480
 20
71.821689
 30
0.0
 10
57.520156
 20
71.946226
 30
0.0
 10
64.811209
 20
72.181359
 30
0.0
 10
74.612510
 20
72.455317
 30
0.0
 10
80.553300
 20
72.519454
 30
0.0
 10
83.063058
 20
72.546549
 30
0.0
 11
53.658480
 21
71.821689
 31
0.0
 11
65.243862
 21
72.186519
 31
0.0
 11
75.534112
 21
72.447083
 31
0.0
 11
83.063058
 21
72.546549
 31
0.0
  0
LWPOLYLINE
  5
178
100
AcDbEntity
  8
Layer_1
 62
7
100
AcDbPolyline
 90
2
 70
0
 10
83.063058
 20
72.546549
 30
0.0
 10
83.063044
 20
72.546549
 30
0.0
  0
SPLINE
  5
179
100
AcDbEntity
  8
Layer_1
 62
7
100
AcDbSpline
 70
0
 71
3
 72
16
 73
12
 74
10
 40
0.000000
 40
0.000000
 40
0.000000
 40
0.000000
 40
0.087809
 40
0.165400
 40
0.235612
 40
0.503505
 40
0.899217
 40
1.563308
 40
4.090369
 40
8.440371
 40
14.758126
 40
14.758126
 40
14.758126
 40
14.758126
 10
123.256560
 20
68.814809
 30
0.0
 10
123.285817
 20
68.813634
 30
0.0
 10
123.340928
 20
68.811422
 30
0.0
 10
123.418969
 20
68.802127
 30
0.0
 10
123.555012
 20
68.773129
 30
0.0
 10
123.765212
 20
68.628521
 30
0.0
 10
124.019701
 20
68.265268
 30
0.0
 10
124.775537
 20
67.338280
 30
0.0
 10
126.048903
 20
65.157055
 30
0.0
 10
128.009127
 20
61.224102
 30
0.0
 10
129.502601
 20
57.995835
 30
0.0
 10
130.387079
 20
56.083962
 30
0.0
 11
123.256560
 21
68.814809
 31
0.0
 11
123.344241
 21
68.810070
 31
0.0
 11
123.421252
 21
68.800602
 31
0.0
 11
123.489723
 21
68.785063
 31
0.0
 11
123.718350
 21
68.645433
 31
0.0
 11
123.971073
 21
68.340935
 31
0.0
 11
124.377180
 21
67.815488
 31
0.0
 11
125.722243
 21
65.676133
 31
0.0
 11
127.701611
 21
61.802554
 31
0.0
 11
130.387079
 21
56.083962
 31
0.0
  0
LWPOLYLINE
  5
17a
100
AcDbEntity
  8
Layer_1
 62
7
100
AcDbPolyline
 90
2
 70
0
 10
123.489723
 20
68.785063
 30
0.0
 10
123.489723
 20
68.785063
 30
0.0
  0
SPLINE
  5
17b
100
AcDbEntity
  8
Layer_1
 62
7
100
AcDbSpline
 70
0
 71
3
 72
25
 73
21
 74
19
 40
0.000000
 40
0.000000
 40
0.000000
 40
0.000000
 40
11.143883
 40
17.802030
 40
21.219709
 40
22.571611
 40
25.133223
 40
28.167021
 40
31.196166
 40
33.684407
 40
34.801364
 40
35.319426
 40
35.948692
 40
37.138517
 40
39.169213
 40
42.081859
 40
45.931200
 40
51.600531
 40
60.728652
 40
71.386129
 40
71.386129
 40
71.386129
 40
71.386129
 10
130.387079
 20
56.083962
 30
0.0
 10
131.925224
 20
52.692089
 30
0.0
 10
134.382366
 20
47.273671
 30
0.0
 10
136.783110
 20
40.677493
 30
0.0
 10
137.822007
 20
36.910194
 30
0.0
 10
137.440748
 20
34.478565
 30
0.0
 10
137.066217
 20
32.199307
 30
0.0
 10
136.463471
 20
29.384314
 30
0.0
 10
135.691870
 20
26.638467
 30
0.0
 10
134.958807
 20
24.551257
 30
0.0
 10
134.550080
 20
23.239088
 30
0.0
 10
134.167457
 20
22.572607
 30
0.0
 10
133.508297
 20
22.124314
 30
0.0
 10
132.323033
 20
21.636294
 30
0.0
 10
130.366955
 20
21.025277
 30
0.0
 10
127.497729
 20
20.418907
 30
0.0
 10
123.411805
 20
19.720576
 30
0.0
 10
117.230994
 20
19.042868
 30
0.0
 10
108.792064
 20
18.168682
 30
0.0
 10
102.224726
 20
17.560689
 30
0.0
 10
98.687241
 20
17.233194
 30
0.0
 11
130.387079
 21
56.083962
 31
0.0
 11
134.827893
 21
45.863135
 31
0.0
 11
137.051935
 21
39.587423
 31
0.0
 11
137.659813
 21
36.224238
 31
0.0
 11
137.502770
 21
34.881489
 31
0.0
 11
137.072936
 21
32.356197
 31
0.0
 11
136.432259
 21
29.390820
 31
0.0
 11
135.609366
 21
26.475590
 31
0.0
 11
134.826809
 21
24.113609
 31
0.0
 11
134.437411
 21
23.066728
 31
0.0
 11
134.159803
 21
22.629324
 31
0.0
 11
133.660769
 21
22.245994
 31
0.0
 11
132.577059
 21
21.754818
 31
0.0
 11
130.642078
 21
21.138719
 31
0.0
 11
127.800430
 21
20.499548
 31
0.0
 11
124.005659
 21
19.853684
 31
0.0
 11
118.377349
 21
19.172925
 31
0.0
 11
109.297395
 21
18.236421
 31
0.0
 11
98.687241
 21
17.233194
 31
0.0
  0
SPLINE
  5
17c
100
AcDbEntity
  8
Layer_1
 62
7
100
AcDbSpline
 70
0
 71
3
 72
13
 73
9
 74
7
 40
0.000000
 40
0.000000
 40
0.000000
 40
0.000000
 40
1.019908
 40
2.261498
 40
3.837036
 40
4.210217
 40
4.422885
 40
4.565843
 40
4.565843
 40
4.565843
 40
4.565843
 10
66.118687
 20
17.233194
 30
0.0
 10
65.863392
 20
17.458086
 30
0.0
 10
65.297312
 20
17.956750
 30
0.0
 10
64.447468
 20
18.916550
 30
0.0
 10
63.803095
 20
19.762990
 30
0.0
 10
63.385675
 20
20.350292
 30
0.0
 10
63.251432
 20
20.552831
 30
0.0
 10
63.189193
 20
20.653725
 30
0.0
 10
63.164173
 20
20.694283
 30
0.0
 11
66.118687
 21
17.233194
 31
0.0
 11
65.366062
 21
17.921502
 31
0.0
 11
64.532107
 21
18.841320
 31
0.0
 11
63.571521
 21
20.090158
 31
0.0
 11
63.356799
 21
20.395376
 31
0.0
 11
63.239760
 21
20.572942
 31
0.0
 11
63.164173
 21
20.694283
 31
0.0
  0
LWPOLYLINE
  5
17d
100
AcDbEntity
  8
Layer_1
 62
7
100
AcDbPolyline
 90
2
 70
0
 10
98.687241
 20
17.233194
 30
0.0
 10
66.118687
 20
17.233194
 30
0.0
  0
SPLINE
  5
17e
100
AcDbEntity
  8
Layer_1
 62
7
100
AcDbSpline
 70
0
 71
3
 72
31
 73
27
 74
25
 40
0.000000
 40
0.000000
 40
0.000000
 40
0.000000
 40
0.351390
 40
0.868072
 40
1.581149
 40
2.207667
 40
3.715933
 40
5.869079
 40
8.533847
 40
11.715110
 40
15.385730
 40
24.101211
 40
34.523420
 40
46.502445
 40
55.664405
 40
62.040287
 40
66.209505
 40
68.980232
 40
71.553398
 40
75.112060
 40
76.061089
 40
76.898890
 40
77.624385
 40
78.362889
 40
78.878931
 40
79.226266
 40
79.226266
 40
79.226266
 40
79.226266
 10
63.164173
 20
20.694283
 30
0.0
 10
63.212951
 20
20.800815
 30
0.0
 10
63.333451
 20
21.063990
 30
0.0
 10
63.582398
 20
21.528328
 30
0.0
 10
63.878753
 20
22.073990
 30
0.0
 10
64.480465
 20
22.811228
 30
0.0
 10
65.380953
 20
23.919594
 30
0.0
 10
66.784785
 20
25.494982
 30
0.0
 10
68.612802
 20
27.435828
 30
0.0
 10
70.817511
 20
29.716921
 30
0.0
 10
74.467054
 20
33.405858
 30
0.0
 10
79.886104
 20
38.738890
 30
0.0
 10
87.361359
 20
45.929453
 30
0.0
 10
95.005552
 20
53.159280
 30
0.0
 10
101.713326
 20
59.413686
 30
0.0
 10
106.629007
 20
63.777393
 30
0.0
 10
110.154864
 20
66.477569
 30
0.0
 10
112.973098
 20
68.004053
 30
0.0
 10
115.917721
 20
68.567787
 30
0.0
 10
118.275605
 20
68.650189
 30
0.0
 10
120.055426
 20
68.736072
 30
0.0
 10
120.892367
 20
68.767080
 30
0.0
 10
121.659582
 20
68.775931
 30
0.0
 10
122.319730
 20
68.779557
 30
0.0
 10
122.853005
 20
68.809365
 30
0.0
 10
123.140786
 20
68.813650
 30
0.0
 10
123.256560
 20
68.815373
 30
0.0
 11
63.164173
 21
20.694283
 31
0.0
 11
63.313156
 21
21.012526
 31
0.0
 11
63.551955
 21
21.470714
 31
0.0
 11
63.912172
 21
22.086118
 31
0.0
 11
64.293929
 21
22.582894
 31
0.0
 11
65.252920
 21
23.747025
 31
0.0
 11
66.677620
 21
25.361420
 31
0.0
 11
68.498587
 21
27.306944
 31
0.0
 11
70.708229
 21
29.595594
 31
0.0
 11
73.287792
 21
32.206974
 31
0.0
 11
79.491086
 21
38.328964
 31
0.0
 11
86.996836
 21
45.559880
 31
0.0
 11
95.698550
 21
53.792572
 31
0.0
 11
102.423108
 21
60.015259
 31
0.0
 11
107.238604
 21
64.194118
 31
0.0
 11
110.603965
 21
66.655160
 31
0.0
 11
113.081207
 21
67.896207
 31
0.0
 11
115.594168
 21
68.449573
 31
0.0
 11
119.144495
 21
68.693002
 31
0.0
 11
120.092550
 21
68.735982
 31
0.0
 11
120.929859
 21
68.764651
 31
0.0
 11
121.655279
 21
68.775157
 31
0.0
 11
122.393683
 21
68.787258
 31
0.0
 11
122.909297
 21
68.808296
 31
0.0
 11
123.256560
 21
68.815373
 31
0.0
  0
LWPOLYLINE
  5
17f
100
AcDbEntity
  8
Layer_1
 62
7
100
AcDbPolyline
 90
2
 70
0
 10
123.256560
 20
68.815373
 30
0.0
 10
123.256560
 20
68.814809
 30
0.0
  0
SPLINE
  5
180
100
AcDbEntity
  8
Layer_1
 62
7
100
AcDbSpline
 70
0
 71
3
 72
19
 73
15
 74
13
 40
0.000000
 40
0.000000
 40
0.000000
 40
0.000000
 40
0.502973
 40
1.117575
 40
1.863211
 40
3.064290
 40
4.500415
 40
6.192207
 40
20.957549
 40
41.845928
 40
58.284870
 40
60.521191
 40
62.524288
 40
64.346553
 40
64.346553
 40
64.346553
 40
64.346553
 10
154.439358
 20
30.352125
 30
0.0
 10
154.607017
 20
30.352196
 30
0.0
 10
154.979546
 20
30.352355
 30
0.0
 10
155.600572
 20
30.343977
 30
0.0
 10
156.454276
 20
30.333537
 30
0.0
 10
157.581689
 20
30.310676
 30
0.0
 10
159.023964
 20
30.265030
 30
0.0
 10
164.985223
 20
30.063322
 30
0.0
 10
177.389616
 20
28.910246
 30
0.0
 10
194.662295
 20
27.199807
 30
0.0
 10
207.784269
 20
25.805459
 30
0.0
 10
214.591677
 20
24.720463
 30
0.0
 10
216.577744
 20
24.346641
 30
0.0
 10
217.822977
 20
24.071939
 30
0.0
 10
218.416161
 20
23.941080
 30
0.0
 11
154.439358
 21
30.352125
 31
0.0
 11
154.942330
 21
30.351289
 31
0.0
 11
155.556897
 21
30.344683
 31
0.0
 11
156.302465
 21
30.334627
 31
0.0
 11
157.503295
 21
30.310193
 31
0.0
 11
158.938779
 21
30.267245
 31
0.0
 11
160.629507
 21
30.207289
 31
0.0
 11
175.352313
 21
29.087323
 31
0.0
 11
196.138691
 21
27.025557
 31
0.0
 11
212.459175
 21
25.055632
 31
0.0
 11
214.666613
 21
24.697373
 31
0.0
 11
216.634766
 21
24.324852
 31
0.0
 11
218.416161
 21
23.941080
 31
0.0
  0
LWPOLYLINE
  5
181
100
AcDbEntity
  8
Layer_1
 62
7
100
AcDbPolyline
 90
3
 70
0
 10
218.416161
 20
23.941080
 30
0.0
 10
218.913908
 20
17.232771
 30
0.0
 10
147.139065
 20
17.232771
 30
0.0
  0
LWPOLYLINE
  5
182
100
AcDbEntity
  8
Layer_1
 62
7
100
AcDbPolyline
 90
2
 70
0
 10
154.439358
 20
30.352266
 30
0.0
 10
154.439358
 20
30.352125
 30
0.0
  0
SPLINE
  5
183
100
AcDbEntity
  8
Layer_1
 62
7
100
AcDbSpline
 70
0
 71
3
 72
19
 73
15
 74
13
 40
0.000000
 40
0.000000
 40
0.000000
 40
0.000000
 40
1.135654
 40
2.440993
 40
4.080002
 40
7.823555
 40
10.395866
 40
11.887379
 40
12.515603
 40
12.872077
 40
13.710449
 40
14.728967
 40
15.479536
 40
16.514113
 40
16.514113
 40
16.514113
 40
16.514113
 10
147.139065
 20
17.232771
 30
0.0
 10
147.205565
 20
17.605510
 30
0.0
 10
147.348500
 20
18.406682
 30
0.0
 10
147.661056
 20
19.730604
 30
0.0
 10
148.197705
 20
21.895236
 30
0.0
 10
148.895803
 20
24.445800
 30
0.0
 10
149.615873
 20
26.967817
 30
0.0
 10
150.268955
 20
28.367635
 30
0.0
 10
150.574397
 20
29.166495
 30
0.0
 10
151.087372
 20
29.523278
 30
0.0
 10
151.805423
 20
29.713479
 30
0.0
 10
152.584643
 20
30.104488
 30
0.0
 10
153.495352
 20
30.349377
 30
0.0
 10
154.092995
 20
30.351206
 30
0.0
 10
154.439358
 20
30.352266
 30
0.0
 11
147.139065
 21
17.232771
 31
0.0
 11
147.348101
 21
18.349021
 31
0.0
 11
147.637598
 21
19.621853
 31
0.0
 11
148.032583
 21
21.212556
 31
0.0
 11
149.008511
 21
24.826661
 31
0.0
 11
149.792015
 21
27.276744
 31
0.0
 11
150.372493
 21
28.650664
 31
0.0
 11
150.671255
 21
29.203300
 31
0.0
 11
150.956353
 21
29.417294
 31
0.0
 11
151.737300
 21
29.722233
 31
0.0
 11
152.679955
 21
30.107954
 31
0.0
 11
153.406241
 21
30.297329
 31
0.0
 11
154.439358
 21
30.352266
 31
0.0
  0
LWPOLYLINE
  5
184
100
AcDbEntity
  8
Layer_1
 62
1
100
AcDbPolyline
 90
5
 70
0
 10
252.891970
 20
808.676987
 30
0.0
 10
352.225300
 20
808.676987
 30
0.0
 10
352.225300
 20
709.343655
 30
0.0
 10
252.891970
 20
709.343655
 30
0.0
 10
252.891970
 20
808.676987
 30
0.0
  0
ENDSEC
  0
SECTION
  2
OBJECTS
  0
DICTIONARY
  5
C
330
0
100
AcDbDictionary
  3
ACAD_GROUP
350
D
  3
ACAD_MLINESTYLE
350
17
  0
DICTIONARY
  5
D
330
C
100
AcDbDictionary
  0
DICTIONARY
  5
1A
330
C
100
AcDbDictionary
  0
DICTIONARY
  5
17
330
C
100
AcDbDictionary
  3
STANDARD
350
18
  0
DICTIONARY
  5
19
330
C
100
AcDbDictionary
  0
ENDSEC
  0
EOF
