<?xml version="1.0" encoding="UTF-8" standalone="no"?>
<!-- Created with Inkscape (http://www.inkscape.org/) -->

<svg
   xmlns:dc="http://purl.org/dc/elements/1.1/"
   xmlns:cc="http://creativecommons.org/ns#"
   xmlns:rdf="http://www.w3.org/1999/02/22-rdf-syntax-ns#"
   xmlns:svg="http://www.w3.org/2000/svg"
   xmlns="http://www.w3.org/2000/svg"
   xmlns:sodipodi="http://sodipodi.sourceforge.net/DTD/sodipodi-0.dtd"
   xmlns:inkscape="http://www.inkscape.org/namespaces/inkscape"
   width="8640"
   height="4320"
   viewBox="0 0 8639.9995 4319.9999"
   id="svg2"
   version="1.1"
   inkscape:version="0.48.2 r9819"
   sodipodi:docname="pylon_v2.svg">
  <defs
     id="defs4" />
  <sodipodi:namedview
     id="base"
     pagecolor="#ffffff"
     bordercolor="#666666"
     borderopacity="1.0"
     inkscape:pageopacity="0.0"
     inkscape:pageshadow="2"
     inkscape:zoom="0.084379851"
     inkscape:cx="-1162.0386"
     inkscape:cy="-1802.0085"
     inkscape:document-units="mm"
     inkscape:current-layer="layer1"
     showgrid="false"
     units="mm"
     showguides="true"
     inkscape:guide-bbox="true"
     inkscape:window-width="1680"
     inkscape:window-height="998"
     inkscape:window-x="-8"
     inkscape:window-y="-8"
     inkscape:window-maximized="1">
    <sodipodi:guide
       orientation="0,1"
       position="1831.0394,-167.60086"
       id="guide2992" />
  </sodipodi:namedview>
  <metadata
     id="metadata7">
    <rdf:RDF>
      <cc:Work
         rdf:about="">
        <dc:format>image/svg+xml</dc:format>
        <dc:type
           rdf:resource="http://purl.org/dc/dcmitype/StillImage" />
        <dc:title></dc:title>
      </cc:Work>
    </rdf:RDF>
  </metadata>
  <g
     inkscape:label="Layer 1"
     inkscape:groupmode="layer"
     id="layer1"
     transform="translate(0,3267.6378)">
    <path
       style="opacity:0.75;color:#000000;fill:#ff0000;fill-opacity:1;fill-rule:nonzero;stroke:none;visibility:visible;display:inline;overflow:visible;enable-background:accumulate"
       d="m 1808.9826,1051.8504 -1808.98275,0.5117 89.297795,-895.55905 208.015845,41.96231 0.1432,-0.71 3.61582,-17.9855 -69.46701,-14.01185 4.92901,-24.43187 c 1.92758,-9.55656 11.17212,-15.69542 20.72867,-13.76794 l 104.43346,21.06292 c 9.55644,1.92798 15.69928,11.17253 13.77181,20.72901 l -0.0234,0.1175 -5.03969,25.04889 -3.62344,17.9632 1293.52088,260.93503 0.1514,-0.74619 3.6139,-17.98568 -69.4653,-14.00945 4.9267,-24.43215 c 1.928,-9.55646 11.1718,-15.6974 20.7288,-13.76994 l 104.4334,21.06484 c 9.5568,1.92805 15.6994,11.17071 13.7719,20.7272 l -0.012,0.12038 -5.0397,25.0489 -3.6291,17.996 132.7842,26.78763 z m -41.382,-36.4238 -0.3941,-22.34353 -159.4336,2.21731 0.3942,22.34362 z m -7.4516,-89.04264 12.8343,-128.50523 c -21.6779,-12.86572 -40.4308,-22.26895 -55.0584,-27.62405 -16.5569,-6.06132 -27.9018,-6.22289 -30.8632,-5.2337 -1.4487,0.48382 -2.0085,0.75986 -2.3539,0.92885 -0.1199,0.45455 -0.3192,1.27558 -0.5038,2.99994 -1.2089,11.30965 3.8916,34.75598 40.2336,156.52521 z m 17.4198,-174.41742 8.4872,-84.97957 c -12.1693,3.89157 -22.5363,7.45803 -26.0588,9.21959 -6.9734,3.48736 -17.0074,10.26808 -24.7863,16.62098 -3.8892,3.17643 -7.2831,6.28873 -9.4545,8.58337 -0.9944,1.0511 -1.5649,2.13266 -1.8736,2.68451 -0.056,1.95757 1.1787,4.57269 7.2132,11.24323 7.7244,8.53861 23.1122,20.77494 46.4728,36.62789 z m -31.4989,-183.33285 -68.3367,-11.98537 c 10.8409,45.63638 18.6267,76.79492 23.8236,92.6799 1.7741,5.42316 3.2453,8.98332 4.4555,11.61552 1.4286,-0.77135 2.7438,-1.3806 4.1719,-2.30776 15.6423,-10.15544 20.4345,-15.50868 23.3173,-22.01831 3.3282,-7.51604 7.5147,-27.44371 12.5684,-67.98398 z m -63.0644,355.78497 c -3.0742,-9.43019 -6.3602,-19.87204 -9.0084,-27.44713 -4.7082,-13.46797 -9.2138,-24.30741 -9.96,-25.66177 -1.0219,-1.85555 -1.896,-2.99785 -2.5939,-3.86089 -3.0763,2.29183 -11.6775,10.06102 -22.2037,24.95798 -4.0659,5.75433 -11.6436,17.24614 -20.1973,30.38149 z m 18.1404,-261.01276 c -0.5517,0.0979 -0.6203,0.23826 -0.5275,0.21035 0.046,-0.0136 0.4022,-0.16557 0.5275,-0.21035 z m -38.2922,31.06316 1e-4,-0.002 c 1.6406,-20.38568 -5.3107,-65.85838 -23.8092,-143.90079 -0.061,-0.25541 -0.1158,-0.48048 -0.1759,-0.73401 l -90.9261,-15.94521 c -19.4956,22.82532 -20.8792,29.70666 -23.9942,62.18698 l 0,0 c -2.9283,30.5482 -4.8553,86.22237 -3.9262,101.10055 0.6565,10.51279 3.9304,17.08161 4.8307,18.57006 1.0785,0.42728 3.9055,1.98531 6.9852,2.71738 4.9564,1.17822 11.107,1.79803 14.0403,1.63194 3.4386,-0.19444 26.8764,-1.43688 52.6433,-2.78998 25.0497,-1.31557 40.5415,-2.82323 49.2304,-4.79923 8.6888,-1.97608 9.4591,-2.89294 12.0102,-5.97076 0.6349,-0.76598 2.4511,-4.08723 3.0933,-12.0648 z m -18.3078,105.16801 c 0.6111,-5.32403 0.077,-10.34412 -1.5094,-18.39538 -2.0989,-10.64801 -4.2217,-15.46589 -4.45,-16.17268 -0.3344,-0.0953 -2.0193,-0.62502 -8.3611,-1.24334 -8.2263,-0.80148 -71.6944,1.89487 -85.8483,4.23747 -10.9975,1.82019 -17.0336,4.66264 -21.6897,8.98663 -4.6563,4.32386 -8.7458,11.1949 -12.4674,23.40027 -1.8573,6.09107 -5.2031,28.17146 -7.4556,53.5044 -1.8177,20.44217 -3.1051,43.54296 -3.9306,65.76895 l 77.5684,1.97631 c 4.4698,-6.9518 8.9239,-13.88046 13.9117,-21.74661 40.5961,-64.0215 52.6691,-86.7106 54.232,-100.31602 z m -184.7559,119.09187 2e-4,-0.002 c 0.534,-13.0245 1.066,-25.80227 1.6012,-41.75657 1.4009,-41.78473 1.1182,-67.69696 -1.1883,-82.67383 -2.3065,-14.97695 -4.3718,-17.17119 -10.0694,-21.14639 1.1655,0.81315 -1.3351,-0.675 -4.7463,-1.86568 -3.4112,-1.1908 -8.1083,-2.58925 -13.5326,-4.00142 -10.8485,-2.82447 -24.6653,-5.73554 -38.4205,-7.94346 -10.5524,-1.69388 -16.2216,-2.38231 -18.515,-2.40073 -2.2936,-0.0184 -1.4443,-0.1593 -4.8627,1.20631 -6.1379,2.45157 -5.194,0.57659 -8.1685,10.05441 -2.9744,9.47783 -5.8133,29.41386 -9.2768,64.09263 -2.6057,26.0895 -4.9107,55.73946 -6.7707,83.53362 z m 17.208,-244.32557 2e-4,-0.002 c 2.8747,-30.47608 4.3356,-71.91991 2.9366,-85.19828 -1.6232,-15.40759 -3.0572,-20.30538 -12.9896,-29.15005 -9.9326,-8.84467 -30.5864,-20.27131 -67.4195,-37.73654 -26.7173,-12.66867 -44.3624,-20.44211 -55.6365,-24.21542 l -15.695,-2.7511 c -0.4064,0.19537 -0.8706,0.59536 -1.9438,1.49979 -2.0581,1.73436 -4.1108,4.14528 -7.7291,14.16528 -3.6185,10.02001 -8.0739,26.62871 -14.2779,52.78968 -8.701,36.69093 -13.3993,58.52444 -14.9883,71.47956 -1.589,12.95512 -0.8419,14.93156 1.3343,19.38285 -0.8199,-1.67738 5.9892,7.45597 14.2821,14.97001 8.2932,7.51417 18.6803,15.76224 27.5775,21.66233 15.8726,10.52541 26.4778,14.3264 63.1418,22.02073 17.2867,3.6278 32.3997,6.07284 44.0288,7.24935 11.629,1.17651 20.582,0.47557 21.2112,0.30675 3.7263,-0.99974 8.6286,-5.10026 11.2437,-12.74061 0.4856,-1.41856 2.8473,-13.81301 4.3287,-27.79531 0.204,-1.92262 0.403,-3.90536 0.5929,-5.93726 z m -168.8792,240.458 c 1.5266,-19.36444 3.068,-39.272 4.0174,-56.22085 1.4775,-26.37876 2.0959,-46.917 1.7317,-61.26401 -2.1285,3.38544 -4.3653,7.0351 -6.8588,11.36683 -11.5289,20.02652 -26.8175,49.92163 -46.3141,89.52803 -2.9514,5.99557 -4.734,9.9823 -7.247,15.19486 z m -9.937,-183.31298 c 0.2815,-2.81756 0.3205,-4.27122 0.3436,-4.91399 -0.369,-0.52788 -1.201,-1.74577 -3.0142,-4.0167 -2.5621,-3.20861 -10.9075,-11.25 -19.0974,-17.97319 -8.1905,-6.72375 -17.7923,-13.05271 -19.2284,-13.71318 l 0,0 c -0.04,-0.0184 -7.2311,-1.71852 -10.0226,-1.68799 l 0,0 c -1.3326,0.0142 -20.3193,3.0891 -37.7831,7.33417 -17.4637,4.24498 -36.3319,9.69851 -44.7196,12.99316 -11.8701,4.66223 -14.5091,6.58231 -16.8116,10.84781 -2.3026,4.26558 -4.5171,15.11359 -5.8571,36.02204 -1.6948,26.44476 -0.5893,117.27037 1.6888,154.23014 l 69.4511,1.77019 c 10.2975,-19.02081 23.3122,-44.24822 42.0079,-81.45313 33.2491,-66.16667 41.9703,-88.66293 43.0465,-99.43892 z M 1277.0629,486.38243 1156.275,465.20147 c -40.1487,23.34108 -63.1149,37.60503 -76.6295,48.44472 -14.1195,11.32507 -18.9733,18.65111 -27.8207,34.09342 -8.1784,14.27489 -15.5621,28.60534 -21.0681,40.61121 -5.506,12.00585 -9.1102,22.51328 -9.6242,25.29767 -0.6395,3.46665 -0.4368,4.73542 -0.3744,4.96785 0.062,0.23243 -0.086,0.52366 2.0999,2.52 4.3711,3.99247 17.8092,11.73027 42.0998,23.28155 25.5192,12.13556 40.5613,18.43577 51.1039,20.89699 10.5426,2.4611 17.2333,1.97806 31.0312,-0.67535 21.6429,-4.16203 64.1793,-16.26695 74.754,-20.70473 11.7863,-4.94647 13.5291,-5.16768 19.711,-18.82966 6.1819,-13.66207 13.4911,-40.87369 25.3892,-90.52065 4.9393,-20.60926 8.0058,-35.22079 10.1158,-48.20206 z M 1101.935,909.60664 c 0.1645,-16.50346 0.094,-36.64583 -0.3459,-65.74863 -0.9186,-60.63565 -2.3911,-94.20305 -6.3313,-112.05107 -3.9403,-17.84804 -6.8661,-19.58567 -20.1893,-28.14772 -7.4215,-4.76916 -21.7055,-12.17307 -35.0395,-18.25029 -13.3341,-6.07732 -27.6951,-11.14768 -29.5291,-11.49735 -7.2713,-1.38671 -5.6026,-2.00407 -9.0454,2.10955 -3.44276,4.11372 -9.29746,16.65017 -15.84516,38.41429 -2.2313,7.41668 -10.95166,42.51068 -19.98512,80.53367 -9.03363,38.02287 -18.75238,80.16581 -24.16029,105.37648 -0.34,1.58474 -0.58227,3.48954 -0.90652,5.14632 z m -76.9508,-418.36295 c 0.1809,-2.12334 0.2862,-4.26667 0.3198,-6.4847 0.097,-6.41855 -0.9584,-23.67116 -2.4655,-42.95964 l -71.5912,-12.55381 c -10.4589,23.83419 -21.3287,49.1248 -30.47521,71.18512 -10.5992,25.5639 -19.07132,47.52485 -20.88456,53.71188 -2.39755,8.18064 -3.44297,14.03838 -3.43623,17.14966 0.006,3.11117 0.12845,3.13632 1.36312,4.58982 2.46915,2.90687 15.77956,10.10327 42.94213,18.91589 21.04638,6.82838 27.36952,7.50911 31.42089,6.842 1.03454,-0.17033 2.42409,-0.15391 7.95501,-7.72031 5.53099,-7.5665 13.36159,-21.60143 24.17655,-43.5944 14.3595,-29.20041 19.4095,-44.23473 20.6752,-59.08153 z m -74.5453,181.60008 c 1.03761,-10.7112 0.39117,-15.43802 -0.70079,-18.96429 -1.82032,-5.87943 -0.32418,-4.66539 -7.27986,-8.59218 -6.95579,-3.92681 -22.422,-9.7908 -50.11517,-19.12393 -27.43512,-9.24605 -37.08112,-11.67682 -53.00171,-13.52958 -7.84658,-0.9133 -10.4521,-1.01464 -12.42279,-1.12097 -0.53359,1.65677 -1.25743,4.38822 -1.99012,9.23266 -1.51836,10.04182 -2.8564,26.96908 -4.35178,53.69465 -2.84919,50.92768 -2.60925,72.52307 -0.84497,81.72686 3.49538,18.23756 14.15617,37.5914 52.35899,89.12509 14.11724,19.04355 23.70166,30.4607 28.89437,35.44149 1.55143,-2.87617 3.65642,-7.48465 6.62849,-17.09776 4.75602,-15.38311 11.0258,-40.39074 20.24464,-79.86982 14.13813,-60.546 20.85079,-93.06908 22.58053,-110.92227 z m -83.8423,230.7633 c -6.7935,-9.80208 -15.38398,-21.58168 -26.16896,-36.13895 -16.14293,-21.78914 -26.18015,-34.73716 -32.55302,-41.71112 -4.96103,-5.429 -6.64541,-6.68849 -8.11594,-7.25655 -1.00944,0.77935 -3.49575,2.99405 -7.21495,8.09257 -8.42709,11.55241 -21.65347,35.15086 -41.8561,74.05855 z m 47.79605,-480.82369 0,0 -109.32524,-19.17251 c -1.06001,21.97193 -1.69685,45.73817 -1.2852,68.66338 0.51559,28.71579 3.00886,50.50171 6.9856,65.17113 3.97675,14.66944 9.10664,21.1314 12.94658,23.4496 l 0,0 c 3.58401,2.16379 21.28306,5.53743 22.65082,5.44792 0.09,-0.10719 0.15455,-0.18084 0.81807,-0.86046 1.74886,-1.79116 5.07681,-6.27989 9.41047,-14.05822 8.66714,-15.55687 21.54579,-43.84222 41.87758,-90.93881 5.58076,-12.92757 10.71292,-25.27261 15.91944,-37.70221 z M 776.39351,728.95586 c 1.37672,-14.31796 2.50296,-32.16618 3.06498,-47.98374 0.562,-15.81633 0.38746,-30.42121 -0.15715,-35.021 -2.12717,-17.95689 -6.55264,-26.38972 -12.36267,-30.90699 -5.81004,-4.51727 -16.44196,-7.30472 -35.9626,-5.86274 -19.19158,1.41767 -75.03532,11.74971 -101.08177,18.99779 -9.2685,2.57908 -14.95888,5.31909 -17.78554,7.45104 -2.82675,2.13192 -3.41144,3.09962 -4.22716,6.22202 0.0469,-0.17933 -0.71734,4.91429 -0.95812,10.96884 -0.24079,6.05445 -0.28041,13.73348 -0.11505,21.94487 0.33064,16.42296 1.50117,35.15681 3.20857,48.07836 2.68124,20.2903 13.24543,71.30694 26.9472,128.79409 4.48685,18.8255 9.0357,34.2438 13.55156,46.45956 l 53.7001,1.36886 c 7.62612,-11.97592 16.25405,-26.92477 26.8655,-47.3065 30.6114,-58.79551 36.54309,-72.9947 42.44787,-101.40464 0.84941,-4.08721 1.9473,-12.25659 2.86424,-21.79982 z M 759.38961,504.2984 c 0.97728,-9.88581 1.75169,-21.65759 2.315,-35.44345 1.19006,-29.12521 1.83785,-52.3754 2.16982,-72.46929 L 659.81138,378.13719 c -29.31616,47.72755 -65.95323,113.87395 -77.82307,141.95897 -5.88153,13.91658 -9.77669,26.44601 -11.55409,35.93393 -1.77733,9.48805 -0.45944,16.02507 -0.71498,15.47235 0.50834,1.09965 9.90467,9.07501 20.54084,10.73314 7.33171,1.14288 13.68129,0.7681 36.95088,-3.30514 23.51089,-4.11557 47.07606,-8.79678 66.25265,-13.05862 19.17646,-4.26175 34.89967,-8.56823 38.85629,-10.12022 10.41412,-4.08497 19.17912,-13.28822 20.79044,-17.58928 2.27011,-6.0593 4.64529,-17.38774 6.27927,-33.86392 z M 606.22483,896.97201 c -2.08525,-10.00053 -3.84018,-18.89755 -6.69965,-31.57799 -14.63784,-64.91003 -19.71319,-81.63954 -24.369,-89.81169 -1.1169,-1.9604 -1.95423,-3.00299 -2.64531,-3.8778 -6.15251,3.03933 -23.49603,17.44648 -51.51111,44.71353 -33.7032,32.80309 -44.96414,45.48966 -52.35549,57.57022 -4.33545,7.08592 -4.42086,8.36356 -5.45648,19.33667 z m 15.023,-525.59917 -92.33425,-16.19185 c 3.6545,35.99106 10.19227,84.0554 16.59733,117.31418 1.26337,6.56055 2.79719,11.56639 4.16632,15.5928 3.72788,-4.91064 10.43268,-14.267 19.48214,-28.62354 11.52835,-18.28926 26.16983,-42.75096 42.62958,-71.34717 4.00876,-6.96438 6.26377,-11.10241 9.45888,-16.74442 z M 562.0582,703.55299 c 0.24613,-2.28334 0.50919,-5.2291 0.8856,-9.21935 1.0195,-10.82175 1.23351,-26.46221 0.72123,-40.10145 -0.51229,-13.63924 -2.93922,-27.69415 -2.6314,-26.8338 -0.89421,-2.49873 -4.52506,-7.00499 -20.30798,-14.28422 -10.83348,-4.99637 -6.31462,-4.12696 -20.06695,-3.35264 -5.62522,0.31684 -37.94157,4.75295 -69.21932,9.7258 -31.27763,4.97287 -64.1471,10.72612 -74.91244,13.23207 -16.07134,3.74116 -26.9648,7.53304 -33.79113,11.28953 -6.82621,3.7565 -9.70503,6.86358 -12.35143,11.82323 -0.0705,0.13096 -4.02589,11.89048 -5.70993,22.01223 -3.38054,20.31512 -2.70824,27.11665 5.21848,51.14486 2.59167,7.85946 3.38686,10.12093 9.62906,18.04822 6.24228,7.92729 18.01866,20.53772 39.83213,43.33317 30.16488,31.52232 45.08992,43.13073 48.44929,44.50982 2.03274,0.83445 2.84391,1.39432 3.14077,1.74656 0.33531,-0.31335 1.20336,-0.76981 3.30136,-1.3544 4.9753,-1.38642 21.31749,-12.53141 56.52242,-46.85698 42.63762,-41.57229 61.85662,-63.2666 66.92068,-71.92622 3.04231,-5.20281 3.63164,-6.08636 4.36975,-12.93641 z m -56.61439,-176.30771 2.1e-4,-0.002 0,0 c 0.22003,-2.10244 0.45608,-4.46588 0.70181,-7.12764 2.36082,-25.06678 0.60844,-46.57321 -10.84258,-126.01778 -2.71261,-18.81994 -5.04081,-33.42686 -7.25909,-46.08235 L 373.19594,327.8753 c -5.30088,42.63988 -10.89065,114.51686 -13.3603,182.64869 -1.37772,38.00483 1.52855,59.54376 5.24448,66.11609 1.85803,3.28611 2.62226,3.86504 6.36336,4.97342 3.74107,1.10827 10.82393,1.60237 20.97112,0.72636 24.76017,-2.13722 65.03207,-9.69149 78.02332,-14.01664 15.27251,-5.08458 25.36362,-13.10902 30.18766,-21.35373 3.56507,-6.09315 3.28722,-5.00846 4.81993,-19.7241 z m -93.97483,364.76146 c -3.09415,-7.02315 -6.26794,-12.49451 -10.00575,-17.55785 -5.87185,-7.9544 -22.30055,-26.38719 -38.02859,-42.78009 -7.86397,-8.1964 -15.65789,-16.04481 -22.09127,-22.2136 -6.22725,-5.97102 -11.75565,-10.58226 -12.61568,-11.21748 -1.46178,3.88759 -3.37477,10.89129 -5.59473,22.01784 -2.34234,11.73964 -6.51723,40.28684 -10.45166,69.23376 z m -34.40895,123.54356 -0.3942,-20.34349 -159.43342,2.21733 0.39421,20.34356 z m -58.06102,-534.01517 1.8e-4,-0.002 c 6.83638,-68.44997 9.88228,-127.81256 8.98749,-161.58447 L 206.25191,298.59853 c -2.65836,27.29141 -3.52458,75.53299 -2.16218,150.55386 0.77663,42.76751 2.64734,66.22061 7.15591,78.97319 4.50848,12.75258 10.55512,17.87203 28.46948,29.39669 24.54529,15.79037 42.92536,23.18538 50.00205,23.89215 2.62703,0.26238 3.82234,0.24046 4.22393,0.23735 0.27551,-0.18172 0.85721,-0.57726 2.03026,-1.48135 4.68669,-3.61221 8.01776,-8.02153 11.95398,-22.81952 3.93619,-14.79797 7.37839,-38.76614 11.07366,-75.81583 z m -34.11151,303.4972 2e-4,-0.002 c 3.06821,-30.72067 3.18221,-31.96278 0.51701,-46.1144 -0.34478,-1.82763 -0.83875,-3.37906 -1.27839,-5.16238 -10.01614,6.55415 -29.43544,22.03178 -72.99393,59.76244 -28.63056,24.80007 -46.80279,41.70468 -58.11561,54.49624 -11.31291,12.79155 -15.6637,20.77442 -18.73574,30.52549 -0.67437,2.14038 -1.01381,4.22066 -1.13536,6.37576 l 138.83185,3.53723 c 5.53884,-41.26724 10.91717,-83.46409 12.90999,-103.41843 z m 0.99621,-143.027 c 0.023,-0.33146 0.0214,-0.597 -0.0228,-0.83256 l 0,0 c -0.17613,-0.94228 -0.98317,-1.3857 -3.10599,-3.47038 -4.24545,-4.16955 -16.77956,-12.17151 -39.24634,-25.32056 -42.18004,-24.68594 -59.52286,-31.84251 -67.45978,-32.63522 -1.77697,-0.17745 -13.91138,0.39859 -24.52529,1.92181 -10.61383,1.52326 -22.49591,4.58895 -22.99973,4.80645 -1.92921,0.83281 -2.64119,1.02962 -5.28057,6.09721 -2.63949,5.06759 -5.94199,14.66367 -9.72122,29.5513 -2.87588,11.32857 -10.942,50.8386 -18.154675,88.34407 l -11.46843,114.8291 c 1.87727,2.77652 4.44422,5.81435 9.17608,9.98675 1.2857,1.13369 1.59981,1.34822 1.98655,1.64893 0.93597,-0.31463 2.5515,-0.87232 5.170665,-2.14714 0.33962,-0.16537 5.72056,-3.5062 12.52175,-8.59698 6.80118,-5.0908 15.74012,-12.14435 26.46347,-20.89538 21.44644,-17.50221 50.06848,-41.81352 83.99733,-71.41412 28.68385,-25.02469 43.58368,-38.77771 50.59916,-48.02369 7.01549,-9.24596 7.88611,-13.94622 10.19235,-29.3943 0.52545,-3.51931 0.93768,-6.46449 1.1738,-8.82352 0.30563,-3.06017 0.63318,-4.63736 0.70564,-5.63158 z M 161.25373,518.51811 c 0.16971,-1.59845 0.3453,-3.68872 0.59438,-6.57503 0.33221,-3.84956 0.67161,-8.84176 1.07472,-15.30099 1.80722,-28.95222 1.93141,-146.70262 0.0874,-184.55336 -0.40885,-8.38976 -1.06319,-15.24537 -1.832,-21.39541 l -23.47664,-4.11716 -25.27426,253.06133 c 3.91153,-0.24016 7.82746,-0.77596 14.34642,-1.74894 15.27408,-2.27973 23.83135,-4.25914 27.049,-5.63077 3.21773,-1.3716 2.09624,-0.38209 4.25868,-4.43465 2.2103,-4.14224 2.66415,-4.50957 3.17284,-9.30497 z"
       id="rect3526"
       inkscape:connector-curvature="0"
       sodipodi:nodetypes="ccccccccssccccccccccscccccccccccccscccccccssccscccscssccsccsccccccccccccscscscccccccsccsccscccsscccsscsscccsssscccssscscsssccccscccccscssccccsccsccssccssscscssscssccsscscsssccccccsssscscsscccssscsscscssccsscssccccsscccccsccscsscscssssccscccsccscscssscccsccssccccccsccccscccccscccsscccscsccccsccccccsscccsscscccsccccscscssscsscssccsssccsccccsssccsccsccssssccscccccccscsccccccccscsccc" />
    <path
       style="color:#000000;fill:#ff0000;fill-opacity:1;fill-rule:nonzero;stroke:#ff0000;stroke-width:2.36224961;stroke-linecap:butt;stroke-linejoin:round;stroke-miterlimit:4;stroke-dashoffset:0;stroke-opacity:1;marker:none;visibility:visible;display:inline;overflow:visible;enable-background:accumulate"
       d="m 896.07391,-1813.0287 351.96849,0 0,351.9685 -351.96849,0 z"
       id="rect2987" />
  </g>
</svg>
