<?xml version="1.0" encoding="UTF-8" standalone="no"?>
<!-- Created with Inkscape (http://www.inkscape.org/) -->

<svg
   xmlns:dc="http://purl.org/dc/elements/1.1/"
   xmlns:cc="http://creativecommons.org/ns#"
   xmlns:rdf="http://www.w3.org/1999/02/22-rdf-syntax-ns#"
   xmlns:svg="http://www.w3.org/2000/svg"
   xmlns="http://www.w3.org/2000/svg"
   xmlns:sodipodi="http://sodipodi.sourceforge.net/DTD/sodipodi-0.dtd"
   xmlns:inkscape="http://www.inkscape.org/namespaces/inkscape"
   width="96in"
   height="48in"
   viewBox="0 0 8639.9995 4319.9999"
   id="svg2"
   version="1.1"
   inkscape:version="0.91pre4 r13712"
   sodipodi:docname="pylon.svg">
  <defs
     id="defs4" />
  <sodipodi:namedview
     id="base"
     pagecolor="#ffffff"
     bordercolor="#666666"
     borderopacity="1.0"
     inkscape:pageopacity="0.0"
     inkscape:pageshadow="2"
     inkscape:zoom="0.11933113"
     inkscape:cx="-928.79852"
     inkscape:cy="2298.3582"
     inkscape:document-units="in"
     inkscape:current-layer="layer1"
     showgrid="false"
     units="ft"
     showguides="true"
     inkscape:guide-bbox="true"
     inkscape:window-width="1920"
     inkscape:window-height="1017"
     inkscape:window-x="-8"
     inkscape:window-y="-8"
     inkscape:window-maximized="1" />
  <metadata
     id="metadata7">
    <rdf:RDF>
      <cc:Work
         rdf:about="">
        <dc:format>image/svg+xml</dc:format>
        <dc:type
           rdf:resource="http://purl.org/dc/dcmitype/StillImage" />
        <dc:title></dc:title>
      </cc:Work>
    </rdf:RDF>
  </metadata>
  <g
     inkscape:label="Layer 1"
     inkscape:groupmode="layer"
     id="layer1"
     transform="translate(0,3267.6378)">
    <path
       style="color:#000000;clip-rule:nonzero;display:inline;overflow:visible;visibility:visible;opacity:0.75;isolation:auto;mix-blend-mode:normal;color-interpolation:sRGB;color-interpolation-filters:linearRGB;solid-color:#000000;solid-opacity:1;fill:#ff0000;fill-opacity:1;fill-rule:nonzero;stroke:none;stroke-width:1;stroke-linecap:butt;stroke-linejoin:miter;stroke-miterlimit:4;stroke-dasharray:none;stroke-dashoffset:0;stroke-opacity:1;color-rendering:auto;image-rendering:auto;shape-rendering:auto;text-rendering:auto;enable-background:accumulate"
       d="M 180.28516,2519.8789 0,4319.8555 900,4320 l -21.08203,-211.1562 0.7207,-0.072 28.20508,-2.8164 7.03906,70.5156 24.80078,-2.4766 c 9.7007,-0.9683 16.72797,-9.557 15.75977,-19.2578 l -10.58008,-106.0097 c -0.9682,-9.7008 -9.55711,-16.7319 -19.25781,-15.7637 l -0.11914,0.012 -35.375,3.5313 -18.23438,1.8203 -131.09375,-1313.0489 0.75782,-0.074 28.20507,-2.8144 7.03711,70.5136 24.80078,-2.4746 c 9.7007,-0.9683 16.72992,-9.5566 15.76172,-19.2578 l -10.58203,-106.0097 c -0.9683,-9.7012 -9.55516,-16.7318 -19.25586,-15.7637 l -0.12109,0 -35.375,3.5312 -18.26758,1.8223 -13.45898,-134.7891 z m 32.13086,44.7969 28.16406,3.209 -18.05078,158.4238 -28.16407,-3.209 z m 87.86132,16.2637 129.14454,0 c 10.64769,22.8492 18.14072,42.4437 22.01562,57.5312 4.3859,17.0772 3.41922,28.3821 2.14062,31.2305 -0.6254,1.3934 -0.9557,1.9231 -1.1582,2.25 -0.4642,0.074 -1.30095,0.191 -3.03515,0.2031 -11.3738,0.079 -34.19716,-7.3263 -151.75196,-55.5898 z m 175.28516,0 85.40234,0 c -5.0817,11.7223 -9.66077,21.6836 -11.76367,25.0136 -4.1631,6.5923 -11.90745,15.9028 -19.00195,23.0117 -3.5472,3.5544 -6.98137,6.6222 -9.48047,8.5547 -1.1447,0.8851 -2.27762,1.3453 -2.85742,1.5977 -1.9534,-0.1393 -4.4329,-1.6274 -10.47071,-8.2949 -7.72869,-8.5348 -18.37522,-25.0624 -31.82812,-49.8828 z m 179.29492,49.5625 5.13477,69.1894 c -44.3331,-15.3225 -74.56362,-26.1663 -89.85352,-32.916 -5.22,-2.3043 -8.61633,-4.122 -11.11523,-5.5879 0.9095,-1.3448 1.64644,-2.593 2.71094,-3.9219 11.65969,-14.5555 17.46266,-18.7921 24.22656,-21.0136 7.8096,-2.5649 28.05468,-4.7502 68.89648,-5.75 z m -360.29101,27.3945 c 9.078,3.9961 19.14161,8.3035 26.41601,11.6914 12.9334,6.0234 23.27142,11.5839 24.54492,12.4609 1.7448,1.2013 2.79459,2.1846 3.58399,2.9649 -2.5862,2.8332 -11.17172,10.6198 -27.04102,19.6133 -6.1299,3.4739 -18.31788,9.8721 -32.23828,17.0781 z m 261.52343,7.8887 c -0.1522,0.5392 -0.29872,0.5936 -0.26172,0.5039 0.018,-0.044 0.20472,-0.3837 0.26172,-0.5039 z m -34.71484,35.0156 0.002,0 c 20.4478,0.3934 65.00457,11.8295 140.82227,37.9922 0.2481,0.086 0.46659,0.1629 0.71289,0.248 l 6.83008,92.0606 c -24.6498,17.1307 -31.63457,17.8235 -64.26367,17.6953 l 0,0 c -30.688,-0.1221 -86.27804,-3.7375 -100.99024,-6.1406 -10.3955,-1.698 -16.60645,-5.6085 -17.99805,-6.6523 -0.318,-1.1156 -1.58736,-4.0834 -2.00976,-7.2207 -0.6798,-5.049 -0.68532,-11.2307 -0.22852,-14.1329 0.5352,-3.4023 4.10072,-26.6006 8.00782,-52.1054 3.7985,-24.795 6.83826,-40.0603 9.66796,-48.5098 2.8298,-8.4494 3.81867,-9.1248 7.13477,-11.3574 0.8253,-0.5556 4.3106,-2.0328 12.3125,-1.8789 z m -106.4668,7.7656 c 5.3584,-0.079 10.3006,0.9508 18.1543,3.3301 10.3867,3.1467 14.96979,5.7376 15.65039,6.0351 0.0616,0.3422 0.42125,2.0714 0.40625,8.4434 -0.02,8.2651 -9.01045,71.1511 -12.74805,85.002 -2.9041,10.7622 -6.33235,16.486 -11.09765,20.6894 -4.7652,4.2035 -12.00864,7.5899 -24.52344,10.0801 -6.2455,1.2428 -28.54907,2.3776 -53.98047,2.1015 -20.5216,-0.2229 -43.63598,-1.2376 -65.83398,-2.625 l 5.74218,-77.3808 c 7.3616,-3.7568 14.69859,-7.5002 23.02149,-11.6817 67.739,-34.0327 91.51558,-43.791 105.20898,-43.9941 z m -136.86328,172.0059 0.002,0 c 13.0131,0.7631 25.78048,1.5035 41.70898,2.5566 41.7171,2.7585 67.47298,5.6149 82.14648,9.3984 14.6736,3.7835 16.65172,6.0566 20.04102,12.1211 -0.6933,-1.2406 0.53897,1.3955 1.38476,4.9082 0.8459,3.5126 1.77062,8.3255 2.63672,13.8633 1.7324,11.0755 3.25594,25.1132 4.08594,39.0196 0.6368,10.6686 0.75843,16.3781 0.54883,18.6621 -0.2096,2.284 0.015,1.453 -1.68359,4.7187 -3.0494,5.8639 -1.08991,5.1111 -10.81641,7.1289 -9.7265,2.0177 -29.84597,2.8613 -64.69727,2.8613 -26.2193,0 -55.95156,-0.6529 -83.79296,-1.5644 z m 244.82617,7.1582 0.002,0 c 30.6109,0.1682 71.99476,2.8332 85.06836,5.5449 15.17,3.1464 19.90104,5.06 27.71484,15.8223 7.8138,10.7623 17.13131,32.4494 30.84961,70.8359 9.9508,27.8441 15.93221,46.1743 18.56641,57.7676 l 1.17773,15.8906 c -0.2348,0.3851 -0.67895,0.8072 -1.68555,1.7852 -1.9303,1.8756 -4.53328,3.6785 -14.86328,6.2832 -10.33,2.6047 -27.29926,5.3876 -53.94726,8.9609 -37.374,5.0116 -59.56634,7.5168 -72.61524,7.8105 -13.0489,0.2936 -14.9413,-0.6462 -19.15429,-3.2539 1.5876,0.9826 -6.82387,-6.7005 -13.47657,-15.6992 -6.6528,-8.9988 -13.82775,-20.1542 -18.81445,-29.5937 -8.8959,-16.84 -11.62412,-27.7705 -15.63672,-65.0176 -1.8919,-17.5617 -2.82289,-32.8429 -2.83789,-44.5313 -0.015,-11.6884 1.57223,-20.5274 1.80273,-21.1367 1.3651,-3.6084 5.93253,-8.079 13.79493,-9.9219 1.4598,-0.3422 14.02759,-1.4604 28.08789,-1.5449 1.9334,-0.012 3.92609,-0.013 5.96679,-0 z M 266.82031,3031.877 c 19.4203,0.4054 39.3825,0.8501 56.3418,1.5898 26.395,1.1512 46.89301,2.5771 61.13281,4.3652 -3.5802,1.7815 -7.43409,3.6445 -11.99219,5.6953 -21.0731,9.4816 -52.3396,21.7236 -93.6875,37.1875 -6.2592,2.341 -10.40334,3.7185 -15.83984,5.7012 z m 181.41797,28.1054 c 2.8316,0 4.28193,0.1056 4.92383,0.1465 0.4886,0.4197 1.61777,1.3685 3.69727,3.3984 2.9381,2.8683 10.11032,11.9716 15.98632,20.7891 5.8765,8.8182 11.21988,19.0014 11.73438,20.4961 l 0,0 c 0.014,0.042 0.99139,7.366 0.68359,10.1406 l 0,0 c -0.1469,1.3245 -5.09313,19.9117 -11.05273,36.8672 -5.9595,16.9554 -13.26115,35.1882 -17.37305,43.207 -5.8188,11.348 -7.99164,13.7831 -12.46484,15.6504 -4.4733,1.8672 -15.48768,2.9926 -36.42578,2.2481 -26.4823,-0.9416 -116.74843,-11.0677 -153.29883,-17.0078 l 5.14062,-69.2832 c 19.95,-8.3562 46.34591,-18.7994 85.22461,-33.7051 69.1434,-26.5089 92.39501,-32.9512 103.22461,-32.9512 z m 241.85352,45.3789 9.07226,122.2949 c -27.2155,37.6304 -43.69121,59.0653 -55.82031,71.4356 -12.6722,12.9242 -20.44435,17.0259 -36.68945,24.2949 -15.017,6.7193 -30.01031,12.6422 -42.50391,16.9278 -12.4936,4.2856 -23.30721,6.8278 -26.12891,7.0625 -3.513,0.2921 -4.75536,-0.036 -4.98046,-0.1211 -0.2251,-0.085 -0.52963,0.033 -2.29883,-2.3399 -3.5383,-4.7464 -9.90232,-18.8868 -18.98242,-44.2051 -9.5394,-26.5989 -14.31355,-42.1926 -15.71485,-52.9277 -1.4012,-10.735 -0.25564,-17.3446 3.75586,-30.8105 6.2923,-21.1221 22.56455,-62.245 28.03125,-72.3262 6.0933,-11.2364 6.48661,-12.9486 20.69531,-17.7422 14.2088,-4.7935 42.01211,-9.3623 92.59571,-16.2676 20.9981,-2.8667 35.84205,-4.4659 48.96875,-5.2754 z m -438.53321,132.2012 c 16.4381,1.4762 36.47378,3.548 65.38868,6.8789 60.2442,6.94 93.49908,11.7411 110.86718,17.4356 17.3681,5.6945 18.80636,8.7785 26.00196,22.8867 4.008,7.8587 9.95573,22.8077 14.67773,36.6797 4.7221,13.872 8.34016,28.6658 8.50586,30.5254 0.6572,7.3732 1.43735,5.7741 -2.99805,8.791 -4.4355,3.0169 -17.49173,7.5968 -39.79883,11.9492 -7.6017,1.4832 -43.38859,6.6727 -82.12109,11.8828 -38.7324,5.2102 -81.63256,10.6927 -107.25586,13.5684 -1.6107,0.1808 -3.53014,0.2326 -5.21094,0.3906 z m 408.64453,118.1465 c 2.1308,0.031 4.27398,0.1392 6.48438,0.3262 6.3964,0.5414 23.45875,3.306 42.50195,6.7226 l 5.37696,72.4844 c -24.7556,8.0385 -51.00123,16.3411 -73.86133,23.25 -26.4907,8.0062 -49.18489,14.2539 -55.52149,15.4433 -8.3784,1.5727 -14.31105,2.0308 -17.40625,1.7149 -3.0951,-0.3159 -3.10804,-0.4395 -4.43164,-1.8125 -2.6471,-2.7458 -8.48508,-16.7055 -14.55468,-44.6094 -4.703,-21.6208 -4.75195,-27.9803 -3.68555,-31.9453 0.2723,-1.0125 0.39405,-2.3968 8.47265,-7.1484 8.07871,-4.7516 22.82236,-11.1487 45.78126,-19.7246 30.48289,-11.3864 45.94465,-14.9173 60.84374,-14.7012 z m -188.10937,56.1289 c 10.7613,0.032 15.40048,1.145 18.80078,2.582 5.6694,2.3956 4.61007,0.7862 7.82617,8.0977 3.2161,7.3116 7.51403,23.284 14.04883,51.7676 6.4738,28.2182 7.93391,38.058 8.19531,54.0839 0.129,7.8985 -0.0291,10.5012 -0.11914,12.4727 -1.7016,0.3663 -4.49146,0.8151 -9.38476,1.0625 -10.143,0.5129 -27.11943,0.1621 -53.86133,-1.0059 -50.9587,-2.2261 -72.42335,-4.611 -81.40625,-7.2812 -17.7999,-5.2905 -35.99847,-17.8219 -83.48047,-60.957 -17.5463,-15.9399 -27.95443,-26.6115 -32.39453,-32.2735 3.0161,-1.2579 7.81097,-2.8945 17.67187,-4.8965 15.7796,-3.2037 41.28653,-6.9572 81.48633,-12.207 61.6513,-8.0511 94.68049,-11.4984 112.61719,-11.4453 z m -237.95313,60.4941 c 9.0784,7.734 19.94598,17.4526 33.35938,29.6309 20.077,18.2284 31.96343,29.5027 38.26953,36.5371 4.9091,5.476 5.99496,7.2772 6.41406,8.7969 -0.8758,0.927 -3.32663,3.1809 -8.76953,6.375 -12.3327,7.2373 -37.12876,18.053 -77.85156,34.289 z m 483.19336,0.2246 0,0 8.2129,110.6894 c -21.9685,-1.1288 -45.68038,-2.857 -68.45118,-5.5449 -28.5224,-3.3668 -49.95269,-8.0128 -64.15429,-13.4277 -14.2016,-5.4149 -20.12178,-11.1616 -22.04688,-15.2129 l 0,-0 c -1.7969,-3.7813 -3.39492,-21.728 -3.16992,-23.0801 0.1156,-0.079 0.1953,-0.1358 0.9375,-0.7285 1.9561,-1.5622 6.75333,-4.4276 14.92383,-7.9668 16.3412,-7.0782 45.76639,-17.0821 94.65039,-32.6328 13.4182,-4.2684 26.21215,-8.1483 39.09765,-12.0938 z m -318.37109,106.8887 c 14.3839,0.053 32.25568,0.7061 48.05078,1.7188 15.7939,1.0126 30.30913,2.6377 34.83203,3.6367 17.6566,3.9012 25.60789,9.1428 29.52539,15.373 3.9175,6.2302 5.63457,17.0865 2.25977,36.3672 -3.3179,18.9557 -19.14852,73.4962 -28.94922,98.6934 -3.4874,8.9663 -6.77934,14.3562 -9.18164,16.957 -2.4023,2.6009 -3.42333,3.0865 -6.61133,3.5879 0.1831,-0.029 -4.96126,0.2254 -11.00976,-0.1367 -6.0484,-0.3621 -13.69336,-1.0858 -21.84766,-2.0664 -16.3088,-1.9611 -34.83358,-4.9876 -47.52148,-7.9707 -19.9234,-4.6844 -69.63762,-20.2663 -125.47852,-39.6133 -18.2864,-6.3355 -33.17631,-12.3941 -44.88281,-18.1016 l 3.97461,-53.5703 c 12.6745,-6.3982 28.40678,-13.4978 49.74218,-22.0312 61.5466,-24.6168 76.265,-29.108 105.1211,-32.1602 4.1514,-0.439 12.38946,-0.7196 21.97656,-0.6836 z m 221.85547,39.2461 c 9.934,0.01 21.72445,0.4093 35.49805,1.2188 29.0993,1.7103 52.29877,3.3763 72.32617,5.0429 l 7.8164,105.3614 c -50.4047,24.4279 -119.86463,54.31 -148.99023,63.33 -14.4322,4.4694 -27.2867,7.1001 -36.9043,7.9258 -9.6177,0.8256 -15.99139,-1.1354 -15.46679,-0.8262 -1.0437,-0.6151 -8.04578,-10.7575 -8.63868,-21.5058 -0.4086,-7.409 0.59534,-13.6899 6.96094,-36.4395 6.4317,-22.9855 13.43163,-45.9688 19.57813,-64.6269 6.1464,-18.658 11.99414,-33.8754 13.93164,-37.6582 5.0997,-9.9566 15.12846,-17.7636 19.56836,-18.9395 6.2549,-1.6567 17.76331,-2.8943 34.32031,-2.8828 z m -405.95117,113.3828 c 9.7438,3.0688 18.42236,5.6992 30.75586,9.8047 63.134,21.0161 79.27631,27.7289 86.94531,33.1738 1.8397,1.3062 2.7939,2.243 3.5957,3.0176 -3.6357,5.82 -19.69513,21.6459 -49.61133,46.8125 -35.9901,30.2764 -49.73298,40.2208 -62.48828,46.375 -7.4817,3.6098 -8.7615,3.5678 -19.7832,3.5078 z m 524.49023,37.2852 6.93555,93.4863 c -35.4497,-7.2132 -82.62639,-18.4952 -115.08399,-28.1738 -6.4025,-1.9091 -11.23116,-3.9328 -15.10156,-5.6953 5.2568,-3.2214 15.23317,-8.9632 30.41797,-16.5411 19.3444,-9.6537 45.14007,-21.7917 75.23047,-35.3281 7.3283,-3.2968 11.66996,-5.1294 17.60156,-7.748 z m -336.41797,25.8847 c 2.2965,-0.018 5.25382,0.013 9.26172,0.035 10.8695,0.061 26.45381,1.4024 39.97461,3.2676 13.5208,1.8652 27.26495,5.6769 26.43945,5.2851 2.3975,1.1381 6.52062,5.1988 12.19532,21.627 3.895,11.2764 3.47899,6.6935 1.34179,20.3008 -0.8743,5.5659 -8.50004,37.2814 -16.55664,67.9101 -8.0566,30.6286 -17.04792,62.7636 -20.61132,73.2266 -5.31981,15.62 -10.1755,26.0827 -14.5918,32.5019 -4.4163,6.4191 -7.79409,8.9749 -12.99219,11.1153 -0.1373,0.057 -12.2317,2.8243 -22.4707,3.4941 -20.5505,1.3449 -27.25155,-0 -50.37305,-10.2754 -7.563,-3.3599 -9.73425,-4.3759 -17.00195,-11.375 -7.2677,-6.9992 -18.64536,-19.9705 -39.16016,-43.9414 -28.3685,-33.1482 -38.43621,-49.153 -39.47461,-52.6328 -0.6283,-2.1056 -1.10478,-2.9684 -1.42578,-3.2988 0.3451,-0.3025 0.88558,-1.1209 1.67578,-3.1504 1.874,-4.8129 14.58789,-19.9666 52.24219,-51.586 45.6038,-38.2951 69.1007,-55.263 78.2207,-59.4414 5.4794,-2.5102 6.41714,-3.0088 13.30664,-3.0625 z m 169.8086,73.8555 0.002,0 0,0 c 2.1139,-0.01 4.48911,-0.01 7.16211,0.01 25.1773,0.142 46.40311,4.023 124.31641,23.3125 18.4572,4.5695 32.76041,8.3378 45.13281,11.8028 l 8.62695,116.2812 c -42.9556,1.0371 -115.03226,-0.5439 -183.07226,-4.8574 -37.9536,-2.406 -59.09708,-7.4384 -65.26758,-11.7891 -3.0852,-2.1754 -3.58531,-2.9934 -4.31641,-6.8261 -0.731,-3.8327 -0.51877,-10.9296 1.36133,-20.9395 4.5873,-24.4252 16.10637,-63.747 21.70117,-76.2441 6.5772,-14.6916 15.56475,-23.9353 24.24805,-27.9161 6.4173,-2.9419 5.31037,-2.7732 20.10547,-2.8359 z m -372.29493,57.2598 c 6.6809,3.7768 11.80977,7.4786 16.47657,11.7011 7.3315,6.6333 24.04036,24.8125 38.78906,42.0918 7.3743,8.6396 14.4093,17.1749 19.9082,24.1895 5.3226,6.7898 9.36161,12.7491 9.90821,13.668 -4.0136,1.0682 -11.17275,2.2757 -22.46485,3.3789 -11.9143,1.1641 -40.73508,2.4813 -69.92969,3.5195 z m -126.351558,21.9609 28.164058,3.209 -18.050776,158.4238 -28.164063,-3.209 z m 525.601558,110.8438 0.002,0 c 68.7905,0 128.16193,2.8686 161.67773,7.1152 l 9.14649,123.2539 c -27.4205,-0.067 -75.50934,-3.9993 -150.02344,-12.8105 -42.4786,-5.023 -65.62969,-9.2152 -77.87109,-14.9688 -12.2414,-5.7535 -16.73458,-12.279 -26.42188,-31.25 -13.2729,-25.993 -18.80469,-45.017 -18.80469,-52.1289 0,-2.6401 0.1406,-3.8273 0.1836,-4.2266 0.2082,-0.2561 0.65958,-0.7956 1.67578,-1.873 4.0601,-4.3045 8.77863,-7.1809 23.89453,-9.627 15.1159,-2.4461 39.30751,-3.4893 76.54101,-3.4843 z m -305.38476,3.7812 0.002,0 c 30.8735,0 32.1208,0.01 45.9375,4.0684 1.7843,0.5247 3.27897,1.1704 5.00977,1.7851 -7.5171,9.3152 -24.848,27.1002 -66.7207,66.6934 -27.5226,26.0242 -46.14946,42.4265 -60.00196,52.4121 -13.8525,9.9857 -22.22823,13.5216 -32.23633,15.6094 -2.1968,0.4583 -4.30053,0.5893 -6.45703,0.4961 l 10.27735,-138.4961 c 41.6134,-1.4103 84.13585,-2.5685 104.18945,-2.5684 z m 142.41797,13.2227 c 0.3321,0.01 0.59617,0.038 0.82617,0.1054 l 0,0 c 0.9201,0.2689 1.28113,1.116 3.14453,3.4355 3.727,4.6388 10.44372,17.9061 21.29492,41.5684 20.3719,44.4245 25.76953,62.3927 25.76953,70.3691 0,1.7858 -1.77911,13.8029 -4.3496,24.2129 -2.57051,10.4099 -6.80186,21.9285 -7.06836,22.4082 -1.0204,1.8369 -1.287,2.5258 -6.5918,4.6485 -5.3048,2.1228 -15.18159,4.4553 -30.3711,6.7363 -11.5583,1.7358 -51.67433,5.8355 -89.71093,9.2852 l -115.40039,0 c -2.5762,-2.1439 -5.34389,-5 -9.02539,-10.1231 -1.0003,-1.392 -1.18256,-1.7259 -1.44336,-2.1406 0.4061,-0.9001 1.12159,-2.4522 2.65039,-4.9317 0.1983,-0.3215 4.05733,-5.3438 9.79883,-11.6054 5.7415,-6.2616 13.64847,-14.4553 23.42187,-24.2559 19.5469,-19.6009 46.5823,-45.6652 79.4082,-76.4844 27.7514,-26.0549 42.91706,-39.5142 52.81446,-45.5761 9.8974,-6.0619 14.66092,-6.4611 30.26172,-7.2207 3.5541,-0.1731 6.52568,-0.2906 8.89648,-0.2911 3.0754,0 4.67733,-0.1692 5.67383,-0.1425 z m 110.49023,136.2851 c 1.6074,-0.01 3.70477,0.023 6.60156,0.062 3.86351,0.052 8.86474,0.2104 15.33204,0.4512 28.9885,1.079 146.16833,12.6574 183.64843,18.2539 8.3076,1.2406 15.06423,2.573 21.10743,3.9492 l 1.76367,23.7696 -254.32031,0 c 0.62769,-3.8683 1.55001,-7.7116 3.16601,-14.1016 3.7864,-14.9719 6.60642,-23.2901 8.29102,-26.3555 1.6846,-3.0655 0.58853,-2.0479 4.83593,-3.7969 4.3414,-1.7877 4.75202,-2.2028 9.57422,-2.2324 z"
       transform="translate(-4.8828125e-4,-3267.6378)"
       id="rect3526"
       inkscape:connector-curvature="0"
       sodipodi:nodetypes="ccccccccssccccccccccscccccccccccccscccccccssccscccscssccsccsccccccccccccscscsccccsccsccsccscccsscccsscssccccssscccssscscsssccccscccccsccsccccsccsccssccssscscssscssccsscscssscccccccssscscsscccssccsscscssccsscscccccsscccccsccscsscccssssccscccsccscccssscccsccssccccccsccscscccssscccsscccscsccccsccscccsscccsscsccccccccsccsssscsscssccsssccsscccsssccsccsccssssccscccccccscsc" />
    <path
       style="color:#000000;clip-rule:nonzero;display:inline;overflow:visible;visibility:visible;opacity:0.75;isolation:auto;mix-blend-mode:normal;color-interpolation:sRGB;color-interpolation-filters:linearRGB;solid-color:#000000;solid-opacity:1;fill:#00ff00;fill-opacity:1;fill-rule:nonzero;stroke:none;stroke-width:1;stroke-linecap:butt;stroke-linejoin:miter;stroke-miterlimit:4;stroke-dasharray:none;stroke-dashoffset:0;stroke-opacity:1;color-rendering:auto;image-rendering:auto;shape-rendering:auto;text-rendering:auto;enable-background:accumulate"
       d="m 2179.1749,37.176115 c 0,9.749 7.8486,17.5958 17.5976,17.5958 l 106.5371,0 c 9.749,0 17.5977,-7.8468 17.5977,-17.5958 l 0,-0.1211 0,-35.5507997 0,-35.1953003 0,-7.7676 0,-27.9042 c 0,-9.7491 -7.8487,-17.5958 -17.5977,-17.5958 l -106.5371,0 c -9.749,0 -17.5976,7.8467 -17.5976,17.5958 l 0,24.9238 70.8652,0 0,28.3458 0,28.3456 -70.8652,0 0,24.924 z"
       id="rect3531-4-5"
       inkscape:connector-curvature="0" />
    <path
       style="color:#000000;clip-rule:nonzero;display:inline;overflow:visible;visibility:visible;opacity:0.75;isolation:auto;mix-blend-mode:normal;color-interpolation:sRGB;color-interpolation-filters:linearRGB;solid-color:#000000;solid-opacity:1;fill:#00ff00;fill-opacity:1;fill-rule:nonzero;stroke:none;stroke-width:1;stroke-linecap:butt;stroke-linejoin:miter;stroke-miterlimit:4;stroke-dasharray:none;stroke-dashoffset:0;stroke-opacity:1;color-rendering:auto;image-rendering:auto;shape-rendering:auto;text-rendering:auto;enable-background:accumulate"
       d="m 2183.3649,-155.56488 c 0,9.749 7.8486,17.5958 17.5976,17.5958 l 106.5371,0 c 9.749,0 17.5977,-7.8468 17.5977,-17.5958 l 0,-0.1211 0,-35.5508 0,-35.1953 0,-7.7676 0,-27.9042 c 0,-9.7491 -7.8487,-17.5958 -17.5977,-17.5958 l -106.5371,0 c -9.749,0 -17.5976,7.8467 -17.5976,17.5958 l 0,24.9238 70.8652,0 0,28.3458 0,28.3456 -70.8652,0 0,24.924 z"
       id="rect3531-4-5-4"
       inkscape:connector-curvature="0" />
    <path
       style="color:#000000;clip-rule:nonzero;display:inline;overflow:visible;visibility:visible;opacity:0.75;isolation:auto;mix-blend-mode:normal;color-interpolation:sRGB;color-interpolation-filters:linearRGB;solid-color:#000000;solid-opacity:1;fill:#ff00ff;fill-opacity:1;fill-rule:nonzero;stroke:none;stroke-width:1;stroke-linecap:butt;stroke-linejoin:miter;stroke-miterlimit:4;stroke-dasharray:none;stroke-dashoffset:0;stroke-opacity:1;color-rendering:auto;image-rendering:auto;shape-rendering:auto;text-rendering:auto;enable-background:accumulate"
       d="m 2539.8435,1071.9767 899.9999,0 -180,-1800.00001 -539.9999,0 z"
       id="rect4237-2"
       inkscape:connector-curvature="0"
       sodipodi:nodetypes="ccccc" />
    <path
       style="color:#000000;clip-rule:nonzero;display:inline;overflow:visible;visibility:visible;opacity:0.75;isolation:auto;mix-blend-mode:normal;color-interpolation:sRGB;color-interpolation-filters:linearRGB;solid-color:#000000;solid-opacity:1;fill:#ff0000;fill-opacity:1;fill-rule:nonzero;stroke:none;stroke-width:1;stroke-linecap:butt;stroke-linejoin:miter;stroke-miterlimit:4;stroke-dasharray:none;stroke-dashoffset:0;stroke-opacity:1;color-rendering:auto;image-rendering:auto;shape-rendering:auto;text-rendering:auto;enable-background:accumulate"
       d="m 1409.8147,-749.53612 -180.2852,1799.97662 900,0.1445 -21.082,-211.1562 0.7207,-0.072 28.205,-2.8164 7.0391,70.5156 24.8008,-2.4766 c 9.7007,-0.9683 16.728,-9.557 15.7598,-19.2578 l -10.5801,-106.0097 c -0.9682,-9.7008 -9.5571,-16.7319 -19.2578,-15.7637 l -0.1192,0.012 -35.375,3.5313 -18.2344,1.8203 -131.0937,-1313.04892 0.7578,-0.074 28.2051,-2.8144 7.0371,70.5136 24.8008,-2.4746 c 9.7007,-0.9683 16.7299,-9.5566 15.7617,-19.2578 l -10.582,-106.0097 c -0.9683,-9.7012 -9.5552,-16.7318 -19.2559,-15.7637 l -0.1211,0 -35.375,3.5312 -18.2676,1.8223 -13.4589,-134.7891 z m 32.1308,44.7969 28.1641,3.209 -18.0508,158.4238 -28.1641,-3.209 z m -138.3144,1383.64452 28.164,3.209 -18.0508,158.4238 -28.164,-3.209 z"
       id="rect3526-0"
       inkscape:connector-curvature="0"
       sodipodi:nodetypes="ccccccccssccccccccccscccccccccccsccss" />
  </g>
</svg>
