<?xml version="1.0" encoding="UTF-8" standalone="no"?>
<!-- Created with Inkscape (http://www.inkscape.org/) -->

<svg
   xmlns:dc="http://purl.org/dc/elements/1.1/"
   xmlns:cc="http://creativecommons.org/ns#"
   xmlns:rdf="http://www.w3.org/1999/02/22-rdf-syntax-ns#"
   xmlns:svg="http://www.w3.org/2000/svg"
   xmlns="http://www.w3.org/2000/svg"
   xmlns:sodipodi="http://sodipodi.sourceforge.net/DTD/sodipodi-0.dtd"
   xmlns:inkscape="http://www.inkscape.org/namespaces/inkscape"
   width="8640"
   height="4320"
   viewBox="0 0 8639.9995 4319.9999"
   id="svg2"
   version="1.1"
   inkscape:version="0.48.2 r9819"
   sodipodi:docname="pylon_v5.dxf">
  <defs
     id="defs4" />
  <sodipodi:namedview
     id="base"
     pagecolor="#ffffff"
     bordercolor="#666666"
     borderopacity="1.0"
     inkscape:pageopacity="0.0"
     inkscape:pageshadow="2"
     inkscape:zoom="1.3500776"
     inkscape:cx="1677.0457"
     inkscape:cy="137.73498"
     inkscape:document-units="mm"
     inkscape:current-layer="layer1"
     showgrid="false"
     units="mm"
     showguides="true"
     inkscape:guide-bbox="true"
     inkscape:window-width="1680"
     inkscape:window-height="998"
     inkscape:window-x="-8"
     inkscape:window-y="-8"
     inkscape:window-maximized="1" />
  <metadata
     id="metadata7">
    <rdf:RDF>
      <cc:Work
         rdf:about="">
        <dc:format>image/svg+xml</dc:format>
        <dc:type
           rdf:resource="http://purl.org/dc/dcmitype/StillImage" />
        <dc:title></dc:title>
      </cc:Work>
    </rdf:RDF>
  </metadata>
  <g
     inkscape:label="Layer 1"
     inkscape:groupmode="layer"
     id="layer1"
     transform="translate(0,3267.6378)">
    <path
       style="opacity:0.75;color:#000000;fill:#ff0000;fill-opacity:1;fill-rule:nonzero;stroke:none;visibility:visible;display:inline;overflow:visible;enable-background:accumulate"
       d="M -0.01349076,441.27292 1773.5917,85.262024 l 88.4426,895.643786 -212.2058,-0.26378 -8e-4,0.72419 -0.036,24.34548 70.866,0.087 -0.031,24.9241 c -0.012,9.749 -7.8697,17.5849 -17.6187,17.5731 l -106.5363,-0.1285 c -9.749,-0.012 -17.5889,-7.8693 -17.577,-17.6182 l -6e-4,-0.1196 0.044,-31.55087 0.022,-18.32489 -1319.57587,-1.6382 2.8e-4,0.7615 -0.0336,24.34516 70.86383,0.085 -0.0295,24.9239 c -0.0119,9.7489 -7.86912,17.5867 -17.61851,17.5749 l -106.53646,-0.1303 c -9.74939,-0.012 -17.58854,-7.8675 -17.57685,-17.6163 l -0.0119,-0.1206 0.0435,-31.55075 0.0213,-18.3583 -135.459285,-0.16991 z m 47.73313176,27.58078 4.774651,21.83099 155.888538,-33.50665 -4.77462,-21.83087 z m 24.805319,85.84187 12.670361,128.52149 c 23.783619,8.35457 44.018729,13.88903 59.413599,16.26502 17.42511,2.68929 28.58063,0.61815 31.28985,-0.93373 1.32531,-0.75909 1.82006,-1.13976 2.12551,-1.37336 0.0281,-0.46923 0.0624,-1.31342 -0.0957,-3.04043 -1.03726,-11.32667 -10.64604,-33.31341 -70.20999,-145.56594 z m 17.197208,174.4395 8.378824,84.99032 c 11.167188,-6.20725 20.631178,-11.74153 23.738788,-14.16098 6.15207,-4.78979 14.65785,-13.41025 21.03642,-21.16797 3.18923,-3.8788 5.90529,-7.5974 7.5833,-10.27403 0.76851,-1.22601 1.11533,-2.39862 1.30964,-3.00039 -0.33036,-1.9303 -2.05446,-4.25185 -9.28217,-9.60639 -9.25188,-6.85404 -26.74427,-15.82769 -52.764802,-26.78056 z m 66.914022,173.56739 69.35936,-1.67818 c -19.59809,-42.61595 -33.35549,-71.63678 -41.57272,-86.19067 -2.80531,-4.96874 -4.94747,-8.17036 -6.65145,-10.51339 -1.24908,1.03707 -2.41896,1.89292 -3.63702,3.08265 -13.34134,13.03148 -16.98817,19.22214 -18.53534,26.17137 -1.78633,8.02356 -1.97485,28.38537 1.03717,69.12822 z m -8.0858,-361.24053 c 4.86747,8.64214 10.14142,18.2346 14.22668,25.14154 7.26321,12.28003 13.81117,22.02265 14.80886,23.20396 1.36669,1.61851 2.44824,2.56677 3.30223,3.27581 2.5658,-2.85168 9.47251,-12.15973 16.86569,-28.83482 2.85573,-6.44115 8.0273,-19.19805 13.83282,-33.75827 z m 33.50869,259.48777 c 0.52167,-0.20437 0.56142,-0.35552 0.47579,-0.30989 -0.042,0.0223 -0.36176,0.24136 -0.47579,0.30989 z m 31.4408,-37.98274 2e-4,0.002 c 2.39763,20.31056 18.15001,63.53033 51.62496,136.41549 0.11003,0.23839 0.2079,0.44838 0.31675,0.68507 l 92.28656,-2.23493 c 14.62967,-26.21154 14.63385,-33.23054 11.30504,-65.68966 l 0,0 c -3.13231,-30.528 -12.18421,-85.49514 -16.01913,-99.9006 -2.70971,-10.17875 -7.21071,-15.97607 -8.38598,-17.25856 -1.14143,-0.20701 -4.21946,-1.17908 -7.38306,-1.29165 -5.09134,-0.18116 -11.24375,0.41983 -14.08714,1.15917 -3.33338,0.8664 -26.06993,6.69072 -51.06837,13.08125 -24.30271,6.2128 -39.19613,10.73557 -47.32725,14.3806 -8.131,3.64512 -8.70612,4.69548 -10.60261,8.21461 -0.47194,0.87585 -1.60009,4.48926 -0.66186,12.43744 z m -2.71731,-106.71503 c 0.44708,5.34029 1.95679,10.15763 5.09514,17.73999 4.15056,10.02788 7.1786,14.33466 7.54144,14.98279 0.34659,0.0277 2.10275,0.21599 8.44254,-0.42409 8.22326,-0.8308 69.92382,-15.94761 83.3412,-21.0261 10.42536,-3.94597 15.78519,-7.91924 19.50079,-13.07394 3.71571,-5.15462 6.37512,-12.69535 7.62548,-25.3941 0.62405,-6.33727 -0.43481,-28.64459 -3.20465,-53.92621 -2.23521,-20.40073 -5.51278,-43.30404 -9.07132,-65.25883 l -76.44412,13.30631 c -3.01642,7.69465 -6.02194,15.36352 -9.36669,24.05651 -27.22266,70.75114 -34.60116,95.37041 -33.45981,109.01767 z m 157.74842,-153.07849 1.9e-4,0.002 c 2.03614,12.87545 4.02558,25.50859 6.63634,41.25693 6.83805,41.2452 12.20758,66.59659 17.41244,80.8281 5.20487,14.23161 7.66108,15.97716 14.02885,18.75514 -1.30264,-0.56825 1.44164,0.39945 5.02038,0.89653 3.57863,0.4972 8.45904,0.94525 14.0551,1.26388 11.19204,0.6374 25.31148,0.77637 39.23222,0.238 10.67961,-0.41296 16.3735,-0.85208 18.62591,-1.28476 2.25246,-0.43243 1.44746,-0.12762 4.53077,-2.1384 5.53642,-3.61 4.97951,-1.58612 6.03331,-11.46365 1.05369,-9.87754 -0.0806,-29.98271 -3.49995,-64.66588 -2.57237,-26.0928 -6.13916,-55.61756 -9.77778,-83.23522 z m 31.14354,242.94274 1.9e-4,0.002 c 3.17062,30.44671 9.88294,71.36945 13.8642,84.11398 4.61956,14.7881 6.98809,19.3086 18.46508,26.02873 11.477,6.72023 33.9736,13.86511 73.52081,23.75116 28.68604,7.17097 47.51465,11.32516 59.31046,12.80926 l 15.92947,-0.38705 c 0.36022,-0.27143 0.7367,-0.75486 1.61123,-1.85254 1.67716,-2.10504 3.21599,-4.87227 4.79464,-15.40801 1.57867,-10.53573 2.68329,-27.69613 3.62492,-54.56616 1.32065,-37.68538 1.63649,-60.01645 0.64854,-73.03121 -0.98804,-13.01475 -2.10898,-14.80581 -5.11743,-18.74265 1.13363,1.48356 -7.33767,-6.13356 -16.94564,-11.8713 -9.60809,-5.73784 -21.41362,-11.78371 -31.29682,-15.82024 -17.63153,-7.20081 -28.77696,-8.84348 -66.23805,-9.18241 -17.66258,-0.1598 -32.9614,0.41294 -44.59487,1.54477 -11.63351,1.13182 -20.27414,3.57858 -20.85787,3.86776 -3.45707,1.71251 -7.45798,6.69653 -8.52061,14.70179 -0.19734,1.48634 -0.0771,14.10321 1.21825,28.10397 0.17774,1.92525 0.37225,3.90843 0.5854,5.93801 z M 518.00449,477.15849 c 2.30875,19.28683 4.70981,39.1091 7.1098,55.91401 3.73527,26.15471 7.16535,46.41393 10.34189,60.40961 1.42166,-3.73772 2.89758,-7.75579 4.49126,-12.4931 7.36839,-21.90167 16.48376,-54.21838 27.81641,-96.88398 1.71564,-6.45867 2.6799,-10.71795 4.11967,-16.32277 z m 45.7687,177.78531 c 0.27782,2.81795 0.52519,4.25092 0.62886,4.8857 0.46563,0.44507 1.52063,1.47571 3.74477,3.34601 3.1427,2.64252 12.90575,8.88702 22.25722,13.86959 9.35219,4.98298 20.01052,9.30151 21.54846,9.66689 l 0,0 c 0.0432,0.0101 7.42775,0.26393 10.15877,-0.31459 l 0,0 c 1.30375,-0.27586 19.31594,-7.02211 35.60492,-14.61645 16.28894,-7.59425 33.7174,-16.6495 41.2941,-21.52828 10.72237,-6.90407 12.93255,-9.30535 14.35198,-13.94015 1.41931,-4.63492 1.45865,-15.70657 -1.33649,-36.47061 -3.53523,-26.26216 -22.46847,-115.09935 -31.96588,-150.89062 l -68.44462,11.91319 c -6.35857,20.67358 -14.1617,47.96672 -25.18108,88.12025 -19.59737,71.41061 -23.72738,95.18209 -22.66489,105.95944 z m 68.88821,236.23456 122.59498,-2.96981 c 34.77875,-30.77615 54.49381,-49.27532 65.61444,-62.55955 11.61857,-13.87907 14.93796,-22.01614 20.5781,-38.89602 5.21356,-15.60378 9.6369,-31.10584 12.67606,-43.95964 3.03919,-12.85379 4.5082,-23.86464 4.46493,-26.69576 -0.054,-3.52471 -0.50238,-4.72887 -0.60915,-4.94456 -0.10667,-0.21566 -0.0191,-0.5303 -2.55414,-2.05816 -5.07065,-3.05557 -19.76721,-8.00157 -45.85422,-14.55388 -27.40648,-6.88377 -43.39334,-10.10498 -54.21412,-10.4463 -10.82068,-0.34124 -17.28602,1.44728 -30.29338,6.76056 -20.40286,8.33423 -59.73089,28.56253 -69.22713,34.99192 -10.58437,7.1663 -12.24972,7.72572 -15.62617,22.33616 -3.37635,14.61054 -5.19533,42.72797 -7.10457,93.745 -0.79274,21.17806 -0.92789,36.10727 -0.44563,49.25004 z m 88.53894,-449.38775 c 3.08182,16.21396 7.10938,35.9497 13.261,64.39831 12.81707,59.27269 20.85765,91.89608 28.22867,108.62171 7.371,16.72562 10.58123,17.85438 25.32733,23.63112 8.214,3.21763 23.67443,7.67003 37.94278,11.00826 14.26836,3.33835 29.34575,5.48753 31.21263,5.46998 7.40211,-0.0694 5.88727,0.86393 8.45446,-3.84606 2.56718,-4.7101 5.84402,-18.15268 7.98688,-40.77916 0.73025,-7.71054 2.38366,-43.83393 3.76857,-82.89072 1.38503,-39.05672 2.63216,-82.28779 2.98008,-108.06961 0.0219,-1.62067 -0.11486,-3.53594 -0.12252,-5.22412 z m 157.66861,395.08175 c 0.2399,2.11748 0.55784,4.23965 0.96081,6.42101 1.16637,6.3125 5.59159,23.02123 10.86002,41.63738 l 72.66225,-1.76046 c 5.57095,-25.42478 11.25854,-52.35836 15.8913,-75.786 5.36859,-27.14838 9.35962,-50.34605 9.92157,-56.76876 0.74308,-8.49228 0.61698,-14.44125 -10e-4,-17.49053 -0.61785,-3.04922 -0.74235,-3.04993 -2.23855,-4.23244 -2.99231,-2.36494 -17.45737,-6.80518 -45.82216,-10.10783 -21.97789,-2.55909 -28.31152,-1.98389 -32.15276,-0.53363 -0.9809,0.37033 -2.34658,0.6273 -6.28266,9.13311 -3.93607,8.50591 -8.85582,23.80605 -15.13784,47.49556 -8.3408,31.45295 -10.3377,47.18653 -8.6609,61.99259 z m 37.40271,-192.7087 c 1.08764,10.70625 2.6504,15.21385 4.41409,18.45675 2.94026,5.40703 1.2347,4.51071 8.82645,6.99396 7.59186,2.48323 23.90888,5.19338 52.89617,8.90213 28.71723,3.67409 38.65283,4.16177 54.62713,2.84959 7.8729,-0.64652 10.4477,-1.05923 12.4007,-1.34223 0.1977,-1.72935 0.3705,-4.54977 0.1368,-9.44375 -0.4847,-10.1444 -2.4993,-27.0045 -6.2854,-53.50281 -7.215,-50.49444 -11.6943,-71.62154 -15.2329,-80.29913 -7.0113,-17.19499 -21.2676,-34.07632 -68.85324,-77.09724 -17.58444,-15.89778 -29.22571,-25.2087 -35.29601,-29.07189 -0.95591,3.12497 -2.1142,8.05727 -3.13908,18.06701 -1.64012,16.01779 -2.87304,41.76993 -4.1535,82.29085 -1.96365,62.14374 -2.15382,95.35179 -0.34123,113.19676 z m 36.85668,-242.74022 c 8.58741,8.27581 19.32539,18.13747 32.7609,30.29133 20.11026,18.19177 32.49626,28.91473 40.11546,34.50026 5.9313,4.34817 7.8304,5.25207 9.3838,5.52006 0.8365,-0.96253 2.8391,-3.62266 5.4838,-9.35266 5.9924,-12.98328 14.3233,-38.72084 26.4856,-80.84009 z m 47.62966,480.84018 0,0 110.961,-2.68643 c -3.2786,-21.75172 -7.3249,-45.17967 -12.2338,-67.57695 -6.1488,-28.05447 -12.875,-48.92553 -19.6571,-62.52739 -6.782,-13.60182 -13.0819,-18.92961 -17.3026,-20.44797 l 0,0 c -3.9393,-1.41725 -21.956,-1.24684 -23.2796,-0.89024 -0.067,0.12275 -0.116,0.20766 -0.633,1.00444 -1.3628,2.09994 -3.7437,7.15514 -6.4643,15.63348 -5.4407,16.95681 -12.5094,47.22151 -23.1892,97.39536 -2.9313,13.77225 -5.5374,26.88507 -8.1995,40.09549 z m 75.1377,-327.32198 c 1.464,14.30932 3.8672,32.03081 6.4246,47.65036 2.5574,15.61834 5.5988,29.9041 7.0365,34.3072 5.6147,17.18865 11.611,24.58735 18.1955,27.87471 6.5846,3.28734 17.557,3.93103 36.4135,-1.31912 18.5388,-5.16163 71.263,-26.26686 95.3771,-38.49236 8.5809,-4.35026 13.6219,-8.15511 15.9743,-10.80099 2.3528,-2.64592 2.7358,-3.70965 2.922,-6.93146 -0.011,0.18503 -0.2623,-4.95944 -1.2162,-10.94321 -0.9537,-5.98372 -2.424,-13.52081 -4.1997,-21.53959 -3.5518,-16.03769 -8.381,-34.17619 -12.5947,-46.51019 -6.6164,-19.36769 -27.0006,-67.31334 -51.7329,-120.98671 -8.0988,-17.57661 -15.5892,-31.80026 -22.4175,-42.89035 l -52.922,9.21124 c -5.1239,13.24107 -10.6457,29.59399 -17.0447,51.66369 -18.4598,63.66482 -21.4852,78.75284 -21.6917,107.76919 -0.029,4.17444 0.4994,12.40029 1.4759,21.93759 z m 60.8229,216.93474 c 0.9846,9.88509 2.5388,21.57947 4.6956,35.20723 4.5571,28.79108 8.4912,51.71514 12.1145,71.48244 l 105.6201,-2.55827 c 19.3648,-52.55817 42.2881,-124.61476 48.4069,-154.48477 3.0321,-14.80107 4.3889,-27.85166 4.2669,-37.50385 -0.1219,-9.65229 -2.6987,-15.80283 -2.3397,-15.31112 -0.7144,-0.97832 -11.4949,-6.95154 -22.2496,-6.48706 -7.4134,0.32027 -13.5654,1.93557 -35.5807,10.50243 -22.2436,8.65578 -44.4293,17.87683 -62.3942,25.82419 -17.9651,7.9473 -32.5353,15.25982 -36.1097,17.55908 -9.4083,6.05195 -16.1938,16.79829 -16.9284,21.33213 -1.035,6.38726 -1.1375,17.96156 0.4983,34.43757 z m 73.008,-415.11669 c 4.0099,9.39571 7.4791,17.77434 12.7747,29.64557 27.109,60.76749 35.373,76.17336 41.5442,83.27113 1.4803,1.70268 2.5062,2.56037 3.3557,3.28232 5.4352,-4.18916 19.6092,-21.72381 41.7193,-53.96476 26.5993,-38.78688 35.1474,-53.4391 40.0206,-66.73666 2.8582,-7.79975 2.691,-9.06928 1.5498,-20.03189 z m 88.5631,518.30177 93.7156,-2.26975 c -10.6563,-34.571 -26.5124,-80.41325 -39.3287,-111.76468 -2.5281,-6.18431 -5.0157,-10.79113 -7.1495,-14.46992 -2.6901,5.54746 -7.4254,16.03903 -13.477,31.89405 -7.7093,20.19821 -17.2579,47.06029 -27.7767,78.33359 -2.562,7.61632 -3.9598,12.11684 -5.9837,18.27671 z m -7.2463,-337.33443 c 0.2075,2.28719 0.5284,5.22718 0.9435,9.21361 1.1273,10.81106 3.991,26.18859 7.1739,39.46116 3.1826,13.27256 8.3243,26.57645 7.8535,25.79337 1.3679,2.27427 5.8135,5.97911 22.7192,10.01465 11.604,2.7699 7.0024,2.80553 20.3345,-0.65637 5.4532,-1.41615 36.2677,-12.11674 65.9581,-23.13946 29.6903,-11.02264 60.7882,-23.12339 70.8511,-27.69612 15.0226,-6.82661 24.9585,-12.68536 30.9134,-17.71013 5.9549,-5.0248 8.1671,-8.63705 9.7872,-14.02006 0.043,-0.14213 1.6106,-12.44979 1.2726,-22.7051 -0.6779,-20.58328 -2.6737,-27.12009 -15.1679,-49.1219 -4.0858,-7.19687 -5.3098,-9.25799 -12.9883,-15.80393 -7.6784,-6.54594 -21.7034,-16.5961 -47.5713,-34.66016 -35.7716,-24.97943 -52.6868,-33.42837 -56.2518,-34.12035 -2.1572,-0.41868 -3.0626,-0.80821 -3.4228,-1.09525 -0.2672,0.37311 -1.0286,0.99126 -2.9707,1.97677 -4.6059,2.33715 -18.4391,16.47644 -46.2117,57.05125 -33.6361,49.1409 -48.2169,74.18918 -51.4805,83.67514 -1.9606,5.69922 -2.3646,6.68135 -1.7422,13.54289 z m 90.1592,161.7434 10e-5,0.002 0,0 c 0.1975,2.10468 0.4305,4.46843 0.7128,7.12655 2.6114,25.04191 8.5561,45.78455 35.3967,121.42948 6.3582,17.91986 11.5116,31.78432 16.1737,43.75713 l 116.5666,-2.823 c -3.1823,-42.85013 -11.8271,-114.42398 -22.7953,-181.71249 -6.1178,-37.53448 -13.2003,-58.08224 -18.1355,-63.79611 -2.4676,-2.85689 -3.3306,-3.27434 -7.2166,-3.62587 -3.8859,-0.35145 -10.9277,0.55602 -20.7049,3.40912 -23.8574,6.96154 -61.8593,22.28288 -73.7473,29.07678 -13.9753,7.98686 -22.2927,17.83794 -25.4023,26.86992 -2.2982,6.67497 -2.2389,5.55682 -0.8497,20.28669 z m 20.4577,-376.11657 c 4.414,6.27811 8.6011,11.01907 13.2613,15.24908 7.3204,6.64535 27.0513,21.49002 45.6941,34.4723 9.3216,6.49107 18.5059,12.65473 26.0262,17.43891 7.2791,4.63081 13.6059,8.06565 14.5741,8.51945 0.6693,-4.09903 1.1685,-11.34212 1.1586,-22.68797 -0.011,-11.97103 -1.5272,-40.78201 -3.3584,-69.93761 z m 9.4587,-127.89648 4.7745,21.8309 155.8886,-33.50674 -4.7746,-21.83089 z m 161.8756,512.19088 3e-4,0.002 c 6.749,68.45863 15.4288,127.26218 22.9431,160.19964 l 123.5565,-2.98998 c -2.7568,-27.28167 -11.388,-74.75279 -27.4674,-148.04291 -9.1663,-41.78085 -15.6096,-64.40894 -22.5365,-76.02681 -6.9268,-11.61784 -13.8616,-15.44915 -33.6916,-23.22846 -27.1697,-10.65871 -46.6446,-14.29737 -53.7222,-13.59961 -2.6273,0.259 -3.795,0.51541 -4.1882,0.59739 -0.2345,0.23231 -0.727,0.73443 -1.6995,1.85143 -3.8855,4.46285 -6.2849,9.44079 -7.2363,24.72377 -0.9512,15.28296 0.3839,39.46022 4.0417,76.51363 z m -26.1983,-304.28245 2e-4,0.002 c 3.0291,30.72454 3.1614,31.96485 8.5557,45.31672 0.6973,1.72422 1.4865,3.14831 2.2682,4.81044 8.5327,-8.39474 24.5314,-27.38689 59.8255,-72.94207 23.1984,-29.94307 37.6942,-50.0893 46.2725,-64.85464 8.5785,-14.76535 11.2756,-23.44758 12.3713,-33.61227 0.2407,-2.23112 0.1644,-4.33752 -0.1396,-6.47449 l -136.8197,23.81561 c 2.6792,41.55097 5.6985,83.9819 7.6659,103.93875 z m 27.1315,140.43362 c 0.043,0.32947 0.097,0.58943 0.1866,0.81171 l 0,0 c 0.3579,0.88927 1.2364,1.16547 3.7274,2.79232 4.982,3.25391 18.8445,8.63654 43.4571,17.11388 46.209,15.91513 64.62,19.52388 72.558,18.74132 1.7771,-0.1752 13.5617,-3.12472 23.6694,-6.70414 10.1074,-3.57943 21.1553,-8.92046 21.6065,-9.23272 1.728,-1.19571 2.3874,-1.52861 3.9794,-7.01609 1.592,-5.48745 2.9443,-15.54543 3.724,-30.88546 0.5935,-11.67285 0.7376,-51.99756 0.4389,-90.18909 l -11.322,-114.84365 c -2.3862,-2.35346 -5.5002,-4.82755 -10.9596,-7.98869 -1.4835,-0.85889 -1.8337,-1.0075 -2.2719,-1.22641 -0.856,0.49249 -2.3304,1.35678 -4.6478,3.12148 -0.3007,0.2289 -4.9201,4.56206 -10.5882,10.89016 -5.6681,6.32814 -13.0464,15.00083 -21.8409,25.68862 -17.5885,21.37565 -40.8746,50.83779 -68.3247,86.52899 -23.2066,30.17377 -35.1131,46.58676 -40.1746,57.03113 -5.0617,10.4444 -4.9916,15.22409 -4.2169,30.82416 0.1764,3.55393 0.3509,6.52271 0.5832,8.8821 0.3017,3.06057 0.2906,4.67135 0.4147,5.66045 z m 146.4679,96.58626 c 0.1478,1.60061 0.3864,3.68463 0.7094,6.56363 0.4309,3.83974 1.0791,8.80133 1.9533,15.21378 3.9178,28.74279 26.9367,144.22135 36.1834,180.97154 2.0497,8.14583 4.0386,14.73916 6.0012,20.61819 l 23.8277,-0.57692 -24.9512,-253.09334 c -3.7881,1.00419 -7.5225,2.29913 -13.723,4.53425 -14.5282,5.23702 -22.5295,8.85953 -25.4148,10.83673 -2.8855,1.97725 -1.9803,0.7866 -3.3043,5.18515 -1.3531,4.49583 -1.726,4.94521 -1.2822,9.74704 z"
       id="rect3526"
       inkscape:connector-curvature="0"
       sodipodi:nodetypes="ccccccccssccccccccccscccccccccccccscccccccssccscccscssccsccsccccccccccccscscscccccccsccsccscccsscccsscsscccsssscccssscscsssccccscccccscssccccsccsccssccssscscssscssccsscscsssccccccsssscscsscccssscsscscssccsscssccccsscccccsccscsccccssssccscccsccccscssscccscccscccccccccscscsccsscccsscccscsccccsscccccsscccsscsccccccccscssssscsscssccsssccsscccsssccsccsccssssccscccccccsccccccccscccccc" />
    <path
       style="color:#000000;fill:#ff0000;fill-opacity:1;fill-rule:nonzero;stroke:#ff0000;stroke-width:2.36224961;stroke-linecap:butt;stroke-linejoin:round;stroke-miterlimit:4;stroke-dashoffset:0;stroke-opacity:1;marker:none;visibility:visible;display:inline;overflow:visible;enable-background:accumulate"
       d="m 896.07391,-1813.0287 351.96849,0 0,351.9685 -351.96849,0 z"
       id="rect2987" />
  </g>
</svg>
