999
DXF created by Inkscape
  0
SECTION
  2
HEADER
  9
$ACADVER
  1
AC1014
  9
$HANDSEED
  5
FFFF
  9
$MEASUREMENT
 70
     1
  0
ENDSEC
  0
SECTION
  2
TABLES
  0
TABLE
  2
VPORT
  5
8
330
0
100
AcDbSymbolTable
 70
     4
  0
VPORT
  5
2E
330
8
100
AcDbSymbolTableRecord
100
AcDbViewportTableRecord
  2
*ACTIVE
 70
     0
 10
0.0
 20
0.0
 11
1.0
 21
1.0
 12
210.0
 22
148.5
 13
0.0
 23
0.0
 14
10.0
 24
10.0
 15
10.0
 25
10.0
 16
0.0
 26
0.0
 36
1.0
 17
0.0
 27
0.0
 37
0.0
 40
341.0
 41
1.24
 42
50.0
 43
0.0
 44
0.0
 50
0.0
 51
0.0
 71
     0
 72
   100
 73
     1
 74
     3
 75
     0
 76
     0
 77
     0
 78
     0
  0
ENDTAB
  0
TABLE
  2
LTYPE
  5
5
330
0
100
AcDbSymbolTable
 70
     1
  0
LTYPE
  5
14
330
5
100
AcDbSymbolTableRecord
100
AcDbLinetypeTableRecord
  2
BYBLOCK
 70
     0
  3

 72
    65
 73
     0
 40
0.0
  0
LTYPE
  5
15
330
5
100
AcDbSymbolTableRecord
100
AcDbLinetypeTableRecord
  2
BYLAYER
 70
     0
  3

 72
    65
 73
     0
 40
0.0
  0
LTYPE
  5
16
330
5
100
AcDbSymbolTableRecord
100
AcDbLinetypeTableRecord
  2
CONTINUOUS
 70
     0
  3
Solid line
 72
    65
 73
     0
 40
0.0
  0
ENDTAB
  0
TABLE
  2
LAYER
  5
2
100
AcDbSymbolTable
 70
2
  0
LAYER
  5
50
100
AcDbSymbolTableRecord
100
AcDbLayerTableRecord
  2
0
 70
0
  6
CONTINUOUS
  0
LAYER
  5
51
100
AcDbSymbolTableRecord
100
AcDbLayerTableRecord
  2
Layer_1
 70
0
  6
CONTINUOUS
  0
ENDTAB
  0
TABLE
  2
STYLE
  5
3
330
0
100
AcDbSymbolTable
 70
     1
  0
STYLE
  5
11
330
3
100
AcDbSymbolTableRecord
100
AcDbTextStyleTableRecord
  2
STANDARD
 70
     0
 40
0.0
 41
1.0
 50
0.0
 71
     0
 42
2.5
  3
txt
  4

  0
ENDTAB
  0
TABLE
  2
VIEW
  5
6
330
0
100
AcDbSymbolTable
 70
     0
  0
ENDTAB
  0
TABLE
  2
UCS
  5
7
330
0
100
AcDbSymbolTable
 70
     0
  0
ENDTAB
  0
TABLE
  2
APPID
  5
9
330
0
100
AcDbSymbolTable
 70
     2
  0
APPID
  5
12
330
9
100
AcDbSymbolTableRecord
100
AcDbRegAppTableRecord
  2
ACAD
 70
     0
  0
ENDTAB
  0
TABLE
  2
DIMSTYLE
  5
A
330
0
100
AcDbSymbolTable
 70
     1
  0
DIMSTYLE
105
27
330
A
100
AcDbSymbolTableRecord
100
AcDbDimStyleTableRecord
  2
ISO-25
 70
     0
  3

  4

  5

  6

  7

 40
1.0
 41
2.5
 42
0.625
 43
3.75
 44
1.25
 45
0.0
 46
0.0
 47
0.0
 48
0.0
140
2.5
141
2.5
142
0.0
143
0.03937007874016
144
1.0
145
0.0
146
1.0
147
0.625
 71
     0
 72
     0
 73
     0
 74
     0
 75
     0
 76
     0
 77
     1
 78
     8
170
     0
171
     3
172
     1
173
     0
174
     0
175
     0
176
     0
177
     0
178
     0
270
     2
271
     2
272
     2
273
     2
274
     3
340
11
275
     0
280
     0
281
     0
282
     0
283
     0
284
     8
285
     0
286
     0
287
     3
288
     0
  0
ENDTAB
  0
TABLE
  2
BLOCK_RECORD
  5
1
330
0
100
AcDbSymbolTable
 70
     1
  0
BLOCK_RECORD
  5
1F
330
1
100
AcDbSymbolTableRecord
100
AcDbBlockTableRecord
  2
*MODEL_SPACE
  0
BLOCK_RECORD
  5
1B
330
1
100
AcDbSymbolTableRecord
100
AcDbBlockTableRecord
  2
*PAPER_SPACE
  0
ENDTAB
  0
ENDSEC
  0
SECTION
  2
BLOCKS
  0
BLOCK
  5
20
330
1F
100
AcDbEntity
  8
0
100
AcDbBlockBegin
  2
*MODEL_SPACE
 70
     0
 10
0.0
 20
0.0
 30
0.0
  3
*MODEL_SPACE
  1

  0
ENDBLK
  5
21
330
1F
100
AcDbEntity
  8
0
100
AcDbBlockEnd
  0
BLOCK
  5
1C
330
1B
100
AcDbEntity
 67
     1
  8
0
100
AcDbBlockBegin
  2
*PAPER_SPACE
  1

  0
ENDBLK
  5
1D
330
1B
100
AcDbEntity
 67
     1
  8
0
100
AcDbBlockEnd
  0
ENDSEC
  0
SECTION
  2
ENTITIES
  0
LWPOLYLINE
  5
100
100
AcDbEntity
  8
Layer_1
 62
7
100
AcDbPolyline
 90
8
 70
0
 10
-0.003807
 20
172.462975
 30
0.0
 10
500.546991
 20
272.937161
 30
0.0
 10
525.507458
 20
20.166581
 30
0.0
 10
465.618266
 20
20.241026
 30
0.0
 10
465.618040
 20
20.036643
 30
0.0
 10
465.607880
 20
13.165808
 30
0.0
 10
485.607840
 20
13.141254
 30
0.0
 10
485.599091
 20
6.107120
 30
0.0
  0
SPLINE
  5
101
100
AcDbEntity
  8
Layer_1
 62
7
100
AcDbSpline
 70
0
 71
3
 72
10
 73
6
 74
4
 40
0.000000
 40
0.000000
 40
0.000000
 40
0.000000
 40
2.599678
 40
5.116401
 40
7.716216
 40
7.716216
 40
7.716216
 40
7.716216
 10
485.599091
 20
6.107120
 30
0.0
 10
485.462511
 20
5.235728
 30
0.0
 10
485.193708
 20
3.520751
 30
0.0
 10
483.214113
 20
1.546508
 30
0.0
 10
481.498460
 20
1.282001
 30
0.0
 10
480.626702
 20
1.147600
 30
0.0
 11
485.599091
 21
6.107120
 31
0.0
 11
484.919867
 21
3.597741
 31
0.0
 11
483.137925
 21
1.820503
 31
0.0
 11
480.626702
 21
1.147600
 31
0.0
  0
LWPOLYLINE
  5
102
100
AcDbEntity
  8
Layer_1
 62
7
100
AcDbPolyline
 90
2
 70
0
 10
480.626702
 20
1.147600
 30
0.0
 10
450.559791
 20
1.183866
 30
0.0
  0
SPLINE
  5
103
100
AcDbEntity
  8
Layer_1
 62
7
100
AcDbSpline
 70
0
 71
3
 72
10
 73
6
 74
4
 40
0.000000
 40
0.000000
 40
0.000000
 40
0.000000
 40
2.599952
 40
5.117009
 40
7.716847
 40
7.716847
 40
7.716847
 40
7.716847
 10
450.559791
 20
1.183866
 30
0.0
 10
449.688327
 20
1.320452
 30
0.0
 10
447.973184
 20
1.589270
 30
0.0
 10
445.998348
 20
3.568575
 30
0.0
 10
445.733657
 20
5.284348
 30
0.0
 10
445.599171
 20
6.156113
 30
0.0
 11
450.559791
 21
1.183866
 31
0.0
 11
448.050120
 21
1.863060
 31
0.0
 11
446.272346
 21
3.644940
 31
0.0
 11
445.599171
 21
6.156113
 31
0.0
  0
LWPOLYLINE
  5
104
100
AcDbEntity
  8
Layer_1
 62
7
100
AcDbPolyline
 90
9
 70
0
 10
445.599171
 20
6.156113
 30
0.0
 10
445.599002
 20
6.189867
 30
0.0
 10
445.611419
 20
15.094224
 30
0.0
 10
445.617628
 20
20.265915
 30
0.0
 10
73.203994
 20
20.728251
 30
0.0
 10
73.204073
 20
20.513339
 30
0.0
 10
73.194590
 20
13.642594
 30
0.0
 10
93.193938
 20
13.618605
 30
0.0
 10
93.185612
 20
6.584527
 30
0.0
  0
SPLINE
  5
105
100
AcDbEntity
  8
Layer_1
 62
7
100
AcDbSpline
 70
0
 71
3
 72
10
 73
6
 74
4
 40
0.000000
 40
0.000000
 40
0.000000
 40
0.000000
 40
2.599780
 40
5.116648
 40
7.716539
 40
7.716539
 40
7.716539
 40
7.716539
 10
93.185612
 20
6.584527
 30
0.0
 10
93.049042
 20
5.713107
 30
0.0
 10
92.780257
 20
3.998060
 30
0.0
 10
90.800791
 20
2.023526
 30
0.0
 10
89.085061
 20
1.758939
 30
0.0
 10
88.213277
 20
1.624499
 30
0.0
 11
93.185612
 21
6.584527
 31
0.0
 11
92.506439
 21
4.075029
 31
0.0
 11
90.724541
 21
2.297540
 31
0.0
 11
88.213277
 21
1.624499
 31
0.0
  0
LWPOLYLINE
  5
106
100
AcDbEntity
  8
Layer_1
 62
7
100
AcDbPolyline
 90
2
 70
0
 10
88.213277
 20
1.624499
 30
0.0
 10
58.146321
 20
1.661273
 30
0.0
  0
LWPOLYLINE
  5
107
100
AcDbEntity
  8
Layer_1
 62
7
100
AcDbPolyline
 90
6
 70
0
 10
53.185743
 20
6.632984
 30
0.0
 10
53.182385
 20
6.667020
 30
0.0
 10
53.194661
 20
15.571343
 30
0.0
 10
53.200673
 20
20.752463
 30
0.0
 10
14.971052
 20
20.800416
 30
0.0
 10
-0.003807
 20
172.462975
 30
0.0
  0
LWPOLYLINE
  5
108
100
AcDbEntity
  8
Layer_1
 62
7
100
AcDbPolyline
 90
5
 70
0
 10
13.467543
 20
164.679066
 30
0.0
 10
14.815056
 20
158.517875
 30
0.0
 10
58.810265
 20
167.974196
 30
0.0
 10
57.462761
 20
174.135353
 30
0.0
 10
13.467543
 20
164.679066
 30
0.0
  0
SPLINE
  5
109
100
AcDbEntity
  8
Layer_1
 62
7
100
AcDbSpline
 70
0
 71
3
 72
10
 73
6
 74
4
 40
0.000000
 40
0.000000
 40
0.000000
 40
0.000000
 40
2.599941
 40
5.116779
 40
7.716469
 40
7.716469
 40
7.716469
 40
7.716469
 10
58.146321
 20
1.661273
 30
0.0
 10
57.274854
 20
1.797811
 30
0.0
 10
55.559776
 20
2.066524
 30
0.0
 10
53.584895
 20
4.045600
 30
0.0
 10
53.320222
 20
5.761262
 30
0.0
 10
53.185743
 20
6.632984
 30
0.0
 11
58.146321
 21
1.661273
 31
0.0
 11
55.636625
 21
2.340334
 31
0.0
 11
53.858909
 21
4.121962
 31
0.0
 11
53.185743
 21
6.632984
 31
0.0
  0
SPLINE
  5
10a
100
AcDbEntity
  8
Layer_1
 62
7
100
AcDbSpline
 70
0
 71
3
 72
16
 73
12
 74
10
 40
0.000000
 40
0.000000
 40
0.000000
 40
0.000000
 40
6.698988
 40
12.521839
 40
17.404589
 40
21.725342
 40
24.720975
 40
26.316882
 40
26.669510
 40
26.893712
 40
27.031595
 40
27.031595
 40
27.031595
 40
27.031595
 10
24.044013
 20
104.180962
 30
0.0
 10
26.158508
 20
103.462287
 30
0.0
 10
30.110950
 20
102.118932
 30
0.0
 10
35.708804
 20
100.577193
 30
0.0
 10
40.608489
 20
99.534807
 30
0.0
 10
44.680997
 20
99.134942
 30
0.0
 10
47.634154
 20
99.306557
 30
0.0
 10
49.293060
 20
99.626866
 30
0.0
 10
49.909583
 20
100.011513
 30
0.0
 10
50.109461
 20
100.141135
 30
0.0
 10
50.205743
 20
100.213983
 30
0.0
 10
50.242408
 20
100.241724
 30
0.0
 11
24.044013
 21
104.180962
 31
0.0
 11
30.408954
 21
102.091952
 31
0.0
 11
36.025237
 21
100.554762
 31
0.0
 11
40.811851
 21
99.590612
 31
0.0
 11
45.117046
 21
99.224280
 31
0.0
 11
48.106114
 21
99.422494
 31
0.0
 11
49.642542
 21
99.854131
 31
0.0
 11
49.945142
 21
100.035182
 31
0.0
 11
50.131692
 21
100.159543
 31
0.0
 11
50.242408
 21
100.241724
 31
0.0
  0
LWPOLYLINE
  5
10b
100
AcDbEntity
  8
Layer_1
 62
7
100
AcDbPolyline
 90
2
 70
0
 10
20.468155
 20
140.452582
 30
0.0
 10
24.044013
 20
104.180962
 30
0.0
  0
LWPOLYLINE
  5
10c
100
AcDbEntity
  8
Layer_1
 62
7
100
AcDbPolyline
 90
2
 70
0
 10
30.400580
 20
142.181744
 30
0.0
 10
20.468155
 20
140.452582
 30
0.0
  0
SPLINE
  5
10d
100
AcDbEntity
  8
Layer_1
 62
7
100
AcDbSpline
 70
0
 71
3
 72
13
 73
9
 74
7
 40
0.000000
 40
0.000000
 40
0.000000
 40
0.000000
 40
0.173129
 40
0.448581
 40
0.859236
 40
6.118767
 40
19.447731
 40
46.546145
 40
46.546145
 40
46.546145
 40
46.546145
 10
50.242408
 20
100.241724
 30
0.0
 10
50.245098
 20
100.299385
 30
0.0
 10
50.252068
 20
100.448786
 30
0.0
 10
50.244424
 20
100.735293
 30
0.0
 10
50.103767
 20
102.714160
 30
0.0
 10
47.687663
 20
108.702571
 30
0.0
 10
40.953267
 20
122.250262
 30
0.0
 10
34.635422
 20
134.183147
 30
0.0
 10
30.400580
 20
142.181744
 30
0.0
 11
50.242408
 21
100.241724
 31
0.0
 11
50.248846
 21
100.414733
 31
0.0
 11
50.243995
 21
100.690142
 31
0.0
 11
50.215399
 21
101.099801
 31
0.0
 11
48.683734
 21
106.131368
 31
0.0
 11
42.943934
 21
118.161163
 31
0.0
 11
30.400580
 21
142.181744
 31
0.0
  0
SPLINE
  5
10e
100
AcDbEntity
  8
Layer_1
 62
7
100
AcDbSpline
 70
0
 71
3
 72
19
 73
15
 74
13
 40
0.000000
 40
0.000000
 40
0.000000
 40
0.000000
 40
3.380147
 40
6.090215
 40
7.804170
 40
10.337384
 40
13.280480
 40
16.238697
 40
17.605321
 40
18.828452
 40
19.844463
 40
20.225282
 40
20.541063
 40
20.770764
 40
20.770764
 40
20.770764
 40
20.770764
 10
27.686280
 20
67.235722
 30
0.0
 10
28.669394
 20
67.786464
 30
0.0
 10
30.440731
 20
68.778768
 30
0.0
 10
32.683199
 20
70.095120
 30
0.0
 10
34.640820
 20
71.347424
 30
0.0
 10
36.410314
 20
72.977534
 30
0.0
 10
38.394500
 20
74.967102
 30
0.0
 10
39.997515
 20
76.786950
 30
0.0
 10
41.150660
 20
78.233327
 30
0.0
 10
41.860159
 20
79.203348
 30
0.0
 10
42.363057
 20
79.918438
 30
0.0
 10
42.640884
 20
80.418527
 30
0.0
 10
42.753841
 20
80.706598
 30
0.0
 10
42.809279
 20
80.879757
 30
0.0
 10
42.832624
 20
80.952673
 30
0.0
 11
27.686280
 21
67.235722
 31
0.0
 11
30.629044
 21
68.898713
 31
0.0
 11
32.959525
 21
70.281942
 31
0.0
 11
34.385893
 21
71.232265
 31
0.0
 11
36.296730
 21
72.895358
 31
0.0
 11
38.369387
 21
74.984833
 31
0.0
 11
40.322839
 21
77.206337
 31
0.0
 11
41.172493
 21
78.276733
 31
0.0
 11
41.897694
 21
79.261686
 31
0.0
 11
42.463014
 21
80.105896
 31
0.0
 11
42.643049
 21
80.441471
 31
0.0
 11
42.760624
 21
80.734548
 31
0.0
 11
42.832624
 21
80.952673
 31
0.0
  0
LWPOLYLINE
  5
10f
100
AcDbEntity
  8
Layer_1
 62
7
100
AcDbPolyline
 90
2
 70
0
 10
25.321590
 20
91.221879
 30
0.0
 10
27.686280
 20
67.235722
 30
0.0
  0
LWPOLYLINE
  5
110
100
AcDbEntity
  8
Layer_1
 62
7
100
AcDbPolyline
 90
2
 70
0
 10
25.321590
 20
91.221879
 30
0.0
 10
25.321590
 20
91.221879
 30
0.0
  0
SPLINE
  5
111
100
AcDbEntity
  8
Layer_1
 62
7
100
AcDbSpline
 70
0
 71
3
 72
13
 73
9
 74
7
 40
0.000000
 40
0.000000
 40
0.000000
 40
0.000000
 40
0.665260
 40
1.822739
 40
3.827853
 40
7.832115
 40
13.394633
 40
20.554109
 40
20.554109
 40
20.554109
 40
20.554109
 10
42.832624
 20
80.952673
 30
0.0
 10
42.754772
 20
81.162829
 30
0.0
 10
42.541465
 20
81.738633
 30
0.0
 10
41.561401
 20
82.612467
 30
0.0
 10
39.719617
 20
84.102808
 30
0.0
 10
36.393277
 20
86.106562
 30
0.0
 10
31.410477
 20
88.597311
 30
0.0
 10
27.514247
 20
90.276751
 30
0.0
 10
25.321590
 20
91.221879
 30
0.0
 11
42.832624
 21
80.952673
 31
0.0
 11
42.565315
 21
81.561866
 31
0.0
 11
41.778022
 21
82.410352
 31
0.0
 11
40.212989
 21
83.663810
 31
0.0
 11
36.823678
 21
85.796105
 31
0.0
 11
31.865891
 21
88.318396
 31
0.0
 11
25.321590
 21
91.221879
 31
0.0
  0
SPLINE
  5
112
100
AcDbEntity
  8
Layer_1
 62
7
100
AcDbSpline
 70
0
 71
3
 72
13
 73
9
 74
7
 40
0.000000
 40
0.000000
 40
0.000000
 40
0.000000
 40
11.839580
 40
20.855494
 40
27.010878
 40
28.455436
 40
29.607243
 40
30.523682
 40
30.523682
 40
30.523682
 40
30.523682
 10
63.780966
 20
42.710924
 30
0.0
 10
62.128778
 20
46.295193
 30
0.0
 10
59.218438
 20
52.608906
 30
0.0
 10
55.336059
 20
60.731016
 30
0.0
 10
52.844620
 20
65.682069
 30
0.0
 10
51.374287
 20
68.202218
 30
0.0
 10
50.746666
 20
69.191356
 30
0.0
 10
50.347780
 20
69.753759
 30
0.0
 10
50.171034
 20
70.002959
 30
0.0
 11
63.780966
 21
42.710924
 31
0.0
 11
58.796266
 21
53.450031
 31
0.0
 11
54.891633
 21
61.576564
 31
0.0
 11
52.048221
 21
67.035847
 31
0.0
 11
51.316534
 21
68.281392
 31
0.0
 11
50.695508
 21
69.251436
 31
0.0
 11
50.171034
 21
70.002959
 31
0.0
  0
LWPOLYLINE
  5
113
100
AcDbEntity
  8
Layer_1
 62
7
100
AcDbPolyline
 90
2
 70
0
 10
44.206214
 20
42.237304
 30
0.0
 10
63.780966
 20
42.710924
 30
0.0
  0
SPLINE
  5
114
100
AcDbEntity
  8
Layer_1
 62
7
100
AcDbSpline
 70
0
 71
3
 72
16
 73
12
 74
10
 40
0.000000
 40
0.000000
 40
0.000000
 40
0.000000
 40
0.446054
 40
0.885622
 40
1.345974
 40
5.623249
 40
8.419070
 40
10.513659
 40
14.039015
 40
20.374375
 40
30.056196
 40
30.056196
 40
30.056196
 40
30.056196
 10
50.171034
 20
70.002959
 30
0.0
 10
50.055700
 20
69.909141
 30
0.0
 10
49.826710
 20
69.722871
 30
0.0
 10
49.476305
 20
69.442365
 30
0.0
 10
48.211270
 20
68.267277
 30
0.0
 10
46.481611
 20
66.447449
 30
0.0
 10
44.626632
 20
63.983763
 30
0.0
 10
43.673103
 20
61.305173
 30
0.0
 10
43.517456
 20
57.289640
 30
0.0
 10
43.610112
 20
50.790199
 30
0.0
 10
43.981639
 20
45.459515
 30
0.0
 10
44.206214
 20
42.237304
 30
0.0
 11
50.171034
 21
70.002959
 31
0.0
 11
49.824635
 21
69.721939
 31
0.0
 11
49.485149
 21
69.442709
 31
0.0
 11
49.144586
 21
69.132966
 31
0.0
 11
46.211979
 21
66.019303
 31
0.0
 11
44.627057
 21
63.716124
 31
0.0
 11
43.913501
 21
61.746824
 31
0.0
 11
43.576424
 21
58.237619
 31
0.0
 11
43.640490
 21
51.902583
 31
0.0
 11
44.206214
 21
42.237304
 31
0.0
  0
SPLINE
  5
115
100
AcDbEntity
  8
Layer_1
 62
7
100
AcDbSpline
 70
0
 71
3
 72
16
 73
12
 74
10
 40
0.000000
 40
0.000000
 40
0.000000
 40
0.000000
 40
2.854625
 40
5.654790
 40
8.152856
 40
11.860111
 40
14.610260
 40
15.923522
 40
16.460011
 40
16.890424
 40
17.237935
 40
17.237935
 40
17.237935
 40
17.237935
 10
41.924221
 20
144.187410
 30
0.0
 10
42.389502
 20
143.357391
 30
0.0
 10
43.311188
 20
141.713189
 30
0.0
 10
44.636816
 20
139.340693
 30
0.0
 10
46.133133
 20
136.738653
 30
0.0
 10
47.684254
 20
134.185551
 30
0.0
 10
49.107898
 20
132.025684
 30
0.0
 10
49.936749
 20
130.729241
 30
0.0
 10
50.450275
 20
130.167106
 30
0.0
 10
50.764045
 20
129.860936
 30
0.0
 10
50.962158
 20
129.693517
 30
0.0
 10
51.050658
 20
129.618729
 30
0.0
 11
41.924221
 21
144.187410
 31
0.0
 11
43.319495
 21
141.697009
 31
0.0
 11
44.691204
 21
139.255834
 31
0.0
 11
45.939306
 21
137.091908
 31
0.0
 11
47.871320
 21
133.927881
 31
0.0
 11
49.365528
 21
131.619058
 31
0.0
 11
50.118696
 21
130.543235
 31
0.0
 11
50.478184
 21
130.145003
 31
0.0
 11
50.787634
 21
129.845845
 31
0.0
 11
51.050658
 21
129.618729
 31
0.0
  0
LWPOLYLINE
  5
116
100
AcDbEntity
  8
Layer_1
 62
7
100
AcDbPolyline
 90
2
 70
0
 10
44.206214
 20
42.237304
 30
0.0
 10
44.206214
 20
42.237304
 30
0.0
  0
SPLINE
  5
117
100
AcDbEntity
  8
Layer_1
 62
7
100
AcDbSpline
 70
0
 71
3
 72
13
 73
9
 74
7
 40
0.000000
 40
0.000000
 40
0.000000
 40
0.000000
 40
1.792805
 40
4.960594
 40
9.453121
 40
12.023113
 40
15.555787
 40
19.749622
 40
19.749622
 40
19.749622
 40
19.749622
 10
51.050658
 20
129.618729
 30
0.0
 10
51.422677
 20
130.086948
 30
0.0
 10
52.452033
 20
131.382486
 30
0.0
 10
54.065615
 20
134.099997
 30
0.0
 10
55.582048
 20
137.156752
 30
0.0
 10
56.943116
 20
140.416562
 30
0.0
 10
58.240248
 20
143.593966
 30
0.0
 10
59.195801
 20
145.985695
 30
0.0
 10
59.714460
 20
147.283890
 30
0.0
 11
51.050658
 21
129.618729
 31
0.0
 11
52.142862
 21
131.040432
 31
0.0
 11
53.810065
 21
133.734003
 31
0.0
 11
55.810531
 21
137.756556
 31
0.0
 11
56.816762
 21
140.121373
 31
0.0
 11
58.153232
 21
143.391485
 31
0.0
 11
59.714460
 21
147.283890
 31
0.0
  0
LWPOLYLINE
  5
118
100
AcDbEntity
  8
Layer_1
 62
7
100
AcDbPolyline
 90
2
 70
0
 10
59.714460
 20
147.283890
 30
0.0
 10
41.924221
 20
144.187410
 30
0.0
  0
LWPOLYLINE
  5
119
100
AcDbEntity
  8
Layer_1
 62
7
100
AcDbPolyline
 90
2
 70
0
 10
51.381118
 20
70.954194
 30
0.0
 10
51.381118
 20
70.954194
 30
0.0
  0
SPLINE
  5
11a
100
AcDbEntity
  8
Layer_1
 62
7
100
AcDbSpline
 70
0
 71
3
 72
13
 73
9
 74
7
 40
0.000000
 40
0.000000
 40
0.000000
 40
0.000000
 40
0.117360
 40
0.166611
 40
0.176193
 40
0.215342
 40
0.281193
 40
0.336446
 40
0.336446
 40
0.336446
 40
0.336446
 10
51.381118
 20
70.954194
 30
0.0
 10
51.408080
 20
70.967334
 30
0.0
 10
51.446357
 20
70.985988
 30
0.0
 10
51.539545
 20
71.030761
 30
0.0
 10
51.504662
 20
71.047764
 30
0.0
 10
51.476543
 20
71.007999
 30
0.0
 10
51.430318
 20
70.987662
 30
0.0
 10
51.396533
 20
70.964680
 30
0.0
 10
51.381118
 20
70.954194
 30
0.0
 11
51.381118
 21
70.954194
 31
0.0
 11
51.486736
 21
71.005365
 31
0.0
 11
51.524042
 21
71.037519
 31
0.0
 11
51.515397
 21
71.041652
 31
0.0
 11
51.482467
 21
71.020479
 31
0.0
 11
51.427600
 21
70.984066
 31
0.0
 11
51.381118
 21
70.954194
 31
0.0
  0
SPLINE
  5
11b
100
AcDbEntity
  8
Layer_1
 62
7
100
AcDbSpline
 70
0
 71
3
 72
10
 73
6
 74
4
 40
0.000000
 40
0.000000
 40
0.000000
 40
0.000000
 40
8.200173
 40
21.757184
 40
41.247039
 40
41.247039
 40
41.247039
 40
41.247039
 10
60.254467
 20
81.673203
 30
0.0
 10
60.859025
 20
79.004021
 30
0.0
 10
62.463074
 20
71.921988
 30
0.0
 10
67.705848
 20
59.158881
 30
0.0
 10
72.183449
 20
49.103829
 30
0.0
 10
74.824178
 20
43.173721
 30
0.0
 11
60.254467
 21
81.673203
 31
0.0
 11
62.233123
 21
73.715329
 31
0.0
 11
66.998382
 21
61.023408
 31
0.0
 11
74.824178
 21
43.173721
 31
0.0
  0
LWPOLYLINE
  5
11c
100
AcDbEntity
  8
Layer_1
 62
7
100
AcDbPolyline
 90
2
 70
0
 10
60.254411
 20
81.673768
 30
0.0
 10
60.254467
 20
81.673203
 30
0.0
  0
SPLINE
  5
11d
100
AcDbEntity
  8
Layer_1
 62
7
100
AcDbSpline
 70
0
 71
3
 72
10
 73
6
 74
4
 40
0.000000
 40
0.000000
 40
0.000000
 40
0.000000
 40
0.071819
 40
0.141573
 40
0.213008
 40
0.213008
 40
0.213008
 40
0.213008
 10
74.824178
 20
43.173721
 30
0.0
 10
74.834223
 20
43.151991
 30
0.0
 10
74.854025
 20
43.109155
 30
0.0
 10
74.883904
 20
43.044745
 30
0.0
 10
74.903604
 20
43.002004
 30
0.0
 10
74.913572
 20
42.980379
 30
0.0
 11
74.824178
 21
43.173721
 31
0.0
 11
74.854329
 21
43.108537
 31
0.0
 11
74.883643
 21
43.045242
 31
0.0
 11
74.913572
 21
42.980379
 31
0.0
  0
LWPOLYLINE
  5
11e
100
AcDbEntity
  8
Layer_1
 62
7
100
AcDbPolyline
 90
2
 70
0
 10
74.913572
 20
42.980379
 30
0.0
 10
100.958890
 20
43.611125
 30
0.0
  0
SPLINE
  5
11f
100
AcDbEntity
  8
Layer_1
 62
7
100
AcDbSpline
 70
0
 71
3
 72
10
 73
6
 74
4
 40
0.000000
 40
0.000000
 40
0.000000
 40
0.000000
 40
6.704311
 40
12.015790
 40
19.267557
 40
19.267557
 40
19.267557
 40
19.267557
 10
100.958890
 20
43.611125
 30
0.0
 10
102.062844
 20
45.576954
 30
0.0
 10
104.041405
 20
49.100208
 30
0.0
 10
104.943161
 20
55.579098
 30
0.0
 10
104.439910
 20
59.745356
 30
0.0
 10
104.149423
 20
62.150207
 30
0.0
 11
100.958890
 21
43.611125
 31
0.0
 11
103.829865
 21
49.669615
 31
0.0
 11
104.657303
 21
54.916247
 31
0.0
 11
104.149423
 21
62.150207
 31
0.0
  0
SPLINE
  5
120
100
AcDbEntity
  8
Layer_1
 62
7
100
AcDbSpline
 70
0
 71
3
 72
13
 73
9
 74
7
 40
0.000000
 40
0.000000
 40
0.000000
 40
0.000000
 40
10.320677
 40
21.217385
 40
28.565135
 40
31.176867
 40
33.033660
 40
34.016526
 40
34.016526
 40
34.016526
 40
34.016526
 10
104.149423
 20
62.150207
 30
0.0
 10
103.737069
 20
65.567016
 30
0.0
 10
102.889347
 20
72.591338
 30
0.0
 10
101.250640
 20
81.962375
 30
0.0
 10
100.176267
 20
88.855137
 30
0.0
 10
98.905295
 20
92.594708
 30
0.0
 10
98.049699
 20
94.212251
 30
0.0
 10
97.464358
 20
94.957262
 30
0.0
 10
97.261759
 20
95.215126
 30
0.0
 11
104.149423
 21
62.150207
 31
0.0
 11
102.824943
 21
72.385544
 31
0.0
 11
101.085144
 21
83.142466
 31
0.0
 11
99.628469
 21
90.344377
 31
0.0
 11
98.748701
 21
92.803473
 31
0.0
 11
97.852825
 21
94.429845
 31
0.0
 11
97.261759
 21
95.215126
 31
0.0
  0
LWPOLYLINE
  5
121
100
AcDbEntity
  8
Layer_1
 62
7
100
AcDbPolyline
 90
2
 70
0
 10
104.149423
 20
62.150207
 30
0.0
 10
104.149423
 20
62.150207
 30
0.0
  0
SPLINE
  5
122
100
AcDbEntity
  8
Layer_1
 62
7
100
AcDbSpline
 70
0
 71
3
 72
25
 73
21
 74
19
 40
0.000000
 40
0.000000
 40
0.000000
 40
0.000000
 40
0.498057
 40
1.247610
 40
2.118319
 40
3.609431
 40
5.031311
 40
6.115971
 40
8.787000
 40
14.116236
 40
20.993923
 40
27.205559
 40
31.800939
 40
34.964363
 40
36.838643
 40
37.889305
 40
38.846432
 40
39.393773
 40
40.536655
 40
42.391350
 40
42.391350
 40
42.391350
 40
42.391350
 10
97.261759
 20
95.215126
 30
0.0
 10
97.100137
 20
95.252990
 30
0.0
 10
96.695282
 20
95.347836
 30
0.0
 10
96.006741
 20
95.506991
 30
0.0
 10
94.972210
 20
95.616251
 30
0.0
 10
93.709437
 20
95.574587
 30
0.0
 10
92.379108
 20
95.478770
 30
0.0
 10
90.679139
 20
95.166856
 30
0.0
 10
87.765696
 20
94.332164
 30
0.0
 10
82.949753
 20
93.150417
 30
0.0
 10
77.003077
 20
91.621454
 30
0.0
 10
71.301796
 20
90.126650
 30
0.0
 10
66.828301
 20
88.819667
 30
0.0
 10
63.820823
 20
87.692791
 30
0.0
 10
61.964803
 20
86.858541
 30
0.0
 10
60.918765
 20
86.064541
 30
0.0
 10
60.466467
 20
85.320128
 30
0.0
 10
60.201056
 20
84.475303
 30
0.0
 10
60.114476
 20
83.285231
 30
0.0
 10
60.200594
 20
82.289681
 30
0.0
 10
60.253877
 20
81.673703
 30
0.0
 11
97.261759
 21
95.215126
 31
0.0
 11
96.776786
 21
95.328540
 31
0.0
 11
96.043536
 21
95.484013
 31
0.0
 11
95.178095
 21
95.579658
 31
0.0
 11
93.687066
 21
95.563935
 31
0.0
 11
92.270473
 21
95.441428
 31
0.0
 11
91.202391
 21
95.252515
 31
0.0
 11
88.615475
 21
94.587491
 31
0.0
 11
83.452920
 21
93.265074
 31
0.0
 11
76.789763
 21
91.560695
 31
0.0
 11
70.788500
 21
89.957802
 31
0.0
 11
66.391569
 21
88.621942
 31
0.0
 11
63.432961
 21
87.502170
 31
0.0
 11
61.756233
 21
86.664609
 31
0.0
 11
60.944385
 21
85.997682
 31
0.0
 11
60.440669
 21
85.183825
 31
0.0
 11
60.274203
 21
84.662412
 31
0.0
 11
60.155022
 21
83.525761
 31
0.0
 11
60.253877
 21
81.673703
 31
0.0
  0
SPLINE
  5
123
100
AcDbEntity
  8
Layer_1
 62
7
100
AcDbSpline
 70
0
 71
3
 72
13
 73
9
 74
7
 40
0.000000
 40
0.000000
 40
0.000000
 40
0.000000
 40
1.510255
 40
3.177284
 40
5.228935
 40
7.769366
 40
9.324071
 40
9.967963
 40
9.967963
 40
9.967963
 40
9.967963
 10
59.487525
 20
111.791121
 30
0.0
 10
59.550846
 20
111.290786
 30
0.0
 10
59.684061
 20
110.238179
 30
0.0
 10
60.209919
 20
108.569130
 30
0.0
 10
60.971985
 20
106.627901
 30
0.0
 10
61.807632
 20
104.755091
 30
0.0
 10
62.552639
 20
103.360215
 30
0.0
 10
62.940313
 20
102.738193
 30
0.0
 10
63.053849
 20
102.556025
 30
0.0
 11
59.487525
 21
111.791121
 31
0.0
 11
59.719583
 21
110.298800
 31
0.0
 11
60.187071
 21
108.698663
 31
0.0
 11
60.925487
 21
106.784501
 31
0.0
 11
61.975142
 21
104.471060
 31
0.0
 11
62.716846
 21
103.104684
 31
0.0
 11
63.053849
 21
102.556025
 31
0.0
  0
LWPOLYLINE
  5
124
100
AcDbEntity
  8
Layer_1
 62
7
100
AcDbPolyline
 90
2
 70
0
 10
60.253877
 20
81.673703
 30
0.0
 10
60.254411
 20
81.673768
 30
0.0
  0
SPLINE
  5
125
100
AcDbEntity
  8
Layer_1
 62
7
100
AcDbSpline
 70
0
 71
3
 72
25
 73
21
 74
19
 40
0.000000
 40
0.000000
 40
0.000000
 40
0.000000
 40
0.263897
 40
0.992020
 40
2.387813
 40
8.813670
 40
19.086719
 40
26.655860
 40
29.400031
 40
31.535935
 40
33.372559
 40
35.325014
 40
37.766059
 40
40.930551
 40
44.085645
 40
49.438847
 40
56.186876
 40
62.187236
 40
68.459082
 40
74.783188
 40
74.783188
 40
74.783188
 40
74.783188
 10
63.053849
 20
102.556025
 30
0.0
 10
63.141702
 20
102.550997
 30
0.0
 10
63.471950
 20
102.532098
 30
0.0
 10
64.268178
 20
102.571474
 30
0.0
 10
67.111423
 20
102.787641
 30
0.0
 10
72.973186
 20
104.352882
 30
0.0
 10
80.810998
 20
106.253709
 30
0.0
 10
87.486807
 20
107.938885
 30
0.0
 10
91.312766
 20
109.576248
 30
0.0
 10
93.198747
 20
110.815563
 30
0.0
 10
94.547543
 20
112.285553
 30
0.0
 10
95.543400
 20
114.129980
 30
0.0
 10
96.238567
 20
116.562314
 30
0.0
 10
96.707465
 20
119.457350
 30
0.0
 10
96.631896
 20
123.357649
 30
0.0
 10
96.328132
 20
128.431146
 30
0.0
 10
95.766021
 20
134.441437
 30
0.0
 10
94.992573
 20
140.734219
 30
0.0
 10
94.134526
 20
146.873759
 30
0.0
 10
93.477980
 20
151.020816
 30
0.0
 10
93.148345
 20
153.102948
 30
0.0
 11
63.053849
 21
102.556025
 31
0.0
 11
63.317446
 21
102.543437
 31
0.0
 11
64.045315
 21
102.562659
 31
0.0
 11
65.436521
 21
102.675713
 31
0.0
 11
71.724466
 21
103.999872
 31
0.0
 11
81.692051
 21
106.486391
 31
0.0
 11
88.957260
 21
108.609745
 31
0.0
 11
91.458755
 21
109.738018
 31
0.0
 11
93.221750
 21
110.943809
 31
0.0
 11
94.460816
 21
112.299502
 31
0.0
 11
95.406415
 21
114.007695
 31
0.0
 11
96.131149
 21
116.338674
 31
0.0
 11
96.612896
 21
119.466281
 31
0.0
 11
96.630405
 21
122.621327
 31
0.0
 11
96.329518
 21
127.966066
 31
0.0
 11
95.708473
 21
134.685456
 31
0.0
 11
94.987546
 21
140.642350
 31
0.0
 11
94.118253
 21
146.853660
 31
0.0
 11
93.148345
 21
153.102948
 31
0.0
  0
LWPOLYLINE
  5
126
100
AcDbEntity
  8
Layer_1
 62
7
100
AcDbPolyline
 90
2
 70
0
 10
93.148345
 20
153.102948
 30
0.0
 10
71.574115
 20
149.347611
 30
0.0
  0
LWPOLYLINE
  5
127
100
AcDbEntity
  8
Layer_1
 62
7
100
AcDbPolyline
 90
2
 70
0
 10
59.487525
 20
111.791121
 30
0.0
 10
59.487525
 20
111.791121
 30
0.0
  0
SPLINE
  5
128
100
AcDbEntity
  8
Layer_1
 62
7
100
AcDbSpline
 70
0
 71
3
 72
13
 73
9
 74
7
 40
0.000000
 40
0.000000
 40
0.000000
 40
0.000000
 40
2.341423
 40
4.746903
 40
7.285777
 40
24.346400
 40
34.302180
 40
39.587348
 40
39.587348
 40
39.587348
 40
39.587348
 10
71.574115
 20
149.347611
 30
0.0
 10
71.289254
 20
148.620969
 30
0.0
 10
70.711738
 20
147.147804
 30
0.0
 10
69.829432
 20
144.885315
 30
0.0
 10
67.178758
 20
138.044044
 30
0.0
 10
63.853091
 20
128.812664
 30
0.0
 10
60.046336
 20
118.632254
 30
0.0
 10
59.631411
 20
113.552610
 30
0.0
 10
59.487525
 20
111.791121
 30
0.0
 11
71.574115
 21
149.347611
 31
0.0
 11
70.720180
 21
147.167461
 31
0.0
 11
69.846337
 21
144.926316
 31
0.0
 11
68.930627
 21
142.558330
 31
0.0
 11
62.996239
 21
126.563084
 31
0.0
 11
60.085277
 21
117.042377
 31
0.0
 11
59.487525
 21
111.791121
 31
0.0
  0
LWPOLYLINE
  5
129
100
AcDbEntity
  8
Layer_1
 62
7
100
AcDbPolyline
 90
2
 70
0
 10
104.007635
 20
154.993272
 30
0.0
 10
104.007689
 20
154.992708
 30
0.0
  0
LWPOLYLINE
  5
12a
100
AcDbEntity
  8
Layer_1
 62
7
100
AcDbPolyline
 90
2
 70
0
 10
135.700564
 20
160.509963
 30
0.0
 10
104.007635
 20
154.993272
 30
0.0
  0
SPLINE
  5
12b
100
AcDbEntity
  8
Layer_1
 62
7
100
AcDbSpline
 70
0
 71
3
 72
40
 73
36
 74
34
 40
0.000000
 40
0.000000
 40
0.000000
 40
0.000000
 40
3.691448
 40
7.551030
 40
11.793323
 40
22.146949
 40
29.821916
 40
35.149317
 40
38.395484
 40
40.290014
 40
42.002380
 40
42.044553
 40
42.598583
 40
43.511283
 40
44.645634
 40
45.985544
 40
47.494827
 40
50.898712
 40
54.654890
 40
58.570685
 40
61.134570
 40
62.858792
 40
63.842013
 40
64.271103
 40
64.583896
 40
65.275638
 40
66.539051
 40
67.358803
 40
69.223930
 40
73.020299
 40
79.021663
 40
87.517350
 40
95.191226
 40
103.188450
 40
111.170588
 40
111.170588
 40
111.170588
 40
111.170588
 10
104.007689
 20
154.992708
 30
0.0
 10
104.199745
 20
153.777274
 30
0.0
 10
104.592605
 20
151.291047
 30
0.0
 10
105.213136
 20
147.409741
 30
0.0
 10
106.206953
 20
141.335412
 30
0.0
 10
107.455898
 20
134.045527
 30
0.0
 10
109.079245
 20
126.342879
 30
0.0
 10
110.403453
 20
121.276076
 30
0.0
 10
111.957715
 20
117.728826
 30
0.0
 10
112.695595
 20
116.354804
 30
0.0
 10
115.068926
 20
114.722515
 30
0.0
 10
114.634863
 20
115.442923
 30
0.0
 10
115.583299
 20
114.974169
 30
0.0
 10
116.163398
 20
115.029375
 30
0.0
 10
117.392682
 20
114.824856
 30
0.0
 10
118.678677
 20
114.732412
 30
0.0
 10
120.773606
 20
114.584167
 30
0.0
 10
123.653682
 20
114.484900
 30
0.0
 10
127.348835
 20
114.458716
 30
0.0
 10
130.760566
 20
114.537009
 30
0.0
 10
133.490159
 20
114.669955
 30
0.0
 10
135.248766
 20
114.764670
 30
0.0
 10
136.280497
 20
114.906217
 30
0.0
 10
136.857135
 20
114.981450
 30
0.0
 10
137.284791
 20
115.207217
 30
0.0
 10
137.876576
 20
115.671235
 30
0.0
 10
138.801246
 20
116.005604
 30
0.0
 10
139.425512
 20
117.237460
 30
0.0
 10
139.445520
 20
119.423907
 30
0.0
 10
139.638617
 20
123.293509
 30
0.0
 10
139.148725
 20
129.392385
 30
0.0
 10
138.515861
 20
136.747525
 30
0.0
 10
137.650981
 20
144.759243
 30
0.0
 10
136.726629
 20
152.588791
 30
0.0
 10
136.042370
 20
157.871235
 30
0.0
 10
135.700564
 20
160.509963
 30
0.0
 11
104.007689
 21
154.992708
 31
0.0
 11
104.584922
 21
151.346670
 31
0.0
 11
105.195264
 21
147.535652
 31
0.0
 11
105.880611
 21
143.349085
 31
0.0
 11
107.685940
 21
133.154068
 31
0.0
 11
109.296742
 21
125.650040
 31
0.0
 11
110.794789
 21
120.537599
 31
0.0
 11
112.074758
 21
117.554433
 31
0.0
 11
113.255275
 21
116.072669
 31
0.0
 11
114.754042
 21
115.244482
 31
0.0
 11
114.733539
 21
115.281336
 31
0.0
 11
115.272985
 21
115.155048
 31
0.0
 11
116.170905
 21
114.991461
 31
0.0
 11
117.297211
 21
114.856603
 31
0.0
 11
118.631685
 21
114.736027
 31
0.0
 11
120.137566
 21
114.634766
 31
0.0
 11
123.538925
 21
114.503637
 31
0.0
 11
127.295012
 21
114.477508
 31
0.0
 11
131.209771
 21
114.567597
 31
0.0
 11
133.770908
 21
114.686264
 31
0.0
 11
135.490841
 21
114.807808
 31
0.0
 11
136.466416
 21
114.930185
 31
0.0
 11
136.887085
 21
115.014782
 31
0.0
 11
137.168109
 21
115.152129
 31
0.0
 11
137.745100
 21
115.533689
 31
0.0
 11
138.814904
 21
116.205800
 31
0.0
 11
139.221427
 21
116.917651
 31
0.0
 11
139.447834
 21
118.768986
 31
0.0
 11
139.538362
 21
122.564275
 31
0.0
 11
139.211137
 21
128.556712
 31
0.0
 11
138.460071
 21
137.019134
 31
0.0
 11
137.650185
 21
144.650153
 31
0.0
 11
136.711063
 21
152.592045
 31
0.0
 11
135.700564
 21
160.509963
 31
0.0
  0
LWPOLYLINE
  5
12c
100
AcDbEntity
  8
Layer_1
 62
7
100
AcDbPolyline
 90
2
 70
0
 10
112.797034
 20
86.429432
 30
0.0
 10
112.797088
 20
86.428868
 30
0.0
  0
SPLINE
  5
12d
100
AcDbEntity
  8
Layer_1
 62
7
100
AcDbSpline
 70
0
 71
3
 72
19
 73
15
 74
13
 40
0.000000
 40
0.000000
 40
0.000000
 40
0.000000
 40
9.247572
 40
18.085934
 40
24.075644
 40
27.626365
 40
30.278942
 40
33.371981
 40
38.133225
 40
45.266724
 40
55.220715
 40
62.626925
 40
68.275896
 40
72.352116
 40
72.352116
 40
72.352116
 40
72.352116
 10
112.797088
 20
86.428868
 30
0.0
 10
113.162419
 20
83.367829
 30
0.0
 10
113.876914
 20
77.381205
 30
0.0
 10
115.166339
 20
69.457215
 30
0.0
 10
116.415841
 20
63.456996
 30
0.0
 10
117.660519
 20
59.571308
 30
0.0
 10
119.379708
 20
56.915273
 30
0.0
 10
122.369037
 20
54.968592
 30
0.0
 10
126.961981
 20
53.009658
 30
0.0
 10
133.942648
 20
50.883906
 30
0.0
 10
141.840039
 20
48.822596
 30
0.0
 10
149.294364
 20
47.018691
 30
0.0
 10
154.863658
 20
45.742827
 30
0.0
 10
158.066588
 20
45.237703
 30
0.0
 10
159.409065
 20
45.025985
 30
0.0
 11
112.797088
 21
86.428868
 31
0.0
 11
113.959522
 21
77.254647
 31
0.0
 11
115.394918
 21
68.533622
 31
0.0
 11
116.709873
 21
62.690034
 31
0.0
 11
117.920589
 21
59.352102
 31
0.0
 11
119.420200
 21
57.164105
 31
0.0
 11
121.921129
 21
55.344147
 31
0.0
 11
126.259892
 21
53.383387
 31
0.0
 11
133.050214
 21
51.197446
 31
0.0
 11
142.670335
 21
48.641042
 31
0.0
 11
149.868370
 21
46.897412
 31
0.0
 11
155.388896
 21
45.699641
 31
0.0
 11
159.409065
 21
45.025985
 31
0.0
  0
LWPOLYLINE
  5
12e
100
AcDbEntity
  8
Layer_1
 62
7
100
AcDbPolyline
 90
2
 70
0
 10
159.409065
 20
45.025985
 30
0.0
 10
163.904716
 20
45.135219
 30
0.0
  0
SPLINE
  5
12f
100
AcDbEntity
  8
Layer_1
 62
7
100
AcDbSpline
 70
0
 71
3
 72
46
 73
42
 74
40
 40
0.000000
 40
0.000000
 40
0.000000
 40
0.000000
 40
0.147865
 40
0.365890
 40
0.694015
 40
1.558585
 40
2.934278
 40
5.293256
 40
8.944569
 40
14.024364
 40
20.732533
 40
29.990943
 40
36.735395
 40
41.350736
 40
44.125015
 40
45.673940
 40
46.929389
 40
47.520376
 40
49.745158
 40
52.771355
 40
56.073614
 40
59.471334
 40
62.675701
 40
67.634152
 40
73.233579
 40
81.677266
 40
86.426116
 40
90.651173
 40
94.275309
 40
97.251992
 40
99.365595
 40
100.270095
 40
101.536036
 40
103.176724
 40
105.221712
 40
106.586510
 40
109.435762
 40
113.164379
 40
113.715492
 40
114.277049
 40
114.848351
 40
114.848351
 40
114.848351
 40
114.848351
 10
163.904716
 20
45.135219
 30
0.0
 10
163.941635
 20
45.167989
 30
0.0
 10
164.032993
 20
45.249079
 30
0.0
 10
164.176875
 20
45.431234
 30
0.0
 10
164.475778
 20
45.793402
 30
0.0
 10
164.943844
 20
46.520029
 30
0.0
 10
165.381237
 20
48.004328
 30
0.0
 10
165.809968
 20
50.426597
 30
0.0
 10
166.185905
 20
54.108681
 30
0.0
 10
166.500015
 20
59.244876
 30
0.0
 10
166.778295
 20
66.256077
 30
0.0
 10
167.006481
 20
73.820212
 30
0.0
 10
167.132623
 20
80.699335
 30
0.0
 10
166.980147
 20
85.397610
 30
0.0
 10
166.754642
 20
88.392882
 30
0.0
 10
166.254302
 20
90.170734
 30
0.0
 10
165.696777
 20
91.227893
 30
0.0
 10
164.488080
 20
91.885763
 30
0.0
 10
163.043281
 20
93.199551
 30
0.0
 10
160.625102
 20
94.729352
 30
0.0
 10
157.800172
 20
96.316392
 30
0.0
 10
154.855322
 20
97.814239
 30
0.0
 10
151.342126
 20
99.394763
 30
0.0
 10
146.986201
 20
100.916930
 30
0.0
 10
140.658086
 20
101.630539
 30
0.0
 10
134.397644
 20
101.722604
 30
0.0
 10
128.590986
 20
101.720523
 30
0.0
 10
124.392565
 20
101.574250
 30
0.0
 10
120.793928
 20
101.331266
 30
0.0
 10
117.901947
 20
100.964348
 30
0.0
 10
115.965977
 20
100.514868
 30
0.0
 10
114.546281
 20
100.222958
 30
0.0
 10
113.558177
 20
99.341060
 30
0.0
 10
112.700810
 20
97.924157
 30
0.0
 10
112.224928
 20
96.267740
 30
0.0
 10
112.286881
 20
94.175236
 30
0.0
 10
112.356489
 20
91.531836
 30
0.0
 10
112.532080
 20
89.159654
 30
0.0
 10
112.684131
 20
87.553143
 30
0.0
 10
112.738953
 20
86.994493
 30
0.0
 10
112.777920
 20
86.618889
 30
0.0
 10
112.797570
 20
86.429472
 30
0.0
 11
163.904716
 21
45.135219
 31
0.0
 11
164.012943
 21
45.235970
 31
0.0
 11
164.154446
 21
45.401837
 31
0.0
 11
164.359440
 21
45.658047
 31
0.0
 11
164.821621
 21
46.388711
 31
0.0
 11
165.268948
 21
47.689645
 31
0.0
 11
165.712594
 21
50.006529
 31
0.0
 11
166.116786
 21
53.635402
 31
0.0
 11
166.451294
 21
58.704171
 31
0.0
 11
166.735627
 21
65.406312
 31
0.0
 11
167.010692
 21
74.660635
 31
0.0
 11
167.077954
 21
81.404752
 31
0.0
 11
166.918660
 21
86.017343
 31
0.0
 11
166.608970
 21
88.774283
 31
0.0
 11
166.164233
 21
90.257987
 31
0.0
 11
165.474407
 21
91.306935
 31
0.0
 11
164.979284
 21
91.629608
 31
0.0
 11
163.208107
 21
92.975932
 31
0.0
 11
160.691971
 21
94.657280
 31
0.0
 11
157.816695
 21
96.281381
 31
0.0
 11
154.786350
 21
97.818100
 31
0.0
 11
151.859313
 21
99.122103
 31
0.0
 11
147.150611
 21
100.675925
 31
0.0
 11
141.605060
 21
101.450812
 31
0.0
 11
133.165463
 21
101.713583
 31
0.0
 11
128.416664
 21
101.691582
 31
0.0
 11
124.194233
 21
101.542633
 31
0.0
 11
120.579800
 21
101.277615
 31
0.0
 11
117.631050
 21
100.870785
 31
0.0
 11
115.563000
 21
100.434335
 31
0.0
 11
114.693246
 21
100.186047
 31
0.0
 11
113.702820
 21
99.397590
 31
0.0
 11
112.828456
 21
98.009301
 31
0.0
 11
112.288540
 21
96.036875
 31
0.0
 11
112.271686
 21
94.672181
 31
0.0
 11
112.368365
 21
91.824569
 31
0.0
 11
112.632357
 21
88.105310
 31
0.0
 11
112.684117
 21
87.556633
 31
0.0
 11
112.739149
 21
86.997779
 31
0.0
 11
112.797570
 21
86.429472
 31
0.0
  0
SPLINE
  5
130
100
AcDbEntity
  8
Layer_1
 62
7
100
AcDbSpline
 70
0
 71
3
 72
13
 73
9
 74
7
 40
0.000000
 40
0.000000
 40
0.000000
 40
0.000000
 40
5.496093
 40
10.872436
 40
15.907521
 40
22.807213
 40
28.580271
 40
33.208100
 40
33.208100
 40
33.208100
 40
33.208100
 10
146.192378
 20
162.335269
 30
0.0
 10
146.410704
 20
160.516292
 30
0.0
 10
146.842598
 20
156.917971
 30
0.0
 10
147.499192
 20
151.656247
 30
0.0
 10
148.271018
 20
145.937500
 30
0.0
 10
149.152552
 20
140.101188
 30
0.0
 10
150.088832
 20
134.409470
 30
0.0
 10
150.800832
 20
131.016047
 30
0.0
 10
151.117633
 20
129.506159
 30
0.0
 11
146.192378
 21
162.335269
 31
0.0
 11
146.851667
 21
156.878862
 31
0.0
 11
147.522467
 21
151.544531
 31
0.0
 11
148.198922
 21
146.555093
 31
0.0
 11
149.224927
 21
139.732113
 31
0.0
 11
150.196751
 21
134.041440
 31
0.0
 11
151.117633
 21
129.506159
 31
0.0
  0
LWPOLYLINE
  5
131
100
AcDbEntity
  8
Layer_1
 62
7
100
AcDbPolyline
 90
2
 70
0
 10
112.797570
 20
86.429472
 30
0.0
 10
112.797034
 20
86.429432
 30
0.0
  0
SPLINE
  5
132
100
AcDbEntity
  8
Layer_1
 62
7
100
AcDbSpline
 70
0
 71
3
 72
16
 73
12
 74
10
 40
0.000000
 40
0.000000
 40
0.000000
 40
0.000000
 40
1.159598
 40
2.399432
 40
3.746969
 40
11.252031
 40
20.733140
 40
32.198079
 40
33.905103
 40
35.410688
 40
36.949223
 40
36.949223
 40
36.949223
 40
36.949223
 10
151.117633
 20
129.506159
 30
0.0
 10
151.254131
 20
129.867791
 30
0.0
 10
151.536570
 20
130.616079
 30
0.0
 10
151.960913
 20
131.790835
 30
0.0
 10
153.054499
 20
134.972387
 30
0.0
 10
154.851460
 20
140.815287
 30
0.0
 10
157.435619
 20
149.940014
 30
0.0
 10
159.416565
 20
157.226891
 30
0.0
 10
160.649638
 20
161.961577
 30
0.0
 10
161.024402
 20
163.500346
 30
0.0
 10
161.272730
 20
164.484199
 30
0.0
 10
161.398238
 20
164.981450
 30
0.0
 11
151.117633
 21
129.506159
 31
0.0
 11
151.524625
 21
130.591988
 31
0.0
 11
151.945809
 21
131.758089
 31
0.0
 11
152.385166
 21
133.031989
 31
0.0
 11
154.633951
 21
140.192221
 31
0.0
 11
157.240922
 21
149.307875
 31
0.0
 11
160.235575
 21
160.374801
 31
0.0
 11
160.661906
 21
162.027730
 31
0.0
 11
161.023812
 21
163.489171
 31
0.0
 11
161.398238
 21
164.981450
 31
0.0
  0
SPLINE
  5
133
100
AcDbEntity
  8
Layer_1
 62
7
100
AcDbSpline
 70
0
 71
3
 72
10
 73
6
 74
4
 40
0.000000
 40
0.000000
 40
0.000000
 40
0.000000
 40
0.675238
 40
1.126800
 40
1.390472
 40
1.390472
 40
1.390472
 40
1.390472
 10
159.109323
 20
112.160304
 30
0.0
 10
159.132716
 20
111.936433
 30
0.0
 10
159.171753
 20
111.562849
 30
0.0
 10
159.234285
 20
111.103505
 30
0.0
 10
159.272655
 20
110.868197
 30
0.0
 10
159.286801
 20
110.781451
 30
0.0
 11
159.109323
 21
112.160304
 31
0.0
 11
159.183681
 21
111.489173
 31
0.0
 11
159.245208
 21
111.041822
 31
0.0
 11
159.286801
 21
110.781451
 31
0.0
  0
LWPOLYLINE
  5
134
100
AcDbEntity
  8
Layer_1
 62
7
100
AcDbPolyline
 90
2
 70
0
 10
161.398238
 20
164.981450
 30
0.0
 10
146.192378
 20
162.335269
 30
0.0
  0
LWPOLYLINE
  5
135
100
AcDbEntity
  8
Layer_1
 62
7
100
AcDbPolyline
 90
2
 70
0
 10
172.706594
 20
103.194615
 30
0.0
 10
172.706594
 20
103.194615
 30
0.0
  0
LWPOLYLINE
  5
136
100
AcDbEntity
  8
Layer_1
 62
7
100
AcDbPolyline
 90
2
 70
0
 10
175.573625
 20
103.283399
 30
0.0
 10
175.573625
 20
103.283399
 30
0.0
  0
SPLINE
  5
137
100
AcDbEntity
  8
Layer_1
 62
7
100
AcDbSpline
 70
0
 71
3
 72
34
 73
30
 74
28
 40
0.000000
 40
0.000000
 40
0.000000
 40
0.000000
 40
0.266147
 40
0.726015
 40
1.417534
 40
3.187141
 40
5.832785
 40
8.825413
 40
11.784215
 40
14.233166
 40
15.495607
 40
16.073234
 40
17.279689
 40
18.367107
 40
20.223590
 40
24.245609
 40
29.232839
 40
34.331762
 40
38.970927
 40
42.381335
 40
45.185390
 40
46.853725
 40
48.147484
 40
50.111813
 40
53.476042
 40
58.487242
 40
70.773309
 40
87.755453
 40
102.027026
 40
102.027026
 40
102.027026
 40
102.027026
 10
159.286801
 20
110.781451
 30
0.0
 10
159.350886
 20
110.720096
 30
0.0
 10
159.525701
 20
110.552726
 30
0.0
 10
159.876635
 20
110.236316
 30
0.0
 10
160.609258
 20
109.594094
 30
0.0
 10
162.016219
 20
108.629143
 30
0.0
 10
164.109752
 20
107.319919
 30
0.0
 10
166.601962
 20
105.908898
 30
0.0
 10
169.111802
 20
104.638902
 30
0.0
 10
171.163585
 20
103.843005
 30
0.0
 10
172.469599
 20
103.155571
 30
0.0
 10
173.497404
 20
103.190679
 30
0.0
 10
174.447464
 20
103.172351
 30
0.0
 10
175.844348
 20
103.247840
 30
0.0
 10
177.982859
 20
104.233811
 30
0.0
 10
181.368550
 20
105.473096
 30
0.0
 10
185.668449
 20
107.402273
 30
0.0
 10
190.083101
 20
109.544142
 30
0.0
 10
193.978728
 20
111.551468
 30
0.0
 10
197.126370
 20
113.347753
 30
0.0
 10
199.303023
 20
114.804580
 30
0.0
 10
200.782503
 20
116.083648
 30
0.0
 10
201.482294
 20
117.613634
 30
0.0
 10
201.644981
 20
119.839029
 30
0.0
 10
201.493939
 20
123.277987
 30
0.0
 10
200.716661
 20
130.131084
 30
0.0
 10
198.462763
 20
141.339480
 30
0.0
 10
195.526292
 20
155.552040
 30
0.0
 10
193.056028
 20
165.673943
 30
0.0
 10
191.928016
 20
170.295968
 30
0.0
 11
159.286801
 21
110.781451
 31
0.0
 11
159.479716
 21
110.598099
 31
0.0
 11
159.819882
 21
110.288638
 31
0.0
 11
160.343658
 21
109.837133
 31
0.0
 11
161.779899
 21
108.803343
 31
0.0
 11
164.020731
 21
107.396892
 31
0.0
 11
166.625140
 21
105.922826
 31
0.0
 11
169.278425
 21
104.613402
 31
0.0
 11
171.523546
 21
103.635246
 31
0.0
 11
172.706594
 21
103.194615
 31
0.0
 11
173.284039
 21
103.180084
 31
0.0
 11
174.490473
 21
103.187183
 31
0.0
 11
175.573625
 21
103.283399
 31
0.0
 11
177.320743
 21
103.911181
 31
0.0
 11
181.055563
 21
105.403746
 31
0.0
 11
185.622125
 21
107.408486
 31
0.0
 11
190.211537
 21
109.630268
 31
0.0
 11
194.326017
 21
111.773374
 31
0.0
 11
197.276237
 21
113.484245
 31
0.0
 11
199.582262
 21
115.079544
 31
0.0
 11
200.770992
 21
116.250126
 31
0.0
 11
201.326685
 21
117.418465
 31
0.0
 11
201.582223
 21
119.366102
 31
0.0
 11
201.486901
 21
122.728981
 31
0.0
 11
200.949498
 21
127.711282
 31
0.0
 11
198.762804
 21
139.801187
 31
0.0
 11
195.236483
 21
156.413179
 31
0.0
 11
191.928016
 21
170.295968
 31
0.0
  0
LWPOLYLINE
  5
138
100
AcDbEntity
  8
Layer_1
 62
7
100
AcDbPolyline
 90
2
 70
0
 10
191.928016
 20
170.295968
 30
0.0
 10
172.611423
 20
166.933801
 30
0.0
  0
LWPOLYLINE
  5
139
100
AcDbEntity
  8
Layer_1
 62
7
100
AcDbPolyline
 90
2
 70
0
 10
159.108227
 20
112.160200
 30
0.0
 10
159.109323
 20
112.160304
 30
0.0
  0
SPLINE
  5
13a
100
AcDbEntity
  8
Layer_1
 62
7
100
AcDbSpline
 70
0
 71
3
 72
13
 73
9
 74
7
 40
0.000000
 40
0.000000
 40
0.000000
 40
0.000000
 40
6.807457
 40
15.293489
 40
25.865773
 40
42.436644
 40
51.877175
 40
56.512788
 40
56.512788
 40
56.512788
 40
56.512788
 10
172.611423
 20
166.933801
 30
0.0
 10
171.956126
 20
164.761242
 30
0.0
 10
170.483949
 20
159.880417
 30
0.0
 10
168.138735
 20
151.584288
 30
0.0
 10
164.934100
 20
140.142551
 30
0.0
 10
161.920134
 20
128.353492
 30
0.0
 10
159.363128
 20
118.403126
 30
0.0
 10
159.171376
 20
113.706810
 30
0.0
 10
159.108227
 20
112.160200
 30
0.0
 11
172.611423
 21
166.933801
 31
0.0
 11
170.662479
 21
160.411295
 31
0.0
 11
168.330630
 21
152.251931
 31
0.0
 11
165.504763
 21
142.064308
 31
0.0
 11
161.321628
 21
126.030121
 31
0.0
 11
159.404249
 21
116.786351
 31
0.0
 11
159.108227
 21
112.160200
 31
0.0
  0
LWPOLYLINE
  5
13b
100
AcDbEntity
  8
Layer_1
 62
7
100
AcDbPolyline
 90
2
 70
0
 10
178.551106
 20
45.489662
 30
0.0
 10
213.150134
 20
46.327808
 30
0.0
  0
SPLINE
  5
13c
100
AcDbEntity
  8
Layer_1
 62
7
100
AcDbSpline
 70
0
 71
3
 72
46
 73
42
 74
40
 40
0.000000
 40
0.000000
 40
0.000000
 40
0.000000
 40
11.379825
 40
19.708686
 40
25.601358
 40
29.989601
 40
33.758158
 40
38.111858
 40
42.695512
 40
47.054066
 40
51.027400
 40
54.489138
 40
57.165958
 40
58.673899
 40
59.465530
 40
59.908838
 40
60.085277
 40
60.176920
 40
60.425745
 40
61.022589
 40
63.595924
 40
68.088352
 40
74.621334
 40
81.536301
 40
86.598801
 40
90.223521
 40
92.984089
 40
95.675404
 40
99.058256
 40
106.782295
 40
115.231454
 40
120.963589
 40
123.741779
 40
125.825971
 40
128.975688
 40
134.529342
 40
143.175228
 40
155.529429
 40
160.967559
 40
165.507609
 40
169.432260
 40
169.432260
 40
169.432260
 40
169.432260
 10
213.150134
 20
46.327808
 30
0.0
 10
215.984533
 20
48.848628
 30
0.0
 10
220.893421
 20
53.214430
 30
0.0
 10
227.124511
 20
59.049682
 30
0.0
 10
231.409416
 20
63.539478
 30
0.0
 10
234.278983
 20
67.266270
 30
0.0
 10
236.154445
 20
71.014427
 30
0.0
 10
237.509854
 20
75.031110
 30
0.0
 10
238.867141
 20
79.249409
 30
0.0
 10
240.055313
 20
83.388510
 30
0.0
 10
241.039787
 20
87.194475
 30
0.0
 10
241.743668
 20
90.494094
 30
0.0
 10
242.140267
 20
93.008838
 30
0.0
 10
242.344899
 20
94.662381
 30
0.0
 10
242.287923
 20
95.576425
 30
0.0
 10
242.224722
 20
96.044583
 30
0.0
 10
242.154821
 20
96.271407
 30
0.0
 10
242.080648
 20
96.428963
 30
0.0
 10
241.822978
 20
96.622775
 30
0.0
 10
240.879371
 20
97.243216
 30
0.0
 10
238.460502
 20
98.164985
 30
0.0
 10
234.154019
 20
99.521717
 30
0.0
 10
228.358212
 20
101.035627
 30
0.0
 10
222.364860
 20
102.490948
 30
0.0
 10
217.268066
 20
103.541319
 30
0.0
 10
213.473036
 20
104.000541
 30
0.0
 10
210.430235
 20
103.915021
 30
0.0
 10
207.556090
 20
103.201499
 30
0.0
 10
203.273208
 20
101.513946
 30
0.0
 10
197.369022
 20
98.750452
 30
0.0
 10
190.830480
 20
95.476295
 30
0.0
 10
185.934411
 20
92.684300
 30
0.0
 10
182.904294
 20
90.807891
 30
0.0
 10
181.253688
 20
88.621348
 30
0.0
 10
180.484351
 20
85.045520
 30
0.0
 10
179.645032
 20
79.350495
 30
0.0
 10
179.139361
 20
70.490380
 30
0.0
 10
178.743246
 20
61.694465
 30
0.0
 10
178.505619
 20
54.253114
 30
0.0
 10
178.444577
 20
49.618423
 30
0.0
 10
178.517360
 20
46.797555
 30
0.0
 10
178.551106
 20
45.489662
 30
0.0
 11
213.150134
 21
46.327808
 31
0.0
 11
221.615988
 21
53.932393
 31
0.0
 11
227.653364
 21
59.669990
 31
0.0
 11
231.667987
 21
63.983503
 31
0.0
 11
234.277275
 21
67.511717
 31
0.0
 11
235.991127
 21
70.868014
 31
0.0
 11
237.475584
 21
74.960824
 31
0.0
 11
238.866419
 21
79.328370
 31
0.0
 11
240.071324
 21
83.517069
 31
0.0
 11
241.053050
 21
87.367212
 31
0.0
 11
241.763669
 21
90.755227
 31
0.0
 11
242.182493
 21
93.399079
 31
0.0
 11
242.313152
 21
94.901348
 31
0.0
 11
242.268505
 21
95.691720
 31
0.0
 11
242.195813
 21
96.129027
 31
0.0
 11
242.141237
 21
96.296813
 31
0.0
 11
242.099961
 21
96.378635
 31
0.0
 11
241.918570
 21
96.548961
 31
0.0
 11
241.420402
 21
96.877672
 31
0.0
 11
239.065359
 21
97.914892
 31
0.0
 11
234.788554
 21
99.289974
 31
0.0
 11
228.479322
 21
100.985100
 31
0.0
 11
221.753528
 21
102.591482
 31
0.0
 11
216.784117
 21
103.557846
 31
0.0
 11
213.178892
 21
103.933278
 31
0.0
 11
210.420874
 21
103.814647
 31
0.0
 11
207.798865
 21
103.207816
 31
0.0
 11
204.629427
 21
102.025298
 31
0.0
 11
197.600560
 21
98.822829
 31
0.0
 11
190.068800
 21
94.993876
 31
0.0
 11
185.091993
 21
92.149800
 31
0.0
 11
182.832784
 21
90.532917
 31
0.0
 11
181.584993
 21
88.863524
 31
0.0
 11
180.681940
 21
85.846039
 31
0.0
 11
179.858345
 21
80.353793
 31
0.0
 11
179.224434
 21
71.731177
 31
0.0
 11
178.676873
 21
59.389117
 31
0.0
 11
178.514586
 21
53.953409
 31
0.0
 11
178.473504
 21
49.413545
 31
0.0
 11
178.551106
 21
45.489662
 31
0.0
  0
LWPOLYLINE
  5
13d
100
AcDbEntity
  8
Layer_1
 62
7
100
AcDbPolyline
 90
2
 70
0
 10
178.551106
 20
45.489662
 30
0.0
 10
178.551106
 20
45.489662
 30
0.0
  0
SPLINE
  5
13e
100
AcDbEntity
  8
Layer_1
 62
7
100
AcDbSpline
 70
0
 71
3
 72
37
 73
33
 74
31
 40
0.000000
 40
0.000000
 40
0.000000
 40
0.000000
 40
5.055640
 40
11.129704
 40
18.556394
 40
33.245069
 40
43.563886
 40
50.259160
 40
54.188204
 40
56.919584
 40
60.451456
 40
63.529963
 40
67.429694
 40
71.607507
 40
75.648019
 40
78.921421
 40
80.555448
 40
81.941519
 40
82.510578
 40
83.500571
 40
85.790163
 40
89.697660
 40
95.267284
 40
99.858529
 40
108.197691
 40
118.685870
 40
129.881332
 40
140.504062
 40
149.197520
 40
149.677205
 40
150.179871
 40
150.672353
 40
150.672353
 40
150.672353
 40
150.672353
 10
203.538763
 20
172.316871
 30
0.0
 10
203.859244
 20
170.662387
 30
0.0
 10
204.564766
 20
167.020134
 30
0.0
 10
205.818642
 20
160.963162
 30
0.0
 10
207.779619
 20
151.772205
 30
0.0
 10
210.125190
 20
141.227379
 30
0.0
 10
212.605081
 20
130.928130
 30
0.0
 10
214.823471
 20
124.338922
 30
0.0
 10
216.654693
 20
120.194437
 30
0.0
 10
219.292580
 20
117.908013
 30
0.0
 10
222.259944
 20
116.868371
 30
0.0
 10
225.554159
 20
115.696661
 30
0.0
 10
229.140481
 20
114.696424
 30
0.0
 10
233.051697
 20
113.685896
 30
0.0
 10
236.805605
 20
112.924162
 30
0.0
 10
239.746696
 20
112.400760
 30
0.0
 10
241.828438
 20
112.179107
 30
0.0
 10
243.026777
 20
112.039097
 30
0.0
 10
244.009187
 20
112.387336
 30
0.0
 10
244.442140
 20
113.714412
 30
0.0
 10
245.329846
 20
115.860221
 30
0.0
 10
245.965682
 20
119.801899
 30
0.0
 10
246.597304
 20
124.424615
 30
0.0
 10
246.895125
 20
130.595349
 30
0.0
 10
247.257800
 20
138.388015
 30
0.0
 10
247.630982
 20
148.390708
 30
0.0
 10
247.998754
 20
159.152901
 30
0.0
 10
248.248184
 20
169.319922
 30
0.0
 10
248.474898
 20
175.916296
 30
0.0
 10
248.455307
 20
179.141892
 30
0.0
 10
248.432414
 20
179.633054
 30
0.0
 10
248.426351
 20
179.964725
 30
0.0
 10
248.423351
 20
180.128864
 30
0.0
 11
203.538763
 21
172.316871
 31
0.0
 11
204.509807
 21
167.355362
 31
0.0
 11
205.732690
 21
161.405672
 31
0.0
 11
207.281312
 21
154.142237
 31
0.0
 11
210.492158
 21
139.808792
 31
0.0
 11
213.061887
 21
129.815070
 31
0.0
 11
215.248069
 21
123.486776
 31
0.0
 11
217.100981
 21
120.022082
 31
0.0
 11
219.155482
 21
118.222232
 31
0.0
 11
222.396005
 21
116.817549
 31
0.0
 11
225.307674
 21
115.817855
 31
0.0
 11
229.053516
 21
114.733158
 31
0.0
 11
233.104301
 21
113.710774
 31
0.0
 11
237.060716
 21
112.890705
 31
0.0
 11
240.290099
 21
112.355686
 31
0.0
 11
241.913198
 21
112.167024
 31
0.0
 11
243.299259
 21
112.161748
 31
0.0
 11
243.822856
 21
112.384625
 31
0.0
 11
244.299235
 21
113.252467
 31
0.0
 11
245.071240
 21
115.407981
 31
0.0
 11
245.861140
 21
119.234805
 31
0.0
 11
246.553310
 21
124.761252
 31
0.0
 11
246.833792
 21
129.343922
 31
0.0
 11
247.213229
 21
137.674447
 31
0.0
 11
247.616884
 21
148.154856
 31
0.0
 11
247.986840
 21
159.344204
 31
0.0
 11
248.283103
 21
169.962801
 31
0.0
 11
248.457929
 21
178.654501
 31
0.0
 11
248.452192
 21
179.134151
 31
0.0
 11
248.434650
 21
179.636512
 31
0.0
 11
248.423351
 21
180.128864
 31
0.0
  0
LWPOLYLINE
  5
13f
100
AcDbEntity
  8
Layer_1
 62
7
100
AcDbPolyline
 90
2
 70
0
 10
248.423351
 20
180.128864
 30
0.0
 10
203.538763
 20
172.316871
 30
0.0
  0
SPLINE
  5
140
100
AcDbEntity
  8
Layer_1
 62
7
100
AcDbSpline
 70
0
 71
3
 72
13
 73
9
 74
7
 40
0.000000
 40
0.000000
 40
0.000000
 40
0.000000
 40
0.603306
 40
1.212933
 40
1.832661
 40
4.572360
 40
8.804864
 40
13.978660
 40
13.978660
 40
13.978660
 40
13.978660
 10
248.036348
 20
60.816022
 30
0.0
 10
248.060377
 20
60.616349
 30
0.0
 10
248.108685
 20
60.214912
 30
0.0
 10
248.200207
 20
59.610849
 30
0.0
 10
248.424761
 20
58.306823
 30
0.0
 10
249.032854
 20
55.847931
 30
0.0
 10
250.059020
 20
51.932477
 30
0.0
 10
250.906374
 20
48.913448
 30
0.0
 10
251.372449
 20
47.252876
 30
0.0
 11
248.036348
 21
60.816022
 31
0.0
 11
248.111468
 21
60.217411
 31
0.0
 11
248.201709
 21
59.614499
 31
0.0
 11
248.307510
 21
59.003870
 31
0.0
 11
248.918009
 21
56.333057
 31
0.0
 11
249.990155
 21
52.238598
 31
0.0
 11
251.372449
 21
47.252876
 31
0.0
  0
LWPOLYLINE
  5
141
100
AcDbEntity
  8
Layer_1
 62
7
100
AcDbPolyline
 90
2
 70
0
 10
251.372449
 20
47.252876
 30
0.0
 10
271.879351
 20
47.749717
 30
0.0
  0
SPLINE
  5
142
100
AcDbEntity
  8
Layer_1
 62
7
100
AcDbSpline
 70
0
 71
3
 72
34
 73
30
 74
28
 40
0.000000
 40
0.000000
 40
0.000000
 40
0.000000
 40
7.432873
 40
14.825051
 40
21.853962
 40
29.138982
 40
34.831877
 40
38.120840
 40
40.278600
 40
41.931475
 40
43.067917
 40
43.703254
 40
44.057341
 40
44.468385
 40
46.586541
 40
50.966441
 40
57.764158
 40
62.653404
 40
65.403203
 40
66.890494
 40
67.272157
 40
68.147239
 40
70.077571
 40
73.363785
 40
78.019165
 40
84.157873
 40
91.918511
 40
97.493082
 40
101.914676
 40
101.914676
 40
101.914676
 40
101.914676
 10
271.879351
 20
47.749717
 30
0.0
 10
272.405932
 20
50.170737
 30
0.0
 10
273.456211
 20
54.999522
 30
0.0
 10
274.953027
 20
62.128887
 30
0.0
 10
276.393123
 20
69.219265
 30
0.0
 10
277.651488
 20
75.769659
 30
0.0
 10
278.581939
 20
81.109271
 30
0.0
 10
279.173227
 20
84.779997
 30
0.0
 10
279.303573
 20
87.143997
 30
0.0
 10
279.327040
 20
88.796234
 30
0.0
 10
279.199001
 20
89.931208
 30
0.0
 10
279.072180
 20
90.631524
 30
0.0
 10
278.855366
 20
91.057333
 30
0.0
 10
278.071076
 20
91.644251
 30
0.0
 10
275.864245
 20
92.385325
 30
0.0
 10
271.548997
 20
93.362352
 30
0.0
 10
266.235633
 20
94.100935
 30
0.0
 10
261.445788
 20
94.597751
 30
0.0
 10
258.405804
 20
94.686058
 30
0.0
 10
256.858943
 20
94.468474
 30
0.0
 10
256.026539
 20
94.054473
 30
0.0
 10
255.442421
 20
93.117242
 30
0.0
 10
254.526074
 20
91.334410
 30
0.0
 10
253.357118
 20
88.234792
 30
0.0
 10
251.962345
 20
83.761341
 30
0.0
 10
250.310243
 20
77.794760
 30
0.0
 10
248.763123
 20
71.499479
 30
0.0
 10
247.769748
 20
65.627036
 30
0.0
 10
247.954604
 20
62.291449
 30
0.0
 10
248.036371
 20
60.816022
 30
0.0
 11
271.879351
 21
47.749717
 31
0.0
 11
273.450324
 21
55.014676
 31
0.0
 11
274.969774
 21
62.249009
 31
0.0
 11
276.364229
 21
69.138210
 31
0.0
 11
277.728328
 21
76.294379
 31
0.0
 11
278.704578
 21
81.902943
 31
0.0
 11
279.164316
 21
85.159616
 31
0.0
 11
279.296206
 21
87.313341
 31
0.0
 11
279.288225
 21
88.966197
 31
0.0
 11
279.164034
 21
90.095832
 31
0.0
 11
279.016580
 21
90.713822
 31
0.0
 11
278.844980
 21
91.023549
 31
0.0
 11
278.532265
 21
91.290321
 31
0.0
 11
276.583112
 21
92.119408
 31
0.0
 11
272.323172
 21
93.137459
 31
0.0
 11
265.600234
 21
94.142975
 31
0.0
 11
260.731832
 21
94.593967
 31
0.0
 11
257.982035
 21
94.596937
 31
0.0
 11
256.526010
 21
94.293577
 31
0.0
 11
256.190135
 21
94.112319
 31
0.0
 11
255.644791
 21
93.427944
 31
0.0
 11
254.752904
 21
91.716011
 31
0.0
 11
253.545561
 21
88.659619
 31
0.0
 11
252.129398
 21
84.224865
 31
0.0
 11
250.480669
 21
78.311708
 31
0.0
 11
248.695596
 21
70.759157
 31
0.0
 11
247.936651
 21
65.236491
 31
0.0
 11
248.036371
 21
60.816022
 31
0.0
  0
SPLINE
  5
143
100
AcDbEntity
  8
Layer_1
 62
7
100
AcDbSpline
 70
0
 71
3
 72
22
 73
18
 74
16
 40
0.000000
 40
0.000000
 40
0.000000
 40
0.000000
 40
2.514292
 40
4.200834
 40
5.386351
 40
6.552362
 40
7.257959
 40
8.752221
 40
11.844325
 40
16.806454
 40
23.901958
 40
30.541854
 40
35.168155
 40
39.371951
 40
41.151672
 40
42.227676
 40
42.892788
 40
42.892788
 40
42.892788
 40
42.892788
 10
258.592224
 20
115.202699
 30
0.0
 10
258.692082
 20
114.371920
 30
0.0
 10
258.858923
 20
112.983868
 30
0.0
 10
259.248996
 20
111.212527
 30
0.0
 10
259.854216
 20
110.014234
 30
0.0
 10
260.214402
 20
109.032093
 30
0.0
 10
261.110591
 20
108.300130
 30
0.0
 10
262.864004
 20
107.907289
 30
0.0
 10
265.918224
 20
107.081592
 30
0.0
 10
270.937239
 20
106.363777
 30
0.0
 10
277.102847
 20
105.510098
 30
0.0
 10
283.179691
 20
104.763265
 30
0.0
 10
288.333491
 20
104.428775
 30
0.0
 10
291.870580
 20
104.624817
 30
0.0
 10
294.213912
 20
104.835904
 30
0.0
 10
295.380501
 20
104.966435
 30
0.0
 10
295.954823
 20
105.050167
 30
0.0
 10
296.174216
 20
105.082154
 30
0.0
 11
258.592224
 21
115.202699
 31
0.0
 11
258.941011
 21
112.712717
 31
0.0
 11
259.361994
 21
111.079561
 31
0.0
 11
259.837978
 21
109.993794
 31
0.0
 11
260.376477
 21
108.959579
 31
0.0
 11
260.915331
 21
108.504054
 31
0.0
 11
262.328999
 21
108.019943
 31
0.0
 11
265.333639
 21
107.289707
 31
0.0
 11
270.227323
 21
106.468380
 31
0.0
 11
277.257473
 21
105.507564
 31
0.0
 11
283.854688
 21
104.755920
 31
0.0
 11
288.474807
 21
104.516834
 31
0.0
 11
292.674463
 21
104.703347
 31
0.0
 11
294.446837
 21
104.864902
 31
0.0
 11
295.515661
 21
104.988994
 31
0.0
 11
296.174216
 21
105.082154
 31
0.0
  0
SPLINE
  5
144
100
AcDbEntity
  8
Layer_1
 62
7
100
AcDbSpline
 70
0
 71
3
 72
22
 73
18
 74
16
 40
0.000000
 40
0.000000
 40
0.000000
 40
0.000000
 40
0.603004
 40
1.471127
 40
2.667939
 40
6.204595
 40
11.211168
 40
17.875078
 40
29.677564
 40
37.011940
 40
40.966741
 40
46.849794
 40
55.798340
 40
70.318681
 40
76.190009
 40
80.470635
 40
83.232866
 40
83.232866
 40
83.232866
 40
83.232866
 10
296.174216
 20
105.082154
 30
0.0
 10
296.192834
 20
105.282344
 30
0.0
 10
296.238254
 20
105.770742
 30
0.0
 10
296.251669
 20
106.660789
 30
0.0
 10
296.195588
 20
108.527424
 30
0.0
 10
295.898862
 20
111.762823
 30
0.0
 10
295.289539
 20
116.794862
 30
0.0
 10
294.211245
 20
124.544225
 30
0.0
 10
292.936380
 20
133.054537
 30
0.0
 10
291.559689
 20
140.618995
 30
0.0
 10
290.130866
 20
146.194465
 30
0.0
 10
286.778401
 20
151.595297
 30
0.0
 10
280.049677
 20
158.713730
 30
0.0
 10
272.876019
 20
165.368905
 30
0.0
 10
266.716299
 20
170.815136
 30
0.0
 10
263.420984
 20
173.591740
 30
0.0
 10
261.500047
 20
174.942705
 30
0.0
 10
260.746649
 20
175.472558
 30
0.0
 11
296.174216
 21
105.082154
 31
0.0
 11
296.223681
 21
105.683126
 31
0.0
 11
296.244527
 21
106.550999
 31
0.0
 11
296.212824
 21
107.747390
 31
0.0
 11
295.929582
 21
111.272686
 31
0.0
 11
295.343340
 21
116.244817
 31
0.0
 11
294.438945
 21
122.847072
 31
0.0
 11
292.641307
 21
134.511856
 31
0.0
 11
291.245812
 21
141.712249
 31
0.0
 11
290.139882
 21
145.509271
 31
0.0
 11
287.206920
 21
150.609079
 31
0.0
 11
281.274917
 21
157.308916
 31
0.0
 11
270.707968
 21
167.267825
 31
0.0
 11
266.300456
 21
171.146786
 31
0.0
 11
262.987797
 21
173.857883
 31
0.0
 11
260.746649
 21
175.472558
 31
0.0
  0
LWPOLYLINE
  5
145
100
AcDbEntity
  8
Layer_1
 62
7
100
AcDbPolyline
 90
2
 70
0
 10
248.036371
 20
60.816022
 30
0.0
 10
248.036348
 20
60.816022
 30
0.0
  0
SPLINE
  5
146
100
AcDbEntity
  8
Layer_1
 62
7
100
AcDbSpline
 70
0
 71
3
 72
16
 73
12
 74
10
 40
0.000000
 40
0.000000
 40
0.000000
 40
0.000000
 40
1.122988
 40
2.782041
 40
5.182145
 40
10.687859
 40
18.333559
 40
28.439200
 40
43.402269
 40
53.767475
 40
60.398855
 40
60.398855
 40
60.398855
 40
60.398855
 10
260.746649
 20
175.472558
 30
0.0
 10
260.646637
 20
175.111665
 30
0.0
 10
260.398871
 20
174.217604
 30
0.0
 10
260.105734
 20
172.512663
 30
0.0
 10
259.724957
 20
169.347068
 30
0.0
 10
259.364957
 20
164.173337
 30
0.0
 10
258.997218
 20
156.430279
 30
0.0
 10
258.619633
 20
145.530913
 30
0.0
 10
258.322205
 20
133.726295
 30
0.0
 10
258.126102
 20
123.067113
 30
0.0
 10
258.461399
 20
117.409911
 30
0.0
 10
258.592218
 20
115.202699
 30
0.0
 11
260.746649
 21
175.472558
 31
0.0
 11
260.461341
 21
174.386418
 31
0.0
 11
260.159016
 21
172.755144
 31
0.0
 11
259.860731
 21
170.373647
 31
0.0
 11
259.431406
 21
164.884697
 31
0.0
 11
259.050176
 21
157.248508
 31
0.0
 11
258.688521
 21
147.149340
 31
0.0
 11
258.303571
 21
132.191224
 31
0.0
 11
258.266676
 21
121.826084
 31
0.0
 11
258.592218
 21
115.202699
 31
0.0
  0
SPLINE
  5
147
100
AcDbEntity
  8
Layer_1
 62
7
100
AcDbSpline
 70
0
 71
3
 72
16
 73
12
 74
10
 40
0.000000
 40
0.000000
 40
0.000000
 40
0.000000
 40
3.624397
 40
7.803455
 40
12.592858
 40
19.275179
 40
24.174028
 40
27.529360
 40
29.156269
 40
30.084330
 40
30.619785
 40
30.619785
 40
30.619785
 40
30.619785
 10
268.993998
 20
183.709383
 30
0.0
 10
269.868925
 20
182.876238
 30
0.0
 10
271.752673
 20
181.082446
 30
0.0
 10
274.843505
 20
178.241932
 30
0.0
 10
278.704199
 20
174.733582
 30
0.0
 10
282.763678
 20
171.085085
 30
0.0
 10
286.520780
 20
167.822144
 30
0.0
 10
289.083192
 20
165.741166
 30
0.0
 10
290.694114
 20
164.618329
 30
0.0
 10
291.565938
 20
164.048232
 30
0.0
 10
292.037217
 20
163.914721
 30
0.0
 10
292.209643
 20
163.865873
 30
0.0
 11
268.993998
 21
183.709383
 31
0.0
 11
271.625586
 21
181.217195
 31
0.0
 11
274.696103
 21
178.382333
 31
0.0
 11
278.239852
 21
175.160497
 31
0.0
 11
283.219675
 21
170.704627
 31
0.0
 11
286.931673
 21
167.507786
 31
0.0
 11
289.561326
 21
165.423757
 31
0.0
 11
290.894479
 21
164.491268
 31
0.0
 11
291.700184
 21
164.030684
 31
0.0
 11
292.209643
 21
163.865873
 31
0.0
  0
LWPOLYLINE
  5
148
100
AcDbEntity
  8
Layer_1
 62
7
100
AcDbPolyline
 90
2
 70
0
 10
258.592218
 20
115.202699
 30
0.0
 10
258.592224
 20
115.202699
 30
0.0
  0
LWPOLYLINE
  5
149
100
AcDbEntity
  8
Layer_1
 62
7
100
AcDbPolyline
 90
2
 70
0
 10
301.232118
 20
189.320272
 30
0.0
 10
268.993998
 20
183.709383
 30
0.0
  0
SPLINE
  5
14a
100
AcDbEntity
  8
Layer_1
 62
7
100
AcDbSpline
 70
0
 71
3
 72
13
 73
9
 74
7
 40
0.000000
 40
0.000000
 40
0.000000
 40
0.000000
 40
0.560755
 40
1.561766
 40
3.067053
 40
8.334069
 40
16.255008
 40
27.088155
 40
27.088155
 40
27.088155
 40
27.088155
 10
292.209643
 20
163.865873
 30
0.0
 10
292.325488
 20
164.012722
 30
0.0
 10
292.648129
 20
164.421711
 30
0.0
 10
293.171564
 20
165.303295
 30
0.0
 10
294.328648
 20
167.622645
 30
0.0
 10
296.014768
 20
172.233160
 30
0.0
 10
298.472822
 20
179.849820
 30
0.0
 10
300.221822
 20
185.852735
 30
0.0
 10
301.232118
 20
189.320272
 30
0.0
 11
292.209643
 21
163.865873
 31
0.0
 11
292.549945
 21
164.311565
 31
0.0
 11
293.076783
 21
165.162720
 31
0.0
 11
293.757294
 21
166.505402
 31
0.0
 11
295.684079
 21
171.407335
 31
0.0
 11
298.144478
 21
178.936459
 31
0.0
 11
301.232118
 21
189.320272
 31
0.0
  0
LWPOLYLINE
  5
14b
100
AcDbEntity
  8
Layer_1
 62
7
100
AcDbPolyline
 90
3
 70
0
 10
282.436147
 20
48.005599
 30
0.0
 10
282.436147
 20
48.005599
 30
0.0
 10
313.751807
 20
48.763769
 30
0.0
  0
SPLINE
  5
14c
100
AcDbEntity
  8
Layer_1
 62
7
100
AcDbSpline
 70
0
 71
3
 72
19
 73
15
 74
13
 40
0.000000
 40
0.000000
 40
0.000000
 40
0.000000
 40
6.347245
 40
12.863161
 40
19.384787
 40
26.842291
 40
33.013313
 40
37.919274
 40
41.536385
 40
44.008077
 40
45.611799
 40
47.742816
 40
50.576615
 40
52.200362
 40
52.200362
 40
52.200362
 40
52.200362
 10
313.751807
 20
48.763769
 30
0.0
 10
313.427040
 20
50.854498
 30
0.0
 10
312.768877
 20
55.091514
 30
0.0
 10
311.627200
 20
61.452117
 30
0.0
 10
310.274530
 20
68.149130
 30
0.0
 10
308.698639
 20
74.681560
 30
0.0
 10
306.871825
 20
80.589339
 30
0.0
 10
305.029023
 20
85.135557
 30
0.0
 10
303.198905
 20
88.333959
 30
0.0
 10
301.529158
 20
90.292397
 30
0.0
 10
299.758157
 20
91.483529
 30
0.0
 10
297.499320
 20
91.510341
 30
0.0
 10
295.326286
 20
91.614855
 30
0.0
 10
293.839777
 20
91.533762
 30
0.0
 10
293.298287
 20
91.504222
 30
0.0
 11
313.751807
 21
48.763769
 31
0.0
 11
312.753300
 21
55.031984
 31
0.0
 11
311.604401
 21
61.445811
 31
0.0
 11
310.299156
 21
67.835486
 31
0.0
 11
308.514961
 21
75.076412
 31
0.0
 11
306.654836
 21
80.960412
 31
0.0
 11
304.751486
 21
85.482105
 31
0.0
 11
302.899502
 21
88.589137
 31
0.0
 11
301.238388
 21
90.419426
 31
0.0
 11
299.868308
 21
91.252977
 31
0.0
 11
297.753865
 21
91.518248
 31
0.0
 11
294.920591
 21
91.572698
 31
0.0
 11
293.298287
 21
91.504222
 31
0.0
  0
LWPOLYLINE
  5
14d
100
AcDbEntity
  8
Layer_1
 62
7
100
AcDbPolyline
 90
2
 70
0
 10
299.868308
 20
91.252977
 30
0.0
 10
299.868308
 20
91.252977
 30
0.0
  0
SPLINE
  5
14e
100
AcDbEntity
  8
Layer_1
 62
7
100
AcDbSpline
 70
0
 71
3
 72
19
 73
15
 74
13
 40
0.000000
 40
0.000000
 40
0.000000
 40
0.000000
 40
0.044853
 40
0.137868
 40
0.335123
 40
1.330415
 40
2.918357
 40
5.118215
 40
11.459467
 40
20.734119
 40
33.380867
 40
37.296319
 40
41.129229
 40
44.930953
 40
44.930953
 40
44.930953
 40
44.930953
 10
293.298287
 20
91.504222
 30
0.0
 10
293.290936
 20
91.491201
 30
0.0
 10
293.268340
 20
91.451177
 30
0.0
 10
293.207866
 20
91.357200
 30
0.0
 10
292.972704
 20
90.998954
 30
0.0
 10
292.545498
 20
90.173456
 30
0.0
 10
291.932674
 20
88.700844
 30
0.0
 10
290.832142
 20
85.506704
 30
0.0
 10
289.310316
 20
79.761623
 30
0.0
 10
287.170687
 20
70.587935
 30
0.0
 10
285.345645
 20
62.170455
 30
0.0
 10
283.951187
 20
55.516656
 30
0.0
 10
283.188046
 20
51.742993
 30
0.0
 10
282.686454
 20
49.248039
 30
0.0
 10
282.436683
 20
48.005659
 30
0.0
 11
293.298287
 21
91.504222
 31
0.0
 11
293.275992
 21
91.465303
 31
0.0
 11
293.226603
 21
91.386484
 31
0.0
 11
293.119641
 21
91.220747
 31
0.0
 11
292.646343
 21
90.345194
 31
0.0
 11
292.024037
 21
88.884270
 31
0.0
 11
291.295272
 21
86.808632
 31
0.0
 11
289.585904
 21
80.702115
 31
0.0
 11
287.445859
 21
71.677738
 31
0.0
 11
284.750764
 21
59.321497
 31
0.0
 11
283.950094
 21
55.488784
 31
0.0
 11
283.186703
 21
51.732664
 31
0.0
 11
282.436683
 21
48.005659
 31
0.0
  0
SPLINE
  5
14f
100
AcDbEntity
  8
Layer_1
 62
7
100
AcDbSpline
 70
0
 71
3
 72
40
 73
36
 74
34
 40
0.000000
 40
0.000000
 40
0.000000
 40
0.000000
 40
4.329962
 40
8.969620
 40
13.571311
 40
17.830171
 40
21.308647
 40
23.459188
 40
27.765958
 40
30.796324
 40
33.064811
 40
35.460925
 40
38.813870
 40
43.529457
 40
51.774710
 40
62.861958
 40
72.576217
 40
74.978069
 40
76.784672
 40
78.040995
 40
78.849081
 40
79.470285
 40
80.220994
 40
80.624365
 40
81.752580
 40
83.329216
 40
85.179982
 40
87.267290
 40
89.523394
 40
94.293803
 40
98.996655
 40
103.127540
 40
111.615463
 40
124.510656
 40
140.271184
 40
140.271184
 40
140.271184
 40
140.271184
 10
303.641675
 20
140.383136
 30
0.0
 10
303.800005
 20
138.948469
 30
0.0
 10
304.127987
 20
135.976522
 30
0.0
 10
304.743278
 20
131.494375
 30
0.0
 10
305.417923
 20
127.044954
 30
0.0
 10
306.136690
 20
122.994667
 30
0.0
 10
306.789258
 20
119.763856
 30
0.0
 10
307.579054
 20
116.544728
 30
0.0
 10
308.770934
 20
113.597416
 30
0.0
 10
310.479446
 20
110.851289
 30
0.0
 10
312.539876
 20
109.212828
 30
0.0
 10
315.196636
 20
108.566916
 30
0.0
 10
318.705605
 20
108.739659
 30
0.0
 10
324.027209
 20
109.944724
 30
0.0
 10
331.545854
 20
112.762792
 30
0.0
 10
340.519190
 20
116.378872
 30
0.0
 10
347.632921
 20
119.447033
 30
0.0
 10
351.714275
 20
121.659423
 30
0.0
 10
353.232303
 20
122.678176
 30
0.0
 10
354.189625
 20
123.544728
 30
0.0
 10
354.776278
 20
124.233468
 30
0.0
 10
355.054686
 20
124.914636
 30
0.0
 10
355.125641
 20
125.511575
 30
0.0
 10
355.046453
 20
126.268890
 30
0.0
 10
354.965459
 20
127.301635
 30
0.0
 10
354.756024
 20
128.806757
 30
0.0
 10
354.435570
 20
130.616847
 30
0.0
 10
354.039761
 20
132.643428
 30
0.0
 10
353.404987
 20
135.614419
 30
0.0
 10
352.498472
 20
139.418368
 30
0.0
 10
351.325550
 20
143.799110
 30
0.0
 10
349.632526
 20
149.322563
 30
0.0
 10
346.415923
 20
157.205001
 30
0.0
 10
341.562140
 20
168.591932
 30
0.0
 10
337.599392
 20
177.284205
 30
0.0
 10
335.419898
 20
182.064920
 30
0.0
 11
303.641675
 21
140.383136
 31
0.0
 11
304.134998
 21
136.081368
 31
0.0
 11
304.755797
 21
131.483430
 31
0.0
 11
305.454840
 21
126.935145
 31
0.0
 11
306.200305
 21
122.742035
 31
0.0
 11
306.905901
 21
119.335875
 31
0.0
 11
307.440697
 21
117.252891
 31
0.0
 11
309.063348
 21
113.263496
 31
0.0
 11
310.770754
 21
110.759922
 31
0.0
 11
312.575871
 21
109.386029
 31
0.0
 11
314.883516
 21
108.740940
 31
0.0
 11
318.235991
 21
108.797089
 31
0.0
 11
322.852570
 21
109.758313
 31
0.0
 11
330.644210
 21
112.455449
 31
0.0
 11
340.929485
 21
116.595523
 31
0.0
 11
349.770107
 21
120.621713
 31
0.0
 11
351.867714
 21
121.791731
 31
0.0
 11
353.352684
 21
122.820650
 31
0.0
 11
354.278410
 21
123.669992
 31
0.0
 11
354.775648
 21
124.306982
 31
0.0
 11
355.013467
 21
124.880861
 31
0.0
 11
355.103063
 21
125.626204
 31
0.0
 11
355.072520
 21
126.028418
 31
0.0
 11
354.967772
 21
127.151759
 31
0.0
 11
354.759824
 21
128.714621
 31
0.0
 11
354.444278
 21
130.538290
 31
0.0
 11
354.044780
 21
132.587011
 31
0.0
 11
353.574576
 21
134.793572
 31
0.0
 11
352.471795
 21
139.434765
 31
0.0
 11
351.247388
 21
143.975431
 31
0.0
 11
350.020072
 21
147.919781
 31
0.0
 11
346.956044
 21
155.835373
 31
0.0
 11
341.892398
 21
167.694778
 31
0.0
 11
335.419898
 21
182.064920
 31
0.0
  0
LWPOLYLINE
  5
150
100
AcDbEntity
  8
Layer_1
 62
7
100
AcDbPolyline
 90
2
 70
0
 10
282.436683
 20
48.005659
 30
0.0
 10
282.436147
 20
48.005599
 30
0.0
  0
SPLINE
  5
151
100
AcDbEntity
  8
Layer_1
 62
7
100
AcDbSpline
 70
0
 71
3
 72
10
 73
6
 74
4
 40
0.000000
 40
0.000000
 40
0.000000
 40
0.000000
 40
5.153784
 40
9.703004
 40
13.665252
 40
13.665252
 40
13.665252
 40
13.665252
 10
335.419898
 20
182.064920
 30
0.0
 10
334.687671
 20
183.619006
 30
0.0
 10
333.309111
 20
186.544878
 30
0.0
 10
331.211937
 20
190.591239
 30
0.0
 10
329.766199
 20
193.032894
 30
0.0
 10
329.093181
 20
194.169530
 30
0.0
 11
335.419898
 21
182.064920
 31
0.0
 11
333.192032
 21
186.712296
 31
0.0
 11
331.082004
 21
190.742580
 31
0.0
 11
329.093181
 21
194.169530
 31
0.0
  0
SPLINE
  5
152
100
AcDbEntity
  8
Layer_1
 62
7
100
AcDbSpline
 70
0
 71
3
 72
13
 73
9
 74
7
 40
0.000000
 40
0.000000
 40
0.000000
 40
0.000000
 40
4.321355
 40
9.384394
 40
15.357906
 40
29.937493
 40
38.946069
 40
46.491929
 40
46.491929
 40
46.491929
 40
46.491929
 10
314.157416
 20
191.569913
 30
0.0
 10
313.652690
 20
190.220649
 30
0.0
 10
312.556609
 20
187.290544
 30
0.0
 10
310.960872
 20
182.425046
 30
0.0
 10
308.519605
 20
174.240941
 30
0.0
 10
305.825643
 20
164.775395
 30
0.0
 10
303.470056
 20
154.621689
 30
0.0
 10
303.301826
 20
149.094033
 30
0.0
 10
303.225144
 20
146.574411
 30
0.0
 11
314.157416
 21
191.569913
 31
0.0
 11
312.668896
 21
187.513016
 31
0.0
 11
311.075452
 21
182.707259
 31
0.0
 11
309.347023
 21
176.989272
 31
0.0
 11
305.457369
 21
162.938116
 31
0.0
 11
303.680474
 21
154.106521
 31
0.0
 11
303.225144
 21
146.574411
 31
0.0
  0
LWPOLYLINE
  5
153
100
AcDbEntity
  8
Layer_1
 62
7
100
AcDbPolyline
 90
2
 70
0
 10
329.093181
 20
194.169530
 30
0.0
 10
314.157416
 20
191.569913
 30
0.0
  0
SPLINE
  5
154
100
AcDbEntity
  8
Layer_1
 62
7
100
AcDbSpline
 70
0
 71
3
 72
10
 73
6
 74
4
 40
0.000000
 40
0.000000
 40
0.000000
 40
0.000000
 40
1.531219
 40
3.656948
 40
6.207174
 40
6.207174
 40
6.207174
 40
6.207174
 10
303.225144
 20
146.574411
 30
0.0
 10
303.235781
 20
146.064051
 30
0.0
 10
303.261186
 20
144.845178
 30
0.0
 10
303.412718
 20
142.780847
 30
0.0
 10
303.560873
 20
141.229324
 30
0.0
 10
303.641675
 20
140.383136
 30
0.0
 11
303.225144
 21
146.574411
 31
0.0
 11
303.268254
 21
145.043799
 31
0.0
 11
303.409382
 21
142.922760
 31
0.0
 11
303.641675
 21
140.383136
 31
0.0
  0
LWPOLYLINE
  5
155
100
AcDbEntity
  8
Layer_1
 62
7
100
AcDbPolyline
 90
2
 70
0
 10
303.641675
 20
140.383136
 30
0.0
 10
303.641675
 20
140.383136
 30
0.0
  0
SPLINE
  5
156
100
AcDbEntity
  8
Layer_1
 62
7
100
AcDbSpline
 70
0
 71
3
 72
13
 73
9
 74
7
 40
0.000000
 40
0.000000
 40
0.000000
 40
0.000000
 40
2.979827
 40
6.318580
 40
10.025436
 40
17.726302
 40
24.489883
 40
30.487485
 40
30.487485
 40
30.487485
 40
30.487485
 10
320.807249
 20
79.159331
 30
0.0
 10
320.913601
 20
78.171728
 30
0.0
 10
321.139113
 20
76.077564
 30
0.0
 10
321.587899
 20
72.765631
 30
0.0
 10
322.328908
 20
67.906266
 30
0.0
 10
323.306018
 20
61.928400
 30
0.0
 10
324.440264
 20
55.202593
 30
0.0
 10
325.196167
 20
51.016533
 30
0.0
 10
325.551433
 20
49.049136
 30
0.0
 11
320.807249
 21
79.159331
 31
0.0
 11
321.139055
 21
76.198035
 31
0.0
 11
321.580099
 21
72.888542
 31
0.0
 11
322.132452
 21
69.223069
 31
0.0
 11
323.363222
 21
61.621191
 31
0.0
 11
324.496356
 21
54.953206
 31
0.0
 11
325.551433
 21
49.049136
 31
0.0
  0
LWPOLYLINE
  5
157
100
AcDbEntity
  8
Layer_1
 62
7
100
AcDbPolyline
 90
2
 70
0
 10
325.551433
 20
49.049136
 30
0.0
 10
355.359772
 20
49.771136
 30
0.0
  0
SPLINE
  5
158
100
AcDbEntity
  8
Layer_1
 62
7
100
AcDbSpline
 70
0
 71
3
 72
34
 73
30
 74
28
 40
0.000000
 40
0.000000
 40
0.000000
 40
0.000000
 40
16.968780
 40
33.556398
 40
45.710894
 40
49.767074
 40
53.351749
 40
56.380169
 40
58.751239
 40
60.293604
 40
60.762108
 40
61.978879
 40
64.434498
 40
67.388069
 40
69.557663
 40
72.670850
 40
77.898840
 40
84.601899
 40
91.049574
 40
96.957877
 40
102.094986
 40
106.055254
 40
108.293868
 40
111.420083
 40
114.206463
 40
116.106751
 40
118.402739
 40
121.648525
 40
125.845525
 40
125.845525
 40
125.845525
 40
125.845525
 10
355.359772
 20
49.771136
 30
0.0
 10
357.258023
 20
55.100515
 30
0.0
 10
361.011885
 20
65.639561
 30
0.0
 10
365.551913
 20
80.179592
 30
0.0
 10
368.583952
 20
90.703399
 30
0.0
 10
369.737687
 20
97.203405
 30
0.0
 10
370.142919
 20
100.742615
 30
0.0
 10
370.274714
 20
103.727080
 30
0.0
 10
370.135960
 20
106.070481
 30
0.0
 10
369.734488
 20
107.446619
 30
0.0
 10
369.568614
 20
108.565570
 30
0.0
 10
368.023820
 20
109.033563
 30
0.0
 10
366.145284
 20
109.924921
 30
0.0
 10
363.531178
 20
110.220799
 30
0.0
 10
360.811559
 20
109.841543
 30
0.0
 10
357.460692
 20
108.769966
 30
0.0
 10
352.783154
 20
106.975364
 30
0.0
 10
347.088093
 20
104.712239
 30
0.0
 10
341.218728
 20
102.281125
 30
0.0
 10
335.863698
 20
99.974572
 30
0.0
 10
331.305874
 20
97.907952
 30
0.0
 10
327.922857
 20
96.233584
 30
0.0
 10
325.135799
 20
94.835018
 30
0.0
 10
323.075731
 20
93.007273
 30
0.0
 10
321.487257
 20
90.934449
 30
0.0
 10
320.490087
 20
88.782609
 30
0.0
 10
320.465274
 20
86.262851
 30
0.0
 10
320.455572
 20
83.030286
 30
0.0
 10
320.680444
 20
80.555096
 30
0.0
 10
320.807249
 20
79.159331
 30
0.0
 11
355.359772
 21
49.771136
 31
0.0
 11
360.946864
 21
65.793742
 31
0.0
 11
365.926394
 21
81.616301
 31
0.0
 11
369.021275
 21
93.370171
 31
0.0
 11
369.721453
 21
97.365462
 31
0.0
 11
370.118750
 21
100.928053
 31
0.0
 11
370.225489
 21
103.954591
 31
0.0
 11
370.016491
 21
106.316432
 31
0.0
 11
369.683692
 21
107.822464
 31
0.0
 11
369.565174
 21
108.275730
 31
0.0
 11
368.522083
 21
108.902223
 31
0.0
 11
366.217998
 21
109.751489
 31
0.0
 11
363.285842
 21
110.106522
 31
0.0
 11
361.133282
 21
109.835180
 31
0.0
 11
358.144059
 21
108.965426
 31
0.0
 11
353.244178
 21
107.142503
 31
0.0
 11
347.015500
 21
104.665694
 31
0.0
 11
341.058797
 21
102.197863
 31
0.0
 11
335.635148
 21
99.854343
 31
0.0
 11
330.963820
 21
97.716921
 31
0.0
 11
327.407934
 21
95.973533
 31
0.0
 11
325.444189
 21
94.898780
 31
0.0
 11
323.071528
 21
92.863171
 31
0.0
 11
321.407338
 21
90.628358
 31
0.0
 11
320.666618
 21
88.878379
 31
0.0
 11
320.470665
 21
86.590769
 31
0.0
 11
320.500696
 21
83.345121
 31
0.0
 11
320.807249
 21
79.159331
 31
0.0
  0
SPLINE
  5
159
100
AcDbEntity
  8
Layer_1
 62
7
100
AcDbSpline
 70
0
 71
3
 72
10
 73
6
 74
4
 40
0.000000
 40
0.000000
 40
0.000000
 40
0.000000
 40
2.828175
 40
5.758814
 40
9.110500
 40
9.110500
 40
9.110500
 40
9.110500
 10
341.411729
 20
196.314486
 30
0.0
 10
341.780197
 20
195.446756
 30
0.0
 10
342.530480
 20
193.679857
 30
0.0
 10
343.718473
 20
190.884976
 30
0.0
 10
344.565262
 20
188.969679
 30
0.0
 10
345.017034
 20
187.947848
 30
0.0
 11
341.411729
 21
196.314486
 31
0.0
 11
342.517289
 21
193.711351
 31
0.0
 11
343.669572
 21
191.016748
 31
0.0
 11
345.017034
 21
187.947848
 31
0.0
  0
SPLINE
  5
15a
100
AcDbEntity
  8
Layer_1
 62
7
100
AcDbSpline
 70
0
 71
3
 72
13
 73
9
 74
7
 40
0.000000
 40
0.000000
 40
0.000000
 40
0.000000
 40
14.585244
 40
22.490276
 40
26.302001
 40
26.858480
 40
27.285598
 40
27.628171
 40
27.628171
 40
27.628171
 40
27.628171
 10
345.017034
 20
187.947848
 30
0.0
 10
347.008707
 20
183.509655
 30
0.0
 10
350.079845
 20
176.666014
 30
0.0
 10
353.888441
 20
168.786747
 30
0.0
 10
356.003766
 20
165.244454
 30
0.0
 10
357.085311
 20
164.065092
 30
0.0
 10
357.406216
 20
163.760632
 30
0.0
 10
357.601754
 20
163.594488
 30
0.0
 10
357.688783
 20
163.520541
 30
0.0
 11
345.017034
 21
187.947848
 31
0.0
 11
351.070075
 21
174.677955
 31
0.0
 11
354.628097
 21
167.618918
 31
0.0
 11
356.741730
 21
164.446884
 31
0.0
 11
357.119662
 21
164.038428
 31
0.0
 11
357.429535
 21
163.744474
 31
0.0
 11
357.688783
 21
163.520541
 31
0.0
  0
LWPOLYLINE
  5
15b
100
AcDbEntity
  8
Layer_1
 62
7
100
AcDbPolyline
 90
2
 70
0
 10
320.807249
 20
79.159331
 30
0.0
 10
320.807249
 20
79.159331
 30
0.0
  0
LWPOLYLINE
  5
15c
100
AcDbEntity
  8
Layer_1
 62
7
100
AcDbPolyline
 90
2
 70
0
 10
381.194987
 20
203.238608
 30
0.0
 10
341.411729
 20
196.314486
 30
0.0
  0
SPLINE
  5
15d
100
AcDbEntity
  8
Layer_1
 62
7
100
AcDbSpline
 70
0
 71
3
 72
16
 73
12
 74
10
 40
0.000000
 40
0.000000
 40
0.000000
 40
0.000000
 40
3.394632
 40
9.799318
 40
19.277491
 40
30.000028
 40
36.757586
 40
41.281208
 40
43.119880
 40
44.668631
 40
47.029502
 40
47.029502
 40
47.029502
 40
47.029502
 10
357.688783
 20
163.520541
 30
0.0
 10
358.485913
 20
164.325080
 30
0.0
 10
360.786995
 20
166.647554
 30
0.0
 10
364.596533
 20
171.844947
 30
0.0
 10
369.738223
 20
179.063692
 30
0.0
 10
374.736886
 20
186.526889
 30
0.0
 10
378.649093
 20
192.752995
 30
0.0
 10
380.463210
 20
196.729970
 30
0.0
 10
381.368028
 20
199.229635
 30
0.0
 10
381.448883
 20
201.163642
 30
0.0
 10
381.290580
 20
202.457373
 30
0.0
 10
381.194987
 20
203.238608
 30
0.0
 11
357.688783
 21
163.520541
 31
0.0
 11
360.036421
 21
165.972503
 31
0.0
 11
363.977907
 21
171.020740
 31
0.0
 11
369.462897
 21
178.750595
 31
0.0
 11
375.421931
 21
187.664781
 31
0.0
 11
378.886290
 21
193.466746
 31
0.0
 11
380.757599
 21
197.585163
 31
0.0
 11
381.301078
 21
199.341679
 31
0.0
 11
381.403989
 21
200.887006
 31
0.0
 11
381.194987
 21
203.238608
 31
0.0
  0
SPLINE
  5
15e
100
AcDbEntity
  8
Layer_1
 62
7
100
AcDbSpline
 70
0
 71
3
 72
13
 73
9
 74
7
 40
0.000000
 40
0.000000
 40
0.000000
 40
0.000000
 40
11.085420
 40
22.796764
 40
33.446268
 40
35.198688
 40
36.707803
 40
38.004669
 40
38.004669
 40
38.004669
 40
38.004669
 10
392.854829
 20
50.678783
 30
0.0
 10
391.736670
 20
54.201011
 30
0.0
 10
389.437218
 20
61.444347
 30
0.0
 10
385.716059
 20
71.953941
 30
0.0
 10
382.932473
 20
79.498123
 30
0.0
 10
381.098405
 20
83.758442
 30
0.0
 10
380.413504
 20
85.115941
 30
0.0
 10
379.951279
 20
85.929146
 30
0.0
 10
379.737648
 20
86.304992
 30
0.0
 11
392.854829
 21
50.678783
 31
0.0
 11
389.444344
 21
61.226537
 31
0.0
 11
385.572281
 21
72.279261
 31
0.0
 11
381.755396
 21
82.221259
 31
0.0
 11
381.048995
 21
83.824996
 31
0.0
 11
380.369863
 21
85.172664
 31
0.0
 11
379.737648
 21
86.304992
 31
0.0
  0
LWPOLYLINE
  5
15f
100
AcDbEntity
  8
Layer_1
 62
7
100
AcDbPolyline
 90
2
 70
0
 10
366.406204
 20
50.038209
 30
0.0
 10
392.854829
 20
50.678783
 30
0.0
  0
SPLINE
  5
160
100
AcDbEntity
  8
Layer_1
 62
7
100
AcDbSpline
 70
0
 71
3
 72
16
 73
12
 74
10
 40
0.000000
 40
0.000000
 40
0.000000
 40
0.000000
 40
2.243389
 40
5.498565
 40
9.774255
 40
16.498181
 40
24.367374
 40
33.231746
 40
35.240149
 40
36.942805
 40
38.659269
 40
38.659269
 40
38.659269
 40
38.659269
 10
379.737648
 20
86.304992
 30
0.0
 10
379.419445
 20
85.628225
 30
0.0
 10
378.639525
 20
83.969464
 30
0.0
 10
377.366583
 20
80.969463
 30
0.0
 10
375.622552
 20
76.549221
 30
0.0
 10
373.450845
 20
70.645917
 30
0.0
 10
370.840330
 20
63.275362
 30
0.0
 10
368.816079
 20
57.364888
 30
0.0
 10
367.491517
 20
53.387812
 30
0.0
 10
366.936711
 20
51.665793
 30
0.0
 10
366.583515
 20
50.582195
 30
0.0
 10
366.406204
 20
50.038209
 30
0.0
 11
379.737648
 21
86.304992
 31
0.0
 11
378.793661
 21
84.269880
 31
0.0
 11
377.510587
 21
81.278243
 31
0.0
 11
375.934139
 21
77.303782
 31
0.0
 11
373.594458
 21
71.000048
 31
0.0
 11
370.963221
 21
63.583795
 31
0.0
 11
368.094937
 21
55.196303
 31
0.0
 11
367.462692
 21
53.290011
 31
0.0
 11
366.937207
 21
51.670472
 31
0.0
 11
366.406204
 21
50.038209
 31
0.0
  0
SPLINE
  5
161
100
AcDbEntity
  8
Layer_1
 62
7
100
AcDbSpline
 70
0
 71
3
 72
40
 73
36
 74
34
 40
0.000000
 40
0.000000
 40
0.000000
 40
0.000000
 40
0.714365
 40
1.577515
 40
2.613898
 40
6.056649
 40
9.972288
 40
13.939281
 40
17.677631
 40
20.543304
 40
21.550779
 40
22.638742
 40
24.806572
 40
28.662758
 40
30.832368
 40
32.032497
 40
34.551764
 40
38.385692
 40
45.545894
 40
54.280646
 40
63.127062
 40
70.785941
 40
75.751684
 40
79.947878
 40
83.278024
 40
85.830475
 40
87.725727
 40
89.242047
 40
90.731568
 40
91.774420
 40
94.215129
 40
97.154256
 40
101.967980
 40
106.158255
 40
111.865672
 40
111.865672
 40
111.865672
 40
111.865672
 10
364.361137
 20
145.241481
 30
0.0
 10
364.383738
 20
145.004433
 30
0.0
 10
364.433647
 20
144.480964
 30
0.0
 10
364.526253
 20
143.614593
 30
0.0
 10
364.704768
 20
141.842757
 30
0.0
 10
365.092266
 20
139.070286
 30
0.0
 10
365.781409
 20
135.356381
 30
0.0
 10
366.609946
 20
131.576971
 30
0.0
 10
367.497164
 20
128.148188
 30
0.0
 10
368.441716
 20
125.816261
 30
0.0
 10
368.777037
 20
124.143287
 30
0.0
 10
369.917898
 20
123.185209
 30
0.0
 10
372.079536
 20
122.214867
 30
0.0
 10
374.747525
 20
121.618422
 30
0.0
 10
377.052506
 20
120.808129
 30
0.0
 10
379.039843
 20
120.917638
 30
0.0
 10
381.435639
 20
121.735292
 30
0.0
 10
385.729206
 20
123.073999
 30
0.0
 10
391.921497
 20
125.304910
 30
0.0
 10
399.675874
 20
128.106753
 30
0.0
 10
407.546740
 20
131.082351
 30
0.0
 10
414.215410
 20
133.678006
 30
0.0
 10
419.416898
 20
135.778068
 30
0.0
 10
423.163421
 20
137.600340
 30
0.0
 10
426.097300
 20
139.247329
 30
0.0
 10
428.212374
 20
140.751648
 30
0.0
 10
429.684152
 20
142.109415
 30
0.0
 10
430.605107
 20
143.466056
 30
0.0
 10
431.156272
 20
144.726099
 30
0.0
 10
431.261807
 20
146.390681
 30
0.0
 10
431.479666
 20
148.517109
 30
0.0
 10
431.501169
 20
151.917361
 30
0.0
 10
431.294223
 20
155.917587
 30
0.0
 10
429.786706
 20
160.635233
 30
0.0
 10
428.142789
 20
163.503127
 30
0.0
 10
427.194839
 20
165.156873
 30
0.0
 11
364.361137
 21
145.241481
 31
0.0
 11
364.430166
 21
144.530459
 31
0.0
 11
364.519326
 21
143.671927
 31
0.0
 11
364.627414
 21
142.641196
 31
0.0
 11
365.094100
 21
139.230222
 31
0.0
 11
365.798605
 21
135.378482
 31
0.0
 11
366.652048
 21
131.504380
 31
0.0
 11
367.655405
 21
127.903195
 31
0.0
 11
368.552503
 21
125.181559
 31
0.0
 11
368.868480
 21
124.224917
 31
0.0
 11
369.642135
 21
123.459985
 31
0.0
 11
371.583280
 21
122.494873
 31
0.0
 11
375.280343
 21
121.398561
 31
0.0
 11
377.387570
 21
120.882035
 31
0.0
 11
378.586825
 21
120.927826
 31
0.0
 11
381.019191
 21
121.583803
 31
0.0
 11
384.667203
 21
122.763217
 31
0.0
 11
391.425837
 21
125.127400
 31
0.0
 11
399.634033
 21
128.114273
 31
0.0
 11
407.911129
 21
131.236572
 31
0.0
 11
415.045551
 21
134.021973
 31
0.0
 11
419.629788
 21
135.930733
 31
0.0
 11
423.402530
 21
137.767703
 31
0.0
 11
426.287564
 21
139.430968
 31
0.0
 11
428.354236
 21
140.928925
 31
0.0
 11
429.715682
 21
142.247425
 31
0.0
 11
430.570540
 21
143.499801
 31
0.0
 11
431.116401
 21
144.885698
 31
0.0
 11
431.236107
 21
145.921656
 31
0.0
 11
431.427536
 21
148.354847
 31
0.0
 11
431.475557
 21
151.293582
 31
0.0
 11
431.064298
 21
156.089706
 31
0.0
 11
429.829313
 21
160.093855
 31
0.0
 11
427.194839
 21
165.156873
 31
0.0
  0
SPLINE
  5
162
100
AcDbEntity
  8
Layer_1
 62
7
100
AcDbSpline
 70
0
 71
3
 72
13
 73
9
 74
7
 40
0.000000
 40
0.000000
 40
0.000000
 40
0.000000
 40
1.918476
 40
3.564001
 40
5.816835
 40
9.409611
 40
14.798319
 40
22.431744
 40
22.431744
 40
22.431744
 40
22.431744
 10
427.194839
 20
165.156873
 30
0.0
 10
426.884047
 20
165.716753
 30
0.0
 10
426.306681
 20
166.756855
 30
0.0
 10
425.088995
 20
168.279230
 30
0.0
 10
423.200998
 20
169.924259
 30
0.0
 10
420.247286
 20
172.224123
 30
0.0
 10
415.743256
 20
175.450161
 30
0.0
 10
412.187763
 20
177.939651
 30
0.0
 10
410.103574
 20
179.398961
 30
0.0
 11
427.194839
 21
165.156873
 31
0.0
 11
426.213576
 21
166.805410
 31
0.0
 11
425.186474
 21
168.091029
 31
0.0
 11
423.529252
 21
169.617094
 31
0.0
 11
420.707735
 21
171.841298
 31
0.0
 11
416.347411
 21
175.007644
 31
0.0
 11
410.103574
 21
179.398961
 31
0.0
  0
SPLINE
  5
163
100
AcDbEntity
  8
Layer_1
 62
7
100
AcDbSpline
 70
0
 71
3
 72
13
 73
9
 74
7
 40
0.000000
 40
0.000000
 40
0.000000
 40
0.000000
 40
10.070672
 40
16.067151
 40
18.599779
 40
19.111229
 40
19.435762
 40
19.619570
 40
19.619570
 40
19.619570
 40
19.619570
 10
410.103574
 20
179.398961
 30
0.0
 10
407.334437
 20
181.308672
 30
0.0
 10
402.916445
 20
184.355501
 30
0.0
 10
397.590529
 20
187.461910
 30
0.0
 10
394.892401
 20
188.910334
 30
0.0
 10
393.789336
 20
189.121226
 30
0.0
 10
393.460299
 20
189.218334
 30
0.0
 10
393.314716
 20
189.305917
 30
0.0
 10
393.262076
 20
189.337586
 30
0.0
 11
410.103574
 21
179.398961
 31
0.0
 11
401.724377
 21
184.985328
 31
0.0
 11
396.547650
 21
188.011754
 31
0.0
 11
394.228066
 21
189.028482
 31
0.0
 11
393.729632
 21
189.143134
 31
0.0
 11
393.422407
 21
189.247702
 31
0.0
 11
393.262076
 21
189.337586
 31
0.0
  0
LWPOLYLINE
  5
164
100
AcDbEntity
  8
Layer_1
 62
7
100
AcDbPolyline
 90
2
 70
0
 10
366.406204
 20
50.038209
 30
0.0
 10
366.406204
 20
50.038209
 30
0.0
  0
LWPOLYLINE
  5
165
100
AcDbEntity
  8
Layer_1
 62
7
100
AcDbPolyline
 90
2
 70
0
 10
364.361081
 20
145.241478
 30
0.0
 10
364.361137
 20
145.241481
 30
0.0
  0
SPLINE
  5
166
100
AcDbEntity
  8
Layer_1
 62
7
100
AcDbSpline
 70
0
 71
3
 72
19
 73
15
 74
13
 40
0.000000
 40
0.000000
 40
0.000000
 40
0.000000
 40
0.182934
 40
0.505305
 40
1.012525
 40
3.947352
 40
10.555486
 40
21.796756
 40
35.840727
 40
44.846342
 40
49.554471
 40
50.894948
 40
51.958495
 40
53.454445
 40
53.454445
 40
53.454445
 40
53.454445
 10
393.262076
 20
189.337586
 30
0.0
 10
393.220282
 20
189.292961
 30
0.0
 10
393.104839
 20
189.169695
 30
0.0
 10
392.817004
 20
188.987609
 30
0.0
 10
391.696781
 20
188.421785
 30
0.0
 10
389.309102
 20
185.972939
 30
0.0
 10
384.939979
 20
180.652648
 30
0.0
 10
378.805878
 20
171.929599
 30
0.0
 10
372.463058
 20
162.430137
 30
0.0
 10
367.554043
 20
154.587603
 30
0.0
 10
365.210746
 20
150.131870
 30
0.0
 10
364.426275
 20
147.887999
 30
0.0
 10
364.228857
 20
146.592358
 30
0.0
 10
364.312307
 20
145.739783
 30
0.0
 10
364.361081
 20
145.241478
 30
0.0
 11
393.262076
 21
189.337586
 31
0.0
 11
393.132999
 21
189.207956
 31
0.0
 11
392.867885
 21
189.024550
 31
0.0
 11
392.423678
 21
188.779698
 31
0.0
 11
390.206487
 21
186.856868
 31
0.0
 11
385.957672
 21
181.795741
 31
0.0
 11
379.381710
 21
172.678567
 31
0.0
 11
371.600581
 21
160.987239
 31
0.0
 11
366.919368
 21
153.293907
 31
0.0
 11
364.852768
 21
149.063583
 31
0.0
 11
364.440337
 21
147.788131
 31
0.0
 11
364.287525
 21
146.735619
 31
0.0
 11
364.361081
 21
145.241478
 31
0.0
  0
SPLINE
  5
167
100
AcDbEntity
  8
Layer_1
 62
7
100
AcDbSpline
 70
0
 71
3
 72
10
 73
6
 74
4
 40
0.000000
 40
0.000000
 40
0.000000
 40
0.000000
 40
0.621556
 40
1.294562
 40
2.021318
 40
2.021318
 40
2.021318
 40
2.021318
 10
389.806095
 20
99.593335
 30
0.0
 10
389.825682
 20
99.387077
 30
0.0
 10
389.866476
 20
98.957489
 30
0.0
 10
389.933308
 20
98.287036
 30
0.0
 10
389.981988
 20
97.822994
 30
0.0
 10
390.007263
 20
97.582064
 30
0.0
 11
389.806095
 21
99.593335
 31
0.0
 11
389.865318
 21
98.974607
 31
0.0
 11
389.932086
 21
98.304921
 31
0.0
 11
390.007263
 21
97.582064
 31
0.0
  0
SPLINE
  5
168
100
AcDbEntity
  8
Layer_1
 62
7
100
AcDbSpline
 70
0
 71
3
 72
10
 73
6
 74
4
 40
0.000000
 40
0.000000
 40
0.000000
 40
0.000000
 40
7.385593
 40
17.993475
 40
35.766619
 40
35.766619
 40
35.766619
 40
35.766619
 10
390.007263
 20
97.582064
 30
0.0
 10
390.363315
 20
95.142534
 30
0.0
 10
391.230760
 20
89.199122
 30
0.0
 10
394.913495
 20
77.819748
 30
0.0
 10
398.039432
 20
68.898653
 30
0.0
 10
399.996999
 20
63.311967
 30
0.0
 11
390.007263
 21
97.582064
 31
0.0
 11
391.241412
 21
90.300316
 31
0.0
 11
394.204171
 21
80.114579
 31
0.0
 11
399.996999
 21
63.311967
 31
0.0
  0
LWPOLYLINE
  5
169
100
AcDbEntity
  8
Layer_1
 62
7
100
AcDbPolyline
 90
3
 70
0
 10
389.806067
 20
99.593900
 30
0.0
 10
389.806095
 20
99.593335
 30
0.0
 10
389.806095
 20
99.593335
 30
0.0
  0
SPLINE
  5
16a
100
AcDbEntity
  8
Layer_1
 62
7
100
AcDbSpline
 70
0
 71
3
 72
10
 73
6
 74
4
 40
0.000000
 40
0.000000
 40
0.000000
 40
0.000000
 40
4.992695
 40
9.333704
 40
13.166276
 40
13.166276
 40
13.166276
 40
13.166276
 10
399.996999
 20
63.311967
 30
0.0
 10
400.556933
 20
61.744755
 30
0.0
 10
401.603715
 20
58.814897
 30
0.0
 10
403.123407
 20
54.697483
 30
0.0
 10
404.102488
 20
52.154929
 30
0.0
 10
404.561576
 20
50.962732
 30
0.0
 11
399.996999
 21
63.311967
 31
0.0
 11
401.685542
 21
58.613475
 31
0.0
 11
403.192151
 21
54.542297
 31
0.0
 11
404.561576
 21
50.962732
 31
0.0
  0
SPLINE
  5
16b
100
AcDbEntity
  8
Layer_1
 62
7
100
AcDbSpline
 70
0
 71
3
 72
10
 73
6
 74
4
 40
0.000000
 40
0.000000
 40
0.000000
 40
0.000000
 40
14.516051
 40
32.437347
 40
51.696919
 40
51.696919
 40
51.696919
 40
51.696919
 10
437.459261
 20
51.759445
 30
0.0
 10
437.025563
 20
56.578916
 30
0.0
 10
436.056429
 20
67.348430
 30
0.0
 10
433.890421
 20
84.448431
 30
0.0
 10
432.003395
 20
96.697678
 30
0.0
 10
431.025921
 20
103.042748
 30
0.0
 11
437.459261
 21
51.759445
 31
0.0
 11
436.080078
 21
66.209829
 31
0.0
 11
433.870007
 21
83.994329
 31
0.0
 11
431.025921
 21
103.042748
 31
0.0
  0
LWPOLYLINE
  5
16c
100
AcDbEntity
  8
Layer_1
 62
7
100
AcDbPolyline
 90
2
 70
0
 10
404.561576
 20
50.962732
 30
0.0
 10
437.459261
 20
51.759445
 30
0.0
  0
SPLINE
  5
16d
100
AcDbEntity
  8
Layer_1
 62
7
100
AcDbSpline
 70
0
 71
3
 72
25
 73
21
 74
19
 40
0.000000
 40
0.000000
 40
0.000000
 40
0.000000
 40
9.192489
 40
15.406785
 40
18.816349
 40
19.661664
 40
20.312712
 40
21.183207
 40
22.572639
 40
24.553063
 40
27.128752
 40
35.193663
 40
43.563618
 40
49.524237
 40
53.700329
 40
57.213461
 40
60.151619
 40
61.616313
 40
63.031746
 40
65.956312
 40
65.956312
 40
65.956312
 40
65.956312
 10
431.025921
 20
103.042748
 30
0.0
 10
430.488358
 20
106.063329
 30
0.0
 10
429.587391
 20
111.125878
 30
0.0
 10
427.896571
 20
117.157202
 30
0.0
 10
426.500387
 20
120.410260
 30
0.0
 10
425.395904
 20
121.648062
 30
0.0
 10
424.673118
 20
122.007083
 30
0.0
 10
423.696010
 20
122.100808
 30
0.0
 10
422.282757
 20
122.068252
 30
0.0
 10
420.322850
 20
121.727003
 30
0.0
 10
416.252649
 20
120.662237
 30
0.0
 10
410.265904
 20
118.548232
 30
0.0
 10
403.341831
 20
115.785183
 30
0.0
 10
397.652048
 20
113.341554
 30
0.0
 10
393.888068
 20
110.746951
 30
0.0
 10
391.391650
 20
108.165324
 30
0.0
 10
390.198440
 20
105.793748
 30
0.0
 10
389.526334
 20
103.952377
 30
0.0
 10
389.535205
 20
101.995326
 30
0.0
 10
389.696737
 20
100.560631
 30
0.0
 10
389.805587
 20
99.593843
 30
0.0
 11
431.025921
 21
103.042748
 31
0.0
 11
429.241117
 21
112.060305
 31
0.0
 11
427.469979
 21
118.016860
 31
0.0
 11
425.907680
 21
121.047428
 31
0.0
 11
425.313849
 21
121.649028
 31
0.0
 11
424.731695
 21
121.940509
 31
0.0
 11
423.870995
 21
122.070729
 31
0.0
 11
422.481815
 21
122.044307
 31
0.0
 11
420.525230
 21
121.737953
 31
0.0
 11
418.027612
 21
121.108600
 31
0.0
 11
410.384701
 21
118.533975
 31
0.0
 11
402.605376
 21
115.445570
 31
0.0
 11
397.214485
 21
112.902486
 31
0.0
 11
393.797902
 21
110.501090
 31
0.0
 11
391.417613
 21
107.917231
 31
0.0
 11
390.045392
 21
105.319198
 31
0.0
 11
389.607827
 21
103.921390
 31
0.0
 11
389.549375
 21
102.507165
 31
0.0
 11
389.805587
 21
99.593843
 31
0.0
  0
SPLINE
  5
16e
100
AcDbEntity
  8
Layer_1
 62
7
100
AcDbSpline
 70
0
 71
3
 72
19
 73
15
 74
13
 40
0.000000
 40
0.000000
 40
0.000000
 40
0.000000
 40
2.049376
 40
3.924714
 40
5.714222
 40
9.717070
 40
15.453722
 40
21.873887
 40
25.032110
 40
28.018072
 40
30.716028
 40
32.966298
 40
34.652828
 40
35.481549
 40
35.481549
 40
35.481549
 40
35.481549
 10
395.579685
 20
205.742354
 30
0.0
 10
395.981934
 20
205.189885
 30
0.0
 10
396.752272
 20
204.131864
 30
0.0
 10
398.007097
 20
202.695364
 30
0.0
 10
399.837529
 20
200.907879
 30
0.0
 10
402.864127
 20
198.530426
 30
0.0
 10
407.162743
 20
195.287699
 30
0.0
 10
411.319327
 20
192.321592
 30
0.0
 10
414.768990
 20
189.946708
 30
0.0
 10
417.217442
 20
188.305894
 30
0.0
 10
419.430713
 20
186.857624
 30
0.0
 10
421.316612
 20
185.702121
 30
0.0
 10
422.690484
 20
184.903794
 30
0.0
 10
423.432152
 20
184.512705
 30
0.0
 10
423.676516
 20
184.383849
 30
0.0
 11
395.579685
 21
205.742354
 31
0.0
 11
396.811385
 21
204.104411
 31
0.0
 11
398.044296
 21
202.691321
 31
0.0
 11
399.322318
 21
201.438724
 31
0.0
 11
402.414708
 21
198.897087
 31
0.0
 11
406.995531
 21
195.443794
 31
0.0
 11
412.218209
 21
191.709875
 31
0.0
 11
414.820097
 21
189.919749
 31
0.0
 11
417.300404
 21
188.257206
 31
0.0
 11
419.563381
 21
186.788227
 31
0.0
 11
421.482060
 21
185.612478
 31
0.0
 11
422.945220
 21
184.773702
 31
0.0
 11
423.676516
 21
184.383849
 31
0.0
  0
LWPOLYLINE
  5
16f
100
AcDbEntity
  8
Layer_1
 62
7
100
AcDbPolyline
 90
2
 70
0
 10
389.805587
 20
99.593843
 30
0.0
 10
389.806067
 20
99.593900
 30
0.0
  0
LWPOLYLINE
  5
170
100
AcDbEntity
  8
Layer_1
 62
7
100
AcDbPolyline
 90
2
 70
0
 10
423.055683
 20
210.524846
 30
0.0
 10
395.579685
 20
205.742354
 30
0.0
  0
LWPOLYLINE
  5
171
100
AcDbEntity
  8
Layer_1
 62
7
100
AcDbPolyline
 90
5
 70
0
 10
398.249140
 20
241.837583
 30
0.0
 10
399.596610
 20
235.676417
 30
0.0
 10
443.591837
 20
245.132764
 30
0.0
 10
442.244339
 20
251.293926
 30
0.0
 10
398.249140
 20
241.837583
 30
0.0
  0
SPLINE
  5
172
100
AcDbEntity
  8
Layer_1
 62
7
100
AcDbSpline
 70
0
 71
3
 72
13
 73
9
 74
7
 40
0.000000
 40
0.000000
 40
0.000000
 40
0.000000
 40
1.472404
 40
3.589896
 40
6.416310
 40
11.208409
 40
18.140948
 40
26.178498
 40
26.178498
 40
26.178498
 40
26.178498
 10
423.676516
 20
184.383849
 30
0.0
 10
423.738661
 20
184.870875
 30
0.0
 10
423.890178
 20
186.058301
 30
0.0
 10
423.979419
 20
188.197155
 30
0.0
 10
424.033068
 20
191.442097
 30
0.0
 10
423.853219
 20
196.291173
 30
0.0
 10
423.523799
 20
202.869686
 30
0.0
 10
423.219216
 20
207.850572
 30
0.0
 10
423.055683
 20
210.524846
 30
0.0
 11
423.676516
 21
184.383849
 31
0.0
 11
423.845861
 21
185.846482
 31
0.0
 11
423.961943
 21
187.960790
 31
0.0
 11
424.003498
 21
190.786899
 31
0.0
 11
423.871234
 21
195.577172
 31
0.0
 11
423.530414
 21
202.501328
 31
0.0
 11
423.055683
 21
210.524846
 31
0.0
  0
LWPOLYLINE
  5
173
100
AcDbEntity
  8
Layer_1
 62
7
100
AcDbPolyline
 90
2
 70
0
 10
443.934032
 20
97.285934
 30
0.0
 10
443.934116
 20
97.285370
 30
0.0
  0
SPLINE
  5
174
100
AcDbEntity
  8
Layer_1
 62
7
100
AcDbSpline
 70
0
 71
3
 72
10
 73
6
 74
4
 40
0.000000
 40
0.000000
 40
0.000000
 40
0.000000
 40
18.358073
 40
33.927135
 40
45.693809
 40
45.693809
 40
45.693809
 40
45.693809
 10
443.934116
 20
97.285370
 30
0.0
 10
444.586239
 20
91.201116
 30
0.0
 10
445.791412
 20
79.956946
 30
0.0
 10
447.863624
 20
64.858846
 30
0.0
 10
449.643165
 20
55.920839
 30
0.0
 10
450.409169
 20
52.073471
 30
0.0
 11
443.934116
 21
97.285370
 31
0.0
 11
445.988108
 21
79.042564
 31
0.0
 11
448.211188
 21
63.633035
 31
0.0
 11
450.409169
 21
52.073471
 31
0.0
  0
SPLINE
  5
175
100
AcDbEntity
  8
Layer_1
 62
7
100
AcDbSpline
 70
0
 71
3
 72
22
 73
18
 74
16
 40
0.000000
 40
0.000000
 40
0.000000
 40
0.000000
 40
9.751140
 40
23.794112
 40
42.509227
 40
52.857744
 40
60.135272
 40
64.944896
 40
68.335018
 40
71.824099
 40
76.743730
 40
84.036422
 40
89.331824
 40
92.455553
 40
93.071001
 40
93.455359
 40
93.650045
 40
93.650045
 40
93.650045
 40
93.650045
 10
485.279559
 20
52.917310
 30
0.0
 10
484.858312
 20
56.140915
 30
0.0
 10
483.830412
 20
64.006950
 30
0.0
 10
481.107189
 20
77.919841
 30
0.0
 10
478.165859
 20
91.982228
 30
0.0
 10
475.483139
 20
103.797463
 30
0.0
 10
473.483231
 20
111.007642
 30
0.0
 10
471.563345
 20
115.820170
 30
0.0
 10
469.202219
 20
119.012255
 30
0.0
 10
465.793307
 20
121.093769
 30
0.0
 10
460.934506
 20
123.020085
 30
0.0
 10
455.428207
 20
125.003732
 30
0.0
 10
450.352573
 20
126.248741
 30
0.0
 10
447.327589
 20
126.662376
 30
0.0
 10
445.961901
 20
126.489707
 30
0.0
 10
445.567971
 20
126.431423
 30
0.0
 10
445.378823
 20
126.392840
 30
0.0
 10
445.315227
 20
126.379867
 30
0.0
 11
485.279559
 21
52.917310
 31
0.0
 11
483.932450
 21
62.574951
 31
0.0
 11
481.381380
 21
76.384263
 31
0.0
 11
477.527648
 21
94.698309
 31
0.0
 11
475.163361
 21
104.773127
 31
0.0
 11
473.110296
 21
111.755056
 31
0.0
 11
471.167347
 21
116.154764
 31
0.0
 11
469.076992
 21
118.823724
 31
0.0
 11
466.176897
 21
120.763605
 31
0.0
 11
461.658829
 21
122.710352
 31
0.0
 11
454.763971
 21
125.086123
 31
0.0
 11
449.611797
 21
126.309392
 31
0.0
 11
446.497230
 21
126.548464
 31
0.0
 11
445.885897
 21
126.477408
 31
0.0
 11
445.506218
 21
126.417617
 31
0.0
 11
445.315227
 21
126.379867
 31
0.0
  0
LWPOLYLINE
  5
176
100
AcDbEntity
  8
Layer_1
 62
7
100
AcDbPolyline
 90
2
 70
0
 10
450.409169
 20
52.073471
 30
0.0
 10
485.279559
 20
52.917310
 30
0.0
  0
LWPOLYLINE
  5
177
100
AcDbEntity
  8
Layer_1
 62
7
100
AcDbPolyline
 90
2
 70
0
 10
443.934003
 20
97.285909
 30
0.0
 10
443.934032
 20
97.285934
 30
0.0
  0
SPLINE
  5
178
100
AcDbEntity
  8
Layer_1
 62
7
100
AcDbSpline
 70
0
 71
3
 72
16
 73
12
 74
10
 40
0.000000
 40
0.000000
 40
0.000000
 40
0.000000
 40
0.132465
 40
0.360442
 40
0.709404
 40
2.413847
 40
4.641366
 40
8.111188
 40
13.302993
 40
20.427812
 40
29.751036
 40
29.751036
 40
29.751036
 40
29.751036
 10
445.315227
 20
126.379867
 30
0.0
 10
445.284156
 20
126.348492
 30
0.0
 10
445.199611
 20
126.263119
 30
0.0
 10
445.039623
 20
126.088880
 30
0.0
 10
444.532922
 20
125.522528
 30
0.0
 10
443.698496
 20
124.339038
 30
0.0
 10
443.036850
 20
121.926150
 30
0.0
 10
442.695754
 20
118.310422
 30
0.0
 10
442.697014
 20
113.040738
 30
0.0
 10
443.128855
 20
105.839095
 30
0.0
 10
443.642726
 20
100.380179
 30
0.0
 10
443.934003
 20
97.285909
 30
0.0
 11
445.315227
 21
126.379867
 31
0.0
 11
445.222454
 21
126.285315
 31
0.0
 11
445.067216
 21
126.118358
 31
0.0
 11
444.835590
 21
125.857353
 31
0.0
 11
443.878421
 21
124.447050
 31
0.0
 11
443.198470
 21
122.325846
 31
0.0
 11
442.793346
 21
118.879755
 31
0.0
 11
442.740358
 21
113.688221
 31
0.0
 11
443.119816
 21
106.573514
 31
0.0
 11
443.934003
 21
97.285909
 31
0.0
  0
SPLINE
  5
179
100
AcDbEntity
  8
Layer_1
 62
7
100
AcDbSpline
 70
0
 71
3
 72
13
 73
9
 74
7
 40
0.000000
 40
0.000000
 40
0.000000
 40
0.000000
 40
6.367333
 40
9.819659
 40
13.079051
 40
13.586080
 40
14.077157
 40
14.580265
 40
14.580265
 40
14.580265
 40
14.580265
 10
436.540346
 20
183.160639
 30
0.0
 10
436.733838
 20
181.048670
 30
0.0
 10
437.032241
 20
177.791606
 30
0.0
 10
437.705825
 20
173.465074
 30
0.0
 10
438.591987
 20
171.213709
 30
0.0
 10
439.152504
 20
169.909958
 30
0.0
 10
439.377827
 20
169.462938
 30
0.0
 10
439.522088
 20
169.164610
 30
0.0
 10
439.595091
 20
169.013640
 30
0.0
 11
436.540346
 21
183.160639
 31
0.0
 11
437.207992
 21
176.828405
 31
0.0
 11
437.842299
 21
173.434851
 31
0.0
 11
438.954954
 21
170.371254
 31
0.0
 11
439.159354
 21
169.907249
 31
0.0
 11
439.374811
 21
169.465962
 31
0.0
 11
439.595091
 21
169.013640
 31
0.0
  0
LWPOLYLINE
  5
17a
100
AcDbEntity
  8
Layer_1
 62
7
100
AcDbPolyline
 90
2
 70
0
 10
436.540289
 20
183.161203
 30
0.0
 10
436.540346
 20
183.160639
 30
0.0
  0
SPLINE
  5
17b
100
AcDbEntity
  8
Layer_1
 62
7
100
AcDbSpline
 70
0
 71
3
 72
19
 73
15
 74
13
 40
0.000000
 40
0.000000
 40
0.000000
 40
0.000000
 40
4.789749
 40
13.249627
 40
26.634281
 40
36.149096
 40
43.534990
 40
49.130892
 40
53.272796
 40
56.463018
 40
59.316316
 40
59.937107
 40
60.543128
 40
61.148310
 40
61.148310
 40
61.148310
 40
61.148310
 10
439.595091
 20
169.013640
 30
0.0
 10
440.684234
 20
170.181602
 30
0.0
 10
443.697072
 20
173.412473
 30
0.0
 10
449.241140
 20
180.355094
 30
0.0
 10
455.710596
 20
188.562496
 30
0.0
 10
461.843243
 20
196.582493
 30
0.0
 10
466.240640
 20
202.659111
 30
0.0
 10
469.347346
 20
207.450926
 30
0.0
 10
471.400020
 20
211.250071
 30
0.0
 10
472.580485
 20
214.448374
 30
0.0
 10
472.979318
 20
216.646172
 30
0.0
 10
473.078700
 20
218.003300
 30
0.0
 10
473.063505
 20
218.615068
 30
0.0
 10
473.014732
 20
219.015988
 30
0.0
 10
472.990362
 20
219.216309
 30
0.0
 11
439.595091
 21
169.013640
 31
0.0
 11
442.829214
 21
172.546648
 31
0.0
 11
448.209945
 21
179.074838
 31
0.0
 11
456.479176
 21
189.599514
 31
0.0
 11
462.236703
 21
197.174643
 31
0.0
 11
466.531522
 21
203.183466
 31
0.0
 11
469.538304
 21
207.902934
 31
0.0
 11
471.450798
 21
211.576861
 31
0.0
 11
472.525141
 21
214.580743
 31
0.0
 11
473.029760
 21
217.389064
 31
0.0
 11
473.068803
 21
218.008626
 31
0.0
 11
473.053803
 21
218.614461
 31
0.0
 11
472.990362
 21
219.216309
 31
0.0
  0
LWPOLYLINE
  5
17c
100
AcDbEntity
  8
Layer_1
 62
7
100
AcDbPolyline
 90
2
 70
0
 10
472.990362
 20
219.216309
 30
0.0
 10
434.376802
 20
212.495014
 30
0.0
  0
SPLINE
  5
17d
100
AcDbEntity
  8
Layer_1
 62
7
100
AcDbSpline
 70
0
 71
3
 72
10
 73
6
 74
4
 40
0.000000
 40
0.000000
 40
0.000000
 40
0.000000
 40
11.591119
 40
21.884663
 40
29.414265
 40
29.414265
 40
29.414265
 40
29.414265
 10
434.376802
 20
212.495014
 30
0.0
 10
434.631735
 20
208.639753
 30
0.0
 10
435.113063
 20
201.360809
 30
0.0
 10
435.802035
 20
191.579920
 30
0.0
 10
436.321032
 20
185.661498
 30
0.0
 10
436.540289
 20
183.161189
 30
0.0
 11
434.376802
 21
212.495014
 31
0.0
 11
435.150376
 21
200.929738
 31
0.0
 11
435.900639
 21
190.663572
 31
0.0
 11
436.540289
 21
183.161189
 31
0.0
  0
LWPOLYLINE
  5
17e
100
AcDbEntity
  8
Layer_1
 62
7
100
AcDbPolyline
 90
2
 70
0
 10
436.540289
 20
183.161189
 30
0.0
 10
436.540289
 20
183.161203
 30
0.0
  0
SPLINE
  5
17f
100
AcDbEntity
  8
Layer_1
 62
7
100
AcDbSpline
 70
0
 71
3
 72
16
 73
12
 74
10
 40
0.000000
 40
0.000000
 40
0.000000
 40
0.000000
 40
0.087810
 40
0.165400
 40
0.235610
 40
0.503508
 40
0.899223
 40
1.563298
 40
4.090358
 40
8.440371
 40
14.758112
 40
14.758112
 40
14.758112
 40
14.758112
 10
444.197401
 20
143.527715
 30
0.0
 10
444.201479
 20
143.498719
 30
0.0
 10
444.209161
 20
143.444102
 30
0.0
 10
444.226135
 20
143.367366
 30
0.0
 10
444.268352
 20
143.234830
 30
0.0
 10
444.432886
 20
143.039832
 30
0.0
 10
444.819353
 20
142.822210
 30
0.0
 10
445.816002
 20
142.160943
 30
0.0
 10
448.111650
 20
141.107748
 30
0.0
 10
452.217941
 20
139.542842
 30
0.0
 10
455.577157
 20
138.373297
 30
0.0
 10
457.566578
 20
137.680660
 30
0.0
 11
444.197401
 21
143.527715
 31
0.0
 11
444.210829
 21
143.440938
 31
0.0
 11
444.227869
 21
143.365242
 31
0.0
 11
444.250064
 21
143.298632
 31
0.0
 11
444.411460
 21
143.084809
 31
0.0
 11
444.739285
 21
142.863176
 31
0.0
 11
445.302019
 21
142.510578
 31
0.0
 11
447.563017
 21
141.381897
 31
0.0
 11
451.612119
 21
139.792119
 31
0.0
 11
457.566578
 21
137.680660
 31
0.0
  0
LWPOLYLINE
  5
180
100
AcDbEntity
  8
Layer_1
 62
7
100
AcDbPolyline
 90
2
 70
0
 10
444.250064
 20
143.298632
 30
0.0
 10
444.250064
 20
143.298632
 30
0.0
  0
SPLINE
  5
181
100
AcDbEntity
  8
Layer_1
 62
7
100
AcDbSpline
 70
0
 71
3
 72
25
 73
21
 74
19
 40
0.000000
 40
0.000000
 40
0.000000
 40
0.000000
 40
11.143905
 40
17.802058
 40
21.219749
 40
22.571637
 40
25.133255
 40
28.167074
 40
31.196204
 40
33.684439
 40
34.801386
 40
35.319461
 40
35.948730
 40
37.138557
 40
39.169245
 40
42.081888
 40
45.931231
 40
51.600564
 40
60.728684
 40
71.386158
 40
71.386158
 40
71.386158
 40
71.386158
 10
457.566578
 20
137.680660
 30
0.0
 10
461.093002
 20
136.482713
 30
0.0
 10
466.726360
 20
134.569027
 30
0.0
 10
473.526265
 20
132.827012
 30
0.0
 10
477.377316
 20
132.162730
 30
0.0
 10
479.759809
 20
132.780721
 30
0.0
 10
481.991330
 20
133.377063
 30
0.0
 10
484.733615
 20
134.253069
 30
0.0
 10
487.390508
 20
135.290357
 30
0.0
 10
489.395721
 20
136.224651
 30
0.0
 10
490.661452
 20
136.760151
 30
0.0
 10
491.287188
 20
137.206308
 30
0.0
 10
491.668651
 20
137.906276
 30
0.0
 10
492.038029
 20
139.133700
 30
0.0
 10
492.454163
 20
141.140292
 30
0.0
 10
492.776116
 20
144.055161
 30
0.0
 10
493.070190
 20
148.189889
 30
0.0
 10
493.138254
 20
154.407370
 30
0.0
 10
493.180267
 20
162.891354
 30
0.0
 10
493.141008
 20
169.486657
 30
0.0
 10
493.119862
 20
173.039205
 30
0.0
 11
457.566578
 21
137.680660
 31
0.0
 11
468.173807
 21
134.264035
 31
0.0
 11
474.637448
 21
132.666430
 31
0.0
 11
478.044058
 21
132.391444
 31
0.0
 11
479.364909
 21
132.679466
 31
0.0
 11
481.835852
 21
133.354981
 31
0.0
 11
484.724089
 21
134.283501
 31
0.0
 11
487.544504
 21
135.388439
 31
0.0
 11
489.818305
 21
136.398953
 31
0.0
 11
490.821924
 21
136.889180
 31
0.0
 11
491.229994
 21
137.208365
 31
0.0
 11
491.562516
 21
137.742602
 31
0.0
 11
491.944999
 21
138.869276
 31
0.0
 11
492.368267
 21
140.855362
 31
0.0
 11
492.725558
 21
143.746009
 31
0.0
 11
492.995994
 21
147.585839
 31
0.0
 11
493.121285
 21
153.253788
 31
0.0
 11
493.162436
 21
162.381815
 31
0.0
 11
493.119862
 21
173.039205
 31
0.0
  0
SPLINE
  5
182
100
AcDbEntity
  8
Layer_1
 62
7
100
AcDbSpline
 70
0
 71
3
 72
13
 73
9
 74
7
 40
0.000000
 40
0.000000
 40
0.000000
 40
0.000000
 40
1.019900
 40
2.261488
 40
3.837007
 40
4.210200
 40
4.422872
 40
4.565821
 40
4.565821
 40
4.565821
 40
4.565821
 10
489.924542
 20
205.450635
 30
0.0
 10
489.675693
 20
205.682636
 30
0.0
 10
489.123906
 20
206.197067
 30
0.0
 10
488.085358
 20
206.948626
 30
0.0
 10
487.179807
 20
207.506881
 30
0.0
 10
486.554374
 20
207.864645
 30
0.0
 10
486.339635
 20
207.978363
 30
0.0
 10
486.233130
 20
208.030417
 30
0.0
 10
486.190318
 20
208.051341
 30
0.0
 11
489.924542
 21
205.450635
 31
0.0
 11
489.165728
 21
206.132102
 31
0.0
 11
488.168530
 21
206.871790
 31
0.0
 11
486.831499
 21
207.705221
 31
0.0
 11
486.506671
 21
207.888959
 31
0.0
 11
486.318475
 21
207.988014
 31
0.0
 11
486.190318
 21
208.051341
 31
0.0
  0
LWPOLYLINE
  5
183
100
AcDbEntity
  8
Layer_1
 62
7
100
AcDbPolyline
 90
2
 70
0
 10
493.119862
 20
173.039205
 30
0.0
 10
489.924542
 20
205.450635
 30
0.0
  0
SPLINE
  5
184
100
AcDbEntity
  8
Layer_1
 62
7
100
AcDbSpline
 70
0
 71
3
 72
31
 73
27
 74
25
 40
0.000000
 40
0.000000
 40
0.000000
 40
0.000000
 40
0.351405
 40
0.868082
 40
1.581136
 40
2.207683
 40
3.715954
 40
5.869097
 40
8.533861
 40
11.715116
 40
15.385737
 40
24.101208
 40
34.523418
 40
46.502458
 40
55.664431
 40
62.040315
 40
66.209520
 40
68.980254
 40
71.553420
 40
75.112084
 40
76.061111
 40
76.898911
 40
77.624405
 40
78.362908
 40
78.878950
 40
79.226286
 40
79.226286
 40
79.226286
 40
79.226286
 10
486.190318
 20
208.051341
 30
0.0
 10
486.089081
 20
207.992345
 30
0.0
 10
485.838994
 20
207.846606
 30
0.0
 10
485.401324
 20
207.553305
 30
0.0
 10
484.887393
 20
207.204816
 30
0.0
 10
484.212703
 20
206.533718
 30
0.0
 10
483.198043
 20
205.528803
 30
0.0
 10
481.767973
 20
203.977196
 30
0.0
 10
480.015850
 20
201.967577
 30
0.0
 10
477.962076
 20
199.549703
 30
0.0
 10
474.648989
 20
195.555856
 30
0.0
 10
469.873371
 20
189.639710
 30
0.0
 10
463.450891
 20
181.495055
 30
0.0
 10
457.005890
 20
173.178429
 30
0.0
 10
451.439745
 20
165.889395
 30
0.0
 10
447.579350
 20
160.569316
 30
0.0
 10
445.238159
 20
156.795536
 30
0.0
 10
443.995514
 20
153.841147
 30
0.0
 10
443.723396
 20
150.855416
 30
0.0
 10
443.872748
 20
148.500826
 30
0.0
 10
443.961876
 20
146.721164
 30
0.0
 10
444.013113
 20
145.885218
 30
0.0
 10
444.079633
 20
145.120842
 30
0.0
 10
444.140772
 20
144.463523
 30
0.0
 10
444.163447
 20
143.929897
 30
0.0
 10
444.187379
 20
143.643081
 30
0.0
 10
444.197006
 20
143.527695
 30
0.0
 11
486.190318
 21
208.051341
 31
0.0
 11
485.888213
 21
207.871847
 31
0.0
 11
485.455671
 21
207.589247
 31
0.0
 11
484.878606
 21
207.170390
 31
0.0
 11
484.421644
 21
206.741733
 31
0.0
 11
483.357208
 21
205.673155
 31
0.0
 11
481.890380
 21
204.096945
 31
0.0
 11
480.132904
 21
202.093885
 31
0.0
 11
478.072096
 21
199.670365
 31
0.0
 11
475.726393
 21
196.847045
 31
0.0
 11
470.242561
 21
190.073048
 31
0.0
 11
463.782918
 21
181.894083
 31
0.0
 11
456.443644
 21
172.426641
 31
0.0
 11
450.910705
 21
165.124017
 31
0.0
 11
447.224452
 21
159.921764
 31
0.0
 11
445.105480
 21
156.331189
 31
0.0
 11
444.113449
 21
153.744136
 31
0.0
 11
443.809300
 21
151.189009
 31
0.0
 11
443.915377
 21
147.631926
 31
0.0
 11
443.965606
 21
146.684229
 31
0.0
 11
444.019222
 21
145.848147
 31
0.0
 11
444.079969
 21
145.125200
 31
0.0
 11
444.140372
 21
144.389171
 31
0.0
 11
444.170018
 21
143.873981
 31
0.0
 11
444.197006
 21
143.527695
 31
0.0
  0
LWPOLYLINE
  5
185
100
AcDbEntity
  8
Layer_1
 62
7
100
AcDbPolyline
 90
2
 70
0
 10
444.197006
 20
143.527695
 30
0.0
 10
444.197401
 20
143.527715
 30
0.0
  0
SPLINE
  5
186
100
AcDbEntity
  8
Layer_1
 62
7
100
AcDbSpline
 70
0
 71
3
 72
19
 73
15
 74
13
 40
0.000000
 40
0.000000
 40
0.000000
 40
0.000000
 40
0.502971
 40
1.117574
 40
1.863212
 40
3.064289
 40
4.500414
 40
6.192203
 40
20.957543
 40
41.845917
 40
58.284856
 40
60.521185
 40
62.524292
 40
64.346568
 40
64.346568
 40
64.346568
 40
64.346568
 10
485.533898
 20
116.268926
 30
0.0
 10
485.550279
 20
116.102070
 30
0.0
 10
485.586678
 20
115.731323
 30
0.0
 10
485.655943
 20
115.114115
 30
0.0
 10
485.750080
 20
114.265553
 30
0.0
 10
485.883468
 20
113.145825
 30
0.0
 10
486.070379
 20
111.714987
 30
0.0
 10
486.856010
 20
105.802284
 30
0.0
 10
489.220441
 20
93.570854
 30
0.0
 10
492.617266
 20
76.549322
 30
0.0
 10
495.292253
 20
63.627447
 30
0.0
 10
497.039910
 20
56.959330
 30
0.0
 10
497.606796
 20
55.019514
 30
0.0
 10
498.002366
 20
53.807240
 30
0.0
 10
498.190802
 20
53.229756
 30
0.0
 11
485.533898
 21
116.268926
 31
0.0
 11
485.584085
 21
115.768465
 31
0.0
 11
485.650955
 21
115.157511
 31
0.0
 11
485.734106
 21
114.416524
 31
0.0
 11
485.876249
 21
113.223888
 31
0.0
 11
486.059822
 21
111.799544
 31
0.0
 11
486.285371
 21
110.122857
 31
0.0
 11
488.844365
 21
95.580959
 31
0.0
 11
492.935513
 21
75.097143
 31
0.0
 11
496.497130
 21
59.048667
 31
0.0
 11
497.070242
 21
56.887021
 31
0.0
 11
497.634078
 21
54.964907
 31
0.0
 11
498.190802
 21
53.229756
 31
0.0
  0
LWPOLYLINE
  5
187
100
AcDbEntity
  8
Layer_1
 62
7
100
AcDbPolyline
 90
3
 70
0
 10
498.190802
 20
53.229756
 30
0.0
 10
504.915509
 20
53.392575
 30
0.0
 10
497.873726
 20
124.821140
 30
0.0
  0
LWPOLYLINE
  5
188
100
AcDbEntity
  8
Layer_1
 62
7
100
AcDbPolyline
 90
2
 70
0
 10
485.533756
 20
116.268912
 30
0.0
 10
485.533898
 20
116.268926
 30
0.0
  0
SPLINE
  5
189
100
AcDbEntity
  8
Layer_1
 62
7
100
AcDbSpline
 70
0
 71
3
 72
19
 73
15
 74
13
 40
0.000000
 40
0.000000
 40
0.000000
 40
0.000000
 40
1.135671
 40
2.441022
 40
4.080016
 40
7.823564
 40
10.395861
 40
11.887359
 40
12.515594
 40
12.872074
 40
13.710460
 40
14.728975
 40
15.479544
 40
16.514121
 40
16.514121
 40
16.514121
 40
16.514121
 10
497.873726
 20
124.821140
 30
0.0
 10
497.509303
 20
124.718391
 30
0.0
 10
496.726010
 20
124.497541
 30
0.0
 10
495.439134
 20
124.056607
 30
0.0
 10
493.337602
 20
123.310166
 30
0.0
 10
490.867842
 20
122.365209
 30
0.0
 10
488.428650
 20
121.401180
 30
0.0
 10
487.099666
 20
120.613908
 30
0.0
 10
486.334627
 20
120.231568
 30
0.0
 10
486.029876
 20
119.686063
 30
0.0
 10
485.911008
 20
118.952816
 30
0.0
 10
485.598351
 20
118.138986
 30
0.0
 10
485.443987
 20
117.208646
 30
0.0
 10
485.500819
 20
116.613707
 30
0.0
 10
485.533756
 20
116.268912
 30
0.0
 11
497.873726
 21
124.821140
 31
0.0
 11
496.783353
 21
124.503595
 31
0.0
 11
495.545051
 21
124.090616
 31
0.0
 11
494.000790
 21
123.541474
 31
0.0
 11
490.499874
 21
122.215676
 31
0.0
 11
488.138495
 21
121.195577
 31
0.0
 11
486.828169
 21
120.483108
 31
0.0
 11
486.307499
 21
120.131566
 31
0.0
 11
486.122498
 21
119.826848
 31
0.0
 11
485.895622
 21
119.019743
 31
0.0
 11
485.604249
 21
118.043795
 31
0.0
 11
485.487046
 21
117.302433
 31
0.0
 11
485.533756
 21
116.268912
 31
0.0
  0
LWPOLYLINE
  5
18a
100
AcDbEntity
  8
Layer_1
 62
1
100
AcDbPolyline
 90
5
 70
0
 10
252.891970
 20
808.676987
 30
0.0
 10
352.225300
 20
808.676987
 30
0.0
 10
352.225300
 20
709.343655
 30
0.0
 10
252.891970
 20
709.343655
 30
0.0
 10
252.891970
 20
808.676987
 30
0.0
  0
ENDSEC
  0
SECTION
  2
OBJECTS
  0
DICTIONARY
  5
C
330
0
100
AcDbDictionary
  3
ACAD_GROUP
350
D
  3
ACAD_MLINESTYLE
350
17
  0
DICTIONARY
  5
D
330
C
100
AcDbDictionary
  0
DICTIONARY
  5
1A
330
C
100
AcDbDictionary
  0
DICTIONARY
  5
17
330
C
100
AcDbDictionary
  3
STANDARD
350
18
  0
DICTIONARY
  5
19
330
C
100
AcDbDictionary
  0
ENDSEC
  0
EOF
