<?xml version="1.0" encoding="UTF-8" standalone="no"?>
<!-- Created with Inkscape (http://www.inkscape.org/) -->

<svg
   xmlns:dc="http://purl.org/dc/elements/1.1/"
   xmlns:cc="http://creativecommons.org/ns#"
   xmlns:rdf="http://www.w3.org/1999/02/22-rdf-syntax-ns#"
   xmlns:svg="http://www.w3.org/2000/svg"
   xmlns="http://www.w3.org/2000/svg"
   xmlns:sodipodi="http://sodipodi.sourceforge.net/DTD/sodipodi-0.dtd"
   xmlns:inkscape="http://www.inkscape.org/namespaces/inkscape"
   width="8640"
   height="4320"
   viewBox="0 0 8639.9995 4319.9999"
   id="svg2"
   version="1.1"
   inkscape:version="0.48.2 r9819"
   sodipodi:docname="pylon_v4.svg">
  <defs
     id="defs4" />
  <sodipodi:namedview
     id="base"
     pagecolor="#ffffff"
     bordercolor="#666666"
     borderopacity="1.0"
     inkscape:pageopacity="0.0"
     inkscape:pageshadow="2"
     inkscape:zoom="0.11933113"
     inkscape:cx="1935.1433"
     inkscape:cy="395.46575"
     inkscape:document-units="mm"
     inkscape:current-layer="layer1"
     showgrid="false"
     units="mm"
     showguides="true"
     inkscape:guide-bbox="true"
     inkscape:window-width="1680"
     inkscape:window-height="998"
     inkscape:window-x="-8"
     inkscape:window-y="-8"
     inkscape:window-maximized="1" />
  <metadata
     id="metadata7">
    <rdf:RDF>
      <cc:Work
         rdf:about="">
        <dc:format>image/svg+xml</dc:format>
        <dc:type
           rdf:resource="http://purl.org/dc/dcmitype/StillImage" />
        <dc:title></dc:title>
      </cc:Work>
    </rdf:RDF>
  </metadata>
  <g
     inkscape:label="Layer 1"
     inkscape:groupmode="layer"
     id="layer1"
     transform="translate(0,3267.6378)">
    <path
       style="opacity:0.75;color:#000000;fill:#ff0000;fill-opacity:1;fill-rule:nonzero;stroke:none;visibility:visible;display:inline;overflow:visible;enable-background:accumulate"
       d="m 53.848953,1052.3621 1808.982747,-0.3826 -89.7405,-895.51467 -207.9951,42.06512 -0.1435,-0.70991 -5.6193,-27.78278 69.4601,-14.04637 -4.9411,-24.42944 c -1.9324,-9.5555 -11.1798,-15.68986 -20.7355,-13.75767 l -104.4231,21.11452 c -9.5555,1.9322 -15.6937,11.18037 -13.7615,20.73588 l 0.023,0.11734 7.0466,34.84546 3.6322,17.96142 -1293.39163,261.57445 -0.14931,-0.74665 -5.61721,-27.78298 69.45825,-14.04422 -4.93912,-24.42963 c -1.93228,-9.5555 -11.17967,-15.69185 -20.73566,-13.75961 l -104.42285,21.11647 c -9.55599,1.93233 -15.69385,11.17841 -13.76178,20.73392 l 0.0121,0.12048 7.0465,34.84548 3.6376,17.99425 -132.77104,26.85327 z m 41.363978,-36.4441 0.380172,-22.34379 159.434497,2.13852 -0.38017,22.34367 z M 102.62048,926.87162 89.722625,798.37276 c 21.671575,-12.87643 40.419765,-22.28893 55.044835,-27.65127 16.55379,-6.0695 27.89871,-6.23669 30.86057,-5.24896 1.44889,0.48311 2.00893,0.75886 2.35442,0.9277 0.11999,0.4545 0.31997,1.27537 0.50521,2.99969 1.21452,11.30904 -3.87435,34.75789 -40.15618,156.5451 z M 85.114485,752.46283 76.58523,667.48747 c 12.171217,3.88556 22.540027,7.44689 26.0634,9.2067 6.97512,3.48391 17.01251,10.2597 24.79441,16.60875 3.89089,3.17447 7.28632,6.2851 9.45876,8.57869 0.99499,1.05059 1.56603,2.13189 1.87508,2.68358 0.0564,1.95754 -1.17654,4.57326 -7.2077,11.24679 -7.72026,8.54242 -23.10194,20.78636 -46.454695,36.65085 z m 31.408275,-183.34839 68.33065,-12.01915 c -10.81828,45.64173 -18.5887,76.8041 -23.77763,92.69166 -1.77145,5.42403 -3.24087,8.98492 -4.44986,11.61774 -1.42891,-0.77066 -2.74447,-1.37926 -4.17304,-2.30571 -15.6472,-10.14772 -20.44217,-15.49856 -23.32808,-22.00678 -3.33203,-7.5144 -7.52831,-27.44001 -12.60204,-67.97776 z m 63.24033,355.75375 c 3.06949,-9.4317 6.35028,-19.87518 8.99474,-27.45158 4.7016,-13.47029 9.20183,-24.31197 9.94725,-25.66669 1.02104,-1.85604 1.89458,-2.99879 2.59215,-3.86218 3.07732,2.29031 11.68243,10.05525 22.21586,24.94702 4.06873,5.75231 11.65217,17.24035 20.21241,30.37148 z M 161.49361,663.86444 c 0.55171,0.0976 0.62047,0.23794 0.52752,0.21008 -0.0455,-0.0136 -0.40222,-0.16537 -0.52752,-0.21008 z m 38.30756,31.04422 -2e-4,-0.002 c -1.65072,-20.38486 5.27825,-65.861 23.73811,-143.91255 0.0609,-0.25545 0.1155,-0.48053 0.17557,-0.7341 l 90.9182,-15.99015 c 19.50686,22.81568 20.89378,29.69634 24.02495,62.17512 l 0,0 c 2.94337,30.54677 4.89789,86.21995 3.97613,101.0986 -0.65129,10.5131 -3.92195,17.08355 -4.82154,18.57243 -1.07826,0.42783 -3.90446,1.98725 -6.98388,2.72086 -4.95588,1.18066 -11.10611,1.80352 -14.03943,1.63885 -3.43873,-0.19272 -26.87714,-1.42358 -52.64464,-2.76394 -25.05039,-1.30319 -40.54295,-2.80319 -49.23282,-4.77488 -8.68977,-1.9718 -9.46055,-2.88826 -12.01317,-5.96481 -0.63524,-0.76569 -2.45315,-4.08604 -3.09918,-12.06329 z m 18.35977,105.15893 c -0.61376,-5.32372 -0.0827,-10.34406 1.50035,-18.39611 2.09363,-10.64904 4.21386,-15.46797 4.4419,-16.17488 0.33434,-0.0954 2.01898,-0.62602 8.36062,-1.24747 8.22577,-0.80555 71.69525,1.85943 85.85018,4.19504 10.99844,1.81474 17.036,4.65421 21.6943,8.97588 4.65839,4.32157 8.75127,11.19058 12.4789,23.39412 1.86032,6.09014 5.21695,28.16887 7.4821,53.5007 1.82773,20.44126 3.12657,43.54141 3.96305,65.767 l -77.5674,2.01466 c -4.47323,-6.94959 -8.93067,-13.87605 -13.92248,-21.73972 -40.62774,-64.00143 -52.71186,-86.68457 -54.28152,-100.28922 z m 184.81467,119.00053 -2e-4,-0.002 c -0.54036,-13.02425 -1.07875,-25.80174 -1.62172,-41.75578 -1.42164,-41.78402 -1.1518,-67.6964 1.14731,-82.67441 2.29911,-14.9781 4.3633,-17.17334 10.05898,-21.15138 -1.16516,0.81374 1.3347,-0.67564 4.74536,-1.86802 3.41056,-1.19248 8.10704,-2.59324 13.53066,-4.00809 10.84711,-2.82985 24.66246,-5.74775 38.41644,-7.96245 10.55166,-1.6991 16.22047,-2.39034 18.51399,-2.40989 2.29351,-0.0198 1.44423,-0.16004 4.86325,1.2039 6.13913,2.44852 5.1944,0.57401 8.17351,10.05036 2.97901,9.47636 5.82776,29.41099 9.30841,64.08805 2.61856,26.08821 4.93832,55.73703 6.81194,83.53026 z m -17.32875,-244.31702 -2e-4,-0.002 c -2.88979,-30.47465 -4.37118,-71.91776 -2.97872,-85.19682 1.61562,-15.40839 3.04716,-20.30689 12.97527,-29.15647 9.92813,-8.84959 30.57624,-20.28642 67.40075,-37.76986 26.71109,-12.68188 44.35228,-20.46405 55.62453,-24.24293 l 15.69353,-2.75885 c 0.40663,0.19517 0.87097,0.59493 1.94462,1.49883 2.059,1.73333 4.11285,4.14324 7.7362,14.16146 3.62335,10.01821 8.08709,26.62471 14.30389,52.7826 8.71914,36.68663 13.4282,58.51783 15.02364,71.47215 1.59535,12.95434 0.84924,14.93113 -1.32466,19.3835 0.81913,-1.67781 -5.98549,7.45894 -14.27478,14.9771 -8.28938,7.51826 -18.67245,15.77144 -27.56672,21.67594 -15.86736,10.53326 -26.47074,14.33949 -63.13088,22.05194 -17.28495,3.63636 -32.39676,6.08886 -44.02522,7.27111 -11.62848,1.18227 -20.58181,0.48574 -21.21107,0.31723 -3.7267,-0.99788 -8.6311,-5.096 -11.25001,-12.73503 -0.48629,-1.41833 -2.85406,-13.81161 -4.34236,-27.79318 -0.20503,-1.92254 -0.40504,-3.90516 -0.59592,-5.93696 z m 168.998,240.37449 c -1.53617,-19.36369 -3.08734,-39.2705 -4.0451,-56.21889 -1.49065,-26.378 -2.11905,-46.91593 -1.76204,-61.26313 2.13016,3.38439 4.36874,7.03295 6.86449,11.36344 11.53881,20.0208 26.84222,49.90835 46.35829,89.50513 2.95442,5.9941 4.7389,9.97994 7.25466,15.19126 z m 9.8464,-183.31787 c -0.2828,-2.81745 -0.32258,-4.27107 -0.346,-4.91385 0.36882,-0.52807 1.2001,-1.74635 3.01218,-4.01818 2.56052,-3.20987 10.902,-11.2554 19.08858,-17.98264 8.18722,-6.7278 17.78586,-13.06147 19.22169,-13.72268 l 0,0 c 0.0404,-0.0181 7.23017,-1.72209 10.02164,-1.69294 l 0,0 c 1.33254,0.0136 20.3208,3.07907 37.78671,7.3155 17.46583,4.23634 36.33669,9.68055 44.72606,12.97104 11.8724,4.65637 14.51233,6.57515 16.81704,10.83949 2.30462,4.26445 4.52441,15.11137 5.87475,36.01914 1.70794,26.44394 0.64748,117.27008 -1.61258,154.23098 l -69.45022,1.8045 c -10.30684,-19.01571 -23.33405,-44.23667 -42.04808,-81.43233 -33.28182,-66.15023 -42.01409,-88.64218 -43.09565,-99.41763 z m 20.99775,-245.17639 120.77741,-21.24068 c 40.16032,23.32122 63.1335,37.57383 76.65329,48.40684 14.12519,11.3181 18.98259,18.64175 27.83768,34.07966 8.18547,14.27085 15.57617,28.59766 21.08809,40.6008 5.51193,12.00313 9.12139,22.50878 9.63673,25.29293 0.64148,3.46626 0.43909,4.73518 0.37691,4.96766 -0.0621,0.23246 0.0857,0.52368 -2.09862,2.52102 -4.3693,3.99465 -17.80341,11.73907 -42.0883,23.30234 -25.51319,12.14818 -40.55213,18.45583 -51.0936,20.92225 -10.54139,2.46632 -17.23236,1.98659 -31.03156,-0.65999 -21.64492,-4.15135 -64.18735,-16.23523 -74.76412,-20.66777 -11.78877,-4.94064 -13.53169,-5.161 -19.72036,-18.81991 -6.18859,-13.65903 -13.5113,-40.86705 -25.43395,-90.5081 -4.94947,-20.60682 -8.02316,-35.21683 -10.1396,-48.19705 z m 175.3372,423.13756 c -0.17288,-16.50335 -0.11237,-36.64577 0.31405,-65.74876 0.88862,-60.63611 2.34451,-94.20421 6.27597,-112.0542 3.93144,-17.84998 6.85638,-19.58906 20.17541,-28.1577 7.41912,-4.77281 21.69938,-12.18379 35.03044,-18.26759 13.33103,-6.08392 27.68953,-11.16136 29.52328,-11.51195 7.2707,-1.39029 5.60168,-2.00684 9.04647,2.10508 3.4448,4.11202 9.30573,16.64558 15.86422,38.40647 2.23498,7.41556 10.97262,42.50525 20.02494,80.52376 9.05242,38.0184 18.79201,80.15653 24.21237,105.36452 0.34076,1.58459 0.584,3.48926 0.90907,5.14588 z m 76.74388,-418.40091 c -0.18197,-2.12325 -0.28835,-4.26652 -0.32304,-6.48454 -0.10009,-6.4185 0.94661,-23.67165 2.44425,-42.96086 l 71.58501,-12.58919 c 10.47069,23.82901 21.35297,49.11423 30.51039,71.17003 10.61184,25.55867 19.09481,47.51543 20.9111,53.70155 2.40161,8.17945 3.44991,14.03669 3.44472,17.14796 -0.005,3.11118 -0.1269,3.1364 -1.36085,4.5905 -2.4677,2.9081 -15.77455,10.11107 -42.93277,18.93712 -21.04301,6.83879 -27.36582,7.52263 -31.4175,6.85755 -1.03463,-0.16982 -2.42417,-0.15271 -7.95884,-7.71637 -5.53467,-7.56377 -13.37226,-21.59482 -24.19822,-43.58244 -14.37385,-29.19331 -19.43128,-44.22513 -20.70425,-59.07131 z m 74.63503,181.56322 c -1.0429,-10.71071 -0.3988,-15.43785 0.69143,-18.96466 1.81741,-5.88031 0.32186,-4.66554 7.2756,-8.59578 6.95385,-3.93023 22.41716,-9.80186 50.1057,-19.14869 27.43058,-9.25963 37.07535,-11.69515 52.99505,-13.55577 7.8461,-0.9172 10.4516,-1.01982 12.4222,-1.12714 0.5345,1.65652 1.2596,4.38761 1.9945,9.23174 1.5234,10.04107 2.8698,26.96765 4.3784,53.69251 2.8743,50.92624 2.645,72.52176 0.8853,81.72642 -3.4863,18.23928 -14.1375,37.5984 -52.31495,89.15097 -14.10782,19.05051 -23.68659,30.47239 -28.87684,35.45577 -1.55283,-2.8754 -3.66013,-7.48285 -6.63693,-17.0945 -4.76363,-15.38075 -11.04578,-40.38529 -20.28414,-79.8598 C 920.67239,723.30329 913.94365,690.78352 912.20512,672.9312 z M 996.1615,903.653 c 6.7887,-9.80541 15.3734,-21.58927 26.1512,-36.15187 16.1321,-21.79713 26.1629,-34.7501 32.5323,-41.7272 4.9584,-5.43147 6.6422,-6.69178 8.1124,-7.26056 1.0098,0.77884 3.4972,2.99231 7.2189,8.089 8.4329,11.54824 21.6709,35.14016 41.8928,74.03784 z m -48.03375,-480.79999 0,0 109.31575,-19.22655 c 1.0709,21.97139 1.7194,45.73732 1.3192,68.66272 -0.5014,28.71605 -2.984,50.50319 -6.9534,65.17459 -3.9695,14.67139 -9.0963,21.13589 -12.935,23.45598 l 0,0 c -3.5829,2.16556 -21.2802,5.54796 -22.6481,5.45912 -0.09,-0.10713 -0.1546,-0.18076 -0.8185,-0.86005 -1.7498,-1.79031 -5.0799,-6.27738 -9.4175,-14.05357 -8.67481,-15.55259 -21.56742,-43.83156 -41.92249,-90.91808 -5.58716,-12.92483 -10.72541,-25.26732 -15.93807,-37.69435 z m 138.15055,306.10422 c -1.3838,-14.31729 -2.5189,-32.16494 -3.0888,-47.98221 -0.5697,-15.81606 -0.4024,-30.42103 0.1397,-35.02108 2.1184,-17.95794 6.5396,-26.39296 12.3474,-30.9131 5.8079,-4.52014 16.4384,-7.31286 35.9597,-5.88052 19.1923,1.40818 75.0412,11.71261 101.0912,18.94783 9.2698,2.57448 14.9615,5.31166 17.7892,7.44221 2.8279,2.13055 3.413,3.09797 4.2303,6.21995 -0.047,-0.17929 0.7198,4.91395 0.9635,10.96836 0.2438,6.05434 0.2872,13.73336 0.1261,21.94482 -0.3226,16.42311 -1.4838,35.15754 -3.1849,48.07993 -2.6712,20.29163 -13.2101,71.31348 -26.8835,128.80741 -4.4775,18.82771 -9.0188,34.24826 -13.5285,46.46625 l -53.6995,1.3954 c -7.632,-11.97213 -16.2673,-26.91671 -26.8889,-47.2932 -30.6405,-58.78037 -36.5791,-72.97664 -42.498,-101.38365 -0.8514,-4.08679 -1.9534,-12.25564 -2.875,-21.7984 z m 16.8928,-224.66584 c -0.9822,-9.88534 -1.7624,-21.65671 -2.3326,-35.4423 -1.2043,-29.12463 -1.8636,-52.3745 -2.2055,-72.4682 l 104.054,-18.29992 c 29.3397,47.71304 66.0096,113.84133 77.8932,141.92047 5.8885,13.91367 9.7898,26.44118 11.5718,35.92823 1.782,9.48715 0.4674,16.02482 0.7227,15.47197 -0.5078,1.09991 -9.9002,9.07992 -20.5356,10.74331 -7.3312,1.14651 -13.6808,0.77486 -36.9525,-3.28687 -23.5129,-4.10395 -47.0804,-8.77351 -66.259,-13.02586 -19.1786,-4.25227 -34.904,-8.55099 -38.8613,-10.10101 -10.4162,-4.07982 -19.1858,-13.27875 -20.7992,-17.57901 -2.2731,-6.05818 -4.6538,-17.38545 -6.296,-33.86081 z M 1256.53,896.88924 c 2.0803,-10.00157 3.8308,-18.89944 6.6839,-31.5813 14.6059,-64.91726 19.6729,-81.64929 24.3248,-89.82373 1.1159,-1.96096 1.9527,-3.00394 2.6433,-3.8791 6.154,3.03627 23.5047,17.43486 51.5332,44.68806 33.7194,32.78642 44.9866,45.46742 52.384,57.54432 4.3389,7.08378 4.425,8.36137 5.4659,19.33396 z m -15.2828,-525.59169 92.3261,-16.23749 c -3.6366,35.99285 -10.1506,84.06043 -16.5392,117.32236 -1.2602,6.56116 -2.7915,11.56778 -4.1587,15.59485 -3.7302,-4.90878 -10.4397,-14.26183 -19.4963,-28.61389 -11.5374,-18.28356 -26.191,-42.73802 -42.6647,-71.32608 -4.0123,-6.9624 -6.2693,-11.09933 -9.4672,-16.73975 z m 59.3538,332.15085 c -0.2473,-2.28322 -0.5118,-5.22884 -0.8902,-9.21891 -1.0248,-10.82125 -1.2466,-26.46161 -0.741,-40.10109 0.5055,-13.63947 2.9255,-27.69559 2.6181,-26.83509 0.893,-2.49918 4.5216,-7.00723 20.3009,-14.29426 10.831,-5.00173 6.3126,-4.1301 20.0653,-3.36257 5.6254,0.31406 37.944,4.7342 69.2242,9.69159 31.2799,4.95739 64.1524,10.69439 74.9189,13.19502 16.0732,3.73322 26.9685,7.51971 33.7966,11.27283 6.8282,3.75314 9.7086,6.85879 12.3574,11.81714 0.07,0.13091 4.0318,11.88848 5.7208,22.00939 3.3905,20.31344 2.7217,27.11531 -5.1932,51.14742 -2.5878,7.86075 -3.3818,10.12262 -9.6201,18.05298 -6.2384,7.93039 -18.0085,20.54663 -39.8107,43.35288 -30.1494,31.53721 -45.0686,43.15302 -48.4273,44.53376 -2.0324,0.83544 -2.8433,1.39572 -3.14,1.74811 -0.3354,-0.31317 -1.2036,-0.76922 -3.3019,-1.35277 -4.976,-1.38396 -21.3237,-12.52087 -56.5456,-46.82903 -42.6581,-41.55121 -61.8879,-63.23602 -66.9563,-71.89313 -3.0449,-5.20129 -3.6346,-6.08455 -4.3761,-12.93424 z m 56.5273,-176.33568 -3e-4,-0.002 0,0 c -0.2211,-2.10232 -0.4583,-4.46566 -0.7052,-7.1273 -2.3733,-25.0656 -0.6316,-46.57288 10.7802,-126.02311 2.7033,-18.8213 5.0242,-33.42933 7.2362,-46.08593 l 114.8383,-20.19699 c 5.3219,42.63725 10.9473,114.51145 13.4505,182.64206 1.3966,38.00415 -1.4989,59.5445 -5.2117,66.11867 -1.8564,3.28704 -2.6203,3.86634 -6.3609,4.97656 -3.7405,1.11012 -10.8231,1.60774 -20.9707,0.73674 -24.7613,-2.12499 -65.0369,-9.65934 -78.0303,-13.97806 -15.275,-5.07704 -25.3701,-13.09647 -30.1982,-21.3388 -3.5681,-6.0914 -3.2897,-5.00685 -4.8296,-19.72173 z m 94.1551,364.71497 c 3.0907,-7.02469 6.2617,-12.49762 9.9971,-17.5628 5.8678,-7.95732 22.2875,-26.39822 38.0074,-42.79889 7.86,-8.20028 15.65,-16.05254 22.0803,-22.2245 6.2242,-5.97411 11.7504,-10.58809 12.6101,-11.22372 1.4637,3.88684 3.3802,10.88961 5.6056,22.01507 2.3482,11.73847 6.5372,40.28362 10.4859,69.22858 z m 34.4701,123.52651 0.38,-22.34367 159.4346,2.13852 -0.3802,22.34375 z m 57.7969,-534.04381 -10e-5,-0.002 c -6.8703,-68.44656 -9.9455,-127.80764 -9.0674,-161.57998 l 121.7241,-21.41033 c 2.6719,27.29012 3.5621,75.53126 2.2367,150.55279 -0.7555,42.76787 -2.6146,66.22189 -7.1169,78.97672 -4.5022,12.7548 -10.5463,17.87723 -28.455,29.41076 -24.5374,15.8025 -42.9138,23.20658 -49.9902,23.91686 -2.6268,0.26367 -3.8221,0.24233 -4.2238,0.23943 -0.2756,-0.18157 -0.8574,-0.57682 -2.0309,-1.48033 -4.6886,-3.60991 -8.0217,-8.01758 -11.9653,-22.81361 -3.9435,-14.79603 -7.3976,-38.7625 -11.1113,-75.81036 z m 34.2615,303.48032 -2e-4,-0.002 c -3.0833,-30.71914 -3.198,-31.9612 -0.5398,-46.11413 0.3439,-1.8278 0.8372,-3.37948 1.276,-5.16301 10.0193,6.54919 29.4462,22.01722 73.0233,59.72635 28.6429,24.78592 46.8235,41.68153 58.1426,54.46749 11.3192,12.78596 15.674,20.76668 18.7508,30.51623 0.6755,2.14005 1.0158,4.22017 1.1386,6.3752 l -138.8301,3.60584 c -5.5593,-41.26449 -10.9584,-83.45868 -12.9612,-103.41203 z m -1.0669,-143.0265 c -0.023,-0.33143 -0.021,-0.59699 0.023,-0.83256 l 0,0 c 0.1757,-0.94235 0.9825,-1.38619 3.1042,-3.47192 4.2434,-4.17165 16.7737,-12.17981 39.2339,-25.33994 42.1679,-24.7068 59.5071,-31.87195 67.4437,-32.66858 1.7768,-0.17834 13.9115,0.39171 24.5262,1.90968 10.6146,1.51801 22.4982,4.57783 23.002,4.79509 1.9297,0.83184 2.6418,1.0283 5.2837,6.0946 2.6419,5.06626 5.9492,14.66071 9.7358,29.54648 2.8815,11.32716 10.9671,50.83318 18.1983,88.33508 l 11.5252,114.82343 c -1.8758,2.77744 -4.4413,5.81652 -9.171,9.99128 -1.2852,1.13431 -1.5993,1.34901 -1.9857,1.64993 -0.9363,-0.31418 -2.552,-0.87108 -5.1718,-2.14461 -0.3398,-0.1652 -5.7224,-3.50335 -12.526,-8.59079 -6.8038,-5.08744 -15.7461,-12.13656 -26.4738,-20.8823 -21.4551,-17.4916 -50.0891,-41.78876 -84.0327,-71.37257 -28.6962,-25.01052 -43.6029,-38.75615 -50.6229,-47.99865 -7.0201,-9.24252 -7.893,-13.94235 -10.2069,-29.38929 -0.5272,-3.51904 -0.9409,-6.46403 -1.1781,-8.82292 -0.3072,-3.06002 -0.6354,-4.63705 -0.7085,-5.63123 z M 1701.3139,518.2154 c -0.1704,-1.59836 -0.3471,-3.68854 -0.5976,-6.57475 -0.334,-3.84939 -0.676,-8.84143 -1.0822,-15.30045 -1.8216,-28.95132 -2.0041,-146.70163 -0.1787,-184.55328 0.4047,-8.38998 1.0557,-15.24589 1.8215,-21.39632 l 23.4745,-4.12876 25.3994,253.04879 c -3.9117,-0.23821 -7.8279,-0.77209 -14.3473,-1.74183 -15.2752,-2.2722 -23.8334,-4.24737 -27.0517,-5.6174 -3.2185,-1.37002 -2.0964,-0.38106 -4.261,-4.43256 -2.2123,-4.14115 -2.6664,-4.50826 -3.1774,-9.30339 z"
       id="rect3526"
       inkscape:connector-curvature="0"
       sodipodi:nodetypes="ccccccccssccccccccccscccccccccccccscccccccssccscccscssccsccsccccccccccccscscscccccccsccsccscccsscccsscsscccsssscccssscscsssccccscccccscssccccsccsccssccssscscssscssccsscscsssccccccsssscscsscccssccsscscssccsscscccccsscccccsccscsccccssssccscccsccccccssscccscccscccccccccscscscssscccsscccscsccccsscscccsscccsscsccccccccsccsssscsscssccsssccsscccsssccsccsccssssccscccccccsccccccccscccc" />
    <path
       style="color:#000000;fill:#ff0000;fill-opacity:1;fill-rule:nonzero;stroke:#ff0000;stroke-width:2.36224961;stroke-linecap:butt;stroke-linejoin:round;stroke-miterlimit:4;stroke-dashoffset:0;stroke-opacity:1;marker:none;visibility:visible;display:inline;overflow:visible;enable-background:accumulate"
       d="m 896.07391,-1813.0287 351.96849,0 0,351.9685 -351.96849,0 z"
       id="rect2987" />
  </g>
</svg>
