999
DXF created by Inkscape
  0
SECTION
  2
HEADER
  9
$ACADVER
  1
AC1014
  9
$HANDSEED
  5
FFFF
  9
$MEASUREMENT
 70
     1
  0
ENDSEC
  0
SECTION
  2
TABLES
  0
TABLE
  2
VPORT
  5
8
330
0
100
AcDbSymbolTable
 70
     4
  0
VPORT
  5
2E
330
8
100
AcDbSymbolTableRecord
100
AcDbViewportTableRecord
  2
*ACTIVE
 70
     0
 10
0.0
 20
0.0
 11
1.0
 21
1.0
 12
210.0
 22
148.5
 13
0.0
 23
0.0
 14
10.0
 24
10.0
 15
10.0
 25
10.0
 16
0.0
 26
0.0
 36
1.0
 17
0.0
 27
0.0
 37
0.0
 40
341.0
 41
1.24
 42
50.0
 43
0.0
 44
0.0
 50
0.0
 51
0.0
 71
     0
 72
   100
 73
     1
 74
     3
 75
     0
 76
     0
 77
     0
 78
     0
  0
ENDTAB
  0
TABLE
  2
LTYPE
  5
5
330
0
100
AcDbSymbolTable
 70
     1
  0
LTYPE
  5
14
330
5
100
AcDbSymbolTableRecord
100
AcDbLinetypeTableRecord
  2
BYBLOCK
 70
     0
  3

 72
    65
 73
     0
 40
0.0
  0
LTYPE
  5
15
330
5
100
AcDbSymbolTableRecord
100
AcDbLinetypeTableRecord
  2
BYLAYER
 70
     0
  3

 72
    65
 73
     0
 40
0.0
  0
LTYPE
  5
16
330
5
100
AcDbSymbolTableRecord
100
AcDbLinetypeTableRecord
  2
CONTINUOUS
 70
     0
  3
Solid line
 72
    65
 73
     0
 40
0.0
  0
ENDTAB
  0
TABLE
  2
LAYER
  5
2
100
AcDbSymbolTable
 70
2
  0
LAYER
  5
50
100
AcDbSymbolTableRecord
100
AcDbLayerTableRecord
  2
0
 70
0
  6
CONTINUOUS
  0
LAYER
  5
51
100
AcDbSymbolTableRecord
100
AcDbLayerTableRecord
  2
Layer_1
 70
0
  6
CONTINUOUS
  0
ENDTAB
  0
TABLE
  2
STYLE
  5
3
330
0
100
AcDbSymbolTable
 70
     1
  0
STYLE
  5
11
330
3
100
AcDbSymbolTableRecord
100
AcDbTextStyleTableRecord
  2
STANDARD
 70
     0
 40
0.0
 41
1.0
 50
0.0
 71
     0
 42
2.5
  3
txt
  4

  0
ENDTAB
  0
TABLE
  2
VIEW
  5
6
330
0
100
AcDbSymbolTable
 70
     0
  0
ENDTAB
  0
TABLE
  2
UCS
  5
7
330
0
100
AcDbSymbolTable
 70
     0
  0
ENDTAB
  0
TABLE
  2
APPID
  5
9
330
0
100
AcDbSymbolTable
 70
     2
  0
APPID
  5
12
330
9
100
AcDbSymbolTableRecord
100
AcDbRegAppTableRecord
  2
ACAD
 70
     0
  0
ENDTAB
  0
TABLE
  2
DIMSTYLE
  5
A
330
0
100
AcDbSymbolTable
 70
     1
  0
DIMSTYLE
105
27
330
A
100
AcDbSymbolTableRecord
100
AcDbDimStyleTableRecord
  2
ISO-25
 70
     0
  3

  4

  5

  6

  7

 40
1.0
 41
2.5
 42
0.625
 43
3.75
 44
1.25
 45
0.0
 46
0.0
 47
0.0
 48
0.0
140
2.5
141
2.5
142
0.0
143
0.03937007874016
144
1.0
145
0.0
146
1.0
147
0.625
 71
     0
 72
     0
 73
     0
 74
     0
 75
     0
 76
     0
 77
     1
 78
     8
170
     0
171
     3
172
     1
173
     0
174
     0
175
     0
176
     0
177
     0
178
     0
270
     2
271
     2
272
     2
273
     2
274
     3
340
11
275
     0
280
     0
281
     0
282
     0
283
     0
284
     8
285
     0
286
     0
287
     3
288
     0
  0
ENDTAB
  0
TABLE
  2
BLOCK_RECORD
  5
1
330
0
100
AcDbSymbolTable
 70
     1
  0
BLOCK_RECORD
  5
1F
330
1
100
AcDbSymbolTableRecord
100
AcDbBlockTableRecord
  2
*MODEL_SPACE
  0
BLOCK_RECORD
  5
1B
330
1
100
AcDbSymbolTableRecord
100
AcDbBlockTableRecord
  2
*PAPER_SPACE
  0
ENDTAB
  0
ENDSEC
  0
SECTION
  2
BLOCKS
  0
BLOCK
  5
20
330
1F
100
AcDbEntity
  8
0
100
AcDbBlockBegin
  2
*MODEL_SPACE
 70
     0
 10
0.0
 20
0.0
 30
0.0
  3
*MODEL_SPACE
  1

  0
ENDBLK
  5
21
330
1F
100
AcDbEntity
  8
0
100
AcDbBlockEnd
  0
BLOCK
  5
1C
330
1B
100
AcDbEntity
 67
     1
  8
0
100
AcDbBlockBegin
  2
*PAPER_SPACE
  1

  0
ENDBLK
  5
1D
330
1B
100
AcDbEntity
 67
     1
  8
0
100
AcDbBlockEnd
  0
ENDSEC
  0
SECTION
  2
ENTITIES
  0
LWPOLYLINE
  5
100
100
AcDbEntity
  8
Layer_1
 62
7
100
AcDbPolyline
 90
8
 70
0
 10
510.535089
 20
0.144441
 30
0.0
 10
-0.000042
 20
0.000028
 30
0.0
 10
25.201780
 20
252.746693
 30
0.0
 10
83.908474
 20
240.903997
 30
0.0
 10
83.948888
 20
241.104375
 30
0.0
 10
84.969353
 20
246.180283
 30
0.0
 10
65.364219
 20
250.134738
 30
0.0
 10
66.755295
 20
257.029955
 30
0.0
  0
SPLINE
  5
101
100
AcDbEntity
  8
Layer_1
 62
7
100
AcDbSpline
 70
0
 71
3
 72
10
 73
6
 74
4
 40
0.000000
 40
0.000000
 40
0.000000
 40
0.000000
 40
2.599679
 40
5.116411
 40
7.716231
 40
7.716231
 40
7.716231
 40
7.716231
 10
66.755295
 20
257.029955
 30
0.0
 10
67.060457
 20
257.857515
 30
0.0
 10
67.661043
 20
259.486230
 30
0.0
 10
69.990032
 20
261.032931
 30
0.0
 10
71.724214
 20
260.955114
 30
0.0
 10
72.605386
 20
260.915573
 30
0.0
 11
66.755295
 21
257.029955
 31
0.0
 11
67.914417
 21
259.356921
 31
0.0
 11
70.010888
 21
260.749308
 31
0.0
 11
72.605386
 21
260.915573
 31
0.0
  0
LWPOLYLINE
  5
102
100
AcDbEntity
  8
Layer_1
 62
7
100
AcDbPolyline
 90
2
 70
0
 10
72.605386
 20
260.915573
 30
0.0
 10
102.078830
 20
254.971149
 30
0.0
  0
SPLINE
  5
103
100
AcDbEntity
  8
Layer_1
 62
7
100
AcDbSpline
 70
0
 71
3
 72
10
 73
6
 74
4
 40
0.000000
 40
0.000000
 40
0.000000
 40
0.000000
 40
2.599954
 40
5.117002
 40
7.716831
 40
7.716831
 40
7.716831
 40
7.716831
 10
102.078830
 20
254.971149
 30
0.0
 10
102.906449
 20
254.665945
 30
0.0
 10
104.535297
 20
254.065270
 30
0.0
 10
106.082643
 20
251.736482
 30
0.0
 10
106.004993
 20
250.002155
 30
0.0
 10
105.965540
 20
249.120962
 30
0.0
 11
102.078830
 21
254.971149
 31
0.0
 11
104.406063
 21
253.811948
 31
0.0
 11
105.798983
 21
251.715451
 31
0.0
 11
105.965540
 21
249.120962
 31
0.0
  0
LWPOLYLINE
  5
104
100
AcDbEntity
  8
Layer_1
 62
7
100
AcDbPolyline
 90
9
 70
0
 10
105.965540
 20
249.120962
 30
0.0
 10
105.958936
 20
249.087801
 30
0.0
 10
104.536624
 20
242.018447
 30
0.0
 10
103.514009
 20
236.948833
 30
0.0
 10
468.574346
 20
163.307169
 30
0.0
 10
468.617074
 20
163.517761
 30
0.0
 10
469.636997
 20
168.593719
 30
0.0
 10
450.032346
 20
172.547497
 30
0.0
 10
451.422770
 20
179.442793
 30
0.0
  0
SPLINE
  5
105
100
AcDbEntity
  8
Layer_1
 62
7
100
AcDbSpline
 70
0
 71
3
 72
10
 73
6
 74
4
 40
0.000000
 40
0.000000
 40
0.000000
 40
0.000000
 40
2.599813
 40
5.116667
 40
7.716537
 40
7.716537
 40
7.716537
 40
7.716537
 10
451.422770
 20
179.442793
 30
0.0
 10
451.727952
 20
180.270380
 30
0.0
 10
452.328579
 20
181.899145
 30
0.0
 10
454.657436
 20
183.446214
 30
0.0
 10
456.391698
 20
183.368476
 30
0.0
 10
457.272898
 20
183.328976
 30
0.0
 11
451.422770
 21
179.442793
 31
0.0
 11
452.581926
 21
181.769891
 31
0.0
 11
454.678360
 21
183.162556
 31
0.0
 11
457.272898
 21
183.328976
 31
0.0
  0
LWPOLYLINE
  5
106
100
AcDbEntity
  8
Layer_1
 62
7
100
AcDbPolyline
 90
2
 70
0
 10
457.272898
 20
183.328976
 30
0.0
 10
486.746324
 20
177.384010
 30
0.0
  0
LWPOLYLINE
  5
107
100
AcDbEntity
  8
Layer_1
 62
7
100
AcDbPolyline
 90
6
 70
0
 10
490.633060
 20
171.534334
 30
0.0
 10
490.629674
 20
171.500360
 30
0.0
 10
489.207358
 20
164.431004
 30
0.0
 10
488.183146
 20
159.352132
 30
0.0
 10
525.657798
 20
151.792068
 30
0.0
 10
510.535089
 20
0.144441
 30
0.0
  0
LWPOLYLINE
  5
108
100
AcDbEntity
  8
Layer_1
 62
7
100
AcDbPolyline
 90
5
 70
0
 10
498.856169
 20
10.424047
 30
0.0
 10
498.744946
 20
16.729888
 30
0.0
 10
453.749241
 20
16.104114
 30
0.0
 10
453.860493
 20
9.798248
 30
0.0
 10
498.856169
 20
10.424047
 30
0.0
  0
SPLINE
  5
109
100
AcDbEntity
  8
Layer_1
 62
7
100
AcDbSpline
 70
0
 71
3
 72
10
 73
6
 74
4
 40
0.000000
 40
0.000000
 40
0.000000
 40
0.000000
 40
2.599947
 40
5.116780
 40
7.716474
 40
7.716474
 40
7.716474
 40
7.716474
 10
486.746324
 20
177.384010
 30
0.0
 10
487.573956
 20
177.078853
 30
0.0
 10
489.202763
 20
176.478294
 30
0.0
 10
490.750209
 20
174.149710
 30
0.0
 10
490.672529
 20
172.415487
 30
0.0
 10
490.633060
 20
171.534334
 30
0.0
 11
486.746324
 21
177.384010
 31
0.0
 11
489.073611
 21
176.224933
 31
0.0
 11
490.466523
 21
174.128687
 31
0.0
 11
490.633060
 21
171.534334
 31
0.0
  0
SPLINE
  5
10a
100
AcDbEntity
  8
Layer_1
 62
7
100
AcDbSpline
 70
0
 71
3
 72
16
 73
12
 74
10
 40
0.000000
 40
0.000000
 40
0.000000
 40
0.000000
 40
6.698985
 40
12.521832
 40
17.404564
 40
21.725331
 40
24.720960
 40
26.316867
 40
26.669497
 40
26.893689
 40
27.031563
 40
27.031563
 40
27.031563
 40
27.031563
 10
500.375287
 20
71.820890
 30
0.0
 10
498.443266
 20
72.941101
 30
0.0
 10
494.831906
 20
75.035013
 30
0.0
 10
489.646212
 20
77.646796
 30
0.0
 10
485.046936
 20
79.631769
 30
0.0
 10
481.132432
 20
80.824173
 30
0.0
 10
478.203132
 20
81.236283
 30
0.0
 10
476.513633
 20
81.248221
 30
0.0
 10
475.833539
 20
80.992251
 30
0.0
 10
475.612094
 20
80.904430
 30
0.0
 10
475.503378
 20
80.851928
 30
0.0
 10
475.461979
 20
80.831936
 30
0.0
 11
500.375287
 21
71.820890
 31
0.0
 11
494.545015
 21
75.120030
 31
0.0
 11
489.340354
 21
77.730980
 31
0.0
 11
484.836583
 21
79.617011
 31
0.0
 11
480.687323
 21
80.822277
 31
0.0
 11
477.717594
 21
81.215353
 31
0.0
 11
476.126302
 21
81.094078
 31
0.0
 11
475.794019
 21
80.976027
 31
0.0
 11
475.586678
 21
80.890752
 31
0.0
 11
475.461979
 21
80.831936
 31
0.0
  0
LWPOLYLINE
  5
10b
100
AcDbEntity
  8
Layer_1
 62
7
100
AcDbPolyline
 90
2
 70
0
 10
496.753162
 20
35.553859
 30
0.0
 10
500.375287
 20
71.820890
 30
0.0
  0
LWPOLYLINE
  5
10c
100
AcDbEntity
  8
Layer_1
 62
7
100
AcDbPolyline
 90
2
 70
0
 10
486.674612
 20
35.810393
 30
0.0
 10
496.753162
 20
35.553859
 30
0.0
  0
SPLINE
  5
10d
100
AcDbEntity
  8
Layer_1
 62
7
100
AcDbSpline
 70
0
 71
3
 72
13
 73
9
 74
7
 40
0.000000
 40
0.000000
 40
0.000000
 40
0.000000
 40
0.173133
 40
0.448586
 40
0.859240
 40
6.118774
 40
19.447738
 40
46.546145
 40
46.546145
 40
46.546145
 40
46.546145
 10
475.461979
 20
80.831936
 30
0.0
 10
475.448005
 20
80.775927
 30
0.0
 10
475.411797
 20
80.630811
 30
0.0
 10
475.363010
 20
80.348383
 30
0.0
 10
475.111810
 20
78.380494
 30
0.0
 10
476.304331
 20
72.033986
 30
0.0
 10
480.244584
 20
57.427069
 30
0.0
 10
484.094212
 20
44.485265
 30
0.0
 10
486.674612
 20
35.810393
 30
0.0
 11
475.461979
 21
80.831936
 31
0.0
 11
475.421655
 21
80.663564
 31
0.0
 11
475.372293
 21
80.392570
 31
0.0
 11
475.319796
 21
79.985286
 31
0.0
 11
475.832775
 21
74.750828
 31
0.0
 11
479.096500
 21
61.827617
 31
0.0
 11
486.674612
 21
35.810393
 31
0.0
  0
SPLINE
  5
10e
100
AcDbEntity
  8
Layer_1
 62
7
100
AcDbSpline
 70
0
 71
3
 72
19
 73
15
 74
13
 40
0.000000
 40
0.000000
 40
0.000000
 40
0.000000
 40
3.380145
 40
6.090207
 40
7.804162
 40
10.337373
 40
13.280470
 40
16.238707
 40
17.605317
 40
18.828448
 40
19.844467
 40
20.225280
 40
20.541054
 40
20.770746
 40
20.770746
 40
20.770746
 40
20.770746
 10
504.064693
 20
108.761454
 30
0.0
 10
502.992517
 20
108.414659
 30
0.0
 10
501.060714
 20
107.789817
 30
0.0
 10
498.603284
 20
106.939833
 30
0.0
 10
496.437736
 20
106.096666
 30
0.0
 10
494.382392
 20
104.846096
 30
0.0
 10
492.045900
 20
103.285261
 30
0.0
 10
490.116475
 20
101.815963
 30
0.0
 10
488.701589
 20
100.624386
 30
0.0
 10
487.815302
 20
99.812709
 30
0.0
 10
487.181646
 20
99.210424
 30
0.0
 10
486.810982
 20
98.774669
 30
0.0
 10
486.643621
 20
98.514419
 30
0.0
 10
486.555248
 20
98.355531
 30
0.0
 10
486.518035
 20
98.288625
 30
0.0
 11
504.064693
 21
108.761454
 31
0.0
 11
500.852501
 21
107.709218
 31
0.0
 11
498.295634
 21
106.810959
 31
0.0
 11
496.710321
 21
106.159481
 31
0.0
 11
494.509913
 21
104.904347
 31
0.0
 11
492.067038
 21
103.262951
 31
0.0
 11
489.715076
 21
101.468671
 31
0.0
 11
488.671654
 21
100.586121
 31
0.0
 11
487.767028
 21
99.762896
 31
0.0
 11
487.046806
 21
99.046253
 31
0.0
 11
486.804348
 21
98.752599
 31
0.0
 11
486.631480
 21
98.488346
 31
0.0
 11
486.518035
 21
98.288625
 31
0.0
  0
LWPOLYLINE
  5
10f
100
AcDbEntity
  8
Layer_1
 62
7
100
AcDbPolyline
 90
2
 70
0
 10
501.669417
 20
84.778331
 30
0.0
 10
504.064693
 20
108.761454
 30
0.0
  0
LWPOLYLINE
  5
110
100
AcDbEntity
  8
Layer_1
 62
7
100
AcDbPolyline
 90
2
 70
0
 10
501.669417
 20
84.778331
 30
0.0
 10
501.669417
 20
84.778331
 30
0.0
  0
SPLINE
  5
111
100
AcDbEntity
  8
Layer_1
 62
7
100
AcDbSpline
 70
0
 71
3
 72
13
 73
9
 74
7
 40
0.000000
 40
0.000000
 40
0.000000
 40
0.000000
 40
0.665242
 40
1.822735
 40
3.827872
 40
7.832128
 40
13.394650
 40
20.554130
 40
20.554130
 40
20.554130
 40
20.554130
 10
486.518035
 20
98.288625
 30
0.0
 10
486.553037
 20
98.067266
 30
0.0
 10
486.648942
 20
97.460754
 30
0.0
 10
487.438255
 20
96.411378
 30
0.0
 10
488.951225
 20
94.588152
 30
0.0
 10
491.818916
 20
91.969742
 30
0.0
 10
496.215056
 20
88.548335
 30
0.0
 10
499.705258
 20
86.135939
 30
0.0
 10
501.669417
 20
84.778331
 30
0.0
 11
486.518035
 21
98.288625
 31
0.0
 11
486.660331
 21
97.638780
 31
0.0
 11
487.265547
 21
96.652117
 31
0.0
 11
488.553760
 21
95.115535
 31
0.0
 11
491.457919
 21
92.358738
 31
0.0
 11
495.823336
 21
88.911308
 31
0.0
 11
501.669417
 21
84.778331
 31
0.0
  0
SPLINE
  5
112
100
AcDbEntity
  8
Layer_1
 62
7
100
AcDbSpline
 70
0
 71
3
 72
13
 73
9
 74
7
 40
0.000000
 40
0.000000
 40
0.000000
 40
0.000000
 40
11.839579
 40
20.855493
 40
27.010886
 40
28.455443
 40
29.607245
 40
30.523674
 40
30.523674
 40
30.523674
 40
30.523674
 10
473.493592
 20
139.901473
 30
0.0
 10
474.409171
 20
136.062407
 30
0.0
 10
476.021968
 20
129.299869
 30
0.0
 10
478.232438
 20
120.573161
 30
0.0
 10
479.702330
 20
115.229041
 30
0.0
 10
480.648707
 20
112.469076
 30
0.0
 10
481.069695
 20
111.375889
 30
0.0
 10
481.350263
 20
110.746062
 30
0.0
 10
481.474582
 20
110.466988
 30
0.0
 11
473.493592
 21
139.901473
 31
0.0
 11
476.270602
 21
128.392179
 31
0.0
 11
478.502039
 21
119.656768
 31
0.0
 11
480.217141
 21
113.745145
 31
0.0
 11
480.689775
 21
112.380096
 31
0.0
 11
481.108046
 21
111.306924
 31
0.0
 11
481.474582
 21
110.466988
 31
0.0
  0
LWPOLYLINE
  5
113
100
AcDbEntity
  8
Layer_1
 62
7
100
AcDbPolyline
 90
2
 70
0
 10
492.779727
 20
136.518935
 30
0.0
 10
473.493592
 20
139.901473
 30
0.0
  0
SPLINE
  5
114
100
AcDbEntity
  8
Layer_1
 62
7
100
AcDbSpline
 70
0
 71
3
 72
16
 73
12
 74
10
 40
0.000000
 40
0.000000
 40
0.000000
 40
0.000000
 40
0.446061
 40
0.885624
 40
1.345970
 40
5.623257
 40
8.419075
 40
10.513666
 40
14.039018
 40
20.374377
 40
30.056201
 40
30.056201
 40
30.056201
 40
30.056201
 10
481.474582
 20
110.466988
 30
0.0
 10
481.606108
 20
110.536308
 30
0.0
 10
481.867242
 20
110.673938
 30
0.0
 10
482.265938
 20
110.880112
 30
0.0
 10
483.737225
 20
111.783695
 30
0.0
 10
485.790819
 20
113.228083
 30
0.0
 10
488.093789
 20
115.279188
 30
0.0
 10
489.555160
 20
117.718132
 30
0.0
 10
490.496877
 20
121.624785
 30
0.0
 10
491.683353
 20
128.015678
 30
0.0
 10
492.366680
 20
133.315425
 30
0.0
 10
492.779727
 20
136.518935
 30
0.0
 11
481.474582
 21
110.466988
 31
0.0
 11
481.869463
 21
110.674448
 31
0.0
 11
482.257199
 21
110.881513
 31
0.0
 11
482.651985
 21
111.118289
 31
0.0
 11
486.139331
 21
113.594900
 31
0.0
 11
488.145976
 21
115.541686
 31
0.0
 11
489.232646
 21
117.332345
 31
0.0
 11
490.252774
 21
120.706873
 31
0.0
 11
491.434949
 21
126.930959
 31
0.0
 11
492.779727
 21
136.518935
 31
0.0
  0
SPLINE
  5
115
100
AcDbEntity
  8
Layer_1
 62
7
100
AcDbSpline
 70
0
 71
3
 72
16
 73
12
 74
10
 40
0.000000
 40
0.000000
 40
0.000000
 40
0.000000
 40
2.854629
 40
5.654795
 40
8.152859
 40
11.860114
 40
14.610264
 40
15.923537
 40
16.460020
 40
16.890425
 40
17.237923
 40
17.237923
 40
17.237923
 40
17.237923
 10
474.981552
 20
36.108510
 30
0.0
 10
474.688460
 20
37.013782
 30
0.0
 10
474.107866
 20
38.807054
 30
0.0
 10
473.274332
 20
41.393799
 30
0.0
 10
472.318557
 20
44.239158
 30
0.0
 10
471.299433
 20
47.047304
 30
0.0
 10
470.328042
 20
49.444848
 30
0.0
 10
469.770084
 20
50.878875
 30
0.0
 10
469.377068
 20
51.530980
 30
0.0
 10
469.129596
 20
51.892839
 30
0.0
 10
468.968262
 20
52.095929
 30
0.0
 10
468.896192
 20
52.186651
 30
0.0
 11
474.981552
 21
36.108510
 31
0.0
 11
474.102900
 21
38.824550
 31
0.0
 11
473.237682
 21
41.487694
 31
0.0
 11
472.439182
 21
43.854700
 31
0.0
 11
471.166660
 21
47.336715
 31
0.0
 11
470.155326
 21
49.894161
 31
0.0
 11
469.628248
 21
51.097022
 31
0.0
 11
469.354046
 21
51.558137
 31
0.0
 11
469.109434
 21
51.912274
 31
0.0
 11
468.896192
 21
52.186651
 31
0.0
  0
LWPOLYLINE
  5
116
100
AcDbEntity
  8
Layer_1
 62
7
100
AcDbPolyline
 90
2
 70
0
 10
492.779727
 20
136.518935
 30
0.0
 10
492.779727
 20
136.518935
 30
0.0
  0
SPLINE
  5
117
100
AcDbEntity
  8
Layer_1
 62
7
100
AcDbSpline
 70
0
 71
3
 72
13
 73
9
 74
7
 40
0.000000
 40
0.000000
 40
0.000000
 40
0.000000
 40
1.792818
 40
4.960611
 40
9.453150
 40
12.023144
 40
15.555815
 40
19.749643
 40
19.749643
 40
19.749643
 40
19.749643
 10
468.896192
 20
52.186651
 30
0.0
 10
468.439405
 20
51.800673
 30
0.0
 10
467.175505
 20
50.732699
 30
0.0
 10
465.059329
 20
48.385280
 30
0.0
 10
462.971716
 20
45.686164
 30
0.0
 10
460.996563
 20
42.757399
 30
0.0
 10
459.100299
 20
39.896872
 30
0.0
 10
457.693355
 20
37.739573
 30
0.0
 10
456.929688
 20
36.568623
 30
0.0
 11
468.896192
 21
52.186651
 31
0.0
 11
467.545871
 21
51.007317
 31
0.0
 11
465.381821
 21
48.693920
 31
0.0
 11
462.629814
 21
45.142954
 31
0.0
 11
461.178464
 21
43.021999
 31
0.0
 11
459.225410
 21
40.078303
 31
0.0
 11
456.929688
 21
36.568623
 31
0.0
  0
LWPOLYLINE
  5
118
100
AcDbEntity
  8
Layer_1
 62
7
100
AcDbPolyline
 90
2
 70
0
 10
456.929688
 20
36.568623
 30
0.0
 10
474.981552
 20
36.108510
 30
0.0
  0
LWPOLYLINE
  5
119
100
AcDbEntity
  8
Layer_1
 62
7
100
AcDbPolyline
 90
2
 70
0
 10
480.101176
 20
109.772111
 30
0.0
 10
480.101176
 20
109.772111
 30
0.0
  0
SPLINE
  5
11a
100
AcDbEntity
  8
Layer_1
 62
7
100
AcDbSpline
 70
0
 71
3
 72
13
 73
9
 74
7
 40
0.000000
 40
0.000000
 40
0.000000
 40
0.000000
 40
0.117365
 40
0.166616
 40
0.176181
 40
0.215386
 40
0.281221
 40
0.336458
 40
0.336458
 40
0.336458
 40
0.336458
 10
480.101176
 20
109.772111
 30
0.0
 10
480.072156
 20
109.764519
 30
0.0
 10
480.030957
 20
109.753741
 30
0.0
 10
479.930801
 20
109.728183
 30
0.0
 10
479.961639
 20
109.704623
 30
0.0
 10
479.997066
 20
109.738092
 30
0.0
 10
480.046373
 20
109.748967
 30
0.0
 10
480.084007
 20
109.764860
 30
0.0
 10
480.101176
 20
109.772111
 30
0.0
 11
480.101176
 21
109.772111
 31
0.0
 11
479.987559
 21
109.742690
 31
0.0
 11
479.944660
 21
109.718496
 31
0.0
 11
479.952304
 21
109.712746
 31
0.0
 11
479.988812
 21
109.727034
 31
0.0
 11
480.049748
 21
109.751956
 31
0.0
 11
480.101176
 21
109.772111
 31
0.0
  0
SPLINE
  5
11b
100
AcDbEntity
  8
Layer_1
 62
7
100
AcDbSpline
 70
0
 71
3
 72
10
 73
6
 74
4
 40
0.000000
 40
0.000000
 40
0.000000
 40
0.000000
 40
8.200176
 40
21.757186
 40
41.247032
 40
41.247032
 40
41.247032
 40
41.247032
 10
469.294295
 20
101.005962
 30
0.0
 10
469.226086
 20
103.741904
 30
0.0
 10
469.045109
 20
111.001064
 30
0.0
 10
466.412859
 20
124.545612
 30
0.0
 10
463.998633
 20
135.284533
 30
0.0
 10
462.574809
 20
141.617962
 30
0.0
 11
469.294295
 21
101.005962
 31
0.0
 11
468.918143
 21
109.197506
 31
0.0
 11
466.740096
 21
122.578411
 31
0.0
 11
462.574809
 21
141.617962
 31
0.0
  0
LWPOLYLINE
  5
11c
100
AcDbEntity
  8
Layer_1
 62
7
100
AcDbPolyline
 90
2
 70
0
 10
469.294266
 20
101.005397
 30
0.0
 10
469.294295
 20
101.005962
 30
0.0
  0
SPLINE
  5
11d
100
AcDbEntity
  8
Layer_1
 62
7
100
AcDbSpline
 70
0
 71
3
 72
10
 73
6
 74
4
 40
0.000000
 40
0.000000
 40
0.000000
 40
0.000000
 40
0.071824
 40
0.141579
 40
0.213019
 40
0.213019
 40
0.213019
 40
0.213019
 10
462.574809
 20
141.617962
 30
0.0
 10
462.569231
 20
141.641245
 30
0.0
 10
462.558236
 20
141.687139
 30
0.0
 10
462.541585
 20
141.756166
 30
0.0
 10
462.530683
 20
141.801951
 30
0.0
 10
462.525166
 20
141.825116
 30
0.0
 11
462.574809
 21
141.617962
 31
0.0
 11
462.558057
 21
141.687805
 31
0.0
 11
462.541750
 21
141.755627
 31
0.0
 11
462.525166
 21
141.825116
 31
0.0
  0
LWPOLYLINE
  5
11e
100
AcDbEntity
  8
Layer_1
 62
7
100
AcDbPolyline
 90
2
 70
0
 10
462.525166
 20
141.825116
 30
0.0
 10
436.863800
 20
146.325209
 30
0.0
  0
SPLINE
  5
11f
100
AcDbEntity
  8
Layer_1
 62
7
100
AcDbSpline
 70
0
 71
3
 72
10
 73
6
 74
4
 40
0.000000
 40
0.000000
 40
0.000000
 40
0.000000
 40
6.704322
 40
12.015809
 40
19.267576
 40
19.267576
 40
19.267576
 40
19.267576
 10
436.863800
 20
146.325209
 30
0.0
 10
435.395038
 20
144.614668
 30
0.0
 10
432.762652
 20
141.548953
 30
0.0
 10
430.605209
 20
135.373622
 30
0.0
 10
430.279887
 20
131.189704
 30
0.0
 10
430.092104
 20
128.774661
 30
0.0
 11
436.863800
 21
146.325209
 31
0.0
 11
432.858162
 21
140.949077
 31
0.0
 11
431.015763
 21
135.967364
 31
0.0
 11
430.092104
 21
128.774661
 31
0.0
  0
SPLINE
  5
120
100
AcDbEntity
  8
Layer_1
 62
7
100
AcDbSpline
 70
0
 71
3
 72
13
 73
9
 74
7
 40
0.000000
 40
0.000000
 40
0.000000
 40
0.000000
 40
10.320670
 40
21.217378
 40
28.565127
 40
31.176861
 40
33.033654
 40
34.016519
 40
34.016519
 40
34.016519
 40
34.016519
 10
430.092104
 20
128.774661
 30
0.0
 10
429.824928
 20
125.343449
 30
0.0
 10
429.275664
 20
118.289513
 30
0.0
 10
429.040777
 20
108.779178
 30
0.0
 10
428.739599
 20
101.809692
 30
0.0
 10
429.250870
 20
97.893269
 30
0.0
 10
429.771893
 20
96.139123
 30
0.0
 10
430.199404
 20
95.293607
 30
0.0
 10
430.347374
 20
95.000956
 30
0.0
 11
430.092104
 21
128.774661
 31
0.0
 11
429.379257
 21
118.478639
 31
0.0
 11
428.971128
 21
107.589577
 31
0.0
 11
428.984043
 21
100.241839
 31
0.0
 11
429.363382
 21
97.657800
 31
0.0
 11
429.922164
 21
95.887082
 31
0.0
 11
430.347374
 21
95.000956
 31
0.0
  0
LWPOLYLINE
  5
121
100
AcDbEntity
  8
Layer_1
 62
7
100
AcDbPolyline
 90
2
 70
0
 10
430.092104
 20
128.774661
 30
0.0
 10
430.092104
 20
128.774661
 30
0.0
  0
SPLINE
  5
122
100
AcDbEntity
  8
Layer_1
 62
7
100
AcDbSpline
 70
0
 71
3
 72
25
 73
21
 74
19
 40
0.000000
 40
0.000000
 40
0.000000
 40
0.000000
 40
0.498060
 40
1.247610
 40
2.118304
 40
3.609412
 40
5.031301
 40
6.115977
 40
8.786999
 40
14.116238
 40
20.993938
 40
27.205563
 40
31.800939
 40
34.964363
 40
36.838642
 40
37.889302
 40
38.846432
 40
39.393768
 40
40.536649
 40
42.391348
 40
42.391348
 40
42.391348
 40
42.391348
 10
430.347374
 20
95.000956
 30
0.0
 10
430.498404
 20
94.932069
 30
0.0
 10
430.876726
 20
94.759511
 30
0.0
 10
431.520558
 20
94.468146
 30
0.0
 10
432.513436
 20
94.157710
 30
0.0
 10
433.759766
 20
93.950390
 30
0.0
 10
435.082990
 20
93.782900
 30
0.0
 10
436.811112
 20
93.754632
 30
0.0
 10
439.831781
 20
94.000502
 30
0.0
 10
444.786054
 20
94.212742
 30
0.0
 10
450.917243
 20
94.543223
 30
0.0
 10
456.801107
 20
94.888437
 30
0.0
 10
461.444214
 20
95.290782
 30
0.0
 10
464.614498
 20
95.804649
 30
0.0
 10
466.598275
 20
96.257870
 30
0.0
 10
467.779955
 20
96.830817
 30
0.0
 10
468.369717
 20
97.471831
 30
0.0
 10
468.795995
 20
98.248012
 30
0.0
 10
469.114757
 20
99.397865
 30
0.0
 10
469.225983
 20
100.390924
 30
0.0
 10
469.294803
 20
101.005361
 30
0.0
 11
430.347374
 21
95.000956
 31
0.0
 11
430.800604
 21
94.794447
 31
0.0
 11
431.489001
 21
94.497906
 31
0.0
 11
432.318753
 21
94.234051
 31
0.0
 11
433.783790
 21
93.956441
 31
0.0
 11
435.196842
 21
93.798162
 31
0.0
 11
436.281237
 21
93.773481
 31
0.0
 11
438.948393
 21
93.917148
 31
0.0
 11
444.270162
 21
94.199208
 31
0.0
 11
451.138346
 21
94.560875
 31
0.0
 11
457.337575
 21
94.953117
 31
0.0
 11
461.911285
 21
95.398825
 31
0.0
 11
465.032259
 21
95.915325
 31
0.0
 11
466.840890
 21
96.407033
 31
0.0
 11
467.767971
 21
96.901408
 31
0.0
 11
468.421805
 21
97.600406
 31
0.0
 11
468.687498
 21
98.078929
 31
0.0
 11
469.027736
 21
99.169990
 31
0.0
 11
469.294803
 21
101.005361
 31
0.0
  0
SPLINE
  5
123
100
AcDbEntity
  8
Layer_1
 62
7
100
AcDbSpline
 70
0
 71
3
 72
13
 73
9
 74
7
 40
0.000000
 40
0.000000
 40
0.000000
 40
0.000000
 40
1.510257
 40
3.177290
 40
5.228927
 40
7.769361
 40
9.324072
 40
9.967962
 40
9.967962
 40
9.967962
 40
9.967962
 10
464.127398
 20
71.324648
 30
0.0
 10
464.163628
 20
71.827672
 30
0.0
 10
464.239847
 20
72.885936
 30
0.0
 10
464.052186
 20
74.625768
 30
0.0
 10
463.686639
 20
76.678930
 30
0.0
 10
463.235287
 20
78.679433
 30
0.0
 10
462.778910
 20
80.193512
 30
0.0
 10
462.521043
 20
80.879594
 30
0.0
 10
462.445523
 20
81.080523
 30
0.0
 11
464.127398
 21
71.324648
 31
0.0
 11
464.193102
 21
72.833475
 31
0.0
 11
464.049164
 21
74.494282
 31
0.0
 11
463.701412
 21
76.516233
 31
0.0
 11
463.126860
 21
78.990842
 31
0.0
 11
462.668126
 21
80.476335
 31
0.0
 11
462.445523
 21
81.080523
 31
0.0
  0
LWPOLYLINE
  5
124
100
AcDbEntity
  8
Layer_1
 62
7
100
AcDbPolyline
 90
2
 70
0
 10
469.294803
 20
101.005361
 30
0.0
 10
469.294266
 20
101.005397
 30
0.0
  0
SPLINE
  5
125
100
AcDbEntity
  8
Layer_1
 62
7
100
AcDbSpline
 70
0
 71
3
 72
25
 73
21
 74
19
 40
0.000000
 40
0.000000
 40
0.000000
 40
0.000000
 40
0.263898
 40
0.992010
 40
2.387772
 40
8.813653
 40
19.086712
 40
26.655875
 40
29.400036
 40
31.535927
 40
33.372540
 40
35.324999
 40
37.766045
 40
40.930535
 40
44.085634
 40
49.438837
 40
56.186864
 40
62.187225
 40
68.459071
 40
74.783177
 40
74.783177
 40
74.783177
 40
74.783177
 10
462.445523
 20
81.080523
 30
0.0
 10
462.360372
 20
81.102719
 30
0.0
 10
462.040282
 20
81.186155
 30
0.0
 10
461.251856
 20
81.304019
 30
0.0
 10
458.421582
 20
81.650839
 30
0.0
 10
452.366519
 20
81.268096
 30
0.0
 10
444.307976
 20
80.944658
 30
0.0
 10
437.431165
 20
80.604316
 30
0.0
 10
433.358037
 20
79.750770
 30
0.0
 10
431.265289
 20
78.906265
 30
0.0
 10
429.653928
 20
77.729998
 30
0.0
 10
428.315005
 20
76.117265
 30
0.0
 10
427.155377
 20
73.868979
 30
0.0
 10
426.126674
 20
71.122550
 30
0.0
 10
425.434265
 20
67.283458
 30
0.0
 10
424.735030
 20
62.249202
 30
0.0
 10
424.105050
 20
56.245646
 30
0.0
 10
423.626697
 20
49.923582
 30
0.0
 10
423.261443
 20
43.735142
 30
0.0
 10
423.090188
 20
39.539929
 30
0.0
 10
423.004206
 20
37.433620
 30
0.0
 11
462.445523
 21
81.080523
 31
0.0
 11
462.189540
 21
81.144671
 31
0.0
 11
461.472099
 21
81.268867
 31
0.0
 11
460.085835
 21
81.431421
 31
0.0
 11
453.660259
 21
81.368820
 31
0.0
 11
443.398380
 21
80.889666
 31
0.0
 11
435.857537
 21
80.235512
 31
0.0
 11
433.183102
 21
79.620846
 31
0.0
 11
431.217534
 21
78.785038
 31
0.0
 11
429.736222
 21
77.699286
 31
0.0
 11
428.473353
 21
76.210240
 31
0.0
 11
427.304652
 21
74.067147
 31
0.0
 11
426.217644
 21
71.095210
 31
0.0
 11
425.580431
 21
68.005127
 31
0.0
 11
424.825078
 21
62.705484
 31
0.0
 11
424.113508
 21
55.995079
 31
0.0
 11
423.649686
 21
50.012671
 31
0.0
 11
423.281348
 21
43.751650
 31
0.0
 11
423.004206
 21
37.433620
 31
0.0
  0
LWPOLYLINE
  5
126
100
AcDbEntity
  8
Layer_1
 62
7
100
AcDbPolyline
 90
2
 70
0
 10
423.004206
 20
37.433620
 30
0.0
 10
444.895732
 20
36.875861
 30
0.0
  0
LWPOLYLINE
  5
127
100
AcDbEntity
  8
Layer_1
 62
7
100
AcDbPolyline
 90
2
 70
0
 10
464.127398
 20
71.324648
 30
0.0
 10
464.127398
 20
71.324648
 30
0.0
  0
SPLINE
  5
128
100
AcDbEntity
  8
Layer_1
 62
7
100
AcDbSpline
 70
0
 71
3
 72
13
 73
9
 74
7
 40
0.000000
 40
0.000000
 40
0.000000
 40
0.000000
 40
2.341427
 40
4.746910
 40
7.285776
 40
24.346400
 40
34.302184
 40
39.587350
 40
39.587350
 40
39.587350
 40
39.587350
 10
444.895732
 20
36.875861
 30
0.0
 10
445.317844
 20
37.532351
 30
0.0
 10
446.173615
 20
38.863292
 30
0.0
 10
447.483355
 20
40.908261
 30
0.0
 10
451.426763
 20
47.095230
 30
0.0
 10
456.501808
 20
55.492986
 30
0.0
 10
462.235032
 20
64.726744
 30
0.0
 10
463.640143
 20
69.625787
 30
0.0
 10
464.127398
 20
71.324648
 30
0.0
 11
444.895732
 21
36.875861
 31
0.0
 11
446.161475
 21
38.845678
 31
0.0
 11
447.458720
 21
40.871388
 31
0.0
 11
448.821923
 21
43.013238
 31
0.0
 11
457.784044
 21
57.530306
 31
0.0
 11
462.509301
 21
66.293272
 31
0.0
 11
464.127398
 21
71.324648
 31
0.0
  0
SPLINE
  5
129
100
AcDbEntity
  8
Layer_1
 62
7
100
AcDbSpline
 70
0
 71
3
 72
10
 73
6
 74
4
 40
0.000000
 40
0.000000
 40
0.000000
 40
0.000000
 40
3.691447
 40
7.551029
 40
11.793321
 40
11.793321
 40
11.793321
 40
11.793321
 10
411.985234
 20
37.714840
 30
0.0
 10
412.035735
 20
38.944285
 30
0.0
 10
412.139037
 20
41.459173
 30
0.0
 10
412.294301
 20
45.387223
 30
0.0
 10
412.388043
 20
48.086225
 30
0.0
 10
412.437128
 20
49.499472
 30
0.0
 11
411.985234
 21
37.714840
 31
0.0
 11
412.135807
 21
41.403215
 31
0.0
 11
412.286330
 21
45.259861
 31
0.0
 11
412.437128
 21
49.499472
 31
0.0
  0
LWPOLYLINE
  5
12a
100
AcDbEntity
  8
Layer_1
 62
7
100
AcDbPolyline
 90
2
 70
0
 10
411.985178
 20
37.714276
 30
0.0
 10
411.985234
 20
37.714840
 30
0.0
  0
LWPOLYLINE
  5
12b
100
AcDbEntity
  8
Layer_1
 62
7
100
AcDbPolyline
 90
2
 70
0
 10
379.826125
 20
38.533598
 30
0.0
 10
411.985178
 20
37.714276
 30
0.0
  0
SPLINE
  5
12c
100
AcDbEntity
  8
Layer_1
 62
7
100
AcDbSpline
 70
0
 71
3
 72
37
 73
33
 74
31
 40
0.000000
 40
0.000000
 40
0.000000
 40
0.000000
 40
10.353627
 40
18.028592
 40
23.355992
 40
26.602159
 40
28.496689
 40
30.209046
 40
30.251212
 40
30.805244
 40
31.717933
 40
32.852292
 40
34.192195
 40
35.701470
 40
39.105354
 40
42.861542
 40
46.777363
 40
49.341230
 40
51.065442
 40
52.048643
 40
52.477743
 40
52.790529
 40
53.482268
 40
54.745674
 40
55.565418
 40
57.430549
 40
61.226919
 40
67.228283
 40
75.723967
 40
83.397843
 40
91.395067
 40
99.377207
 40
99.377207
 40
99.377207
 40
99.377207
 10
412.437128
 20
49.499472
 30
0.0
 10
412.541980
 20
52.940788
 30
0.0
 10
412.724557
 20
58.933092
 30
0.0
 10
412.642405
 20
66.802350
 30
0.0
 10
412.340396
 20
72.030915
 30
0.0
 10
411.513536
 20
75.814413
 30
0.0
 10
411.059978
 20
77.306620
 30
0.0
 10
409.053942
 20
79.373554
 30
0.0
 10
409.337754
 20
78.581842
 30
0.0
 10
408.500016
 20
79.227868
 30
0.0
 10
407.920336
 20
79.287729
 30
0.0
 10
406.755236
 20
79.729848
 30
0.0
 10
405.512485
 20
80.073223
 30
0.0
 10
403.487551
 20
80.630282
 30
0.0
 10
400.683145
 20
81.293616
 30
0.0
 10
397.065186
 20
82.045480
 30
0.0
 10
393.704595
 20
82.639196
 30
0.0
 10
391.002106
 20
83.045292
 30
0.0
 10
389.259196
 20
83.297994
 30
0.0
 10
388.219773
 20
83.362031
 30
0.0
 10
387.639603
 20
83.401505
 30
0.0
 10
387.175912
 20
83.264222
 30
0.0
 10
386.504473
 20
82.925562
 30
0.0
 10
385.532133
 20
82.779429
 30
0.0
 10
384.677965
 20
81.694274
 30
0.0
 10
384.228642
 20
79.554406
 30
0.0
 10
383.278832
 20
75.798211
 30
0.0
 10
382.560598
 20
69.721996
 30
0.0
 10
381.735640
 20
62.385918
 30
0.0
 10
381.009156
 20
54.360467
 30
0.0
 10
380.376794
 20
46.501944
 30
0.0
 10
380.009566
 20
41.188041
 30
0.0
 10
379.826125
 20
38.533598
 30
0.0
 11
412.437128
 21
49.499472
 31
0.0
 11
412.670554
 21
59.850467
 31
0.0
 11
412.565878
 21
67.524718
 31
0.0
 11
412.101764
 21
72.831864
 31
0.0
 11
411.433020
 21
76.008400
 31
0.0
 11
410.566728
 21
77.693268
 31
0.0
 11
409.259955
 21
78.799845
 31
0.0
 11
409.272803
 21
78.759685
 31
0.0
 11
408.768694
 21
78.989525
 31
0.0
 11
407.920444
 21
79.326382
 31
0.0
 11
406.842598
 21
79.679959
 31
0.0
 11
405.557851
 21
80.060443
 31
0.0
 11
404.101244
 21
80.455671
 31
0.0
 11
400.791986
 21
81.252691
 31
0.0
 11
397.114272
 21
82.016475
 31
0.0
 11
393.258125
 21
82.697492
 31
0.0
 11
390.723629
 21
83.084462
 31
0.0
 11
389.013360
 21
83.303296
 31
0.0
 11
388.032780
 21
83.375032
 31
0.0
 11
387.603680
 21
83.374721
 31
0.0
 11
387.301147
 21
83.295293
 31
0.0
 11
386.660418
 21
83.034584
 31
0.0
 11
385.479399
 21
82.585822
 31
0.0
 11
384.940918
 21
81.967745
 31
0.0
 11
384.355086
 21
80.197006
 31
0.0
 11
383.520446
 21
76.493521
 31
0.0
 11
382.663630
 21
70.553636
 31
0.0
 11
381.736967
 21
62.108642
 31
0.0
 11
381.031377
 21
54.467272
 31
0.0
 11
380.391413
 21
46.495696
 31
0.0
 11
379.826125
 21
38.533598
 31
0.0
  0
LWPOLYLINE
  5
12d
100
AcDbEntity
  8
Layer_1
 62
7
100
AcDbPolyline
 90
2
 70
0
 10
416.841658
 20
106.668381
 30
0.0
 10
416.841714
 20
106.668945
 30
0.0
  0
SPLINE
  5
12e
100
AcDbEntity
  8
Layer_1
 62
7
100
AcDbSpline
 70
0
 71
3
 72
19
 73
15
 74
13
 40
0.000000
 40
0.000000
 40
0.000000
 40
0.000000
 40
9.247572
 40
18.085930
 40
24.075632
 40
27.626354
 40
30.278932
 40
33.371969
 40
38.133228
 40
45.266733
 40
55.220716
 40
62.626922
 40
68.275895
 40
72.352115
 40
72.352115
 40
72.352115
 40
72.352115
 10
416.841714
 20
106.668945
 30
0.0
 10
417.085074
 20
109.742087
 30
0.0
 10
417.561024
 20
115.752381
 30
0.0
 10
417.854005
 20
123.775244
 30
0.0
 10
417.808054
 20
129.904005
 30
0.0
 10
417.351295
 20
133.958529
 30
0.0
 10
416.187609
 20
136.900628
 30
0.0
 10
413.639174
 20
139.396857
 30
0.0
 10
409.520738
 20
142.220180
 30
0.0
 10
403.093965
 20
145.676354
 30
0.0
 10
395.755674
 20
149.249484
 30
0.0
 10
388.801238
 20
152.483182
 30
0.0
 10
383.591288
 20
154.828662
 30
0.0
 10
380.550086
 20
155.953387
 30
0.0
 10
379.275396
 20
156.424805
 30
0.0
 11
416.841714
 21
106.668945
 31
0.0
 11
417.504901
 21
115.892707
 31
0.0
 11
417.811390
 21
124.725749
 31
0.0
 11
417.670488
 21
130.713793
 31
0.0
 11
417.139375
 21
134.224569
 31
0.0
 11
416.099008
 21
136.664611
 31
0.0
 11
414.004534
 21
138.940585
 31
0.0
 11
410.135695
 21
141.715775
 31
0.0
 11
403.907372
 21
145.193543
 31
0.0
 11
394.977253
 21
149.590675
 31
0.0
 11
388.262261
 21
152.714897
 31
0.0
 11
383.084779
 21
154.974228
 31
0.0
 11
379.275396
 21
156.424805
 31
0.0
  0
LWPOLYLINE
  5
12f
100
AcDbEntity
  8
Layer_1
 62
7
100
AcDbPolyline
 90
2
 70
0
 10
379.275396
 20
156.424805
 30
0.0
 10
374.845919
 20
157.201227
 30
0.0
  0
SPLINE
  5
130
100
AcDbEntity
  8
Layer_1
 62
7
100
AcDbSpline
 70
0
 71
3
 72
46
 73
42
 74
40
 40
0.000000
 40
0.000000
 40
0.000000
 40
0.000000
 40
0.147847
 40
0.365871
 40
0.694000
 40
1.558565
 40
2.934260
 40
5.293230
 40
8.944546
 40
14.024342
 40
20.732515
 40
29.990923
 40
36.735375
 40
41.350715
 40
44.124996
 40
45.673922
 40
46.929378
 40
47.520373
 40
49.745146
 40
52.771324
 40
56.073597
 40
59.471319
 40
62.675686
 40
67.634140
 40
73.233566
 40
81.677258
 40
86.426099
 40
90.651154
 40
94.275300
 40
97.251969
 40
99.365572
 40
100.270077
 40
101.536032
 40
103.176717
 40
105.221704
 40
106.586500
 40
109.435753
 40
113.164369
 40
113.715478
 40
114.277035
 40
114.848340
 40
114.848340
 40
114.848340
 40
114.848340
 10
374.845919
 20
157.201227
 30
0.0
 10
374.803287
 20
157.176349
 30
0.0
 10
374.697789
 20
157.114785
 30
0.0
 10
374.520915
 20
156.964466
 30
0.0
 10
374.156669
 20
156.668101
 30
0.0
 10
373.554933
 20
156.047627
 30
0.0
 10
372.834374
 20
154.678232
 30
0.0
 10
371.937990
 20
152.387450
 30
0.0
 10
370.845739
 20
148.851062
 30
0.0
 10
369.528385
 20
143.876750
 30
0.0
 10
367.877626
 20
137.056971
 30
0.0
 10
366.167364
 20
129.685185
 30
0.0
 10
364.691755
 20
122.965005
 30
0.0
 10
363.917950
 20
118.328383
 30
0.0
 10
363.550397
 20
115.347208
 30
0.0
 10
363.691587
 20
113.505690
 30
0.0
 10
364.030510
 20
112.359583
 30
0.0
 10
365.086353
 20
111.477010
 30
0.0
 10
366.244778
 20
109.904904
 30
0.0
 10
368.315139
 20
107.929693
 30
0.0
 10
370.773102
 20
105.818452
 30
0.0
 10
373.366160
 20
103.771070
 30
0.0
 10
376.500236
 20
101.530940
 30
0.0
 10
380.472074
 20
99.182413
 30
0.0
 10
386.536545
 20
97.239089
 30
0.0
 10
392.656808
 20
95.918495
 30
0.0
 10
398.350636
 20
94.779384
 30
0.0
 10
402.495929
 20
94.097709
 30
0.0
 10
406.072139
 20
93.628732
 30
0.0
 10
408.979830
 20
93.420151
 30
0.0
 10
410.966378
 20
93.480401
 30
0.0
 10
412.415762
 20
93.487611
 30
0.0
 10
413.557919
 20
94.158122
 30
0.0
 10
414.677024
 20
95.378907
 30
0.0
 10
415.469132
 20
96.909505
 30
0.0
 10
415.819634
 20
98.973372
 30
0.0
 10
416.270866
 20
101.578904
 30
0.0
 10
416.564954
 20
103.939326
 30
0.0
 10
416.731521
 20
105.544396
 30
0.0
 10
416.787550
 20
106.102925
 30
0.0
 10
416.823162
 20
106.478863
 30
0.0
 10
416.841122
 20
106.668449
 30
0.0
 11
374.845919
 21
157.201227
 31
0.0
 11
374.720025
 21
157.123705
 31
0.0
 11
374.548686
 21
156.988882
 31
0.0
 11
374.297335
 21
156.777952
 31
0.0
 11
373.700580
 21
156.152367
 31
0.0
 11
373.006315
 21
154.964709
 31
0.0
 11
372.116011
 21
152.780196
 31
0.0
 11
371.006530
 21
149.301524
 31
0.0
 11
369.682409
 21
144.397338
 31
0.0
 11
368.086471
 21
137.881775
 31
0.0
 11
365.998067
 21
128.861980
 31
0.0
 11
364.606733
 21
122.262601
 31
0.0
 11
363.856439
 21
117.708655
 31
0.0
 11
363.618274
 21
114.944616
 31
0.0
 11
363.762758
 21
113.402443
 31
0.0
 11
364.233008
 21
112.238384
 31
0.0
 11
364.655072
 21
111.824695
 31
0.0
 11
366.127115
 21
110.156551
 31
0.0
 11
368.263734
 21
108.013514
 31
0.0
 11
370.763781
 21
105.856021
 31
0.0
 11
373.433030
 21
103.753730
 31
0.0
 11
376.046718
 21
101.899923
 31
0.0
 11
380.358235
 21
99.451028
 31
0.0
 11
385.643356
 21
97.601416
 31
0.0
 11
393.866737
 21
95.685184
 31
0.0
 11
398.527244
 21
94.773502
 31
0.0
 11
402.696603
 21
94.089733
 31
0.0
 11
406.292643
 21
93.639256
 31
0.0
 11
409.263828
 21
93.458652
 31
0.0
 11
411.377321
 21
93.480168
 31
0.0
 11
412.278915
 21
93.552685
 31
0.0
 11
413.404991
 21
94.131126
 31
0.0
 11
414.535131
 21
95.320508
 31
0.0
 11
415.452137
 21
97.148368
 31
0.0
 11
415.736864
 21
98.483133
 31
0.0
 11
416.201706
 21
101.294212
 31
0.0
 11
416.673792
 21
104.992822
 31
0.0
 11
416.730852
 21
105.540969
 31
0.0
 11
416.786714
 21
106.099741
 31
0.0
 11
416.841122
 21
106.668449
 31
0.0
  0
SPLINE
  5
131
100
AcDbEntity
  8
Layer_1
 62
7
100
AcDbSpline
 70
0
 71
3
 72
13
 73
9
 74
7
 40
0.000000
 40
0.000000
 40
0.000000
 40
0.000000
 40
5.496091
 40
10.872432
 40
15.907515
 40
22.807211
 40
28.580271
 40
33.208099
 40
33.208099
 40
33.208099
 40
33.208099
 10
369.180195
 20
38.805790
 30
0.0
 10
369.323601
 20
40.632200
 30
0.0
 10
369.607289
 20
44.245227
 30
0.0
 10
369.997569
 20
49.533376
 30
0.0
 10
370.364684
 20
55.292283
 30
0.0
 10
370.647291
 20
61.188025
 30
0.0
 10
370.847851
 20
66.952752
 30
0.0
 10
370.816616
 20
70.419925
 30
0.0
 10
370.802718
 20
71.962628
 30
0.0
 11
369.180195
 21
38.805790
 31
0.0
 11
369.606085
 21
44.285355
 31
0.0
 11
369.996703
 21
49.647486
 31
0.0
 11
370.313994
 21
54.672563
 31
0.0
 11
370.648868
 21
61.564128
 31
0.0
 11
370.814357
 21
67.334815
 31
0.0
 11
370.802718
 21
71.962628
 31
0.0
  0
LWPOLYLINE
  5
132
100
AcDbEntity
  8
Layer_1
 62
7
100
AcDbPolyline
 90
2
 70
0
 10
416.841122
 20
106.668449
 30
0.0
 10
416.841658
 20
106.668381
 30
0.0
  0
SPLINE
  5
133
100
AcDbEntity
  8
Layer_1
 62
7
100
AcDbSpline
 70
0
 71
3
 72
16
 73
12
 74
10
 40
0.000000
 40
0.000000
 40
0.000000
 40
0.000000
 40
1.159599
 40
2.399431
 40
3.746959
 40
11.252023
 40
20.733134
 40
32.198076
 40
33.905100
 40
35.410684
 40
36.949206
 40
36.949206
 40
36.949206
 40
36.949206
 10
370.802718
 20
71.962628
 30
0.0
 10
370.597812
 20
71.634873
 30
0.0
 10
370.173822
 20
70.956685
 30
0.0
 10
369.526890
 20
69.888234
 30
0.0
 10
367.829424
 20
66.983619
 30
0.0
 10
364.919195
 20
61.607832
 30
0.0
 10
360.592228
 20
53.168878
 30
0.0
 10
357.217800
 20
46.413437
 30
0.0
 10
355.078327
 20
42.013393
 30
0.0
 10
354.408467
 20
40.578287
 30
0.0
 10
353.971651
 20
39.662418
 30
0.0
 10
353.750880
 20
39.199529
 30
0.0
 11
370.802718
 21
71.962628
 31
0.0
 11
370.190269
 21
70.977958
 31
0.0
 11
369.548136
 21
69.917369
 31
0.0
 11
368.867013
 21
68.754656
 31
0.0
 11
365.254925
 21
62.175993
 31
0.0
 11
360.907340
 21
53.750438
 31
0.0
 11
355.796144
 21
43.487856
 31
0.0
 11
355.053296
 21
41.950942
 31
0.0
 11
354.411244
 21
40.589122
 31
0.0
 11
353.750880
 21
39.199529
 31
0.0
  0
SPLINE
  5
134
100
AcDbEntity
  8
Layer_1
 62
7
100
AcDbSpline
 70
0
 71
3
 72
10
 73
6
 74
4
 40
0.000000
 40
0.000000
 40
0.000000
 40
0.000000
 40
0.675234
 40
1.126795
 40
1.390468
 40
1.390468
 40
1.390468
 40
1.390468
 10
366.375752
 20
90.540786
 30
0.0
 10
366.396819
 20
90.764887
 30
0.0
 10
366.431973
 20
91.138855
 30
0.0
 10
366.460930
 20
91.601529
 30
0.0
 10
366.469547
 20
91.839789
 30
0.0
 10
366.472724
 20
91.927624
 30
0.0
 11
366.375752
 21
90.540786
 31
0.0
 11
366.434754
 21
91.213437
 31
0.0
 11
366.462340
 21
91.664155
 31
0.0
 11
366.472724
 21
91.927624
 31
0.0
  0
LWPOLYLINE
  5
135
100
AcDbEntity
  8
Layer_1
 62
7
100
AcDbPolyline
 90
2
 70
0
 10
353.750880
 20
39.199529
 30
0.0
 10
369.180195
 20
38.805790
 30
0.0
  0
LWPOLYLINE
  5
136
100
AcDbEntity
  8
Layer_1
 62
7
100
AcDbPolyline
 90
2
 70
0
 10
354.805657
 20
102.003823
 30
0.0
 10
354.805657
 20
102.003823
 30
0.0
  0
LWPOLYLINE
  5
137
100
AcDbEntity
  8
Layer_1
 62
7
100
AcDbPolyline
 90
2
 70
0
 10
351.977057
 20
102.480212
 30
0.0
 10
351.977057
 20
102.480212
 30
0.0
  0
SPLINE
  5
138
100
AcDbEntity
  8
Layer_1
 62
7
100
AcDbSpline
 70
0
 71
3
 72
34
 73
30
 74
28
 40
0.000000
 40
0.000000
 40
0.000000
 40
0.000000
 40
0.266141
 40
0.726015
 40
1.417540
 40
3.187144
 40
5.832781
 40
8.825402
 40
11.784201
 40
14.233150
 40
15.495583
 40
16.073170
 40
17.279660
 40
18.367114
 40
20.223606
 40
24.245624
 40
29.232854
 40
34.331770
 40
38.970934
 40
42.381335
 40
45.185392
 40
46.853723
 40
48.147475
 40
50.111808
 40
53.476039
 40
58.487243
 40
70.773305
 40
87.755447
 40
102.027017
 40
102.027017
 40
102.027017
 40
102.027017
 10
366.472724
 20
91.927624
 30
0.0
 10
366.421950
 20
92.000376
 30
0.0
 10
366.283441
 20
92.198840
 30
0.0
 10
366.001519
 20
92.578040
 30
0.0
 10
365.409395
 20
93.351720
 30
0.0
 10
364.219510
 20
94.574356
 30
0.0
 10
362.424105
 20
96.269479
 30
0.0
 10
360.257800
 20
98.142761
 30
0.0
 10
358.046499
 20
99.881237
 30
0.0
 10
356.191147
 20
101.064845
 30
0.0
 10
355.045712
 20
101.995517
 30
0.0
 10
354.031062
 20
102.163110
 30
0.0
 10
353.103116
 20
102.367775
 30
0.0
 10
351.718611
 20
102.568280
 30
0.0
 10
349.428018
 20
102.021827
 30
0.0
 10
345.864802
 20
101.472062
 30
0.0
 10
341.269629
 20
100.425543
 30
0.0
 10
336.520140
 20
99.193028
 30
0.0
 10
332.305998
 20
97.990437
 30
0.0
 10
328.866727
 20
96.847763
 30
0.0
 10
326.446226
 20
95.847114
 30
0.0
 10
324.744223
 20
94.883748
 30
0.0
 10
323.757436
 20
93.521102
 30
0.0
 10
323.160525
 20
91.371100
 30
0.0
 10
322.632784
 20
87.969511
 30
0.0
 10
322.048090
 20
81.097308
 30
0.0
 10
322.055351
 20
69.664537
 30
0.0
 10
322.141450
 20
55.152055
 30
0.0
 10
322.574309
 20
44.742074
 30
0.0
 10
322.771968
 20
39.988501
 30
0.0
 11
366.472724
 21
91.927624
 31
0.0
 11
366.319611
 21
92.145310
 31
0.0
 11
366.046886
 21
92.515588
 31
0.0
 11
365.622050
 21
93.061226
 31
0.0
 11
364.416986
 21
94.357112
 31
0.0
 11
362.496263
 21
96.176511
 31
0.0
 11
360.232339
 21
98.133659
 31
0.0
 11
357.888137
 21
99.938987
 31
0.0
 11
355.879032
 21
101.339290
 31
0.0
 11
354.805657
 21
102.003823
 31
0.0
 11
354.242371
 21
102.131554
 31
0.0
 11
353.058033
 21
102.361687
 31
0.0
 11
351.977057
 21
102.480212
 31
0.0
 11
350.140625
 21
102.208033
 31
0.0
 11
346.185313
 21
101.478555
 31
0.0
 11
341.313826
 21
100.410346
 31
0.0
 11
336.377285
 21
99.133824
 31
0.0
 11
331.921870
 21
97.841107
 31
0.0
 11
328.692962
 21
96.743387
 31
0.0
 11
326.118390
 21
95.632389
 31
0.0
 11
324.722799
 21
94.718249
 31
0.0
 11
323.948354
 21
93.681894
 31
0.0
 11
323.315017
 21
91.822462
 31
0.0
 11
322.747576
 21
88.506431
 31
0.0
 11
322.295351
 21
83.515674
 31
0.0
 11
322.063462
 21
71.231801
 31
0.0
 11
322.256362
 21
54.250755
 31
0.0
 11
322.771968
 21
39.988501
 31
0.0
  0
LWPOLYLINE
  5
139
100
AcDbEntity
  8
Layer_1
 62
7
100
AcDbPolyline
 90
2
 70
0
 10
322.771968
 20
39.988501
 30
0.0
 10
342.372611
 20
39.488914
 30
0.0
  0
LWPOLYLINE
  5
13a
100
AcDbEntity
  8
Layer_1
 62
7
100
AcDbPolyline
 90
2
 70
0
 10
366.376853
 20
90.540671
 30
0.0
 10
366.375752
 20
90.540786
 30
0.0
  0
SPLINE
  5
13b
100
AcDbEntity
  8
Layer_1
 62
7
100
AcDbSpline
 70
0
 71
3
 72
13
 73
9
 74
7
 40
0.000000
 40
0.000000
 40
0.000000
 40
0.000000
 40
6.807464
 40
15.293501
 40
25.865789
 40
42.436660
 40
51.877193
 40
56.512805
 40
56.512805
 40
56.512805
 40
56.512805
 10
342.372611
 20
39.488914
 30
0.0
 10
343.442095
 20
41.490324
 30
0.0
 10
345.844774
 20
45.986649
 30
0.0
 10
349.774647
 20
53.660108
 30
0.0
 10
355.165386
 20
64.248924
 30
0.0
 10
360.437403
 20
75.215774
 30
0.0
 10
364.900044
 20
84.469580
 30
0.0
 10
366.010991
 20
89.036631
 30
0.0
 10
366.376853
 20
90.540671
 30
0.0
 11
342.372611
 21
39.488914
 31
0.0
 11
345.565392
 21
45.501211
 31
0.0
 11
349.455287
 21
53.043196
 31
0.0
 11
354.228174
 21
62.476798
 31
0.0
 11
361.480841
 21
77.376213
 31
0.0
 11
365.177458
 21
86.062909
 31
0.0
 11
366.376853
 21
90.540671
 31
0.0
  0
LWPOLYLINE
  5
13c
100
AcDbEntity
  8
Layer_1
 62
7
100
AcDbPolyline
 90
2
 70
0
 10
360.415530
 20
159.732068
 30
0.0
 10
326.326500
 20
165.709806
 30
0.0
  0
SPLINE
  5
13d
100
AcDbEntity
  8
Layer_1
 62
7
100
AcDbSpline
 70
0
 71
3
 72
46
 73
42
 74
40
 40
0.000000
 40
0.000000
 40
0.000000
 40
0.000000
 40
11.379812
 40
19.708685
 40
25.601387
 40
29.989617
 40
33.758169
 40
38.111868
 40
42.695522
 40
47.054080
 40
51.027418
 40
54.489154
 40
57.165970
 40
58.673907
 40
59.465545
 40
59.908851
 40
60.085282
 40
60.176909
 40
60.425723
 40
61.022635
 40
63.595950
 40
68.088386
 40
74.621379
 40
81.536348
 40
86.598848
 40
90.223556
 40
92.984121
 40
95.675429
 40
99.058279
 40
106.782323
 40
115.231487
 40
120.963643
 40
123.741828
 40
125.826017
 40
128.975733
 40
134.529386
 40
143.175271
 40
155.529474
 40
160.967605
 40
165.507658
 40
169.432314
 40
169.432314
 40
169.432314
 40
169.432314
 10
326.326500
 20
165.709806
 30
0.0
 10
323.051975
 20
163.795174
 30
0.0
 10
317.380830
 20
160.479226
 30
0.0
 10
310.124479
 20
155.982320
 30
0.0
 10
305.040748
 20
152.422195
 30
0.0
 10
301.494743
 20
149.332004
 30
0.0
 10
298.919257
 20
146.025517
 30
0.0
 10
296.800922
 20
142.353526
 30
0.0
 10
294.641097
 20
138.484231
 30
0.0
 10
292.662649
 20
134.659355
 30
0.0
 10
290.949401
 20
131.121088
 30
0.0
 10
289.610779
 20
128.024143
 30
0.0
 10
288.727757
 20
125.636380
 30
0.0
 10
288.202074
 20
124.055301
 30
0.0
 10
288.078418
 20
123.147885
 30
0.0
 10
288.048296
 20
122.676424
 30
0.0
 10
288.072326
 20
122.440313
 30
0.0
 10
288.113949
 20
122.271227
 30
0.0
 10
288.328591
 20
122.030555
 30
0.0
 10
289.131883
 20
121.236859
 30
0.0
 10
291.322421
 20
119.857565
 30
0.0
 10
295.278309
 20
117.681041
 30
0.0
 10
300.663571
 20
115.057599
 30
0.0
 10
306.254048
 20
112.452829
 30
0.0
 10
311.045022
 20
110.421299
 30
0.0
 10
314.675789
 20
109.225207
 30
0.0
 10
317.676052
 20
108.711080
 30
0.0
 10
320.634369
 20
108.845849
 30
0.0
 10
325.165374
 20
109.658806
 30
0.0
 10
331.497521
 20
111.208085
 30
0.0
 10
338.552013
 20
113.133417
 30
0.0
 10
343.901308
 20
114.908764
 30
0.0
 10
347.241098
 20
116.153093
 30
0.0
 10
349.289220
 20
117.972612
 30
0.0
 10
350.746284
 20
121.327516
 30
0.0
 10
352.688464
 20
126.746526
 30
0.0
 10
354.925489
 20
135.334489
 30
0.0
 10
357.042487
 20
143.881028
 30
0.0
 10
358.737895
 20
151.130566
 30
0.0
 10
359.708582
 20
155.662882
 30
0.0
 10
360.191585
 20
158.443047
 30
0.0
 10
360.415530
 20
159.732068
 30
0.0
 11
326.326500
 21
165.709806
 31
0.0
 11
316.531264
 21
159.917270
 31
0.0
 11
309.484032
 21
155.478053
 31
0.0
 11
304.699952
 21
152.037629
 31
0.0
 11
301.448183
 21
149.091011
 31
0.0
 11
299.108166
 21
146.136978
 31
0.0
 11
296.848332
 21
142.415709
 31
0.0
 11
294.626287
 21
138.406670
 31
0.0
 11
292.621685
 21
134.536450
 31
0.0
 11
290.902446
 21
130.954323
 31
0.0
 11
289.539863
 21
127.772032
 31
0.0
 11
288.609631
 21
125.262049
 31
0.0
 11
288.186283
 21
123.814758
 31
0.0
 11
288.074762
 21
123.031015
 31
0.0
 11
288.060080
 21
122.587951
 31
0.0
 11
288.080619
 21
122.412720
 31
0.0
 11
288.104952
 21
122.324384
 31
0.0
 11
288.249317
 21
122.121734
 31
0.0
 11
288.673258
 21
121.701520
 31
0.0
 11
290.778512
 21
120.221706
 31
0.0
 11
294.701685
 21
118.032940
 31
0.0
 11
300.554757
 21
115.130950
 31
0.0
 11
306.833701
 21
112.234113
 31
0.0
 11
311.516289
 21
110.309982
 31
0.0
 11
314.977413
 21
109.233355
 31
0.0
 11
317.704957
 21
108.807657
 31
0.0
 11
320.395085
 21
108.887366
 31
0.0
 11
323.735107
 21
109.423954
 31
0.0
 11
331.256273
 21
111.182624
 31
0.0
 11
339.393643
 21
113.456736
 31
0.0
 11
344.832347
 21
115.267288
 31
0.0
 11
347.365252
 21
116.408651
 31
0.0
 11
348.916782
 21
117.800267
 31
0.0
 11
350.395230
 21
120.581437
 31
0.0
 11
352.282132
 21
125.804718
 31
0.0
 11
354.598231
 21
134.134604
 31
0.0
 11
357.560626
 21
146.128376
 31
0.0
 11
358.788002
 21
151.426188
 31
0.0
 11
359.720481
 21
155.869449
 31
0.0
 11
360.415530
 21
159.732068
 31
0.0
  0
SPLINE
  5
13e
100
AcDbEntity
  8
Layer_1
 62
7
100
AcDbSpline
 70
0
 71
3
 72
10
 73
6
 74
4
 40
0.000000
 40
0.000000
 40
0.000000
 40
0.000000
 40
5.055646
 40
11.129712
 40
18.556404
 40
18.556404
 40
18.556404
 40
18.556404
 10
310.990544
 20
40.288791
 30
0.0
 10
311.001354
 20
41.973984
 30
0.0
 10
311.025150
 20
45.683839
 30
0.0
 10
310.987944
 20
51.869348
 30
0.0
 10
310.926644
 20
56.369182
 30
0.0
 10
310.892924
 20
58.844516
 30
0.0
 11
310.990544
 21
40.288791
 31
0.0
 11
311.013458
 21
45.344386
 31
0.0
 11
310.983727
 21
51.418379
 31
0.0
 11
310.892924
 21
58.844516
 31
0.0
  0
LWPOLYLINE
  5
13f
100
AcDbEntity
  8
Layer_1
 62
7
100
AcDbPolyline
 90
2
 70
0
 10
360.415530
 20
159.732068
 30
0.0
 10
360.415530
 20
159.732068
 30
0.0
  0
SPLINE
  5
140
100
AcDbEntity
  8
Layer_1
 62
7
100
AcDbSpline
 70
0
 71
3
 72
34
 73
30
 74
28
 40
0.000000
 40
0.000000
 40
0.000000
 40
0.000000
 40
14.688671
 40
25.007489
 40
31.702757
 40
35.631804
 40
38.363182
 40
41.895043
 40
44.973560
 40
48.873298
 40
53.051106
 40
57.091628
 40
60.365039
 40
61.999082
 40
63.385136
 40
63.954195
 40
64.944197
 40
67.233784
 40
71.141276
 40
76.710899
 40
81.302147
 40
89.641310
 40
100.129490
 40
111.324952
 40
121.947682
 40
130.641141
 40
131.120823
 40
131.623489
 40
132.115973
 40
132.115973
 40
132.115973
 40
132.115973
 10
310.892924
 20
58.844516
 30
0.0
 10
310.802212
 20
63.737226
 30
0.0
 10
310.647775
 20
72.067074
 30
0.0
 10
310.234364
 20
82.652072
 30
0.0
 10
309.355037
 20
89.548862
 30
0.0
 10
308.373903
 20
93.972386
 30
0.0
 10
306.236816
 20
96.732631
 30
0.0
 10
303.531635
 20
98.335165
 30
0.0
 10
300.531928
 20
100.131418
 30
0.0
 10
297.212108
 20
101.816946
 30
0.0
 10
293.575759
 20
103.576428
 30
0.0
 10
290.044746
 20
105.061030
 30
0.0
 10
287.263861
 20
106.152236
 30
0.0
 10
285.266269
 20
106.778658
 30
0.0
 10
284.118817
 20
107.151465
 30
0.0
 10
283.087133
 20
107.003071
 30
0.0
 10
282.401812
 20
105.786970
 30
0.0
 10
281.109721
 20
103.857453
 30
0.0
 10
279.711652
 20
100.117605
 30
0.0
 10
278.183881
 20
95.709163
 30
0.0
 10
276.679166
 20
89.717294
 30
0.0
 10
274.792108
 20
82.147868
 30
0.0
 10
272.460442
 20
72.413574
 30
0.0
 10
269.984807
 20
61.933531
 30
0.0
 10
267.742158
 20
52.013799
 30
0.0
 10
266.223557
 20
45.590610
 30
0.0
 10
265.608825
 20
42.424073
 30
0.0
 10
265.534751
 20
41.937989
 30
0.0
 10
265.475517
 20
41.611594
 30
0.0
 10
265.446202
 20
41.450065
 30
0.0
 11
310.892924
 21
58.844516
 31
0.0
 11
310.561562
 21
73.529449
 31
0.0
 11
310.005960
 21
83.833298
 31
0.0
 11
309.106090
 21
90.467818
 31
0.0
 11
307.970203
 21
94.229090
 31
0.0
 11
306.309483
 21
96.397600
 31
0.0
 11
303.408221
 21
98.411730
 31
0.0
 11
300.749787
 21
99.964147
 31
0.0
 11
297.290156
 21
101.763841
 31
0.0
 11
293.519296
 21
103.562367
 31
0.0
 11
289.801186
 21
105.143975
 31
0.0
 11
286.739914
 21
106.303214
 31
0.0
 11
285.185527
 21
106.807175
 31
0.0
 11
283.827551
 21
107.084750
 31
0.0
 11
283.270365
 21
106.969115
 31
0.0
 11
282.632714
 21
106.211813
 31
0.0
 11
281.452158
 21
104.250056
 31
0.0
 11
279.925604
 21
100.653094
 31
0.0
 11
278.160858
 21
95.370447
 31
0.0
 11
276.985239
 21
90.932263
 31
0.0
 11
274.976046
 21
82.838760
 31
0.0
 11
272.520613
 21
72.642055
 31
0.0
 11
269.958891
 21
61.743618
 31
0.0
 11
267.581592
 21
51.390317
 31
0.0
 11
265.702042
 21
42.902471
 31
0.0
 11
265.613402
 21
42.431051
 31
0.0
 11
265.531879
 21
41.935040
 31
0.0
 11
265.446202
 21
41.450065
 31
0.0
  0
LWPOLYLINE
  5
141
100
AcDbEntity
  8
Layer_1
 62
7
100
AcDbPolyline
 90
2
 70
0
 10
265.446202
 20
41.450065
 30
0.0
 10
310.990544
 20
40.288791
 30
0.0
  0
SPLINE
  5
142
100
AcDbEntity
  8
Layer_1
 62
7
100
AcDbSpline
 70
0
 71
3
 72
13
 73
9
 74
7
 40
0.000000
 40
0.000000
 40
0.000000
 40
0.000000
 40
0.603311
 40
1.212949
 40
1.832684
 40
4.572373
 40
8.804880
 40
13.978676
 40
13.978676
 40
13.978676
 40
13.978676
 10
289.273319
 20
158.360113
 30
0.0
 10
289.288998
 20
158.560616
 30
0.0
 10
289.320520
 20
158.963723
 30
0.0
 10
289.349494
 20
159.574000
 30
0.0
 10
289.385601
 20
160.896729
 30
0.0
 10
289.272596
 20
163.427176
 30
0.0
 10
289.035907
 20
167.467937
 30
0.0
 10
288.798395
 20
170.594620
 30
0.0
 10
288.667754
 20
172.314404
 30
0.0
 11
289.273319
 21
158.360113
 31
0.0
 11
289.317301
 21
158.961819
 31
0.0
 11
289.347305
 21
159.570717
 31
0.0
 11
289.363573
 21
160.190239
 31
0.0
 11
289.289862
 21
162.928936
 31
0.0
 11
289.043274
 21
167.154254
 31
0.0
 11
288.667754
 21
172.314404
 31
0.0
  0
LWPOLYLINE
  5
143
100
AcDbEntity
  8
Layer_1
 62
7
100
AcDbPolyline
 90
2
 70
0
 10
288.667754
 20
172.314404
 30
0.0
 10
268.463127
 20
175.857368
 30
0.0
  0
SPLINE
  5
144
100
AcDbEntity
  8
Layer_1
 62
7
100
AcDbSpline
 70
0
 71
3
 72
34
 73
30
 74
28
 40
0.000000
 40
0.000000
 40
0.000000
 40
0.000000
 40
7.432883
 40
14.825066
 40
21.853978
 40
29.138997
 40
34.831893
 40
38.120859
 40
40.278619
 40
41.931493
 40
43.067936
 40
43.703268
 40
44.057363
 40
44.468433
 40
46.586584
 40
50.966486
 40
57.764202
 40
62.653449
 40
65.403246
 40
66.890542
 40
67.272203
 40
68.147285
 40
70.077617
 40
73.363834
 40
78.019209
 40
84.157905
 40
91.918550
 40
97.493121
 40
101.914705
 40
101.914705
 40
101.914705
 40
101.914705
 10
268.463127
 20
175.857368
 30
0.0
 10
267.471025
 20
173.587043
 30
0.0
 10
265.492254
 20
169.058824
 30
0.0
 10
262.623530
 20
162.362646
 30
0.0
 10
259.818086
 20
155.693550
 30
0.0
 10
257.296948
 20
149.518195
 30
0.0
 10
255.335283
 20
144.465566
 30
0.0
 10
254.034120
 20
140.982627
 30
0.0
 10
253.441750
 20
138.690344
 30
0.0
 10
253.093997
 20
137.074934
 30
0.0
 10
252.996610
 20
135.936937
 30
0.0
 10
252.983163
 20
135.225341
 30
0.0
 10
253.112139
 20
134.765231
 30
0.0
 10
253.765840
 20
134.035673
 30
0.0
 10
255.783950
 20
132.875283
 30
0.0
 10
259.823074
 20
131.069307
 30
0.0
 10
264.887655
 20
129.300897
 30
0.0
 10
269.486459
 20
127.872455
 30
0.0
 10
272.449807
 20
127.188434
 30
0.0
 10
274.009263
 20
127.097790
 30
0.0
 10
274.906797
 20
127.340129
 30
0.0
 10
275.663711
 20
128.144291
 30
0.0
 10
276.912559
 20
129.712272
 30
0.0
 10
278.667877
 20
132.521710
 30
0.0
 10
280.914577
 20
136.633821
 30
0.0
 10
283.707003
 20
142.159383
 30
0.0
 10
286.461158
 20
148.027837
 30
0.0
 10
288.589246
 20
153.590535
 30
0.0
 10
289.063530
 20
156.897399
 30
0.0
 10
289.273319
 20
158.360118
 30
0.0
 11
268.463127
 21
175.857368
 31
0.0
 11
265.495046
 21
169.042808
 31
0.0
 11
262.583503
 21
162.248156
 31
0.0
 11
259.862345
 21
155.767346
 31
0.0
 11
257.118488
 21
149.018808
 31
0.0
 11
255.059054
 21
143.711475
 31
0.0
 11
253.968258
 21
140.608660
 31
0.0
 11
253.415681
 21
138.522853
 31
0.0
 11
253.098692
 21
136.900660
 31
0.0
 11
252.998478
 21
135.768644
 31
0.0
 11
253.021535
 21
135.133730
 31
0.0
 11
253.128952
 21
134.796322
 31
0.0
 11
253.383181
 21
134.473295
 31
0.0
 11
255.131383
 21
133.277322
 31
0.0
 11
259.108180
 21
131.441940
 31
0.0
 11
265.502404
 21
129.134811
 31
0.0
 11
270.187236
 21
127.735854
 31
0.0
 11
272.882825
 21
127.192541
 31
0.0
 11
274.370078
 21
127.203846
 31
0.0
 11
274.735023
 21
127.315562
 31
0.0
 11
275.404228
 21
127.879417
 31
0.0
 11
276.615158
 21
129.382689
 31
0.0
 11
278.399618
 21
132.142206
 31
0.0
 11
280.659689
 21
136.212168
 31
0.0
 11
283.438318
 21
141.685998
 31
0.0
 11
286.672858
 21
148.740454
 31
0.0
 11
288.502352
 21
154.006267
 31
0.0
 11
289.273319
 21
158.360118
 31
0.0
  0
SPLINE
  5
145
100
AcDbEntity
  8
Layer_1
 62
7
100
AcDbSpline
 70
0
 71
3
 72
22
 73
18
 74
16
 40
0.000000
 40
0.000000
 40
0.000000
 40
0.000000
 40
2.514289
 40
4.200831
 40
5.386347
 40
6.552360
 40
7.257957
 40
8.752219
 40
11.844324
 40
16.806454
 40
23.901963
 40
30.541847
 40
35.168140
 40
39.371922
 40
41.151662
 40
42.227665
 40
42.892797
 40
42.892797
 40
42.892797
 40
42.892797
 10
268.234978
 20
107.108535
 30
0.0
 10
268.300337
 20
107.942737
 30
0.0
 10
268.409536
 20
109.336507
 30
0.0
 10
268.375178
 20
111.149962
 30
0.0
 10
268.017264
 20
112.443830
 30
0.0
 10
267.857113
 20
113.477603
 30
0.0
 10
267.122245
 20
114.371413
 30
0.0
 10
265.480229
 20
115.101182
 30
0.0
 10
262.647840
 20
116.511012
 30
0.0
 10
257.867767
 20
118.201186
 30
0.0
 10
251.990165
 20
120.249907
 30
0.0
 10
246.178601
 20
122.176422
 30
0.0
 10
241.191052
 20
123.517233
 30
0.0
 10
237.684416
 20
124.020150
 30
0.0
 10
235.345296
 20
124.273693
 30
0.0
 10
234.175792
 20
124.374972
 30
0.0
 10
233.596207
 20
124.405739
 30
0.0
 10
233.374799
 20
124.417492
 30
0.0
 11
268.234978
 21
107.108535
 31
0.0
 11
268.382336
 21
109.618502
 31
0.0
 11
268.290517
 21
111.302543
 31
0.0
 11
268.037200
 21
112.460679
 31
0.0
 11
267.712448
 21
113.580554
 31
0.0
 11
267.273622
 21
114.133093
 31
0.0
 11
265.982662
 21
114.885583
 31
0.0
 11
263.180125
 21
116.192067
 31
0.0
 11
258.543283
 21
117.959107
 31
0.0
 11
251.839047
 21
120.282781
 31
0.0
 11
245.518211
 21
122.316277
 31
0.0
 11
241.035185
 21
123.458667
 31
0.0
 11
236.880787
 21
124.101129
 31
0.0
 11
235.111208
 21
124.291038
 31
0.0
 11
234.038840
 21
124.379413
 31
0.0
 11
233.374799
 21
124.417492
 31
0.0
  0
SPLINE
  5
146
100
AcDbEntity
  8
Layer_1
 62
7
100
AcDbSpline
 70
0
 71
3
 72
22
 73
18
 74
16
 40
0.000000
 40
0.000000
 40
0.000000
 40
0.000000
 40
0.602999
 40
1.471121
 40
2.667929
 40
6.204585
 40
11.211157
 40
17.875058
 40
29.677548
 40
37.011925
 40
40.966727
 40
46.849784
 40
55.798331
 40
70.318652
 40
76.189986
 40
80.470612
 40
83.232839
 40
83.232839
 40
83.232839
 40
83.232839
 10
233.374799
 20
124.417492
 30
0.0
 10
233.317208
 20
124.224864
 30
0.0
 10
233.176705
 20
123.754915
 30
0.0
 10
232.988613
 20
122.884871
 30
0.0
 10
232.676734
 20
121.043621
 30
0.0
 10
232.331869
 20
117.812999
 30
0.0
 10
231.940385
 20
112.759348
 30
0.0
 10
231.474698
 20
104.949198
 30
0.0
 10
231.052203
 20
96.354306
 30
0.0
 10
230.915434
 20
88.666808
 30
0.0
 10
231.220689
 20
82.919264
 30
0.0
 10
233.446398
 20
76.964918
 30
0.0
 10
238.644957
 20
68.662950
 30
0.0
 10
244.370790
 20
60.727745
 30
0.0
 10
249.340072
 20
54.177191
 30
0.0
 10
252.025453
 20
50.807122
 30
0.0
 10
253.643432
 20
49.104993
 30
0.0
 10
254.278009
 20
48.437413
 30
0.0
 11
233.374799
 21
124.417492
 31
0.0
 11
233.208207
 21
123.837962
 31
0.0
 11
233.017196
 21
122.991114
 31
0.0
 11
232.813143
 21
121.811830
 31
0.0
 11
232.398062
 21
118.299616
 31
0.0
 11
231.995731
 21
113.309237
 31
0.0
 11
231.584974
 21
106.658006
 31
0.0
 11
231.055120
 21
94.867416
 31
0.0
 11
231.008343
 21
87.533188
 31
0.0
 11
231.346505
 21
83.592870
 31
0.0
 11
233.220048
 21
78.016115
 31
0.0
 11
237.719691
 21
70.281150
 31
0.0
 11
246.123375
 21
58.439789
 31
0.0
 11
249.682628
 21
53.770284
 31
0.0
 11
252.397889
 21
50.461037
 31
0.0
 11
254.278009
 21
48.437413
 31
0.0
  0
LWPOLYLINE
  5
147
100
AcDbEntity
  8
Layer_1
 62
7
100
AcDbPolyline
 90
2
 70
0
 10
289.273319
 20
158.360118
 30
0.0
 10
289.273319
 20
158.360113
 30
0.0
  0
SPLINE
  5
148
100
AcDbEntity
  8
Layer_1
 62
7
100
AcDbSpline
 70
0
 71
3
 72
16
 73
12
 74
10
 40
0.000000
 40
0.000000
 40
0.000000
 40
0.000000
 40
1.122989
 40
2.782040
 40
5.182142
 40
10.687856
 40
18.333553
 40
28.439194
 40
43.402270
 40
53.767478
 40
60.398858
 40
60.398858
 40
60.398858
 40
60.398858
 10
254.278009
 20
48.437413
 30
0.0
 10
254.446996
 20
48.771614
 30
0.0
 10
254.865639
 20
49.599546
 30
0.0
 10
255.488119
 20
51.213630
 30
0.0
 10
256.483593
 20
54.242658
 30
0.0
 10
257.853329
 20
59.244747
 30
0.0
 10
259.735597
 20
66.764536
 30
0.0
 10
262.247808
 20
77.377150
 30
0.0
 10
264.859334
 20
88.893116
 30
0.0
 10
267.146404
 20
99.305896
 30
0.0
 10
267.929427
 20
104.918671
 30
0.0
 10
268.234930
 20
107.108549
 30
0.0
 11
254.278009
 21
48.437413
 31
0.0
 11
254.771209
 21
49.446302
 31
0.0
 11
255.388224
 21
50.986349
 31
0.0
 11
256.148716
 21
53.262781
 31
0.0
 11
257.648379
 21
58.560318
 31
0.0
 11
259.522869
 21
65.972670
 31
0.0
 11
261.862203
 21
75.803819
 31
0.0
 11
265.179285
 21
90.394591
 31
0.0
 11
267.252465
 21
100.550351
 31
0.0
 11
268.234930
 21
107.108549
 31
0.0
  0
SPLINE
  5
149
100
AcDbEntity
  8
Layer_1
 62
7
100
AcDbSpline
 70
0
 71
3
 72
16
 73
12
 74
10
 40
0.000000
 40
0.000000
 40
0.000000
 40
0.000000
 40
3.624393
 40
7.803445
 40
12.592848
 40
19.275165
 40
24.174018
 40
27.529347
 40
29.156239
 40
30.084296
 40
30.619763
 40
30.619763
 40
30.619763
 40
30.619763
 10
244.572818
 20
41.982003
 30
0.0
 10
243.878691
 20
42.970847
 30
0.0
 10
242.384212
 20
45.099863
 30
0.0
 10
239.911891
 20
48.492409
 30
0.0
 10
236.815965
 20
52.691063
 30
0.0
 10
233.552667
 20
57.066195
 30
0.0
 10
230.510078
 20
61.003865
 30
0.0
 10
228.406600
 20
63.547831
 30
0.0
 10
227.047775
 20
64.965362
 30
0.0
 10
226.304996
 20
65.695679
 30
0.0
 10
225.869141
 20
65.919201
 30
0.0
 10
225.709672
 20
66.000983
 30
0.0
 11
244.572818
 21
41.982003
 31
0.0
 11
242.482337
 21
44.942765
 31
0.0
 11
240.028827
 21
48.325776
 31
0.0
 11
237.187356
 21
52.181218
 31
0.0
 11
233.180333
 21
57.528846
 31
0.0
 11
230.168975
 21
61.392844
 31
0.0
 11
228.000171
 21
63.953023
 31
0.0
 11
226.876291
 21
65.129320
 31
0.0
 11
226.176820
 21
65.739263
 31
0.0
 11
225.709672
 21
66.000983
 31
0.0
  0
LWPOLYLINE
  5
14a
100
AcDbEntity
  8
Layer_1
 62
7
100
AcDbPolyline
 90
2
 70
0
 10
268.234930
 20
107.108549
 30
0.0
 10
268.234978
 20
107.108535
 30
0.0
  0
LWPOLYLINE
  5
14b
100
AcDbEntity
  8
Layer_1
 62
7
100
AcDbPolyline
 90
2
 70
0
 10
211.860731
 20
42.816111
 30
0.0
 10
244.572818
 20
41.982003
 30
0.0
  0
SPLINE
  5
14c
100
AcDbEntity
  8
Layer_1
 62
7
100
AcDbSpline
 70
0
 71
3
 72
13
 73
9
 74
7
 40
0.000000
 40
0.000000
 40
0.000000
 40
0.000000
 40
0.560766
 40
1.561779
 40
3.067067
 40
8.334076
 40
16.255011
 40
27.088160
 40
27.088160
 40
27.088160
 40
27.088160
 10
225.709672
 20
66.000983
 30
0.0
 10
225.567221
 20
65.879766
 30
0.0
 10
225.170483
 20
65.542167
 30
0.0
 10
224.484002
 20
64.780636
 30
0.0
 10
222.893678
 20
62.733909
 30
0.0
 10
220.334360
 20
58.544673
 30
0.0
 10
216.427398
 20
51.559607
 30
0.0
 10
213.532783
 20
46.017478
 30
0.0
 10
211.860731
 20
42.816111
 30
0.0
 11
225.709672
 21
66.000983
 31
0.0
 11
225.288401
 21
65.630863
 31
0.0
 11
224.604560
 21
64.899843
 31
0.0
 11
223.673453
 21
63.717080
 31
0.0
 11
220.820897
 21
59.289404
 31
0.0
 11
216.928833
 21
52.390632
 31
0.0
 11
211.860731
 21
42.816111
 31
0.0
  0
LWPOLYLINE
  5
14d
100
AcDbEntity
  8
Layer_1
 62
7
100
AcDbPolyline
 90
3
 70
0
 10
258.061926
 20
177.681134
 30
0.0
 10
258.061926
 20
177.681134
 30
0.0
 10
227.207913
 20
183.092042
 30
0.0
  0
SPLINE
  5
14e
100
AcDbEntity
  8
Layer_1
 62
7
100
AcDbSpline
 70
0
 71
3
 72
19
 73
15
 74
13
 40
0.000000
 40
0.000000
 40
0.000000
 40
0.000000
 40
6.347255
 40
12.863170
 40
19.384790
 40
26.842299
 40
33.013320
 40
37.919273
 40
41.536394
 40
44.008078
 40
45.611784
 40
47.742825
 40
50.576647
 40
52.200390
 40
52.200390
 40
52.200390
 40
52.200390
 10
227.207913
 20
183.092042
 30
0.0
 10
227.115472
 20
180.978257
 30
0.0
 10
226.928131
 20
176.694519
 30
0.0
 10
226.797527
 20
170.233586
 30
0.0
 10
226.807711
 20
163.401340
 30
0.0
 10
227.069100
 20
156.686599
 30
0.0
 10
227.699260
 20
150.535016
 30
0.0
 10
228.612669
 20
145.715295
 30
0.0
 10
229.778551
 20
142.219610
 30
0.0
 10
231.030839
 20
139.971216
 30
0.0
 10
232.533209
 20
138.455257
 30
0.0
 10
234.742744
 20
137.985063
 30
0.0
 10
236.852874
 20
137.455531
 30
0.0
 10
238.326337
 20
137.242901
 30
0.0
 10
238.863070
 20
137.165447
 30
0.0
 11
227.207913
 21
183.092042
 31
0.0
 11
226.955101
 21
176.749823
 31
0.0
 11
226.821124
 21
170.235287
 31
0.0
 11
226.845201
 21
163.713710
 31
0.0
 11
227.171595
 21
156.263348
 31
0.0
 11
227.839091
 21
150.128533
 31
0.0
 11
228.816693
 21
145.320969
 31
0.0
 11
230.021964
 21
141.910562
 31
0.0
 11
231.290975
 21
139.789516
 31
0.0
 11
232.470506
 21
138.702971
 31
0.0
 11
234.491607
 21
138.027331
 31
0.0
 11
237.258953
 21
137.417132
 31
0.0
 11
238.863070
 21
137.165447
 31
0.0
  0
LWPOLYLINE
  5
14f
100
AcDbEntity
  8
Layer_1
 62
7
100
AcDbPolyline
 90
2
 70
0
 10
232.470506
 20
138.702971
 30
0.0
 10
232.470506
 20
138.702971
 30
0.0
  0
SPLINE
  5
150
100
AcDbEntity
  8
Layer_1
 62
7
100
AcDbSpline
 70
0
 71
3
 72
19
 73
15
 74
13
 40
0.000000
 40
0.000000
 40
0.000000
 40
0.000000
 40
0.044870
 40
0.137879
 40
0.335127
 40
1.330412
 40
2.918351
 40
5.118199
 40
11.459458
 40
20.734113
 40
33.380858
 40
37.296310
 40
41.129228
 40
44.930961
 40
44.930961
 40
44.930961
 40
44.930961
 10
238.863070
 20
137.165447
 30
0.0
 10
238.872846
 20
137.176769
 30
0.0
 10
238.902885
 20
137.211561
 30
0.0
 10
238.980624
 20
137.291846
 30
0.0
 10
239.281621
 20
137.596867
 30
0.0
 10
239.862689
 20
138.322335
 30
0.0
 10
240.752974
 20
139.645777
 30
0.0
 10
242.459734
 20
142.561369
 30
0.0
 10
245.080992
 20
147.895304
 30
0.0
 10
248.981733
 20
156.469621
 30
0.0
 10
252.425400
 20
164.364295
 30
0.0
 10
255.100309
 20
170.614290
 30
0.0
 10
256.590175
 20
174.164397
 30
0.0
 10
257.572326
 20
176.512119
 30
0.0
 10
258.061395
 20
177.681184
 30
0.0
 11
238.863070
 21
137.165447
 31
0.0
 11
238.892603
 21
137.199228
 31
0.0
 11
238.956509
 21
137.266805
 31
0.0
 11
239.093948
 21
137.408288
 31
0.0
 11
239.730073
 21
138.173753
 31
0.0
 11
240.627341
 21
139.483890
 31
0.0
 11
241.749792
 21
141.375830
 31
0.0
 11
244.625929
 21
147.027325
 31
0.0
 11
248.497756
 21
155.455148
 31
0.0
 11
253.568575
 21
167.040783
 31
0.0
 11
255.106855
 21
170.641402
 31
0.0
 11
256.593528
 21
174.174257
 31
0.0
 11
258.061395
 21
177.681184
 31
0.0
  0
LWPOLYLINE
  5
151
100
AcDbEntity
  8
Layer_1
 62
7
100
AcDbPolyline
 90
2
 70
0
 10
258.061395
 20
177.681184
 30
0.0
 10
258.061926
 20
177.681134
 30
0.0
  0
SPLINE
  5
152
100
AcDbEntity
  8
Layer_1
 62
7
100
AcDbSpline
 70
0
 71
3
 72
43
 73
39
 74
37
 40
0.000000
 40
0.000000
 40
0.000000
 40
0.000000
 40
4.329959
 40
8.969619
 40
13.571314
 40
17.830170
 40
21.308645
 40
23.459190
 40
27.765962
 40
30.796333
 40
33.064823
 40
35.460917
 40
38.813859
 40
43.529460
 40
51.774699
 40
62.861944
 40
72.576202
 40
74.978053
 40
76.784661
 40
78.041006
 40
78.849070
 40
79.470274
 40
80.220984
 40
80.624351
 40
81.752571
 40
83.329213
 40
85.179976
 40
87.267281
 40
89.523386
 40
94.293796
 40
98.996650
 40
103.127529
 40
111.615458
 40
124.510648
 40
140.271164
 40
145.424963
 40
149.974185
 40
153.936442
 40
153.936442
 40
153.936442
 40
153.936442
 10
219.115502
 20
91.272456
 30
0.0
 10
219.242207
 20
92.710260
 30
0.0
 10
219.504681
 20
95.688707
 30
0.0
 10
219.782222
 20
100.204370
 30
0.0
 10
219.995109
 20
104.699609
 30
0.0
 10
220.086384
 20
108.812163
 30
0.0
 10
220.081497
 20
112.108218
 30
0.0
 10
219.939634
 20
115.419779
 30
0.0
 10
219.350263
 20
118.543857
 30
0.0
 10
218.214723
 20
121.572193
 30
0.0
 10
216.516472
 20
123.583618
 30
0.0
 10
214.038472
 20
124.739065
 30
0.0
 10
210.563983
 20
125.259277
 30
0.0
 10
205.109334
 20
125.123548
 30
0.0
 10
197.183493
 20
123.838020
 30
0.0
 10
187.674503
 20
122.055943
 30
0.0
 10
180.096533
 20
120.445639
 30
0.0
 10
175.659977
 20
119.078476
 30
0.0
 10
173.971346
 20
118.377899
 30
0.0
 10
172.862369
 20
117.716416
 30
0.0
 10
172.151822
 20
117.156378
 30
0.0
 10
171.744968
 20
116.543220
 30
0.0
 10
171.558102
 20
115.971865
 30
0.0
 10
171.486849
 20
115.213763
 30
0.0
 10
171.363381
 20
114.185230
 30
0.0
 10
171.272901
 20
112.668302
 30
0.0
 10
171.231407
 20
110.830531
 30
0.0
 10
171.221225
 20
108.765687
 30
0.0
 10
171.259814
 20
105.727885
 30
0.0
 10
171.401049
 20
101.819967
 30
0.0
 10
171.690127
 20
97.294130
 30
0.0
 10
172.264919
 20
91.545748
 30
0.0
 10
173.866561
 20
83.184095
 30
0.0
 10
176.409294
 20
71.070675
 30
0.0
 10
178.899340
 20
60.076618
 30
0.0
 10
180.956810
 20
51.841828
 30
0.0
 10
182.215326
 20
47.461584
 30
0.0
 10
183.153340
 20
44.783497
 30
0.0
 10
183.590003
 20
43.536797
 30
0.0
 11
219.115502
 21
91.272456
 31
0.0
 11
219.477200
 21
95.587282
 31
0.0
 11
219.772094
 21
100.217561
 31
0.0
 11
219.980507
 21
104.814534
 31
0.0
 11
220.073657
 21
109.072370
 31
0.0
 11
220.051212
 21
112.550773
 31
0.0
 11
219.936156
 21
114.698238
 31
0.0
 11
219.129162
 21
118.928728
 31
0.0
 11
217.947053
 21
121.719027
 31
0.0
 11
216.447136
 21
123.420878
 31
0.0
 11
214.311290
 21
124.506893
 31
0.0
 11
211.013161
 21
125.110680
 31
0.0
 11
206.297691
 21
125.075473
 31
0.0
 11
198.127957
 21
123.962179
 31
0.0
 11
187.229634
 21
121.924150
 31
0.0
 11
177.770169
 21
119.713875
 31
0.0
 11
175.483533
 21
118.978900
 31
0.0
 11
173.825310
 21
118.261874
 31
0.0
 11
172.750694
 21
117.611025
 31
0.0
 11
172.137992
 21
117.084182
 31
0.0
 11
171.792027
 21
116.568234
 31
0.0
 11
171.557696
 21
115.855033
 31
0.0
 11
171.508575
 21
115.454668
 31
0.0
 11
171.390541
 21
114.332641
 31
0.0
 11
171.287293
 21
112.759383
 31
0.0
 11
171.238302
 21
110.909268
 31
0.0
 11
171.227399
 21
108.821992
 31
0.0
 11
171.254824
 21
106.566053
 31
0.0
 11
171.423982
 21
101.798643
 31
0.0
 11
171.732160
 21
97.105897
 31
0.0
 11
172.160353
 21
92.997271
 31
0.0
 11
173.609038
 21
84.633884
 31
0.0
 11
176.243275
 21
72.010623
 31
0.0
 11
179.765452
 21
56.648717
 31
0.0
 11
181.036580
 21
51.654132
 31
0.0
 11
182.313417
 21
47.287771
 31
0.0
 11
183.590003
 21
43.536797
 31
0.0
  0
LWPOLYLINE
  5
153
100
AcDbEntity
  8
Layer_1
 62
7
100
AcDbPolyline
 90
2
 70
0
 10
183.590003
 20
43.536797
 30
0.0
 10
198.745365
 20
43.150474
 30
0.0
  0
SPLINE
  5
154
100
AcDbEntity
  8
Layer_1
 62
7
100
AcDbSpline
 70
0
 71
3
 72
16
 73
12
 74
10
 40
0.000000
 40
0.000000
 40
0.000000
 40
0.000000
 40
4.321358
 40
9.384399
 40
15.357909
 40
29.937493
 40
38.946068
 40
46.491926
 40
48.023141
 40
50.148871
 40
52.699103
 40
52.699103
 40
52.699103
 40
52.699103
 10
198.745365
 20
43.150474
 30
0.0
 10
199.505380
 20
44.374242
 30
0.0
 10
201.155853
 20
47.031817
 30
0.0
 10
203.677249
 20
51.488733
 30
0.0
 10
207.675273
 20
59.034123
 30
0.0
 10
212.209430
 20
67.780327
 30
0.0
 10
216.427408
 20
77.287370
 30
0.0
 10
217.973330
 20
83.143098
 30
0.0
 10
218.608906
 20
86.823101
 30
0.0
 10
218.869767
 20
88.876341
 30
0.0
 10
219.028771
 20
90.426831
 30
0.0
 10
219.115490
 20
91.272456
 30
0.0
 11
198.745365
 21
43.150474
 31
0.0
 11
201.002131
 21
46.835733
 31
0.0
 11
203.508955
 21
51.234622
 31
0.0
 11
206.327406
 21
56.501419
 31
0.0
 11
212.902590
 21
69.514153
 31
0.0
 11
216.380459
 21
77.824318
 31
0.0
 11
218.307138
 21
85.120062
 31
0.0
 11
218.565747
 21
86.629281
 31
0.0
 11
218.844176
 21
88.736697
 31
0.0
 11
219.115490
 21
91.272456
 31
0.0
  0
LWPOLYLINE
  5
155
100
AcDbEntity
  8
Layer_1
 62
7
100
AcDbPolyline
 90
2
 70
0
 10
219.115490
 20
91.272456
 30
0.0
 10
219.115502
 20
91.272456
 30
0.0
  0
SPLINE
  5
156
100
AcDbEntity
  8
Layer_1
 62
7
100
AcDbSpline
 70
0
 71
3
 72
13
 73
9
 74
7
 40
0.000000
 40
0.000000
 40
0.000000
 40
0.000000
 40
2.979827
 40
6.318581
 40
10.025435
 40
17.726306
 40
24.489891
 40
30.487496
 40
30.487496
 40
30.487496
 40
30.487496
 10
214.316623
 20
154.675784
 30
0.0
 10
214.406437
 20
155.665028
 30
0.0
 10
214.596882
 20
157.762672
 30
0.0
 10
214.807730
 20
161.098216
 30
0.0
 10
215.036105
 20
166.008447
 30
0.0
 10
215.252908
 20
172.061765
 30
0.0
 10
215.462566
 20
178.879323
 30
0.0
 10
215.544045
 20
183.132306
 30
0.0
 10
215.582339
 20
185.131157
 30
0.0
 11
214.316623
 21
154.675784
 31
0.0
 11
214.573263
 21
157.644539
 31
0.0
 11
214.791216
 21
160.976170
 31
0.0
 11
214.969968
 21
164.678713
 31
0.0
 11
215.257183
 21
172.374225
 31
0.0
 11
215.456572
 21
179.134871
 31
0.0
 11
215.582339
 21
185.131157
 31
0.0
  0
LWPOLYLINE
  5
157
100
AcDbEntity
  8
Layer_1
 62
7
100
AcDbPolyline
 90
2
 70
0
 10
215.582339
 20
185.131157
 30
0.0
 10
186.213434
 20
190.281281
 30
0.0
  0
SPLINE
  5
158
100
AcDbEntity
  8
Layer_1
 62
7
100
AcDbSpline
 70
0
 71
3
 72
34
 73
30
 74
28
 40
0.000000
 40
0.000000
 40
0.000000
 40
0.000000
 40
16.968776
 40
33.556392
 40
45.710899
 40
49.767070
 40
53.351744
 40
56.380167
 40
58.751242
 40
60.293609
 40
60.762103
 40
61.978892
 40
64.434507
 40
67.388059
 40
69.557649
 40
72.670847
 40
77.898846
 40
84.601902
 40
91.049583
 40
96.957917
 40
102.095003
 40
106.055273
 40
108.293902
 40
111.420100
 40
114.206469
 40
116.106756
 40
118.402746
 40
121.648533
 40
125.845531
 40
125.845531
 40
125.845531
 40
125.845531
 10
186.213434
 20
190.281281
 30
0.0
 10
183.304844
 20
185.428887
 30
0.0
 10
177.552999
 20
175.833095
 30
0.0
 10
170.244070
 20
162.468820
 30
0.0
 10
165.202879
 20
152.746149
 30
0.0
 10
162.794311
 20
146.599606
 30
0.0
 10
161.701442
 20
143.209055
 30
0.0
 10
160.985653
 20
140.308702
 30
0.0
 10
160.661172
 20
137.983721
 30
0.0
 10
160.784419
 20
136.555525
 30
0.0
 10
160.727073
 20
135.425787
 30
0.0
 10
162.149838
 20
134.663354
 30
0.0
 10
163.816525
 20
133.420186
 30
0.0
 10
166.321509
 20
132.616344
 30
0.0
 10
169.062619
 20
132.453736
 30
0.0
 10
172.558737
 20
132.845887
 30
0.0
 10
177.497748
 20
133.686238
 30
0.0
 10
183.526512
 20
134.786014
 30
0.0
 10
189.759202
 20
136.016251
 30
0.0
 10
195.463104
 20
137.225419
 30
0.0
 10
200.338187
 20
138.356026
 30
0.0
 10
203.984285
 20
139.332893
 30
0.0
 10
206.991847
 20
140.156453
 30
0.0
 10
209.370930
 20
141.543709
 30
0.0
 10
211.335773
 20
143.263938
 30
0.0
 10
212.736382
 20
145.177844
 30
0.0
 10
213.255921
 20
147.643584
 30
0.0
 10
213.900715
 20
150.811204
 30
0.0
 10
214.166658
 20
153.282318
 30
0.0
 10
214.316623
 20
154.675784
 30
0.0
 11
186.213434
 21
190.281281
 31
0.0
 11
177.586461
 21
175.669139
 31
0.0
 11
169.594514
 21
161.133741
 31
0.0
 11
164.250034
 21
150.217305
 31
0.0
 11
162.778375
 21
146.437524
 31
0.0
 11
161.688688
 21
143.022488
 31
0.0
 11
160.989213
 21
140.075951
 31
0.0
 11
160.729991
 21
137.719088
 31
0.0
 11
160.760330
 21
136.177020
 31
0.0
 11
160.787430
 21
135.709310
 31
0.0
 11
161.687081
 21
134.890040
 31
0.0
 11
163.779328
 21
133.604527
 31
0.0
 11
166.584511
 21
132.680179
 31
0.0
 11
168.748415
 21
132.523201
 31
0.0
 11
171.850285
 21
132.788539
 31
0.0
 11
177.012871
 21
133.612963
 31
0.0
 11
183.606833
 21
134.817385
 31
0.0
 11
189.932369
 21
136.066454
 31
0.0
 11
195.710841
 21
137.298396
 31
0.0
 11
200.711106
 21
138.476105
 31
0.0
 11
204.540269
 21
139.486674
 31
0.0
 11
206.676950
 21
140.154547
 31
0.0
 11
209.403369
 21
141.684173
 31
0.0
 11
211.474285
 21
143.548350
 31
0.0
 11
212.544474
 21
145.118633
 31
0.0
 11
213.186188
 21
147.323122
 31
0.0
 11
213.794596
 21
150.511377
 31
0.0
 11
214.316623
 21
154.675784
 31
0.0
  0
SPLINE
  5
159
100
AcDbEntity
  8
Layer_1
 62
7
100
AcDbSpline
 70
0
 71
3
 72
16
 73
12
 74
10
 40
0.000000
 40
0.000000
 40
0.000000
 40
0.000000
 40
2.828177
 40
5.758818
 40
9.110509
 40
23.695743
 40
31.600772
 40
35.412487
 40
35.968977
 40
36.396101
 40
36.738676
 40
36.738676
 40
36.738676
 40
36.738676
 10
171.090119
 20
43.854565
 30
0.0
 10
170.899400
 20
44.777791
 30
0.0
 10
170.511054
 20
46.657691
 30
0.0
 10
169.894898
 20
49.631470
 30
0.0
 10
168.392770
 20
56.422730
 30
0.0
 10
166.446927
 20
64.822724
 30
0.0
 10
164.267059
 20
73.297494
 30
0.0
 10
162.888701
 20
77.186407
 30
0.0
 10
162.059990
 20
78.555300
 30
0.0
 10
161.805170
 20
78.916891
 30
0.0
 10
161.646092
 20
79.118223
 30
0.0
 10
161.575290
 20
79.207831
 30
0.0
 11
171.090119
 21
43.854565
 31
0.0
 11
170.517691
 21
46.624206
 31
0.0
 11
169.917424
 21
49.492714
 31
0.0
 11
169.199329
 21
52.766575
 31
0.0
 11
165.872219
 21
66.967258
 31
0.0
 11
163.770864
 21
74.587874
 31
0.0
 11
162.321855
 21
78.113430
 31
0.0
 11
162.031548
 21
78.588196
 31
0.0
 11
161.785480
 21
78.937317
 31
0.0
 11
161.575290
 21
79.207831
 31
0.0
  0
LWPOLYLINE
  5
15a
100
AcDbEntity
  8
Layer_1
 62
7
100
AcDbPolyline
 90
2
 70
0
 10
214.316623
 20
154.675784
 30
0.0
 10
214.316623
 20
154.675784
 30
0.0
  0
LWPOLYLINE
  5
15b
100
AcDbEntity
  8
Layer_1
 62
7
100
AcDbPolyline
 90
2
 70
0
 10
130.721887
 20
44.883846
 30
0.0
 10
171.090119
 20
43.854565
 30
0.0
  0
SPLINE
  5
15c
100
AcDbEntity
  8
Layer_1
 62
7
100
AcDbSpline
 70
0
 71
3
 72
16
 73
12
 74
10
 40
0.000000
 40
0.000000
 40
0.000000
 40
0.000000
 40
3.394634
 40
9.799316
 40
19.277489
 40
30.000033
 40
36.757591
 40
41.281204
 40
43.119882
 40
44.668634
 40
47.029509
 40
47.029509
 40
47.029509
 40
47.029509
 10
161.575290
 20
79.207831
 30
0.0
 10
160.635593
 20
78.575636
 30
0.0
 10
157.922961
 20
76.750673
 30
0.0
 10
153.166302
 20
72.403299
 30
0.0
 10
146.706218
 20
66.335795
 30
0.0
 10
140.338338
 20
60.000496
 30
0.0
 10
135.278818
 20
54.664664
 30
0.0
 10
132.718558
 20
51.121731
 30
0.0
 10
131.340100
 20
48.848653
 30
0.0
 10
130.880748
 20
46.968245
 30
0.0
 10
130.781699
 20
45.668633
 30
0.0
 10
130.721887
 20
44.883846
 30
0.0
 11
161.575290
 21
79.207831
 31
0.0
 11
158.791561
 21
77.265051
 31
0.0
 11
153.934841
 21
73.089860
 31
0.0
 11
147.037710
 21
66.588680
 31
0.0
 11
139.443019
 21
59.019425
 31
0.0
 11
134.905993
 21
54.011433
 31
0.0
 11
132.261827
 21
50.341084
 31
0.0
 11
131.383729
 21
48.725633
 31
0.0
 11
130.979129
 21
47.230665
 31
0.0
 11
130.721887
 21
44.883846
 31
0.0
  0
SPLINE
  5
15d
100
AcDbEntity
  8
Layer_1
 62
7
100
AcDbSpline
 70
0
 71
3
 72
13
 73
9
 74
7
 40
0.000000
 40
0.000000
 40
0.000000
 40
0.000000
 40
11.085419
 40
22.796760
 40
33.446265
 40
35.198684
 40
36.707798
 40
38.004663
 40
38.004663
 40
38.004663
 40
38.004663
 10
149.271166
 20
196.760030
 30
0.0
 10
149.675320
 20
193.086744
 30
0.0
 10
150.506449
 20
185.532766
 30
0.0
 10
152.089642
 20
174.496820
 30
0.0
 10
153.336360
 20
166.552723
 30
0.0
 10
154.297376
 20
162.015039
 30
0.0
 10
154.702147
 20
160.549416
 30
0.0
 10
154.995533
 20
159.661229
 30
0.0
 10
155.131129
 20
159.250727
 30
0.0
 11
149.271166
 21
196.760030
 31
0.0
 11
150.542263
 21
185.747727
 31
0.0
 11
152.166691
 21
174.149592
 31
0.0
 11
153.955301
 21
163.651362
 31
0.0
 11
154.332746
 21
161.940073
 31
0.0
 11
154.733786
 21
160.485222
 31
0.0
 11
155.131129
 21
159.250727
 31
0.0
  0
LWPOLYLINE
  5
15e
100
AcDbEntity
  8
Layer_1
 62
7
100
AcDbPolyline
 90
2
 70
0
 10
175.329943
 20
192.190330
 30
0.0
 10
149.271166
 20
196.760030
 30
0.0
  0
SPLINE
  5
15f
100
AcDbEntity
  8
Layer_1
 62
7
100
AcDbSpline
 70
0
 71
3
 72
16
 73
12
 74
10
 40
0.000000
 40
0.000000
 40
0.000000
 40
0.000000
 40
2.243396
 40
5.498572
 40
9.774258
 40
16.498181
 40
24.367376
 40
33.231755
 40
35.240165
 40
36.942826
 40
38.659302
 40
38.659302
 40
38.659302
 40
38.659302
 10
155.131129
 20
159.250727
 30
0.0
 10
155.576130
 20
159.851763
 30
0.0
 10
156.666830
 20
161.324905
 30
0.0
 10
158.504521
 20
164.016241
 30
0.0
 10
161.083222
 20
168.007539
 30
0.0
 10
164.372717
 20
173.368930
 30
0.0
 10
168.380813
 20
180.082726
 30
0.0
 10
171.527207
 20
185.480093
 30
0.0
 10
173.607487
 20
189.119336
 30
0.0
 10
174.489898
 20
190.698746
 30
0.0
 10
175.049175
 20
191.691798
 30
0.0
 10
175.329943
 20
192.190330
 30
0.0
 11
155.131129
 21
159.250727
 31
0.0
 11
156.456662
 21
161.060641
 31
0.0
 11
158.302644
 21
163.741783
 31
0.0
 11
160.629422
 21
167.328926
 31
0.0
 11
164.162309
 21
173.049927
 31
0.0
 11
168.199717
 21
179.804449
 31
0.0
 11
172.660437
 21
187.464683
 31
0.0
 11
173.654974
 21
189.209563
 31
0.0
 11
174.488493
 21
190.694252
 31
0.0
 11
175.329943
 21
192.190330
 31
0.0
  0
SPLINE
  5
160
100
AcDbEntity
  8
Layer_1
 62
7
100
AcDbSpline
 70
0
 71
3
 72
40
 73
36
 74
34
 40
0.000000
 40
0.000000
 40
0.000000
 40
0.000000
 40
0.714364
 40
1.577515
 40
2.613896
 40
6.056645
 40
9.972285
 40
13.939275
 40
17.677636
 40
20.543311
 40
21.550780
 40
22.638735
 40
24.806563
 40
28.662749
 40
30.832380
 40
32.032509
 40
34.551753
 40
38.385682
 40
45.545874
 40
54.280635
 40
63.127067
 40
70.785945
 40
75.751687
 40
79.947896
 40
83.278046
 40
85.830506
 40
87.725738
 40
89.242043
 40
90.731560
 40
91.774434
 40
94.215134
 40
97.154254
 40
101.967981
 40
106.158256
 40
111.865684
 40
111.865684
 40
111.865684
 40
111.865684
 10
158.625314
 20
98.441710
 30
0.0
 10
158.649746
 20
98.678577
 30
0.0
 10
158.703698
 20
99.201645
 30
0.0
 10
158.783149
 20
100.069320
 30
0.0
 10
158.956308
 20
101.841687
 30
0.0
 10
159.121274
 20
104.636240
 30
0.0
 10
159.175411
 20
108.413153
 30
0.0
 10
159.105828
 20
112.281691
 30
0.0
 10
158.909709
 20
115.817971
 30
0.0
 10
158.441833
 20
118.290051
 30
0.0
 10
158.441863
 20
119.996297
 30
0.0
 10
157.511543
 20
121.159901
 30
0.0
 10
155.582755
 20
122.536127
 30
0.0
 10
153.084010
 20
123.645278
 30
0.0
 10
150.983208
 20
124.892746
 30
0.0
 10
149.013106
 20
125.175931
 30
0.0
 10
146.503349
 20
124.845047
 30
0.0
 10
142.030434
 20
124.376247
 30
0.0
 10
135.520471
 20
123.405774
 30
0.0
 10
127.366674
 20
122.182508
 30
0.0
 10
119.064515
 20
120.811741
 30
0.0
 10
112.015776
 20
119.577261
 30
0.0
 10
106.503006
 20
118.540370
 30
0.0
 10
102.471414
 20
117.489926
 30
0.0
 10
99.271070
 20
116.451624
 30
0.0
 10
96.901604
 20
115.392316
 30
0.0
 10
95.191706
 20
114.350264
 30
0.0
 10
94.022113
 20
113.201064
 30
0.0
 10
93.234105
 20
112.073896
 30
0.0
 10
92.803387
 20
110.462548
 30
0.0
 10
92.171963
 20
108.420374
 30
0.0
 10
91.482645
 20
105.090665
 30
0.0
 10
90.899392
 20
101.127779
 30
0.0
 10
91.450391
 20
96.205865
 30
0.0
 10
92.498648
 20
93.070826
 30
0.0
 10
93.103116
 20
91.263033
 30
0.0
 11
158.625314
 21
98.441710
 31
0.0
 11
158.697378
 21
99.152430
 31
0.0
 11
158.778674
 21
100.011744
 31
0.0
 11
158.875250
 21
101.043616
 31
0.0
 11
159.088028
 21
104.479783
 31
0.0
 11
159.154221
 21
108.394863
 31
0.0
 11
159.078797
 21
112.361136
 31
0.0
 11
158.802698
 21
116.089287
 31
0.0
 11
158.457955
 21
118.934151
 31
0.0
 11
158.336158
 21
119.934231
 31
0.0
 11
157.727929
 21
120.836285
 31
0.0
 11
156.014307
 21
122.164058
 31
0.0
 11
152.604795
 21
123.965555
 31
0.0
 11
150.640147
 21
124.886131
 31
0.0
 11
149.455279
 21
125.076913
 31
0.0
 11
146.941455
 21
124.911745
 31
0.0
 11
143.132800
 21
124.472256
 31
0.0
 11
136.041357
 21
123.482416
 31
0.0
 11
127.406225
 21
122.166908
 31
0.0
 11
118.676918
 21
120.732140
 31
0.0
 11
111.134227
 21
119.403145
 31
0.0
 11
106.264270
 21
118.432524
 31
0.0
 11
102.204074
 21
117.372814
 31
0.0
 11
99.048426
 21
116.308961
 31
0.0
 11
96.727662
 21
115.246367
 31
0.0
 11
95.133669
 21
114.221141
 31
0.0
 11
94.049383
 21
113.161186
 31
0.0
 11
93.241814
 21
111.909589
 31
0.0
 11
92.920799
 21
110.917352
 31
0.0
 11
92.254944
 21
108.569234
 31
0.0
 11
91.630345
 21
105.697249
 31
0.0
 11
91.091014
 21
100.913831
 31
0.0
 11
91.515007
 21
96.745061
 31
0.0
 11
93.103116
 21
91.263033
 31
0.0
  0
SPLINE
  5
161
100
AcDbEntity
  8
Layer_1
 62
7
100
AcDbSpline
 70
0
 71
3
 72
19
 73
15
 74
13
 40
0.000000
 40
0.000000
 40
0.000000
 40
0.000000
 40
1.918468
 40
3.563991
 40
5.816813
 40
9.409597
 40
14.798309
 40
22.431738
 40
32.502408
 40
38.498889
 40
41.031505
 40
41.542934
 40
41.867463
 40
42.051285
 40
42.051285
 40
42.051285
 40
42.051285
 10
93.103116
 20
91.263033
 30
0.0
 10
93.297813
 20
90.652995
 30
0.0
 10
93.659507
 20
89.519710
 30
0.0
 10
94.554259
 20
87.787724
 30
0.0
 10
96.082181
 20
85.803752
 30
0.0
 10
98.525931
 20
82.968069
 30
0.0
 10
102.310889
 20
78.921202
 30
0.0
 10
107.608266
 20
73.344600
 30
0.0
 10
113.138589
 20
67.669329
 30
0.0
 10
117.746321
 20
63.574853
 30
0.0
 10
120.107477
 20
61.624598
 30
0.0
 10
121.147560
 20
61.201024
 30
0.0
 10
121.451088
 20
61.041140
 30
0.0
 10
121.576628
 20
60.926659
 30
0.0
 10
121.622024
 20
60.885262
 30
0.0
 11
93.103116
 21
91.263033
 31
0.0
 11
93.741254
 21
89.453807
 31
0.0
 11
94.495672
 21
87.991411
 31
0.0
 11
95.820651
 21
86.169424
 31
0.0
 11
98.150044
 21
83.434095
 31
0.0
 11
101.803078
 21
79.472586
 31
0.0
 11
107.062163
 21
73.939840
 31
0.0
 11
114.180093
 21
66.815694
 31
0.0
 11
118.661106
 21
62.830933
 31
0.0
 11
120.735629
 21
61.378180
 31
0.0
 11
121.201788
 21
61.167811
 31
0.0
 11
121.482468
 21
61.004904
 31
0.0
 11
121.622024
 21
60.885262
 31
0.0
  0
LWPOLYLINE
  5
162
100
AcDbEntity
  8
Layer_1
 62
7
100
AcDbPolyline
 90
2
 70
0
 10
175.329943
 20
192.190330
 30
0.0
 10
175.329943
 20
192.190330
 30
0.0
  0
LWPOLYLINE
  5
163
100
AcDbEntity
  8
Layer_1
 62
7
100
AcDbPolyline
 90
2
 70
0
 10
158.625368
 20
98.441705
 30
0.0
 10
158.625314
 20
98.441710
 30
0.0
  0
SPLINE
  5
164
100
AcDbEntity
  8
Layer_1
 62
7
100
AcDbSpline
 70
0
 71
3
 72
19
 73
15
 74
13
 40
0.000000
 40
0.000000
 40
0.000000
 40
0.000000
 40
0.182938
 40
0.505317
 40
1.012555
 40
3.947370
 40
10.555503
 40
21.796772
 40
35.840749
 40
44.846357
 40
49.554472
 40
50.894951
 40
51.958501
 40
53.454448
 40
53.454448
 40
53.454448
 40
53.454448
 10
121.622024
 20
60.885262
 30
0.0
 10
121.671773
 20
60.920806
 30
0.0
 10
121.809191
 20
61.018985
 30
0.0
 10
122.127210
 20
61.140951
 30
0.0
 10
123.336799
 20
61.475558
 30
0.0
 10
126.159155
 20
63.407471
 30
0.0
 10
131.488653
 20
67.765325
 30
0.0
 10
139.217415
 20
75.112793
 30
0.0
 10
147.303430
 20
83.180470
 30
0.0
 10
153.657954
 20
89.905323
 30
0.0
 10
156.831202
 20
93.813659
 30
0.0
 10
158.041323
 20
95.859613
 30
0.0
 10
158.489543
 20
97.091181
 30
0.0
 10
158.575266
 20
97.943532
 30
0.0
 10
158.625368
 20
98.441705
 30
0.0
 11
121.622024
 21
60.885262
 31
0.0
 11
121.774061
 21
60.987003
 31
0.0
 11
122.070058
 21
61.114730
 31
0.0
 11
122.553741
 21
61.267504
 31
0.0
 11
125.105563
 21
62.717107
 31
0.0
 11
130.266154
 21
66.844542
 31
0.0
 11
138.505624
 21
74.491585
 31
0.0
 11
148.432653
 21
84.425737
 31
0.0
 11
154.534494
 21
91.049068
 31
0.0
 11
157.392127
 21
94.790762
 31
0.0
 11
158.047168
 21
95.960294
 31
0.0
 11
158.403858
 21
96.962248
 31
0.0
 11
158.625368
 21
98.441705
 31
0.0
  0
SPLINE
  5
165
100
AcDbEntity
  8
Layer_1
 62
7
100
AcDbSpline
 70
0
 71
3
 72
10
 73
6
 74
4
 40
0.000000
 40
0.000000
 40
0.000000
 40
0.000000
 40
0.621555
 40
1.294560
 40
2.021317
 40
2.021317
 40
2.021317
 40
2.021317
 10
142.647535
 20
148.200229
 30
0.0
 10
142.668868
 20
148.406312
 30
0.0
 10
142.713302
 20
148.835539
 30
0.0
 10
142.779540
 20
149.506051
 30
0.0
 10
142.823024
 20
149.970609
 30
0.0
 10
142.845601
 20
150.211807
 30
0.0
 11
142.647535
 21
148.200229
 31
0.0
 11
142.711073
 21
148.818527
 31
0.0
 11
142.777227
 21
149.488273
 31
0.0
 11
142.845601
 21
150.211807
 31
0.0
  0
LWPOLYLINE
  5
166
100
AcDbEntity
  8
Layer_1
 62
7
100
AcDbPolyline
 90
3
 70
0
 10
142.647475
 20
148.199664
 30
0.0
 10
142.647535
 20
148.200229
 30
0.0
 10
142.647535
 20
148.200229
 30
0.0
  0
SPLINE
  5
167
100
AcDbEntity
  8
Layer_1
 62
7
100
AcDbSpline
 70
0
 71
3
 72
13
 73
9
 74
7
 40
0.000000
 40
0.000000
 40
0.000000
 40
0.000000
 40
7.385595
 40
17.993478
 40
35.766614
 40
40.759315
 40
45.100330
 40
48.932898
 40
48.932898
 40
48.932898
 40
48.932898
 10
142.845601
 20
150.211807
 30
0.0
 10
142.976202
 20
152.673741
 30
0.0
 10
143.294385
 20
158.671736
 30
0.0
 10
141.911033
 20
170.552820
 30
0.0
 10
140.411006
 20
181.561706
 30
0.0
 10
139.093042
 20
190.501945
 30
0.0
 10
138.413260
 20
194.837739
 30
0.0
 10
137.952811
 20
197.523121
 30
0.0
 10
137.736907
 20
198.782288
 30
0.0
 11
142.845601
 21
150.211807
 31
0.0
 11
143.066549
 21
157.594096
 31
0.0
 11
142.163308
 21
168.163455
 31
0.0
 11
139.785584
 21
185.776825
 31
0.0
 11
139.053319
 21
190.715534
 31
0.0
 11
138.376165
 21
195.003409
 31
0.0
 11
137.736907
 21
198.782288
 31
0.0
  0
LWPOLYLINE
  5
168
100
AcDbEntity
  8
Layer_1
 62
7
100
AcDbPolyline
 90
2
 70
0
 10
137.736907
 20
198.782288
 30
0.0
 10
105.324188
 20
204.466303
 30
0.0
  0
SPLINE
  5
169
100
AcDbEntity
  8
Layer_1
 62
7
100
AcDbSpline
 70
0
 71
3
 72
28
 73
24
 74
22
 40
0.000000
 40
0.000000
 40
0.000000
 40
0.000000
 40
14.516045
 40
32.437337
 40
51.696908
 40
60.889400
 40
67.103696
 40
70.513254
 40
71.358572
 40
72.009630
 40
72.880127
 40
74.269565
 40
76.249992
 40
78.825676
 40
86.890571
 40
95.260520
 40
101.221127
 40
105.397237
 40
108.910374
 40
111.848537
 40
113.313223
 40
114.728656
 40
117.653225
 40
117.653225
 40
117.653225
 40
117.653225
 10
105.324188
 20
204.466303
 30
0.0
 10
104.799709
 20
199.655813
 30
0.0
 10
103.627717
 20
188.906363
 30
0.0
 10
102.443192
 20
171.709590
 30
0.0
 10
101.566594
 20
156.283170
 30
0.0
 10
101.382796
 20
144.709943
 30
0.0
 10
101.847317
 20
138.464665
 30
0.0
 10
102.577822
 20
135.000569
 30
0.0
 10
103.417484
 20
133.569854
 30
0.0
 10
104.055631
 20
133.075793
 30
0.0
 10
104.995265
 20
132.791860
 30
0.0
 10
106.387363
 20
132.546049
 30
0.0
 10
108.376114
 20
132.495474
 30
0.0
 10
112.576188
 20
132.739586
 30
0.0
 10
118.861628
 20
133.635825
 30
0.0
 10
126.193673
 20
134.984236
 30
0.0
 10
132.252723
 20
136.262055
 30
0.0
 10
136.453221
 20
138.066322
 30
0.0
 10
139.408306
 20
140.107010
 30
0.0
 10
141.044349
 20
142.197825
 30
0.0
 10
142.065191
 20
143.871219
 30
0.0
 10
142.441107
 20
145.791843
 30
0.0
 10
142.564682
 20
147.230306
 30
0.0
 10
142.647955
 20
148.199633
 30
0.0
 11
105.324188
 21
204.466303
 31
0.0
 11
103.836618
 21
190.026681
 31
0.0
 11
102.508493
 21
172.154669
 31
0.0
 11
101.553614
 21
152.918784
 31
0.0
 11
101.531487
 21
143.726319
 31
0.0
 11
102.097489
 21
137.537852
 31
0.0
 11
103.033723
 21
134.259354
 31
0.0
 11
103.497751
 21
133.552785
 31
0.0
 11
104.011280
 21
133.152578
 31
0.0
 11
104.829604
 21
132.855744
 31
0.0
 11
106.196893
 21
132.608645
 31
0.0
 11
108.175532
 21
132.524510
 31
0.0
 11
110.748120
 21
132.650749
 31
0.0
 11
118.747947
 21
133.673149
 31
0.0
 11
126.982509
 21
135.172502
 31
0.0
 11
132.768035
 21
136.606557
 31
0.0
 11
136.589946
 21
138.289676
 31
0.0
 11
139.431613
 21
140.355362
 31
0.0
 11
141.287664
 21
142.633054
 31
0.0
 11
141.991381
 21
143.917611
 31
0.0
 11
142.326623
 21
145.292770
 31
0.0
 11
142.647955
 21
148.199633
 31
0.0
  0
SPLINE
  5
16a
100
AcDbEntity
  8
Layer_1
 62
7
100
AcDbSpline
 70
0
 71
3
 72
19
 73
15
 74
13
 40
0.000000
 40
0.000000
 40
0.000000
 40
0.000000
 40
2.049380
 40
3.924713
 40
5.714196
 40
9.717064
 40
15.453725
 40
21.873908
 40
25.032104
 40
28.018056
 40
30.716002
 40
32.966296
 40
34.652831
 40
35.481537
 40
35.481537
 40
35.481537
 40
35.481537
 10
116.125690
 20
45.255874
 30
0.0
 10
115.839856
 20
45.876622
 30
0.0
 10
115.292463
 20
47.065399
 30
0.0
 10
114.344417
 20
48.720477
 30
0.0
 10
112.901018
 20
50.832862
 30
0.0
 10
110.400608
 20
53.758708
 30
0.0
 10
106.823112
 20
57.783016
 30
0.0
 10
103.330462
 20
61.508116
 30
0.0
 10
100.414836
 20
64.514663
 30
0.0
 10
98.336602
 20
66.604648
 30
0.0
 10
96.451126
 20
68.459653
 30
0.0
 10
94.829060
 20
69.963227
 30
0.0
 10
93.638862
 20
71.015982
 30
0.0
 10
92.988527
 20
71.545209
 30
0.0
 10
92.774259
 20
71.719575
 30
0.0
 11
116.125690
 21
45.255874
 31
0.0
 11
115.239897
 21
47.103936
 31
0.0
 11
114.308741
 21
48.731763
 31
0.0
 11
113.301845
 21
50.211090
 31
0.0
 11
110.769224
 21
53.310893
 31
0.0
 11
106.956377
 21
57.597090
 31
0.0
 11
102.569332
 21
62.284582
 31
0.0
 11
100.370024
 21
64.551132
 31
0.0
 11
98.264830
 21
66.668694
 31
0.0
 11
96.334684
 21
68.553753
 31
0.0
 11
94.684452
 21
70.083641
 31
0.0
 11
93.414659
 21
71.193609
 31
0.0
 11
92.774259
 21
71.719575
 31
0.0
  0
LWPOLYLINE
  5
16b
100
AcDbEntity
  8
Layer_1
 62
7
100
AcDbPolyline
 90
2
 70
0
 10
142.647955
 20
148.199633
 30
0.0
 10
142.647475
 20
148.199664
 30
0.0
  0
LWPOLYLINE
  5
16c
100
AcDbEntity
  8
Layer_1
 62
7
100
AcDbPolyline
 90
2
 70
0
 10
88.245611
 20
45.966346
 30
0.0
 10
116.125690
 20
45.255874
 30
0.0
  0
LWPOLYLINE
  5
16d
100
AcDbEntity
  8
Layer_1
 62
7
100
AcDbPolyline
 90
5
 70
0
 10
106.414720
 20
10.389136
 30
0.0
 10
106.303468
 20
16.130521
 30
0.0
 10
61.307813
 20
15.504741
 30
0.0
 10
61.419068
 20
9.763337
 30
0.0
 10
106.414720
 20
10.389136
 30
0.0
  0
SPLINE
  5
16e
100
AcDbEntity
  8
Layer_1
 62
7
100
AcDbSpline
 70
0
 71
3
 72
13
 73
9
 74
7
 40
0.000000
 40
0.000000
 40
0.000000
 40
0.000000
 40
1.472407
 40
3.589898
 40
6.416310
 40
11.208406
 40
18.140948
 40
26.178505
 40
26.178505
 40
26.178505
 40
26.178505
 10
92.774259
 20
71.719575
 30
0.0
 10
92.617614
 20
71.254259
 30
0.0
 10
92.235695
 20
70.119765
 30
0.0
 10
91.727845
 20
68.040161
 30
0.0
 10
91.037567
 20
64.869038
 30
0.0
 10
90.260812
 20
60.079203
 30
0.0
 10
89.291065
 20
53.564221
 30
0.0
 10
88.610833
 20
48.620608
 30
0.0
 10
88.245611
 20
45.966346
 30
0.0
 11
92.774259
 21
71.719575
 31
0.0
 11
92.320773
 21
70.318743
 31
0.0
 11
91.791438
 21
68.268481
 31
0.0
 11
91.195302
 21
65.505652
 31
0.0
 11
90.383515
 21
60.782815
 31
0.0
 11
89.356947
 21
53.926701
 31
0.0
 11
88.245611
 21
45.966346
 31
0.0
  0
LWPOLYLINE
  5
16f
100
AcDbEntity
  8
Layer_1
 62
7
100
AcDbPolyline
 90
2
 70
0
 10
90.028609
 20
161.100084
 30
0.0
 10
90.028660
 20
161.100649
 30
0.0
  0
SPLINE
  5
170
100
AcDbEntity
  8
Layer_1
 62
7
100
AcDbSpline
 70
0
 71
3
 72
10
 73
6
 74
4
 40
0.000000
 40
0.000000
 40
0.000000
 40
0.000000
 40
18.358074
 40
33.927136
 40
45.693814
 40
45.693814
 40
45.693814
 40
45.693814
 10
90.028660
 20
161.100649
 30
0.0
 10
90.584958
 20
167.194412
 30
0.0
 10
91.613040
 20
178.456155
 30
0.0
 10
92.548399
 20
193.667067
 30
0.0
 10
92.560095
 20
202.780498
 30
0.0
 10
92.565130
 20
206.703377
 30
0.0
 11
90.028660
 21
161.100649
 31
0.0
 11
91.599883
 21
179.391361
 31
0.0
 11
92.448513
 21
194.937277
 31
0.0
 11
92.565130
 21
206.703377
 31
0.0
  0
SPLINE
  5
171
100
AcDbEntity
  8
Layer_1
 62
7
100
AcDbSpline
 70
0
 71
3
 72
22
 73
18
 74
16
 40
0.000000
 40
0.000000
 40
0.000000
 40
0.000000
 40
9.751132
 40
23.794095
 40
42.509205
 40
52.857729
 40
60.135259
 40
64.944876
 40
68.334996
 40
71.824071
 40
76.743682
 40
84.036399
 40
89.331813
 40
92.455543
 40
93.071004
 40
93.455361
 40
93.650037
 40
93.650037
 40
93.650037
 40
93.650037
 10
58.208872
 20
212.728858
 30
0.0
 10
57.988399
 20
209.485334
 30
0.0
 10
57.450414
 20
201.570691
 30
0.0
 10
57.386326
 20
187.393944
 30
0.0
 10
57.506659
 20
173.027748
 30
0.0
 10
57.815101
 20
160.915701
 30
0.0
 10
58.359037
 20
153.453097
 30
0.0
 10
59.295698
 20
148.357117
 30
0.0
 10
60.983441
 20
144.763260
 30
0.0
 10
63.916798
 20
142.052407
 30
0.0
 10
68.302270
 20
139.208772
 30
0.0
 10
73.311371
 20
136.181700
 30
0.0
 10
78.043363
 20
133.963481
 30
0.0
 10
80.928075
 20
132.963422
 30
0.0
 10
82.301069
 20
132.864336
 30
0.0
 10
82.698771
 20
132.844064
 30
0.0
 10
82.891809
 20
132.844722
 30
0.0
 10
82.956710
 20
132.844944
 30
0.0
 11
58.208872
 21
212.728858
 31
0.0
 11
57.631780
 21
202.994818
 31
0.0
 11
57.419251
 21
188.953463
 31
0.0
 11
57.598657
 21
170.239213
 31
0.0
 11
57.936901
 21
159.896218
 31
0.0
 11
58.577813
 21
152.646965
 31
0.0
 11
59.618214
 21
147.951224
 31
0.0
 11
61.143280
 21
144.923504
 31
0.0
 11
63.605577
 21
142.451514
 31
0.0
 11
67.652934
 21
139.654825
 31
0.0
 11
73.946465
 21
135.970373
 31
0.0
 11
78.757777
 21
133.758429
 31
0.0
 11
81.764624
 21
132.911929
 31
0.0
 11
82.378011
 21
132.861457
 31
0.0
 11
82.762036
 21
132.845465
 31
0.0
 11
82.956710
 21
132.844944
 31
0.0
  0
LWPOLYLINE
  5
172
100
AcDbEntity
  8
Layer_1
 62
7
100
AcDbPolyline
 90
2
 70
0
 10
92.565130
 20
206.703377
 30
0.0
 10
58.208872
 20
212.728858
 30
0.0
  0
LWPOLYLINE
  5
173
100
AcDbEntity
  8
Layer_1
 62
7
100
AcDbPolyline
 90
2
 70
0
 10
90.028607
 20
161.100101
 30
0.0
 10
90.028609
 20
161.100084
 30
0.0
  0
SPLINE
  5
174
100
AcDbEntity
  8
Layer_1
 62
7
100
AcDbSpline
 70
0
 71
3
 72
16
 73
12
 74
10
 40
0.000000
 40
0.000000
 40
0.000000
 40
0.000000
 40
0.132463
 40
0.360451
 40
0.709418
 40
2.413854
 40
4.641376
 40
8.111199
 40
13.303001
 40
20.427817
 40
29.751039
 40
29.751039
 40
29.751039
 40
29.751039
 10
82.956710
 20
132.844944
 30
0.0
 10
82.993339
 20
132.869603
 30
0.0
 10
83.093012
 20
132.936705
 30
0.0
 10
83.284133
 20
133.076096
 30
0.0
 10
83.892262
 20
133.531822
 30
0.0
 10
84.942990
 20
134.528257
 30
0.0
 10
86.065943
 20
136.764049
 30
0.0
 10
87.110942
 20
140.242243
 30
0.0
 10
88.145345
 20
145.409402
 30
0.0
 10
89.137181
 20
152.555478
 30
0.0
 10
89.706117
 20
158.008928
 30
0.0
 10
90.028607
 20
161.100101
 30
0.0
 11
82.956710
 21
132.844944
 31
0.0
 11
83.066251
 21
132.919425
 31
0.0
 11
83.251284
 21
133.052620
 31
0.0
 11
83.529695
 21
133.263013
 31
0.0
 11
84.745350
 21
134.457704
 31
0.0
 11
85.828919
 21
136.403915
 31
0.0
 11
86.903374
 21
139.703189
 31
0.0
 11
87.975591
 21
144.783067
 31
0.0
 11
89.001718
 21
151.833603
 31
0.0
 11
90.028607
 21
161.100101
 31
0.0
  0
SPLINE
  5
175
100
AcDbEntity
  8
Layer_1
 62
7
100
AcDbSpline
 70
0
 71
3
 72
13
 73
9
 74
7
 40
0.000000
 40
0.000000
 40
0.000000
 40
0.000000
 40
6.367334
 40
9.819659
 40
13.079055
 40
13.586082
 40
14.077155
 40
14.580253
 40
14.580253
 40
14.580253
 40
14.580253
 10
80.401640
 20
75.446994
 30
0.0
 10
80.626979
 20
77.555802
 30
0.0
 10
80.974496
 20
80.807991
 30
0.0
 10
81.164341
 20
85.182534
 30
0.0
 10
80.737848
 20
87.564135
 30
0.0
 10
80.444525
 20
88.952627
 30
0.0
 10
80.311455
 20
89.435208
 30
0.0
 10
80.228660
 20
89.756070
 30
0.0
 10
80.186761
 20
89.918441
 30
0.0
 11
80.401640
 21
75.446994
 31
0.0
 11
80.991472
 21
81.786951
 31
0.0
 11
81.036450
 21
85.238983
 31
0.0
 11
80.547551
 21
88.461503
 31
0.0
 11
80.438339
 21
88.956628
 31
0.0
 11
80.313821
 21
89.431653
 31
0.0
 11
80.186761
 21
89.918441
 31
0.0
  0
LWPOLYLINE
  5
176
100
AcDbEntity
  8
Layer_1
 62
7
100
AcDbPolyline
 90
2
 70
0
 10
80.401583
 20
75.446430
 30
0.0
 10
80.401640
 20
75.446994
 30
0.0
  0
SPLINE
  5
177
100
AcDbEntity
  8
Layer_1
 62
7
100
AcDbSpline
 70
0
 71
3
 72
19
 73
15
 74
13
 40
0.000000
 40
0.000000
 40
0.000000
 40
0.000000
 40
4.789768
 40
13.249665
 40
26.634323
 40
36.149131
 40
43.535019
 40
49.130925
 40
53.272827
 40
56.463050
 40
59.316343
 40
59.937145
 40
60.543172
 40
61.148359
 40
61.148359
 40
61.148359
 40
61.148359
 10
80.186761
 20
89.918441
 30
0.0
 10
78.889316
 20
88.987300
 30
0.0
 10
75.300268
 20
86.411536
 30
0.0
 10
68.499898
 20
80.693853
 30
0.0
 10
60.543648
 20
73.917903
 30
0.0
 10
52.954467
 20
67.259525
 30
0.0
 10
47.448634
 20
62.165593
 30
0.0
 10
43.460799
 20
58.077773
 30
0.0
 10
40.701536
 20
54.756105
 30
0.0
 10
38.915561
 20
51.852165
 30
0.0
 10
38.092526
 20
49.775622
 30
0.0
 10
37.728406
 20
48.464480
 30
0.0
 10
37.623047
 20
47.861652
 30
0.0
 10
37.592122
 20
47.458957
 30
0.0
 10
37.576670
 20
47.257750
 30
0.0
 11
80.186761
 21
89.918441
 31
0.0
 11
76.321360
 21
87.089917
 31
0.0
 11
69.762585
 21
81.746480
 31
0.0
 11
59.586252
 21
73.052153
 31
0.0
 11
52.452311
 21
66.756244
 31
0.0
 11
47.060376
 21
61.708633
 31
0.0
 11
43.184736
 21
57.672103
 31
0.0
 11
40.587530
 21
54.445669
 31
0.0
 11
38.943795
 21
51.711504
 31
0.0
 11
37.897094
 21
49.057131
 31
0.0
 11
37.737056
 21
48.457312
 31
0.0
 11
37.632695
 21
47.860339
 31
0.0
 11
37.576670
 21
47.257750
 31
0.0
  0
LWPOLYLINE
  5
178
100
AcDbEntity
  8
Layer_1
 62
7
100
AcDbPolyline
 90
2
 70
0
 10
37.576670
 20
47.257750
 30
0.0
 10
76.758103
 20
46.259465
 30
0.0
  0
SPLINE
  5
179
100
AcDbEntity
  8
Layer_1
 62
7
100
AcDbSpline
 70
0
 71
3
 72
10
 73
6
 74
4
 40
0.000000
 40
0.000000
 40
0.000000
 40
0.000000
 40
11.591126
 40
21.884674
 40
29.414278
 40
29.414278
 40
29.414278
 40
29.414278
 10
76.758103
 20
46.259465
 30
0.0
 10
77.265795
 20
50.089648
 30
0.0
 10
78.224346
 20
57.321240
 30
0.0
 10
79.470997
 20
67.046795
 30
0.0
 10
80.125209
 20
72.951803
 30
0.0
 10
80.401589
 20
75.446444
 30
0.0
 11
76.758103
 21
46.259465
 31
0.0
 11
78.272477
 21
57.751239
 31
0.0
 11
79.554392
 21
67.964653
 31
0.0
 11
80.401589
 21
75.446444
 31
0.0
  0
LWPOLYLINE
  5
17a
100
AcDbEntity
  8
Layer_1
 62
7
100
AcDbPolyline
 90
2
 70
0
 10
80.401589
 20
75.446444
 30
0.0
 10
80.401583
 20
75.446430
 30
0.0
  0
SPLINE
  5
17b
100
AcDbEntity
  8
Layer_1
 62
7
100
AcDbSpline
 70
0
 71
3
 72
16
 73
12
 74
10
 40
0.000000
 40
0.000000
 40
0.000000
 40
0.000000
 40
0.087810
 40
0.165401
 40
0.235613
 40
0.503508
 40
0.899220
 40
1.563308
 40
4.090369
 40
8.440370
 40
14.758127
 40
14.758127
 40
14.758127
 40
14.758127
 10
80.682736
 20
115.811828
 30
0.0
 10
80.684471
 20
115.841058
 30
0.0
 10
80.687739
 20
115.896116
 30
0.0
 10
80.686247
 20
115.974695
 30
0.0
 10
80.670918
 20
116.112948
 30
0.0
 10
80.547910
 20
116.336478
 30
0.0
 10
80.211748
 20
116.625806
 30
0.0
 10
79.364463
 20
117.470024
 30
0.0
 10
77.320585
 20
118.953853
 30
0.0
 10
73.601906
 20
121.295229
 30
0.0
 10
70.538042
 20
123.102135
 30
0.0
 10
68.723533
 20
124.172238
 30
0.0
 11
80.682736
 21
115.811828
 31
0.0
 11
80.686725
 21
115.899547
 31
0.0
 11
80.684956
 21
115.977118
 31
0.0
 11
80.676301
 21
116.046795
 31
0.0
 11
80.560082
 21
116.288167
 31
0.0
 11
80.282207
 21
116.569900
 31
0.0
 11
79.799722
 21
117.026213
 31
0.0
 11
77.804629
 21
118.577225
 31
0.0
 11
74.146935
 21
120.931749
 31
0.0
 11
68.723533
 21
124.172238
 31
0.0
  0
LWPOLYLINE
  5
17c
100
AcDbEntity
  8
Layer_1
 62
7
100
AcDbPolyline
 90
2
 70
0
 10
80.676301
 20
116.046795
 30
0.0
 10
80.676301
 20
116.046795
 30
0.0
  0
SPLINE
  5
17d
100
AcDbEntity
  8
Layer_1
 62
7
100
AcDbSpline
 70
0
 71
3
 72
25
 73
21
 74
19
 40
0.000000
 40
0.000000
 40
0.000000
 40
0.000000
 40
11.143884
 40
17.802030
 40
21.219710
 40
22.571613
 40
25.133224
 40
28.167019
 40
31.196165
 40
33.684407
 40
34.801364
 40
35.319426
 40
35.948693
 40
37.138517
 40
39.169216
 40
42.081860
 40
45.931200
 40
51.600531
 40
60.728653
 40
71.386131
 40
71.386131
 40
71.386131
 40
71.386131
 10
68.723533
 20
124.172238
 30
0.0
 10
65.501311
 20
126.039852
 30
0.0
 10
60.353906
 20
129.023310
 30
0.0
 10
54.028965
 20
132.067690
 30
0.0
 10
50.383562
 20
133.475847
 30
0.0
 10
47.926081
 20
133.338120
 30
0.0
 10
45.620886
 20
133.191957
 30
0.0
 10
42.759929
 20
132.871948
 30
0.0
 10
39.950994
 20
132.377048
 30
0.0
 10
37.801266
 20
131.855036
 30
0.0
 10
36.454970
 20
131.578741
 30
0.0
 10
35.753765
 20
131.264243
 30
0.0
 10
35.242185
 20
130.652898
 30
0.0
 10
34.638791
 20
129.522000
 30
0.0
 10
33.836402
 20
127.636327
 30
0.0
 10
32.947892
 20
124.841566
 30
0.0
 10
31.846963
 20
120.845269
 30
0.0
 10
30.558358
 20
114.762407
 30
0.0
 10
28.849844
 20
106.452128
 30
0.0
 10
27.592202
 20
99.977723
 30
0.0
 10
26.914776
 20
96.490296
 30
0.0
 11
68.723533
 21
124.172238
 31
0.0
 11
58.994628
 21
129.606809
 31
0.0
 11
52.971009
 21
132.443518
 31
0.0
 11
49.684884
 21
133.382622
 31
0.0
 11
48.333173
 21
133.359794
 31
0.0
 11
45.777666
 21
133.183051
 31
0.0
 11
42.763302
 21
132.840245
 31
0.0
 11
39.780723
 21
132.311138
 31
0.0
 11
37.352665
 21
131.767188
 31
0.0
 11
36.272267
 21
131.483758
 31
0.0
 11
35.809441
 21
131.250991
 31
0.0
 11
35.378416
 21
130.792522
 31
0.0
 11
34.781973
 21
129.762989
 31
0.0
 11
33.976625
 21
127.898813
 31
0.0
 11
33.058216
 21
125.134754
 31
0.0
 11
32.038428
 21
121.422956
 31
0.0
 11
30.801697
 21
115.890162
 31
0.0
 11
28.967467
 21
106.948226
 31
0.0
 11
26.914776
 21
96.490296
 31
0.0
  0
SPLINE
  5
17e
100
AcDbEntity
  8
Layer_1
 62
7
100
AcDbSpline
 70
0
 71
3
 72
13
 73
9
 74
7
 40
0.000000
 40
0.000000
 40
0.000000
 40
0.000000
 40
1.019912
 40
2.261506
 40
3.837045
 40
4.210224
 40
4.422889
 40
4.565846
 40
4.565846
 40
4.565846
 40
4.565846
 10
23.678130
 20
64.082972
 30
0.0
 10
23.876538
 20
63.806591
 30
0.0
 10
24.316479
 20
63.193754
 30
0.0
 10
25.187075
 20
62.252733
 30
0.0
 10
25.965289
 20
61.527432
 30
0.0
 10
26.508198
 20
61.053712
 30
0.0
 10
26.696392
 20
60.900005
 30
0.0
 10
26.790601
 20
60.828050
 30
0.0
 10
26.828472
 20
60.799125
 30
0.0
 11
23.678130
 21
64.082972
 31
0.0
 11
24.288238
 21
63.265666
 31
0.0
 11
25.120629
 21
62.344428
 31
0.0
 11
26.267823
 21
61.264490
 31
0.0
 11
26.550190
 21
61.020498
 31
0.0
 11
26.715243
 21
60.886393
 31
0.0
 11
26.828472
 21
60.799125
 31
0.0
  0
LWPOLYLINE
  5
17f
100
AcDbEntity
  8
Layer_1
 62
7
100
AcDbPolyline
 90
2
 70
0
 10
26.914776
 20
96.490296
 30
0.0
 10
23.678130
 20
64.082972
 30
0.0
  0
SPLINE
  5
180
100
AcDbEntity
  8
Layer_1
 62
7
100
AcDbSpline
 70
0
 71
3
 72
31
 73
27
 74
25
 40
0.000000
 40
0.000000
 40
0.000000
 40
0.000000
 40
0.351384
 40
0.868065
 40
1.581143
 40
2.207662
 40
3.715928
 40
5.869072
 40
8.533839
 40
11.715102
 40
15.385720
 40
24.101204
 40
34.523414
 40
46.502439
 40
55.664400
 40
62.040284
 40
66.209502
 40
68.980226
 40
71.553390
 40
75.112052
 40
76.061081
 40
76.898882
 40
77.624380
 40
78.362883
 40
78.878925
 40
79.226260
 40
79.226260
 40
79.226260
 40
79.226260
 10
26.828472
 20
60.799125
 30
0.0
 10
26.939322
 20
60.837073
 30
0.0
 10
27.213167
 20
60.930822
 30
0.0
 10
27.699946
 20
61.132388
 30
0.0
 10
28.272359
 20
61.373047
 30
0.0
 10
29.065745
 20
61.898516
 30
0.0
 10
30.258114
 20
62.684398
 30
0.0
 10
31.965217
 20
63.924715
 30
0.0
 10
34.078119
 20
65.550804
 30
0.0
 10
36.567023
 20
67.517904
 30
0.0
 10
40.600388
 20
70.782775
 30
0.0
 10
46.445563
 20
75.645005
 30
0.0
 10
54.343418
 20
82.368661
 30
0.0
 10
62.297131
 20
89.256516
 30
0.0
 10
69.187193
 20
95.309523
 30
0.0
 10
74.017817
 20
99.767206
 30
0.0
 10
77.055019
 20
103.007271
 30
0.0
 10
78.854024
 20
105.659848
 30
0.0
 10
79.707602
 20
108.533870
 30
0.0
 10
80.023921
 20
110.871891
 30
0.0
 10
80.286258
 20
112.634366
 30
0.0
 10
80.400287
 20
113.464084
 30
0.0
 10
80.485343
 20
114.226621
 30
0.0
 10
80.554555
 20
114.883141
 30
0.0
 10
80.637211
 20
115.410814
 30
0.0
 10
80.670072
 20
115.696745
 30
0.0
 10
80.683292
 20
115.811774
 30
0.0
 11
26.828472
 21
60.799125
 31
0.0
 11
27.159940
 21
60.915741
 31
0.0
 11
27.639591
 21
61.107821
 31
0.0
 11
28.287749
 21
61.405095
 31
0.0
 11
28.820005
 21
61.735595
 31
0.0
 11
30.073676
 21
62.574148
 31
0.0
 11
31.821665
 21
63.831354
 31
0.0
 11
33.938523
 21
65.449962
 31
0.0
 11
36.435437
 21
67.421221
 31
0.0
 11
39.290244
 21
69.728495
 31
0.0
 11
45.998410
 21
75.292681
 31
0.0
 11
53.939449
 21
82.042671
 31
0.0
 11
62.996157
 21
89.883147
 31
0.0
 11
69.856325
 21
95.956007
 31
0.0
 11
74.493060
 21
100.332374
 31
0.0
 11
77.276365
 21
103.436499
 31
0.0
 11
78.757455
 21
105.778140
 31
0.0
 11
79.557818
 21
108.223665
 31
0.0
 11
80.152872
 21
111.732224
 31
0.0
 11
80.289857
 21
112.671315
 31
0.0
 11
80.401596
 21
113.501631
 31
0.0
 11
80.484145
 21
114.222417
 31
0.0
 11
80.569567
 21
114.955963
 31
0.0
 11
80.641740
 21
115.466933
 31
0.0
 11
80.683292
 21
115.811774
 31
0.0
  0
LWPOLYLINE
  5
181
100
AcDbEntity
  8
Layer_1
 62
7
100
AcDbPolyline
 90
2
 70
0
 10
80.683292
 20
115.811774
 30
0.0
 10
80.682736
 20
115.811828
 30
0.0
  0
SPLINE
  5
182
100
AcDbEntity
  8
Layer_1
 62
7
100
AcDbSpline
 70
0
 71
3
 72
19
 73
15
 74
13
 40
0.000000
 40
0.000000
 40
0.000000
 40
0.000000
 40
0.502973
 40
1.117575
 40
1.863208
 40
3.064288
 40
4.500413
 40
6.192207
 40
20.957548
 40
41.845927
 40
58.284870
 40
60.521191
 40
62.524289
 40
64.346553
 40
64.346553
 40
64.346553
 40
64.346553
 10
45.509386
 20
150.662665
 30
0.0
 10
45.526120
 20
150.829488
 30
0.0
 10
45.563302
 20
151.200157
 30
0.0
 10
45.616682
 20
151.818940
 30
0.0
 10
45.691136
 20
152.669454
 30
0.0
 10
45.780428
 20
153.793557
 30
0.0
 10
45.878340
 20
155.233230
 30
0.0
 10
46.270057
 20
161.185023
 30
0.0
 10
46.355438
 20
173.642603
 30
0.0
 10
46.370016
 20
190.999758
 30
0.0
 10
46.286633
 20
204.195342
 30
0.0
 10
45.883526
 20
211.076878
 30
0.0
 10
45.708929
 20
213.090263
 30
0.0
 10
45.559338
 20
214.356632
 30
0.0
 10
45.488078
 20
214.959884
 30
0.0
 11
45.509386
 21
150.662665
 31
0.0
 11
45.558542
 21
151.163231
 31
0.0
 11
45.613044
 21
151.775411
 31
0.0
 11
45.677133
 21
152.518285
 31
0.0
 11
45.772157
 21
153.715600
 31
0.0
 11
45.872079
 21
155.148245
 31
0.0
 11
45.980443
 21
156.836564
 31
0.0
 11
46.329170
 21
171.597787
 31
0.0
 11
46.343354
 21
192.486161
 31
0.0
 11
46.005109
 21
208.921624
 31
0.0
 11
45.867998
 21
211.153738
 31
0.0
 11
45.692915
 21
213.149169
 31
0.0
 11
45.488078
 21
214.959884
 31
0.0
  0
LWPOLYLINE
  5
183
100
AcDbEntity
  8
Layer_1
 62
7
100
AcDbPolyline
 90
3
 70
0
 10
45.488078
 20
214.959884
 30
0.0
 10
38.862449
 20
216.121838
 30
0.0
 10
31.729491
 20
144.702307
 30
0.0
  0
LWPOLYLINE
  5
184
100
AcDbEntity
  8
Layer_1
 62
7
100
AcDbPolyline
 90
2
 70
0
 10
45.509538
 20
150.662651
 30
0.0
 10
45.509386
 20
150.662665
 30
0.0
  0
SPLINE
  5
185
100
AcDbEntity
  8
Layer_1
 62
7
100
AcDbSpline
 70
0
 71
3
 72
19
 73
15
 74
13
 40
0.000000
 40
0.000000
 40
0.000000
 40
0.000000
 40
1.135653
 40
2.440992
 40
4.080000
 40
7.823554
 40
10.395866
 40
11.887380
 40
12.515601
 40
12.872075
 40
13.710447
 40
14.728964
 40
15.479533
 40
16.514112
 40
16.514112
 40
16.514112
 40
16.514112
 10
31.729491
 20
144.702307
 30
0.0
 10
32.106994
 20
144.731435
 30
0.0
 10
32.918404
 20
144.794044
 30
0.0
 10
34.266833
 20
144.973481
 30
0.0
 10
36.474079
 20
145.292359
 30
0.0
 10
39.081395
 20
145.733520
 30
0.0
 10
41.662489
 20
146.199388
 30
0.0
 10
43.120279
 20
146.710128
 30
0.0
 10
43.945540
 20
146.934664
 30
0.0
 10
44.351534
 20
147.409643
 30
0.0
 10
44.612151
 20
148.105237
 30
0.0
 10
45.078664
 20
148.841741
 30
0.0
 10
45.412848
 20
149.723604
 30
0.0
 10
45.474062
 20
150.318108
 30
0.0
 10
45.509538
 20
150.662651
 30
0.0
 11
31.729491
 21
144.702307
 31
0.0
 11
32.860988
 21
144.799377
 31
0.0
 11
34.156289
 21
144.960948
 31
0.0
 11
35.778369
 21
145.195897
 31
0.0
 11
39.471572
 21
145.807821
 31
0.0
 11
41.987391
 21
146.343958
 31
0.0
 11
43.412198
 21
146.785025
 31
0.0
 11
43.991787
 21
147.027385
 31
0.0
 11
44.233054
 21
147.289805
 31
0.0
 11
44.614092
 21
148.036582
 31
0.0
 11
45.091585
 21
148.936236
 31
0.0
 11
45.352201
 21
149.640106
 31
0.0
 11
45.509538
 21
150.662651
 31
0.0
  0
LWPOLYLINE
  5
186
100
AcDbEntity
  8
Layer_1
 62
1
100
AcDbPolyline
 90
5
 70
0
 10
252.891970
 20
808.676987
 30
0.0
 10
352.225300
 20
808.676987
 30
0.0
 10
352.225300
 20
709.343655
 30
0.0
 10
252.891970
 20
709.343655
 30
0.0
 10
252.891970
 20
808.676987
 30
0.0
  0
ENDSEC
  0
SECTION
  2
OBJECTS
  0
DICTIONARY
  5
C
330
0
100
AcDbDictionary
  3
ACAD_GROUP
350
D
  3
ACAD_MLINESTYLE
350
17
  0
DICTIONARY
  5
D
330
C
100
AcDbDictionary
  0
DICTIONARY
  5
1A
330
C
100
AcDbDictionary
  0
DICTIONARY
  5
17
330
C
100
AcDbDictionary
  3
STANDARD
350
18
  0
DICTIONARY
  5
19
330
C
100
AcDbDictionary
  0
ENDSEC
  0
EOF
