  0
SECTION
  2
HEADER
  9
$ACADVER
  1
AC1014
  9
$HANDSEED
  5
FFFF
  9
$MEASUREMENT
 70
     1
  0
ENDSEC
  0
SECTION
  2
TABLES
  0
TABLE
  2
VPORT
  5
8
330
0
100
AcDbSymbolTable
 70
     4
  0
VPORT
  5
2E
330
8
100
AcDbSymbolTableRecord
100
AcDbViewportTableRecord
  2
*ACTIVE
 70
     0
 10
0.0
 20
0.0
 11
1.0
 21
1.0
 12
210.0
 22
148.5
 13
0.0
 23
0.0
 14
10.0
 24
10.0
 15
10.0
 25
10.0
 16
0.0
 26
0.0
 36
1.0
 17
0.0
 27
0.0
 37
0.0
 40
341.0
 41
1.24
 42
50.0
 43
0.0
 44
0.0
 50
0.0
 51
0.0
 71
     0
 72
   100
 73
     1
 74
     3
 75
     0
 76
     0
 77
     0
 78
     0
  0
ENDTAB
  0
TABLE
  2
LTYPE
  5
5
330
0
100
AcDbSymbolTable
 70
     1
  0
LTYPE
  5
14
330
5
100
AcDbSymbolTableRecord
100
AcDbLinetypeTableRecord
  2
BYBLOCK
 70
     0
  3

 72
    65
 73
     0
 40
0.0
  0
LTYPE
  5
15
330
5
100
AcDbSymbolTableRecord
100
AcDbLinetypeTableRecord
  2
BYLAYER
 70
     0
  3

 72
    65
 73
     0
 40
0.0
  0
LTYPE
  5
16
330
5
100
AcDbSymbolTableRecord
100
AcDbLinetypeTableRecord
  2
CONTINUOUS
 70
     0
  3
Solid line
 72
    65
 73
     0
 40
0.0
  0
ENDTAB
  0
TABLE
  2
LAYER
  5
2
100
AcDbSymbolTable
 70
2
  0
LAYER
  5
50
100
AcDbSymbolTableRecord
100
AcDbLayerTableRecord
  2
0
 70
0
  6
CONTINUOUS
  0
LAYER
  5
51
100
AcDbSymbolTableRecord
100
AcDbLayerTableRecord
  2
Layer_1
 70
0
  6
CONTINUOUS
  0
ENDTAB
  0
TABLE
  2
STYLE
  5
3
330
0
100
AcDbSymbolTable
 70
     1
  0
STYLE
  5
11
330
3
100
AcDbSymbolTableRecord
100
AcDbTextStyleTableRecord
  2
STANDARD
 70
     0
 40
0.0
 41
1.0
 50
0.0
 71
     0
 42
2.5
  3
txt
  4

  0
ENDTAB
  0
TABLE
  2
VIEW
  5
6
330
0
100
AcDbSymbolTable
 70
     0
  0
ENDTAB
  0
TABLE
  2
UCS
  5
7
330
0
100
AcDbSymbolTable
 70
     0
  0
ENDTAB
  0
TABLE
  2
APPID
  5
9
330
0
100
AcDbSymbolTable
 70
     2
  0
APPID
  5
12
330
9
100
AcDbSymbolTableRecord
100
AcDbRegAppTableRecord
  2
ACAD
 70
     0
  0
ENDTAB
  0
TABLE
  2
DIMSTYLE
  5
A
330
0
100
AcDbSymbolTable
 70
     1
  0
DIMSTYLE
105
27
330
A
100
AcDbSymbolTableRecord
100
AcDbDimStyleTableRecord
  2
ISO-25
 70
     0
  3

  4

  5

  6

  7

 40
1.0
 41
2.5
 42
0.625
 43
3.75
 44
1.25
 45
0.0
 46
0.0
 47
0.0
 48
0.0
140
2.5
141
2.5
142
0.0
143
0.03937007874016
144
1.0
145
0.0
146
1.0
147
0.625
 71
     0
 72
     0
 73
     0
 74
     0
 75
     0
 76
     0
 77
     1
 78
     8
170
     0
171
     3
172
     1
173
     0
174
     0
175
     0
176
     0
177
     0
178
     0
270
     2
271
     2
272
     2
273
     2
274
     3
340
11
275
     0
280
     0
281
     0
282
     0
283
     0
284
     8
285
     0
286
     0
287
     3
288
     0
  0
ENDTAB
  0
TABLE
  2
BLOCK_RECORD
  5
1
330
0
100
AcDbSymbolTable
 70
     1
  0
BLOCK_RECORD
  5
1F
330
1
100
AcDbSymbolTableRecord
100
AcDbBlockTableRecord
  2
*MODEL_SPACE
  0
BLOCK_RECORD
  5
1B
330
1
100
AcDbSymbolTableRecord
100
AcDbBlockTableRecord
  2
*PAPER_SPACE
  0
ENDTAB
  0
ENDSEC
  0
SECTION
  2
BLOCKS
  0
BLOCK
  5
20
330
1F
100
AcDbEntity
  8
0
100
AcDbBlockBegin
  2
*MODEL_SPACE
 70
     0
 10
0.0
 20
0.0
 30
0.0
  3
*MODEL_SPACE
  1

  0
ENDBLK
  5
21
330
1F
100
AcDbEntity
  8
0
100
AcDbBlockEnd
  0
BLOCK
  5
1C
330
1B
100
AcDbEntity
 67
     1
  8
0
100
AcDbBlockBegin
  2
*PAPER_SPACE
  1

  0
ENDBLK
  5
1D
330
1B
100
AcDbEntity
 67
     1
  8
0
100
AcDbBlockEnd
  0
ENDSEC
  0
SECTION
  2
ENTITIES
  0
LWPOLYLINE
  5
100
100
AcDbEntity
  8
Layer_1
 62
5
100
AcDbPolyline
 90
8
 70
0
 10
190.800832
 20
341.078668
 30
0.0
 10
168.188792
 20
326.739852
 30
0.0
 10
168.028032
 20
326.041796
 30
0.0
 10
179.164688
 20
315.464644
 30
0.0
 10
193.851208
 20
319.753716
 30
0.0
 10
197.521056
 20
334.654988
 30
0.0
 10
190.800832
 20
341.078668
 30
0.0
 10
190.800832
 20
341.078668
 30
0.0
  0
LWPOLYLINE
  5
101
100
AcDbEntity
  8
Layer_1
 62
5
100
AcDbPolyline
 90
8
 70
0
 10
141.524768
 20
309.420636
 30
0.0
 10
137.885928
 20
294.502380
 30
0.0
 10
148.998584
 20
283.918220
 30
0.0
 10
163.685104
 20
288.207292
 30
0.0
 10
167.354952
 20
303.108564
 30
0.0
 10
156.283280
 20
313.730740
 30
0.0
 10
141.524768
 20
309.420636
 30
0.0
 10
141.524768
 20
309.420636
 30
0.0
  0
LWPOLYLINE
  5
102
100
AcDbEntity
  8
Layer_1
 62
5
100
AcDbPolyline
 90
6
 70
0
 10
94.347960
 20
279.938332
 30
0.0
 10
72.741684
 20
266.257868
 30
0.0
 10
76.453902
 20
262.732148
 30
0.0
 10
91.164416
 20
267.028228
 30
0.0
 10
94.347960
 20
279.938332
 30
0.0
 10
94.347960
 20
279.938332
 30
0.0
  0
LWPOLYLINE
  5
103
100
AcDbEntity
  8
Layer_1
 62
5
100
AcDbPolyline
 90
8
 70
0
 10
111.365680
 20
277.850212
 30
0.0
 10
107.719824
 20
262.955948
 30
0.0
 10
118.839496
 20
252.347796
 30
0.0
 10
133.526008
 20
256.636868
 30
0.0
 10
137.212856
 20
271.569140
 30
0.0
 10
126.124192
 20
282.160316
 30
0.0
 10
111.365680
 20
277.850212
 30
0.0
 10
111.365680
 20
277.850212
 30
0.0
  0
LWPOLYLINE
  5
104
100
AcDbEntity
  8
Layer_1
 62
5
100
AcDbPolyline
 90
7
 70
0
 10
183.910360
 20
299.036284
 30
0.0
 10
180.264512
 20
284.142020
 30
0.0
 10
191.384176
 20
273.533860
 30
0.0
 10
198.559456
 20
275.629340
 30
0.0
 10
198.452896
 20
303.283308
 30
0.0
 10
183.910360
 20
299.036284
 30
0.0
 10
183.910360
 20
299.036284
 30
0.0
  0
LWPOLYLINE
  5
105
100
AcDbEntity
  8
Layer_1
 62
5
100
AcDbPolyline
 90
8
 70
0
 10
57.909935
 20
256.847740
 30
0.0
 10
35.362873
 20
242.553948
 30
0.0
 10
35.175144
 20
241.769884
 30
0.0
 10
46.294810
 20
231.161724
 30
0.0
 10
61.005326
 20
235.457804
 30
0.0
 10
64.668170
 20
250.383076
 30
0.0
 10
57.909935
 20
256.847740
 30
0.0
 10
57.909935
 20
256.847740
 30
0.0
  0
LWPOLYLINE
  5
106
100
AcDbEntity
  8
Layer_1
 62
5
100
AcDbPolyline
 90
9
 70
0
 10
8.678894
 20
225.124724
 30
0.0
 10
8.152658
 20
222.913540
 30
0.0
 10
8.186090
 20
207.192556
 30
0.0
 10
16.152707
 20
199.622308
 30
0.0
 10
30.839226
 20
203.911380
 30
0.0
 10
34.509077
 20
218.812652
 30
0.0
 10
23.413407
 20
229.427812
 30
0.0
 10
8.678894
 20
225.124724
 30
0.0
 10
8.678894
 20
225.124724
 30
0.0
  0
LWPOLYLINE
  5
107
100
AcDbEntity
  8
Layer_1
 62
5
100
AcDbPolyline
 90
8
 70
0
 10
81.223576
 20
246.310796
 30
0.0
 10
77.584733
 20
231.392532
 30
0.0
 10
88.697392
 20
220.808372
 30
0.0
 10
103.383912
 20
225.097452
 30
0.0
 10
107.053760
 20
239.998716
 30
0.0
 10
95.982088
 20
250.620892
 30
0.0
 10
81.223576
 20
246.310796
 30
0.0
 10
81.223576
 20
246.310796
 30
0.0
  0
LWPOLYLINE
  5
108
100
AcDbEntity
  8
Layer_1
 62
5
100
AcDbPolyline
 90
8
 70
0
 10
153.768264
 20
267.496868
 30
0.0
 10
150.129416
 20
252.578604
 30
0.0
 10
161.242072
 20
241.994444
 30
0.0
 10
175.928592
 20
246.283524
 30
0.0
 10
179.598440
 20
261.184788
 30
0.0
 10
168.502776
 20
271.799956
 30
0.0
 10
153.768264
 20
267.496868
 30
0.0
 10
153.768264
 20
267.496868
 30
0.0
  0
LWPOLYLINE
  5
109
100
AcDbEntity
  8
Layer_1
 62
5
100
AcDbPolyline
 90
8
 70
0
 10
123.602160
 20
235.950436
 30
0.0
 10
119.963312
 20
221.032180
 30
0.0
 10
131.075976
 20
210.448020
 30
0.0
 10
145.786488
 20
214.744100
 30
0.0
 10
149.456344
 20
229.645372
 30
0.0
 10
138.360672
 20
240.260540
 30
0.0
 10
123.602160
 20
235.950436
 30
0.0
 10
123.602160
 20
235.950436
 30
0.0
  0
LWPOLYLINE
  5
10a
100
AcDbEntity
  8
Layer_1
 62
5
100
AcDbPolyline
 90
8
 70
0
 10
51.064486
 20
214.740372
 30
0.0
 10
47.418632
 20
199.846108
 30
0.0
 10
58.555288
 20
189.268956
 30
0.0
 10
73.241806
 20
193.558036
 30
0.0
 10
76.911658
 20
208.459300
 30
0.0
 10
65.822997
 20
219.050468
 30
0.0
 10
51.064486
 20
214.740372
 30
0.0
 10
51.064486
 20
214.740372
 30
0.0
  0
LWPOLYLINE
  5
10b
100
AcDbEntity
  8
Layer_1
 62
5
100
AcDbPolyline
 90
6
 70
0
 10
196.153848
 20
257.112508
 30
0.0
 10
192.508000
 20
242.218252
 30
0.0
 10
198.672024
 20
236.361380
 30
0.0
 10
198.601624
 20
257.827356
 30
0.0
 10
196.153864
 20
257.112508
 30
0.0
 10
196.153848
 20
257.112508
 30
0.0
  0
LWPOLYLINE
  5
10c
100
AcDbEntity
  8
Layer_1
 62
5
100
AcDbPolyline
 90
8
 70
0
 10
20.922383
 20
183.200956
 30
0.0
 10
17.276530
 20
168.306692
 30
0.0
 10
28.396196
 20
157.698532
 30
0.0
 10
43.082715
 20
161.987612
 30
0.0
 10
46.745558
 20
176.912876
 30
0.0
 10
35.680894
 20
187.511052
 30
0.0
 10
20.922383
 20
183.200956
 30
0.0
 10
20.922383
 20
183.200956
 30
0.0
  0
LWPOLYLINE
  5
10d
100
AcDbEntity
  8
Layer_1
 62
5
100
AcDbPolyline
 90
8
 70
0
 10
93.467064
 20
204.387020
 30
0.0
 10
89.821216
 20
189.492764
 30
0.0
 10
100.940880
 20
178.884604
 30
0.0
 10
115.651392
 20
183.180684
 30
0.0
 10
119.314240
 20
198.105956
 30
0.0
 10
108.225576
 20
208.697124
 30
0.0
 10
93.467064
 20
204.387020
 30
0.0
 10
93.467064
 20
204.387020
 30
0.0
  0
LWPOLYLINE
  5
10e
100
AcDbEntity
  8
Layer_1
 62
5
100
AcDbPolyline
 90
8
 70
0
 10
166.011752
 20
225.573092
 30
0.0
 10
162.365896
 20
210.678836
 30
0.0
 10
173.485560
 20
200.070676
 30
0.0
 10
188.172080
 20
204.359748
 30
0.0
 10
191.834920
 20
219.285020
 30
0.0
 10
180.770256
 20
229.883196
 30
0.0
 10
166.011752
 20
225.573092
 30
0.0
 10
166.011752
 20
225.573092
 30
0.0
  0
LWPOLYLINE
  5
10f
100
AcDbEntity
  8
Layer_1
 62
5
100
AcDbPolyline
 90
8
 70
0
 10
63.300966
 20
172.840596
 30
0.0
 10
59.662121
 20
157.922340
 30
0.0
 10
70.774779
 20
147.338180
 30
0.0
 10
85.485296
 20
151.634260
 30
0.0
 10
89.155144
 20
166.535532
 30
0.0
 10
78.059477
 20
177.150700
 30
0.0
 10
63.300966
 20
172.840596
 30
0.0
 10
63.300966
 20
172.840596
 30
0.0
  0
LWPOLYLINE
  5
110
100
AcDbEntity
  8
Layer_1
 62
5
100
AcDbPolyline
 90
8
 70
0
 10
135.845648
 20
194.026668
 30
0.0
 10
132.206800
 20
179.108412
 30
0.0
 10
143.319464
 20
168.524252
 30
0.0
 10
158.005984
 20
172.813324
 30
0.0
 10
161.699832
 20
187.721604
 30
0.0
 10
150.604160
 20
198.336764
 30
0.0
 10
135.845648
 20
194.026668
 30
0.0
 10
135.845648
 20
194.026668
 30
0.0
  0
LWPOLYLINE
  5
111
100
AcDbEntity
  8
Layer_1
 62
5
100
AcDbPolyline
 90
6
 70
0
 10
8.377747
 20
153.206612
 30
0.0
 10
8.453067
 20
129.137644
 30
0.0
 10
12.916617
 20
130.441180
 30
0.0
 10
16.586468
 20
145.342452
 30
0.0
 10
8.377750
 20
153.206612
 30
0.0
 10
8.377747
 20
153.206612
 30
0.0
  0
LWPOLYLINE
  5
112
100
AcDbEntity
  8
Layer_1
 62
5
100
AcDbPolyline
 90
8
 70
0
 10
33.158863
 20
141.301180
 30
0.0
 10
29.520018
 20
126.382924
 30
0.0
 10
40.632676
 20
115.798756
 30
0.0
 10
55.319195
 20
120.087836
 30
0.0
 10
58.989046
 20
134.989108
 30
0.0
 10
47.893377
 20
145.604268
 30
0.0
 10
33.158863
 20
141.301180
 30
0.0
 10
33.158863
 20
141.301180
 30
0.0
  0
LWPOLYLINE
  5
113
100
AcDbEntity
  8
Layer_1
 62
5
100
AcDbPolyline
 90
8
 70
0
 10
105.703544
 20
162.487252
 30
0.0
 10
102.064704
 20
147.568988
 30
0.0
 10
113.177360
 20
136.984828
 30
0.0
 10
127.863880
 20
141.273908
 30
0.0
 10
131.533728
 20
156.175172
 30
0.0
 10
120.462056
 20
166.797348
 30
0.0
 10
105.703544
 20
162.487252
 30
0.0
 10
105.703544
 20
162.487252
 30
0.0
  0
LWPOLYLINE
  5
114
100
AcDbEntity
  8
Layer_1
 62
5
100
AcDbPolyline
 90
8
 70
0
 10
178.248232
 20
183.673316
 30
0.0
 10
174.609384
 20
168.755060
 30
0.0
 10
185.722040
 20
158.170900
 30
0.0
 10
198.920712
 20
162.025460
 30
0.0
 10
198.870712
 20
182.351444
 30
0.0
 10
192.982768
 20
187.976412
 30
0.0
 10
178.248256
 20
183.673316
 30
0.0
 10
178.248232
 20
183.673316
 30
0.0
  0
LWPOLYLINE
  5
115
100
AcDbEntity
  8
Layer_1
 62
5
100
AcDbPolyline
 90
8
 70
0
 10
8.519214
 20
111.342660
 30
0.0
 10
8.601972
 20
85.999692
 30
0.0
 10
10.473584
 20
84.228332
 30
0.0
 10
25.184101
 20
88.524420
 30
0.0
 10
28.846943
 20
103.449684
 30
0.0
 10
17.758282
 20
114.040852
 30
0.0
 10
8.519214
 20
111.342660
 30
0.0
 10
8.519214
 20
111.342660
 30
0.0
  0
LWPOLYLINE
  5
116
100
AcDbEntity
  8
Layer_1
 62
5
100
AcDbPolyline
 90
8
 70
0
 10
75.544454
 20
130.916828
 30
0.0
 10
71.898601
 20
116.022564
 30
0.0
 10
83.042264
 20
105.421412
 30
0.0
 10
97.728784
 20
109.710492
 30
0.0
 10
101.391624
 20
124.635756
 30
0.0
 10
90.302968
 20
135.226924
 30
0.0
 10
75.544454
 20
130.916828
 30
0.0
 10
75.544454
 20
130.916828
 30
0.0
  0
LWPOLYLINE
  5
117
100
AcDbEntity
  8
Layer_1
 62
5
100
AcDbPolyline
 90
8
 70
0
 10
148.089136
 20
152.102892
 30
0.0
 10
144.443280
 20
137.208636
 30
0.0
 10
155.562952
 20
126.600476
 30
0.0
 10
170.273464
 20
130.896564
 30
0.0
 10
173.936312
 20
145.821828
 30
0.0
 10
162.847648
 20
156.412996
 30
0.0
 10
148.089136
 20
152.102892
 30
0.0
 10
148.089136
 20
152.102892
 30
0.0
  0
LWPOLYLINE
  5
118
100
AcDbEntity
  8
Layer_1
 62
5
100
AcDbPolyline
 90
8
 70
0
 10
45.402351
 20
99.377404
 30
0.0
 10
41.756498
 20
84.483148
 30
0.0
 10
52.876165
 20
73.874988
 30
0.0
 10
67.562683
 20
78.164060
 30
0.0
 10
71.225526
 20
93.089332
 30
0.0
 10
60.160862
 20
103.687508
 30
0.0
 10
45.402351
 20
99.377404
 30
0.0
 10
45.402351
 20
99.377404
 30
0.0
  0
LWPOLYLINE
  5
119
100
AcDbEntity
  8
Layer_1
 62
5
100
AcDbPolyline
 90
8
 70
0
 10
117.947032
 20
120.563476
 30
0.0
 10
114.301184
 20
105.669220
 30
0.0
 10
125.420848
 20
95.061060
 30
0.0
 10
140.131360
 20
99.357140
 30
0.0
 10
143.794208
 20
114.282412
 30
0.0
 10
132.705544
 20
124.873580
 30
0.0
 10
117.947032
 20
120.563476
 30
0.0
 10
117.947032
 20
120.563476
 30
0.0
  0
LWPOLYLINE
  5
11a
100
AcDbEntity
  8
Layer_1
 62
5
100
AcDbPolyline
 90
7
 70
0
 10
190.491720
 20
141.749548
 30
0.0
 10
186.845864
 20
126.855284
 30
0.0
 10
195.613752
 20
118.503316
 30
0.0
 10
199.066000
 20
120.683508
 30
0.0
 10
198.986880
 20
144.230484
 30
0.0
 10
190.491736
 20
141.749548
 30
0.0
 10
190.491720
 20
141.749548
 30
0.0
  0
LWPOLYLINE
  5
11b
100
AcDbEntity
  8
Layer_1
 62
5
100
AcDbPolyline
 90
8
 70
0
 10
15.236251
 20
67.830980
 30
0.0
 10
11.597406
 20
52.912724
 30
0.0
 10
22.710064
 20
42.328564
 30
0.0
 10
37.396583
 20
46.617636
 30
0.0
 10
41.066434
 20
61.518908
 30
0.0
 10
29.994762
 20
72.141084
 30
0.0
 10
15.236251
 20
67.830980
 30
0.0
 10
15.236251
 20
67.830980
 30
0.0
  0
LWPOLYLINE
  5
11c
100
AcDbEntity
  8
Layer_1
 62
5
100
AcDbPolyline
 90
8
 70
0
 10
87.780936
 20
89.017052
 30
0.0
 10
84.142088
 20
74.098796
 30
0.0
 10
95.254744
 20
63.514636
 30
0.0
 10
109.965264
 20
67.810716
 30
0.0
 10
113.635112
 20
82.711988
 30
0.0
 10
102.539448
 20
93.327148
 30
0.0
 10
87.780936
 20
89.017052
 30
0.0
 10
87.780936
 20
89.017052
 30
0.0
  0
LWPOLYLINE
  5
11d
100
AcDbEntity
  8
Layer_1
 62
5
100
AcDbPolyline
 90
7
 70
0
 10
160.325616
 20
110.203124
 30
0.0
 10
156.686768
 20
95.284860
 30
0.0
 10
157.619072
 20
94.411188
 30
0.0
 10
180.758000
 20
109.086180
 30
0.0
 10
175.084128
 20
114.513220
 30
0.0
 10
160.325616
 20
110.203124
 30
0.0
 10
160.325616
 20
110.203124
 30
0.0
  0
LWPOLYLINE
  5
11e
100
AcDbEntity
  8
Layer_1
 62
5
100
AcDbPolyline
 90
8
 70
0
 10
57.645839
 20
57.453636
 30
0.0
 10
53.999986
 20
42.559372
 30
0.0
 10
62.705873
 20
34.241364
 30
0.0
 10
82.375544
 20
46.705220
 30
0.0
 10
83.469016
 20
51.165556
 30
0.0
 10
72.380354
 20
61.756724
 30
0.0
 10
57.645839
 20
57.453636
 30
0.0
 10
57.645839
 20
57.453636
 30
0.0
  0
LWPOLYLINE
  5
11f
100
AcDbEntity
  8
Layer_1
 62
5
100
AcDbPolyline
 90
5
 70
0
 10
130.190520
 20
78.639708
 30
0.0
 10
129.731184
 20
76.734548
 30
0.0
 10
134.918048
 20
80.020340
 30
0.0
 10
130.190520
 20
78.639708
 30
0.0
 10
130.190520
 20
78.639708
 30
0.0
  0
LWPOLYLINE
  5
120
100
AcDbEntity
  8
Layer_1
 62
5
100
AcDbPolyline
 90
9
 70
0
 10
8.803609
 20
32.068724
 30
0.0
 10
8.907630
 20
0.142804
 30
0.0
 10
47.915088
 20
24.869284
 30
0.0
 10
42.241212
 20
30.296324
 30
0.0
 10
22.779175
 20
24.612644
 30
0.0
 10
18.051652
 20
23.232004
 30
0.0
 10
14.477485
 20
26.641684
 30
0.0
 10
8.803609
 20
32.068724
 30
0.0
 10
8.803609
 20
32.068724
 30
0.0
  0
LWPOLYLINE
  5
121
100
AcDbEntity
  8
Layer_1
 62
1
100
AcDbPolyline
 90
5
 70
0
 10
8.141731
 20
225.297836
 30
0.0
 10
198.317240
 20
345.834892
 30
0.0
 10
199.074312
 20
120.678812
 30
0.0
 10
8.898802
 20
0.141764
 30
0.0
 10
8.141731
 20
225.297836
 30
0.0
  0
LWPOLYLINE
  5
122
100
AcDbEntity
  8
Layer_1
 62
5
100
AcDbPolyline
 90
8
 70
0
 10
382.884256
 20
462.246780
 30
0.0
 10
360.272208
 20
447.907972
 30
0.0
 10
360.111456
 20
447.209916
 30
0.0
 10
371.248112
 20
436.632764
 30
0.0
 10
385.934624
 20
440.921836
 30
0.0
 10
389.604480
 20
455.823108
 30
0.0
 10
382.884256
 20
462.246780
 30
0.0
 10
382.884256
 20
462.246780
 30
0.0
  0
LWPOLYLINE
  5
123
100
AcDbEntity
  8
Layer_1
 62
5
100
AcDbPolyline
 90
8
 70
0
 10
333.608192
 20
430.588756
 30
0.0
 10
329.969352
 20
415.670492
 30
0.0
 10
341.082008
 20
405.086332
 30
0.0
 10
355.768528
 20
409.375412
 30
0.0
 10
359.438376
 20
424.276676
 30
0.0
 10
348.366704
 20
434.898852
 30
0.0
 10
333.608192
 20
430.588756
 30
0.0
 10
333.608192
 20
430.588756
 30
0.0
  0
LWPOLYLINE
  5
124
100
AcDbEntity
  8
Layer_1
 62
5
100
AcDbPolyline
 90
6
 70
0
 10
286.431384
 20
401.106452
 30
0.0
 10
264.825104
 20
387.425980
 30
0.0
 10
268.537328
 20
383.900260
 30
0.0
 10
283.247840
 20
388.196348
 30
0.0
 10
286.431384
 20
401.106452
 30
0.0
 10
286.431384
 20
401.106452
 30
0.0
  0
LWPOLYLINE
  5
125
100
AcDbEntity
  8
Layer_1
 62
5
100
AcDbPolyline
 90
8
 70
0
 10
303.449104
 20
399.018332
 30
0.0
 10
299.803248
 20
384.124068
 30
0.0
 10
310.922920
 20
373.515908
 30
0.0
 10
325.609432
 20
377.804988
 30
0.0
 10
329.296272
 20
392.737260
 30
0.0
 10
318.207616
 20
403.328428
 30
0.0
 10
303.449104
 20
399.018332
 30
0.0
 10
303.449104
 20
399.018332
 30
0.0
  0
LWPOLYLINE
  5
126
100
AcDbEntity
  8
Layer_1
 62
5
100
AcDbPolyline
 90
7
 70
0
 10
375.993784
 20
420.204396
 30
0.0
 10
372.347936
 20
405.310140
 30
0.0
 10
383.467600
 20
394.701980
 30
0.0
 10
390.642872
 20
396.797460
 30
0.0
 10
390.536320
 20
424.451428
 30
0.0
 10
375.993784
 20
420.204396
 30
0.0
 10
375.993784
 20
420.204396
 30
0.0
  0
LWPOLYLINE
  5
127
100
AcDbEntity
  8
Layer_1
 62
5
100
AcDbPolyline
 90
8
 70
0
 10
249.993360
 20
378.015852
 30
0.0
 10
227.446296
 20
363.722060
 30
0.0
 10
227.258568
 20
362.937996
 30
0.0
 10
238.378232
 20
352.329836
 30
0.0
 10
253.088752
 20
356.625924
 30
0.0
 10
256.751592
 20
371.551188
 30
0.0
 10
249.993360
 20
378.015852
 30
0.0
 10
249.993360
 20
378.015852
 30
0.0
  0
LWPOLYLINE
  5
128
100
AcDbEntity
  8
Layer_1
 62
5
100
AcDbPolyline
 90
9
 70
0
 10
200.762320
 20
346.292844
 30
0.0
 10
200.236080
 20
344.081660
 30
0.0
 10
200.269520
 20
328.360668
 30
0.0
 10
208.236136
 20
320.790420
 30
0.0
 10
222.922656
 20
325.079500
 30
0.0
 10
226.592512
 20
339.980764
 30
0.0
 10
215.496840
 20
350.595932
 30
0.0
 10
200.762328
 20
346.292844
 30
0.0
 10
200.762320
 20
346.292844
 30
0.0
  0
LWPOLYLINE
  5
129
100
AcDbEntity
  8
Layer_1
 62
5
100
AcDbPolyline
 90
8
 70
0
 10
273.307000
 20
367.478908
 30
0.0
 10
269.668152
 20
352.560652
 30
0.0
 10
280.780816
 20
341.976492
 30
0.0
 10
295.467336
 20
346.265564
 30
0.0
 10
299.137184
 20
361.166836
 30
0.0
 10
288.065512
 20
371.789012
 30
0.0
 10
273.307000
 20
367.478908
 30
0.0
 10
273.307000
 20
367.478908
 30
0.0
  0
LWPOLYLINE
  5
12a
100
AcDbEntity
  8
Layer_1
 62
5
100
AcDbPolyline
 90
8
 70
0
 10
345.851680
 20
388.664980
 30
0.0
 10
342.212840
 20
373.746724
 30
0.0
 10
353.325496
 20
363.162564
 30
0.0
 10
368.012016
 20
367.451636
 30
0.0
 10
371.681864
 20
382.352908
 30
0.0
 10
360.586200
 20
392.968076
 30
0.0
 10
345.851680
 20
388.664980
 30
0.0
 10
345.851680
 20
388.664980
 30
0.0
  0
LWPOLYLINE
  5
12b
100
AcDbEntity
  8
Layer_1
 62
5
100
AcDbPolyline
 90
8
 70
0
 10
315.685584
 20
357.118556
 30
0.0
 10
312.046736
 20
342.200300
 30
0.0
 10
323.159400
 20
331.616140
 30
0.0
 10
337.869912
 20
335.912220
 30
0.0
 10
341.539760
 20
350.813492
 30
0.0
 10
330.444096
 20
361.428652
 30
0.0
 10
315.685584
 20
357.118556
 30
0.0
 10
315.685584
 20
357.118556
 30
0.0
  0
LWPOLYLINE
  5
12c
100
AcDbEntity
  8
Layer_1
 62
5
100
AcDbPolyline
 90
8
 70
0
 10
243.147912
 20
335.908484
 30
0.0
 10
239.502056
 20
321.014228
 30
0.0
 10
250.638712
 20
310.437076
 30
0.0
 10
265.325232
 20
314.726148
 30
0.0
 10
268.995080
 20
329.627420
 30
0.0
 10
257.906424
 20
340.218588
 30
0.0
 10
243.147912
 20
335.908484
 30
0.0
 10
243.147912
 20
335.908484
 30
0.0
  0
LWPOLYLINE
  5
12d
100
AcDbEntity
  8
Layer_1
 62
5
100
AcDbPolyline
 90
6
 70
0
 10
388.237272
 20
378.280628
 30
0.0
 10
384.591424
 20
363.386364
 30
0.0
 10
390.755448
 20
357.529500
 30
0.0
 10
390.685048
 20
378.995476
 30
0.0
 10
388.237296
 20
378.280628
 30
0.0
 10
388.237272
 20
378.280628
 30
0.0
  0
LWPOLYLINE
  5
12e
100
AcDbEntity
  8
Layer_1
 62
5
100
AcDbPolyline
 90
8
 70
0
 10
213.005808
 20
304.369068
 30
0.0
 10
209.359952
 20
289.474812
 30
0.0
 10
220.479616
 20
278.866652
 30
0.0
 10
235.166136
 20
283.155724
 30
0.0
 10
238.828984
 20
298.080996
 30
0.0
 10
227.764320
 20
308.679172
 30
0.0
 10
213.005808
 20
304.369068
 30
0.0
 10
213.005808
 20
304.369068
 30
0.0
  0
LWPOLYLINE
  5
12f
100
AcDbEntity
  8
Layer_1
 62
5
100
AcDbPolyline
 90
8
 70
0
 10
285.550488
 20
325.555140
 30
0.0
 10
281.904632
 20
310.660876
 30
0.0
 10
293.024304
 20
300.052724
 30
0.0
 10
307.734816
 20
304.348804
 30
0.0
 10
311.397664
 20
319.274068
 30
0.0
 10
300.309000
 20
329.865236
 30
0.0
 10
285.550488
 20
325.555140
 30
0.0
 10
285.550488
 20
325.555140
 30
0.0
  0
LWPOLYLINE
  5
130
100
AcDbEntity
  8
Layer_1
 62
5
100
AcDbPolyline
 90
8
 70
0
 10
358.095168
 20
346.741212
 30
0.0
 10
354.449320
 20
331.846948
 30
0.0
 10
365.568984
 20
321.238788
 30
0.0
 10
380.255504
 20
325.527868
 30
0.0
 10
383.918344
 20
340.453132
 30
0.0
 10
372.853680
 20
351.051308
 30
0.0
 10
358.095168
 20
346.741212
 30
0.0
 10
358.095168
 20
346.741212
 30
0.0
  0
LWPOLYLINE
  5
131
100
AcDbEntity
  8
Layer_1
 62
5
100
AcDbPolyline
 90
8
 70
0
 10
255.384392
 20
294.008716
 30
0.0
 10
251.745544
 20
279.090452
 30
0.0
 10
262.858200
 20
268.506292
 30
0.0
 10
277.568720
 20
272.802380
 30
0.0
 10
281.238568
 20
287.703644
 30
0.0
 10
270.142904
 20
298.318812
 30
0.0
 10
255.384392
 20
294.008716
 30
0.0
 10
255.384392
 20
294.008716
 30
0.0
  0
LWPOLYLINE
  5
132
100
AcDbEntity
  8
Layer_1
 62
5
100
AcDbPolyline
 90
8
 70
0
 10
327.929072
 20
315.194780
 30
0.0
 10
324.290224
 20
300.276524
 30
0.0
 10
335.402888
 20
289.692364
 30
0.0
 10
350.089400
 20
293.981444
 30
0.0
 10
353.783248
 20
308.889716
 30
0.0
 10
342.687584
 20
319.504884
 30
0.0
 10
327.929072
 20
315.194780
 30
0.0
 10
327.929072
 20
315.194780
 30
0.0
  0
LWPOLYLINE
  5
133
100
AcDbEntity
  8
Layer_1
 62
5
100
AcDbPolyline
 90
6
 70
0
 10
200.461168
 20
274.374732
 30
0.0
 10
200.536528
 20
250.305756
 30
0.0
 10
205.000080
 20
251.609300
 30
0.0
 10
208.669928
 20
266.510572
 30
0.0
 10
200.461208
 20
274.374732
 30
0.0
 10
200.461168
 20
274.374732
 30
0.0
  0
LWPOLYLINE
  5
134
100
AcDbEntity
  8
Layer_1
 62
5
100
AcDbPolyline
 90
8
 70
0
 10
225.242288
 20
262.469292
 30
0.0
 10
221.603440
 20
247.551036
 30
0.0
 10
232.716096
 20
236.966876
 30
0.0
 10
247.402616
 20
241.255948
 30
0.0
 10
251.072472
 20
256.157220
 30
0.0
 10
239.976800
 20
266.772388
 30
0.0
 10
225.242288
 20
262.469292
 30
0.0
 10
225.242288
 20
262.469292
 30
0.0
  0
LWPOLYLINE
  5
135
100
AcDbEntity
  8
Layer_1
 62
5
100
AcDbPolyline
 90
8
 70
0
 10
297.786968
 20
283.655364
 30
0.0
 10
294.148128
 20
268.737108
 30
0.0
 10
305.260784
 20
258.152948
 30
0.0
 10
319.947304
 20
262.442020
 30
0.0
 10
323.617152
 20
277.343292
 30
0.0
 10
312.545480
 20
287.965468
 30
0.0
 10
297.786968
 20
283.655364
 30
0.0
 10
297.786968
 20
283.655364
 30
0.0
  0
LWPOLYLINE
  5
136
100
AcDbEntity
  8
Layer_1
 62
5
100
AcDbPolyline
 90
8
 70
0
 10
370.331648
 20
304.841436
 30
0.0
 10
366.692808
 20
289.923180
 30
0.0
 10
377.805464
 20
279.339020
 30
0.0
 10
391.004136
 20
283.193580
 30
0.0
 10
390.954136
 20
303.519564
 30
0.0
 10
385.066192
 20
309.144532
 30
0.0
 10
370.331672
 20
304.841436
 30
0.0
 10
370.331648
 20
304.841436
 30
0.0
  0
LWPOLYLINE
  5
137
100
AcDbEntity
  8
Layer_1
 62
5
100
AcDbPolyline
 90
8
 70
0
 10
200.602640
 20
232.510780
 30
0.0
 10
200.685392
 20
207.167804
 30
0.0
 10
202.557008
 20
205.396452
 30
0.0
 10
217.267520
 20
209.692540
 30
0.0
 10
220.930368
 20
224.617804
 30
0.0
 10
209.841704
 20
235.208972
 30
0.0
 10
200.602640
 20
232.510780
 30
0.0
 10
200.602640
 20
232.510780
 30
0.0
  0
LWPOLYLINE
  5
138
100
AcDbEntity
  8
Layer_1
 62
5
100
AcDbPolyline
 90
8
 70
0
 10
267.627880
 20
252.084940
 30
0.0
 10
263.982024
 20
237.190684
 30
0.0
 10
275.125688
 20
226.589532
 30
0.0
 10
289.812208
 20
230.878604
 30
0.0
 10
293.475048
 20
245.803876
 30
0.0
 10
282.386392
 20
256.395044
 30
0.0
 10
267.627880
 20
252.084940
 30
0.0
 10
267.627880
 20
252.084940
 30
0.0
  0
LWPOLYLINE
  5
139
100
AcDbEntity
  8
Layer_1
 62
5
100
AcDbPolyline
 90
8
 70
0
 10
340.172560
 20
273.271012
 30
0.0
 10
336.526704
 20
258.376748
 30
0.0
 10
347.646376
 20
247.768596
 30
0.0
 10
362.356888
 20
252.064676
 30
0.0
 10
366.019728
 20
266.989940
 30
0.0
 10
354.931072
 20
277.581116
 30
0.0
 10
340.172560
 20
273.271012
 30
0.0
 10
340.172560
 20
273.271012
 30
0.0
  0
LWPOLYLINE
  5
13a
100
AcDbEntity
  8
Layer_1
 62
5
100
AcDbPolyline
 90
8
 70
0
 10
237.485776
 20
220.545524
 30
0.0
 10
233.839920
 20
205.651260
 30
0.0
 10
244.959584
 20
195.043108
 30
0.0
 10
259.646104
 20
199.332180
 30
0.0
 10
263.308952
 20
214.257444
 30
0.0
 10
252.244288
 20
224.855628
 30
0.0
 10
237.485776
 20
220.545524
 30
0.0
 10
237.485776
 20
220.545524
 30
0.0
  0
LWPOLYLINE
  5
13b
100
AcDbEntity
  8
Layer_1
 62
5
100
AcDbPolyline
 90
8
 70
0
 10
310.030456
 20
241.731596
 30
0.0
 10
306.384608
 20
226.837332
 30
0.0
 10
317.504272
 20
216.229172
 30
0.0
 10
332.214784
 20
220.525260
 30
0.0
 10
335.877632
 20
235.450524
 30
0.0
 10
324.788968
 20
246.041692
 30
0.0
 10
310.030456
 20
241.731596
 30
0.0
 10
310.030456
 20
241.731596
 30
0.0
  0
LWPOLYLINE
  5
13c
100
AcDbEntity
  8
Layer_1
 62
5
100
AcDbPolyline
 90
7
 70
0
 10
382.575144
 20
262.917668
 30
0.0
 10
378.929288
 20
248.023404
 30
0.0
 10
387.697176
 20
239.671436
 30
0.0
 10
391.149424
 20
241.851628
 30
0.0
 10
391.070304
 20
265.398604
 30
0.0
 10
382.575168
 20
262.917668
 30
0.0
 10
382.575144
 20
262.917668
 30
0.0
  0
LWPOLYLINE
  5
13d
100
AcDbEntity
  8
Layer_1
 62
5
100
AcDbPolyline
 90
8
 70
0
 10
207.319672
 20
188.999100
 30
0.0
 10
203.680832
 20
174.080836
 30
0.0
 10
214.793488
 20
163.496676
 30
0.0
 10
229.480008
 20
167.785756
 30
0.0
 10
233.149856
 20
182.687020
 30
0.0
 10
222.078184
 20
193.309196
 30
0.0
 10
207.319672
 20
188.999100
 30
0.0
 10
207.319672
 20
188.999100
 30
0.0
  0
LWPOLYLINE
  5
13e
100
AcDbEntity
  8
Layer_1
 62
5
100
AcDbPolyline
 90
8
 70
0
 10
279.864360
 20
210.185164
 30
0.0
 10
276.225512
 20
195.266908
 30
0.0
 10
287.338168
 20
184.682748
 30
0.0
 10
302.048688
 20
188.978836
 30
0.0
 10
305.718536
 20
203.880100
 30
0.0
 10
294.622872
 20
214.495268
 30
0.0
 10
279.864360
 20
210.185164
 30
0.0
 10
279.864360
 20
210.185164
 30
0.0
  0
LWPOLYLINE
  5
13f
100
AcDbEntity
  8
Layer_1
 62
5
100
AcDbPolyline
 90
7
 70
0
 10
352.409040
 20
231.371236
 30
0.0
 10
348.770192
 20
216.452980
 30
0.0
 10
349.702496
 20
215.579300
 30
0.0
 10
372.841424
 20
230.254300
 30
0.0
 10
367.167552
 20
235.681340
 30
0.0
 10
352.409040
 20
231.371236
 30
0.0
 10
352.409040
 20
231.371236
 30
0.0
  0
LWPOLYLINE
  5
140
100
AcDbEntity
  8
Layer_1
 62
5
100
AcDbPolyline
 90
8
 70
0
 10
249.729264
 20
178.621756
 30
0.0
 10
246.083408
 20
163.727492
 30
0.0
 10
254.789296
 20
155.409460
 30
0.0
 10
274.458968
 20
167.873340
 30
0.0
 10
275.552440
 20
172.333676
 30
0.0
 10
264.463776
 20
182.924844
 30
0.0
 10
249.729264
 20
178.621756
 30
0.0
 10
249.729264
 20
178.621756
 30
0.0
  0
LWPOLYLINE
  5
141
100
AcDbEntity
  8
Layer_1
 62
5
100
AcDbPolyline
 90
5
 70
0
 10
322.273944
 20
199.807820
 30
0.0
 10
321.814600
 20
197.902668
 30
0.0
 10
327.001472
 20
201.188460
 30
0.0
 10
322.273944
 20
199.807820
 30
0.0
 10
322.273944
 20
199.807820
 30
0.0
  0
LWPOLYLINE
  5
142
100
AcDbEntity
  8
Layer_1
 62
5
100
AcDbPolyline
 90
9
 70
0
 10
200.887032
 20
153.236876
 30
0.0
 10
200.991056
 20
121.310948
 30
0.0
 10
239.998512
 20
146.037428
 30
0.0
 10
234.324632
 20
151.464468
 30
0.0
 10
214.862600
 20
145.780740
 30
0.0
 10
210.135072
 20
144.400108
 30
0.0
 10
206.560904
 20
147.809836
 30
0.0
 10
200.887032
 20
153.236876
 30
0.0
 10
200.887032
 20
153.236876
 30
0.0
  0
LWPOLYLINE
  5
143
100
AcDbEntity
  8
Layer_1
 62
1
100
AcDbPolyline
 90
5
 70
0
 10
200.225152
 20
346.465948
 30
0.0
 10
390.400664
 20
467.003012
 30
0.0
 10
391.157736
 20
241.846932
 30
0.0
 10
200.982224
 20
121.309868
 30
0.0
 10
200.225152
 20
346.465948
 30
0.0
  0
LWPOLYLINE
  5
144
100
AcDbEntity
  8
Layer_1
 62
5
100
AcDbPolyline
 90
8
 70
0
 10
575.217296
 20
584.273212
 30
0.0
 10
552.605256
 20
569.934404
 30
0.0
 10
552.444496
 20
569.236348
 30
0.0
 10
563.581152
 20
558.659196
 30
0.0
 10
578.267672
 20
562.948268
 30
0.0
 10
581.937520
 20
577.849540
 30
0.0
 10
575.217296
 20
584.273212
 30
0.0
 10
575.217296
 20
584.273212
 30
0.0
  0
LWPOLYLINE
  5
145
100
AcDbEntity
  8
Layer_1
 62
5
100
AcDbPolyline
 90
8
 70
0
 10
525.941232
 20
552.615188
 30
0.0
 10
522.302392
 20
537.696924
 30
0.0
 10
533.415048
 20
527.112764
 30
0.0
 10
548.101568
 20
531.401844
 30
0.0
 10
551.771416
 20
546.303108
 30
0.0
 10
540.699744
 20
556.925284
 30
0.0
 10
525.941232
 20
552.615188
 30
0.0
 10
525.941232
 20
552.615188
 30
0.0
  0
LWPOLYLINE
  5
146
100
AcDbEntity
  8
Layer_1
 62
5
100
AcDbPolyline
 90
6
 70
0
 10
478.764424
 20
523.132884
 30
0.0
 10
457.158144
 20
509.452412
 30
0.0
 10
460.870368
 20
505.926692
 30
0.0
 10
475.580880
 20
510.222780
 30
0.0
 10
478.764424
 20
523.132884
 30
0.0
 10
478.764424
 20
523.132884
 30
0.0
  0
LWPOLYLINE
  5
147
100
AcDbEntity
  8
Layer_1
 62
5
100
AcDbPolyline
 90
8
 70
0
 10
495.782144
 20
521.044764
 30
0.0
 10
492.136288
 20
506.150500
 30
0.0
 10
503.255960
 20
495.542340
 30
0.0
 10
517.942472
 20
499.831420
 30
0.0
 10
521.629320
 20
514.763692
 30
0.0
 10
510.540656
 20
525.354860
 30
0.0
 10
495.782144
 20
521.044764
 30
0.0
 10
495.782144
 20
521.044764
 30
0.0
  0
LWPOLYLINE
  5
148
100
AcDbEntity
  8
Layer_1
 62
5
100
AcDbPolyline
 90
7
 70
0
 10
568.326824
 20
542.230828
 30
0.0
 10
564.680976
 20
527.336572
 30
0.0
 10
575.800640
 20
516.728412
 30
0.0
 10
582.975920
 20
518.823892
 30
0.0
 10
582.869360
 20
546.477860
 30
0.0
 10
568.326824
 20
542.230828
 30
0.0
 10
568.326824
 20
542.230828
 30
0.0
  0
LWPOLYLINE
  5
149
100
AcDbEntity
  8
Layer_1
 62
5
100
AcDbPolyline
 90
8
 70
0
 10
442.326400
 20
500.042284
 30
0.0
 10
419.779336
 20
485.748492
 30
0.0
 10
419.591608
 20
484.964428
 30
0.0
 10
430.711272
 20
474.356268
 30
0.0
 10
445.421792
 20
478.652356
 30
0.0
 10
449.084632
 20
493.577620
 30
0.0
 10
442.326400
 20
500.042284
 30
0.0
 10
442.326400
 20
500.042284
 30
0.0
  0
LWPOLYLINE
  5
14a
100
AcDbEntity
  8
Layer_1
 62
5
100
AcDbPolyline
 90
9
 70
0
 10
393.095360
 20
468.319276
 30
0.0
 10
392.569120
 20
466.108092
 30
0.0
 10
392.602560
 20
450.387100
 30
0.0
 10
400.569176
 20
442.816852
 30
0.0
 10
415.255696
 20
447.105932
 30
0.0
 10
418.925552
 20
462.007196
 30
0.0
 10
407.829880
 20
472.622364
 30
0.0
 10
393.095368
 20
468.319276
 30
0.0
 10
393.095360
 20
468.319276
 30
0.0
  0
LWPOLYLINE
  5
14b
100
AcDbEntity
  8
Layer_1
 62
5
100
AcDbPolyline
 90
8
 70
0
 10
465.640040
 20
489.505340
 30
0.0
 10
462.001200
 20
474.587084
 30
0.0
 10
473.113856
 20
464.002924
 30
0.0
 10
487.800376
 20
468.291996
 30
0.0
 10
491.470224
 20
483.193268
 30
0.0
 10
480.398552
 20
493.815444
 30
0.0
 10
465.640040
 20
489.505340
 30
0.0
 10
465.640040
 20
489.505340
 30
0.0
  0
LWPOLYLINE
  5
14c
100
AcDbEntity
  8
Layer_1
 62
5
100
AcDbPolyline
 90
8
 70
0
 10
538.184728
 20
510.691412
 30
0.0
 10
534.545880
 20
495.773156
 30
0.0
 10
545.658536
 20
485.188996
 30
0.0
 10
560.345056
 20
489.478068
 30
0.0
 10
564.014904
 20
504.379340
 30
0.0
 10
552.919240
 20
514.994508
 30
0.0
 10
538.184728
 20
510.691412
 30
0.0
 10
538.184728
 20
510.691412
 30
0.0
  0
LWPOLYLINE
  5
14d
100
AcDbEntity
  8
Layer_1
 62
5
100
AcDbPolyline
 90
8
 70
0
 10
508.018624
 20
479.144988
 30
0.0
 10
504.379776
 20
464.226732
 30
0.0
 10
515.492440
 20
453.642572
 30
0.0
 10
530.202952
 20
457.938652
 30
0.0
 10
533.872808
 20
472.839924
 30
0.0
 10
522.777136
 20
483.455084
 30
0.0
 10
508.018624
 20
479.144988
 30
0.0
 10
508.018624
 20
479.144988
 30
0.0
  0
LWPOLYLINE
  5
14e
100
AcDbEntity
  8
Layer_1
 62
5
100
AcDbPolyline
 90
8
 70
0
 10
435.480952
 20
457.934916
 30
0.0
 10
431.835096
 20
443.040660
 30
0.0
 10
442.971752
 20
432.463508
 30
0.0
 10
457.658272
 20
436.752580
 30
0.0
 10
461.328120
 20
451.653852
 30
0.0
 10
450.239464
 20
462.245020
 30
0.0
 10
435.480952
 20
457.934916
 30
0.0
 10
435.480952
 20
457.934916
 30
0.0
  0
LWPOLYLINE
  5
14f
100
AcDbEntity
  8
Layer_1
 62
5
100
AcDbPolyline
 90
6
 70
0
 10
580.570312
 20
500.307060
 30
0.0
 10
576.924464
 20
485.412796
 30
0.0
 10
583.088488
 20
479.555932
 30
0.0
 10
583.018088
 20
501.021908
 30
0.0
 10
580.570328
 20
500.307060
 30
0.0
 10
580.570312
 20
500.307060
 30
0.0
  0
LWPOLYLINE
  5
150
100
AcDbEntity
  8
Layer_1
 62
5
100
AcDbPolyline
 90
8
 70
0
 10
405.338848
 20
426.395500
 30
0.0
 10
401.692992
 20
411.501244
 30
0.0
 10
412.812664
 20
400.893084
 30
0.0
 10
427.499176
 20
405.182156
 30
0.0
 10
431.162024
 20
420.107428
 30
0.0
 10
420.097360
 20
430.705604
 30
0.0
 10
405.338848
 20
426.395500
 30
0.0
 10
405.338848
 20
426.395500
 30
0.0
  0
LWPOLYLINE
  5
151
100
AcDbEntity
  8
Layer_1
 62
5
100
AcDbPolyline
 90
8
 70
0
 10
477.883528
 20
447.581572
 30
0.0
 10
474.237680
 20
432.687308
 30
0.0
 10
485.357344
 20
422.079156
 30
0.0
 10
500.067856
 20
426.375236
 30
0.0
 10
503.730704
 20
441.300500
 30
0.0
 10
492.642040
 20
451.891668
 30
0.0
 10
477.883528
 20
447.581572
 30
0.0
 10
477.883528
 20
447.581572
 30
0.0
  0
LWPOLYLINE
  5
152
100
AcDbEntity
  8
Layer_1
 62
5
100
AcDbPolyline
 90
8
 70
0
 10
550.428216
 20
468.767644
 30
0.0
 10
546.782360
 20
453.873380
 30
0.0
 10
557.902024
 20
443.265220
 30
0.0
 10
572.588544
 20
447.554300
 30
0.0
 10
576.251384
 20
462.479564
 30
0.0
 10
565.186720
 20
473.077740
 30
0.0
 10
550.428216
 20
468.767644
 30
0.0
 10
550.428216
 20
468.767644
 30
0.0
  0
LWPOLYLINE
  5
153
100
AcDbEntity
  8
Layer_1
 62
5
100
AcDbPolyline
 90
8
 70
0
 10
447.717432
 20
416.035148
 30
0.0
 10
444.078584
 20
401.116884
 30
0.0
 10
455.191240
 20
390.532724
 30
0.0
 10
469.901760
 20
394.828812
 30
0.0
 10
473.571608
 20
409.730076
 30
0.0
 10
462.475944
 20
420.345244
 30
0.0
 10
447.717432
 20
416.035148
 30
0.0
 10
447.717432
 20
416.035148
 30
0.0
  0
LWPOLYLINE
  5
154
100
AcDbEntity
  8
Layer_1
 62
5
100
AcDbPolyline
 90
8
 70
0
 10
520.262112
 20
437.221212
 30
0.0
 10
516.623264
 20
422.302956
 30
0.0
 10
527.735928
 20
411.718796
 30
0.0
 10
542.422448
 20
416.007876
 30
0.0
 10
546.116296
 20
430.916148
 30
0.0
 10
535.020624
 20
441.531316
 30
0.0
 10
520.262112
 20
437.221212
 30
0.0
 10
520.262112
 20
437.221212
 30
0.0
  0
LWPOLYLINE
  5
155
100
AcDbEntity
  8
Layer_1
 62
5
100
AcDbPolyline
 90
6
 70
0
 10
392.794208
 20
396.401164
 30
0.0
 10
392.869568
 20
372.332188
 30
0.0
 10
397.333120
 20
373.635732
 30
0.0
 10
401.002968
 20
388.537004
 30
0.0
 10
392.794248
 20
396.401164
 30
0.0
 10
392.794208
 20
396.401164
 30
0.0
  0
LWPOLYLINE
  5
156
100
AcDbEntity
  8
Layer_1
 62
5
100
AcDbPolyline
 90
8
 70
0
 10
417.575328
 20
384.495724
 30
0.0
 10
413.936480
 20
369.577468
 30
0.0
 10
425.049144
 20
358.993308
 30
0.0
 10
439.735656
 20
363.282380
 30
0.0
 10
443.405512
 20
378.183652
 30
0.0
 10
432.309840
 20
388.798820
 30
0.0
 10
417.575328
 20
384.495724
 30
0.0
 10
417.575328
 20
384.495724
 30
0.0
  0
LWPOLYLINE
  5
157
100
AcDbEntity
  8
Layer_1
 62
5
100
AcDbPolyline
 90
8
 70
0
 10
490.120008
 20
405.681796
 30
0.0
 10
486.481168
 20
390.763540
 30
0.0
 10
497.593824
 20
380.179380
 30
0.0
 10
512.280344
 20
384.468452
 30
0.0
 10
515.950192
 20
399.369724
 30
0.0
 10
504.878520
 20
409.991900
 30
0.0
 10
490.120008
 20
405.681796
 30
0.0
 10
490.120008
 20
405.681796
 30
0.0
  0
LWPOLYLINE
  5
158
100
AcDbEntity
  8
Layer_1
 62
5
100
AcDbPolyline
 90
8
 70
0
 10
562.664696
 20
426.867868
 30
0.0
 10
559.025848
 20
411.949612
 30
0.0
 10
570.138504
 20
401.365452
 30
0.0
 10
583.337176
 20
405.220012
 30
0.0
 10
583.287176
 20
425.545996
 30
0.0
 10
577.399232
 20
431.170964
 30
0.0
 10
562.664720
 20
426.867868
 30
0.0
 10
562.664696
 20
426.867868
 30
0.0
  0
LWPOLYLINE
  5
159
100
AcDbEntity
  8
Layer_1
 62
5
100
AcDbPolyline
 90
8
 70
0
 10
392.935680
 20
354.537212
 30
0.0
 10
393.018440
 20
329.194236
 30
0.0
 10
394.890048
 20
327.422884
 30
0.0
 10
409.600568
 20
331.718972
 30
0.0
 10
413.263408
 20
346.644236
 30
0.0
 10
402.174744
 20
357.235404
 30
0.0
 10
392.935680
 20
354.537212
 30
0.0
 10
392.935680
 20
354.537212
 30
0.0
  0
LWPOLYLINE
  5
15a
100
AcDbEntity
  8
Layer_1
 62
5
100
AcDbPolyline
 90
8
 70
0
 10
459.960920
 20
374.111372
 30
0.0
 10
456.315064
 20
359.217116
 30
0.0
 10
467.458728
 20
348.615964
 30
0.0
 10
482.145248
 20
352.905036
 30
0.0
 10
485.808088
 20
367.830308
 30
0.0
 10
474.719432
 20
378.421476
 30
0.0
 10
459.960920
 20
374.111372
 30
0.0
 10
459.960920
 20
374.111372
 30
0.0
  0
LWPOLYLINE
  5
15b
100
AcDbEntity
  8
Layer_1
 62
5
100
AcDbPolyline
 90
8
 70
0
 10
532.505600
 20
395.297444
 30
0.0
 10
528.859744
 20
380.403180
 30
0.0
 10
539.979416
 20
369.795028
 30
0.0
 10
554.689928
 20
374.091108
 30
0.0
 10
558.352776
 20
389.016372
 30
0.0
 10
547.264112
 20
399.607548
 30
0.0
 10
532.505600
 20
395.297444
 30
0.0
 10
532.505600
 20
395.297444
 30
0.0
  0
LWPOLYLINE
  5
15c
100
AcDbEntity
  8
Layer_1
 62
5
100
AcDbPolyline
 90
8
 70
0
 10
429.818816
 20
342.571956
 30
0.0
 10
426.172960
 20
327.677692
 30
0.0
 10
437.292632
 20
317.069540
 30
0.0
 10
451.979144
 20
321.358612
 30
0.0
 10
455.641992
 20
336.283876
 30
0.0
 10
444.577328
 20
346.882060
 30
0.0
 10
429.818816
 20
342.571956
 30
0.0
 10
429.818816
 20
342.571956
 30
0.0
  0
LWPOLYLINE
  5
15d
100
AcDbEntity
  8
Layer_1
 62
5
100
AcDbPolyline
 90
8
 70
0
 10
502.363496
 20
363.758028
 30
0.0
 10
498.717648
 20
348.863764
 30
0.0
 10
509.837312
 20
338.255604
 30
0.0
 10
524.547824
 20
342.551692
 30
0.0
 10
528.210672
 20
357.476956
 30
0.0
 10
517.122008
 20
368.068124
 30
0.0
 10
502.363496
 20
363.758028
 30
0.0
 10
502.363496
 20
363.758028
 30
0.0
  0
LWPOLYLINE
  5
15e
100
AcDbEntity
  8
Layer_1
 62
5
100
AcDbPolyline
 90
7
 70
0
 10
574.908184
 20
384.944100
 30
0.0
 10
571.262328
 20
370.049836
 30
0.0
 10
580.030216
 20
361.697868
 30
0.0
 10
583.482464
 20
363.878060
 30
0.0
 10
583.403344
 20
387.425036
 30
0.0
 10
574.908200
 20
384.944100
 30
0.0
 10
574.908184
 20
384.944100
 30
0.0
  0
LWPOLYLINE
  5
15f
100
AcDbEntity
  8
Layer_1
 62
5
100
AcDbPolyline
 90
8
 70
0
 10
399.652712
 20
311.025532
 30
0.0
 10
396.013872
 20
296.107268
 30
0.0
 10
407.126528
 20
285.523108
 30
0.0
 10
421.813048
 20
289.812188
 30
0.0
 10
425.482896
 20
304.713452
 30
0.0
 10
414.411224
 20
315.335628
 30
0.0
 10
399.652712
 20
311.025532
 30
0.0
 10
399.652712
 20
311.025532
 30
0.0
  0
LWPOLYLINE
  5
160
100
AcDbEntity
  8
Layer_1
 62
5
100
AcDbPolyline
 90
8
 70
0
 10
472.197400
 20
332.211596
 30
0.0
 10
468.558552
 20
317.293340
 30
0.0
 10
479.671208
 20
306.709180
 30
0.0
 10
494.381728
 20
311.005268
 30
0.0
 10
498.051576
 20
325.906532
 30
0.0
 10
486.955912
 20
336.521700
 30
0.0
 10
472.197400
 20
332.211596
 30
0.0
 10
472.197400
 20
332.211596
 30
0.0
  0
LWPOLYLINE
  5
161
100
AcDbEntity
  8
Layer_1
 62
5
100
AcDbPolyline
 90
7
 70
0
 10
544.742080
 20
353.397668
 30
0.0
 10
541.103232
 20
338.479412
 30
0.0
 10
542.035536
 20
337.605732
 30
0.0
 10
565.174464
 20
352.280732
 30
0.0
 10
559.500592
 20
357.707772
 30
0.0
 10
544.742080
 20
353.397668
 30
0.0
 10
544.742080
 20
353.397668
 30
0.0
  0
LWPOLYLINE
  5
162
100
AcDbEntity
  8
Layer_1
 62
5
100
AcDbPolyline
 90
8
 70
0
 10
442.062304
 20
300.648188
 30
0.0
 10
438.416448
 20
285.753924
 30
0.0
 10
447.122336
 20
277.435892
 30
0.0
 10
466.792008
 20
289.899772
 30
0.0
 10
467.885480
 20
294.360108
 30
0.0
 10
456.796816
 20
304.951276
 30
0.0
 10
442.062304
 20
300.648188
 30
0.0
 10
442.062304
 20
300.648188
 30
0.0
  0
LWPOLYLINE
  5
163
100
AcDbEntity
  8
Layer_1
 62
5
100
AcDbPolyline
 90
5
 70
0
 10
514.606984
 20
321.834252
 30
0.0
 10
514.147648
 20
319.929100
 30
0.0
 10
519.334512
 20
323.214892
 30
0.0
 10
514.606984
 20
321.834252
 30
0.0
 10
514.606984
 20
321.834252
 30
0.0
  0
LWPOLYLINE
  5
164
100
AcDbEntity
  8
Layer_1
 62
5
100
AcDbPolyline
 90
9
 70
0
 10
393.220072
 20
275.263308
 30
0.0
 10
393.324096
 20
243.337380
 30
0.0
 10
432.331552
 20
268.063860
 30
0.0
 10
426.657680
 20
273.490900
 30
0.0
 10
407.195640
 20
267.807172
 30
0.0
 10
402.468120
 20
266.426540
 30
0.0
 10
398.893952
 20
269.836268
 30
0.0
 10
393.220072
 20
275.263308
 30
0.0
 10
393.220072
 20
275.263308
 30
0.0
  0
LWPOLYLINE
  5
165
100
AcDbEntity
  8
Layer_1
 62
1
100
AcDbPolyline
 90
5
 70
0
 10
392.558192
 20
468.492380
 30
0.0
 10
582.733704
 20
589.029444
 30
0.0
 10
583.490776
 20
363.873364
 30
0.0
 10
393.315264
 20
243.336300
 30
0.0
 10
392.558192
 20
468.492380
 30
0.0
  0
LWPOLYLINE
  5
166
100
AcDbEntity
  8
Layer_1
 62
5
100
AcDbPolyline
 90
8
 70
0
 10
190.800832
 20
571.821140
 30
0.0
 10
168.188792
 20
557.482332
 30
0.0
 10
168.028032
 20
556.784276
 30
0.0
 10
179.164688
 20
546.207124
 30
0.0
 10
193.851208
 20
550.496196
 30
0.0
 10
197.521056
 20
565.397468
 30
0.0
 10
190.800832
 20
571.821140
 30
0.0
 10
190.800832
 20
571.821140
 30
0.0
  0
LWPOLYLINE
  5
167
100
AcDbEntity
  8
Layer_1
 62
5
100
AcDbPolyline
 90
8
 70
0
 10
141.524768
 20
540.163116
 30
0.0
 10
137.885928
 20
525.244852
 30
0.0
 10
148.998584
 20
514.660692
 30
0.0
 10
163.685104
 20
518.949772
 30
0.0
 10
167.354952
 20
533.851036
 30
0.0
 10
156.283280
 20
544.473212
 30
0.0
 10
141.524768
 20
540.163116
 30
0.0
 10
141.524768
 20
540.163116
 30
0.0
  0
LWPOLYLINE
  5
168
100
AcDbEntity
  8
Layer_1
 62
5
100
AcDbPolyline
 90
6
 70
0
 10
94.347960
 20
510.680812
 30
0.0
 10
72.741684
 20
497.000340
 30
0.0
 10
76.453902
 20
493.474620
 30
0.0
 10
91.164416
 20
497.770708
 30
0.0
 10
94.347960
 20
510.680812
 30
0.0
 10
94.347960
 20
510.680812
 30
0.0
  0
LWPOLYLINE
  5
169
100
AcDbEntity
  8
Layer_1
 62
5
100
AcDbPolyline
 90
8
 70
0
 10
111.365680
 20
508.592692
 30
0.0
 10
107.719824
 20
493.698428
 30
0.0
 10
118.839496
 20
483.090268
 30
0.0
 10
133.526008
 20
487.379348
 30
0.0
 10
137.212856
 20
502.311620
 30
0.0
 10
126.124192
 20
512.902788
 30
0.0
 10
111.365680
 20
508.592692
 30
0.0
 10
111.365680
 20
508.592692
 30
0.0
  0
LWPOLYLINE
  5
16a
100
AcDbEntity
  8
Layer_1
 62
5
100
AcDbPolyline
 90
7
 70
0
 10
183.910360
 20
529.778756
 30
0.0
 10
180.264512
 20
514.884500
 30
0.0
 10
191.384176
 20
504.276340
 30
0.0
 10
198.559456
 20
506.371820
 30
0.0
 10
198.452896
 20
534.025788
 30
0.0
 10
183.910360
 20
529.778756
 30
0.0
 10
183.910360
 20
529.778756
 30
0.0
  0
LWPOLYLINE
  5
16b
100
AcDbEntity
  8
Layer_1
 62
5
100
AcDbPolyline
 90
8
 70
0
 10
57.909935
 20
487.590212
 30
0.0
 10
35.362873
 20
473.296420
 30
0.0
 10
35.175144
 20
472.512356
 30
0.0
 10
46.294810
 20
461.904196
 30
0.0
 10
61.005326
 20
466.200284
 30
0.0
 10
64.668170
 20
481.125548
 30
0.0
 10
57.909935
 20
487.590212
 30
0.0
 10
57.909935
 20
487.590212
 30
0.0
  0
LWPOLYLINE
  5
16c
100
AcDbEntity
  8
Layer_1
 62
5
100
AcDbPolyline
 90
9
 70
0
 10
8.678894
 20
455.867204
 30
0.0
 10
8.152658
 20
453.656020
 30
0.0
 10
8.186090
 20
437.935028
 30
0.0
 10
16.152707
 20
430.364780
 30
0.0
 10
30.839226
 20
434.653860
 30
0.0
 10
34.509077
 20
449.555124
 30
0.0
 10
23.413407
 20
460.170292
 30
0.0
 10
8.678894
 20
455.867204
 30
0.0
 10
8.678894
 20
455.867204
 30
0.0
  0
LWPOLYLINE
  5
16d
100
AcDbEntity
  8
Layer_1
 62
5
100
AcDbPolyline
 90
8
 70
0
 10
81.223576
 20
477.053268
 30
0.0
 10
77.584733
 20
462.135012
 30
0.0
 10
88.697392
 20
451.550852
 30
0.0
 10
103.383912
 20
455.839924
 30
0.0
 10
107.053760
 20
470.741196
 30
0.0
 10
95.982088
 20
481.363372
 30
0.0
 10
81.223576
 20
477.053268
 30
0.0
 10
81.223576
 20
477.053268
 30
0.0
  0
LWPOLYLINE
  5
16e
100
AcDbEntity
  8
Layer_1
 62
5
100
AcDbPolyline
 90
8
 70
0
 10
153.768264
 20
498.239340
 30
0.0
 10
150.129416
 20
483.321084
 30
0.0
 10
161.242072
 20
472.736924
 30
0.0
 10
175.928592
 20
477.025996
 30
0.0
 10
179.598440
 20
491.927268
 30
0.0
 10
168.502776
 20
502.542436
 30
0.0
 10
153.768264
 20
498.239340
 30
0.0
 10
153.768264
 20
498.239340
 30
0.0
  0
LWPOLYLINE
  5
16f
100
AcDbEntity
  8
Layer_1
 62
5
100
AcDbPolyline
 90
8
 70
0
 10
123.602160
 20
466.692916
 30
0.0
 10
119.963312
 20
451.774660
 30
0.0
 10
131.075976
 20
441.190500
 30
0.0
 10
145.786488
 20
445.486580
 30
0.0
 10
149.456344
 20
460.387852
 30
0.0
 10
138.360672
 20
471.003012
 30
0.0
 10
123.602160
 20
466.692916
 30
0.0
 10
123.602160
 20
466.692916
 30
0.0
  0
LWPOLYLINE
  5
170
100
AcDbEntity
  8
Layer_1
 62
5
100
AcDbPolyline
 90
8
 70
0
 10
51.064486
 20
445.482844
 30
0.0
 10
47.418632
 20
430.588588
 30
0.0
 10
58.555288
 20
420.011436
 30
0.0
 10
73.241806
 20
424.300508
 30
0.0
 10
76.911658
 20
439.201780
 30
0.0
 10
65.822997
 20
449.792948
 30
0.0
 10
51.064486
 20
445.482844
 30
0.0
 10
51.064486
 20
445.482844
 30
0.0
  0
LWPOLYLINE
  5
171
100
AcDbEntity
  8
Layer_1
 62
5
100
AcDbPolyline
 90
6
 70
0
 10
196.153848
 20
487.854988
 30
0.0
 10
192.508000
 20
472.960724
 30
0.0
 10
198.672024
 20
467.103860
 30
0.0
 10
198.601624
 20
488.569836
 30
0.0
 10
196.153864
 20
487.854988
 30
0.0
 10
196.153848
 20
487.854988
 30
0.0
  0
LWPOLYLINE
  5
172
100
AcDbEntity
  8
Layer_1
 62
5
100
AcDbPolyline
 90
8
 70
0
 10
20.922383
 20
413.943428
 30
0.0
 10
17.276530
 20
399.049172
 30
0.0
 10
28.396196
 20
388.441012
 30
0.0
 10
43.082715
 20
392.730084
 30
0.0
 10
46.745558
 20
407.655356
 30
0.0
 10
35.680894
 20
418.253532
 30
0.0
 10
20.922383
 20
413.943428
 30
0.0
 10
20.922383
 20
413.943428
 30
0.0
  0
LWPOLYLINE
  5
173
100
AcDbEntity
  8
Layer_1
 62
5
100
AcDbPolyline
 90
8
 70
0
 10
93.467064
 20
435.129500
 30
0.0
 10
89.821216
 20
420.235236
 30
0.0
 10
100.940880
 20
409.627084
 30
0.0
 10
115.651392
 20
413.923164
 30
0.0
 10
119.314240
 20
428.848428
 30
0.0
 10
108.225576
 20
439.439596
 30
0.0
 10
93.467064
 20
435.129500
 30
0.0
 10
93.467064
 20
435.129500
 30
0.0
  0
LWPOLYLINE
  5
174
100
AcDbEntity
  8
Layer_1
 62
5
100
AcDbPolyline
 90
8
 70
0
 10
166.011752
 20
456.315572
 30
0.0
 10
162.365896
 20
441.421308
 30
0.0
 10
173.485560
 20
430.813148
 30
0.0
 10
188.172080
 20
435.102228
 30
0.0
 10
191.834920
 20
450.027492
 30
0.0
 10
180.770256
 20
460.625668
 30
0.0
 10
166.011752
 20
456.315572
 30
0.0
 10
166.011752
 20
456.315572
 30
0.0
  0
LWPOLYLINE
  5
175
100
AcDbEntity
  8
Layer_1
 62
5
100
AcDbPolyline
 90
8
 70
0
 10
63.300966
 20
403.583076
 30
0.0
 10
59.662121
 20
388.664812
 30
0.0
 10
70.774779
 20
378.080652
 30
0.0
 10
85.485296
 20
382.376740
 30
0.0
 10
89.155144
 20
397.278004
 30
0.0
 10
78.059477
 20
407.893172
 30
0.0
 10
63.300966
 20
403.583076
 30
0.0
 10
63.300966
 20
403.583076
 30
0.0
  0
LWPOLYLINE
  5
176
100
AcDbEntity
  8
Layer_1
 62
5
100
AcDbPolyline
 90
8
 70
0
 10
135.845648
 20
424.769140
 30
0.0
 10
132.206800
 20
409.850884
 30
0.0
 10
143.319464
 20
399.266724
 30
0.0
 10
158.005984
 20
403.555804
 30
0.0
 10
161.699832
 20
418.464076
 30
0.0
 10
150.604160
 20
429.079244
 30
0.0
 10
135.845648
 20
424.769140
 30
0.0
 10
135.845648
 20
424.769140
 30
0.0
  0
LWPOLYLINE
  5
177
100
AcDbEntity
  8
Layer_1
 62
5
100
AcDbPolyline
 90
6
 70
0
 10
8.377747
 20
383.949092
 30
0.0
 10
8.453067
 20
359.880116
 30
0.0
 10
12.916617
 20
361.183660
 30
0.0
 10
16.586468
 20
376.084932
 30
0.0
 10
8.377750
 20
383.949092
 30
0.0
 10
8.377747
 20
383.949092
 30
0.0
  0
LWPOLYLINE
  5
178
100
AcDbEntity
  8
Layer_1
 62
5
100
AcDbPolyline
 90
8
 70
0
 10
33.158863
 20
372.043652
 30
0.0
 10
29.520018
 20
357.125396
 30
0.0
 10
40.632676
 20
346.541236
 30
0.0
 10
55.319195
 20
350.830308
 30
0.0
 10
58.989046
 20
365.731580
 30
0.0
 10
47.893377
 20
376.346748
 30
0.0
 10
33.158863
 20
372.043652
 30
0.0
 10
33.158863
 20
372.043652
 30
0.0
  0
LWPOLYLINE
  5
179
100
AcDbEntity
  8
Layer_1
 62
5
100
AcDbPolyline
 90
8
 70
0
 10
105.703544
 20
393.229724
 30
0.0
 10
102.064704
 20
378.311468
 30
0.0
 10
113.177360
 20
367.727308
 30
0.0
 10
127.863880
 20
372.016380
 30
0.0
 10
131.533728
 20
386.917652
 30
0.0
 10
120.462056
 20
397.539828
 30
0.0
 10
105.703544
 20
393.229724
 30
0.0
 10
105.703544
 20
393.229724
 30
0.0
  0
LWPOLYLINE
  5
17a
100
AcDbEntity
  8
Layer_1
 62
5
100
AcDbPolyline
 90
8
 70
0
 10
178.248232
 20
414.415796
 30
0.0
 10
174.609384
 20
399.497540
 30
0.0
 10
185.722040
 20
388.913380
 30
0.0
 10
198.920712
 20
392.767940
 30
0.0
 10
198.870712
 20
413.093924
 30
0.0
 10
192.982768
 20
418.718892
 30
0.0
 10
178.248256
 20
414.415796
 30
0.0
 10
178.248232
 20
414.415796
 30
0.0
  0
LWPOLYLINE
  5
17b
100
AcDbEntity
  8
Layer_1
 62
5
100
AcDbPolyline
 90
8
 70
0
 10
8.519214
 20
342.085140
 30
0.0
 10
8.601972
 20
316.742164
 30
0.0
 10
10.473584
 20
314.970812
 30
0.0
 10
25.184101
 20
319.266900
 30
0.0
 10
28.846943
 20
334.192164
 30
0.0
 10
17.758282
 20
344.783332
 30
0.0
 10
8.519214
 20
342.085140
 30
0.0
 10
8.519214
 20
342.085140
 30
0.0
  0
LWPOLYLINE
  5
17c
100
AcDbEntity
  8
Layer_1
 62
5
100
AcDbPolyline
 90
8
 70
0
 10
75.544454
 20
361.659300
 30
0.0
 10
71.898601
 20
346.765044
 30
0.0
 10
83.042264
 20
336.163892
 30
0.0
 10
97.728784
 20
340.452964
 30
0.0
 10
101.391624
 20
355.378236
 30
0.0
 10
90.302968
 20
365.969404
 30
0.0
 10
75.544454
 20
361.659300
 30
0.0
 10
75.544454
 20
361.659300
 30
0.0
  0
LWPOLYLINE
  5
17d
100
AcDbEntity
  8
Layer_1
 62
5
100
AcDbPolyline
 90
8
 70
0
 10
148.089136
 20
382.845372
 30
0.0
 10
144.443280
 20
367.951108
 30
0.0
 10
155.562952
 20
357.342956
 30
0.0
 10
170.273464
 20
361.639036
 30
0.0
 10
173.936312
 20
376.564300
 30
0.0
 10
162.847648
 20
387.155476
 30
0.0
 10
148.089136
 20
382.845372
 30
0.0
 10
148.089136
 20
382.845372
 30
0.0
  0
LWPOLYLINE
  5
17e
100
AcDbEntity
  8
Layer_1
 62
5
100
AcDbPolyline
 90
8
 70
0
 10
45.402351
 20
330.119884
 30
0.0
 10
41.756498
 20
315.225620
 30
0.0
 10
52.876165
 20
304.617468
 30
0.0
 10
67.562683
 20
308.906540
 30
0.0
 10
71.225526
 20
323.831804
 30
0.0
 10
60.160862
 20
334.429988
 30
0.0
 10
45.402351
 20
330.119884
 30
0.0
 10
45.402351
 20
330.119884
 30
0.0
  0
LWPOLYLINE
  5
17f
100
AcDbEntity
  8
Layer_1
 62
5
100
AcDbPolyline
 90
8
 70
0
 10
117.947032
 20
351.305956
 30
0.0
 10
114.301184
 20
336.411692
 30
0.0
 10
125.420848
 20
325.803532
 30
0.0
 10
140.131360
 20
330.099620
 30
0.0
 10
143.794208
 20
345.024884
 30
0.0
 10
132.705544
 20
355.616052
 30
0.0
 10
117.947032
 20
351.305956
 30
0.0
 10
117.947032
 20
351.305956
 30
0.0
  0
LWPOLYLINE
  5
180
100
AcDbEntity
  8
Layer_1
 62
5
100
AcDbPolyline
 90
7
 70
0
 10
190.491720
 20
372.492028
 30
0.0
 10
186.845864
 20
357.597764
 30
0.0
 10
195.613752
 20
349.245796
 30
0.0
 10
199.066000
 20
351.425988
 30
0.0
 10
198.986880
 20
374.972964
 30
0.0
 10
190.491736
 20
372.492028
 30
0.0
 10
190.491720
 20
372.492028
 30
0.0
  0
LWPOLYLINE
  5
181
100
AcDbEntity
  8
Layer_1
 62
5
100
AcDbPolyline
 90
8
 70
0
 10
15.236251
 20
298.573460
 30
0.0
 10
11.597406
 20
283.655196
 30
0.0
 10
22.710064
 20
273.071036
 30
0.0
 10
37.396583
 20
277.360116
 30
0.0
 10
41.066434
 20
292.261380
 30
0.0
 10
29.994762
 20
302.883556
 30
0.0
 10
15.236251
 20
298.573460
 30
0.0
 10
15.236251
 20
298.573460
 30
0.0
  0
LWPOLYLINE
  5
182
100
AcDbEntity
  8
Layer_1
 62
5
100
AcDbPolyline
 90
8
 70
0
 10
87.780936
 20
319.759524
 30
0.0
 10
84.142088
 20
304.841268
 30
0.0
 10
95.254744
 20
294.257108
 30
0.0
 10
109.965264
 20
298.553196
 30
0.0
 10
113.635112
 20
313.454460
 30
0.0
 10
102.539448
 20
324.069628
 30
0.0
 10
87.780936
 20
319.759524
 30
0.0
 10
87.780936
 20
319.759524
 30
0.0
  0
LWPOLYLINE
  5
183
100
AcDbEntity
  8
Layer_1
 62
5
100
AcDbPolyline
 90
7
 70
0
 10
160.325616
 20
340.945596
 30
0.0
 10
156.686768
 20
326.027340
 30
0.0
 10
157.619072
 20
325.153660
 30
0.0
 10
180.758000
 20
339.828660
 30
0.0
 10
175.084128
 20
345.255700
 30
0.0
 10
160.325616
 20
340.945596
 30
0.0
 10
160.325616
 20
340.945596
 30
0.0
  0
LWPOLYLINE
  5
184
100
AcDbEntity
  8
Layer_1
 62
5
100
AcDbPolyline
 90
8
 70
0
 10
57.645839
 20
288.196116
 30
0.0
 10
53.999986
 20
273.301852
 30
0.0
 10
62.705873
 20
264.983820
 30
0.0
 10
82.375544
 20
277.447700
 30
0.0
 10
83.469016
 20
281.908036
 30
0.0
 10
72.380354
 20
292.499204
 30
0.0
 10
57.645839
 20
288.196116
 30
0.0
 10
57.645839
 20
288.196116
 30
0.0
  0
LWPOLYLINE
  5
185
100
AcDbEntity
  8
Layer_1
 62
5
100
AcDbPolyline
 90
5
 70
0
 10
130.190520
 20
309.382180
 30
0.0
 10
129.731184
 20
307.477028
 30
0.0
 10
134.918048
 20
310.762820
 30
0.0
 10
130.190520
 20
309.382180
 30
0.0
 10
130.190520
 20
309.382180
 30
0.0
  0
LWPOLYLINE
  5
186
100
AcDbEntity
  8
Layer_1
 62
5
100
AcDbPolyline
 90
9
 70
0
 10
8.803609
 20
262.811236
 30
0.0
 10
8.907630
 20
230.885308
 30
0.0
 10
47.915088
 20
255.611788
 30
0.0
 10
42.241212
 20
261.038828
 30
0.0
 10
22.779175
 20
255.355100
 30
0.0
 10
18.051652
 20
253.974468
 30
0.0
 10
14.477485
 20
257.384196
 30
0.0
 10
8.803609
 20
262.811236
 30
0.0
 10
8.803609
 20
262.811236
 30
0.0
  0
LWPOLYLINE
  5
187
100
AcDbEntity
  8
Layer_1
 62
1
100
AcDbPolyline
 90
5
 70
0
 10
8.141731
 20
456.040308
 30
0.0
 10
198.317240
 20
576.577372
 30
0.0
 10
199.074312
 20
351.421292
 30
0.0
 10
8.898802
 20
230.884228
 30
0.0
 10
8.141731
 20
456.040308
 30
0.0
  0
LWPOLYLINE
  5
188
100
AcDbEntity
  8
Layer_1
 62
5
100
AcDbPolyline
 90
8
 70
0
 10
382.884264
 20
692.989260
 30
0.0
 10
360.272216
 20
678.650452
 30
0.0
 10
360.111456
 20
677.952396
 30
0.0
 10
371.248112
 20
667.375244
 30
0.0
 10
385.934632
 20
671.664316
 30
0.0
 10
389.604480
 20
686.565588
 30
0.0
 10
382.884264
 20
692.989260
 30
0.0
 10
382.884264
 20
692.989260
 30
0.0
  0
LWPOLYLINE
  5
189
100
AcDbEntity
  8
Layer_1
 62
5
100
AcDbPolyline
 90
8
 70
0
 10
333.608200
 20
661.331236
 30
0.0
 10
329.969352
 20
646.412972
 30
0.0
 10
341.082008
 20
635.828812
 30
0.0
 10
355.768528
 20
640.117892
 30
0.0
 10
359.438384
 20
655.019156
 30
0.0
 10
348.366712
 20
665.641332
 30
0.0
 10
333.608200
 20
661.331236
 30
0.0
 10
333.608200
 20
661.331236
 30
0.0
  0
LWPOLYLINE
  5
18a
100
AcDbEntity
  8
Layer_1
 62
5
100
AcDbPolyline
 90
6
 70
0
 10
286.431384
 20
631.848932
 30
0.0
 10
264.825112
 20
618.168460
 30
0.0
 10
268.537328
 20
614.642740
 30
0.0
 10
283.247848
 20
618.938828
 30
0.0
 10
286.431384
 20
631.848932
 30
0.0
 10
286.431384
 20
631.848932
 30
0.0
  0
LWPOLYLINE
  5
18b
100
AcDbEntity
  8
Layer_1
 62
5
100
AcDbPolyline
 90
8
 70
0
 10
303.449104
 20
629.760812
 30
0.0
 10
299.803256
 20
614.866548
 30
0.0
 10
310.922920
 20
604.258388
 30
0.0
 10
325.609440
 20
608.547468
 30
0.0
 10
329.296280
 20
623.479740
 30
0.0
 10
318.207616
 20
634.070908
 30
0.0
 10
303.449104
 20
629.760812
 30
0.0
 10
303.449104
 20
629.760812
 30
0.0
  0
LWPOLYLINE
  5
18c
100
AcDbEntity
  8
Layer_1
 62
5
100
AcDbPolyline
 90
7
 70
0
 10
375.993792
 20
650.946876
 30
0.0
 10
372.347936
 20
636.052620
 30
0.0
 10
383.467600
 20
625.444460
 30
0.0
 10
390.642880
 20
627.539940
 30
0.0
 10
390.536320
 20
655.193908
 30
0.0
 10
375.993792
 20
650.946876
 30
0.0
 10
375.993792
 20
650.946876
 30
0.0
  0
LWPOLYLINE
  5
18d
100
AcDbEntity
  8
Layer_1
 62
5
100
AcDbPolyline
 90
8
 70
0
 10
249.993360
 20
608.758332
 30
0.0
 10
227.446296
 20
594.464540
 30
0.0
 10
227.258568
 20
593.680476
 30
0.0
 10
238.378240
 20
583.072316
 30
0.0
 10
253.088752
 20
587.368404
 30
0.0
 10
256.751592
 20
602.293668
 30
0.0
 10
249.993360
 20
608.758332
 30
0.0
 10
249.993360
 20
608.758332
 30
0.0
  0
LWPOLYLINE
  5
18e
100
AcDbEntity
  8
Layer_1
 62
5
100
AcDbPolyline
 90
9
 70
0
 10
200.762320
 20
577.035324
 30
0.0
 10
200.236088
 20
574.824140
 30
0.0
 10
200.269528
 20
559.103148
 30
0.0
 10
208.236144
 20
551.532900
 30
0.0
 10
222.922664
 20
555.821980
 30
0.0
 10
226.592512
 20
570.723244
 30
0.0
 10
215.496840
 20
581.338412
 30
0.0
 10
200.762328
 20
577.035324
 30
0.0
 10
200.762320
 20
577.035324
 30
0.0
  0
LWPOLYLINE
  5
18f
100
AcDbEntity
  8
Layer_1
 62
5
100
AcDbPolyline
 90
8
 70
0
 10
273.307000
 20
598.221388
 30
0.0
 10
269.668160
 20
583.303132
 30
0.0
 10
280.780816
 20
572.718972
 30
0.0
 10
295.467336
 20
577.008044
 30
0.0
 10
299.137184
 20
591.909316
 30
0.0
 10
288.065512
 20
602.531492
 30
0.0
 10
273.307000
 20
598.221388
 30
0.0
 10
273.307000
 20
598.221388
 30
0.0
  0
LWPOLYLINE
  5
190
100
AcDbEntity
  8
Layer_1
 62
5
100
AcDbPolyline
 90
8
 70
0
 10
345.851688
 20
619.407460
 30
0.0
 10
342.212840
 20
604.489204
 30
0.0
 10
353.325496
 20
593.905044
 30
0.0
 10
368.012016
 20
598.194116
 30
0.0
 10
371.681872
 20
613.095388
 30
0.0
 10
360.586200
 20
623.710556
 30
0.0
 10
345.851688
 20
619.407460
 30
0.0
 10
345.851688
 20
619.407460
 30
0.0
  0
LWPOLYLINE
  5
191
100
AcDbEntity
  8
Layer_1
 62
5
100
AcDbPolyline
 90
8
 70
0
 10
315.685584
 20
587.861036
 30
0.0
 10
312.046744
 20
572.942780
 30
0.0
 10
323.159400
 20
562.358620
 30
0.0
 10
337.869912
 20
566.654700
 30
0.0
 10
341.539768
 20
581.555972
 30
0.0
 10
330.444096
 20
592.171132
 30
0.0
 10
315.685584
 20
587.861036
 30
0.0
 10
315.685584
 20
587.861036
 30
0.0
  0
LWPOLYLINE
  5
192
100
AcDbEntity
  8
Layer_1
 62
5
100
AcDbPolyline
 90
8
 70
0
 10
243.147912
 20
566.650964
 30
0.0
 10
239.502056
 20
551.756708
 30
0.0
 10
250.638712
 20
541.179556
 30
0.0
 10
265.325232
 20
545.468628
 30
0.0
 10
268.995080
 20
560.369900
 30
0.0
 10
257.906424
 20
570.961068
 30
0.0
 10
243.147912
 20
566.650964
 30
0.0
 10
243.147912
 20
566.650964
 30
0.0
  0
LWPOLYLINE
  5
193
100
AcDbEntity
  8
Layer_1
 62
5
100
AcDbPolyline
 90
6
 70
0
 10
388.237280
 20
609.023108
 30
0.0
 10
384.591424
 20
594.128844
 30
0.0
 10
390.755448
 20
588.271980
 30
0.0
 10
390.685048
 20
609.737956
 30
0.0
 10
388.237296
 20
609.023108
 30
0.0
 10
388.237280
 20
609.023108
 30
0.0
  0
LWPOLYLINE
  5
194
100
AcDbEntity
  8
Layer_1
 62
5
100
AcDbPolyline
 90
8
 70
0
 10
213.005808
 20
535.111548
 30
0.0
 10
209.359960
 20
520.217292
 30
0.0
 10
220.479624
 20
509.609132
 30
0.0
 10
235.166144
 20
513.898204
 30
0.0
 10
238.828984
 20
528.823476
 30
0.0
 10
227.764320
 20
539.421652
 30
0.0
 10
213.005808
 20
535.111548
 30
0.0
 10
213.005808
 20
535.111548
 30
0.0
  0
LWPOLYLINE
  5
195
100
AcDbEntity
  8
Layer_1
 62
5
100
AcDbPolyline
 90
8
 70
0
 10
285.550496
 20
556.297620
 30
0.0
 10
281.904640
 20
541.403356
 30
0.0
 10
293.024304
 20
530.795204
 30
0.0
 10
307.734824
 20
535.091284
 30
0.0
 10
311.397664
 20
550.016548
 30
0.0
 10
300.309000
 20
560.607716
 30
0.0
 10
285.550496
 20
556.297620
 30
0.0
 10
285.550496
 20
556.297620
 30
0.0
  0
LWPOLYLINE
  5
196
100
AcDbEntity
  8
Layer_1
 62
5
100
AcDbPolyline
 90
8
 70
0
 10
358.095176
 20
577.483692
 30
0.0
 10
354.449320
 20
562.589428
 30
0.0
 10
365.568992
 20
551.981268
 30
0.0
 10
380.255504
 20
556.270348
 30
0.0
 10
383.918352
 20
571.195612
 30
0.0
 10
372.853688
 20
581.793788
 30
0.0
 10
358.095176
 20
577.483692
 30
0.0
 10
358.095176
 20
577.483692
 30
0.0
  0
LWPOLYLINE
  5
197
100
AcDbEntity
  8
Layer_1
 62
5
100
AcDbPolyline
 90
8
 70
0
 10
255.384392
 20
524.751196
 30
0.0
 10
251.745544
 20
509.832932
 30
0.0
 10
262.858208
 20
499.248772
 30
0.0
 10
277.568720
 20
503.544860
 30
0.0
 10
281.238576
 20
518.446124
 30
0.0
 10
270.142904
 20
529.061292
 30
0.0
 10
255.384392
 20
524.751196
 30
0.0
 10
255.384392
 20
524.751196
 30
0.0
  0
LWPOLYLINE
  5
198
100
AcDbEntity
  8
Layer_1
 62
5
100
AcDbPolyline
 90
8
 70
0
 10
327.929072
 20
545.937260
 30
0.0
 10
324.290232
 20
531.019004
 30
0.0
 10
335.402888
 20
520.434844
 30
0.0
 10
350.089408
 20
524.723924
 30
0.0
 10
353.783256
 20
539.632196
 30
0.0
 10
342.687584
 20
550.247364
 30
0.0
 10
327.929072
 20
545.937260
 30
0.0
 10
327.929072
 20
545.937260
 30
0.0
  0
LWPOLYLINE
  5
199
100
AcDbEntity
  8
Layer_1
 62
5
100
AcDbPolyline
 90
6
 70
0
 10
200.461176
 20
505.117212
 30
0.0
 10
200.536456
 20
481.048236
 30
0.0
 10
205.000008
 20
482.351780
 30
0.0
 10
208.669856
 20
497.253052
 30
0.0
 10
200.461144
 20
505.117212
 30
0.0
 10
200.461176
 20
505.117212
 30
0.0
  0
LWPOLYLINE
  5
19a
100
AcDbEntity
  8
Layer_1
 62
5
100
AcDbPolyline
 90
8
 70
0
 10
225.242288
 20
493.211772
 30
0.0
 10
221.603448
 20
478.293516
 30
0.0
 10
232.716104
 20
467.709356
 30
0.0
 10
247.402624
 20
471.998428
 30
0.0
 10
251.072472
 20
486.899700
 30
0.0
 10
239.976800
 20
497.514868
 30
0.0
 10
225.242288
 20
493.211772
 30
0.0
 10
225.242288
 20
493.211772
 30
0.0
  0
LWPOLYLINE
  5
19b
100
AcDbEntity
  8
Layer_1
 62
5
100
AcDbPolyline
 90
8
 70
0
 10
297.786976
 20
514.397844
 30
0.0
 10
294.148128
 20
499.479588
 30
0.0
 10
305.260784
 20
488.895428
 30
0.0
 10
319.947304
 20
493.184500
 30
0.0
 10
323.617152
 20
508.085772
 30
0.0
 10
312.545480
 20
518.707948
 30
0.0
 10
297.786976
 20
514.397844
 30
0.0
 10
297.786976
 20
514.397844
 30
0.0
  0
LWPOLYLINE
  5
19c
100
AcDbEntity
  8
Layer_1
 62
5
100
AcDbPolyline
 90
8
 70
0
 10
370.331656
 20
535.583916
 30
0.0
 10
366.692808
 20
520.665660
 30
0.0
 10
377.805472
 20
510.081500
 30
0.0
 10
391.004136
 20
513.936060
 30
0.0
 10
390.954136
 20
534.262044
 30
0.0
 10
385.066192
 20
539.887012
 30
0.0
 10
370.331680
 20
535.583916
 30
0.0
 10
370.331656
 20
535.583916
 30
0.0
  0
LWPOLYLINE
  5
19d
100
AcDbEntity
  8
Layer_1
 62
5
100
AcDbPolyline
 90
8
 70
0
 10
200.602640
 20
463.253260
 30
0.0
 10
200.685400
 20
437.910284
 30
0.0
 10
202.557008
 20
436.138932
 30
0.0
 10
217.267528
 20
440.435020
 30
0.0
 10
220.930368
 20
455.360284
 30
0.0
 10
209.841712
 20
465.951452
 30
0.0
 10
200.602640
 20
463.253260
 30
0.0
 10
200.602640
 20
463.253260
 30
0.0
  0
LWPOLYLINE
  5
19e
100
AcDbEntity
  8
Layer_1
 62
5
100
AcDbPolyline
 90
8
 70
0
 10
267.627880
 20
482.827420
 30
0.0
 10
263.982024
 20
467.933164
 30
0.0
 10
275.125688
 20
457.332012
 30
0.0
 10
289.812208
 20
461.621084
 30
0.0
 10
293.475056
 20
476.546356
 30
0.0
 10
282.386392
 20
487.137524
 30
0.0
 10
267.627880
 20
482.827420
 30
0.0
 10
267.627880
 20
482.827420
 30
0.0
  0
LWPOLYLINE
  5
19f
100
AcDbEntity
  8
Layer_1
 62
5
100
AcDbPolyline
 90
8
 70
0
 10
340.172560
 20
504.013492
 30
0.0
 10
336.526712
 20
489.119228
 30
0.0
 10
347.646376
 20
478.511076
 30
0.0
 10
362.356896
 20
482.807156
 30
0.0
 10
366.019736
 20
497.732420
 30
0.0
 10
354.931072
 20
508.323596
 30
0.0
 10
340.172560
 20
504.013492
 30
0.0
 10
340.172560
 20
504.013492
 30
0.0
  0
LWPOLYLINE
  5
1a0
100
AcDbEntity
  8
Layer_1
 62
5
100
AcDbPolyline
 90
8
 70
0
 10
237.485776
 20
451.288004
 30
0.0
 10
233.839928
 20
436.393740
 30
0.0
 10
244.959592
 20
425.785588
 30
0.0
 10
259.646112
 20
430.074660
 30
0.0
 10
263.308952
 20
444.999924
 30
0.0
 10
252.244288
 20
455.598108
 30
0.0
 10
237.485776
 20
451.288004
 30
0.0
 10
237.485776
 20
451.288004
 30
0.0
  0
LWPOLYLINE
  5
1a1
100
AcDbEntity
  8
Layer_1
 62
5
100
AcDbPolyline
 90
8
 70
0
 10
310.030464
 20
472.474076
 30
0.0
 10
306.384608
 20
457.579812
 30
0.0
 10
317.504272
 20
446.971652
 30
0.0
 10
332.214792
 20
451.267740
 30
0.0
 10
335.877632
 20
466.193004
 30
0.0
 10
324.788968
 20
476.784172
 30
0.0
 10
310.030464
 20
472.474076
 30
0.0
 10
310.030464
 20
472.474076
 30
0.0
  0
LWPOLYLINE
  5
1a2
100
AcDbEntity
  8
Layer_1
 62
5
100
AcDbPolyline
 90
7
 70
0
 10
382.575144
 20
493.660148
 30
0.0
 10
378.929288
 20
478.765884
 30
0.0
 10
387.697176
 20
470.413916
 30
0.0
 10
391.149424
 20
472.594108
 30
0.0
 10
391.070304
 20
496.141084
 30
0.0
 10
382.575160
 20
493.660148
 30
0.0
 10
382.575144
 20
493.660148
 30
0.0
  0
LWPOLYLINE
  5
1a3
100
AcDbEntity
  8
Layer_1
 62
5
100
AcDbPolyline
 90
8
 70
0
 10
207.319680
 20
419.741580
 30
0.0
 10
203.680832
 20
404.823316
 30
0.0
 10
214.793488
 20
394.239156
 30
0.0
 10
229.480008
 20
398.528236
 30
0.0
 10
233.149864
 20
413.429500
 30
0.0
 10
222.078192
 20
424.051676
 30
0.0
 10
207.319680
 20
419.741580
 30
0.0
 10
207.319680
 20
419.741580
 30
0.0
  0
LWPOLYLINE
  5
1a4
100
AcDbEntity
  8
Layer_1
 62
5
100
AcDbPolyline
 90
8
 70
0
 10
279.864360
 20
440.927644
 30
0.0
 10
276.225512
 20
426.009388
 30
0.0
 10
287.338176
 20
415.425228
 30
0.0
 10
302.048688
 20
419.721316
 30
0.0
 10
305.718544
 20
434.622580
 30
0.0
 10
294.622872
 20
445.237748
 30
0.0
 10
279.864360
 20
440.927644
 30
0.0
 10
279.864360
 20
440.927644
 30
0.0
  0
LWPOLYLINE
  5
1a5
100
AcDbEntity
  8
Layer_1
 62
5
100
AcDbPolyline
 90
7
 70
0
 10
352.409040
 20
462.113716
 30
0.0
 10
348.770200
 20
447.195460
 30
0.0
 10
349.702504
 20
446.321780
 30
0.0
 10
372.841432
 20
460.996780
 30
0.0
 10
367.167552
 20
466.423820
 30
0.0
 10
352.409040
 20
462.113716
 30
0.0
 10
352.409040
 20
462.113716
 30
0.0
  0
LWPOLYLINE
  5
1a6
100
AcDbEntity
  8
Layer_1
 62
5
100
AcDbPolyline
 90
8
 70
0
 10
249.729264
 20
409.364236
 30
0.0
 10
246.083416
 20
394.469972
 30
0.0
 10
254.789296
 20
386.151940
 30
0.0
 10
274.458968
 20
398.615820
 30
0.0
 10
275.552440
 20
403.076156
 30
0.0
 10
264.463776
 20
413.667324
 30
0.0
 10
249.729264
 20
409.364236
 30
0.0
 10
249.729264
 20
409.364236
 30
0.0
  0
LWPOLYLINE
  5
1a7
100
AcDbEntity
  8
Layer_1
 62
5
100
AcDbPolyline
 90
5
 70
0
 10
322.273952
 20
430.550300
 30
0.0
 10
321.814608
 20
428.645148
 30
0.0
 10
327.001472
 20
431.930940
 30
0.0
 10
322.273952
 20
430.550300
 30
0.0
 10
322.273952
 20
430.550300
 30
0.0
  0
LWPOLYLINE
  5
1a8
100
AcDbEntity
  8
Layer_1
 62
5
100
AcDbPolyline
 90
9
 70
0
 10
200.887032
 20
383.979356
 30
0.0
 10
200.991056
 20
352.053428
 30
0.0
 10
239.998512
 20
376.779908
 30
0.0
 10
234.324640
 20
382.206948
 30
0.0
 10
214.862600
 20
376.523220
 30
0.0
 10
210.135080
 20
375.142588
 30
0.0
 10
206.560912
 20
378.552316
 30
0.0
 10
200.887032
 20
383.979356
 30
0.0
 10
200.887032
 20
383.979356
 30
0.0
  0
LWPOLYLINE
  5
1a9
100
AcDbEntity
  8
Layer_1
 62
1
100
AcDbPolyline
 90
5
 70
0
 10
200.225160
 20
577.208428
 30
0.0
 10
390.400664
 20
697.745492
 30
0.0
 10
391.157736
 20
472.589412
 30
0.0
 10
200.982232
 20
352.052348
 30
0.0
 10
200.225160
 20
577.208428
 30
0.0
  0
LWPOLYLINE
  5
1aa
100
AcDbEntity
  8
Layer_1
 62
5
100
AcDbPolyline
 90
8
 70
0
 10
575.217296
 20
815.015695
 30
0.0
 10
552.605256
 20
800.676880
 30
0.0
 10
552.444496
 20
799.978825
 30
0.0
 10
563.581152
 20
789.401672
 30
0.0
 10
578.267672
 20
793.690748
 30
0.0
 10
581.937520
 20
808.592017
 30
0.0
 10
575.217296
 20
815.015695
 30
0.0
 10
575.217296
 20
815.015695
 30
0.0
  0
LWPOLYLINE
  5
1ab
100
AcDbEntity
  8
Layer_1
 62
5
100
AcDbPolyline
 90
8
 70
0
 10
525.941232
 20
783.357665
 30
0.0
 10
522.302392
 20
768.439406
 30
0.0
 10
533.415048
 20
757.855244
 30
0.0
 10
548.101568
 20
762.144321
 30
0.0
 10
551.771416
 20
777.045590
 30
0.0
 10
540.699744
 20
787.667765
 30
0.0
 10
525.941232
 20
783.357665
 30
0.0
 10
525.941232
 20
783.357665
 30
0.0
  0
LWPOLYLINE
  5
1ac
100
AcDbEntity
  8
Layer_1
 62
5
100
AcDbPolyline
 90
6
 70
0
 10
478.764424
 20
753.875364
 30
0.0
 10
457.158144
 20
740.194892
 30
0.0
 10
460.870368
 20
736.669172
 30
0.0
 10
475.580880
 20
740.965260
 30
0.0
 10
478.764424
 20
753.875364
 30
0.0
 10
478.764424
 20
753.875364
 30
0.0
  0
LWPOLYLINE
  5
1ad
100
AcDbEntity
  8
Layer_1
 62
5
100
AcDbPolyline
 90
8
 70
0
 10
495.782144
 20
751.787244
 30
0.0
 10
492.136288
 20
736.892980
 30
0.0
 10
503.255960
 20
726.284820
 30
0.0
 10
517.942472
 20
730.573900
 30
0.0
 10
521.629320
 20
745.506172
 30
0.0
 10
510.540656
 20
756.097340
 30
0.0
 10
495.782144
 20
751.787244
 30
0.0
 10
495.782144
 20
751.787244
 30
0.0
  0
LWPOLYLINE
  5
1ae
100
AcDbEntity
  8
Layer_1
 62
5
100
AcDbPolyline
 90
7
 70
0
 10
568.326824
 20
772.973311
 30
0.0
 10
564.680976
 20
758.079052
 30
0.0
 10
575.800640
 20
747.470892
 30
0.0
 10
582.975920
 20
749.566372
 30
0.0
 10
582.869360
 20
777.220337
 30
0.0
 10
568.326824
 20
772.973311
 30
0.0
 10
568.326824
 20
772.973311
 30
0.0
  0
LWPOLYLINE
  5
1af
100
AcDbEntity
  8
Layer_1
 62
5
100
AcDbPolyline
 90
8
 70
0
 10
442.326400
 20
730.784764
 30
0.0
 10
419.779336
 20
716.490972
 30
0.0
 10
419.591608
 20
715.706908
 30
0.0
 10
430.711272
 20
705.098748
 30
0.0
 10
445.421792
 20
709.394836
 30
0.0
 10
449.084632
 20
724.320100
 30
0.0
 10
442.326400
 20
730.784764
 30
0.0
 10
442.326400
 20
730.784764
 30
0.0
  0
LWPOLYLINE
  5
1b0
100
AcDbEntity
  8
Layer_1
 62
5
100
AcDbPolyline
 90
9
 70
0
 10
393.095360
 20
699.061756
 30
0.0
 10
392.569120
 20
696.850572
 30
0.0
 10
392.602560
 20
681.129580
 30
0.0
 10
400.569176
 20
673.559332
 30
0.0
 10
415.255696
 20
677.848412
 30
0.0
 10
418.925552
 20
692.749676
 30
0.0
 10
407.829880
 20
703.364844
 30
0.0
 10
393.095368
 20
699.061756
 30
0.0
 10
393.095360
 20
699.061756
 30
0.0
  0
LWPOLYLINE
  5
1b1
100
AcDbEntity
  8
Layer_1
 62
5
100
AcDbPolyline
 90
8
 70
0
 10
465.640040
 20
720.247820
 30
0.0
 10
462.001200
 20
705.329564
 30
0.0
 10
473.113856
 20
694.745404
 30
0.0
 10
487.800376
 20
699.034476
 30
0.0
 10
491.470224
 20
713.935748
 30
0.0
 10
480.398552
 20
724.557924
 30
0.0
 10
465.640040
 20
720.247820
 30
0.0
 10
465.640040
 20
720.247820
 30
0.0
  0
LWPOLYLINE
  5
1b2
100
AcDbEntity
  8
Layer_1
 62
5
100
AcDbPolyline
 90
8
 70
0
 10
538.184728
 20
741.433892
 30
0.0
 10
534.545880
 20
726.515636
 30
0.0
 10
545.658536
 20
715.931476
 30
0.0
 10
560.345056
 20
720.220548
 30
0.0
 10
564.014904
 20
735.121820
 30
0.0
 10
552.919240
 20
745.736988
 30
0.0
 10
538.184728
 20
741.433892
 30
0.0
 10
538.184728
 20
741.433892
 30
0.0
  0
LWPOLYLINE
  5
1b3
100
AcDbEntity
  8
Layer_1
 62
5
100
AcDbPolyline
 90
8
 70
0
 10
508.018624
 20
709.887468
 30
0.0
 10
504.379776
 20
694.969212
 30
0.0
 10
515.492440
 20
684.385052
 30
0.0
 10
530.202952
 20
688.681132
 30
0.0
 10
533.872808
 20
703.582404
 30
0.0
 10
522.777136
 20
714.197564
 30
0.0
 10
508.018624
 20
709.887468
 30
0.0
 10
508.018624
 20
709.887468
 30
0.0
  0
LWPOLYLINE
  5
1b4
100
AcDbEntity
  8
Layer_1
 62
5
100
AcDbPolyline
 90
8
 70
0
 10
435.480952
 20
688.677396
 30
0.0
 10
431.835096
 20
673.783140
 30
0.0
 10
442.971752
 20
663.205988
 30
0.0
 10
457.658272
 20
667.495060
 30
0.0
 10
461.328120
 20
682.396332
 30
0.0
 10
450.239464
 20
692.987500
 30
0.0
 10
435.480952
 20
688.677396
 30
0.0
 10
435.480952
 20
688.677396
 30
0.0
  0
LWPOLYLINE
  5
1b5
100
AcDbEntity
  8
Layer_1
 62
5
100
AcDbPolyline
 90
6
 70
0
 10
580.570312
 20
731.049540
 30
0.0
 10
576.924464
 20
716.155276
 30
0.0
 10
583.088488
 20
710.298412
 30
0.0
 10
583.018088
 20
731.764388
 30
0.0
 10
580.570328
 20
731.049540
 30
0.0
 10
580.570312
 20
731.049540
 30
0.0
  0
LWPOLYLINE
  5
1b6
100
AcDbEntity
  8
Layer_1
 62
5
100
AcDbPolyline
 90
8
 70
0
 10
405.338848
 20
657.137980
 30
0.0
 10
401.692992
 20
642.243724
 30
0.0
 10
412.812664
 20
631.635564
 30
0.0
 10
427.499176
 20
635.924636
 30
0.0
 10
431.162024
 20
650.849908
 30
0.0
 10
420.097360
 20
661.448084
 30
0.0
 10
405.338848
 20
657.137980
 30
0.0
 10
405.338848
 20
657.137980
 30
0.0
  0
LWPOLYLINE
  5
1b7
100
AcDbEntity
  8
Layer_1
 62
5
100
AcDbPolyline
 90
8
 70
0
 10
477.883528
 20
678.324052
 30
0.0
 10
474.237680
 20
663.429788
 30
0.0
 10
485.357344
 20
652.821636
 30
0.0
 10
500.067856
 20
657.117716
 30
0.0
 10
503.730704
 20
672.042980
 30
0.0
 10
492.642040
 20
682.634148
 30
0.0
 10
477.883528
 20
678.324052
 30
0.0
 10
477.883528
 20
678.324052
 30
0.0
  0
LWPOLYLINE
  5
1b8
100
AcDbEntity
  8
Layer_1
 62
5
100
AcDbPolyline
 90
8
 70
0
 10
550.428216
 20
699.510124
 30
0.0
 10
546.782360
 20
684.615860
 30
0.0
 10
557.902024
 20
674.007700
 30
0.0
 10
572.588544
 20
678.296780
 30
0.0
 10
576.251384
 20
693.222044
 30
0.0
 10
565.186720
 20
703.820220
 30
0.0
 10
550.428216
 20
699.510124
 30
0.0
 10
550.428216
 20
699.510124
 30
0.0
  0
LWPOLYLINE
  5
1b9
100
AcDbEntity
  8
Layer_1
 62
5
100
AcDbPolyline
 90
8
 70
0
 10
447.717432
 20
646.777628
 30
0.0
 10
444.078584
 20
631.859364
 30
0.0
 10
455.191240
 20
621.275204
 30
0.0
 10
469.901760
 20
625.571292
 30
0.0
 10
473.571608
 20
640.472556
 30
0.0
 10
462.475944
 20
651.087724
 30
0.0
 10
447.717432
 20
646.777628
 30
0.0
 10
447.717432
 20
646.777628
 30
0.0
  0
LWPOLYLINE
  5
1ba
100
AcDbEntity
  8
Layer_1
 62
5
100
AcDbPolyline
 90
8
 70
0
 10
520.262112
 20
667.963692
 30
0.0
 10
516.623264
 20
653.045436
 30
0.0
 10
527.735928
 20
642.461276
 30
0.0
 10
542.422448
 20
646.750356
 30
0.0
 10
546.116296
 20
661.658628
 30
0.0
 10
535.020624
 20
672.273796
 30
0.0
 10
520.262112
 20
667.963692
 30
0.0
 10
520.262112
 20
667.963692
 30
0.0
  0
LWPOLYLINE
  5
1bb
100
AcDbEntity
  8
Layer_1
 62
5
100
AcDbPolyline
 90
6
 70
0
 10
392.794208
 20
627.143644
 30
0.0
 10
392.869568
 20
603.074668
 30
0.0
 10
397.333120
 20
604.378212
 30
0.0
 10
401.002968
 20
619.279484
 30
0.0
 10
392.794248
 20
627.143644
 30
0.0
 10
392.794208
 20
627.143644
 30
0.0
  0
LWPOLYLINE
  5
1bc
100
AcDbEntity
  8
Layer_1
 62
5
100
AcDbPolyline
 90
8
 70
0
 10
417.575328
 20
615.238204
 30
0.0
 10
413.936480
 20
600.319948
 30
0.0
 10
425.049144
 20
589.735788
 30
0.0
 10
439.735656
 20
594.024860
 30
0.0
 10
443.405512
 20
608.926132
 30
0.0
 10
432.309840
 20
619.541300
 30
0.0
 10
417.575328
 20
615.238204
 30
0.0
 10
417.575328
 20
615.238204
 30
0.0
  0
LWPOLYLINE
  5
1bd
100
AcDbEntity
  8
Layer_1
 62
5
100
AcDbPolyline
 90
8
 70
0
 10
490.120008
 20
636.424276
 30
0.0
 10
486.481168
 20
621.506020
 30
0.0
 10
497.593824
 20
610.921860
 30
0.0
 10
512.280344
 20
615.210932
 30
0.0
 10
515.950192
 20
630.112204
 30
0.0
 10
504.878520
 20
640.734380
 30
0.0
 10
490.120008
 20
636.424276
 30
0.0
 10
490.120008
 20
636.424276
 30
0.0
  0
LWPOLYLINE
  5
1be
100
AcDbEntity
  8
Layer_1
 62
5
100
AcDbPolyline
 90
8
 70
0
 10
562.664696
 20
657.610348
 30
0.0
 10
559.025848
 20
642.692092
 30
0.0
 10
570.138504
 20
632.107932
 30
0.0
 10
583.337176
 20
635.962492
 30
0.0
 10
583.287176
 20
656.288476
 30
0.0
 10
577.399232
 20
661.913444
 30
0.0
 10
562.664720
 20
657.610348
 30
0.0
 10
562.664696
 20
657.610348
 30
0.0
  0
LWPOLYLINE
  5
1bf
100
AcDbEntity
  8
Layer_1
 62
5
100
AcDbPolyline
 90
8
 70
0
 10
392.935680
 20
585.279692
 30
0.0
 10
393.018440
 20
559.936716
 30
0.0
 10
394.890048
 20
558.165364
 30
0.0
 10
409.600568
 20
562.461452
 30
0.0
 10
413.263408
 20
577.386716
 30
0.0
 10
402.174744
 20
587.977884
 30
0.0
 10
392.935680
 20
585.279692
 30
0.0
 10
392.935680
 20
585.279692
 30
0.0
  0
LWPOLYLINE
  5
1c0
100
AcDbEntity
  8
Layer_1
 62
5
100
AcDbPolyline
 90
8
 70
0
 10
459.960920
 20
604.853852
 30
0.0
 10
456.315064
 20
589.959596
 30
0.0
 10
467.458728
 20
579.358444
 30
0.0
 10
482.145248
 20
583.647516
 30
0.0
 10
485.808088
 20
598.572788
 30
0.0
 10
474.719432
 20
609.163956
 30
0.0
 10
459.960920
 20
604.853852
 30
0.0
 10
459.960920
 20
604.853852
 30
0.0
  0
LWPOLYLINE
  5
1c1
100
AcDbEntity
  8
Layer_1
 62
5
100
AcDbPolyline
 90
8
 70
0
 10
532.505600
 20
626.039924
 30
0.0
 10
528.859744
 20
611.145660
 30
0.0
 10
539.979416
 20
600.537508
 30
0.0
 10
554.689928
 20
604.833588
 30
0.0
 10
558.352776
 20
619.758852
 30
0.0
 10
547.264112
 20
630.350028
 30
0.0
 10
532.505600
 20
626.039924
 30
0.0
 10
532.505600
 20
626.039924
 30
0.0
  0
LWPOLYLINE
  5
1c2
100
AcDbEntity
  8
Layer_1
 62
5
100
AcDbPolyline
 90
8
 70
0
 10
429.818816
 20
573.314436
 30
0.0
 10
426.172960
 20
558.420172
 30
0.0
 10
437.292632
 20
547.812020
 30
0.0
 10
451.979144
 20
552.101092
 30
0.0
 10
455.641992
 20
567.026356
 30
0.0
 10
444.577328
 20
577.624540
 30
0.0
 10
429.818816
 20
573.314436
 30
0.0
 10
429.818816
 20
573.314436
 30
0.0
  0
LWPOLYLINE
  5
1c3
100
AcDbEntity
  8
Layer_1
 62
5
100
AcDbPolyline
 90
8
 70
0
 10
502.363496
 20
594.500508
 30
0.0
 10
498.717648
 20
579.606244
 30
0.0
 10
509.837312
 20
568.998084
 30
0.0
 10
524.547824
 20
573.294172
 30
0.0
 10
528.210672
 20
588.219436
 30
0.0
 10
517.122008
 20
598.810604
 30
0.0
 10
502.363496
 20
594.500508
 30
0.0
 10
502.363496
 20
594.500508
 30
0.0
  0
LWPOLYLINE
  5
1c4
100
AcDbEntity
  8
Layer_1
 62
5
100
AcDbPolyline
 90
7
 70
0
 10
574.908184
 20
615.686580
 30
0.0
 10
571.262328
 20
600.792316
 30
0.0
 10
580.030216
 20
592.440348
 30
0.0
 10
583.482464
 20
594.620540
 30
0.0
 10
583.403344
 20
618.167516
 30
0.0
 10
574.908200
 20
615.686580
 30
0.0
 10
574.908184
 20
615.686580
 30
0.0
  0
LWPOLYLINE
  5
1c5
100
AcDbEntity
  8
Layer_1
 62
5
100
AcDbPolyline
 90
8
 70
0
 10
399.652712
 20
541.768012
 30
0.0
 10
396.013872
 20
526.849748
 30
0.0
 10
407.126528
 20
516.265588
 30
0.0
 10
421.813048
 20
520.554668
 30
0.0
 10
425.482896
 20
535.455932
 30
0.0
 10
414.411224
 20
546.078108
 30
0.0
 10
399.652712
 20
541.768012
 30
0.0
 10
399.652712
 20
541.768012
 30
0.0
  0
LWPOLYLINE
  5
1c6
100
AcDbEntity
  8
Layer_1
 62
5
100
AcDbPolyline
 90
8
 70
0
 10
472.197400
 20
562.954076
 30
0.0
 10
468.558552
 20
548.035820
 30
0.0
 10
479.671208
 20
537.451660
 30
0.0
 10
494.381728
 20
541.747748
 30
0.0
 10
498.051576
 20
556.649012
 30
0.0
 10
486.955912
 20
567.264180
 30
0.0
 10
472.197400
 20
562.954076
 30
0.0
 10
472.197400
 20
562.954076
 30
0.0
  0
LWPOLYLINE
  5
1c7
100
AcDbEntity
  8
Layer_1
 62
5
100
AcDbPolyline
 90
7
 70
0
 10
544.742080
 20
584.140148
 30
0.0
 10
541.103232
 20
569.221892
 30
0.0
 10
542.035536
 20
568.348212
 30
0.0
 10
565.174464
 20
583.023212
 30
0.0
 10
559.500592
 20
588.450252
 30
0.0
 10
544.742080
 20
584.140148
 30
0.0
 10
544.742080
 20
584.140148
 30
0.0
  0
LWPOLYLINE
  5
1c8
100
AcDbEntity
  8
Layer_1
 62
5
100
AcDbPolyline
 90
8
 70
0
 10
442.062304
 20
531.390668
 30
0.0
 10
438.416448
 20
516.496404
 30
0.0
 10
447.122336
 20
508.178372
 30
0.0
 10
466.792008
 20
520.642252
 30
0.0
 10
467.885480
 20
525.102588
 30
0.0
 10
456.796816
 20
535.693756
 30
0.0
 10
442.062304
 20
531.390668
 30
0.0
 10
442.062304
 20
531.390668
 30
0.0
  0
LWPOLYLINE
  5
1c9
100
AcDbEntity
  8
Layer_1
 62
5
100
AcDbPolyline
 90
5
 70
0
 10
514.606984
 20
552.576732
 30
0.0
 10
514.147648
 20
550.671580
 30
0.0
 10
519.334512
 20
553.957372
 30
0.0
 10
514.606984
 20
552.576732
 30
0.0
 10
514.606984
 20
552.576732
 30
0.0
  0
LWPOLYLINE
  5
1ca
100
AcDbEntity
  8
Layer_1
 62
5
100
AcDbPolyline
 90
9
 70
0
 10
393.220072
 20
506.005788
 30
0.0
 10
393.324096
 20
474.079860
 30
0.0
 10
432.331552
 20
498.806340
 30
0.0
 10
426.657680
 20
504.233380
 30
0.0
 10
407.195640
 20
498.549652
 30
0.0
 10
402.468120
 20
497.169020
 30
0.0
 10
398.893952
 20
500.578748
 30
0.0
 10
393.220072
 20
506.005788
 30
0.0
 10
393.220072
 20
506.005788
 30
0.0
  0
LWPOLYLINE
  5
1cb
100
AcDbEntity
  8
Layer_1
 62
1
100
AcDbPolyline
 90
5
 70
0
 10
392.558192
 20
699.234860
 30
0.0
 10
582.733704
 20
819.771924
 30
0.0
 10
583.490776
 20
594.615844
 30
0.0
 10
393.315264
 20
474.078780
 30
0.0
 10
392.558192
 20
699.234860
 30
0.0
  0
ENDSEC
  0
SECTION
  2
OBJECTS
  0
DICTIONARY
  5
C
330
0
100
AcDbDictionary
  3
ACAD_GROUP
350
D
  3
ACAD_MLINESTYLE
350
17
  0
DICTIONARY
  5
D
330
C
100
AcDbDictionary
  0
DICTIONARY
  5
1A
330
C
100
AcDbDictionary
  0
DICTIONARY
  5
17
330
C
100
AcDbDictionary
  3
STANDARD
350
18
  0
DICTIONARY
  5
19
330
C
100
AcDbDictionary
  0
ENDSEC
  0
EOF
