  0
SECTION
  2
HEADER
  9
$ACADVER
  1
AC1014
  9
$HANDSEED
  5
FFFF
  9
$MEASUREMENT
 70
     1
  0
ENDSEC
  0
SECTION
  2
TABLES
  0
TABLE
  2
VPORT
  5
8
330
0
100
AcDbSymbolTable
 70
     4
  0
VPORT
  5
2E
330
8
100
AcDbSymbolTableRecord
100
AcDbViewportTableRecord
  2
*ACTIVE
 70
     0
 10
0.0
 20
0.0
 11
1.0
 21
1.0
 12
210.0
 22
148.5
 13
0.0
 23
0.0
 14
10.0
 24
10.0
 15
10.0
 25
10.0
 16
0.0
 26
0.0
 36
1.0
 17
0.0
 27
0.0
 37
0.0
 40
341.0
 41
1.24
 42
50.0
 43
0.0
 44
0.0
 50
0.0
 51
0.0
 71
     0
 72
   100
 73
     1
 74
     3
 75
     0
 76
     0
 77
     0
 78
     0
  0
ENDTAB
  0
TABLE
  2
LTYPE
  5
5
330
0
100
AcDbSymbolTable
 70
     1
  0
LTYPE
  5
14
330
5
100
AcDbSymbolTableRecord
100
AcDbLinetypeTableRecord
  2
BYBLOCK
 70
     0
  3

 72
    65
 73
     0
 40
0.0
  0
LTYPE
  5
15
330
5
100
AcDbSymbolTableRecord
100
AcDbLinetypeTableRecord
  2
BYLAYER
 70
     0
  3

 72
    65
 73
     0
 40
0.0
  0
LTYPE
  5
16
330
5
100
AcDbSymbolTableRecord
100
AcDbLinetypeTableRecord
  2
CONTINUOUS
 70
     0
  3
Solid line
 72
    65
 73
     0
 40
0.0
  0
ENDTAB
  0
TABLE
  2
LAYER
  5
2
100
AcDbSymbolTable
 70
1
  0
LAYER
  5
50
100
AcDbSymbolTableRecord
100
AcDbLayerTableRecord
  2
0
 70
0
  6
CONTINUOUS
  0
ENDTAB
  0
TABLE
  2
STYLE
  5
3
330
0
100
AcDbSymbolTable
 70
     1
  0
STYLE
  5
11
330
3
100
AcDbSymbolTableRecord
100
AcDbTextStyleTableRecord
  2
STANDARD
 70
     0
 40
0.0
 41
1.0
 50
0.0
 71
     0
 42
2.5
  3
txt
  4

  0
ENDTAB
  0
TABLE
  2
VIEW
  5
6
330
0
100
AcDbSymbolTable
 70
     0
  0
ENDTAB
  0
TABLE
  2
UCS
  5
7
330
0
100
AcDbSymbolTable
 70
     0
  0
ENDTAB
  0
TABLE
  2
APPID
  5
9
330
0
100
AcDbSymbolTable
 70
     2
  0
APPID
  5
12
330
9
100
AcDbSymbolTableRecord
100
AcDbRegAppTableRecord
  2
ACAD
 70
     0
  0
ENDTAB
  0
TABLE
  2
DIMSTYLE
  5
A
330
0
100
AcDbSymbolTable
 70
     1
  0
DIMSTYLE
105
27
330
A
100
AcDbSymbolTableRecord
100
AcDbDimStyleTableRecord
  2
ISO-25
 70
     0
  3

  4

  5

  6

  7

 40
1.0
 41
2.5
 42
0.625
 43
3.75
 44
1.25
 45
0.0
 46
0.0
 47
0.0
 48
0.0
140
2.5
141
2.5
142
0.0
143
0.03937007874016
144
1.0
145
0.0
146
1.0
147
0.625
 71
     0
 72
     0
 73
     0
 74
     0
 75
     0
 76
     0
 77
     1
 78
     8
170
     0
171
     3
172
     1
173
     0
174
     0
175
     0
176
     0
177
     0
178
     0
270
     2
271
     2
272
     2
273
     2
274
     3
340
11
275
     0
280
     0
281
     0
282
     0
283
     0
284
     8
285
     0
286
     0
287
     3
288
     0
  0
ENDTAB
  0
TABLE
  2
BLOCK_RECORD
  5
1
330
0
100
AcDbSymbolTable
 70
     1
  0
BLOCK_RECORD
  5
1F
330
1
100
AcDbSymbolTableRecord
100
AcDbBlockTableRecord
  2
*MODEL_SPACE
  0
BLOCK_RECORD
  5
1B
330
1
100
AcDbSymbolTableRecord
100
AcDbBlockTableRecord
  2
*PAPER_SPACE
  0
ENDTAB
  0
ENDSEC
  0
SECTION
  2
BLOCKS
  0
BLOCK
  5
20
330
1F
100
AcDbEntity
  8
0
100
AcDbBlockBegin
  2
*MODEL_SPACE
 70
     0
 10
0.0
 20
0.0
 30
0.0
  3
*MODEL_SPACE
  1

  0
ENDBLK
  5
21
330
1F
100
AcDbEntity
  8
0
100
AcDbBlockEnd
  0
BLOCK
  5
1C
330
1B
100
AcDbEntity
 67
     1
  8
0
100
AcDbBlockBegin
  2
*PAPER_SPACE
  1

  0
ENDBLK
  5
1D
330
1B
100
AcDbEntity
 67
     1
  8
0
100
AcDbBlockEnd
  0
ENDSEC
  0
SECTION
  2
ENTITIES
  0
SPLINE
  5
100
100
AcDbEntity
  8
0
 62
5
100
AcDbSpline
 70
8
 71
3
 72
8
 73
4
 74
0
 40
0
 40
0
 40
0
 40
0
 40
1
 40
1
 40
1
 40
1
 10
381.555704
 20
491.775224
 30
0.0
 10
380.955024
 20
492.629456
 30
0.0
 10
376.879344
 20
493.998256
 30
0.0
 10
365.929992
 20
497.437368
 30
0.0
  0
SPLINE
  5
101
100
AcDbEntity
  8
0
 62
5
100
AcDbSpline
 70
8
 71
3
 72
8
 73
4
 74
0
 40
0
 40
0
 40
0
 40
0
 40
1
 40
1
 40
1
 40
1
 10
365.929992
 20
497.437368
 30
0.0
 10
361.271760
 20
498.828440
 30
0.0
 10
351.313896
 20
502.082320
 30
0.0
 10
339.837664
 20
505.869736
 30
0.0
  0
SPLINE
  5
102
100
AcDbEntity
  8
0
 62
5
100
AcDbSpline
 70
8
 71
3
 72
8
 73
4
 74
0
 40
0
 40
0
 40
0
 40
0
 40
1
 40
1
 40
1
 40
1
 10
369.461560
 20
483.003728
 30
0.0
 10
375.650584
 20
487.397048
 30
0.0
 10
380.226600
 20
490.630720
 30
0.0
 10
380.547552
 20
490.779216
 30
0.0
  0
SPLINE
  5
103
100
AcDbEntity
  8
0
 62
5
100
AcDbSpline
 70
8
 71
3
 72
8
 73
4
 74
0
 40
0
 40
0
 40
0
 40
0
 40
1
 40
1
 40
1
 40
1
 10
380.547552
 20
490.779216
 30
0.0
 10
381.385488
 20
491.104336
 30
0.0
 10
381.828744
 20
491.386936
 30
0.0
 10
381.555704
 20
491.775224
 30
0.0
  0
LWPOLYLINE
  5
104
100
AcDbEntity
  8
0
 62
5
100
AcDbPolyline
 90
3
 70
0
 10
339.837664
 20
505.869736
 30
0.0
 10
357.166464
 20
481.773776
 30
0.0
 10
369.461560
 20
483.003728
 30
0.0
  0
LWPOLYLINE
  5
105
100
AcDbEntity
  8
0
 62
5
100
AcDbPolyline
 90
2
 70
0
 10
381.555704
 20
491.775224
 30
0.0
 10
381.555704
 20
491.775224
 30
0.0
  0
SPLINE
  5
106
100
AcDbEntity
  8
0
 62
5
100
AcDbSpline
 70
8
 71
3
 72
8
 73
4
 74
0
 40
0
 40
0
 40
0
 40
0
 40
1
 40
1
 40
1
 40
1
 10
298.106312
 20
431.638808
 30
0.0
 10
307.538920
 20
438.460856
 30
0.0
 10
316.330744
 20
444.838096
 30
0.0
 10
323.853360
 20
450.302784
 30
0.0
  0
SPLINE
  5
107
100
AcDbEntity
  8
0
 62
5
100
AcDbSpline
 70
8
 71
3
 72
8
 73
4
 74
0
 40
0
 40
0
 40
0
 40
0
 40
1
 40
1
 40
1
 40
1
 10
323.853360
 20
450.302784
 30
0.0
 10
327.282152
 20
452.780664
 30
0.0
 10
330.318872
 20
454.947344
 30
0.0
 10
333.595656
 20
457.309032
 30
0.0
  0
LWPOLYLINE
  5
108
100
AcDbEntity
  8
0
 62
5
100
AcDbPolyline
 90
5
 70
0
 10
316.647344
 20
498.996904
 30
0.0
 10
279.208864
 20
495.254112
 30
0.0
 10
263.730408
 20
460.941288
 30
0.0
 10
285.694992
 20
430.399168
 30
0.0
 10
298.106312
 20
431.638808
 30
0.0
  0
SPLINE
  5
109
100
AcDbEntity
  8
0
 62
5
100
AcDbSpline
 70
8
 71
3
 72
8
 73
4
 74
0
 40
0
 40
0
 40
0
 40
0
 40
1
 40
1
 40
1
 40
1
 10
297.452256
 20
520.001632
 30
0.0
 10
288.314112
 20
523.071072
 30
0.0
 10
278.548208
 20
526.328920
 30
0.0
 10
268.535824
 20
529.654816
 30
0.0
  0
LWPOLYLINE
  5
10a
100
AcDbEntity
  8
0
 62
5
100
AcDbPolyline
 90
4
 70
0
 10
333.595656
 20
457.309032
 30
0.0
 10
338.611944
 20
468.454784
 30
0.0
 10
316.647344
 20
498.996904
 30
0.0
 10
316.647344
 20
498.996904
 30
0.0
  0
LWPOLYLINE
  5
10b
100
AcDbEntity
  8
0
 62
5
100
AcDbPolyline
 90
4
 70
0
 10
268.535824
 20
529.654816
 30
0.0
 10
276.955000
 20
517.947824
 30
0.0
 10
297.452256
 20
520.001632
 30
0.0
 10
297.452256
 20
520.001632
 30
0.0
  0
SPLINE
  5
10c
100
AcDbEntity
  8
0
 62
5
100
AcDbSpline
 70
8
 71
3
 72
8
 73
4
 74
0
 40
0
 40
0
 40
0
 40
0
 40
1
 40
1
 40
1
 40
1
 10
160.411928
 20
565.487928
 30
0.0
 10
159.649208
 20
565.747536
 30
0.0
 10
158.639808
 20
566.077752
 30
0.0
 10
157.912240
 20
566.326192
 30
0.0
  0
SPLINE
  5
10d
100
AcDbEntity
  8
0
 62
5
100
AcDbSpline
 70
8
 71
3
 72
8
 73
4
 74
0
 40
0
 40
0
 40
0
 40
0
 40
1
 40
1
 40
1
 40
1
 10
157.912240
 20
566.326192
 30
0.0
 10
153.771432
 20
567.706864
 30
0.0
 10
149.860712
 20
569.021776
 30
0.0
 10
146.049104
 20
570.284584
 30
0.0
  0
LWPOLYLINE
  5
10e
100
AcDbEntity
  8
0
 62
5
100
AcDbPolyline
 90
8
 70
0
 10
236.431320
 20
535.143032
 30
0.0
 10
198.992856
 20
531.400264
 30
0.0
 10
183.530616
 20
497.099088
 30
0.0
 10
205.495200
 20
466.556976
 30
0.0
 10
242.933720
 20
470.299784
 30
0.0
 10
258.395912
 20
504.600904
 30
0.0
 10
236.431320
 20
535.143032
 30
0.0
 10
236.431320
 20
535.143032
 30
0.0
  0
LWPOLYLINE
  5
10f
100
AcDbEntity
  8
0
 62
5
100
AcDbPolyline
 90
8
 70
0
 10
146.049104
 20
570.284584
 30
0.0
 10
118.804744
 20
567.541824
 30
0.0
 10
103.314560
 20
533.245200
 30
0.0
 10
125.290832
 20
502.686840
 30
0.0
 10
162.733936
 20
506.457584
 30
0.0
 10
178.207800
 20
540.742480
 30
0.0
 10
160.411928
 20
565.487928
 30
0.0
 10
160.411928
 20
565.487928
 30
0.0
  0
SPLINE
  5
110
100
AcDbEntity
  8
0
 62
5
100
AcDbSpline
 70
8
 71
3
 72
8
 73
4
 74
0
 40
0
 40
0
 40
0
 40
0
 40
1
 40
1
 40
1
 40
1
 10
226.774416
 20
380.241400
 30
0.0
 10
237.813520
 20
388.164328
 30
0.0
 10
249.556096
 20
396.631216
 30
0.0
 10
261.981192
 20
405.585240
 30
0.0
  0
LWPOLYLINE
  5
111
100
AcDbEntity
  8
0
 62
5
100
AcDbPolyline
 90
5
 70
0
 10
245.187552
 20
447.606064
 30
0.0
 10
207.749080
 20
443.863296
 30
0.0
 10
192.270584
 20
409.550432
 30
0.0
 10
214.246848
 20
378.992072
 30
0.0
 10
226.774416
 20
380.241400
 30
0.0
  0
LWPOLYLINE
  5
112
100
AcDbEntity
  8
0
 62
5
100
AcDbPolyline
 90
4
 70
0
 10
261.981192
 20
405.585240
 30
0.0
 10
267.163816
 20
417.047704
 30
0.0
 10
245.187552
 20
447.606064
 30
0.0
 10
245.187552
 20
447.606064
 30
0.0
  0
LWPOLYLINE
  5
113
100
AcDbEntity
  8
0
 62
5
100
AcDbPolyline
 90
8
 70
0
 10
164.959880
 20
483.768448
 30
0.0
 10
127.533032
 20
480.009400
 30
0.0
 10
112.042904
 20
445.712816
 30
0.0
 10
134.019176
 20
415.154456
 30
0.0
 10
171.473904
 20
418.908920
 30
0.0
 10
186.936152
 20
453.210088
 30
0.0
 10
164.959880
 20
483.768448
 30
0.0
 10
164.959880
 20
483.768448
 30
0.0
  0
SPLINE
  5
114
100
AcDbEntity
  8
0
 62
5
100
AcDbSpline
 70
8
 71
3
 72
8
 73
4
 74
0
 40
0
 40
0
 40
0
 40
0
 40
1
 40
1
 40
1
 40
1
 10
80.678760
 20
519.503888
 30
0.0
 10
63.983402
 20
491.139912
 30
0.0
 10
53.640676
 20
473.384072
 30
0.0
 10
46.684696
 20
461.233176
 30
0.0
  0
LWPOLYLINE
  5
115
100
AcDbEntity
  8
0
 62
5
100
AcDbPolyline
 90
2
 70
0
 10
84.771768
 20
519.910016
 30
0.0
 10
80.678760
 20
519.503888
 30
0.0
  0
LWPOLYLINE
  5
116
100
AcDbEntity
  8
0
 62
5
100
AcDbPolyline
 90
6
 70
0
 10
46.684696
 20
461.233176
 30
0.0
 10
53.819390
 20
451.312264
 30
0.0
 10
91.257848
 20
455.055032
 30
0.0
 10
106.736360
 20
489.367896
 30
0.0
 10
84.771768
 20
519.910016
 30
0.0
 10
84.771768
 20
519.910016
 30
0.0
  0
SPLINE
  5
117
100
AcDbEntity
  8
0
 62
5
100
AcDbSpline
 70
8
 71
3
 72
8
 73
4
 74
0
 40
0
 40
0
 40
0
 40
0
 40
1
 40
1
 40
1
 40
1
 10
121.124752
 20
358.853440
 30
0.0
 10
134.499176
 20
346.684432
 30
0.0
 10
142.303592
 20
339.574568
 30
0.0
 10
146.263816
 20
335.989296
 30
0.0
  0
LWPOLYLINE
  5
118
100
AcDbEntity
  8
0
 62
5
100
AcDbPolyline
 90
3
 70
0
 10
173.727784
 20
396.215240
 30
0.0
 10
136.273008
 20
392.460736
 30
0.0
 10
121.124752
 20
358.853440
 30
0.0
  0
LWPOLYLINE
  5
119
100
AcDbEntity
  8
0
 62
5
100
AcDbPolyline
 90
7
 70
0
 10
146.263816
 20
335.989296
 30
0.0
 10
153.992088
 20
328.737024
 30
0.0
 10
155.579512
 20
328.893240
 30
0.0
 10
190.475200
 20
354.087264
 30
0.0
 10
195.692384
 20
365.673120
 30
0.0
 10
173.727784
 20
396.215240
 30
0.0
 10
173.727784
 20
396.215240
 30
0.0
  0
SPLINE
  5
11a
100
AcDbEntity
  8
0
 62
5
100
AcDbSpline
 70
8
 71
3
 72
8
 73
4
 74
0
 40
0
 40
0
 40
0
 40
0
 40
1
 40
1
 40
1
 40
1
 10
45.444219
 20
427.675296
 30
0.0
 10
49.806567
 20
423.606368
 30
0.0
 10
55.784906
 20
418.187040
 30
0.0
 10
64.040374
 20
410.723376
 30
0.0
  0
SPLINE
  5
11b
100
AcDbEntity
  8
0
 62
5
100
AcDbSpline
 70
8
 71
3
 72
8
 73
4
 74
0
 40
0
 40
0
 40
0
 40
0
 40
1
 40
1
 40
1
 40
1
 10
64.040374
 20
410.723376
 30
0.0
 10
82.057056
 20
394.368168
 30
0.0
 10
92.065816
 20
385.271336
 30
0.0
 10
103.482456
 20
374.890064
 30
0.0
  0
LWPOLYLINE
  5
11c
100
AcDbEntity
  8
0
 62
5
100
AcDbPolyline
 90
3
 70
0
 10
93.634544
 20
432.498944
 30
0.0
 10
49.569650
 20
428.104736
 30
0.0
 10
45.444219
 20
427.675296
 30
0.0
  0
SPLINE
  5
11d
100
AcDbEntity
  8
0
 62
5
100
AcDbSpline
 70
8
 71
3
 72
8
 73
4
 74
0
 40
0
 40
0
 40
0
 40
0
 40
1
 40
1
 40
1
 40
1
 10
35.172895
 20
438.395192
 30
0.0
 10
35.440390
 20
437.938504
 30
0.0
 10
35.822275
 20
437.388968
 30
0.0
 10
36.363958
 20
436.739000
 30
0.0
  0
LWPOLYLINE
  5
11e
100
AcDbEntity
  8
0
 62
5
100
AcDbPolyline
 90
4
 70
0
 10
103.482456
 20
374.890064
 30
0.0
 10
115.645840
 20
401.891872
 30
0.0
 10
93.634544
 20
432.498944
 30
0.0
 10
93.634544
 20
432.498944
 30
0.0
  0
SPLINE
  5
11f
100
AcDbEntity
  8
0
 62
5
100
AcDbSpline
 70
8
 71
3
 72
8
 73
4
 74
0
 40
0
 40
0
 40
0
 40
0
 40
1
 40
1
 40
1
 40
1
 10
382.408128
 20
490.589904
 30
0.0
 10
382.126920
 20
490.972312
 30
0.0
 10
381.717968
 20
490.642048
 30
0.0
 10
381.143080
 20
489.951120
 30
0.0
  0
SPLINE
  5
120
100
AcDbEntity
  8
0
 62
5
100
AcDbSpline
 70
8
 71
3
 72
8
 73
4
 74
0
 40
0
 40
0
 40
0
 40
0
 40
1
 40
1
 40
1
 40
1
 10
381.143080
 20
489.951120
 30
0.0
 10
380.925280
 20
489.720680
 30
0.0
 10
377.183552
 20
486.961456
 30
0.0
 10
372.143680
 20
483.282064
 30
0.0
  0
LWPOLYLINE
  5
121
100
AcDbEntity
  8
0
 62
5
100
AcDbPolyline
 90
3
 70
0
 10
36.363958
 20
436.739000
 30
0.0
 10
35.172895
 20
438.395192
 30
0.0
 10
35.172895
 20
438.395192
 30
0.0
  0
SPLINE
  5
122
100
AcDbEntity
  8
0
 62
5
100
AcDbSpline
 70
8
 71
3
 72
8
 73
4
 74
0
 40
0
 40
0
 40
0
 40
0
 40
1
 40
1
 40
1
 40
1
 10
382.939640
 20
484.370008
 30
0.0
 10
382.931224
 20
488.227264
 30
0.0
 10
382.782280
 20
490.081128
 30
0.0
 10
382.408128
 20
490.589904
 30
0.0
  0
LWPOLYLINE
  5
123
100
AcDbEntity
  8
0
 62
5
100
AcDbPolyline
 90
2
 70
0
 10
372.143680
 20
483.282064
 30
0.0
 10
382.939640
 20
484.370008
 30
0.0
  0
LWPOLYLINE
  5
124
100
AcDbEntity
  8
0
 62
5
100
AcDbPolyline
 90
2
 70
0
 10
382.408128
 20
490.589904
 30
0.0
 10
382.408128
 20
490.589904
 30
0.0
  0
SPLINE
  5
125
100
AcDbEntity
  8
0
 62
5
100
AcDbSpline
 70
8
 71
3
 72
8
 73
4
 74
0
 40
0
 40
0
 40
0
 40
0
 40
1
 40
1
 40
1
 40
1
 10
382.403624
 20
395.915000
 30
0.0
 10
382.407784
 20
403.298616
 30
0.0
 10
382.385776
 20
410.252976
 30
0.0
 10
382.370744
 20
416.239736
 30
0.0
  0
SPLINE
  5
126
100
AcDbEntity
  8
0
 62
5
100
AcDbSpline
 70
8
 71
3
 72
8
 73
4
 74
0
 40
0
 40
0
 40
0
 40
0
 40
1
 40
1
 40
1
 40
1
 10
382.370744
 20
416.239736
 30
0.0
 10
382.420400
 20
432.218800
 30
0.0
 10
382.470904
 20
449.370000
 30
0.0
 10
382.592568
 20
461.456368
 30
0.0
  0
LWPOLYLINE
  5
127
100
AcDbEntity
  8
0
 62
5
100
AcDbPolyline
 90
5
 70
0
 10
382.592568
 20
461.456368
 30
0.0
 10
359.396968
 20
459.112536
 30
0.0
 10
343.923072
 20
424.827640
 30
0.0
 10
365.899336
 20
394.269272
 30
0.0
 10
382.403624
 20
395.915000
 30
0.0
  0
SPLINE
  5
128
100
AcDbEntity
  8
0
 62
5
100
AcDbSpline
 70
8
 71
3
 72
8
 73
4
 74
0
 40
0
 40
0
 40
0
 40
0
 40
1
 40
1
 40
1
 40
1
 10
332.344368
 20
454.561552
 30
0.0
 10
329.748360
 20
452.699768
 30
0.0
 10
327.418232
 20
451.009472
 30
0.0
 10
324.729136
 20
449.084992
 30
0.0
  0
SPLINE
  5
129
100
AcDbEntity
  8
0
 62
5
100
AcDbSpline
 70
8
 71
3
 72
8
 73
4
 74
0
 40
0
 40
0
 40
0
 40
0
 40
1
 40
1
 40
1
 40
1
 10
324.729136
 20
449.084992
 30
0.0
 10
317.678632
 20
444.065536
 30
0.0
 10
309.356568
 20
438.140520
 30
0.0
 10
300.628064
 20
431.900328
 30
0.0
  0
LWPOLYLINE
  5
12a
100
AcDbEntity
  8
0
 62
5
100
AcDbPolyline
 90
2
 70
0
 10
382.592568
 20
461.456368
 30
0.0
 10
382.592568
 20
461.456368
 30
0.0
  0
LWPOLYLINE
  5
12b
100
AcDbEntity
  8
0
 62
5
100
AcDbPolyline
 90
4
 70
0
 10
300.628064
 20
431.900328
 30
0.0
 10
323.149720
 20
434.153640
 30
0.0
 10
332.344368
 20
454.561552
 30
0.0
 10
332.344368
 20
454.561552
 30
0.0
  0
SPLINE
  5
12c
100
AcDbEntity
  8
0
 62
5
100
AcDbSpline
 70
8
 71
3
 72
8
 73
4
 74
0
 40
0
 40
0
 40
0
 40
0
 40
1
 40
1
 40
1
 40
1
 10
381.951336
 20
307.446304
 30
0.0
 10
381.994968
 20
317.026200
 30
0.0
 10
382.054288
 20
326.294536
 30
0.0
 10
382.128960
 20
333.884048
 30
0.0
  0
SPLINE
  5
12d
100
AcDbEntity
  8
0
 62
5
100
AcDbSpline
 70
8
 71
3
 72
8
 73
4
 74
0
 40
0
 40
0
 40
0
 40
0
 40
1
 40
1
 40
1
 40
1
 10
382.128960
 20
333.884048
 30
0.0
 10
382.234112
 20
344.569488
 30
0.0
 10
382.313944
 20
358.696088
 30
0.0
 10
382.356480
 20
372.995344
 30
0.0
  0
LWPOLYLINE
  5
12e
100
AcDbEntity
  8
0
 62
5
100
AcDbPolyline
 90
5
 70
0
 10
382.356480
 20
372.995344
 30
0.0
 10
368.153200
 20
371.575576
 30
0.0
 10
352.674744
 20
337.262760
 30
0.0
 10
374.639328
 20
306.720640
 30
0.0
 10
381.951336
 20
307.446304
 30
0.0
  0
LWPOLYLINE
  5
12f
100
AcDbEntity
  8
0
 62
5
100
AcDbPolyline
 90
2
 70
0
 10
382.356480
 20
372.995344
 30
0.0
 10
382.356480
 20
372.995344
 30
0.0
  0
LWPOLYLINE
  5
130
100
AcDbEntity
  8
0
 62
5
100
AcDbPolyline
 90
8
 70
0
 10
325.375656
 20
411.464504
 30
0.0
 10
287.937192
 20
407.721720
 30
0.0
 10
272.474960
 20
373.420560
 30
0.0
 10
294.439544
 20
342.878440
 30
0.0
 10
331.878056
 20
346.621248
 30
0.0
 10
347.340248
 20
380.922376
 30
0.0
 10
325.375656
 20
411.464504
 30
0.0
 10
325.375656
 20
411.464504
 30
0.0
  0
SPLINE
  5
131
100
AcDbEntity
  8
0
 62
5
100
AcDbSpline
 70
8
 71
3
 72
8
 73
4
 74
0
 40
0
 40
0
 40
0
 40
0
 40
1
 40
1
 40
1
 40
1
 10
381.714056
 20
221.521814
 30
0.0
 10
381.822840
 20
229.162862
 30
0.0
 10
381.886096
 20
241.181712
 30
0.0
 10
381.913728
 20
254.848528
 30
0.0
  0
SPLINE
  5
132
100
AcDbEntity
  8
0
 62
5
100
AcDbSpline
 70
8
 71
3
 72
8
 73
4
 74
0
 40
0
 40
0
 40
0
 40
0
 40
1
 40
1
 40
1
 40
1
 10
381.913728
 20
254.848528
 30
0.0
 10
381.871704
 20
263.043992
 30
0.0
 10
381.872408
 20
273.595144
 30
0.0
 10
381.887960
 20
284.514976
 30
0.0
  0
LWPOLYLINE
  5
133
100
AcDbEntity
  8
0
 62
5
100
AcDbPolyline
 90
4
 70
0
 10
381.887960
 20
284.514976
 30
0.0
 10
376.893216
 20
284.026952
 30
0.0
 10
361.430968
 20
249.725784
 30
0.0
 10
381.714056
 20
221.521814
 30
0.0
  0
LWPOLYLINE
  5
134
100
AcDbEntity
  8
0
 62
5
100
AcDbPolyline
 90
2
 70
0
 10
381.887960
 20
284.514976
 30
0.0
 10
381.887960
 20
284.514976
 30
0.0
  0
SPLINE
  5
135
100
AcDbEntity
  8
0
 62
5
100
AcDbSpline
 70
8
 71
3
 72
8
 73
4
 74
0
 40
0
 40
0
 40
0
 40
0
 40
1
 40
1
 40
1
 40
1
 10
261.076344
 20
403.554968
 30
0.0
 10
249.772640
 20
395.441336
 30
0.0
 10
239.110880
 20
387.771208
 30
0.0
 10
228.975424
 20
380.469344
 30
0.0
  0
LWPOLYLINE
  5
136
100
AcDbEntity
  8
0
 62
5
100
AcDbPolyline
 90
8
 70
0
 10
334.131880
 20
323.927528
 30
0.0
 10
296.693424
 20
320.184760
 30
0.0
 10
281.214920
 20
285.871896
 30
0.0
 10
303.191192
 20
255.313544
 30
0.0
 10
340.634288
 20
259.084280
 30
0.0
 10
356.108160
 20
293.369176
 30
0.0
 10
334.131880
 20
323.927528
 30
0.0
 10
334.131880
 20
323.927528
 30
0.0
  0
LWPOLYLINE
  5
137
100
AcDbEntity
  8
0
 62
5
100
AcDbPolyline
 90
4
 70
0
 10
228.975424
 20
380.469344
 30
0.0
 10
251.689952
 20
382.762824
 30
0.0
 10
261.076344
 20
403.554968
 30
0.0
 10
261.076344
 20
403.554968
 30
0.0
  0
LWPOLYLINE
  5
138
100
AcDbEntity
  8
0
 62
5
100
AcDbPolyline
 90
8
 70
0
 10
253.904216
 20
360.089904
 30
0.0
 10
216.477384
 20
356.330864
 30
0.0
 10
201.003456
 20
322.045936
 30
0.0
 10
222.979720
 20
291.487584
 30
0.0
 10
260.418240
 20
295.230384
 30
0.0
 10
275.880488
 20
329.531552
 30
0.0
 10
253.904216
 20
360.089904
 30
0.0
 10
253.904216
 20
360.089904
 30
0.0
  0
SPLINE
  5
139
100
AcDbEntity
  8
0
 62
5
100
AcDbSpline
 70
8
 71
3
 72
8
 73
4
 74
0
 40
0
 40
0
 40
0
 40
0
 40
1
 40
1
 40
1
 40
1
 10
294.088624
 20
192.575309
 30
0.0
 10
301.627504
 20
194.157309
 30
0.0
 10
309.688704
 20
195.843136
 30
0.0
 10
319.018608
 20
197.816943
 30
0.0
  0
SPLINE
  5
13a
100
AcDbEntity
  8
0
 62
5
100
AcDbSpline
 70
8
 71
3
 72
8
 73
4
 74
0
 40
0
 40
0
 40
0
 40
0
 40
1
 40
1
 40
1
 40
1
 10
319.018608
 20
197.816943
 30
0.0
 10
333.072896
 20
200.732325
 30
0.0
 10
352.771440
 20
204.802413
 30
0.0
 10
362.838112
 20
206.937013
 30
0.0
  0
SPLINE
  5
13b
100
AcDbEntity
  8
0
 62
5
100
AcDbSpline
 70
8
 71
3
 72
8
 73
4
 74
0
 40
0
 40
0
 40
0
 40
0
 40
1
 40
1
 40
1
 40
1
 10
362.838112
 20
206.937013
 30
0.0
 10
363.228360
 20
207.016984
 30
0.0
 10
363.516376
 20
207.074682
 30
0.0
 10
363.890656
 20
207.151988
 30
0.0
  0
LWPOLYLINE
  5
13c
100
AcDbEntity
  8
0
 62
5
100
AcDbPolyline
 90
4
 70
0
 10
342.860224
 20
236.395134
 30
0.0
 10
305.421728
 20
232.652326
 30
0.0
 10
289.943264
 20
198.339502
 30
0.0
 10
294.088624
 20
192.575309
 30
0.0
  0
LWPOLYLINE
  5
13d
100
AcDbEntity
  8
0
 62
5
100
AcDbPolyline
 90
3
 70
0
 10
363.890656
 20
207.151988
 30
0.0
 10
342.860224
 20
236.395134
 30
0.0
 10
342.860224
 20
236.395134
 30
0.0
  0
LWPOLYLINE
  5
13e
100
AcDbEntity
  8
0
 62
5
100
AcDbPolyline
 90
8
 70
0
 10
262.672120
 20
272.536704
 30
0.0
 10
225.217344
 20
268.782200
 30
0.0
 10
209.755160
 20
234.481070
 30
0.0
 10
231.719744
 20
203.938952
 30
0.0
 10
269.158208
 20
207.681724
 30
0.0
 10
284.636712
 20
241.994584
 30
0.0
 10
262.672120
 20
272.536704
 30
0.0
 10
262.672120
 20
272.536704
 30
0.0
  0
LWPOLYLINE
  5
13f
100
AcDbEntity
  8
0
 62
5
100
AcDbPolyline
 90
5
 70
0
 10
189.609432
 20
352.208272
 30
0.0
 10
157.299432
 20
329.070840
 30
0.0
 10
180.213872
 20
331.360264
 30
0.0
 10
189.609432
 20
352.208272
 30
0.0
 10
189.609432
 20
352.208272
 30
0.0
  0
SPLINE
  5
140
100
AcDbEntity
  8
0
 62
5
100
AcDbSpline
 70
8
 71
3
 72
8
 73
4
 74
0
 40
0
 40
0
 40
0
 40
0
 40
1
 40
1
 40
1
 40
1
 10
164.282632
 20
306.994544
 30
0.0
 10
168.560008
 20
297.262504
 30
0.0
 10
177.341488
 20
277.274096
 30
0.0
 10
190.572992
 20
247.143888
 30
0.0
  0
LWPOLYLINE
  5
141
100
AcDbEntity
  8
0
 62
5
100
AcDbPolyline
 90
2
 70
0
 10
182.578880
 20
308.820400
 30
0.0
 10
164.282632
 20
306.994544
 30
0.0
  0
LWPOLYLINE
  5
142
100
AcDbEntity
  8
0
 62
5
100
AcDbPolyline
 90
4
 70
0
 10
190.572992
 20
247.143888
 30
0.0
 10
204.590184
 20
278.213336
 30
0.0
 10
182.578880
 20
308.820400
 30
0.0
 10
182.578880
 20
308.820400
 30
0.0
  0
SPLINE
  5
143
100
AcDbEntity
  8
0
 62
5
100
AcDbSpline
 70
8
 71
3
 72
8
 73
4
 74
0
 40
0
 40
0
 40
0
 40
0
 40
1
 40
1
 40
1
 40
1
 10
220.383104
 20
180.857415
 30
0.0
 10
221.948896
 20
178.316014
 30
0.0
 10
222.806680
 20
177.997545
 30
0.0
 10
223.830320
 20
178.187824
 30
0.0
  0
SPLINE
  5
144
100
AcDbEntity
  8
0
 62
5
100
AcDbSpline
 70
8
 71
3
 72
8
 73
4
 74
0
 40
0
 40
0
 40
0
 40
0
 40
1
 40
1
 40
1
 40
1
 10
223.830320
 20
178.187824
 30
0.0
 10
225.080800
 20
178.505853
 30
0.0
 10
232.228952
 20
179.942117
 30
0.0
 10
239.794712
 20
181.440702
 30
0.0
  0
SPLINE
  5
145
100
AcDbEntity
  8
0
 62
5
100
AcDbSpline
 70
8
 71
3
 72
8
 73
4
 74
0
 40
0
 40
0
 40
0
 40
0
 40
1
 40
1
 40
1
 40
1
 10
239.794712
 20
181.440702
 30
0.0
 10
241.345984
 20
181.741667
 30
0.0
 10
243.422016
 20
182.152065
 30
0.0
 10
245.168928
 20
182.497236
 30
0.0
  0
LWPOLYLINE
  5
146
100
AcDbEntity
  8
0
 62
5
100
AcDbPolyline
 90
4
 70
0
 10
245.168928
 20
182.497236
 30
0.0
 10
227.470000
 20
180.731428
 30
0.0
 10
220.955280
 20
180.061796
 30
0.0
 10
220.383104
 20
180.857415
 30
0.0
  0
SPLINE
  5
147
100
AcDbEntity
  8
0
 62
5
100
AcDbSpline
 70
8
 71
3
 72
8
 73
4
 74
0
 40
0
 40
0
 40
0
 40
0
 40
1
 40
1
 40
1
 40
1
 10
609.111760
 20
327.755944
 30
0.0
 10
609.028472
 20
327.872400
 30
0.0
 10
608.925400
 20
327.984408
 30
0.0
 10
608.822392
 20
328.089808
 30
0.0
  0
SPLINE
  5
148
100
AcDbEntity
  8
0
 62
5
100
AcDbSpline
 70
8
 71
3
 72
8
 73
4
 74
0
 40
0
 40
0
 40
0
 40
0
 40
1
 40
1
 40
1
 40
1
 10
608.822392
 20
328.089808
 30
0.0
 10
608.178280
 20
328.748800
 30
0.0
 10
602.490520
 20
333.006720
 30
0.0
 10
594.661520
 20
338.771616
 30
0.0
  0
LWPOLYLINE
  5
149
100
AcDbEntity
  8
0
 62
5
100
AcDbPolyline
 90
2
 70
0
 10
245.168928
 20
182.497236
 30
0.0
 10
245.168928
 20
182.497236
 30
0.0
  0
SPLINE
  5
14a
100
AcDbEntity
  8
0
 62
5
100
AcDbSpline
 70
8
 71
3
 72
8
 73
4
 74
0
 40
0
 40
0
 40
0
 40
0
 40
1
 40
1
 40
1
 40
1
 10
597.995216
 20
297.688592
 30
0.0
 10
599.821920
 20
301.758648
 30
0.0
 10
601.888800
 20
306.321496
 30
0.0
 10
603.149960
 20
309.155632
 30
0.0
  0
SPLINE
  5
14b
100
AcDbEntity
  8
0
 62
5
100
AcDbSpline
 70
8
 71
3
 72
8
 73
4
 74
0
 40
0
 40
0
 40
0
 40
0
 40
1
 40
1
 40
1
 40
1
 10
603.149960
 20
309.155632
 30
0.0
 10
609.297688
 20
322.721104
 30
0.0
 10
610.360992
 20
326.009048
 30
0.0
 10
609.111760
 20
327.755944
 30
0.0
  0
LWPOLYLINE
  5
14c
100
AcDbEntity
  8
0
 62
5
100
AcDbPolyline
 90
3
 70
0
 10
594.661520
 20
338.771616
 30
0.0
 10
584.566576
 20
316.361344
 30
0.0
 10
597.995216
 20
297.688592
 30
0.0
  0
SPLINE
  5
14d
100
AcDbEntity
  8
0
 62
5
100
AcDbSpline
 70
8
 71
3
 72
8
 73
4
 74
0
 40
0
 40
0
 40
0
 40
0
 40
1
 40
1
 40
1
 40
1
 10
575.845456
 20
352.535296
 30
0.0
 10
575.750992
 20
352.604192
 30
0.0
 10
575.672056
 20
352.667776
 30
0.0
 10
575.577440
 20
352.736712
 30
0.0
  0
SPLINE
  5
14e
100
AcDbEntity
  8
0
 62
5
100
AcDbSpline
 70
8
 71
3
 72
8
 73
4
 74
0
 40
0
 40
0
 40
0
 40
0
 40
1
 40
1
 40
1
 40
1
 10
575.577440
 20
352.736712
 30
0.0
 10
562.895432
 20
361.838576
 30
0.0
 10
543.928656
 20
375.644080
 30
0.0
 10
527.650032
 20
387.591768
 30
0.0
  0
LWPOLYLINE
  5
14f
100
AcDbEntity
  8
0
 62
5
100
AcDbPolyline
 90
2
 70
0
 10
609.111760
 20
327.755944
 30
0.0
 10
609.111760
 20
327.755944
 30
0.0
  0
SPLINE
  5
150
100
AcDbEntity
  8
0
 62
5
100
AcDbSpline
 70
8
 71
3
 72
8
 73
4
 74
0
 40
0
 40
0
 40
0
 40
0
 40
1
 40
1
 40
1
 40
1
 10
479.994096
 20
422.617440
 30
0.0
 10
478.199824
 20
423.927264
 30
0.0
 10
476.499680
 20
425.168896
 30
0.0
 10
474.706328
 20
426.476136
 30
0.0
  0
LWPOLYLINE
  5
151
100
AcDbEntity
  8
0
 62
5
100
AcDbPolyline
 90
7
 70
0
 10
527.650032
 20
387.591768
 30
0.0
 10
519.812768
 20
386.808616
 30
0.0
 10
504.350560
 20
352.507464
 30
0.0
 10
526.315144
 20
321.965344
 30
0.0
 10
563.753640
 20
325.708136
 30
0.0
 10
575.845456
 20
352.535296
 30
0.0
 10
575.845456
 20
352.535296
 30
0.0
  0
LWPOLYLINE
  5
152
100
AcDbEntity
  8
0
 62
5
100
AcDbPolyline
 90
8
 70
0
 10
474.706328
 20
426.476136
 30
0.0
 10
439.612984
 20
422.966416
 30
0.0
 10
424.150768
 20
388.665272
 30
0.0
 10
446.127040
 20
358.106912
 30
0.0
 10
483.553856
 20
361.865944
 30
0.0
 10
499.027736
 20
396.150848
 30
0.0
 10
479.994096
 20
422.617440
 30
0.0
 10
479.994096
 20
422.617440
 30
0.0
  0
SPLINE
  5
153
100
AcDbEntity
  8
0
 62
5
100
AcDbSpline
 70
8
 71
3
 72
8
 73
4
 74
0
 40
0
 40
0
 40
0
 40
0
 40
1
 40
1
 40
1
 40
1
 10
571.271072
 20
238.043958
 30
0.0
 10
575.212200
 20
246.832848
 30
0.0
 10
579.546792
 20
256.527992
 30
0.0
 10
584.800256
 20
268.319024
 30
0.0
  0
SPLINE
  5
154
100
AcDbEntity
  8
0
 62
5
100
AcDbSpline
 70
8
 71
3
 72
8
 73
4
 74
0
 40
0
 40
0
 40
0
 40
0
 40
1
 40
1
 40
1
 40
1
 10
584.800256
 20
268.319024
 30
0.0
 10
585.512384
 20
269.900528
 30
0.0
 10
586.396240
 20
271.882792
 30
0.0
 10
587.166360
 20
273.592672
 30
0.0
  0
LWPOLYLINE
  5
155
100
AcDbEntity
  8
0
 62
5
100
AcDbPolyline
 90
5
 70
0
 10
566.007488
 20
303.014432
 30
0.0
 10
528.569000
 20
299.271648
 30
0.0
 10
513.090552
 20
264.958816
 30
0.0
 10
535.055136
 20
234.416702
 30
0.0
 10
571.271072
 20
238.043958
 30
0.0
  0
SPLINE
  5
156
100
AcDbEntity
  8
0
 62
5
100
AcDbSpline
 70
8
 71
3
 72
8
 73
4
 74
0
 40
0
 40
0
 40
0
 40
0
 40
1
 40
1
 40
1
 40
1
 10
446.944208
 20
446.616312
 30
0.0
 10
446.406992
 20
447.004336
 30
0.0
 10
445.709560
 20
447.516336
 30
0.0
 10
445.189400
 20
447.891712
 30
0.0
  0
SPLINE
  5
157
100
AcDbEntity
  8
0
 62
5
100
AcDbSpline
 70
8
 71
3
 72
8
 73
4
 74
0
 40
0
 40
0
 40
0
 40
0
 40
1
 40
1
 40
1
 40
1
 10
445.189400
 20
447.891712
 30
0.0
 10
438.495328
 20
452.780016
 30
0.0
 10
431.832392
 20
457.664264
 30
0.0
 10
425.273344
 20
462.465600
 30
0.0
  0
LWPOLYLINE
  5
158
100
AcDbEntity
  8
0
 62
5
100
AcDbPolyline
 90
3
 70
0
 10
587.166360
 20
273.592672
 30
0.0
 10
566.007488
 20
303.014432
 30
0.0
 10
566.007488
 20
303.014432
 30
0.0
  0
SPLINE
  5
159
100
AcDbEntity
  8
0
 62
5
100
AcDbSpline
 70
8
 71
3
 72
8
 73
4
 74
0
 40
0
 40
0
 40
0
 40
0
 40
1
 40
1
 40
1
 40
1
 10
394.232944
 20
485.520016
 30
0.0
 10
385.106552
 20
492.343840
 30
0.0
 10
384.200592
 20
492.617360
 30
0.0
 10
384.820440
 20
490.181504
 30
0.0
  0
SPLINE
  5
15a
100
AcDbEntity
  8
0
 62
5
100
AcDbSpline
 70
8
 71
3
 72
8
 73
4
 74
0
 40
0
 40
0
 40
0
 40
0
 40
1
 40
1
 40
1
 40
1
 10
384.820440
 20
490.181504
 30
0.0
 10
384.861984
 20
489.960664
 30
0.0
 10
384.886232
 20
487.911280
 30
0.0
 10
384.908208
 20
484.578616
 30
0.0
  0
LWPOLYLINE
  5
15b
100
AcDbEntity
  8
0
 62
5
100
AcDbPolyline
 90
4
 70
0
 10
425.273344
 20
462.465600
 30
0.0
 10
437.359128
 20
445.660120
 30
0.0
 10
446.944208
 20
446.616312
 30
0.0
 10
446.944208
 20
446.616312
 30
0.0
  0
LWPOLYLINE
  5
15c
100
AcDbEntity
  8
0
 62
5
100
AcDbPolyline
 90
3
 70
0
 10
384.908208
 20
484.578616
 30
0.0
 10
394.232944
 20
485.520016
 30
0.0
 10
394.232944
 20
485.520016
 30
0.0
  0
SPLINE
  5
15d
100
AcDbEntity
  8
0
 62
5
100
AcDbSpline
 70
8
 71
3
 72
8
 73
4
 74
0
 40
0
 40
0
 40
0
 40
0
 40
1
 40
1
 40
1
 40
1
 10
384.921472
 20
461.677752
 30
0.0
 10
384.902336
 20
449.966104
 30
0.0
 10
384.873512
 20
436.087792
 30
0.0
 10
384.772664
 20
420.504480
 30
0.0
  0
SPLINE
  5
15e
100
AcDbEntity
  8
0
 62
5
100
AcDbSpline
 70
8
 71
3
 72
8
 73
4
 74
0
 40
0
 40
0
 40
0
 40
0
 40
1
 40
1
 40
1
 40
1
 10
384.772664
 20
420.504480
 30
0.0
 10
384.708968
 20
413.381536
 30
0.0
 10
384.638976
 20
404.748456
 30
0.0
 10
384.576704
 20
396.147512
 30
0.0
  0
LWPOLYLINE
  5
15f
100
AcDbEntity
  8
0
 62
5
100
AcDbPolyline
 90
2
 70
0
 10
396.840008
 20
462.883248
 30
0.0
 10
384.921472
 20
461.677752
 30
0.0
  0
LWPOLYLINE
  5
160
100
AcDbEntity
  8
0
 62
5
100
AcDbPolyline
 90
5
 70
0
 10
384.576704
 20
396.147512
 30
0.0
 10
403.337824
 20
398.012072
 30
0.0
 10
418.816280
 20
432.324888
 30
0.0
 10
396.840008
 20
462.883248
 30
0.0
 10
396.840008
 20
462.883248
 30
0.0
  0
LWPOLYLINE
  5
161
100
AcDbEntity
  8
0
 62
5
100
AcDbPolyline
 90
8
 70
0
 10
485.796024
 20
339.188472
 30
0.0
 10
448.341304
 20
335.434008
 30
0.0
 10
432.879080
 20
301.132872
 30
0.0
 10
454.855352
 20
270.574512
 30
0.0
 10
492.282168
 20
274.333528
 30
0.0
 10
507.772288
 20
308.630120
 30
0.0
 10
485.796024
 20
339.188472
 30
0.0
 10
485.796024
 20
339.188472
 30
0.0
  0
SPLINE
  5
162
100
AcDbEntity
  8
0
 62
5
100
AcDbSpline
 70
8
 71
3
 72
8
 73
4
 74
0
 40
0
 40
0
 40
0
 40
0
 40
1
 40
1
 40
1
 40
1
 10
523.574720
 20
181.596104
 30
0.0
 10
541.729592
 20
177.775837
 30
0.0
 10
543.900432
 20
177.896765
 30
0.0
 10
544.782048
 20
179.750855
 30
0.0
  0
SPLINE
  5
163
100
AcDbEntity
  8
0
 62
5
100
AcDbSpline
 70
8
 71
3
 72
8
 73
4
 74
0
 40
0
 40
0
 40
0
 40
0
 40
1
 40
1
 40
1
 40
1
 10
544.782048
 20
179.750855
 30
0.0
 10
545.258944
 20
180.949775
 30
0.0
 10
548.291000
 20
187.594997
 30
0.0
 10
551.520800
 20
194.598898
 30
0.0
  0
SPLINE
  5
164
100
AcDbEntity
  8
0
 62
5
100
AcDbSpline
 70
8
 71
3
 72
8
 73
4
 74
0
 40
0
 40
0
 40
0
 40
0
 40
1
 40
1
 40
1
 40
1
 10
551.520800
 20
194.598898
 30
0.0
 10
553.884104
 20
199.671602
 30
0.0
 10
556.952144
 20
206.359977
 30
0.0
 10
560.490344
 20
214.155150
 30
0.0
  0
LWPOLYLINE
  5
165
100
AcDbEntity
  8
0
 62
5
100
AcDbPolyline
 90
3
 70
0
 10
560.490344
 20
214.155150
 30
0.0
 10
537.211016
 20
211.824982
 30
0.0
 10
523.574720
 20
181.596104
 30
0.0
  0
LWPOLYLINE
  5
166
100
AcDbEntity
  8
0
 62
5
100
AcDbPolyline
 90
2
 70
0
 10
560.490344
 20
214.155150
 30
0.0
 10
560.490344
 20
214.155150
 30
0.0
  0
SPLINE
  5
167
100
AcDbEntity
  8
0
 62
5
100
AcDbSpline
 70
8
 71
3
 72
8
 73
4
 74
0
 40
0
 40
0
 40
0
 40
0
 40
1
 40
1
 40
1
 40
1
 10
384.425040
 20
373.201952
 30
0.0
 10
384.288160
 20
351.169400
 30
0.0
 10
384.155064
 20
328.414320
 30
0.0
 10
384.080272
 20
307.671712
 30
0.0
  0
LWPOLYLINE
  5
168
100
AcDbEntity
  8
0
 62
5
100
AcDbPolyline
 90
2
 70
0
 10
405.591680
 20
375.318360
 30
0.0
 10
384.425040
 20
373.201952
 30
0.0
  0
LWPOLYLINE
  5
169
100
AcDbEntity
  8
0
 62
5
100
AcDbPolyline
 90
5
 70
0
 10
384.080272
 20
307.671712
 30
0.0
 10
412.094064
 20
310.475104
 30
0.0
 10
427.556280
 20
344.776248
 30
0.0
 10
405.591680
 20
375.318360
 30
0.0
 10
405.591680
 20
375.318360
 30
0.0
  0
SPLINE
  5
16a
100
AcDbEntity
  8
0
 62
5
100
AcDbSpline
 70
8
 71
3
 72
8
 73
4
 74
0
 40
0
 40
0
 40
0
 40
0
 40
1
 40
1
 40
1
 40
1
 10
453.728208
 20
196.746275
 30
0.0
 10
467.479536
 20
193.763590
 30
0.0
 10
479.458240
 20
191.170323
 30
0.0
 10
500.087856
 20
186.679581
 30
0.0
  0
LWPOLYLINE
  5
16b
100
AcDbEntity
  8
0
 62
5
100
AcDbPolyline
 90
4
 70
0
 10
494.547696
 20
251.623592
 30
0.0
 10
457.109208
 20
247.880808
 30
0.0
 10
441.630760
 20
213.567974
 30
0.0
 10
453.728208
 20
196.746275
 30
0.0
  0
LWPOLYLINE
  5
16c
100
AcDbEntity
  8
0
 62
5
100
AcDbPolyline
 90
5
 70
0
 10
500.087856
 20
186.679581
 30
0.0
 10
501.050072
 20
186.780327
 30
0.0
 10
516.512296
 20
221.081470
 30
0.0
 10
494.547696
 20
251.623592
 30
0.0
 10
494.547696
 20
251.623592
 30
0.0
  0
SPLINE
  5
16d
100
AcDbEntity
  8
0
 62
5
100
AcDbSpline
 70
8
 71
3
 72
8
 73
4
 74
0
 40
0
 40
0
 40
0
 40
0
 40
1
 40
1
 40
1
 40
1
 10
384.016904
 20
284.740376
 30
0.0
 10
384.015304
 20
283.971728
 30
0.0
 10
384.019464
 20
282.955120
 30
0.0
 10
384.018104
 20
282.203864
 30
0.0
  0
LWPOLYLINE
  5
16e
100
AcDbEntity
  8
0
 62
5
100
AcDbPolyline
 90
2
 70
0
 10
414.331672
 20
287.769720
 30
0.0
 10
384.016904
 20
284.740376
 30
0.0
  0
LWPOLYLINE
  5
16f
100
AcDbEntity
  8
0
 62
5
100
AcDbPolyline
 90
6
 70
0
 10
384.018104
 20
282.203864
 30
0.0
 10
383.627984
 20
219.203014
 30
0.0
 10
420.834064
 20
222.926470
 30
0.0
 10
436.296248
 20
257.227600
 30
0.0
 10
414.331664
 20
287.769720
 30
0.0
 10
414.331672
 20
287.769720
 30
0.0
  0
SPLINE
  5
170
100
AcDbEntity
  8
0
 62
5
100
AcDbSpline
 70
8
 71
3
 72
8
 73
4
 74
0
 40
0
 40
0
 40
0
 40
0
 40
1
 40
1
 40
1
 40
1
 10
690.532920
 20
515.298552
 30
0.0
 10
673.797784
 20
544.202760
 30
0.0
 10
662.411640
 20
563.881960
 30
0.0
 10
658.734368
 20
570.202560
 30
0.0
  0
LWPOLYLINE
  5
171
100
AcDbEntity
  8
0
 62
5
100
AcDbPolyline
 90
5
 70
0
 10
654.822120
 20
577.218328
 30
0.0
 10
653.992360
 20
577.138944
 30
0.0
 10
638.530144
 20
542.837792
 30
0.0
 10
660.494744
 20
512.295672
 30
0.0
 10
690.532920
 20
515.298552
 30
0.0
  0
LWPOLYLINE
  5
172
100
AcDbEntity
  8
0
 62
5
100
AcDbPolyline
 90
3
 70
0
 10
658.734368
 20
570.202560
 30
0.0
 10
654.822120
 20
577.218328
 30
0.0
 10
654.822120
 20
577.218328
 30
0.0
  0
SPLINE
  5
173
100
AcDbEntity
  8
0
 62
5
100
AcDbSpline
 70
8
 71
3
 72
8
 73
4
 74
0
 40
0
 40
0
 40
0
 40
0
 40
1
 40
1
 40
1
 40
1
 10
721.632296
 20
461.640816
 30
0.0
 10
719.979864
 20
464.502800
 30
0.0
 10
718.069736
 20
467.792648
 30
0.0
 10
715.974496
 20
471.392112
 30
0.0
  0
LWPOLYLINE
  5
174
100
AcDbEntity
  8
0
 62
5
100
AcDbPolyline
 90
6
 70
0
 10
700.187080
 20
493.344760
 30
0.0
 10
662.748592
 20
489.601968
 30
0.0
 10
647.270136
 20
455.289144
 30
0.0
 10
669.234736
 20
424.747024
 30
0.0
 10
706.689448
 20
428.501496
 30
0.0
 10
721.632296
 20
461.640816
 30
0.0
  0
LWPOLYLINE
  5
175
100
AcDbEntity
  8
0
 62
5
100
AcDbPolyline
 90
3
 70
0
 10
715.974496
 20
471.392112
 30
0.0
 10
700.187080
 20
493.344760
 30
0.0
 10
700.187080
 20
493.344760
 30
0.0
  0
SPLINE
  5
176
100
AcDbEntity
  8
0
 62
5
100
AcDbSpline
 70
8
 71
3
 72
8
 73
4
 74
0
 40
0
 40
0
 40
0
 40
0
 40
1
 40
1
 40
1
 40
1
 10
586.282984
 20
558.179480
 30
0.0
 10
583.159408
 20
557.168432
 30
0.0
 10
579.152680
 20
555.867152
 30
0.0
 10
575.736328
 20
554.758064
 30
0.0
  0
LWPOLYLINE
  5
177
100
AcDbEntity
  8
0
 62
5
100
AcDbPolyline
 90
2
 70
0
 10
626.362560
 20
571.335240
 30
0.0
 10
586.282984
 20
558.179480
 30
0.0
  0
LWPOLYLINE
  5
178
100
AcDbEntity
  8
0
 62
5
100
AcDbPolyline
 90
5
 70
0
 10
575.736328
 20
554.758064
 30
0.0
 10
580.278712
 20
548.441808
 30
0.0
 10
617.733440
 20
552.196264
 30
0.0
 10
626.362560
 20
571.335240
 30
0.0
 10
626.362560
 20
571.335240
 30
0.0
  0
LWPOLYLINE
  5
179
100
AcDbEntity
  8
0
 62
5
100
AcDbPolyline
 90
8
 70
0
 10
619.987296
 20
529.502568
 30
0.0
 10
582.532568
 20
525.748104
 30
0.0
 10
567.070360
 20
491.446952
 30
0.0
 10
589.046624
 20
460.888592
 30
0.0
 10
626.473440
 20
464.647624
 30
0.0
 10
641.963568
 20
498.944200
 30
0.0
 10
619.987296
 20
529.502568
 30
0.0
 10
619.987296
 20
529.502568
 30
0.0
  0
SPLINE
  5
17a
100
AcDbEntity
  8
0
 62
5
100
AcDbSpline
 70
8
 71
3
 72
8
 73
4
 74
0
 40
0
 40
0
 40
0
 40
0
 40
1
 40
1
 40
1
 40
1
 10
656.423392
 20
367.200112
 30
0.0
 10
657.902512
 20
368.535504
 30
0.0
 10
659.599112
 20
370.071384
 30
0.0
 10
660.962472
 20
371.302016
 30
0.0
  0
SPLINE
  5
17b
100
AcDbEntity
  8
0
 62
5
100
AcDbSpline
 70
8
 71
3
 72
8
 73
4
 74
0
 40
0
 40
0
 40
0
 40
0
 40
1
 40
1
 40
1
 40
1
 10
660.962472
 20
371.302016
 30
0.0
 10
676.620568
 20
385.324000
 30
0.0
 10
688.624168
 20
396.107216
 30
0.0
 10
698.163584
 20
404.731512
 30
0.0
  0
LWPOLYLINE
  5
17c
100
AcDbEntity
  8
0
 62
5
100
AcDbPolyline
 90
4
 70
0
 10
698.163584
 20
404.731512
 30
0.0
 10
671.488584
 20
402.053320
 30
0.0
 10
656.026368
 20
367.752184
 30
0.0
 10
656.423392
 20
367.200112
 30
0.0
  0
SPLINE
  5
17d
100
AcDbEntity
  8
0
 62
5
100
AcDbSpline
 70
8
 71
3
 72
8
 73
4
 74
0
 40
0
 40
0
 40
0
 40
0
 40
1
 40
1
 40
1
 40
1
 10
552.931336
 20
547.349408
 30
0.0
 10
531.847880
 20
540.473080
 30
0.0
 10
508.785408
 20
532.902160
 30
0.0
 10
487.963656
 20
526.050552
 30
0.0
  0
LWPOLYLINE
  5
17e
100
AcDbEntity
  8
0
 62
5
100
AcDbPolyline
 90
2
 70
0
 10
698.163584
 20
404.731512
 30
0.0
 10
698.163584
 20
404.731512
 30
0.0
  0
LWPOLYLINE
  5
17f
100
AcDbEntity
  8
0
 62
5
100
AcDbPolyline
 90
6
 70
0
 10
487.963656
 20
526.050552
 30
0.0
 10
508.818928
 20
497.050968
 30
0.0
 10
546.273648
 20
500.805424
 30
0.0
 10
561.735856
 20
535.106568
 30
0.0
 10
552.931336
 20
547.349408
 30
0.0
 10
552.931336
 20
547.349408
 30
0.0
  0
LWPOLYLINE
  5
180
100
AcDbEntity
  8
0
 62
5
100
AcDbPolyline
 90
8
 70
0
 10
628.715608
 20
441.970160
 30
0.0
 10
591.260880
 20
438.215688
 30
0.0
 10
575.798664
 20
403.914544
 30
0.0
 10
597.774944
 20
373.356184
 30
0.0
 10
635.201744
 20
377.115216
 30
0.0
 10
650.691880
 20
411.411800
 30
0.0
 10
628.715608
 20
441.970160
 30
0.0
 10
628.715608
 20
441.970160
 30
0.0
  0
LWPOLYLINE
  5
181
100
AcDbEntity
  8
0
 62
5
100
AcDbPolyline
 90
8
 70
0
 10
548.527504
 20
478.111728
 30
0.0
 10
511.072776
 20
474.357256
 30
0.0
 10
495.610552
 20
440.056120
 30
0.0
 10
517.575144
 20
409.513984
 30
0.0
 10
555.013640
 20
413.256784
 30
0.0
 10
570.492096
 20
447.569600
 30
0.0
 10
548.527504
 20
478.111728
 30
0.0
 10
548.527504
 20
478.111728
 30
0.0
  0
SPLINE
  5
182
100
AcDbEntity
  8
0
 62
5
100
AcDbSpline
 70
8
 71
3
 72
8
 73
4
 74
0
 40
0
 40
0
 40
0
 40
0
 40
1
 40
1
 40
1
 40
1
 10
595.758104
 20
341.186136
 30
0.0
 10
604.250840
 20
335.053104
 30
0.0
 10
610.567520
 20
330.544960
 30
0.0
 10
611.431456
 20
330.113944
 30
0.0
  0
SPLINE
  5
183
100
AcDbEntity
  8
0
 62
5
100
AcDbSpline
 70
8
 71
3
 72
8
 73
4
 74
0
 40
0
 40
0
 40
0
 40
0
 40
1
 40
1
 40
1
 40
1
 10
611.431456
 20
330.113944
 30
0.0
 10
613.541488
 20
329.061168
 30
0.0
 10
615.940288
 20
330.653000
 30
0.0
 10
627.707320
 20
341.326152
 30
0.0
  0
SPLINE
  5
184
100
AcDbEntity
  8
0
 62
5
100
AcDbSpline
 70
8
 71
3
 72
8
 73
4
 74
0
 40
0
 40
0
 40
0
 40
0
 40
1
 40
1
 40
1
 40
1
 10
627.707320
 20
341.326152
 30
0.0
 10
630.584352
 20
343.900152
 30
0.0
 10
635.024216
 20
347.922336
 30
0.0
 10
639.335616
 20
351.807320
 30
0.0
  0
LWPOLYLINE
  5
185
100
AcDbEntity
  8
0
 62
5
100
AcDbPolyline
 90
3
 70
0
 10
637.467280
 20
354.405272
 30
0.0
 10
600.028800
 20
350.662488
 30
0.0
 10
595.758104
 20
341.186136
 30
0.0
  0
LWPOLYLINE
  5
186
100
AcDbEntity
  8
0
 62
5
100
AcDbPolyline
 90
3
 70
0
 10
639.335616
 20
351.807320
 30
0.0
 10
637.467280
 20
354.405272
 30
0.0
 10
637.467280
 20
354.405272
 30
0.0
  0
SPLINE
  5
187
100
AcDbEntity
  8
0
 62
5
100
AcDbSpline
 70
8
 71
3
 72
8
 73
4
 74
0
 40
0
 40
0
 40
0
 40
0
 40
1
 40
1
 40
1
 40
1
 10
445.076288
 20
511.934832
 30
0.0
 10
439.647912
 20
510.156616
 30
0.0
 10
434.099208
 20
508.331280
 30
0.0
 10
429.164712
 20
506.724528
 30
0.0
  0
LWPOLYLINE
  5
188
100
AcDbEntity
  8
0
 62
5
100
AcDbPolyline
 90
2
 70
0
 10
468.311480
 20
514.257856
 30
0.0
 10
445.076288
 20
511.934832
 30
0.0
  0
SPLINE
  5
189
100
AcDbEntity
  8
0
 62
5
100
AcDbSpline
 70
8
 71
3
 72
8
 73
4
 74
0
 40
0
 40
0
 40
0
 40
0
 40
1
 40
1
 40
1
 40
1
 10
421.151344
 20
468.197320
 30
0.0
 10
429.306368
 20
462.294624
 30
0.0
 10
438.524448
 20
455.590304
 30
0.0
 10
447.296232
 20
449.209776
 30
0.0
  0
SPLINE
  5
18a
100
AcDbEntity
  8
0
 62
5
100
AcDbSpline
 70
8
 71
3
 72
8
 73
4
 74
0
 40
0
 40
0
 40
0
 40
0
 40
1
 40
1
 40
1
 40
1
 10
447.296232
 20
449.209776
 30
0.0
 10
448.203800
 20
448.541784
 30
0.0
 10
449.408064
 20
447.665104
 30
0.0
 10
450.367784
 20
446.959792
 30
0.0
  0
LWPOLYLINE
  5
18b
100
AcDbEntity
  8
0
 62
5
100
AcDbPolyline
 90
3
 70
0
 10
429.164712
 20
506.724528
 30
0.0
 10
415.394536
 20
476.202240
 30
0.0
 10
421.151344
 20
468.197320
 30
0.0
  0
LWPOLYLINE
  5
18c
100
AcDbEntity
  8
0
 62
5
100
AcDbPolyline
 90
5
 70
0
 10
450.367784
 20
446.959792
 30
0.0
 10
474.797616
 20
449.402912
 30
0.0
 10
490.276064
 20
483.715736
 30
0.0
 10
468.311480
 20
514.257856
 30
0.0
 10
468.311480
 20
514.257856
 30
0.0
  0
SPLINE
  5
18d
100
AcDbEntity
  8
0
 62
5
100
AcDbSpline
 70
8
 71
3
 72
8
 73
4
 74
0
 40
0
 40
0
 40
0
 40
0
 40
1
 40
1
 40
1
 40
1
 10
531.582616
 20
387.981080
 30
0.0
 10
547.224336
 20
376.653752
 30
0.0
 10
564.774240
 20
363.837304
 30
0.0
 10
576.900448
 20
354.870632
 30
0.0
  0
LWPOLYLINE
  5
18e
100
AcDbEntity
  8
0
 62
5
100
AcDbPolyline
 90
2
 70
0
 10
557.267496
 20
390.563080
 30
0.0
 10
531.582616
 20
387.981080
 30
0.0
  0
SPLINE
  5
18f
100
AcDbEntity
  8
0
 62
5
100
AcDbSpline
 70
8
 71
3
 72
8
 73
4
 74
0
 40
0
 40
0
 40
0
 40
0
 40
1
 40
1
 40
1
 40
1
 10
399.909832
 20
497.288664
 30
0.0
 10
393.586184
 20
495.273368
 30
0.0
 10
388.866104
 20
493.784664
 30
0.0
 10
388.540536
 20
493.743696
 30
0.0
  0
SPLINE
  5
190
100
AcDbEntity
  8
0
 62
5
100
AcDbSpline
 70
8
 71
3
 72
8
 73
4
 74
0
 40
0
 40
0
 40
0
 40
0
 40
1
 40
1
 40
1
 40
1
 10
388.540536
 20
493.743696
 30
0.0
 10
386.106952
 20
493.592600
 30
0.0
 10
386.624384
 20
492.802120
 30
0.0
 10
395.133448
 20
486.734224
 30
0.0
  0
LWPOLYLINE
  5
191
100
AcDbEntity
  8
0
 62
5
100
AcDbPolyline
 90
4
 70
0
 10
576.900448
 20
354.870632
 30
0.0
 10
579.232096
 20
360.020960
 30
0.0
 10
557.267496
 20
390.563080
 30
0.0
 10
557.267496
 20
390.563080
 30
0.0
  0
SPLINE
  5
192
100
AcDbEntity
  8
0
 62
1
100
AcDbSpline
 70
8
 71
3
 72
8
 73
4
 74
0
 40
0
 40
0
 40
0
 40
0
 40
1
 40
1
 40
1
 40
1
 10
43.097262
 20
454.953208
 30
0.0
 10
50.414280
 20
467.866872
 30
0.0
 10
62.008490
 20
487.803800
 30
0.0
 10
83.826544
 20
524.841880
 30
0.0
  0
SPLINE
  5
193
100
AcDbEntity
  8
0
 62
1
100
AcDbSpline
 70
8
 71
3
 72
8
 73
4
 74
0
 40
0
 40
0
 40
0
 40
0
 40
1
 40
1
 40
1
 40
1
 10
83.826544
 20
524.841880
 30
0.0
 10
91.062752
 20
537.237744
 30
0.0
 10
101.197584
 20
554.617888
 30
0.0
 10
106.424720
 20
563.481856
 30
0.0
  0
SPLINE
  5
194
100
AcDbEntity
  8
0
 62
1
100
AcDbSpline
 70
8
 71
3
 72
8
 73
4
 74
0
 40
0
 40
0
 40
0
 40
0
 40
1
 40
1
 40
1
 40
1
 10
106.424720
 20
563.481856
 30
0.0
 10
114.400752
 20
577.220952
 30
0.0
 10
116.208096
 20
579.458312
 30
0.0
 10
118.538072
 20
579.095056
 30
0.0
  0
SPLINE
  5
195
100
AcDbEntity
  8
0
 62
1
100
AcDbSpline
 70
8
 71
3
 72
8
 73
4
 74
0
 40
0
 40
0
 40
0
 40
0
 40
1
 40
1
 40
1
 40
1
 10
118.538072
 20
579.095056
 30
0.0
 10
120.091384
 20
578.852880
 30
0.0
 10
137.749128
 20
573.050232
 30
0.0
 10
157.915120
 20
566.326200
 30
0.0
  0
SPLINE
  5
196
100
AcDbEntity
  8
0
 62
1
100
AcDbSpline
 70
8
 71
3
 72
8
 73
4
 74
0
 40
0
 40
0
 40
0
 40
0
 40
1
 40
1
 40
1
 40
1
 10
157.915120
 20
566.326200
 30
0.0
 10
177.931416
 20
559.492840
 30
0.0
 10
211.713872
 20
548.259184
 30
0.0
 10
232.915352
 20
541.373672
 30
0.0
  0
SPLINE
  5
197
100
AcDbEntity
  8
0
 62
1
100
AcDbSpline
 70
8
 71
3
 72
8
 73
4
 74
0
 40
0
 40
0
 40
0
 40
0
 40
1
 40
1
 40
1
 40
1
 10
232.915352
 20
541.373672
 30
0.0
 10
254.116792
 20
534.488120
 30
0.0
 10
289.282768
 20
522.773616
 30
0.0
 10
311.070944
 20
515.398832
 30
0.0
  0
SPLINE
  5
198
100
AcDbEntity
  8
0
 62
1
100
AcDbSpline
 70
8
 71
3
 72
8
 73
4
 74
0
 40
0
 40
0
 40
0
 40
0
 40
1
 40
1
 40
1
 40
1
 10
311.070944
 20
515.398832
 30
0.0
 10
332.879240
 20
508.153504
 30
0.0
 10
357.584032
 20
499.926256
 30
0.0
 10
365.945608
 20
497.429296
 30
0.0
  0
SPLINE
  5
199
100
AcDbEntity
  8
0
 62
1
100
AcDbSpline
 70
8
 71
3
 72
8
 73
4
 74
0
 40
0
 40
0
 40
0
 40
0
 40
1
 40
1
 40
1
 40
1
 10
365.945608
 20
497.429296
 30
0.0
 10
381.871928
 20
492.426952
 30
0.0
 10
383.235272
 20
491.816600
 30
0.0
 10
380.553840
 20
490.776168
 30
0.0
  0
SPLINE
  5
19a
100
AcDbEntity
  8
0
 62
1
100
AcDbSpline
 70
8
 71
3
 72
8
 73
4
 74
0
 40
0
 40
0
 40
0
 40
0
 40
1
 40
1
 40
1
 40
1
 10
380.553840
 20
490.776168
 30
0.0
 10
379.696440
 20
490.379504
 30
0.0
 10
354.191336
 20
472.213704
 30
0.0
 10
323.857920
 20
450.292680
 30
0.0
  0
SPLINE
  5
19b
100
AcDbEntity
  8
0
 62
1
100
AcDbSpline
 70
8
 71
3
 72
8
 73
4
 74
0
 40
0
 40
0
 40
0
 40
0
 40
1
 40
1
 40
1
 40
1
 10
323.857920
 20
450.292680
 30
0.0
 10
293.653896
 20
428.351384
 30
0.0
 10
243.161544
 20
391.939016
 30
0.0
 10
211.671400
 20
369.402720
 30
0.0
  0
LWPOLYLINE
  5
19c
100
AcDbEntity
  8
0
 62
5
100
AcDbPolyline
 90
3
 70
0
 10
395.133448
 20
486.734224
 30
0.0
 10
399.909832
 20
497.288664
 30
0.0
 10
399.909832
 20
497.288664
 30
0.0
  0
SPLINE
  5
19d
100
AcDbEntity
  8
0
 62
1
100
AcDbSpline
 70
8
 71
3
 72
8
 73
4
 74
0
 40
0
 40
0
 40
0
 40
0
 40
1
 40
1
 40
1
 40
1
 10
146.264616
 20
335.978656
 30
0.0
 10
138.479936
 20
343.026272
 30
0.0
 10
117.124632
 20
362.531776
 30
0.0
 10
64.044086
 20
410.717184
 30
0.0
  0
SPLINE
  5
19e
100
AcDbEntity
  8
0
 62
1
100
AcDbSpline
 70
8
 71
3
 72
8
 73
4
 74
0
 40
0
 40
0
 40
0
 40
0
 40
1
 40
1
 40
1
 40
1
 10
64.044086
 20
410.717184
 30
0.0
 10
35.689136
 20
436.352448
 30
0.0
 10
33.641726
 20
438.527864
 30
0.0
 10
34.931274
 20
440.846040
 30
0.0
  0
SPLINE
  5
19f
100
AcDbEntity
  8
0
 62
1
100
AcDbSpline
 70
8
 71
3
 72
8
 73
4
 74
0
 40
0
 40
0
 40
0
 40
0
 40
1
 40
1
 40
1
 40
1
 10
34.931274
 20
440.846040
 30
0.0
 10
35.630682
 20
441.930304
 30
0.0
 10
39.269042
 20
448.257648
 30
0.0
 10
43.097262
 20
454.953208
 30
0.0
  0
LWPOLYLINE
  5
1a0
100
AcDbEntity
  8
0
 62
1
100
AcDbPolyline
 90
3
 70
0
 10
211.671400
 20
369.402720
 30
0.0
 10
154.595528
 20
328.182856
 30
0.0
 10
146.264616
 20
335.978656
 30
0.0
  0
SPLINE
  5
1a1
100
AcDbEntity
  8
0
 62
1
100
AcDbSpline
 70
8
 71
3
 72
8
 73
4
 74
0
 40
0
 40
0
 40
0
 40
0
 40
1
 40
1
 40
1
 40
1
 10
239.799824
 20
181.435124
 30
0.0
 10
254.370648
 20
184.262258
 30
0.0
 10
276.960792
 20
188.909166
 30
0.0
 10
319.016488
 20
197.806463
 30
0.0
  0
SPLINE
  5
1a2
100
AcDbEntity
  8
0
 62
1
100
AcDbSpline
 70
8
 71
3
 72
8
 73
4
 74
0
 40
0
 40
0
 40
0
 40
0
 40
1
 40
1
 40
1
 40
1
 10
319.016488
 20
197.806463
 30
0.0
 10
333.070704
 20
200.721782
 30
0.0
 10
352.772528
 20
204.798872
 30
0.0
 10
362.839160
 20
206.933441
 30
0.0
  0
SPLINE
  5
1a3
100
AcDbEntity
  8
0
 62
1
100
AcDbSpline
 70
8
 71
3
 72
8
 73
4
 74
0
 40
0
 40
0
 40
0
 40
0
 40
1
 40
1
 40
1
 40
1
 10
362.839160
 20
206.933441
 30
0.0
 10
378.402176
 20
210.122726
 30
0.0
 10
381.098424
 20
211.124054
 30
0.0
 10
381.495504
 20
213.448494
 30
0.0
  0
SPLINE
  5
1a4
100
AcDbEntity
  8
0
 62
1
100
AcDbSpline
 70
8
 71
3
 72
8
 73
4
 74
0
 40
0
 40
0
 40
0
 40
0
 40
1
 40
1
 40
1
 40
1
 10
381.495504
 20
213.448494
 30
0.0
 10
381.760240
 20
214.998126
 30
0.0
 10
381.878384
 20
233.584550
 30
0.0
 10
381.921320
 20
254.841976
 30
0.0
  0
SPLINE
  5
1a5
100
AcDbEntity
  8
0
 62
1
100
AcDbSpline
 70
8
 71
3
 72
8
 73
4
 74
0
 40
0
 40
0
 40
0
 40
0
 40
1
 40
1
 40
1
 40
1
 10
381.921320
 20
254.841976
 30
0.0
 10
381.813000
 20
275.992208
 30
0.0
 10
381.913880
 20
311.593384
 30
0.0
 10
382.133256
 20
333.883784
 30
0.0
  0
SPLINE
  5
1a6
100
AcDbEntity
  8
0
 62
1
100
AcDbSpline
 70
8
 71
3
 72
8
 73
4
 74
0
 40
0
 40
0
 40
0
 40
0
 40
1
 40
1
 40
1
 40
1
 10
382.133256
 20
333.883784
 30
0.0
 10
382.352552
 20
356.174232
 30
0.0
 10
382.437808
 20
393.240024
 30
0.0
 10
382.380080
 20
416.242320
 30
0.0
  0
SPLINE
  5
1a7
100
AcDbEntity
  8
0
 62
1
100
AcDbSpline
 70
8
 71
3
 72
8
 73
4
 74
0
 40
0
 40
0
 40
0
 40
0
 40
1
 40
1
 40
1
 40
1
 10
382.380080
 20
416.242320
 30
0.0
 10
382.451448
 20
439.222552
 30
0.0
 10
382.513672
 20
465.261200
 30
0.0
 10
382.807304
 20
473.982704
 30
0.0
  0
SPLINE
  5
1a8
100
AcDbEntity
  8
0
 62
1
100
AcDbSpline
 70
8
 71
3
 72
8
 73
4
 74
0
 40
0
 40
0
 40
0
 40
0
 40
1
 40
1
 40
1
 40
1
 10
382.807304
 20
473.982704
 30
0.0
 10
383.133280
 20
490.673008
 30
0.0
 10
382.988552
 20
492.159656
 30
0.0
 10
381.148912
 20
489.948712
 30
0.0
  0
SPLINE
  5
1a9
100
AcDbEntity
  8
0
 62
1
100
AcDbSpline
 70
8
 71
3
 72
8
 73
4
 74
0
 40
0
 40
0
 40
0
 40
0
 40
1
 40
1
 40
1
 40
1
 10
381.148912
 20
489.948712
 30
0.0
 10
380.500016
 20
489.262120
 30
0.0
 10
355.162080
 20
470.863864
 30
0.0
 10
324.727680
 20
449.083264
 30
0.0
  0
SPLINE
  5
1aa
100
AcDbEntity
  8
0
 62
1
100
AcDbSpline
 70
8
 71
3
 72
8
 73
4
 74
0
 40
0
 40
0
 40
0
 40
0
 40
1
 40
1
 40
1
 40
1
 10
324.727680
 20
449.083264
 30
0.0
 10
294.315232
 20
427.431768
 30
0.0
 10
243.727688
 20
391.151768
 30
0.0
 10
212.341912
 20
368.470384
 30
0.0
  0
LWPOLYLINE
  5
1ab
100
AcDbEntity
  8
0
 62
1
100
AcDbPolyline
 90
2
 70
0
 10
43.097262
 20
454.953208
 30
0.0
 10
43.097262
 20
454.953208
 30
0.0
  0
SPLINE
  5
1ac
100
AcDbEntity
  8
0
 62
1
100
AcDbSpline
 70
8
 71
3
 72
8
 73
4
 74
0
 40
0
 40
0
 40
0
 40
0
 40
1
 40
1
 40
1
 40
1
 10
159.841096
 20
317.100344
 30
0.0
 10
164.045088
 20
307.477520
 30
0.0
 10
175.740648
 20
281.025256
 30
0.0
 10
204.529352
 20
215.370174
 30
0.0
  0
SPLINE
  5
1ad
100
AcDbEntity
  8
0
 62
1
100
AcDbSpline
 70
8
 71
3
 72
8
 73
4
 74
0
 40
0
 40
0
 40
0
 40
0
 40
1
 40
1
 40
1
 40
1
 10
204.529352
 20
215.370174
 30
0.0
 10
219.808560
 20
180.331414
 30
0.0
 10
221.219392
 20
177.698095
 30
0.0
 10
223.827376
 20
178.182956
 30
0.0
  0
SPLINE
  5
1ae
100
AcDbEntity
  8
0
 62
1
100
AcDbSpline
 70
8
 71
3
 72
8
 73
4
 74
0
 40
0
 40
0
 40
0
 40
0
 40
1
 40
1
 40
1
 40
1
 10
223.827376
 20
178.182956
 30
0.0
 10
225.077856
 20
178.500961
 30
0.0
 10
232.234136
 20
179.936573
 30
0.0
 10
239.799824
 20
181.435124
 30
0.0
  0
LWPOLYLINE
  5
1af
100
AcDbEntity
  8
0
 62
1
100
AcDbPolyline
 90
3
 70
0
 10
212.341912
 20
368.470384
 30
0.0
 10
155.101720
 20
327.479008
 30
0.0
 10
159.841096
 20
317.100344
 30
0.0
  0
SPLINE
  5
1b0
100
AcDbEntity
  8
0
 62
1
100
AcDbSpline
 70
8
 71
3
 72
8
 73
4
 74
0
 40
0
 40
0
 40
0
 40
0
 40
1
 40
1
 40
1
 40
1
 10
551.535400
 20
194.586893
 30
0.0
 10
557.803448
 20
208.041001
 30
0.0
 10
567.307592
 20
229.054702
 30
0.0
 10
584.802256
 20
268.320272
 30
0.0
  0
SPLINE
  5
1b1
100
AcDbEntity
  8
0
 62
1
100
AcDbSpline
 70
8
 71
3
 72
8
 73
4
 74
0
 40
0
 40
0
 40
0
 40
0
 40
1
 40
1
 40
1
 40
1
 10
584.802256
 20
268.320272
 30
0.0
 10
590.695496
 20
281.408072
 30
0.0
 10
598.964856
 20
299.749304
 30
0.0
 10
603.148472
 20
309.150928
 30
0.0
  0
SPLINE
  5
1b2
100
AcDbEntity
  8
0
 62
1
100
AcDbSpline
 70
8
 71
3
 72
8
 73
4
 74
0
 40
0
 40
0
 40
0
 40
0
 40
1
 40
1
 40
1
 40
1
 10
603.148472
 20
309.150928
 30
0.0
 10
609.706096
 20
323.620808
 30
0.0
 10
610.478856
 20
326.391208
 30
0.0
 10
608.830560
 20
328.077560
 30
0.0
  0
SPLINE
  5
1b3
100
AcDbEntity
  8
0
 62
1
100
AcDbSpline
 70
8
 71
3
 72
8
 73
4
 74
0
 40
0
 40
0
 40
0
 40
0
 40
1
 40
1
 40
1
 40
1
 10
608.830560
 20
328.077560
 30
0.0
 10
607.731720
 20
329.201848
 30
0.0
 10
592.756864
 20
340.212032
 30
0.0
 10
575.575904
 20
352.729608
 30
0.0
  0
SPLINE
  5
1b4
100
AcDbEntity
  8
0
 62
1
100
AcDbSpline
 70
8
 71
3
 72
8
 73
4
 74
0
 40
0
 40
0
 40
0
 40
0
 40
1
 40
1
 40
1
 40
1
 10
575.575904
 20
352.729608
 30
0.0
 10
558.392760
 20
365.061928
 30
0.0
 10
529.635600
 20
386.049560
 30
0.0
 10
511.722064
 20
399.316672
 30
0.0
  0
SPLINE
  5
1b5
100
AcDbEntity
  8
0
 62
1
100
AcDbSpline
 70
8
 71
3
 72
8
 73
4
 74
0
 40
0
 40
0
 40
0
 40
0
 40
1
 40
1
 40
1
 40
1
 10
511.722064
 20
399.316672
 30
0.0
 10
493.808448
 20
412.583752
 30
0.0
 10
463.856672
 20
434.418736
 30
0.0
 10
445.204184
 20
447.879592
 30
0.0
  0
SPLINE
  5
1b6
100
AcDbEntity
  8
0
 62
1
100
AcDbSpline
 70
8
 71
3
 72
8
 73
4
 74
0
 40
0
 40
0
 40
0
 40
0
 40
1
 40
1
 40
1
 40
1
 10
445.204184
 20
447.879592
 30
0.0
 10
426.645368
 20
461.432040
 30
0.0
 10
405.605656
 20
476.772984
 30
0.0
 10
398.718728
 20
482.132152
 30
0.0
  0
SPLINE
  5
1b7
100
AcDbEntity
  8
0
 62
1
100
AcDbSpline
 70
8
 71
3
 72
8
 73
4
 74
0
 40
0
 40
0
 40
0
 40
0
 40
1
 40
1
 40
1
 40
1
 10
398.718728
 20
482.132152
 30
0.0
 10
385.400608
 20
492.197056
 30
0.0
 10
384.112272
 20
492.952904
 30
0.0
 10
384.821568
 20
490.165472
 30
0.0
  0
SPLINE
  5
1b8
100
AcDbEntity
  8
0
 62
1
100
AcDbSpline
 70
8
 71
3
 72
8
 73
4
 74
0
 40
0
 40
0
 40
0
 40
0
 40
1
 40
1
 40
1
 40
1
 10
384.821568
 20
490.165472
 30
0.0
 10
384.996224
 20
489.237112
 30
0.0
 10
385.009176
 20
457.924016
 30
0.0
 10
384.766904
 20
420.499552
 30
0.0
  0
SPLINE
  5
1b9
100
AcDbEntity
  8
0
 62
1
100
AcDbSpline
 70
8
 71
3
 72
8
 73
4
 74
0
 40
0
 40
0
 40
0
 40
0
 40
1
 40
1
 40
1
 40
1
 10
384.766904
 20
420.499552
 30
0.0
 10
384.433144
 20
383.168736
 30
0.0
 10
384.092624
 20
320.917384
 30
0.0
 10
384.020824
 20
282.193984
 30
0.0
  0
LWPOLYLINE
  5
1ba
100
AcDbEntity
  8
0
 62
1
100
AcDbPolyline
 90
2
 70
0
 10
239.799824
 20
181.435124
 30
0.0
 10
239.799824
 20
181.435124
 30
0.0
  0
SPLINE
  5
1bb
100
AcDbEntity
  8
0
 62
1
100
AcDbSpline
 70
8
 71
3
 72
8
 73
4
 74
0
 40
0
 40
0
 40
0
 40
0
 40
1
 40
1
 40
1
 40
1
 10
394.771016
 20
209.532734
 30
0.0
 10
405.028552
 20
207.284800
 30
0.0
 10
433.307632
 20
201.217995
 30
0.0
 10
503.355864
 20
185.965729
 30
0.0
  0
SPLINE
  5
1bc
100
AcDbEntity
  8
0
 62
1
100
AcDbSpline
 70
8
 71
3
 72
8
 73
4
 74
0
 40
0
 40
0
 40
0
 40
0
 40
1
 40
1
 40
1
 40
1
 10
503.355864
 20
185.965729
 30
0.0
 10
540.689376
 20
177.757346
 30
0.0
 10
543.649328
 20
177.352970
 30
0.0
 10
544.788296
 20
179.748702
 30
0.0
  0
SPLINE
  5
1bd
100
AcDbEntity
  8
0
 62
1
100
AcDbSpline
 70
8
 71
3
 72
8
 73
4
 74
0
 40
0
 40
0
 40
0
 40
0
 40
1
 40
1
 40
1
 40
1
 10
544.788296
 20
179.748702
 30
0.0
 10
545.265224
 20
180.947496
 30
0.0
 10
548.305544
 20
187.583007
 30
0.0
 10
551.535400
 20
194.586893
 30
0.0
  0
LWPOLYLINE
  5
1be
100
AcDbEntity
  8
0
 62
1
100
AcDbPolyline
 90
3
 70
0
 10
384.020824
 20
282.193984
 30
0.0
 10
383.587216
 20
211.791222
 30
0.0
 10
394.771016
 20
209.532734
 30
0.0
  0
SPLINE
  5
1bf
100
AcDbEntity
  8
0
 62
1
100
AcDbSpline
 70
8
 71
3
 72
8
 73
4
 74
0
 40
0
 40
0
 40
0
 40
0
 40
1
 40
1
 40
1
 40
1
 10
720.976096
 20
425.532056
 30
0.0
 10
710.087320
 20
415.445656
 30
0.0
 10
692.992968
 20
399.963784
 30
0.0
 10
660.969928
 20
371.286792
 30
0.0
  0
SPLINE
  5
1c0
100
AcDbEntity
  8
0
 62
1
100
AcDbSpline
 70
8
 71
3
 72
8
 73
4
 74
0
 40
0
 40
0
 40
0
 40
0
 40
1
 40
1
 40
1
 40
1
 10
660.969928
 20
371.286792
 30
0.0
 10
650.315096
 20
361.669272
 30
0.0
 10
635.386712
 20
348.181208
 30
0.0
 10
627.717616
 20
341.319872
 30
0.0
  0
SPLINE
  5
1c1
100
AcDbEntity
  8
0
 62
1
100
AcDbSpline
 70
8
 71
3
 72
8
 73
4
 74
0
 40
0
 40
0
 40
0
 40
0
 40
1
 40
1
 40
1
 40
1
 10
627.717616
 20
341.319872
 30
0.0
 10
615.950608
 20
330.646712
 30
0.0
 10
613.549816
 20
329.062856
 30
0.0
 10
611.439784
 20
330.115608
 30
0.0
  0
SPLINE
  5
1c2
100
AcDbEntity
  8
0
 62
1
100
AcDbSpline
 70
8
 71
3
 72
8
 73
4
 74
0
 40
0
 40
0
 40
0
 40
0
 40
1
 40
1
 40
1
 40
1
 10
611.439784
 20
330.115608
 30
0.0
 10
610.033096
 20
330.817472
 30
0.0
 10
594.966576
 20
341.701920
 30
0.0
 10
577.789648
 20
354.224968
 30
0.0
  0
SPLINE
  5
1c3
100
AcDbEntity
  8
0
 62
1
100
AcDbSpline
 70
8
 71
3
 72
8
 73
4
 74
0
 40
0
 40
0
 40
0
 40
0
 40
1
 40
1
 40
1
 40
1
 10
577.789648
 20
354.224968
 30
0.0
 10
560.788392
 20
366.806840
 30
0.0
 10
532.003680
 20
387.756704
 30
0.0
 10
513.888888
 20
400.747648
 30
0.0
  0
SPLINE
  5
1c4
100
AcDbEntity
  8
0
 62
1
100
AcDbSpline
 70
8
 71
3
 72
8
 73
4
 74
0
 40
0
 40
0
 40
0
 40
0
 40
1
 40
1
 40
1
 40
1
 10
513.888888
 20
400.747648
 30
0.0
 10
495.774040
 20
413.738648
 30
0.0
 10
465.816928
 20
435.566256
 30
0.0
 10
447.291456
 20
449.201416
 30
0.0
  0
SPLINE
  5
1c5
100
AcDbEntity
  8
0
 62
1
100
AcDbSpline
 70
8
 71
3
 72
8
 73
4
 74
0
 40
0
 40
0
 40
0
 40
0
 40
1
 40
1
 40
1
 40
1
 10
447.291456
 20
449.201416
 30
0.0
 10
428.707440
 20
462.719304
 30
0.0
 10
407.661168
 20
478.051288
 30
0.0
 10
400.450728
 20
482.966520
 30
0.0
  0
SPLINE
  5
1c6
100
AcDbEntity
  8
0
 62
1
100
AcDbSpline
 70
8
 71
3
 72
8
 73
4
 74
0
 40
0
 40
0
 40
0
 40
0
 40
1
 40
1
 40
1
 40
1
 10
400.450728
 20
482.966520
 30
0.0
 10
386.791424
 20
492.563264
 30
0.0
 10
385.677440
 20
493.558312
 30
0.0
 10
388.548104
 20
493.736536
 30
0.0
  0
SPLINE
  5
1c7
100
AcDbEntity
  8
0
 62
1
100
AcDbSpline
 70
8
 71
3
 72
8
 73
4
 74
0
 40
0
 40
0
 40
0
 40
0
 40
1
 40
1
 40
1
 40
1
 10
388.548104
 20
493.736536
 30
0.0
 10
389.485400
 20
493.854536
 30
0.0
 10
419.298488
 20
503.429928
 30
0.0
 10
454.851400
 20
515.119384
 30
0.0
  0
SPLINE
  5
1c8
100
AcDbEntity
  8
0
 62
1
100
AcDbSpline
 70
8
 71
3
 72
8
 73
4
 74
0
 40
0
 40
0
 40
0
 40
0
 40
1
 40
1
 40
1
 40
1
 10
454.851400
 20
515.119384
 30
0.0
 10
490.287016
 20
526.867280
 30
0.0
 10
549.444272
 20
546.252048
 30
0.0
 10
586.285824
 20
558.176992
 30
0.0
  0
LWPOLYLINE
  5
1c9
100
AcDbEntity
  8
0
 62
1
100
AcDbPolyline
 90
2
 70
0
 10
551.535400
 20
194.586893
 30
0.0
 10
551.535400
 20
194.586893
 30
0.0
  0
SPLINE
  5
1ca
100
AcDbEntity
  8
0
 62
1
100
AcDbSpline
 70
8
 71
3
 72
8
 73
4
 74
0
 40
0
 40
0
 40
0
 40
0
 40
1
 40
1
 40
1
 40
1
 10
658.748840
 20
570.191008
 30
0.0
 10
664.029488
 20
561.114456
 30
0.0
 10
678.463704
 20
536.051112
 30
0.0
 10
714.431224
 20
474.037296
 30
0.0
  0
SPLINE
  5
1cb
100
AcDbEntity
  8
0
 62
1
100
AcDbSpline
 70
8
 71
3
 72
8
 73
4
 74
0
 40
0
 40
0
 40
0
 40
0
 40
1
 40
1
 40
1
 40
1
 10
714.431224
 20
474.037296
 30
0.0
 10
733.676440
 20
441.010160
 30
0.0
 10
734.967616
 20
438.316312
 30
0.0
 10
733.035800
 20
436.498392
 30
0.0
  0
SPLINE
  5
1cc
100
AcDbEntity
  8
0
 62
1
100
AcDbSpline
 70
8
 71
3
 72
8
 73
4
 74
0
 40
0
 40
0
 40
0
 40
0
 40
1
 40
1
 40
1
 40
1
 10
733.035800
 20
436.498392
 30
0.0
 10
732.040512
 20
435.677288
 30
0.0
 10
726.654624
 20
430.751296
 30
0.0
 10
720.976096
 20
425.532056
 30
0.0
  0
LWPOLYLINE
  5
1cd
100
AcDbEntity
  8
0
 62
1
100
AcDbPolyline
 90
3
 70
0
 10
586.285824
 20
558.176992
 30
0.0
 10
653.174504
 20
580.146184
 30
0.0
 10
658.748840
 20
570.191008
 30
0.0
  0
SPLINE
  5
1ce
100
AcDbEntity
  8
0
 62
5
100
AcDbSpline
 70
8
 71
3
 72
8
 73
4
 74
0
 40
0
 40
0
 40
0
 40
0
 40
1
 40
1
 40
1
 40
1
 10
1024.233600
 20
521.817800
 30
0.0
 10
1023.264320
 20
522.206328
 30
0.0
 10
1019.101440
 20
521.131328
 30
0.0
 10
1008.047840
 20
518.043680
 30
0.0
  0
SPLINE
  5
1cf
100
AcDbEntity
  8
0
 62
5
100
AcDbSpline
 70
8
 71
3
 72
8
 73
4
 74
0
 40
0
 40
0
 40
0
 40
0
 40
1
 40
1
 40
1
 40
1
 10
1008.047840
 20
518.043680
 30
0.0
 10
1003.384560
 20
516.669688
 30
0.0
 10
993.263040
 20
513.967400
 30
0.0
 10
981.577920
 20
510.884416
 30
0.0
  0
LWPOLYLINE
  5
1d0
100
AcDbEntity
  8
0
 62
1
100
AcDbPolyline
 90
2
 70
0
 10
720.976096
 20
425.532056
 30
0.0
 10
720.976096
 20
425.532056
 30
0.0
  0
SPLINE
  5
1d1
100
AcDbEntity
  8
0
 62
5
100
AcDbSpline
 70
8
 71
3
 72
8
 73
4
 74
0
 40
0
 40
0
 40
0
 40
0
 40
1
 40
1
 40
1
 40
1
 10
1018.878640
 20
507.870344
 30
0.0
 10
1021.670960
 20
514.927832
 30
0.0
 10
1023.743600
 20
520.133688
 30
0.0
 10
1023.931600
 20
520.433176
 30
0.0
  0
SPLINE
  5
1d2
100
AcDbEntity
  8
0
 62
5
100
AcDbSpline
 70
8
 71
3
 72
8
 73
4
 74
0
 40
0
 40
0
 40
0
 40
0
 40
1
 40
1
 40
1
 40
1
 10
1023.931600
 20
520.433176
 30
0.0
 10
1024.456720
 20
521.162624
 30
0.0
 10
1024.674240
 20
521.641208
 30
0.0
 10
1024.233600
 20
521.817800
 30
0.0
  0
LWPOLYLINE
  5
1d3
100
AcDbEntity
  8
0
 62
5
100
AcDbPolyline
 90
3
 70
0
 10
981.577920
 20
510.884416
 30
0.0
 10
1009.242880
 20
500.135032
 30
0.0
 10
1018.878640
 20
507.870344
 30
0.0
  0
LWPOLYLINE
  5
1d4
100
AcDbEntity
  8
0
 62
5
100
AcDbPolyline
 90
2
 70
0
 10
1024.233600
 20
521.817800
 30
0.0
 10
1024.233600
 20
521.817800
 30
0.0
  0
SPLINE
  5
1d5
100
AcDbEntity
  8
0
 62
5
100
AcDbSpline
 70
8
 71
3
 72
8
 73
4
 74
0
 40
0
 40
0
 40
0
 40
0
 40
1
 40
1
 40
1
 40
1
 10
987.073360
 20
425.904800
 30
0.0
 10
991.260320
 20
436.766840
 30
0.0
 10
995.152720
 20
446.906592
 30
0.0
 10
998.478720
 20
455.589344
 30
0.0
  0
SPLINE
  5
1d6
100
AcDbEntity
  8
0
 62
5
100
AcDbSpline
 70
8
 71
3
 72
8
 73
4
 74
0
 40
0
 40
0
 40
0
 40
0
 40
1
 40
1
 40
1
 40
1
 10
998.478720
 20
455.589344
 30
0.0
 10
1000.001760
 20
459.536096
 30
0.0
 10
1001.365840
 20
463.008192
 30
0.0
 10
1002.824880
 20
466.774656
 30
0.0
  0
LWPOLYLINE
  5
1d7
100
AcDbEntity
  8
0
 62
5
100
AcDbPolyline
 90
5
 70
0
 10
965.886160
 20
492.477960
 30
0.0
 10
936.544160
 20
468.925984
 30
0.0
 10
942.279520
 20
431.723064
 30
0.0
 10
977.345520
 20
418.097984
 30
0.0
 10
987.073360
 20
425.904800
 30
0.0
  0
SPLINE
  5
1d8
100
AcDbEntity
  8
0
 62
5
100
AcDbSpline
 70
8
 71
3
 72
8
 73
4
 74
0
 40
0
 40
0
 40
0
 40
0
 40
1
 40
1
 40
1
 40
1
 10
938.342320
 20
499.618464
 30
0.0
 10
929.008560
 20
497.208544
 30
0.0
 10
919.045840
 20
494.614272
 30
0.0
 10
908.839360
 20
491.942624
 30
0.0
  0
LWPOLYLINE
  5
1d9
100
AcDbEntity
  8
0
 62
5
100
AcDbPolyline
 90
4
 70
0
 10
1002.824880
 20
466.774656
 30
0.0
 10
1000.952160
 20
478.852896
 30
0.0
 10
965.886160
 20
492.477960
 30
0.0
 10
965.886160
 20
492.477960
 30
0.0
  0
LWPOLYLINE
  5
1da
100
AcDbEntity
  8
0
 62
5
100
AcDbPolyline
 90
4
 70
0
 10
908.839360
 20
491.942624
 30
0.0
 10
922.280400
 20
486.720040
 30
0.0
 10
938.342320
 20
499.618464
 30
0.0
 10
938.342320
 20
499.618464
 30
0.0
  0
SPLINE
  5
1db
100
AcDbEntity
  8
0
 62
5
100
AcDbSpline
 70
8
 71
3
 72
8
 73
4
 74
0
 40
0
 40
0
 40
0
 40
0
 40
1
 40
1
 40
1
 40
1
 10
798.665120
 20
463.021664
 30
0.0
 10
797.884200
 20
462.823392
 30
0.0
 10
796.858008
 20
462.549792
 30
0.0
 10
796.112664
 20
462.361312
 30
0.0
  0
SPLINE
  5
1dc
100
AcDbEntity
  8
0
 62
5
100
AcDbSpline
 70
8
 71
3
 72
8
 73
4
 74
0
 40
0
 40
0
 40
0
 40
0
 40
1
 40
1
 40
1
 40
1
 10
796.112664
 20
462.361312
 30
0.0
 10
791.888760
 20
461.260744
 30
0.0
 10
787.893592
 20
460.230528
 30
0.0
 10
784.009920
 20
459.210680
 30
0.0
  0
LWPOLYLINE
  5
1dd
100
AcDbEntity
  8
0
 62
5
100
AcDbPolyline
 90
8
 70
0
 10
878.935120
 20
479.037088
 30
0.0
 10
849.593120
 20
455.485144
 30
0.0
 10
855.335680
 20
418.300824
 30
0.0
 10
890.401600
 20
404.675752
 30
0.0
 10
919.743680
 20
428.227752
 30
0.0
 10
914.001040
 20
465.412008
 30
0.0
 10
878.935120
 20
479.037088
 30
0.0
 10
878.935120
 20
479.037088
 30
0.0
  0
LWPOLYLINE
  5
1de
100
AcDbEntity
  8
0
 62
5
100
AcDbPolyline
 90
8
 70
0
 10
784.009920
 20
459.210680
 30
0.0
 10
762.667856
 20
442.055656
 30
0.0
 10
768.384552
 20
404.859912
 30
0.0
 10
803.469120
 20
391.227592
 30
0.0
 10
832.799760
 20
414.805528
 30
0.0
 10
827.075840
 20
451.982536
 30
0.0
 10
798.665120
 20
463.021664
 30
0.0
 10
798.665120
 20
463.021664
 30
0.0
  0
SPLINE
  5
1df
100
AcDbEntity
  8
0
 62
5
100
AcDbSpline
 70
8
 71
3
 72
8
 73
4
 74
0
 40
0
 40
0
 40
0
 40
0
 40
1
 40
1
 40
1
 40
1
 10
955.305440
 20
343.924744
 30
0.0
 10
960.238720
 20
356.585592
 30
0.0
 10
965.465120
 20
370.086008
 30
0.0
 10
970.998000
 20
384.366920
 30
0.0
  0
LWPOLYLINE
  5
1e0
100
AcDbEntity
  8
0
 62
5
100
AcDbPolyline
 90
5
 70
0
 10
934.007440
 20
410.433672
 30
0.0
 10
904.665440
 20
386.881736
 30
0.0
 10
910.400800
 20
349.678744
 30
0.0
 10
945.485360
 20
336.046424
 30
0.0
 10
955.305440
 20
343.924744
 30
0.0
  0
LWPOLYLINE
  5
1e1
100
AcDbEntity
  8
0
 62
5
100
AcDbPolyline
 90
4
 70
0
 10
970.998000
 20
384.366920
 30
0.0
 10
969.092080
 20
396.801352
 30
0.0
 10
934.007440
 20
410.433672
 30
0.0
 10
934.007440
 20
410.433672
 30
0.0
  0
LWPOLYLINE
  5
1e2
100
AcDbEntity
  8
0
 62
5
100
AcDbPolyline
 90
8
 70
0
 10
847.037680
 20
397.000072
 30
0.0
 10
817.714320
 20
373.440824
 30
0.0
 10
823.431040
 20
336.245144
 30
0.0
 10
858.515600
 20
322.612824
 30
0.0
 10
887.864880
 20
346.183432
 30
0.0
 10
882.122320
 20
383.367752
 30
0.0
 10
847.037680
 20
397.000072
 30
0.0
 10
847.037680
 20
397.000072
 30
0.0
  0
SPLINE
  5
1e3
100
AcDbEntity
  8
0
 62
5
100
AcDbSpline
 70
8
 71
3
 72
8
 73
4
 74
0
 40
0
 40
0
 40
0
 40
0
 40
1
 40
1
 40
1
 40
1
 10
756.902952
 20
380.998312
 30
0.0
 10
758.374424
 20
348.118464
 30
0.0
 10
759.386576
 20
327.594880
 30
0.0
 10
760.181384
 20
313.616392
 30
0.0
  0
LWPOLYLINE
  5
1e4
100
AcDbEntity
  8
0
 62
5
100
AcDbPolyline
 90
2
 70
0
 10
760.112464
 20
383.570600
 30
0.0
 10
756.902952
 20
380.998312
 30
0.0
  0
LWPOLYLINE
  5
1e5
100
AcDbEntity
  8
0
 62
5
100
AcDbPolyline
 90
6
 70
0
 10
760.181384
 20
313.616392
 30
0.0
 10
771.571768
 20
309.190592
 30
0.0
 10
800.913760
 20
332.742536
 30
0.0
 10
795.178432
 20
369.945528
 30
0.0
 10
760.112464
 20
383.570600
 30
0.0
 10
760.112464
 20
383.570600
 30
0.0
  0
SPLINE
  5
1e6
100
AcDbEntity
  8
0
 62
5
100
AcDbSpline
 70
8
 71
3
 72
8
 73
4
 74
0
 40
0
 40
0
 40
0
 40
0
 40
1
 40
1
 40
1
 40
1
 10
878.406880
 20
268.387272
 30
0.0
 10
896.253520
 20
265.479424
 30
0.0
 10
906.672480
 20
263.775176
 30
0.0
 10
911.947120
 20
262.929256
 30
0.0
  0
LWPOLYLINE
  5
1e7
100
AcDbEntity
  8
0
 62
5
100
AcDbPolyline
 90
3
 70
0
 10
902.128720
 20
328.389416
 30
0.0
 10
872.779440
 20
304.818744
 30
0.0
 10
878.406880
 20
268.387272
 30
0.0
  0
LWPOLYLINE
  5
1e8
100
AcDbEntity
  8
0
 62
5
100
AcDbPolyline
 90
7
 70
0
 10
911.947120
 20
262.929256
 30
0.0
 10
922.379920
 20
261.064128
 30
0.0
 10
923.625440
 20
262.060672
 30
0.0
 10
939.138880
 20
302.207640
 30
0.0
 10
937.194640
 20
314.764352
 30
0.0
 10
902.128720
 20
328.389416
 30
0.0
 10
902.128720
 20
328.389416
 30
0.0
  0
SPLINE
  5
1e9
100
AcDbEntity
  8
0
 62
5
100
AcDbSpline
 70
8
 71
3
 72
8
 73
4
 74
0
 40
0
 40
0
 40
0
 40
0
 40
1
 40
1
 40
1
 40
1
 10
777.440104
 20
284.810016
 30
0.0
 10
783.315568
 20
283.777944
 30
0.0
 10
791.281984
 20
282.495072
 30
0.0
 10
802.272000
 20
280.740200
 30
0.0
  0
SPLINE
  5
1ea
100
AcDbEntity
  8
0
 62
5
100
AcDbSpline
 70
8
 71
3
 72
8
 73
4
 74
0
 40
0
 40
0
 40
0
 40
0
 40
1
 40
1
 40
1
 40
1
 10
802.272000
 20
280.740200
 30
0.0
 10
826.292720
 20
276.854616
 30
0.0
 10
839.642880
 20
274.686784
 30
0.0
 10
854.873680
 20
272.209960
 30
0.0
  0
LWPOLYLINE
  5
1eb
100
AcDbEntity
  8
0
 62
5
100
AcDbPolyline
 90
3
 70
0
 10
815.205520
 20
315.130816
 30
0.0
 10
780.664080
 20
287.419528
 30
0.0
 10
777.440104
 20
284.810016
 30
0.0
  0
SPLINE
  5
1ec
100
AcDbEntity
  8
0
 62
5
100
AcDbSpline
 70
8
 71
3
 72
8
 73
4
 74
0
 40
0
 40
0
 40
0
 40
0
 40
1
 40
1
 40
1
 40
1
 10
762.984768
 20
288.195208
 30
0.0
 10
763.458016
 20
287.958248
 30
0.0
 10
764.077784
 20
287.705832
 30
0.0
 10
764.886272
 20
287.456376
 30
0.0
  0
LWPOLYLINE
  5
1ed
100
AcDbEntity
  8
0
 62
5
100
AcDbPolyline
 90
4
 70
0
 10
854.873680
 20
272.209960
 30
0.0
 10
850.346000
 20
301.476768
 30
0.0
 10
815.205520
 20
315.130816
 30
0.0
 10
815.205520
 20
315.130816
 30
0.0
  0
SPLINE
  5
1ee
100
AcDbEntity
  8
0
 62
5
100
AcDbSpline
 70
8
 71
3
 72
8
 73
4
 74
0
 40
0
 40
0
 40
0
 40
0
 40
1
 40
1
 40
1
 40
1
 10
1025.594480
 20
521.289024
 30
0.0
 10
1025.150240
 20
521.456232
 30
0.0
 10
1024.987520
 20
520.956392
 30
0.0
 10
1024.882400
 20
520.063744
 30
0.0
  0
SPLINE
  5
1ef
100
AcDbEntity
  8
0
 62
5
100
AcDbSpline
 70
8
 71
3
 72
8
 73
4
 74
0
 40
0
 40
0
 40
0
 40
0
 40
1
 40
1
 40
1
 40
1
 10
1024.882400
 20
520.063744
 30
0.0
 10
1024.825520
 20
519.751816
 30
0.0
 10
1023.193520
 20
515.398592
 30
0.0
 10
1020.975120
 20
509.566176
 30
0.0
  0
LWPOLYLINE
  5
1f0
100
AcDbEntity
  8
0
 62
5
100
AcDbPolyline
 90
3
 70
0
 10
764.886272
 20
287.456376
 30
0.0
 10
762.984768
 20
288.195208
 30
0.0
 10
762.984768
 20
288.195208
 30
0.0
  0
SPLINE
  5
1f1
100
AcDbEntity
  8
0
 62
5
100
AcDbSpline
 70
8
 71
3
 72
8
 73
4
 74
0
 40
0
 40
0
 40
0
 40
0
 40
1
 40
1
 40
1
 40
1
 10
1029.431680
 20
516.365000
 30
0.0
 10
1027.321280
 20
519.593768
 30
0.0
 10
1026.185520
 20
521.066560
 30
0.0
 10
1025.594480
 20
521.289024
 30
0.0
  0
LWPOLYLINE
  5
1f2
100
AcDbEntity
  8
0
 62
5
100
AcDbPolyline
 90
2
 70
0
 10
1020.975120
 20
509.566176
 30
0.0
 10
1029.431680
 20
516.365000
 30
0.0
  0
LWPOLYLINE
  5
1f3
100
AcDbEntity
  8
0
 62
5
100
AcDbPolyline
 90
2
 70
0
 10
1025.594480
 20
521.289024
 30
0.0
 10
1025.594480
 20
521.289024
 30
0.0
  0
SPLINE
  5
1f4
100
AcDbEntity
  8
0
 62
5
100
AcDbSpline
 70
8
 71
3
 72
8
 73
4
 74
0
 40
0
 40
0
 40
0
 40
0
 40
1
 40
1
 40
1
 40
1
 10
1077.215360
 20
441.925144
 30
0.0
 10
1073.192720
 20
448.116744
 30
0.0
 10
1069.382160
 20
453.934240
 30
0.0
 10
1066.105040
 20
458.944456
 30
0.0
  0
SPLINE
  5
1f5
100
AcDbEntity
  8
0
 62
5
100
AcDbSpline
 70
8
 71
3
 72
8
 73
4
 74
0
 40
0
 40
0
 40
0
 40
0
 40
1
 40
1
 40
1
 40
1
 10
1066.105040
 20
458.944456
 30
0.0
 10
1057.433520
 20
472.366016
 30
0.0
 10
1048.123600
 20
486.770592
 30
0.0
 10
1041.635120
 20
496.968352
 30
0.0
  0
LWPOLYLINE
  5
1f6
100
AcDbEntity
  8
0
 62
5
100
AcDbPolyline
 90
5
 70
0
 10
1041.635120
 20
496.968352
 30
0.0
 10
1023.469440
 20
482.355456
 30
0.0
 10
1029.193360
 20
445.178424
 30
0.0
 10
1064.278000
 20
431.546104
 30
0.0
 10
1077.215360
 20
441.925144
 30
0.0
  0
SPLINE
  5
1f7
100
AcDbEntity
  8
0
 62
5
100
AcDbSpline
 70
8
 71
3
 72
8
 73
4
 74
0
 40
0
 40
0
 40
0
 40
0
 40
1
 40
1
 40
1
 40
1
 10
1003.274080
 20
463.789256
 30
0.0
 10
1002.113200
 20
460.813056
 30
0.0
 10
1001.081680
 20
458.125592
 30
0.0
 10
999.876880
 20
455.046072
 30
0.0
  0
SPLINE
  5
1f8
100
AcDbEntity
  8
0
 62
5
100
AcDbSpline
 70
8
 71
3
 72
8
 73
4
 74
0
 40
0
 40
0
 40
0
 40
0
 40
1
 40
1
 40
1
 40
1
 10
999.876880
 20
455.046072
 30
0.0
 10
996.703840
 20
446.993984
 30
0.0
 10
992.958640
 20
437.489440
 30
0.0
 10
989.044640
 20
427.499080
 30
0.0
  0
LWPOLYLINE
  5
1f9
100
AcDbEntity
  8
0
 62
5
100
AcDbPolyline
 90
2
 70
0
 10
1041.635120
 20
496.968352
 30
0.0
 10
1041.635120
 20
496.968352
 30
0.0
  0
LWPOLYLINE
  5
1fa
100
AcDbEntity
  8
0
 62
5
100
AcDbPolyline
 90
4
 70
0
 10
989.044640
 20
427.499080
 30
0.0
 10
1006.694720
 20
441.668608
 30
0.0
 10
1003.274080
 20
463.789256
 30
0.0
 10
1003.274080
 20
463.789256
 30
0.0
  0
SPLINE
  5
1fb
100
AcDbEntity
  8
0
 62
5
100
AcDbSpline
 70
8
 71
3
 72
8
 73
4
 74
0
 40
0
 40
0
 40
0
 40
0
 40
1
 40
1
 40
1
 40
1
 10
1125.076720
 20
367.519456
 30
0.0
 10
1119.889520
 20
375.573608
 30
0.0
 10
1114.885360
 20
383.375160
 30
0.0
 10
1110.809520
 20
389.777800
 30
0.0
  0
SPLINE
  5
1fc
100
AcDbEntity
  8
0
 62
5
100
AcDbSpline
 70
8
 71
3
 72
8
 73
4
 74
0
 40
0
 40
0
 40
0
 40
0
 40
1
 40
1
 40
1
 40
1
 10
1110.809520
 20
389.777800
 30
0.0
 10
1105.071120
 20
398.792232
 30
0.0
 10
1097.435040
 20
410.677416
 30
0.0
 10
1089.673520
 20
422.686984
 30
0.0
  0
LWPOLYLINE
  5
1fd
100
AcDbEntity
  8
0
 62
5
100
AcDbPolyline
 90
5
 70
0
 10
1089.673520
 20
422.686984
 30
0.0
 10
1078.541760
 20
413.752056
 30
0.0
 10
1084.277120
 20
376.549128
 30
0.0
 10
1119.343040
 20
362.924056
 30
0.0
 10
1125.076720
 20
367.519456
 30
0.0
  0
LWPOLYLINE
  5
1fe
100
AcDbEntity
  8
0
 62
5
100
AcDbPolyline
 90
2
 70
0
 10
1089.673520
 20
422.686984
 30
0.0
 10
1089.673520
 20
422.686984
 30
0.0
  0
LWPOLYLINE
  5
1ff
100
AcDbEntity
  8
0
 62
5
100
AcDbPolyline
 90
8
 70
0
 10
1020.932640
 20
423.863160
 30
0.0
 10
991.590640
 20
400.311208
 30
0.0
 10
997.333280
 20
363.126888
 30
0.0
 10
1032.399200
 20
349.501816
 30
0.0
 10
1061.741200
 20
373.053824
 30
0.0
 10
1055.998640
 20
410.238080
 30
0.0
 10
1020.932640
 20
423.863160
 30
0.0
 10
1020.932640
 20
423.863160
 30
0.0
  0
SPLINE
  5
200
100
AcDbEntity
  8
0
 62
5
100
AcDbSpline
 70
8
 71
3
 72
8
 73
4
 74
0
 40
0
 40
0
 40
0
 40
0
 40
1
 40
1
 40
1
 40
1
 10
1171.730960
 20
295.363704
 30
0.0
 10
1167.655600
 20
301.828136
 30
0.0
 10
1161.154960
 20
311.937448
 30
0.0
 10
1153.725840
 20
323.408760
 30
0.0
  0
SPLINE
  5
201
100
AcDbEntity
  8
0
 62
5
100
AcDbSpline
 70
8
 71
3
 72
8
 73
4
 74
0
 40
0
 40
0
 40
0
 40
0
 40
1
 40
1
 40
1
 40
1
 10
1153.725840
 20
323.408760
 30
0.0
 10
1149.221760
 20
330.255712
 30
0.0
 10
1143.468960
 20
339.100616
 30
0.0
 10
1137.527600
 20
348.262664
 30
0.0
  0
LWPOLYLINE
  5
202
100
AcDbEntity
  8
0
 62
5
100
AcDbPolyline
 90
4
 70
0
 10
1137.527600
 20
348.262664
 30
0.0
 10
1133.606880
 20
345.130024
 30
0.0
 10
1139.349440
 20
307.945704
 30
0.0
 10
1171.730960
 20
295.363704
 30
0.0
  0
LWPOLYLINE
  5
203
100
AcDbEntity
  8
0
 62
5
100
AcDbPolyline
 90
2
 70
0
 10
1137.527600
 20
348.262664
 30
0.0
 10
1137.527600
 20
348.262664
 30
0.0
  0
SPLINE
  5
204
100
AcDbEntity
  8
0
 62
5
100
AcDbSpline
 70
8
 71
3
 72
8
 73
4
 74
0
 40
0
 40
0
 40
0
 40
0
 40
1
 40
1
 40
1
 40
1
 10
971.346560
 20
382.171648
 30
0.0
 10
966.295440
 20
369.206664
 30
0.0
 10
961.540560
 20
356.963488
 30
0.0
 10
957.026080
 20
345.315992
 30
0.0
  0
LWPOLYLINE
  5
205
100
AcDbEntity
  8
0
 62
5
100
AcDbPolyline
 90
8
 70
0
 10
1076.005040
 20
355.259736
 30
0.0
 10
1046.663040
 20
331.707800
 30
0.0
 10
1052.398320
 20
294.504808
 30
0.0
 10
1087.482960
 20
280.872488
 30
0.0
 10
1116.813600
 20
304.450408
 30
0.0
 10
1111.089600
 20
341.627432
 30
0.0
 10
1076.005040
 20
355.259736
 30
0.0
 10
1076.005040
 20
355.259736
 30
0.0
  0
LWPOLYLINE
  5
206
100
AcDbEntity
  8
0
 62
5
100
AcDbPolyline
 90
4
 70
0
 10
957.026080
 20
345.315992
 30
0.0
 10
974.816000
 20
359.624352
 30
0.0
 10
971.346560
 20
382.171648
 30
0.0
 10
971.346560
 20
382.171648
 30
0.0
  0
LWPOLYLINE
  5
207
100
AcDbEntity
  8
0
 62
5
100
AcDbPolyline
 90
8
 70
0
 10
989.035280
 20
341.826136
 30
0.0
 10
959.711920
 20
318.266888
 30
0.0
 10
965.435840
 20
281.089816
 30
0.0
 10
1000.520480
 20
267.457504
 30
0.0
 10
1029.862480
 20
291.009504
 30
0.0
 10
1024.119920
 20
328.193824
 30
0.0
 10
989.035280
 20
341.826136
 30
0.0
 10
989.035280
 20
341.826136
 30
0.0
  0
SPLINE
  5
208
100
AcDbEntity
  8
0
 62
5
100
AcDbSpline
 70
8
 71
3
 72
8
 73
4
 74
0
 40
0
 40
0
 40
0
 40
0
 40
1
 40
1
 40
1
 40
1
 10
1114.062800
 20
223.318568
 30
0.0
 10
1119.519680
 20
228.755504
 30
0.0
 10
1125.357680
 20
234.564296
 30
0.0
 10
1132.102240
 20
241.306280
 30
0.0
  0
SPLINE
  5
209
100
AcDbEntity
  8
0
 62
5
100
AcDbSpline
 70
8
 71
3
 72
8
 73
4
 74
0
 40
0
 40
0
 40
0
 40
0
 40
1
 40
1
 40
1
 40
1
 10
1132.102240
 20
241.306280
 30
0.0
 10
1142.293600
 20
251.413672
 30
0.0
 10
1156.586560
 20
265.566712
 30
0.0
 10
1163.861040
 20
272.845224
 30
0.0
  0
SPLINE
  5
20a
100
AcDbEntity
  8
0
 62
5
100
AcDbSpline
 70
8
 71
3
 72
8
 73
4
 74
0
 40
0
 40
0
 40
0
 40
0
 40
1
 40
1
 40
1
 40
1
 10
1163.861040
 20
272.845224
 30
0.0
 10
1164.144560
 20
273.125064
 30
0.0
 10
1164.354480
 20
273.330472
 30
0.0
 10
1164.626080
 20
273.599368
 30
0.0
  0
LWPOLYLINE
  5
20b
100
AcDbEntity
  8
0
 62
5
100
AcDbPolyline
 90
4
 70
0
 10
1131.051520
 20
286.644960
 30
0.0
 10
1101.709440
 20
263.092960
 30
0.0
 10
1107.444800
 20
225.890024
 30
0.0
 10
1114.062800
 20
223.318568
 30
0.0
  0
LWPOLYLINE
  5
20c
100
AcDbEntity
  8
0
 62
5
100
AcDbPolyline
 90
3
 70
0
 10
1164.626080
 20
273.599368
 30
0.0
 10
1131.051520
 20
286.644960
 30
0.0
 10
1131.051520
 20
286.644960
 30
0.0
  0
LWPOLYLINE
  5
20d
100
AcDbEntity
  8
0
 62
5
100
AcDbPolyline
 90
8
 70
0
 10
1044.126240
 20
273.215480
 30
0.0
 10
1014.776960
 20
249.644808
 30
0.0
 10
1020.519600
 20
212.460544
 30
0.0
 10
1055.585600
 20
198.835472
 30
0.0
 10
1084.927520
 20
222.387416
 30
0.0
 10
1079.192240
 20
259.590408
 30
0.0
 10
1044.126240
 20
273.215480
 30
0.0
 10
1044.126240
 20
273.215480
 30
0.0
  0
LWPOLYLINE
  5
20e
100
AcDbEntity
  8
0
 62
5
100
AcDbPolyline
 90
5
 70
0
 10
939.437760
 20
300.160488
 30
0.0
 10
924.970320
 20
263.147392
 30
0.0
 10
942.930000
 20
277.561352
 30
0.0
 10
939.437760
 20
300.160488
 30
0.0
 10
939.437760
 20
300.160488
 30
0.0
  0
SPLINE
  5
20f
100
AcDbEntity
  8
0
 62
5
100
AcDbSpline
 70
8
 71
3
 72
8
 73
4
 74
0
 40
0
 40
0
 40
0
 40
0
 40
1
 40
1
 40
1
 40
1
 10
942.861840
 20
248.449704
 30
0.0
 10
951.754080
 20
242.624184
 30
0.0
 10
970.014480
 20
230.657256
 30
0.0
 10
997.535280
 20
212.615464
 30
0.0
  0
LWPOLYLINE
  5
210
100
AcDbEntity
  8
0
 62
5
100
AcDbPolyline
 90
2
 70
0
 10
957.203040
 20
259.956872
 30
0.0
 10
942.861840
 20
248.449704
 30
0.0
  0
LWPOLYLINE
  5
211
100
AcDbEntity
  8
0
 62
5
100
AcDbPolyline
 90
4
 70
0
 10
997.535280
 20
212.615464
 30
0.0
 10
992.343600
 20
246.302824
 30
0.0
 10
957.203040
 20
259.956872
 30
0.0
 10
957.203040
 20
259.956872
 30
0.0
  0
SPLINE
  5
212
100
AcDbEntity
  8
0
 62
5
100
AcDbSpline
 70
8
 71
3
 72
8
 73
4
 74
0
 40
0
 40
0
 40
0
 40
0
 40
1
 40
1
 40
1
 40
1
 10
1058.668560
 20
173.305648
 30
0.0
 10
1061.366880
 20
172.029120
 30
0.0
 10
1062.259600
 20
172.229896
 30
0.0
 10
1063.013920
 20
172.947568
 30
0.0
  0
SPLINE
  5
213
100
AcDbEntity
  8
0
 62
5
100
AcDbSpline
 70
8
 71
3
 72
8
 73
4
 74
0
 40
0
 40
0
 40
0
 40
0
 40
1
 40
1
 40
1
 40
1
 10
1063.013920
 20
172.947568
 30
0.0
 10
1063.888720
 20
173.896024
 30
0.0
 10
1069.097520
 20
178.997736
 30
0.0
 10
1074.622320
 20
184.379408
 30
0.0
  0
SPLINE
  5
214
100
AcDbEntity
  8
0
 62
5
100
AcDbSpline
 70
8
 71
3
 72
8
 73
4
 74
0
 40
0
 40
0
 40
0
 40
0
 40
1
 40
1
 40
1
 40
1
 10
1074.622320
 20
184.379408
 30
0.0
 10
1075.758560
 20
185.477576
 30
0.0
 10
1077.275040
 20
186.953624
 30
0.0
 10
1078.551200
 20
188.195528
 30
0.0
  0
LWPOLYLINE
  5
215
100
AcDbEntity
  8
0
 62
5
100
AcDbPolyline
 90
4
 70
0
 10
1078.551200
 20
188.195528
 30
0.0
 10
1064.677920
 20
177.064408
 30
0.0
 10
1059.582080
 20
172.950720
 30
0.0
 10
1058.668560
 20
173.305648
 30
0.0
  0
SPLINE
  5
216
100
AcDbEntity
  8
0
 62
5
100
AcDbSpline
 70
8
 71
3
 72
8
 73
4
 74
0
 40
0
 40
0
 40
0
 40
0
 40
1
 40
1
 40
1
 40
1
 10
1304.419840
 20
508.410784
 30
0.0
 10
1304.286560
 20
508.463008
 30
0.0
 10
1304.139040
 20
508.500672
 30
0.0
 10
1303.995280
 20
508.532856
 30
0.0
  0
SPLINE
  5
217
100
AcDbEntity
  8
0
 62
5
100
AcDbSpline
 70
8
 71
3
 72
8
 73
4
 74
0
 40
0
 40
0
 40
0
 40
0
 40
1
 40
1
 40
1
 40
1
 10
1303.995280
 20
508.532856
 30
0.0
 10
1303.096000
 20
508.734040
 30
0.0
 10
1296.006400
 20
509.201800
 30
0.0
 10
1286.300240
 20
509.765216
 30
0.0
  0
LWPOLYLINE
  5
218
100
AcDbEntity
  8
0
 62
5
100
AcDbPolyline
 90
2
 70
0
 10
1078.551200
 20
188.195528
 30
0.0
 10
1078.551200
 20
188.195528
 30
0.0
  0
SPLINE
  5
219
100
AcDbEntity
  8
0
 62
5
100
AcDbSpline
 70
8
 71
3
 72
8
 73
4
 74
0
 40
0
 40
0
 40
0
 40
0
 40
1
 40
1
 40
1
 40
1
 10
1311.496640
 20
477.145096
 30
0.0
 10
1310.808480
 20
481.552904
 30
0.0
 10
1310.053040
 20
486.504760
 30
0.0
 10
1309.564800
 20
489.568160
 30
0.0
  0
SPLINE
  5
21a
100
AcDbEntity
  8
0
 62
5
100
AcDbSpline
 70
8
 71
3
 72
8
 73
4
 74
0
 40
0
 40
0
 40
0
 40
0
 40
1
 40
1
 40
1
 40
1
 10
1309.564800
 20
489.568160
 30
0.0
 10
1307.321120
 20
504.291704
 30
0.0
 10
1306.419600
 20
507.627624
 30
0.0
 10
1304.419840
 20
508.410784
 30
0.0
  0
LWPOLYLINE
  5
21b
100
AcDbEntity
  8
0
 62
5
100
AcDbPolyline
 90
3
 70
0
 10
1286.300240
 20
509.765216
 30
0.0
 10
1290.058080
 20
485.475168
 30
0.0
 10
1311.496640
 20
477.145096
 30
0.0
  0
SPLINE
  5
21c
100
AcDbEntity
  8
0
 62
5
100
AcDbSpline
 70
8
 71
3
 72
8
 73
4
 74
0
 40
0
 40
0
 40
0
 40
0
 40
1
 40
1
 40
1
 40
1
 10
1263.022560
 20
511.042568
 30
0.0
 10
1262.905840
 20
511.048968
 30
0.0
 10
1262.804960
 20
511.059080
 30
0.0
 10
1262.688080
 20
511.065288
 30
0.0
  0
SPLINE
  5
21d
100
AcDbEntity
  8
0
 62
5
100
AcDbSpline
 70
8
 71
3
 72
8
 73
4
 74
0
 40
0
 40
0
 40
0
 40
0
 40
1
 40
1
 40
1
 40
1
 10
1262.688080
 20
511.065288
 30
0.0
 10
1247.094240
 20
511.779672
 30
0.0
 10
1223.667440
 20
513.009888
 30
0.0
 10
1203.506960
 20
514.148608
 30
0.0
  0
LWPOLYLINE
  5
21e
100
AcDbEntity
  8
0
 62
5
100
AcDbPolyline
 90
2
 70
0
 10
1304.419840
 20
508.410784
 30
0.0
 10
1304.419840
 20
508.410784
 30
0.0
  0
SPLINE
  5
21f
100
AcDbEntity
  8
0
 62
5
100
AcDbSpline
 70
8
 71
3
 72
8
 73
4
 74
0
 40
0
 40
0
 40
0
 40
0
 40
1
 40
1
 40
1
 40
1
 10
1144.460320
 20
517.522944
 30
0.0
 10
1142.242080
 20
517.642520
 30
0.0
 10
1140.139920
 20
517.756256
 30
0.0
 10
1137.923760
 20
517.874176
 30
0.0
  0
LWPOLYLINE
  5
220
100
AcDbEntity
  8
0
 62
5
100
AcDbPolyline
 90
7
 70
0
 10
1203.506960
 20
514.148608
 30
0.0
 10
1197.364400
 20
509.218600
 30
0.0
 10
1203.106960
 20
472.034312
 30
0.0
 10
1238.172960
 20
458.409248
 30
0.0
 10
1267.514960
 20
481.961216
 30
0.0
 10
1263.022560
 20
511.042600
 30
0.0
 10
1263.022560
 20
511.042568
 30
0.0
  0
LWPOLYLINE
  5
221
100
AcDbEntity
  8
0
 62
5
100
AcDbPolyline
 90
8
 70
0
 10
1137.923760
 20
517.874176
 30
0.0
 10
1110.420480
 20
495.796344
 30
0.0
 10
1116.163120
 20
458.612056
 30
0.0
 10
1151.247760
 20
444.979736
 30
0.0
 10
1180.571120
 20
468.538952
 30
0.0
 10
1174.847120
 20
505.716000
 30
0.0
 10
1144.460320
 20
517.522944
 30
0.0
 10
1144.460320
 20
517.522944
 30
0.0
  0
SPLINE
  5
222
100
AcDbEntity
  8
0
 62
5
100
AcDbSpline
 70
8
 71
3
 72
8
 73
4
 74
0
 40
0
 40
0
 40
0
 40
0
 40
1
 40
1
 40
1
 40
1
 10
1321.618240
 20
412.575648
 30
0.0
 10
1320.129520
 20
422.091976
 30
0.0
 10
1318.476400
 20
432.582528
 30
0.0
 10
1316.450640
 20
445.331008
 30
0.0
  0
SPLINE
  5
223
100
AcDbEntity
  8
0
 62
5
100
AcDbSpline
 70
8
 71
3
 72
8
 73
4
 74
0
 40
0
 40
0
 40
0
 40
0
 40
1
 40
1
 40
1
 40
1
 10
1316.450640
 20
445.331008
 30
0.0
 10
1316.185200
 20
447.045024
 30
0.0
 10
1315.845200
 20
449.188608
 30
0.0
 10
1315.558400
 20
451.041856
 30
0.0
  0
LWPOLYLINE
  5
224
100
AcDbEntity
  8
0
 62
5
100
AcDbPolyline
 90
5
 70
0
 10
1281.778720
 20
464.167136
 30
0.0
 10
1252.436720
 20
440.615168
 30
0.0
 10
1258.172080
 20
403.412232
 30
0.0
 10
1293.238080
 20
389.787160
 30
0.0
 10
1321.618240
 20
412.575648
 30
0.0
  0
SPLINE
  5
225
100
AcDbEntity
  8
0
 62
5
100
AcDbSpline
 70
8
 71
3
 72
8
 73
4
 74
0
 40
0
 40
0
 40
0
 40
0
 40
1
 40
1
 40
1
 40
1
 10
1103.670080
 20
519.618496
 30
0.0
 10
1103.008160
 20
519.650816
 30
0.0
 10
1102.144320
 20
519.699712
 30
0.0
 10
1101.503600
 20
519.730744
 30
0.0
  0
SPLINE
  5
226
100
AcDbEntity
  8
0
 62
5
100
AcDbSpline
 70
8
 71
3
 72
8
 73
4
 74
0
 40
0
 40
0
 40
0
 40
0
 40
1
 40
1
 40
1
 40
1
 10
1101.503600
 20
519.730744
 30
0.0
 10
1093.226800
 20
520.178208
 30
0.0
 10
1084.978240
 20
520.639256
 30
0.0
 10
1076.862080
 20
521.087448
 30
0.0
  0
LWPOLYLINE
  5
227
100
AcDbEntity
  8
0
 62
5
100
AcDbPolyline
 90
3
 70
0
 10
1315.558400
 20
451.041856
 30
0.0
 10
1281.778720
 20
464.167136
 30
0.0
 10
1281.778720
 20
464.167136
 30
0.0
  0
SPLINE
  5
228
100
AcDbEntity
  8
0
 62
5
100
AcDbSpline
 70
8
 71
3
 72
8
 73
4
 74
0
 40
0
 40
0
 40
0
 40
0
 40
1
 40
1
 40
1
 40
1
 10
1038.271200
 20
523.487048
 30
0.0
 10
1026.900080
 20
524.230664
 30
0.0
 10
1025.991520
 20
523.965944
 30
0.0
 10
1027.839280
 20
522.262072
 30
0.0
  0
SPLINE
  5
229
100
AcDbEntity
  8
0
 62
5
100
AcDbSpline
 70
8
 71
3
 72
8
 73
4
 74
0
 40
0
 40
0
 40
0
 40
0
 40
1
 40
1
 40
1
 40
1
 10
1027.839280
 20
522.262072
 30
0.0
 10
1027.994560
 20
522.099608
 30
0.0
 10
1029.132400
 20
520.394920
 30
0.0
 10
1030.968080
 20
517.613304
 30
0.0
  0
LWPOLYLINE
  5
22a
100
AcDbEntity
  8
0
 62
5
100
AcDbPolyline
 90
4
 70
0
 10
1076.862080
 20
521.087448
 30
0.0
 10
1096.156720
 20
513.590392
 30
0.0
 10
1103.670080
 20
519.618496
 30
0.0
 10
1103.670080
 20
519.618496
 30
0.0
  0
LWPOLYLINE
  5
22b
100
AcDbEntity
  8
0
 62
5
100
AcDbPolyline
 90
3
 70
0
 10
1030.968080
 20
517.613304
 30
0.0
 10
1038.271200
 20
523.487048
 30
0.0
 10
1038.271200
 20
523.487048
 30
0.0
  0
SPLINE
  5
22c
100
AcDbEntity
  8
0
 62
5
100
AcDbSpline
 70
8
 71
3
 72
8
 73
4
 74
0
 40
0
 40
0
 40
0
 40
0
 40
1
 40
1
 40
1
 40
1
 10
1043.466640
 20
498.423840
 30
0.0
 10
1049.836720
 20
488.596096
 30
0.0
 10
1057.380160
 20
476.946848
 30
0.0
 10
1065.792960
 20
463.829120
 30
0.0
  0
SPLINE
  5
22d
100
AcDbEntity
  8
0
 62
5
100
AcDbSpline
 70
8
 71
3
 72
8
 73
4
 74
0
 40
0
 40
0
 40
0
 40
0
 40
1
 40
1
 40
1
 40
1
 10
1065.792960
 20
463.829120
 30
0.0
 10
1069.623600
 20
457.823560
 30
0.0
 10
1074.272400
 20
450.548704
 30
0.0
 10
1078.910160
 20
443.304992
 30
0.0
  0
LWPOLYLINE
  5
22e
100
AcDbEntity
  8
0
 62
5
100
AcDbPolyline
 90
2
 70
0
 10
1052.800000
 20
505.933320
 30
0.0
 10
1043.466640
 20
498.423840
 30
0.0
  0
LWPOLYLINE
  5
22f
100
AcDbEntity
  8
0
 62
5
100
AcDbPolyline
 90
5
 70
0
 10
1078.910160
 20
443.304992
 30
0.0
 10
1093.620000
 20
455.098080
 30
0.0
 10
1087.884640
 20
492.301000
 30
0.0
 10
1052.800000
 20
505.933320
 30
0.0
 10
1052.800000
 20
505.933320
 30
0.0
  0
LWPOLYLINE
  5
230
100
AcDbEntity
  8
0
 62
5
100
AcDbPolyline
 90
8
 70
0
 10
1194.816240
 20
450.752136
 30
0.0
 10
1165.466960
 20
427.181536
 30
0.0
 10
1171.209600
 20
389.997248
 30
0.0
 10
1206.294160
 20
376.364928
 30
0.0
 10
1235.617520
 20
399.924136
 30
0.0
 10
1229.900800
 20
437.119832
 30
0.0
 10
1194.816240
 20
450.752136
 30
0.0
 10
1194.816240
 20
450.752136
 30
0.0
  0
SPLINE
  5
231
100
AcDbEntity
  8
0
 62
5
100
AcDbSpline
 70
8
 71
3
 72
8
 73
4
 74
0
 40
0
 40
0
 40
0
 40
0
 40
1
 40
1
 40
1
 40
1
 10
1312.416720
 20
339.250112
 30
0.0
 10
1329.718240
 20
345.947304
 30
0.0
 10
1331.472000
 20
347.232392
 30
0.0
 10
1331.200000
 20
349.267328
 30
0.0
  0
SPLINE
  5
232
100
AcDbEntity
  8
0
 62
5
100
AcDbSpline
 70
8
 71
3
 72
8
 73
4
 74
0
 40
0
 40
0
 40
0
 40
0
 40
1
 40
1
 40
1
 40
1
 10
1331.200000
 20
349.267328
 30
0.0
 10
1330.946000
 20
350.532360
 30
0.0
 10
1329.864160
 20
357.756064
 30
0.0
 10
1328.752400
 20
365.388256
 30
0.0
  0
SPLINE
  5
233
100
AcDbEntity
  8
0
 62
5
100
AcDbSpline
 70
8
 71
3
 72
8
 73
4
 74
0
 40
0
 40
0
 40
0
 40
0
 40
1
 40
1
 40
1
 40
1
 10
1328.752400
 20
365.388256
 30
0.0
 10
1327.967360
 20
370.929128
 30
0.0
 10
1326.892160
 20
378.208616
 30
0.0
 10
1325.607440
 20
386.672264
 30
0.0
  0
LWPOLYLINE
  5
234
100
AcDbEntity
  8
0
 62
5
100
AcDbPolyline
 90
3
 70
0
 10
1325.607440
 20
386.672264
 30
0.0
 10
1307.364080
 20
372.025176
 30
0.0
 10
1312.416720
 20
339.250112
 30
0.0
  0
LWPOLYLINE
  5
235
100
AcDbEntity
  8
0
 62
5
100
AcDbPolyline
 90
2
 70
0
 10
1325.607440
 20
386.672264
 30
0.0
 10
1325.607440
 20
386.672264
 30
0.0
  0
SPLINE
  5
236
100
AcDbEntity
  8
0
 62
5
100
AcDbSpline
 70
8
 71
3
 72
8
 73
4
 74
0
 40
0
 40
0
 40
0
 40
0
 40
1
 40
1
 40
1
 40
1
 10
1091.294800
 20
423.988128
 30
0.0
 10
1103.194080
 20
405.444664
 30
0.0
 10
1115.490480
 20
386.297592
 30
0.0
 10
1126.738400
 20
368.869280
 30
0.0
  0
LWPOLYLINE
  5
237
100
AcDbEntity
  8
0
 62
5
100
AcDbPolyline
 90
2
 70
0
 10
1107.883760
 20
437.304024
 30
0.0
 10
1091.294800
 20
423.988128
 30
0.0
  0
LWPOLYLINE
  5
238
100
AcDbEntity
  8
0
 62
5
100
AcDbPolyline
 90
5
 70
0
 10
1126.738400
 20
368.869280
 30
0.0
 10
1148.692320
 20
386.494664
 30
0.0
 10
1142.949760
 20
423.678952
 30
0.0
 10
1107.883760
 20
437.304024
 30
0.0
 10
1107.883760
 20
437.304024
 30
0.0
  0
SPLINE
  5
239
100
AcDbEntity
  8
0
 62
5
100
AcDbSpline
 70
8
 71
3
 72
8
 73
4
 74
0
 40
0
 40
0
 40
0
 40
0
 40
1
 40
1
 40
1
 40
1
 10
1245.606640
 20
313.863656
 30
0.0
 10
1258.760160
 20
318.861768
 30
0.0
 10
1270.215360
 20
323.219752
 30
0.0
 10
1289.956880
 20
330.704360
 30
0.0
  0
LWPOLYLINE
  5
23a
100
AcDbEntity
  8
0
 62
5
100
AcDbPolyline
 90
4
 70
0
 10
1249.900000
 20
382.122848
 30
0.0
 10
1220.558000
 20
358.570880
 30
0.0
 10
1226.293360
 20
321.367944
 30
0.0
 10
1245.606640
 20
313.863656
 30
0.0
  0
LWPOLYLINE
  5
23b
100
AcDbEntity
  8
0
 62
5
100
AcDbPolyline
 90
5
 70
0
 10
1289.956880
 20
330.704360
 30
0.0
 10
1290.708560
 20
331.313480
 30
0.0
 10
1284.965920
 20
368.497768
 30
0.0
 10
1249.900000
 20
382.122848
 30
0.0
 10
1249.900000
 20
382.122848
 30
0.0
  0
SPLINE
  5
23c
100
AcDbEntity
  8
0
 62
5
100
AcDbSpline
 70
8
 71
3
 72
8
 73
4
 74
0
 40
0
 40
0
 40
0
 40
0
 40
1
 40
1
 40
1
 40
1
 10
1139.189280
 20
349.612488
 30
0.0
 10
1139.607120
 20
348.967304
 30
0.0
 10
1140.164960
 20
348.117408
 30
0.0
 10
1140.573440
 20
347.486912
 30
0.0
  0
LWPOLYLINE
  5
23d
100
AcDbEntity
  8
0
 62
5
100
AcDbPolyline
 90
2
 70
0
 10
1162.948880
 20
368.681976
 30
0.0
 10
1139.189280
 20
349.612488
 30
0.0
  0
LWPOLYLINE
  5
23e
100
AcDbEntity
  8
0
 62
5
100
AcDbPolyline
 90
6
 70
0
 10
1140.573440
 20
347.486912
 30
0.0
 10
1174.599680
 20
294.463592
 30
0.0
 10
1203.757440
 20
317.872640
 30
0.0
 10
1198.014800
 20
355.056896
 30
0.0
 10
1162.948880
 20
368.681976
 30
0.0
 10
1162.948880
 20
368.681976
 30
0.0
  0
SPLINE
  5
23f
100
AcDbEntity
  8
0
 62
5
100
AcDbSpline
 70
8
 71
3
 72
8
 73
4
 74
0
 40
0
 40
0
 40
0
 40
0
 40
1
 40
1
 40
1
 40
1
 10
1270.407520
 20
710.016320
 30
0.0
 10
1240.618240
 20
725.119952
 30
0.0
 10
1220.343040
 20
735.407408
 30
0.0
 10
1213.814080
 20
738.700504
 30
0.0
  0
LWPOLYLINE
  5
240
100
AcDbEntity
  8
0
 62
5
100
AcDbPolyline
 90
5
 70
0
 10
1206.709040
 20
742.448200
 30
0.0
 10
1206.056800
 20
741.929200
 30
0.0
 10
1211.799360
 20
704.744912
 30
0.0
 10
1246.865360
 20
691.119840
 30
0.0
 10
1270.407520
 20
710.016320
 30
0.0
  0
LWPOLYLINE
  5
241
100
AcDbEntity
  8
0
 62
5
100
AcDbPolyline
 90
3
 70
0
 10
1213.814080
 20
738.700504
 30
0.0
 10
1206.709040
 20
742.448200
 30
0.0
 10
1206.709040
 20
742.448200
 30
0.0
  0
SPLINE
  5
242
100
AcDbEntity
  8
0
 62
5
100
AcDbSpline
 70
8
 71
3
 72
8
 73
4
 74
0
 40
0
 40
0
 40
0
 40
0
 40
1
 40
1
 40
1
 40
1
 10
1325.735280
 20
681.995584
 30
0.0
 10
1322.789520
 20
683.493600
 30
0.0
 10
1319.394480
 20
685.209760
 30
0.0
 10
1315.675360
 20
687.084528
 30
0.0
  0
LWPOLYLINE
  5
243
100
AcDbEntity
  8
0
 62
5
100
AcDbPolyline
 90
6
 70
0
 10
1290.471120
 20
696.877760
 30
0.0
 10
1261.129120
 20
673.325792
 30
0.0
 10
1266.864480
 20
636.122856
 30
0.0
 10
1301.930480
 20
622.497792
 30
0.0
 10
1331.279680
 20
646.068408
 30
0.0
 10
1325.735280
 20
681.995584
 30
0.0
  0
LWPOLYLINE
  5
244
100
AcDbEntity
  8
0
 62
5
100
AcDbPolyline
 90
3
 70
0
 10
1315.675360
 20
687.084528
 30
0.0
 10
1290.471120
 20
696.877760
 30
0.0
 10
1290.471120
 20
696.877760
 30
0.0
  0
SPLINE
  5
245
100
AcDbEntity
  8
0
 62
5
100
AcDbSpline
 70
8
 71
3
 72
8
 73
4
 74
0
 40
0
 40
0
 40
0
 40
0
 40
1
 40
1
 40
1
 40
1
 10
1159.637520
 20
689.115616
 30
0.0
 10
1157.570480
 20
686.564880
 30
0.0
 10
1154.921440
 20
683.289280
 30
0.0
 10
1152.662400
 20
680.496704
 30
0.0
  0
LWPOLYLINE
  5
246
100
AcDbEntity
  8
0
 62
5
100
AcDbPolyline
 90
2
 70
0
 10
1186.060720
 20
721.998176
 30
0.0
 10
1159.637520
 20
689.115616
 30
0.0
  0
LWPOLYLINE
  5
247
100
AcDbEntity
  8
0
 62
5
100
AcDbPolyline
 90
5
 70
0
 10
1152.662400
 20
680.496704
 30
0.0
 10
1159.914240
 20
677.678976
 30
0.0
 10
1189.263520
 20
701.249584
 30
0.0
 10
1186.060720
 20
721.998176
 30
0.0
 10
1186.060720
 20
721.998176
 30
0.0
  0
LWPOLYLINE
  5
248
100
AcDbEntity
  8
0
 62
5
100
AcDbPolyline
 90
8
 70
0
 10
1203.527280
 20
683.455536
 30
0.0
 10
1174.178000
 20
659.884920
 30
0.0
 10
1179.920640
 20
622.700632
 30
0.0
 10
1215.005280
 20
609.068312
 30
0.0
 10
1244.328640
 20
632.627528
 30
0.0
 10
1238.611920
 20
669.823208
 30
0.0
 10
1203.527280
 20
683.455536
 30
0.0
 10
1203.527280
 20
683.455536
 30
0.0
  0
SPLINE
  5
249
100
AcDbEntity
  8
0
 62
5
100
AcDbSpline
 70
8
 71
3
 72
8
 73
4
 74
0
 40
0
 40
0
 40
0
 40
0
 40
1
 40
1
 40
1
 40
1
 10
1322.570720
 20
567.273160
 30
0.0
 10
1323.082400
 20
569.199104
 30
0.0
 10
1323.667120
 20
571.411680
 30
0.0
 10
1324.138880
 20
573.186680
 30
0.0
  0
SPLINE
  5
24a
100
AcDbEntity
  8
0
 62
5
100
AcDbSpline
 70
8
 71
3
 72
8
 73
4
 74
0
 40
0
 40
0
 40
0
 40
0
 40
1
 40
1
 40
1
 40
1
 10
1324.138880
 20
573.186680
 30
0.0
 10
1329.618400
 20
593.478728
 30
0.0
 10
1333.800480
 20
609.063136
 30
0.0
 10
1337.094240
 20
621.494152
 30
0.0
  0
LWPOLYLINE
  5
24b
100
AcDbEntity
  8
0
 62
5
100
AcDbPolyline
 90
4
 70
0
 10
1337.094240
 20
621.494152
 30
0.0
 10
1316.194240
 20
604.703736
 30
0.0
 10
1321.936880
 20
567.519456
 30
0.0
 10
1322.570720
 20
567.273160
 30
0.0
  0
SPLINE
  5
24c
100
AcDbEntity
  8
0
 62
5
100
AcDbSpline
 70
8
 71
3
 72
8
 73
4
 74
0
 40
0
 40
0
 40
0
 40
0
 40
1
 40
1
 40
1
 40
1
 10
1137.585920
 20
661.851200
 30
0.0
 10
1123.662240
 20
644.590656
 30
0.0
 10
1108.458320
 20
625.668736
 30
0.0
 10
1094.740560
 20
608.571616
 30
0.0
  0
LWPOLYLINE
  5
24d
100
AcDbEntity
  8
0
 62
5
100
AcDbPolyline
 90
2
 70
0
 10
1337.094240
 20
621.494152
 30
0.0
 10
1337.094240
 20
621.494152
 30
0.0
  0
LWPOLYLINE
  5
24e
100
AcDbEntity
  8
0
 62
5
100
AcDbPolyline
 90
6
 70
0
 10
1094.740560
 20
608.571616
 30
0.0
 10
1128.035520
 20
595.634688
 30
0.0
 10
1157.384720
 20
619.205288
 30
0.0
 10
1151.642160
 20
656.389576
 30
0.0
 10
1137.585920
 20
661.851200
 30
0.0
 10
1137.585920
 20
661.851200
 30
0.0
  0
LWPOLYLINE
  5
24f
100
AcDbEntity
  8
0
 62
5
100
AcDbPolyline
 90
8
 70
0
 10
1258.573760
 20
614.840728
 30
0.0
 10
1229.224480
 20
591.270104
 30
0.0
 10
1234.967120
 20
554.085816
 30
0.0
 10
1270.051680
 20
540.453504
 30
0.0
 10
1299.375040
 20
564.012712
 30
0.0
 10
1293.658320
 20
601.208408
 30
0.0
 10
1258.573760
 20
614.840728
 30
0.0
 10
1258.573760
 20
614.840728
 30
0.0
  0
LWPOLYLINE
  5
250
100
AcDbEntity
  8
0
 62
5
100
AcDbPolyline
 90
8
 70
0
 10
1171.648560
 20
601.411240
 30
0.0
 10
1142.299280
 20
577.840632
 30
0.0
 10
1148.041840
 20
540.656344
 30
0.0
 10
1183.107840
 20
527.031264
 30
0.0
 10
1212.449840
 20
550.583240
 30
0.0
 10
1206.714480
 20
587.786176
 30
0.0
 10
1171.648560
 20
601.411240
 30
0.0
 10
1171.648560
 20
601.411240
 30
0.0
  0
SPLINE
  5
251
100
AcDbEntity
  8
0
 62
5
100
AcDbSpline
 70
8
 71
3
 72
8
 73
4
 74
0
 40
0
 40
0
 40
0
 40
0
 40
1
 40
1
 40
1
 40
1
 10
1285.902880
 20
512.387144
 30
0.0
 10
1296.366160
 20
511.877056
 30
0.0
 10
1304.119360
 20
511.542488
 30
0.0
 10
1305.078560
 20
511.652280
 30
0.0
  0
SPLINE
  5
252
100
AcDbEntity
  8
0
 62
5
100
AcDbSpline
 70
8
 71
3
 72
8
 73
4
 74
0
 40
0
 40
0
 40
0
 40
0
 40
1
 40
1
 40
1
 40
1
 10
1305.078560
 20
511.652280
 30
0.0
 10
1307.421360
 20
511.920352
 30
0.0
 10
1308.564160
 20
514.562720
 30
0.0
 10
1312.608000
 20
529.925888
 30
0.0
  0
SPLINE
  5
253
100
AcDbEntity
  8
0
 62
5
100
AcDbSpline
 70
8
 71
3
 72
8
 73
4
 74
0
 40
0
 40
0
 40
0
 40
0
 40
1
 40
1
 40
1
 40
1
 10
1312.608000
 20
529.925888
 30
0.0
 10
1313.616160
 20
533.652344
 30
0.0
 10
1315.144640
 20
539.444928
 30
0.0
 10
1316.640240
 20
545.052448
 30
0.0
  0
LWPOLYLINE
  5
254
100
AcDbEntity
  8
0
 62
5
100
AcDbPolyline
 90
3
 70
0
 10
1313.657520
 20
546.211424
 30
0.0
 10
1284.315520
 20
522.659456
 30
0.0
 10
1285.902880
 20
512.387144
 30
0.0
  0
LWPOLYLINE
  5
255
100
AcDbEntity
  8
0
 62
5
100
AcDbPolyline
 90
3
 70
0
 10
1316.640240
 20
545.052448
 30
0.0
 10
1313.657520
 20
546.211424
 30
0.0
 10
1313.657520
 20
546.211424
 30
0.0
  0
SPLINE
  5
256
100
AcDbEntity
  8
0
 62
5
100
AcDbSpline
 70
8
 71
3
 72
8
 73
4
 74
0
 40
0
 40
0
 40
0
 40
0
 40
1
 40
1
 40
1
 40
1
 10
1066.487200
 20
573.353336
 30
0.0
 10
1062.906480
 20
568.902744
 30
0.0
 10
1059.250560
 20
564.347040
 30
0.0
 10
1055.990400
 20
560.309472
 30
0.0
  0
LWPOLYLINE
  5
257
100
AcDbEntity
  8
0
 62
5
100
AcDbPolyline
 90
2
 70
0
 10
1084.697440
 20
587.970368
 30
0.0
 10
1066.487200
 20
573.353336
 30
0.0
  0
SPLINE
  5
258
100
AcDbEntity
  8
0
 62
5
100
AcDbSpline
 70
8
 71
3
 72
8
 73
4
 74
0
 40
0
 40
0
 40
0
 40
0
 40
1
 40
1
 40
1
 40
1
 10
1070.281360
 20
523.644416
 30
0.0
 10
1080.336000
 20
523.143264
 30
0.0
 10
1091.718800
 20
522.549816
 30
0.0
 10
1102.550960
 20
521.984424
 30
0.0
  0
SPLINE
  5
259
100
AcDbEntity
  8
0
 62
5
100
AcDbSpline
 70
8
 71
3
 72
8
 73
4
 74
0
 40
0
 40
0
 40
0
 40
0
 40
1
 40
1
 40
1
 40
1
 10
1102.550960
 20
521.984424
 30
0.0
 10
1103.676000
 20
521.919360
 30
0.0
 10
1105.163520
 20
521.841152
 30
0.0
 10
1106.352560
 20
521.773248
 30
0.0
  0
LWPOLYLINE
  5
25a
100
AcDbEntity
  8
0
 62
5
100
AcDbPolyline
 90
3
 70
0
 10
1055.990400
 20
560.309472
 30
0.0
 10
1061.090800
 20
527.215456
 30
0.0
 10
1070.281360
 20
523.644416
 30
0.0
  0
LWPOLYLINE
  5
25b
100
AcDbEntity
  8
0
 62
5
100
AcDbPolyline
 90
5
 70
0
 10
1106.352560
 20
521.773248
 30
0.0
 10
1125.498720
 20
537.142368
 30
0.0
 10
1119.763360
 20
574.345288
 30
0.0
 10
1084.697440
 20
587.970368
 30
0.0
 10
1084.697440
 20
587.970368
 30
0.0
  0
SPLINE
  5
25c
100
AcDbEntity
  8
0
 62
5
100
AcDbSpline
 70
8
 71
3
 72
8
 73
4
 74
0
 40
0
 40
0
 40
0
 40
0
 40
1
 40
1
 40
1
 40
1
 10
1206.591120
 20
516.619296
 30
0.0
 10
1225.879440
 20
515.653304
 30
0.0
 10
1247.579280
 20
514.479552
 30
0.0
 10
1262.633520
 20
513.575448
 30
0.0
  0
LWPOLYLINE
  5
25d
100
AcDbEntity
  8
0
 62
5
100
AcDbPolyline
 90
2
 70
0
 10
1226.713600
 20
532.789184
 30
0.0
 10
1206.591120
 20
516.619296
 30
0.0
  0
SPLINE
  5
25e
100
AcDbEntity
  8
0
 62
5
100
AcDbSpline
 70
8
 71
3
 72
8
 73
4
 74
0
 40
0
 40
0
 40
0
 40
0
 40
1
 40
1
 40
1
 40
1
 10
1036.612640
 20
536.447648
 30
0.0
 10
1032.410720
 20
531.310144
 30
0.0
 10
1029.265840
 20
527.488456
 30
0.0
 10
1029.015280
 20
527.276600
 30
0.0
  0
SPLINE
  5
25f
100
AcDbEntity
  8
0
 62
5
100
AcDbSpline
 70
8
 71
3
 72
8
 73
4
 74
0
 40
0
 40
0
 40
0
 40
0
 40
1
 40
1
 40
1
 40
1
 10
1029.015280
 20
527.276600
 30
0.0
 10
1027.057760
 20
525.822944
 30
0.0
 10
1027.922480
 20
525.442464
 30
0.0
 10
1038.364000
 20
524.995896
 30
0.0
  0
LWPOLYLINE
  5
260
100
AcDbEntity
  8
0
 62
5
100
AcDbPolyline
 90
4
 70
0
 10
1262.633520
 20
513.575448
 30
0.0
 10
1261.779600
 20
519.164120
 30
0.0
 10
1226.713600
 20
532.789184
 30
0.0
 10
1226.713600
 20
532.789184
 30
0.0
  0
SPLINE
  5
261
100
AcDbEntity
  8
0
 62
1
100
AcDbSpline
 70
8
 71
3
 72
8
 73
4
 74
0
 40
0
 40
0
 40
0
 40
0
 40
1
 40
1
 40
1
 40
1
 10
760.598576
 20
306.396024
 30
0.0
 10
759.690480
 20
321.210776
 30
0.0
 10
758.538080
 20
344.245064
 30
0.0
 10
756.630864
 20
387.189320
 30
0.0
  0
SPLINE
  5
262
100
AcDbEntity
  8
0
 62
1
100
AcDbSpline
 70
8
 71
3
 72
8
 73
4
 74
0
 40
0
 40
0
 40
0
 40
0
 40
1
 40
1
 40
1
 40
1
 10
756.630864
 20
387.189320
 30
0.0
 10
755.937376
 20
401.525960
 30
0.0
 10
754.955824
 20
421.621256
 30
0.0
 10
754.504112
 20
431.901760
 30
0.0
  0
SPLINE
  5
263
100
AcDbEntity
  8
0
 62
1
100
AcDbSpline
 70
8
 71
3
 72
8
 73
4
 74
0
 40
0
 40
0
 40
0
 40
0
 40
1
 40
1
 40
1
 40
1
 10
754.504112
 20
431.901760
 30
0.0
 10
753.698344
 20
447.767784
 30
0.0
 10
753.993352
 20
450.628768
 30
0.0
 10
756.144536
 20
451.594760
 30
0.0
  0
SPLINE
  5
264
100
AcDbEntity
  8
0
 62
1
100
AcDbSpline
 70
8
 71
3
 72
8
 73
4
 74
0
 40
0
 40
0
 40
0
 40
0
 40
1
 40
1
 40
1
 40
1
 10
756.144536
 20
451.594760
 30
0.0
 10
757.578664
 20
452.238760
 30
0.0
 10
775.544384
 20
457.003144
 30
0.0
 10
796.115064
 20
462.362880
 30
0.0
  0
SPLINE
  5
265
100
AcDbEntity
  8
0
 62
1
100
AcDbSpline
 70
8
 71
3
 72
8
 73
4
 74
0
 40
0
 40
0
 40
0
 40
0
 40
1
 40
1
 40
1
 40
1
 10
796.115064
 20
462.362880
 30
0.0
 10
816.619920
 20
467.549352
 30
0.0
 10
851.063600
 20
476.553728
 30
0.0
 10
872.590320
 20
482.342744
 30
0.0
  0
SPLINE
  5
266
100
AcDbEntity
  8
0
 62
1
100
AcDbSpline
 70
8
 71
3
 72
8
 73
4
 74
0
 40
0
 40
0
 40
0
 40
0
 40
1
 40
1
 40
1
 40
1
 10
872.590320
 20
482.342744
 30
0.0
 10
894.117040
 20
488.131688
 30
0.0
 10
929.982720
 20
497.487392
 30
0.0
 10
952.268080
 20
503.186200
 30
0.0
  0
SPLINE
  5
267
100
AcDbEntity
  8
0
 62
1
100
AcDbSpline
 70
8
 71
3
 72
8
 73
4
 74
0
 40
0
 40
0
 40
0
 40
0
 40
1
 40
1
 40
1
 40
1
 10
952.268080
 20
503.186200
 30
0.0
 10
974.499680
 20
509.004480
 30
0.0
 10
999.694720
 20
515.579072
 30
0.0
 10
1008.065360
 20
518.045416
 30
0.0
  0
SPLINE
  5
268
100
AcDbEntity
  8
0
 62
1
100
AcDbSpline
 70
8
 71
3
 72
8
 73
4
 74
0
 40
0
 40
0
 40
0
 40
0
 40
1
 40
1
 40
1
 40
1
 10
1008.065360
 20
518.045416
 30
0.0
 10
1024.143280
 20
522.536544
 30
0.0
 10
1025.618960
 20
522.768320
 30
0.0
 10
1023.938560
 20
520.434048
 30
0.0
  0
SPLINE
  5
269
100
AcDbEntity
  8
0
 62
1
100
AcDbSpline
 70
8
 71
3
 72
8
 73
4
 74
0
 40
0
 40
0
 40
0
 40
0
 40
1
 40
1
 40
1
 40
1
 10
1023.938560
 20
520.434048
 30
0.0
 10
1023.436160
 20
519.634016
 30
0.0
 10
1011.961920
 20
490.499000
 30
0.0
 10
998.488080
 20
455.583360
 30
0.0
  0
SPLINE
  5
26a
100
AcDbEntity
  8
0
 62
1
100
AcDbSpline
 70
8
 71
3
 72
8
 73
4
 74
0
 40
0
 40
0
 40
0
 40
0
 40
1
 40
1
 40
1
 40
1
 10
998.488080
 20
455.583360
 30
0.0
 10
985.133680
 20
420.721280
 30
0.0
 10
962.663440
 20
362.665920
 30
0.0
 10
948.555440
 20
326.603784
 30
0.0
  0
LWPOLYLINE
  5
26b
100
AcDbEntity
  8
0
 62
5
100
AcDbPolyline
 90
3
 70
0
 10
1038.364000
 20
524.995896
 30
0.0
 10
1036.612640
 20
536.447648
 30
0.0
 10
1036.612640
 20
536.447648
 30
0.0
  0
SPLINE
  5
26c
100
AcDbEntity
  8
0
 62
1
100
AcDbSpline
 70
8
 71
3
 72
8
 73
4
 74
0
 40
0
 40
0
 40
0
 40
0
 40
1
 40
1
 40
1
 40
1
 10
911.953600
 20
262.920776
 30
0.0
 10
901.585120
 20
264.583608
 30
0.0
 10
873.048000
 20
269.289448
 30
0.0
 10
802.278480
 20
280.737032
 30
0.0
  0
SPLINE
  5
26d
100
AcDbEntity
  8
0
 62
1
100
AcDbSpline
 70
8
 71
3
 72
8
 73
4
 74
0
 40
0
 40
0
 40
0
 40
0
 40
1
 40
1
 40
1
 40
1
 10
802.278480
 20
280.737032
 30
0.0
 10
764.531376
 20
286.764376
 30
0.0
 10
761.628920
 20
287.471496
 30
0.0
 10
761.445824
 20
290.117888
 30
0.0
  0
SPLINE
  5
26e
100
AcDbEntity
  8
0
 62
1
100
AcDbSpline
 70
8
 71
3
 72
8
 73
4
 74
0
 40
0
 40
0
 40
0
 40
0
 40
1
 40
1
 40
1
 40
1
 10
761.445824
 20
290.117888
 30
0.0
 10
761.440864
 20
291.408152
 30
0.0
 10
761.040536
 20
298.696000
 30
0.0
 10
760.598576
 20
306.396024
 30
0.0
  0
LWPOLYLINE
  5
26f
100
AcDbEntity
  8
0
 62
1
100
AcDbPolyline
 90
3
 70
0
 10
948.555440
 20
326.603784
 30
0.0
 10
923.187920
 20
260.928648
 30
0.0
 10
911.953600
 20
262.920776
 30
0.0
  0
SPLINE
  5
270
100
AcDbEntity
  8
0
 62
1
100
AcDbSpline
 70
8
 71
3
 72
8
 73
4
 74
0
 40
0
 40
0
 40
0
 40
0
 40
1
 40
1
 40
1
 40
1
 10
1074.629680
 20
184.377520
 30
0.0
 10
1085.302080
 20
194.692592
 30
0.0
 10
1101.704480
 20
210.905896
 30
0.0
 10
1132.106160
 20
241.296336
 30
0.0
  0
SPLINE
  5
271
100
AcDbEntity
  8
0
 62
1
100
AcDbSpline
 70
8
 71
3
 72
8
 73
4
 74
0
 40
0
 40
0
 40
0
 40
0
 40
1
 40
1
 40
1
 40
1
 10
1132.106160
 20
241.296336
 30
0.0
 10
1142.297440
 20
251.403640
 30
0.0
 10
1156.589360
 20
265.564328
 30
0.0
 10
1163.863840
 20
272.842808
 30
0.0
  0
SPLINE
  5
272
100
AcDbEntity
  8
0
 62
1
100
AcDbSpline
 70
8
 71
3
 72
8
 73
4
 74
0
 40
0
 40
0
 40
0
 40
0
 40
1
 40
1
 40
1
 40
1
 10
1163.863840
 20
272.842808
 30
0.0
 10
1175.170480
 20
284.002472
 30
0.0
 10
1176.884640
 20
286.312064
 30
0.0
 10
1175.950000
 20
288.477056
 30
0.0
  0
SPLINE
  5
273
100
AcDbEntity
  8
0
 62
1
100
AcDbSpline
 70
8
 71
3
 72
8
 73
4
 74
0
 40
0
 40
0
 40
0
 40
0
 40
1
 40
1
 40
1
 40
1
 10
1175.950000
 20
288.477056
 30
0.0
 10
1175.326960
 20
289.920392
 30
0.0
 10
1165.291120
 20
305.564920
 30
0.0
 10
1153.735760
 20
323.407400
 30
0.0
  0
SPLINE
  5
274
100
AcDbEntity
  8
0
 62
1
100
AcDbSpline
 70
8
 71
3
 72
8
 73
4
 74
0
 40
0
 40
0
 40
0
 40
0
 40
1
 40
1
 40
1
 40
1
 10
1153.735760
 20
323.407400
 30
0.0
 10
1142.112080
 20
341.077568
 30
0.0
 10
1122.783920
 20
370.975304
 30
0.0
 10
1110.813280
 20
389.779928
 30
0.0
  0
SPLINE
  5
275
100
AcDbEntity
  8
0
 62
1
100
AcDbSpline
 70
8
 71
3
 72
8
 73
4
 74
0
 40
0
 40
0
 40
0
 40
0
 40
1
 40
1
 40
1
 40
1
 10
1110.813280
 20
389.779928
 30
0.0
 10
1098.842480
 20
408.584512
 30
0.0
 10
1078.702640
 20
439.701472
 30
0.0
 10
1066.111440
 20
458.951712
 30
0.0
  0
SPLINE
  5
276
100
AcDbEntity
  8
0
 62
1
100
AcDbSpline
 70
8
 71
3
 72
8
 73
4
 74
0
 40
0
 40
0
 40
0
 40
0
 40
1
 40
1
 40
1
 40
1
 10
1066.111440
 20
458.951712
 30
0.0
 10
1053.640560
 20
478.253856
 30
0.0
 10
1039.494320
 20
500.114728
 30
0.0
 10
1034.984720
 20
507.585664
 30
0.0
  0
SPLINE
  5
277
100
AcDbEntity
  8
0
 62
1
100
AcDbSpline
 70
8
 71
3
 72
8
 73
4
 74
0
 40
0
 40
0
 40
0
 40
0
 40
1
 40
1
 40
1
 40
1
 10
1034.984720
 20
507.585664
 30
0.0
 10
1026.157040
 20
521.754104
 30
0.0
 10
1025.225120
 20
522.921368
 30
0.0
 10
1024.888560
 20
520.064904
 30
0.0
  0
SPLINE
  5
278
100
AcDbEntity
  8
0
 62
1
100
AcDbSpline
 70
8
 71
3
 72
8
 73
4
 74
0
 40
0
 40
0
 40
0
 40
0
 40
1
 40
1
 40
1
 40
1
 10
1024.888560
 20
520.064904
 30
0.0
 10
1024.719040
 20
519.135544
 30
0.0
 10
1013.511680
 20
489.896824
 30
0.0
 10
999.876640
 20
455.043832
 30
0.0
  0
SPLINE
  5
279
100
AcDbEntity
  8
0
 62
1
100
AcDbSpline
 70
8
 71
3
 72
8
 73
4
 74
0
 40
0
 40
0
 40
0
 40
0
 40
1
 40
1
 40
1
 40
1
 10
999.876640
 20
455.043832
 30
0.0
 10
986.189520
 20
420.311032
 30
0.0
 10
963.567280
 20
362.314720
 30
0.0
 10
949.625840
 20
326.187864
 30
0.0
  0
LWPOLYLINE
  5
27a
100
AcDbEntity
  8
0
 62
1
100
AcDbPolyline
 90
2
 70
0
 10
760.598576
 20
306.396024
 30
0.0
 10
760.598576
 20
306.396024
 30
0.0
  0
SPLINE
  5
27b
100
AcDbEntity
  8
0
 62
1
100
AcDbSpline
 70
8
 71
3
 72
8
 73
4
 74
0
 40
0
 40
0
 40
0
 40
0
 40
1
 40
1
 40
1
 40
1
 10
933.628160
 20
254.499016
 30
0.0
 10
942.399360
 20
248.725032
 30
0.0
 10
966.627120
 20
232.928768
 30
0.0
 10
1026.559920
 20
193.591256
 30
0.0
  0
SPLINE
  5
27c
100
AcDbEntity
  8
0
 62
1
100
AcDbSpline
 70
8
 71
3
 72
8
 73
4
 74
0
 40
0
 40
0
 40
0
 40
0
 40
1
 40
1
 40
1
 40
1
 10
1026.559920
 20
193.591256
 30
0.0
 10
1058.473760
 20
172.551440
 30
0.0
 10
1061.092320
 20
171.113352
 30
0.0
 10
1063.014080
 20
172.941880
 30
0.0
  0
SPLINE
  5
27d
100
AcDbEntity
  8
0
 62
1
100
AcDbSpline
 70
8
 71
3
 72
8
 73
4
 74
0
 40
0
 40
0
 40
0
 40
0
 40
1
 40
1
 40
1
 40
1
 10
1063.014080
 20
172.941880
 30
0.0
 10
1063.888880
 20
173.890312
 30
0.0
 10
1069.104880
 20
178.995920
 30
0.0
 10
1074.629680
 20
184.377520
 30
0.0
  0
LWPOLYLINE
  5
27e
100
AcDbEntity
  8
0
 62
1
100
AcDbPolyline
 90
3
 70
0
 10
949.625840
 20
326.187864
 30
0.0
 10
923.996080
 20
260.614656
 30
0.0
 10
933.628160
 20
254.499016
 30
0.0
  0
SPLINE
  5
27f
100
AcDbEntity
  8
0
 62
1
100
AcDbSpline
 70
8
 71
3
 72
8
 73
4
 74
0
 40
0
 40
0
 40
0
 40
0
 40
1
 40
1
 40
1
 40
1
 10
1328.771200
 20
365.386152
 30
0.0
 10
1326.689120
 20
380.081944
 30
0.0
 10
1323.197520
 20
402.879176
 30
0.0
 10
1316.451600
 20
445.333152
 30
0.0
  0
SPLINE
  5
280
100
AcDbEntity
  8
0
 62
1
100
AcDbSpline
 70
8
 71
3
 72
8
 73
4
 74
0
 40
0
 40
0
 40
0
 40
0
 40
1
 40
1
 40
1
 40
1
 10
1316.451600
 20
445.333152
 30
0.0
 10
1314.255120
 20
459.517504
 30
0.0
 10
1311.185760
 20
479.401224
 30
0.0
 10
1309.566080
 20
489.563416
 30
0.0
  0
SPLINE
  5
281
100
AcDbEntity
  8
0
 62
1
100
AcDbSpline
 70
8
 71
3
 72
8
 73
4
 74
0
 40
0
 40
0
 40
0
 40
0
 40
1
 40
1
 40
1
 40
1
 10
1309.566080
 20
489.563416
 30
0.0
 10
1307.172880
 20
505.268576
 30
0.0
 10
1306.310000
 20
508.012248
 30
0.0
 10
1304.008800
 20
508.527040
 30
0.0
  0
SPLINE
  5
282
100
AcDbEntity
  8
0
 62
1
100
AcDbSpline
 70
8
 71
3
 72
8
 73
4
 74
0
 40
0
 40
0
 40
0
 40
0
 40
1
 40
1
 40
1
 40
1
 10
1304.008800
 20
508.527040
 30
0.0
 10
1302.474640
 20
508.870304
 30
0.0
 10
1283.918240
 20
509.934080
 30
0.0
 10
1262.690640
 20
511.058464
 30
0.0
  0
SPLINE
  5
283
100
AcDbEntity
  8
0
 62
1
100
AcDbSpline
 70
8
 71
3
 72
8
 73
4
 74
0
 40
0
 40
0
 40
0
 40
0
 40
1
 40
1
 40
1
 40
1
 10
1262.690640
 20
511.058464
 30
0.0
 10
1241.562240
 20
512.026392
 30
0.0
 10
1206.012320
 20
513.938520
 30
0.0
 10
1183.761920
 20
515.291744
 30
0.0
  0
SPLINE
  5
284
100
AcDbEntity
  8
0
 62
1
100
AcDbSpline
 70
8
 71
3
 72
8
 73
4
 74
0
 40
0
 40
0
 40
0
 40
0
 40
1
 40
1
 40
1
 40
1
 10
1183.761920
 20
515.291744
 30
0.0
 10
1161.511440
 20
516.644920
 30
0.0
 10
1124.498080
 20
518.615936
 30
0.0
 10
1101.522640
 20
519.728640
 30
0.0
  0
SPLINE
  5
285
100
AcDbEntity
  8
0
 62
1
100
AcDbSpline
 70
8
 71
3
 72
8
 73
4
 74
0
 40
0
 40
0
 40
0
 40
0
 40
1
 40
1
 40
1
 40
1
 10
1101.522640
 20
519.728640
 30
0.0
 10
1078.575760
 20
520.969208
 30
0.0
 10
1052.574000
 20
522.356184
 30
0.0
 10
1043.878800
 20
523.093184
 30
0.0
  0
SPLINE
  5
286
100
AcDbEntity
  8
0
 62
1
100
AcDbSpline
 70
8
 71
3
 72
8
 73
4
 74
0
 40
0
 40
0
 40
0
 40
0
 40
1
 40
1
 40
1
 40
1
 10
1043.878800
 20
523.093184
 30
0.0
 10
1027.226560
 20
524.267968
 30
0.0
 10
1025.734480
 20
524.199048
 30
0.0
 10
1027.849040
 20
522.249248
 30
0.0
  0
SPLINE
  5
287
100
AcDbEntity
  8
0
 62
1
100
AcDbSpline
 70
8
 71
3
 72
8
 73
4
 74
0
 40
0
 40
0
 40
0
 40
0
 40
1
 40
1
 40
1
 40
1
 10
1027.849040
 20
522.249248
 30
0.0
 10
1028.501600
 20
521.566280
 30
0.0
 10
1045.586960
 20
495.325088
 30
0.0
 10
1065.790800
 20
463.821848
 30
0.0
  0
SPLINE
  5
288
100
AcDbEntity
  8
0
 62
1
100
AcDbSpline
 70
8
 71
3
 72
8
 73
4
 74
0
 40
0
 40
0
 40
0
 40
0
 40
1
 40
1
 40
1
 40
1
 10
1065.790800
 20
463.821848
 30
0.0
 10
1085.866880
 20
432.347224
 30
0.0
 10
1119.526080
 20
379.979224
 30
0.0
 10
1140.581120
 20
347.480104
 30
0.0
  0
LWPOLYLINE
  5
289
100
AcDbEntity
  8
0
 62
1
100
AcDbPolyline
 90
2
 70
0
 10
1074.629680
 20
184.377520
 30
0.0
 10
1074.629680
 20
184.377520
 30
0.0
  0
SPLINE
  5
28a
100
AcDbEntity
  8
0
 62
1
100
AcDbSpline
 70
8
 71
3
 72
8
 73
4
 74
0
 40
0
 40
0
 40
0
 40
0
 40
1
 40
1
 40
1
 40
1
 10
1189.213440
 20
292.433576
 30
0.0
 10
1199.037600
 20
296.142496
 30
0.0
 10
1226.050720
 20
306.477088
 30
0.0
 10
1293.085600
 20
331.887960
 30
0.0
  0
SPLINE
  5
28b
100
AcDbEntity
  8
0
 62
1
100
AcDbSpline
 70
8
 71
3
 72
8
 73
4
 74
0
 40
0
 40
0
 40
0
 40
0
 40
1
 40
1
 40
1
 40
1
 10
1293.085600
 20
331.887960
 30
0.0
 10
1328.856320
 20
345.364600
 30
0.0
 10
1331.558000
 20
346.639640
 30
0.0
 10
1331.206400
 20
349.268928
 30
0.0
  0
SPLINE
  5
28c
100
AcDbEntity
  8
0
 62
1
100
AcDbSpline
 70
8
 71
3
 72
8
 73
4
 74
0
 40
0
 40
0
 40
0
 40
0
 40
1
 40
1
 40
1
 40
1
 10
1331.206400
 20
349.268928
 30
0.0
 10
1330.952560
 20
350.533880
 30
0.0
 10
1329.882880
 20
357.753944
 30
0.0
 10
1328.771200
 20
365.386152
 30
0.0
  0
LWPOLYLINE
  5
28d
100
AcDbEntity
  8
0
 62
1
100
AcDbPolyline
 90
3
 70
0
 10
1140.581120
 20
347.480104
 30
0.0
 10
1178.607040
 20
288.228416
 30
0.0
 10
1189.213440
 20
292.433576
 30
0.0
  0
SPLINE
  5
28e
100
AcDbEntity
  8
0
 62
1
100
AcDbSpline
 70
8
 71
3
 72
8
 73
4
 74
0
 40
0
 40
0
 40
0
 40
0
 40
1
 40
1
 40
1
 40
1
 10
1344.874720
 20
651.369536
 30
0.0
 10
1341.247120
 20
636.977120
 30
0.0
 10
1335.359760
 20
614.678144
 30
0.0
 10
1324.153440
 20
573.177984
 30
0.0
  0
SPLINE
  5
28f
100
AcDbEntity
  8
0
 62
1
100
AcDbSpline
 70
8
 71
3
 72
8
 73
4
 74
0
 40
0
 40
0
 40
0
 40
0
 40
1
 40
1
 40
1
 40
1
 10
1324.153440
 20
573.177984
 30
0.0
 10
1320.466240
 20
559.306176
 30
0.0
 10
1315.307360
 20
539.859584
 30
0.0
 10
1312.620080
 20
529.926232
 30
0.0
  0
SPLINE
  5
290
100
AcDbEntity
  8
0
 62
1
100
AcDbSpline
 70
8
 71
3
 72
8
 73
4
 74
0
 40
0
 40
0
 40
0
 40
0
 40
1
 40
1
 40
1
 40
1
 10
1312.620080
 20
529.926232
 30
0.0
 10
1308.576240
 20
514.563080
 30
0.0
 10
1307.427440
 20
511.926304
 30
0.0
 10
1305.084640
 20
511.658208
 30
0.0
  0
SPLINE
  5
291
100
AcDbEntity
  8
0
 62
1
100
AcDbSpline
 70
8
 71
3
 72
8
 73
4
 74
0
 40
0
 40
0
 40
0
 40
0
 40
1
 40
1
 40
1
 40
1
 10
1305.084640
 20
511.658208
 30
0.0
 10
1303.522800
 20
511.479512
 30
0.0
 10
1284.958160
 20
512.387896
 30
0.0
 10
1263.730960
 20
513.519072
 30
0.0
  0
SPLINE
  5
292
100
AcDbEntity
  8
0
 62
1
100
AcDbSpline
 70
8
 71
3
 72
8
 73
4
 74
0
 40
0
 40
0
 40
0
 40
0
 40
1
 40
1
 40
1
 40
1
 10
1263.730960
 20
513.519072
 30
0.0
 10
1242.618880
 20
514.795360
 30
0.0
 10
1207.066480
 20
516.660808
 30
0.0
 10
1184.797920
 20
517.672800
 30
0.0
  0
SPLINE
  5
293
100
AcDbEntity
  8
0
 62
1
100
AcDbSpline
 70
8
 71
3
 72
8
 73
4
 74
0
 40
0
 40
0
 40
0
 40
0
 40
1
 40
1
 40
1
 40
1
 10
1184.797920
 20
517.672800
 30
0.0
 10
1162.529360
 20
518.684824
 30
0.0
 10
1125.515520
 20
520.646752
 30
0.0
 10
1102.551520
 20
521.974816
 30
0.0
  0
SPLINE
  5
294
100
AcDbEntity
  8
0
 62
1
100
AcDbSpline
 70
8
 71
3
 72
8
 73
4
 74
0
 40
0
 40
0
 40
0
 40
0
 40
1
 40
1
 40
1
 40
1
 10
1102.551520
 20
521.974816
 30
0.0
 10
1079.602320
 20
523.172672
 30
0.0
 10
1053.600000
 20
524.548552
 30
0.0
 10
1044.875680
 20
524.737024
 30
0.0
  0
SPLINE
  5
295
100
AcDbEntity
  8
0
 62
1
100
AcDbSpline
 70
8
 71
3
 72
8
 73
4
 74
0
 40
0
 40
0
 40
0
 40
0
 40
1
 40
1
 40
1
 40
1
 10
1044.875680
 20
524.737024
 30
0.0
 10
1028.192800
 20
525.333336
 30
0.0
 10
1026.716400
 20
525.560000
 30
0.0
 10
1029.025520
 20
527.274720
 30
0.0
  0
SPLINE
  5
296
100
AcDbEntity
  8
0
 62
1
100
AcDbSpline
 70
8
 71
3
 72
8
 73
4
 74
0
 40
0
 40
0
 40
0
 40
0
 40
1
 40
1
 40
1
 40
1
 10
1029.025520
 20
527.274720
 30
0.0
 10
1029.746880
 20
527.884728
 30
0.0
 10
1049.516480
 20
552.167880
 30
0.0
 10
1072.944720
 20
581.352992
 30
0.0
  0
SPLINE
  5
297
100
AcDbEntity
  8
0
 62
1
100
AcDbSpline
 70
8
 71
3
 72
8
 73
4
 74
0
 40
0
 40
0
 40
0
 40
0
 40
1
 40
1
 40
1
 40
1
 10
1072.944720
 20
581.352992
 30
0.0
 10
1096.242720
 20
610.523136
 30
0.0
 10
1135.261280
 20
659.029896
 30
0.0
 10
1159.641280
 20
689.115088
 30
0.0
  0
LWPOLYLINE
  5
298
100
AcDbEntity
  8
0
 62
1
100
AcDbPolyline
 90
2
 70
0
 10
1328.771200
 20
365.386152
 30
0.0
 10
1328.771200
 20
365.386152
 30
0.0
  0
SPLINE
  5
299
100
AcDbEntity
  8
0
 62
1
100
AcDbSpline
 70
8
 71
3
 72
8
 73
4
 74
0
 40
0
 40
0
 40
0
 40
0
 40
1
 40
1
 40
1
 40
1
 10
1213.832480
 20
738.698712
 30
0.0
 10
1223.208320
 20
733.969728
 30
0.0
 10
1248.974400
 20
720.831056
 30
0.0
 10
1312.939360
 20
688.460336
 30
0.0
  0
SPLINE
  5
29a
100
AcDbEntity
  8
0
 62
1
100
AcDbSpline
 70
8
 71
3
 72
8
 73
4
 74
0
 40
0
 40
0
 40
0
 40
0
 40
1
 40
1
 40
1
 40
1
 10
1312.939360
 20
688.460336
 30
0.0
 10
1347.080880
 20
671.269368
 30
0.0
 10
1349.632080
 20
669.715296
 30
0.0
 10
1349.004000
 20
667.138040
 30
0.0
  0
SPLINE
  5
29b
100
AcDbEntity
  8
0
 62
1
100
AcDbSpline
 70
8
 71
3
 72
8
 73
4
 74
0
 40
0
 40
0
 40
0
 40
0
 40
1
 40
1
 40
1
 40
1
 10
1349.004000
 20
667.138040
 30
0.0
 10
1348.617440
 20
665.907032
 30
0.0
 10
1346.788800
 20
658.840968
 30
0.0
 10
1344.874720
 20
651.369536
 30
0.0
  0
LWPOLYLINE
  5
29c
100
AcDbEntity
  8
0
 62
1
100
AcDbPolyline
 90
3
 70
0
 10
1159.641280
 20
689.115088
 30
0.0
 10
1203.731440
 20
744.004064
 30
0.0
 10
1213.832480
 20
738.698712
 30
0.0
  0
LWPOLYLINE
  5
29d
100
AcDbEntity
  8
0
 62
1
100
AcDbPolyline
 90
2
 70
0
 10
1344.874720
 20
651.369536
 30
0.0
 10
1344.874720
 20
651.369536
 30
0.0
  0
ENDSEC
  0
SECTION
  2
OBJECTS
  0
DICTIONARY
  5
C
330
0
100
AcDbDictionary
  3
ACAD_GROUP
350
D
  3
ACAD_MLINESTYLE
350
17
  0
DICTIONARY
  5
D
330
C
100
AcDbDictionary
  0
DICTIONARY
  5
1A
330
C
100
AcDbDictionary
  0
DICTIONARY
  5
17
330
C
100
AcDbDictionary
  3
STANDARD
350
18
  0
DICTIONARY
  5
19
330
C
100
AcDbDictionary
  0
ENDSEC
  0
EOF
