<?xml version="1.0" encoding="UTF-8" standalone="no"?>
<svg
   xmlns:dc="http://purl.org/dc/elements/1.1/"
   xmlns:cc="http://creativecommons.org/ns#"
   xmlns:rdf="http://www.w3.org/1999/02/22-rdf-syntax-ns#"
   xmlns:svg="http://www.w3.org/2000/svg"
   xmlns="http://www.w3.org/2000/svg"
   xmlns:sodipodi="http://sodipodi.sourceforge.net/DTD/sodipodi-0.dtd"
   xmlns:inkscape="http://www.inkscape.org/namespaces/inkscape"
   version="1.0"
   width="2125.9841"
   height="1000"
   viewBox="0 0 1700.7873 799.99999"
   preserveAspectRatio="xMidYMid meet"
   id="svg2"
   inkscape:version="0.48.4 r9939"
   sodipodi:docname="square_trapezohedron_with_grid_pattern.svg">
  <defs
     id="defs70" />
  <sodipodi:namedview
     pagecolor="#ffffff"
     bordercolor="#666666"
     borderopacity="1"
     objecttolerance="10"
     gridtolerance="10"
     guidetolerance="10"
     inkscape:pageopacity="0"
     inkscape:pageshadow="2"
     inkscape:window-width="640"
     inkscape:window-height="480"
     id="namedview68"
     showgrid="false"
     units="cm"
     inkscape:zoom="0.36272815"
     inkscape:cx="1053.06"
     inkscape:cy="655.46875"
     inkscape:current-layer="g6" />
  <metadata
     id="metadata4">
Created by potrace 1.11, written by Peter Selinger 2001-2013
<rdf:RDF>
  <cc:Work
     rdf:about="">
    <dc:format>image/svg+xml</dc:format>
    <dc:type
       rdf:resource="http://purl.org/dc/dcmitype/StillImage" />
    <dc:title></dc:title>
  </cc:Work>
</rdf:RDF>
</metadata>
  <g
     transform="matrix(0.1,0,0,-0.1,0,799.99975)"
     id="g6"
     style="fill:#000000;stroke:none">
    <path
       style="fill:none;stroke:#0000ff;stroke-width:28.34645664"
       d="m 4769.4463,4147.1878 c -7.5085,10.6779 -58.4545,27.7879 -195.3214,70.7768 -58.2279,17.3884 -182.7012,58.0619 -326.1541,105.4046 l 216.61,-301.1995 153.6887,15.3744 c 77.3628,54.9165 134.563,95.3374 138.5749,97.1936 10.4742,4.064 16.0149,7.5965 12.6019,12.4501 z m -811.3545,90.271 -467.981,-46.7849 -193.4807,-428.9103 274.5573,-381.7765 155.1415,15.4955 c 117.9076,85.2756 227.8054,164.9911 321.8381,233.2997 42.8599,30.9735 80.8189,58.057 121.7787,87.5781 l 62.7036,139.3219 -274.5575,381.7765 z m -239.9386,262.5591 c -114.2268,38.368 -236.3006,79.0911 -361.4554,120.6648 l 105.2397,-146.3374 256.2157,25.6726 z m -762.7617,189.2675 -467.9808,-46.7846 -193.278,-428.7647 274.5573,-381.7764 467.9815,46.7851 193.2774,428.764 -274.5574,381.7766 z m -950.2424,379.3112 c -9.534,3.2451 -22.1515,7.3728 -31.2461,10.4783 -51.7601,17.2584 -100.6441,33.6948 -148.2892,49.4799 l -340.5545,-34.2845 -193.6273,-428.7078 274.7034,-381.9795 468.0388,47.1343 193.4233,428.5612 -222.4484,309.3181 z m 1059.6953,-1473.5233 -467.9809,-46.7846 -193.4812,-428.9108 274.7033,-381.9795 156.5946,15.6166 c 137.9888,99.0366 284.771,204.8727 440.0847,316.798 l 64.7828,143.2808 -274.7033,381.9795 z m -1002.8459,452.0298 -467.8356,-46.9881 -193.6266,-428.7073 274.7034,-381.9795 468.1841,46.9308 193.2781,428.7646 -274.7034,381.9795 z m -1002.3514,451.7696 -51.1626,-5.0766 C 799.79252,4139.2464 670.50845,3917.2984 583.5587,3765.4122 l 89.18368,-124.0114 467.98072,46.7846 193.4814,428.9108 -274.5574,381.7765 z M 2171.5973,2952.688 1703.4126,2905.7567 1514.0594,2485.6655 c 167.1803,-152.1126 264.7355,-240.9859 314.2383,-285.8018 l 96.6034,-90.6534 19.8428,1.9527 436.1961,314.9253 65.2148,144.8232 -274.5575,381.7765 z m -1001.1655,453.5463 -550.81118,-54.9276 -51.56788,-5.368 c 54.52935,-50.8616 129.25858,-118.6032 232.45193,-211.899 225.20853,-204.4401 350.31803,-318.1505 493.02603,-447.9164 l 152.0423,337.5226 -275.1412,382.5884 z m -730.77061,73.7031 c 3.34368,-5.7086 8.11725,-12.5778 14.88829,-20.7024 l -14.88829,20.7024 z"
       id="path3077"
       inkscape:connector-curvature="0" />
    <text
       xml:space="preserve"
       style="font-size:415.40170288px;font-style:normal;font-variant:normal;font-weight:bold;font-stretch:normal;text-align:start;line-height:125%;letter-spacing:0px;word-spacing:0px;text-anchor:start;fill:#000000;fill-opacity:1;stroke:none;font-family:Cambria;-inkscape-font-specification:Sans Bold"
       x="499.87967"
       y="-7461.23"
       id="text3083"
       sodipodi:linespacing="125%"
       transform="scale(1,-1)"><tspan
         sodipodi:role="line"
         id="tspan3085"
         x="499.87967"
         y="-7461.23">Name: Square Trapezohedron</tspan><tspan
         sodipodi:role="line"
         x="499.87967"
         y="-6941.9775"
         id="tspan3906">Date: April 27, 2015</tspan><tspan
         sodipodi:role="line"
         x="499.87967"
         y="-6422.7256"
         id="tspan3908">Created by: Steven Smethurst (Funvill)</tspan><tspan
         sodipodi:role="line"
         x="499.87967"
         y="-5903.4736"
         id="tspan3910">Directions: 1) Cut Blue, 2) Cut Red</tspan></text>
    <path
       style="fill:none;stroke:#0000ff;stroke-width:28.34645664"
       d="m 4780.1016,4132.3713 c -3.5151,4.7801 -8.627,0.6518 -15.8131,-7.9848 -2.7225,-2.8805 -49.4941,-37.3708 -112.4925,-83.3632 l 134.9495,13.5993 c -0.1052,48.2157 -1.967,71.389 -6.6439,77.7487 z m 2.3055,-364.1692 -289.945,-29.2979 -193.4237,-428.5612 274.7033,-381.9796 206.3036,20.5716 c 0.052,92.2952 -0.2231,179.2247 -0.411,254.0592 0.6207,199.7383 1.252,414.1283 2.7728,565.2079 z m -628.1025,-86.1852 c -32.4501,-23.2723 -61.5767,-44.401 -95.1904,-68.457 -88.1313,-62.7432 -192.1571,-136.8059 -301.2634,-214.8083 l 281.5207,28.1664 114.9331,255.0989 z m 625.1514,-1019.5776 -177.541,-17.7471 -193.4807,-428.9102 274.5573,-381.7765 91.4001,9.0708 c 0.5454,119.7487 1.2869,235.6029 2.2203,330.4718 1.3144,133.568 2.3123,310.1505 2.844,488.8912 z m -712.2603,480.8645 -467.9808,-46.7848 -193.2779,-428.7645 274.5573,-381.7765 467.9814,46.7851 193.2774,428.7641 -274.5574,381.7766 z m 706.4038,-1586.8691 -62.4343,-6.1003 -193.2781,-428.7646 253.5386,-352.54962 c 1.3598,95.5131 2.1505,245.74872 2.4959,416.58392 -0.5253,102.4433 -0.5165,234.3327 -0.3221,370.8306 z m -596.951,492.6569 -467.9807,-46.7846 -193.4813,-428.9108 274.7034,-381.9794 468.0387,47.1342 193.4234,428.5612 -274.7035,381.9794 z m -913.1942,995.343 C 3122.158,2943.0142 2988.886,2847.1376 2862.1928,2755.8643 l 283.9316,28.6685 117.3299,259.9018 z m -89.6516,-543.3133 -467.8354,-46.988 -193.4241,-428.5616 274.7033,-381.9794 467.9815,46.785 193.2781,428.7646 -274.7034,381.9794 z m 1111.9501,-1546.18462 -467.9812,-46.7851 -193.4808,-428.9103 51.817,-72.05242 c 94.236,19.775 195.001,40.84784 311.6248,65.52043 175.6786,36.44227 421.9104,87.31837 547.7438,114.00087 4.8781,0.99964 8.4783,1.72087 13.1568,2.68719 L 4285.7528,954.93668 z M 3283.4015,1406.7063 2815.2168,1359.775 2621.9395,931.01088 2896.4968,549.2344 l 467.9808,46.78465 193.4813,428.91075 -274.5574,381.7765 z m -913.2836,995.8946 -403.875,-289.2179 286.4305,28.6178 117.4445,260.6001 z m -87.8819,-542.3484 -228.7031,-22.8232 c 53.4672,-121.6505 163.2357,-371.5056 328.6295,-748.1332 l 175.2149,388.3681 -275.1413,382.5883 z m 782.3756,-1579.03955 -221.2366,-22.0726 -81.434,-8.3704 -7.1522,9.94524 c 19.5724,-31.76752 30.2947,-35.74838 43.0902,-33.36989 15.631,3.97536 104.9829,21.92866 199.5549,40.66097 19.3909,3.76207 45.3413,8.89204 67.1777,13.20668 z"
       id="path3077-4"
       inkscape:connector-curvature="0" />
    <path
       style="fill:none;stroke:#0000ff;stroke-width:28.34645664"
       d="m 7613.897,2096.9468 c -1.0411,1.4557 -2.3295,2.8558 -3.6171,4.1733 -8.0514,8.2374 -79.1484,61.4614 -177.0109,133.5226 l -126.1868,-280.1284 167.858,-233.4094 c 22.8338,50.8757 48.6698,107.9113 64.4343,143.338 76.8466,169.5684 90.1379,210.6677 74.5225,232.5039 z m -415.8288,309.7419 c -1.1808,0.8612 -2.1675,1.656 -3.3502,2.5177 -158.5251,113.7733 -395.6098,286.3421 -599.0926,435.6882 l -97.9658,-9.7894 -193.2776,-428.7644 274.5573,-381.7765 467.9812,46.7849 151.1477,335.3395 z m -1198.142,876.0268 c -22.4284,16.3728 -43.6802,31.8932 -66.0971,48.2337 l -438.6668,-43.8715 -193.2777,-428.7643 274.7034,-381.9795 467.8352,46.9879 193.4235,428.5613 -237.9205,330.8324 z m 1075.1674,-1495.0376 -467.9811,-46.7848 -193.4806,-428.9104 274.5573,-381.77642 452.6992,45.3407 c 49.2641,109.86112 103.4465,231.05042 169.1148,378.43832 8.9016,19.7688 19.9498,44.5471 29.5763,65.9206 l -264.4859,367.772 z m -1488.291,1795.0235 c -6.7152,4.8503 -15.4331,11.2503 -21.9351,15.9425 -83.6759,61.1038 -166.9626,122.1569 -248.9507,182.1736 l 151.0723,-210.0685 119.8135,11.9524 z m -658.8908,486.2963 c -114.0799,85.2978 -125.4044,88.7168 -117.6563,58.2686 0.5193,-2.7605 0.8224,-28.3778 1.0971,-70.0361 l 116.5592,11.7675 z m 32.5883,-282.9596 -148.9817,-15.0687 c -0.2392,-146.3956 -0.5995,-319.8745 -1.8601,-514.6659 -0.7962,-89.0368 -1.6711,-196.9503 -2.4495,-304.4621 l 234.514,23.307 193.4807,428.9102 -274.7034,381.9795 z m 1111.9502,-1546.1847 -468.184,-46.9308 -193.2778,-428.7642 274.7034,-381.9795 467.8352,46.9877 193.6265,428.7074 -274.7033,381.9794 z M 7006.1293,676.93688 6715.1377,647.80978 6544.684,269.9488 c 226.9359,-47.75334 254.0714,-46.24174 265.0916,-23.06561 5.9612,14.9865 43.8619,98.05177 84.2344,185.60054 29.5413,63.40879 67.8918,147.01348 112.1193,244.45315 z M 5069.896,2691.477 4805.313,2665.0219 c -1.711,-275.4069 -3.3747,-559.8454 -4.3096,-819.128 l 350.1724,35.0424 193.2777,428.7643 -274.5575,381.7764 z M 6181.8462,1145.2924 5713.8651,1098.5076 5520.3845,669.59718 5671.6026,459.32594 c 171.8916,-37.28357 321.6254,-69.6994 579.4956,-125.83368 l 12.0277,1.25933 193.2778,428.76429 -274.5575,381.77652 z m -1002.7003,451.8266 -378.9346,-37.8668 c -0.02,-9.6081 0.032,-22.3157 0.015,-31.7064 l -4.8765,-787.51062 465.076,46.5432 193.2773,428.76412 -274.5573,381.7765 z"
       id="path3077-4-0"
       inkscape:connector-curvature="0" />
    <path
       style="fill:none;stroke:#0000ff;stroke-width:28.34645664"
       d="m 8185.2765,5215.2266 -10.372,-0.9923 -193.2777,-428.7644 274.5575,-381.7765 375.4772,37.536 c -209.1892,361.3026 -351.516,607.2926 -397.4819,686.3001 l -48.9031,87.6971 z m 567.062,-1048.4196 -467.9811,-46.7849 -193.4807,-428.9103 274.5575,-381.7765 468.1839,46.9309 186.7856,414.2415 c -20.6554,35.7748 -44.532,76.8979 -70.7225,121.8912 l -197.3427,274.4081 z m -922.8065,974.881 -500.9947,-164.447 c -39.0447,-12.6381 -89.1288,-28.9041 -131.8332,-42.7677 l 56.7798,-78.9532 468.1841,46.9307 107.864,239.2372 z m -79.6908,-522.9084 -468.1841,-46.9308 -193.2776,-428.7644 274.7033,-381.9795 467.8352,46.9879 193.6266,428.7072 -274.7034,381.9796 z m 977.2036,-1559.6382 -333.4375,-33.4774 -193.2777,-428.7642 4.9628,-6.9009 c 18.489,16.6924 39.6965,35.8909 56.7385,51.2738 195.7262,175.2748 345.7712,310.065 465.0139,417.8687 z M 6911.6417,4841.8651 c -263.5432,-85.9541 -551.8241,-180.5906 -812.096,-266.2357 l 260.6909,-362.4948 468.184,46.9307 193.2776,428.7643 -110.0565,153.0355 z m 947.3034,-1317.2406 -468.1841,-46.9309 -193.2777,-428.7643 274.7035,-381.9795 467.835,46.9879 193.6267,428.7073 -274.7034,381.9795 z m -1002.3513,451.7696 -468.1841,-46.9309 -193.2778,-428.7642 274.5574,-381.7767 467.9812,46.785 193.4807,428.9102 -274.5574,381.7766 z M 7968.341,2430.0634 7500.36,2383.2786 7446.9763,2264.8242 c 106.1592,-76.6629 185.1177,-133.0147 195.9169,-138.4024 26.3754,-13.1597 56.3604,6.7382 203.4483,140.1526 35.9629,32.175 91.4612,82.4523 145.3537,131.0146 l -23.3542,32.4744 z m -2114.4475,1998.1573 -290.4399,-29.0378 c -67.8547,-22.2277 -137.2135,-45.0444 -198.8947,-65.1288 l -172.1272,-381.5286 71.9601,-100.0615 c 101.9378,-73.7837 217.1638,-157.5877 326.8111,-237.3443 11.3446,-8.3499 26.3979,-19.3084 38.3944,-28.1248 l 305.3729,30.539 193.4806,428.9103 -274.5573,381.7765 z m 1111.9502,-1546.1847 -321.061,-32.275 c 195.5215,-141.5916 414.8953,-301.7972 566.4729,-413.8806 l 29.1456,64.3791 -274.5575,381.7765 z M 4998.8729,4216.1058 c -79.0456,-25.1912 -138.0466,-43.8 -142.1162,-44.3121 -30.4198,-1.8887 -23.9519,-11.7697 82.4114,-87.6184 l 59.7048,131.9305 z"
       id="path3077-4-0-8"
       inkscape:connector-curvature="0" />
    <path
       d="m 538.71578,3686.9126 c 91.46272,161.4208 236.39035,410.6324 509.11602,873.6084 90.4526,154.9483 217.138,372.2001 282.4772,482.9997 99.7004,171.7387 122.2922,199.7057 151.4169,195.165 19.4164,-3.0272 240.1382,-75.5603 492.2131,-159.6107 250.2037,-85.417 672.4844,-225.8377 937.5029,-311.9066 265.018,-86.0694 704.5927,-232.5007 976.9449,-324.6855 272.6037,-90.5666 581.4136,-193.4072 685.9333,-224.6192 199.079,-62.5293 216.1208,-70.1587 182.6029,-83.1641 -10.7175,-4.9583 -329.5313,-232.0308 -708.699,-506.0436 C 3670.6737,3354.3898 3039.5193,2899.2352 2645.8925,2617.5315 l -713.4484,-515.2483 -104.1364,97.4475 c -97.3085,88.0952 -364.2498,331.914 -1027.75663,934.2316 -354.43687,320.4408 -380.0295,347.6335 -363.91015,376.6107 8.7426,13.5533 54.22211,92.6451 102.07486,176.3396 z"
       id="path3077-45"
       style="fill:none;stroke:#ff0000;stroke-width:28.34645664"
       inkscape:connector-curvature="0" />
    <path
       d="m 2997.4978,267.93655 c 182.1353,35.33917 464.5121,93.42553 990.2083,204.64174 175.6777,36.44149 421.9505,87.40511 547.7834,114.08722 194.5377,39.86607 228.2408,52.38267 233.2043,81.43817 3.3092,19.3704 4.786,251.7007 5.3227,517.41852 -1.354,264.3779 -0.093,709.3926 2.6492,988.0226 2.7412,278.6306 3.8069,741.953 3.0853,1029.4817 0.8921,287.2529 1.6699,612.736 5.3403,721.7548 4.0747,208.6288 2.2656,227.2119 -20.7299,199.5751 -8.1112,-8.5824 -324.8354,-238.5606 -705.2654,-510.8181 -380.1556,-270.6437 -1012.4999,-724.1437 -1404.8221,-1007.661 l -715.5024,-512.3922 59.2422,-129.7333 c 52.5499,-120.2853 198.7444,-450.9386 558.6032,-1271.62712 190.9901,-437.9845 208.6255,-470.90099 241.2253,-464.84023 15.631,3.97506 105.0845,21.92021 199.6556,40.6521 z"
       id="path3077-4-5"
       style="fill:none;stroke:#ff0000;stroke-width:28.34645664"
       inkscape:connector-curvature="0" />
    <path
       d="m 6894.1925,432.33366 c 78.3506,168.17635 197.1524,430.84762 415.8357,921.66724 73.6655,163.5975 177.0325,392.8629 229.3277,510.3832 81.9703,180.8735 91.6298,215.5035 71.0261,236.5829 -13.7355,14.0536 -200.9212,151.6809 -415.6832,308.1506 -214.7893,154.154 -574.2538,416.4994 -798.173,582.3383 -223.9202,165.8385 -598.3174,438.7758 -831.4735,607.0365 -231.9852,169.4056 -494.9816,361.1674 -581.0682,428.157 -166.4765,125.8113 -182.5807,135.2594 -173.7145,100.4165 2.1832,-11.6045 2.3451,-403.0182 -0.6833,-870.824 -4.172,-466.6352 -8.4285,-1244.7771 -9.326,-1728.8196 l -5.4201,-880.03452 139.7975,-28.2311 c 128.2192,-28.09918 481.7077,-103.93424 1357.3106,-294.58757 466.6689,-102.60478 503.6683,-107.65948 517.9054,-77.71283 5.9616,14.98492 43.9656,97.92881 84.3388,185.47738 z"
       id="path3077-4-0-1"
       style="fill:none;stroke:#ff0000;stroke-width:28.34645664"
       inkscape:connector-curvature="0" />
    <path
       d="m 9012.2012,3319.1482 c -136.1097,-126.08 -349.7891,-319.6034 -750.0771,-678.0658 -133.1854,-120.219 -319.7902,-288.8198 -415.6539,-374.5865 -147.0876,-133.4145 -177.0975,-153.2127 -203.4729,-140.0533 -17.5836,8.7733 -205.9151,144.8289 -420.6267,301.367 -212.5157,157.2734 -572.3246,419.1467 -798.7595,581.5335 -226.4356,162.3875 -600.8995,435.2326 -832.4679,605.6721 -232.3002,168.9736 -495.3786,360.6234 -585.5091,422.0638 -170.7413,119.9593 -184.6661,132.3974 -148.7828,134.6252 11.7162,1.475 384.3798,121.1674 828.7912,267.2856 442.9452,146.8487 1182.4109,389.1583 1642.9303,538.2201 l 836.1085,274.6149 69.6792,-124.4397 c 66.0081,-113.4569 246.4358,-426.7487 696.0298,-1201.9214 240.5652,-412.8392 256.7049,-446.5123 232.5572,-469.2363 -12.4411,-10.2638 -79.7647,-71.8387 -150.7463,-137.0792 z"
       id="path3077-4-0-8-1"
       style="fill:none;stroke:#ff0000;stroke-width:28.34645664"
       inkscape:connector-curvature="0" />
    <path
       style="fill:none;stroke:#0000ff;stroke-width:28.34645664"
       d="m 12802.92,4522.72 c -12.116,4.8566 -64.152,-8.5809 -202.322,-47.1765 -58.291,-17.1749 -184.81,-50.9535 -330.874,-89.4908 l 345.812,-134.3673 120.447,96.6914 c 34.904,88.2186 60.812,153.2918 63.162,157.0354 6.564,9.1181 9.283,15.1004 3.775,17.3078 z m -729.343,-366.748 -366.775,-294.3997 71.692,-465.0365 438.325,-170.3135 121.598,97.5852 c 52.337,135.7755 100.992,262.5224 142.567,371.0568 19.038,49.3344 36.089,92.7356 54.327,139.8164 l -23.409,150.978 -438.325,170.3133 z m -344.298,89.2563 c -116.672,-30.124 -241.206,-62.5524 -368.787,-95.948 l 168.013,-65.2823 200.774,161.2303 z m -742.59,-257.2672 -366.775,-294.3993 71.782,-464.804 438.324,-170.3134 366.776,294.4 -71.783,464.8032 -438.324,170.3135 z M 9983.314,3787.7683 c -9.7615,-2.4784 -22.5889,-5.8984 -31.9057,-8.2544 -52.7988,-13.7571 -102.7384,-26.6348 -151.2843,-39.3829 l -266.7758,-214.4378 71.4587,-464.9468 438.5571,-170.404 366.633,294.7242 -71.549,464.7126 -355.134,137.9891 z m 1691.779,-657.3499 -366.775,-294.3992 71.692,-465.0374 438.557,-170.404 122.751,98.479 c 61.666,158.2606 126.996,327.0158 196.157,505.5272 l -23.824,155.4304 -438.558,170.404 z m -1087.122,-167.92 -366.542,-294.4906 71.459,-464.946 438.557,-170.404 366.866,294.6326 -71.782,464.804 -438.558,170.404 z M 9501.4058,2794.63 l -40.1189,-32.1536 c 18.3934,-410.9981 31.0453,-667.5429 40.9804,-842.274 l 142.3798,-55.3225 366.7749,294.3993 -71.6916,465.0374 -438.3246,170.3134 z m 1775.2032,-689.7648 -366.866,-294.6334 70.343,-455.3934 c 223.083,-36.3481 353.32,-57.6512 419.253,-68.2252 l 130.41,-23.3141 15.569,12.4568 193.918,501.8371 -24.303,156.9589 -438.324,170.3133 z m -1086.54,-165.7325 -431.768,-346.3911 -40.2997,-32.6189 c 73.4433,-12.9009 173.0235,-28.9368 310.3987,-50.8727 300.259,-48.5698 467.136,-75.6677 657.521,-106.628 l -56.596,365.8351 -439.256,170.6756 z m -652.7594,-336.6951 c 5.9156,-2.962 13.6627,-6.1172 23.7688,-9.2354 l -23.7688,9.2354 z"
       id="path3077-7"
       inkscape:connector-curvature="0" />
    <path
       style="fill:none;stroke:#0000ff;stroke-width:28.34645664"
       d="m 12819.931,4516.1103 c -5.553,2.0901 -7.587,-4.1579 -8.901,-15.316 -0.711,-3.8991 -21.111,-58.3144 -48.841,-131.2196 l 105.707,84.9853 c -26.38,40.3596 -40.577,58.7695 -47.965,61.5503 z m 200.508,-304.0084 -227.071,-182.6612 71.549,-464.7129 438.558,-170.404 161.717,129.738 c -50.283,77.395 -97.915,150.1137 -138.879,212.7414 -108.394,167.7695 -224.768,347.8267 -305.874,475.2987 z m -479.513,-414.7387 c -14.511,-37.2025 -27.405,-70.7958 -42.465,-109.2898 -39.663,-100.6511 -86.478,-219.4579 -135.403,-344.3374 l 220.626,177.1191 -42.758,276.5081 z m 1079.993,-513.7784 -139.147,-111.6866 71.692,-465.0366 438.324,-170.3134 71.671,57.4425 c -64.84,100.6769 -127.392,198.1963 -178.34,278.2293 -71.73,112.6804 -167.181,261.2452 -264.2,411.3648 z m -859.261,14.7022 -366.775,-294.3994 71.783,-464.804 438.324,-170.3134 366.775,294.4001 -71.782,464.8032 -438.325,170.3135 z m 1457.437,-945.0062 -49.009,-39.158 71.782,-464.804 404.769,-157.275 c -50.942,80.8054 -132.2,207.1718 -225.064,350.5632 -56.301,85.5869 -128.211,196.1482 -202.478,310.6738 z m -769.032,87.4634 -366.775,-294.3992 71.691,-465.0374 438.558,-170.404 366.633,294.724 -71.55,464.7128 -438.557,170.4038 z m -1308.231,336.3989 c -63.139,-162.0623 -122.575,-315.102 -179.006,-460.6957 l 222.374,178.8545 -43.368,281.8412 z m 221.109,-504.3189 -366.542,-294.4906 71.549,-464.7134 438.558,-170.4039 366.775,294.4 -71.782,464.804 -438.558,170.4039 z m 1775.203,-689.7647 -366.776,-294.4 71.692,-465.0367 82.725,-32.1432 c 68.211,67.9617 141.186,140.5716 225.493,224.8464 127.392,126.3424 306.054,303.2554 396.985,394.2368 3.544,3.498 6.168,6.0656 9.563,9.4268 l -419.682,163.0699 z m -1086.566,-167.8685 -366.866,-294.6334 71.783,-464.8033 438.325,-170.3134 366.774,294.3993 -71.691,465.0374 -438.325,170.3134 z m -1308.606,336.8126 -180.843,-462.6637 224.496,180.1745 -43.653,282.4892 z m 222.066,-502.5452 -179.265,-143.8396 c 111.153,-72.819 339.408,-222.4056 683.418,-447.928 l -64.896,421.092 -439.257,170.6756 z m 1516.852,-897.0168 -173.416,-139.139 -63.698,-51.4211 -11.419,4.4366 c 33.729,-15.9566 44.888,-13.4469 54.317,-4.476 10.935,11.8557 76.045,75.6271 145.105,142.898 14.203,13.7271 33.159,32.1777 49.111,47.7015 z"
       id="path3077-4-6"
       inkscape:connector-curvature="0" />
    <path
       style="fill:none;stroke:#0000ff;stroke-width:28.34645664"
       d="m 16305.248,4355.1323 c -1.666,0.6528 -3.51,1.1236 -5.307,1.5259 -11.241,2.5148 -99.861,8.3618 -221.188,15.4045 l 46.973,-303.6256 267.982,-104.1259 c -8.602,55.0976 -18.045,116.9958 -24.148,155.2883 -28.046,184.0443 -39.315,225.7433 -64.312,235.5328 z m -517.466,32.8973 c -1.459,0.08 -2.72,0.2064 -4.181,0.284 -194.923,8.9298 -487.758,24.3075 -739.764,38.5415 l -76.782,-61.6251 71.782,-464.8036 438.325,-170.3133 366.775,294.3996 -56.155,363.5173 z m -1482.028,81.0047 c -27.728,1.4947 -54.005,2.9164 -81.707,4.3904 l -343.791,-275.9729 71.783,-464.8036 438.558,-170.404 366.542,294.4902 -71.55,464.7131 -379.835,147.5868 z m 1716.48,-666.9476 -366.775,-294.3996 71.692,-465.0367 438.325,-170.3134 354.752,284.8561 c -18.609,118.9541 -39.273,250.086 -64.595,409.442 -3.318,21.4252 -7.568,48.22 -11.153,71.3856 l -422.246,164.066 z m -2226.358,693.142 c -8.274,0.404 -19.072,1.0152 -27.081,1.4031 -103.46,5.5933 -206.567,11.3564 -308.019,16.9588 l 241.183,-93.7132 93.917,75.3513 z m -817.486,48.3569 c -142.139,9.2952 -153.496,5.9862 -130.399,-15.3122 1.941,-2.0308 16.164,-23.3394 39.11,-58.1096 l 91.289,73.4218 z m 181.61,-219.4216 -116.667,-93.8685 c 79.626,-122.8468 173.919,-268.4624 279.079,-432.434 47.883,-75.0695 105.993,-166.0052 163.965,-256.5516 l 183.873,147.4136 -71.692,465.0365 -438.558,170.404 z m 1775.203,-689.7648 -366.866,-294.6325 71.783,-464.8036 438.557,-170.404 366.542,294.4901 -71.459,464.9462 -438.557,170.4038 z m 1634.89,-800.9984 -228.042,-183.0886 63.158,-409.6883 c 216.269,83.7149 238.191,99.7785 234.791,125.2152 -3.175,15.8129 -16.698,106.1092 -30.595,201.5116 -9.813,69.2609 -23.253,160.2545 -39.312,266.0501 z m -2721.546,632.897 -207.362,-166.4487 c 148.741,-231.7933 302.446,-471.1317 443.045,-688.9856 l 274.424,220.3173 -71.782,464.8036 -438.325,170.3134 z m 1775.203,-689.7647 -366.775,-294.3996 71.692,-465.0367 241.416,-93.8036 c 164.419,62.4764 307.609,116.9512 554.378,210.5088 l 9.396,7.614 -71.783,464.8036 -438.324,170.3135 z m -1086.889,-168.0109 -296.995,-238.3686 c 5.223,-8.0648 12.196,-18.6885 17.302,-26.5697 l 425.328,-662.7915 364.472,292.6131 -71.783,464.8032 -438.324,170.3135 z"
       id="path3077-4-0-18"
       inkscape:connector-curvature="0" />
    <path
       style="fill:none;stroke:#0000ff;stroke-width:28.34645664"
       d="m 15083.863,7280.6 -8.153,-6.4875 71.782,-464.8036 438.325,-170.3134 294.277,236.206 c -372.366,188.7954 -625.806,317.3886 -707.418,358.5523 l -88.813,46.8462 z m 1047.026,-569.6305 -366.775,-294.3996 71.692,-465.0367 438.325,-170.3133 366.865,294.6327 -69.305,449.0897 c -36.822,18.7252 -79.26,40.1772 -125.749,63.6118 l -315.053,122.4154 z m -1305.13,314.0052 -330.29,-411.032 c -25.838,-31.8842 -58.951,-72.8292 -87.189,-107.7364 l 90.648,-35.2216 366.866,294.6326 -40.035,259.3574 z m 218.332,-481.783 -366.866,-294.6327 71.783,-464.8036 438.558,-170.404 366.542,294.4902 -71.459,464.946 -438.558,170.4041 z m 1669.587,-774.5173 -261.25,-209.8802 71.783,-464.8035 7.923,-3.0787 c 6.396,24.0743 13.705,51.7315 19.602,73.919 68.494,253.6506 120.77,448.4557 161.942,603.8434 z m -2493.854,504.4631 c -174.046,-215.7568 -364.095,-452.2808 -535.567,-665.9948 l 416.187,-161.7116 366.865,294.6325 -71.782,464.8036 -175.703,68.2703 z m 1512.348,-587.6309 -366.866,-294.6328 71.783,-464.8036 438.557,-170.4039 366.542,294.4901 -71.459,464.9462 -438.557,170.404 z m -1086.565,-167.8686 -366.866,-294.6326 71.782,-464.8036 438.325,-170.3135 366.775,294.3997 -71.692,465.0367 -438.324,170.3133 z m 1775.112,-689.9977 -366.775,-294.3996 19.842,-128.4039 c 130.791,-6.3761 227.706,-10.5582 239.696,-9.1858 29.285,3.3509 43.57,36.3805 94.118,228.4201 12.602,46.5807 31.708,118.988 50.403,189.082 l -37.284,14.4872 z m -2862.001,521.9868 -227.628,-182.7129 c -44.759,-55.6324 -90.458,-112.5787 -131.21,-163.0483 l 63.755,-413.6752 114.882,-44.638 c 125.683,-6.2644 267.968,-13.6825 403.37,-20.7499 14.063,-0.8133 32.657,-1.7909 47.52,-2.6397 l 239.327,192.114 -71.692,465.0365 -438.324,170.3135 z m 1775.202,-689.7648 -251.531,-202.1236 c 241.104,-12.0749 512.352,-26.7468 700.53,-38.0481 l -10.674,69.8584 -438.325,170.3133 z m -2376.262,45.7308 c -52.524,-64.2188 -91.835,-111.9899 -94.967,-114.6381 -24.469,-18.1707 -13.66,-22.9267 116.859,-28.5088 l -21.892,143.1469 z"
       id="path3077-4-0-8-9"
       inkscape:connector-curvature="0" />
    <path
       d="m 9507.4822,1829.9478 c -11.3512,185.1844 -25.7562,473.113 -49.5964,1009.9162 -8.6686,179.208 -20.938,430.3992 -26.5844,558.9055 -10.0721,198.3253 -6.3845,234.0876 20.5053,246.1625 17.9266,8.05 242.4981,67.6048 499.6316,134.6015 256.3107,64.8309 686.8567,177.3856 955.9407,249.7483 269.084,72.3618 717.405,189.3081 995.972,260.5432 277.895,72.7285 592.833,154.9109 697.466,185.7402 200.974,56.1391 219.42,59.0363 198.415,29.8579 -6.28,-10.0004 -149.708,-374.1881 -318.131,-810.6336 -166.93,-435.776 -447.808,-1161.468 -624.158,-1612.2447 l -317.094,-820.9392 -140.429,24.9016 c -129.606,20.7854 -486.32,79.6084 -1370.939,222.7032 -471.8388,75.3418 -508.1195,84.1808 -510.4082,117.2607 -0.062,16.1283 -5.0661,107.2264 -10.5906,203.4767 z"
       id="path3077-45-2"
       style="fill:none;stroke:#ff0000;stroke-width:28.34645664"
       inkscape:connector-curvature="0" />
    <path
       d="m 13432.871,304.7165 c 133.405,128.9384 338.435,331.6047 718.456,711.4852 127.391,126.3413 306.04,303.3499 396.971,394.3309 141.333,139.4958 162.76,168.3657 151.077,195.4281 -7.788,18.0417 -133.236,213.5983 -277.678,436.6293 -145.296,220.8771 -386.898,594.5988 -536.531,829.6566 -149.635,235.0573 -401.383,624.0193 -558.773,864.6473 -155.886,241.2768 -332.714,514.5377 -389.084,607.9244 -110.346,177.1055 -121.995,191.6963 -126.202,155.9905 -2.119,-11.617 -142.211,-377.101 -312.649,-812.7634 -171.089,-434.16 -453.867,-1159.1139 -628.135,-1610.6996 l -320.372,-819.6651 120.401,-76.4455 c 109.64,-72.1748 412.487,-269.6281 1161.647,-761.347 398.923,-262.9977 431.655,-280.9738 455.677,-258.1172 10.935,11.8554 76.135,75.6755 145.195,142.9455 z"
       id="path3077-4-5-7"
       style="fill:none;stroke:#ff0000;stroke-width:28.34645664"
       inkscape:connector-curvature="0" />
    <path
       d="m 16609.64,2567.3244 c -26.026,183.6974 -69.671,468.6628 -153.995,999.3375 -27.456,177.3044 -65.823,425.8509 -86.069,552.8783 -29.915,196.3145 -40.701,230.6104 -69.466,237.0453 -19.177,4.2908 -251.132,17.588 -516.477,31.6428 -264.105,12.0991 -708.479,36.0007 -986.609,52.916 -278.131,16.9147 -740.798,41.5524 -1027.991,55.4612 -286.836,15.5071 -611.858,32.8443 -720.548,42.0568 -208.153,14.6848 -226.804,13.8233 -200.372,-10.5492 8.157,-8.5371 221.724,-336.552 474.272,-730.3425 250.951,-393.4328 671.691,-1048.0328 934.879,-1454.2718 l 475.324,-740.6461 132.58,52.5645 c 122.802,46.3615 460.466,175.5439 1298.402,493.1798 447.134,168.458 480.905,184.396 476.51,217.2621 -3.173,15.8119 -16.544,106.0627 -30.44,201.4653 z"
       id="path3077-4-0-1-9"
       style="fill:none;stroke:#ff0000;stroke-width:28.34645664"
       inkscape:connector-curvature="0" />
    <path
       d="m 16810.934,6142.1167 c -45.345,-179.9052 -118.937,-458.6424 -259.016,-977.3944 -46.09,-173.3976 -110.576,-416.48 -144.167,-540.6469 -50.548,-192.0394 -64.908,-224.9991 -94.193,-228.3503 -19.523,-2.2337 -251.581,9.1211 -516.921,23.2608 -263.901,15.9536 -708.306,39.2717 -986.663,51.9216 -278.357,12.6503 -741.03,37.1744 -1028.08,53.7752 -286.865,14.9732 -611.894,32.1717 -720.948,34.5276 -208.536,7.4539 -226.991,10.2872 -198.127,31.7212 9.017,7.6251 256.137,311.1645 548.99,675.9784 291.225,364.6268 778.957,970.9613 1083.707,1347.0262 l 551.127,686.1122 126.263,-66.3169 c 117.198,-59.1123 439.274,-223.3457 1238.836,-627.9797 426.769,-214.8871 458.659,-234.313 450.808,-266.5287 -4.832,-15.3876 -27.69,-103.7134 -51.616,-197.1063 z"
       id="path3077-4-0-8-1-5"
       style="fill:none;stroke:#ff0000;stroke-width:28.34645664"
       inkscape:connector-curvature="0" />
  </g>
</svg>
