  0
SECTION
  2
HEADER
  9
$ACADVER
  1
AC1014
  9
$HANDSEED
  5
FFFF
  9
$MEASUREMENT
 70
     1
  0
ENDSEC
  0
SECTION
  2
TABLES
  0
TABLE
  2
VPORT
  5
8
330
0
100
AcDbSymbolTable
 70
     4
  0
VPORT
  5
2E
330
8
100
AcDbSymbolTableRecord
100
AcDbViewportTableRecord
  2
*ACTIVE
 70
     0
 10
0.0
 20
0.0
 11
1.0
 21
1.0
 12
210.0
 22
148.5
 13
0.0
 23
0.0
 14
10.0
 24
10.0
 15
10.0
 25
10.0
 16
0.0
 26
0.0
 36
1.0
 17
0.0
 27
0.0
 37
0.0
 40
341.0
 41
1.24
 42
50.0
 43
0.0
 44
0.0
 50
0.0
 51
0.0
 71
     0
 72
   100
 73
     1
 74
     3
 75
     0
 76
     0
 77
     0
 78
     0
  0
ENDTAB
  0
TABLE
  2
LTYPE
  5
5
330
0
100
AcDbSymbolTable
 70
     1
  0
LTYPE
  5
14
330
5
100
AcDbSymbolTableRecord
100
AcDbLinetypeTableRecord
  2
BYBLOCK
 70
     0
  3

 72
    65
 73
     0
 40
0.0
  0
LTYPE
  5
15
330
5
100
AcDbSymbolTableRecord
100
AcDbLinetypeTableRecord
  2
BYLAYER
 70
     0
  3

 72
    65
 73
     0
 40
0.0
  0
LTYPE
  5
16
330
5
100
AcDbSymbolTableRecord
100
AcDbLinetypeTableRecord
  2
CONTINUOUS
 70
     0
  3
Solid line
 72
    65
 73
     0
 40
0.0
  0
ENDTAB
  0
TABLE
  2
LAYER
  5
2
100
AcDbSymbolTable
 70
2
  0
LAYER
  5
50
100
AcDbSymbolTableRecord
100
AcDbLayerTableRecord
  2
0
 70
0
  6
CONTINUOUS
  0
LAYER
  5
51
100
AcDbSymbolTableRecord
100
AcDbLayerTableRecord
  2
Layer_1
 70
0
  6
CONTINUOUS
  0
ENDTAB
  0
TABLE
  2
STYLE
  5
3
330
0
100
AcDbSymbolTable
 70
     1
  0
STYLE
  5
11
330
3
100
AcDbSymbolTableRecord
100
AcDbTextStyleTableRecord
  2
STANDARD
 70
     0
 40
0.0
 41
1.0
 50
0.0
 71
     0
 42
2.5
  3
txt
  4

  0
ENDTAB
  0
TABLE
  2
VIEW
  5
6
330
0
100
AcDbSymbolTable
 70
     0
  0
ENDTAB
  0
TABLE
  2
UCS
  5
7
330
0
100
AcDbSymbolTable
 70
     0
  0
ENDTAB
  0
TABLE
  2
APPID
  5
9
330
0
100
AcDbSymbolTable
 70
     2
  0
APPID
  5
12
330
9
100
AcDbSymbolTableRecord
100
AcDbRegAppTableRecord
  2
ACAD
 70
     0
  0
ENDTAB
  0
TABLE
  2
DIMSTYLE
  5
A
330
0
100
AcDbSymbolTable
 70
     1
  0
DIMSTYLE
105
27
330
A
100
AcDbSymbolTableRecord
100
AcDbDimStyleTableRecord
  2
ISO-25
 70
     0
  3

  4

  5

  6

  7

 40
1.0
 41
2.5
 42
0.625
 43
3.75
 44
1.25
 45
0.0
 46
0.0
 47
0.0
 48
0.0
140
2.5
141
2.5
142
0.0
143
0.03937007874016
144
1.0
145
0.0
146
1.0
147
0.625
 71
     0
 72
     0
 73
     0
 74
     0
 75
     0
 76
     0
 77
     1
 78
     8
170
     0
171
     3
172
     1
173
     0
174
     0
175
     0
176
     0
177
     0
178
     0
270
     2
271
     2
272
     2
273
     2
274
     3
340
11
275
     0
280
     0
281
     0
282
     0
283
     0
284
     8
285
     0
286
     0
287
     3
288
     0
  0
ENDTAB
  0
TABLE
  2
BLOCK_RECORD
  5
1
330
0
100
AcDbSymbolTable
 70
     1
  0
BLOCK_RECORD
  5
1F
330
1
100
AcDbSymbolTableRecord
100
AcDbBlockTableRecord
  2
*MODEL_SPACE
  0
BLOCK_RECORD
  5
1B
330
1
100
AcDbSymbolTableRecord
100
AcDbBlockTableRecord
  2
*PAPER_SPACE
  0
ENDTAB
  0
ENDSEC
  0
SECTION
  2
BLOCKS
  0
BLOCK
  5
20
330
1F
100
AcDbEntity
  8
0
100
AcDbBlockBegin
  2
*MODEL_SPACE
 70
     0
 10
0.0
 20
0.0
 30
0.0
  3
*MODEL_SPACE
  1

  0
ENDBLK
  5
21
330
1F
100
AcDbEntity
  8
0
100
AcDbBlockEnd
  0
BLOCK
  5
1C
330
1B
100
AcDbEntity
 67
     1
  8
0
100
AcDbBlockBegin
  2
*PAPER_SPACE
  1

  0
ENDBLK
  5
1D
330
1B
100
AcDbEntity
 67
     1
  8
0
100
AcDbBlockEnd
  0
ENDSEC
  0
SECTION
  2
ENTITIES
  0
LWPOLYLINE
  5
100
100
AcDbEntity
  8
Layer_1
 62
1
100
AcDbPolyline
 90
4
 70
0
 10
299.593005
 20
32.374881
 30
0.0
 10
16.212458
 20
32.374881
 30
0.0
 10
157.902698
 20
277.789597
 30
0.0
 10
299.593005
 20
32.374881
 30
0.0
  0
LWPOLYLINE
  5
101
100
AcDbEntity
  8
Layer_1
 62
5
100
AcDbPolyline
 90
6
 70
0
 10
134.854857
 20
154.870866
 30
0.0
 10
191.284353
 20
154.870866
 30
0.0
 10
172.070089
 20
135.678658
 30
0.0
 10
134.854857
 20
135.678658
 30
0.0
 10
134.854857
 20
154.870866
 30
0.0
 10
134.854857
 20
154.870866
 30
0.0
  0
LWPOLYLINE
  5
102
100
AcDbEntity
  8
Layer_1
 62
5
100
AcDbPolyline
 90
5
 70
0
 10
123.560137
 20
149.730882
 30
0.0
 10
123.560137
 20
135.678658
 30
0.0
 10
109.507913
 20
135.678658
 30
0.0
 10
123.560137
 20
149.730882
 30
0.0
 10
123.560137
 20
149.730882
 30
0.0
  0
LWPOLYLINE
  5
103
100
AcDbEntity
  8
Layer_1
 62
5
100
AcDbPolyline
 90
6
 70
0
 10
199.689209
 20
147.304282
 30
0.0
 10
199.689209
 20
90.036514
 30
0.0
 10
180.497009
 20
90.036514
 30
0.0
 10
180.497009
 20
128.134138
 30
0.0
 10
199.689209
 20
147.304282
 30
0.0
 10
199.689209
 20
147.304282
 30
0.0
  0
LWPOLYLINE
  5
104
100
AcDbEntity
  8
Layer_1
 62
5
100
AcDbPolyline
 90
6
 70
0
 10
104.389993
 20
124.383938
 30
0.0
 10
123.560137
 20
124.383938
 30
0.0
 10
123.560137
 20
86.727514
 30
0.0
 10
104.389993
 20
67.623578
 30
0.0
 10
104.389993
 20
124.383938
 30
0.0
 10
104.389993
 20
124.383938
 30
0.0
  0
LWPOLYLINE
  5
105
100
AcDbEntity
  8
Layer_1
 62
5
100
AcDbPolyline
 90
6
 70
0
 10
134.854857
 20
124.383938
 30
0.0
 10
169.202289
 20
124.383938
 30
0.0
 10
169.202289
 20
90.036514
 30
0.0
 10
134.854857
 20
90.036514
 30
0.0
 10
134.854857
 20
124.383938
 30
0.0
 10
134.854857
 20
124.383938
 30
0.0
  0
LWPOLYLINE
  5
106
100
AcDbEntity
  8
Layer_1
 62
5
100
AcDbPolyline
 90
6
 70
0
 10
131.545857
 20
78.741818
 30
0.0
 10
169.202289
 20
78.741818
 30
0.0
 10
169.202289
 20
59.571658
 30
0.0
 10
112.309537
 20
59.571658
 30
0.0
 10
131.545857
 20
78.741818
 30
0.0
 10
131.545857
 20
78.741818
 30
0.0
  0
LWPOLYLINE
  5
107
100
AcDbEntity
  8
Layer_1
 62
5
100
AcDbPolyline
 90
5
 70
0
 10
180.497009
 20
78.741818
 30
0.0
 10
195.233089
 20
78.741818
 30
0.0
 10
180.497009
 20
63.895418
 30
0.0
 10
180.497009
 20
78.741818
 30
0.0
 10
180.497009
 20
78.741818
 30
0.0
  0
LWPOLYLINE
  5
108
100
AcDbEntity
  8
Layer_1
 62
1
100
AcDbPolyline
 90
4
 70
0
 10
583.057533
 20
32.374878
 30
0.0
 10
299.676985
 20
32.374878
 30
0.0
 10
441.367225
 20
277.789594
 30
0.0
 10
583.057533
 20
32.374878
 30
0.0
  0
LWPOLYLINE
  5
109
100
AcDbEntity
  8
Layer_1
 62
5
100
AcDbPolyline
 90
6
 70
0
 10
418.319384
 20
154.870862
 30
0.0
 10
474.748880
 20
154.870862
 30
0.0
 10
455.534616
 20
135.678654
 30
0.0
 10
418.319384
 20
135.678654
 30
0.0
 10
418.319384
 20
154.870862
 30
0.0
 10
418.319384
 20
154.870862
 30
0.0
  0
LWPOLYLINE
  5
10a
100
AcDbEntity
  8
Layer_1
 62
5
100
AcDbPolyline
 90
5
 70
0
 10
407.024664
 20
149.730878
 30
0.0
 10
407.024664
 20
135.678654
 30
0.0
 10
392.972440
 20
135.678654
 30
0.0
 10
407.024664
 20
149.730878
 30
0.0
 10
407.024664
 20
149.730878
 30
0.0
  0
LWPOLYLINE
  5
10b
100
AcDbEntity
  8
Layer_1
 62
5
100
AcDbPolyline
 90
6
 70
0
 10
483.153736
 20
147.304278
 30
0.0
 10
483.153736
 20
90.036510
 30
0.0
 10
463.961536
 20
90.036510
 30
0.0
 10
463.961536
 20
128.134134
 30
0.0
 10
483.153736
 20
147.304278
 30
0.0
 10
483.153736
 20
147.304278
 30
0.0
  0
LWPOLYLINE
  5
10c
100
AcDbEntity
  8
Layer_1
 62
5
100
AcDbPolyline
 90
6
 70
0
 10
387.854520
 20
124.383934
 30
0.0
 10
407.024664
 20
124.383934
 30
0.0
 10
407.024664
 20
86.727510
 30
0.0
 10
387.854520
 20
67.623574
 30
0.0
 10
387.854520
 20
124.383934
 30
0.0
 10
387.854520
 20
124.383934
 30
0.0
  0
LWPOLYLINE
  5
10d
100
AcDbEntity
  8
Layer_1
 62
5
100
AcDbPolyline
 90
6
 70
0
 10
418.319384
 20
124.383934
 30
0.0
 10
452.666816
 20
124.383934
 30
0.0
 10
452.666816
 20
90.036510
 30
0.0
 10
418.319384
 20
90.036510
 30
0.0
 10
418.319384
 20
124.383934
 30
0.0
 10
418.319384
 20
124.383934
 30
0.0
  0
LWPOLYLINE
  5
10e
100
AcDbEntity
  8
Layer_1
 62
5
100
AcDbPolyline
 90
6
 70
0
 10
415.010384
 20
78.741814
 30
0.0
 10
452.666816
 20
78.741814
 30
0.0
 10
452.666816
 20
59.571654
 30
0.0
 10
395.774064
 20
59.571654
 30
0.0
 10
415.010384
 20
78.741814
 30
0.0
 10
415.010384
 20
78.741814
 30
0.0
  0
LWPOLYLINE
  5
10f
100
AcDbEntity
  8
Layer_1
 62
5
100
AcDbPolyline
 90
5
 70
0
 10
463.961536
 20
78.741814
 30
0.0
 10
478.697616
 20
78.741814
 30
0.0
 10
463.961536
 20
63.895414
 30
0.0
 10
463.961536
 20
78.741814
 30
0.0
 10
463.961536
 20
78.741814
 30
0.0
  0
LWPOLYLINE
  5
110
100
AcDbEntity
  8
Layer_1
 62
1
100
AcDbPolyline
 90
4
 70
0
 10
441.325253
 20
277.789632
 30
0.0
 10
157.944705
 20
277.789632
 30
0.0
 10
299.634945
 20
32.374916
 30
0.0
 10
441.325253
 20
277.789632
 30
0.0
  0
LWPOLYLINE
  5
111
100
AcDbEntity
  8
Layer_1
 62
5
100
AcDbPolyline
 90
6
 70
0
 10
276.587104
 20
155.293648
 30
0.0
 10
333.016600
 20
155.293648
 30
0.0
 10
313.802336
 20
174.485856
 30
0.0
 10
276.587104
 20
174.485856
 30
0.0
 10
276.587104
 20
155.293648
 30
0.0
 10
276.587104
 20
155.293648
 30
0.0
  0
LWPOLYLINE
  5
112
100
AcDbEntity
  8
Layer_1
 62
5
100
AcDbPolyline
 90
5
 70
0
 10
265.292384
 20
160.433632
 30
0.0
 10
265.292384
 20
174.485856
 30
0.0
 10
251.240160
 20
174.485856
 30
0.0
 10
265.292384
 20
160.433632
 30
0.0
 10
265.292384
 20
160.433632
 30
0.0
  0
LWPOLYLINE
  5
113
100
AcDbEntity
  8
Layer_1
 62
5
100
AcDbPolyline
 90
6
 70
0
 10
341.421456
 20
162.860232
 30
0.0
 10
341.421456
 20
220.128000
 30
0.0
 10
322.229256
 20
220.128000
 30
0.0
 10
322.229256
 20
182.030376
 30
0.0
 10
341.421456
 20
162.860232
 30
0.0
 10
341.421456
 20
162.860232
 30
0.0
  0
LWPOLYLINE
  5
114
100
AcDbEntity
  8
Layer_1
 62
5
100
AcDbPolyline
 90
6
 70
0
 10
246.122240
 20
185.780576
 30
0.0
 10
265.292384
 20
185.780576
 30
0.0
 10
265.292384
 20
223.437000
 30
0.0
 10
246.122240
 20
242.540936
 30
0.0
 10
246.122240
 20
185.780576
 30
0.0
 10
246.122240
 20
185.780576
 30
0.0
  0
LWPOLYLINE
  5
115
100
AcDbEntity
  8
Layer_1
 62
5
100
AcDbPolyline
 90
6
 70
0
 10
276.587104
 20
185.780576
 30
0.0
 10
310.934536
 20
185.780576
 30
0.0
 10
310.934536
 20
220.128000
 30
0.0
 10
276.587104
 20
220.128000
 30
0.0
 10
276.587104
 20
185.780576
 30
0.0
 10
276.587104
 20
185.780576
 30
0.0
  0
LWPOLYLINE
  5
116
100
AcDbEntity
  8
Layer_1
 62
5
100
AcDbPolyline
 90
6
 70
0
 10
273.278104
 20
231.422696
 30
0.0
 10
310.934536
 20
231.422696
 30
0.0
 10
310.934536
 20
250.592856
 30
0.0
 10
254.041784
 20
250.592856
 30
0.0
 10
273.278104
 20
231.422696
 30
0.0
 10
273.278104
 20
231.422696
 30
0.0
  0
LWPOLYLINE
  5
117
100
AcDbEntity
  8
Layer_1
 62
5
100
AcDbPolyline
 90
5
 70
0
 10
322.229256
 20
231.422696
 30
0.0
 10
336.965336
 20
231.422696
 30
0.0
 10
322.229256
 20
246.269096
 30
0.0
 10
322.229256
 20
231.422696
 30
0.0
 10
322.229256
 20
231.422696
 30
0.0
  0
LWPOLYLINE
  5
118
100
AcDbEntity
  8
Layer_1
 62
1
100
AcDbPolyline
 90
4
 70
0
 10
724.789821
 20
277.789632
 30
0.0
 10
441.409273
 20
277.789632
 30
0.0
 10
583.099513
 20
32.374916
 30
0.0
 10
724.789821
 20
277.789632
 30
0.0
  0
LWPOLYLINE
  5
119
100
AcDbEntity
  8
Layer_1
 62
5
100
AcDbPolyline
 90
6
 70
0
 10
560.051672
 20
155.293648
 30
0.0
 10
616.481168
 20
155.293648
 30
0.0
 10
597.266904
 20
174.485856
 30
0.0
 10
560.051672
 20
174.485856
 30
0.0
 10
560.051672
 20
155.293648
 30
0.0
 10
560.051672
 20
155.293648
 30
0.0
  0
LWPOLYLINE
  5
11a
100
AcDbEntity
  8
Layer_1
 62
5
100
AcDbPolyline
 90
5
 70
0
 10
548.756952
 20
160.433632
 30
0.0
 10
548.756952
 20
174.485856
 30
0.0
 10
534.704728
 20
174.485856
 30
0.0
 10
548.756952
 20
160.433632
 30
0.0
 10
548.756952
 20
160.433632
 30
0.0
  0
LWPOLYLINE
  5
11b
100
AcDbEntity
  8
Layer_1
 62
5
100
AcDbPolyline
 90
6
 70
0
 10
624.886024
 20
162.860232
 30
0.0
 10
624.886024
 20
220.128000
 30
0.0
 10
605.693824
 20
220.128000
 30
0.0
 10
605.693824
 20
182.030376
 30
0.0
 10
624.886024
 20
162.860232
 30
0.0
 10
624.886024
 20
162.860232
 30
0.0
  0
LWPOLYLINE
  5
11c
100
AcDbEntity
  8
Layer_1
 62
5
100
AcDbPolyline
 90
6
 70
0
 10
529.586808
 20
185.780576
 30
0.0
 10
548.756952
 20
185.780576
 30
0.0
 10
548.756952
 20
223.437000
 30
0.0
 10
529.586808
 20
242.540936
 30
0.0
 10
529.586808
 20
185.780576
 30
0.0
 10
529.586808
 20
185.780576
 30
0.0
  0
LWPOLYLINE
  5
11d
100
AcDbEntity
  8
Layer_1
 62
5
100
AcDbPolyline
 90
6
 70
0
 10
560.051672
 20
185.780576
 30
0.0
 10
594.399104
 20
185.780576
 30
0.0
 10
594.399104
 20
220.128000
 30
0.0
 10
560.051672
 20
220.128000
 30
0.0
 10
560.051672
 20
185.780576
 30
0.0
 10
560.051672
 20
185.780576
 30
0.0
  0
LWPOLYLINE
  5
11e
100
AcDbEntity
  8
Layer_1
 62
5
100
AcDbPolyline
 90
6
 70
0
 10
556.742672
 20
231.422696
 30
0.0
 10
594.399104
 20
231.422696
 30
0.0
 10
594.399104
 20
250.592856
 30
0.0
 10
537.506352
 20
250.592856
 30
0.0
 10
556.742672
 20
231.422696
 30
0.0
 10
556.742672
 20
231.422696
 30
0.0
  0
LWPOLYLINE
  5
11f
100
AcDbEntity
  8
Layer_1
 62
5
100
AcDbPolyline
 90
5
 70
0
 10
605.693824
 20
231.422696
 30
0.0
 10
620.429904
 20
231.422696
 30
0.0
 10
605.693824
 20
246.269096
 30
0.0
 10
605.693824
 20
231.422696
 30
0.0
 10
605.693824
 20
231.422696
 30
0.0
  0
ENDSEC
  0
SECTION
  2
OBJECTS
  0
DICTIONARY
  5
C
330
0
100
AcDbDictionary
  3
ACAD_GROUP
350
D
  3
ACAD_MLINESTYLE
350
17
  0
DICTIONARY
  5
D
330
C
100
AcDbDictionary
  0
DICTIONARY
  5
1A
330
C
100
AcDbDictionary
  0
DICTIONARY
  5
17
330
C
100
AcDbDictionary
  3
STANDARD
350
18
  0
DICTIONARY
  5
19
330
C
100
AcDbDictionary
  0
ENDSEC
  0
EOF
